999
dxfrw 0.5.13
0
SECTION
2
HEADER
9
$ACADVER
1
AC1021
9
$HANDSEED
5
20000
9
$DWGCODEPAGE
3
ANSI_1250
9
$INSBASE
10
0
20
0
30
0
9
$EXTMIN
10
-205
20
-229
30
0
9
$EXTMAX
10
232
20
247
30
0
9
$LIMMIN
10
0
20
0
9
$LIMMAX
10
420
20
297
9
$ORTHOMODE
70
0
9
$LTSCALE
40
1
9
$TEXTSTYLE
7
STANDARD
9
$CLAYER
8
0
9
$DIMASZ
40
3.5
9
$DIMLFAC
40
1
9
$DIMSCALE
40
1
9
$DIMEXO
40
1
9
$DIMEXE
40
1
9
$DIMTXT
40
3.5
9
$DIMTSZ
40
0
9
$DIMAUNIT
70
0
9
$DIMADEC
70
0
9
$DIMLUNIT
70
2
9
$DIMSTYLE
2
AM_ISO
9
$DIMGAP
40
1.5
9
$DIMTIH
70
0
9
$LUNITS
70
2
9
$LUPREC
70
2
9
$AUNITS
70
0
9
$AUPREC
70
0
9
$SPLINESEGS
70
8
9
$GRIDMODE
70
1
9
$SNAPSTYLE
70
0
9
$PINSBASE
10
0
20
0
30
0
9
$PLIMMIN
10
0
20
0
9
$PLIMMAX
10
0
20
0
9
$INSUNITS
70
4
9
$PSVPSCALE
40
1
0
ENDSEC
0
SECTION
2
CLASSES
0
ENDSEC
0
SECTION
2
TABLES
0
TABLE
2
VPORT
5
8
330
0
100
AcDbSymbolTable
70
1
0
VPORT
5
31
330
2
100
AcDbSymbolTableRecord
100
AcDbViewportTableRecord
2
*ACTIVE
70
0
10
0
20
0
11
1
21
1
12
240.590979782
22
127.3281493
13
0
23
0
14
10
24
10
15
10
25
10
16
0
26
0
36
1
17
0
27
0
37
0
40
490.805598756
41
1.90497737557
42
50
43
0
44
0
50
0
51
0
71
0
72
100
73
1
74
3
75
0
76
1
77
0
78
0
281
0
65
1
110
0
120
0
130
0
111
1
121
0
131
0
112
0
122
1
132
0
79
0
146
0
348
10020
60
7
61
5
292
1
282
1
141
0
142
0
63
250
421
3358443
0
ENDTAB
0
TABLE
2
LTYPE
5
5
330
0
100
AcDbSymbolTable
70
4
0
LTYPE
5
14
330
5
100
AcDbSymbolTableRecord
100
AcDbLinetypeTableRecord
2
ByBlock
70
0
3

72
65
73
0
40
0
0
LTYPE
5
15
330
5
100
AcDbSymbolTableRecord
100
AcDbLinetypeTableRecord
2
ByLayer
70
0
3

72
65
73
0
40
0
0
LTYPE
5
16
330
5
100
AcDbSymbolTableRecord
100
AcDbLinetypeTableRecord
2
Continuous
70
0
3
Solid line
72
65
73
0
40
0
0
LTYPE
5
32
330
5
100
AcDbSymbolTableRecord
100
AcDbLinetypeTableRecord
2
DOT
70
0
3
Dot . . . . . . . . . . . . . . . . . . . . . .
72
65
73
2
40
6.35
49
0
74
0
49
-6.35
74
0
0
LTYPE
5
33
330
5
100
AcDbSymbolTableRecord
100
AcDbLinetypeTableRecord
2
DOT2
70
0
3
Dot (.5x) .....................................
72
65
73
2
40
3.175
49
0
74
0
49
-3.175
74
0
0
LTYPE
5
34
330
5
100
AcDbSymbolTableRecord
100
AcDbLinetypeTableRecord
2
DOTX2
70
0
3
Dot (2x) .  .  .  .  .  .  .  .  .  .  .  .  .
72
65
73
2
40
12.7
49
0
74
0
49
-12.7
74
0
0
LTYPE
5
35
330
5
100
AcDbSymbolTableRecord
100
AcDbLinetypeTableRecord
2
DASHED
70
0
3
Dot . . . . . . . . . . . . . . . . . . . . . .
72
65
73
2
40
19.05
49
12.7
74
0
49
-6.35
74
0
0
LTYPE
5
36
330
5
100
AcDbSymbolTableRecord
100
AcDbLinetypeTableRecord
2
DASHED2
70
0
3
Dashed (.5x) _ _ _ _ _ _ _ _ _ _ _ _ _ _ _ _ _
72
65
73
2
40
9.525
49
6.35
74
0
49
-3.175
74
0
0
LTYPE
5
37
330
5
100
AcDbSymbolTableRecord
100
AcDbLinetypeTableRecord
2
DASHEDX2
70
0
3
Dashed (2x) ____  ____  ____  ____  ____  ___
72
65
73
2
40
38.1
49
25.4
74
0
49
-12.7
74
0
0
LTYPE
5
38
330
5
100
AcDbSymbolTableRecord
100
AcDbLinetypeTableRecord
2
DASHDOT
70
0
3
Dash dot __ . __ . __ . __ . __ . __ . __ . __
72
65
73
4
40
25.4
49
12.7
74
0
49
-6.35
74
0
49
0
74
0
49
-6.35
74
0
0
LTYPE
5
39
330
5
100
AcDbSymbolTableRecord
100
AcDbLinetypeTableRecord
2
DASHDOT2
70
0
3
Dash dot (.5x) _._._._._._._._._._._._._._._.
72
65
73
4
40
12.7
49
6.35
74
0
49
-3.175
74
0
49
0
74
0
49
-3.175
74
0
0
LTYPE
5
3A
330
5
100
AcDbSymbolTableRecord
100
AcDbLinetypeTableRecord
2
DASHDOTX2
70
0
3
Dash dot (2x) ____  .  ____  .  ____  .  ___
72
65
73
4
40
50.8
49
25.4
74
0
49
-12.7
74
0
49
0
74
0
49
-12.7
74
0
0
LTYPE
5
3B
330
5
100
AcDbSymbolTableRecord
100
AcDbLinetypeTableRecord
2
DIVIDE
70
0
3
Divide ____ . . ____ . . ____ . . ____ . . ____
72
65
73
6
40
31.75
49
12.7
74
0
49
-6.35
74
0
49
0
74
0
49
-6.35
74
0
49
0
74
0
49
-6.35
74
0
0
LTYPE
5
3C
330
5
100
AcDbSymbolTableRecord
100
AcDbLinetypeTableRecord
2
DIVIDE2
70
0
3
Divide (.5x) __..__..__..__..__..__..__..__.._
72
65
73
6
40
15.875
49
6.35
74
0
49
-3.175
74
0
49
0
74
0
49
-3.175
74
0
49
0
74
0
49
-3.175
74
0
0
LTYPE
5
3D
330
5
100
AcDbSymbolTableRecord
100
AcDbLinetypeTableRecord
2
DIVIDEX2
70
0
3
Divide (2x) ________  .  .  ________  .  .  _
72
65
73
6
40
63.5
49
25.4
74
0
49
-12.7
74
0
49
0
74
0
49
-12.7
74
0
49
0
74
0
49
-12.7
74
0
0
LTYPE
5
3E
330
5
100
AcDbSymbolTableRecord
100
AcDbLinetypeTableRecord
2
BORDER
70
0
3
Border __ __ . __ __ . __ __ . __ __ . __ __ .
72
65
73
6
40
44.45
49
12.7
74
0
49
-6.35
74
0
49
12.7
74
0
49
-6.35
74
0
49
0
74
0
49
-6.35
74
0
0
LTYPE
5
3F
330
5
100
AcDbSymbolTableRecord
100
AcDbLinetypeTableRecord
2
BORDER2
70
0
3
Border (.5x) __.__.__.__.__.__.__.__.__.__.__.
72
65
73
6
40
22.225
49
6.35
74
0
49
-3.175
74
0
49
6.35
74
0
49
-3.175
74
0
49
0
74
0
49
-3.175
74
0
0
LTYPE
5
40
330
5
100
AcDbSymbolTableRecord
100
AcDbLinetypeTableRecord
2
BORDERX2
70
0
3
Border (2x) ____  ____  .  ____  ____  .  ___
72
65
73
6
40
88.9
49
25.4
74
0
49
-12.7
74
0
49
25.4
74
0
49
-12.7
74
0
49
0
74
0
49
-12.7
74
0
0
LTYPE
5
41
330
5
100
AcDbSymbolTableRecord
100
AcDbLinetypeTableRecord
2
CENTER
70
0
3
Center ____ _ ____ _ ____ _ ____ _ ____ _ ____
72
65
73
4
40
50.8
49
31.75
74
0
49
-6.35
74
0
49
6.35
74
0
49
-6.35
74
0
0
LTYPE
5
42
330
5
100
AcDbSymbolTableRecord
100
AcDbLinetypeTableRecord
2
CENTER2
70
0
3
Center (.5x) ___ _ ___ _ ___ _ ___ _ ___ _ ___
72
65
73
4
40
28.575
49
19.05
74
0
49
-3.175
74
0
49
3.175
74
0
49
-3.175
74
0
0
LTYPE
5
43
330
5
100
AcDbSymbolTableRecord
100
AcDbLinetypeTableRecord
2
CENTERX2
70
0
3
Center (2x) ________  __  ________  __  _____
72
65
73
4
40
101.6
49
63.5
74
0
49
-12.7
74
0
49
12.7
74
0
49
-12.7
74
0
0
ENDTAB
0
TABLE
2
LAYER
5
2
330
0
100
AcDbSymbolTable
70
1
0
LAYER
5
10
330
2
100
AcDbSymbolTableRecord
100
AcDbLayerTableRecord
2
0
70
0
62
2
6
CONTINUOUS
370
-3
390
F
0
LAYER
5
44
330
2
100
AcDbSymbolTableRecord
100
AcDbLayerTableRecord
2
GRAVIRANJE
70
0
62
3
6
CONTINUOUS
370
-3
390
F
0
LAYER
5
45
330
2
100
AcDbSymbolTableRecord
100
AcDbLayerTableRecord
2
HOLES
70
0
62
160
6
CONTINUOUS
370
-3
390
F
0
LAYER
5
46
330
2
100
AcDbSymbolTableRecord
100
AcDbLayerTableRecord
2
IZREZ
70
0
62
7
6
CONTINUOUS
370
-3
390
F
0
ENDTAB
0
TABLE
2
STYLE
5
3
330
0
100
AcDbSymbolTable
70
3
0
STYLE
5
47
330
2
100
AcDbSymbolTableRecord
100
AcDbTextStyleTableRecord
2
standard
70
0
40
0
41
1
50
0
71
0
42
1
3
standard
4

0
STYLE
5
48
330
2
100
AcDbSymbolTableRecord
100
AcDbTextStyleTableRecord
2
STANDARD
70
0
40
0
41
1
50
0
71
0
42
1
3
STANDARD
4

0
ENDTAB
0
TABLE
2
VIEW
5
6
330
0
100
AcDbSymbolTable
70
0
0
ENDTAB
0
TABLE
2
UCS
5
7
330
0
100
AcDbSymbolTable
70
0
0
ENDTAB
0
TABLE
2
APPID
5
9
330
0
100
AcDbSymbolTable
70
1
0
APPID
5
12
330
9
100
AcDbSymbolTableRecord
100
AcDbRegAppTableRecord
2
ACAD
70
0
0
APPID
5
49
330
9
100
AcDbSymbolTableRecord
100
AcDbRegAppTableRecord
2
LibreCad
70
0
0
ENDTAB
0
TABLE
2
DIMSTYLE
5
A
330
0
100
AcDbSymbolTable
70
1
100
AcDbDimStyleTable
71
1
0
DIMSTYLE
105
4A
330
A
100
AcDbSymbolTableRecord
100
AcDbDimStyleTableRecord
2
Standard
70
0
40
1
41
3.5
42
1
43
0.38
44
1
45
0
46
0
47
0
48
0
140
3.5
141
0.09
142
0
143
25.4
144
1
145
0
146
1
147
1.5
148
0
71
0
72
0
73
0
74
1
75
0
76
0
77
0
78
0
79
0
170
0
171
2
172
0
173
0
174
0
175
0
176
0
177
0
178
0
179
0
271
4
272
4
273
2
274
2
275
0
276
0
277
2
278
46
279
0
280
0
281
0
282
0
283
1
284
0
285
0
286
0
288
0
289
3
340
Standard
341

371
-2
372
-2
0
ENDTAB
0
TABLE
2
BLOCK_RECORD
5
1
330
0
100
AcDbSymbolTable
70
2
0
BLOCK_RECORD
5
1F
330
1
100
AcDbSymbolTableRecord
100
AcDbBlockTableRecord
2
*Model_Space
70
0
280
1
281
0
0
BLOCK_RECORD
5
1E
330
1
100
AcDbSymbolTableRecord
100
AcDbBlockTableRecord
2
*Paper_Space
70
0
280
1
281
0
0
BLOCK_RECORD
5
4B
330
1
100
AcDbSymbolTableRecord
100
AcDbBlockTableRecord
2
*D1
70
0
280
1
281
0
0
BLOCK_RECORD
5
4E
330
1
100
AcDbSymbolTableRecord
100
AcDbBlockTableRecord
2
*D16
70
0
280
1
281
0
0
BLOCK_RECORD
5
51
330
1
100
AcDbSymbolTableRecord
100
AcDbBlockTableRecord
2
*D18
70
0
280
1
281
0
0
BLOCK_RECORD
5
54
330
1
100
AcDbSymbolTableRecord
100
AcDbBlockTableRecord
2
*D4
70
0
280
1
281
0
0
BLOCK_RECORD
5
57
330
1
100
AcDbSymbolTableRecord
100
AcDbBlockTableRecord
2
*D19
70
0
280
1
281
0
0
BLOCK_RECORD
5
5A
330
1
100
AcDbSymbolTableRecord
100
AcDbBlockTableRecord
2
*D9
70
0
280
1
281
0
0
BLOCK_RECORD
5
5D
330
1
100
AcDbSymbolTableRecord
100
AcDbBlockTableRecord
2
*D11
70
0
280
1
281
0
0
BLOCK_RECORD
5
60
330
1
100
AcDbSymbolTableRecord
100
AcDbBlockTableRecord
2
*D12
70
0
280
1
281
0
0
BLOCK_RECORD
5
63
330
1
100
AcDbSymbolTableRecord
100
AcDbBlockTableRecord
2
*D14
70
0
280
1
281
0
0
BLOCK_RECORD
5
66
330
1
100
AcDbSymbolTableRecord
100
AcDbBlockTableRecord
2
*D17
70
0
280
1
281
0
0
BLOCK_RECORD
5
69
330
1
100
AcDbSymbolTableRecord
100
AcDbBlockTableRecord
2
*D5
70
0
280
1
281
0
0
BLOCK_RECORD
5
6C
330
1
100
AcDbSymbolTableRecord
100
AcDbBlockTableRecord
2
*D20
70
0
280
1
281
0
0
BLOCK_RECORD
5
6F
330
1
100
AcDbSymbolTableRecord
100
AcDbBlockTableRecord
2
*D21
70
0
280
1
281
0
0
BLOCK_RECORD
5
72
330
1
100
AcDbSymbolTableRecord
100
AcDbBlockTableRecord
2
*D2
70
0
280
1
281
0
0
BLOCK_RECORD
5
75
330
1
100
AcDbSymbolTableRecord
100
AcDbBlockTableRecord
2
*D3
70
0
280
1
281
0
0
BLOCK_RECORD
5
78
330
1
100
AcDbSymbolTableRecord
100
AcDbBlockTableRecord
2
*D10
70
0
280
1
281
0
0
BLOCK_RECORD
5
7B
330
1
100
AcDbSymbolTableRecord
100
AcDbBlockTableRecord
2
*D13
70
0
280
1
281
0
0
BLOCK_RECORD
5
7E
330
1
100
AcDbSymbolTableRecord
100
AcDbBlockTableRecord
2
*D7
70
0
280
1
281
0
0
BLOCK_RECORD
5
81
330
1
100
AcDbSymbolTableRecord
100
AcDbBlockTableRecord
2
*D8
70
0
280
1
281
0
0
BLOCK_RECORD
5
84
330
1
100
AcDbSymbolTableRecord
100
AcDbBlockTableRecord
2
*D15
70
0
280
1
281
0
0
BLOCK_RECORD
5
87
330
1
100
AcDbSymbolTableRecord
100
AcDbBlockTableRecord
2
*D6
70
0
280
1
281
0
0
BLOCK_RECORD
5
8A
330
1
100
AcDbSymbolTableRecord
100
AcDbBlockTableRecord
2
GENAXEH
70
0
280
1
281
0
0
ENDTAB
0
ENDSEC
0
SECTION
2
BLOCKS
0
BLOCK
5
20
330
1F
100
AcDbEntity
8
0
100
AcDbBlockBegin
2
*Model_Space
70
0
10
0
20
0
30
0
3
*Model_Space
1

0
ENDBLK
5
21
330
1F
100
AcDbEntity
8
0
100
AcDbBlockEnd
0
BLOCK
5
1C
330
1B
100
AcDbEntity
8
0
100
AcDbBlockBegin
2
*Paper_Space
70
0
10
0
20
0
30
0
3
*Paper_Space
1

0
ENDBLK
5
1D
330
1F
100
AcDbEntity
8
0
100
AcDbBlockEnd
0
BLOCK
5
4C
330
4B
100
AcDbEntity
8
0
100
AcDbBlockBegin
2
*D1
70
1
10
0
20
0
3
*D1
1

0
LINE
5
8D
100
AcDbEntity
8
0
6
CONTINUOUS
62
7
370
0
100
AcDbLine
10
-199
20
200
11
-199
21
223
0
LINE
5
8E
100
AcDbEntity
8
0
6
CONTINUOUS
62
7
370
0
100
AcDbLine
10
49
20
200
11
49
21
223
0
LINE
5
8F
100
AcDbEntity
8
0
6
CONTINUOUS
62
7
370
0
100
AcDbLine
10
-199
20
222
11
49
21
222
0
SOLID
5
90
100
AcDbEntity
8
0
6
CONTINUOUS
62
7
370
0
100
AcDbTrace
10
-199
20
222
30
0
11
-195.5
21
222.582798521
31
0
12
-195.5
22
221.417201479
32
0
13
-195.5
23
221.417201479
33
0
0
SOLID
5
91
100
AcDbEntity
8
0
6
CONTINUOUS
62
7
370
0
100
AcDbTrace
10
49
20
222
30
0
11
45.5
21
221.417201479
31
0
12
45.5
22
222.582798521
32
0
13
45.5
23
222.582798521
33
0
0
MTEXT
5
92
100
AcDbEntity
8
0
6
CONTINUOUS
62
7
370
0
100
AcDbMText
10
-75
20
225.25
30
0
40
3.5
41
14
71
5
72
1
1
248.00
7
standard
210
0
220
0
230
1
50
0
73
2
44
1
0
ENDBLK
5
4D
330
4B
100
AcDbEntity
8
0
100
AcDbBlockEnd
0
BLOCK
5
4F
330
4E
100
AcDbEntity
8
0
100
AcDbBlockBegin
2
*D16
70
1
10
0
20
0
3
*D16
1

0
LINE
5
93
100
AcDbEntity
8
0
6
CONTINUOUS
62
7
370
0
100
AcDbLine
10
19
20
-199
11
19
21
-229
0
LINE
5
94
100
AcDbEntity
8
0
6
CONTINUOUS
62
7
370
0
100
AcDbLine
10
-199
20
-199
11
-199
21
-229
0
LINE
5
95
100
AcDbEntity
8
0
6
CONTINUOUS
62
7
370
0
100
AcDbLine
10
19
20
-228
11
-199
21
-228
0
SOLID
5
96
100
AcDbEntity
8
0
6
CONTINUOUS
62
7
370
0
100
AcDbTrace
10
19
20
-228
30
0
11
15.5
21
-228.582798521
31
0
12
15.5
22
-227.417201479
32
0
13
15.5
23
-227.417201479
33
0
0
SOLID
5
97
100
AcDbEntity
8
0
6
CONTINUOUS
62
7
370
0
100
AcDbTrace
10
-199
20
-228
30
0
11
-195.5
21
-227.417201479
31
0
12
-195.5
22
-228.582798521
32
0
13
-195.5
23
-228.582798521
33
0
0
MTEXT
5
98
100
AcDbEntity
8
0
6
CONTINUOUS
62
7
370
0
100
AcDbMText
10
-90
20
-224.75
30
0
40
3.5
41
12.8333333333
71
5
72
1
1
218.00
7
standard
210
0
220
0
230
1
50
360
73
2
44
1
0
ENDBLK
5
50
330
4E
100
AcDbEntity
8
0
100
AcDbBlockEnd
0
BLOCK
5
52
330
51
100
AcDbEntity
8
0
100
AcDbBlockBegin
2
*D18
70
1
10
0
20
0
3
*D18
1

0
LINE
5
99
100
AcDbEntity
8
0
6
CONTINUOUS
62
7
370
0
100
AcDbLine
10
20
20
-198
11
20
21
-198
0
LINE
5
9A
100
AcDbEntity
8
0
6
CONTINUOUS
62
7
370
0
100
AcDbLine
10
-70
20
-198
11
-70
21
-198
0
LINE
5
9B
100
AcDbEntity
8
0
6
CONTINUOUS
62
7
370
0
100
AcDbLine
10
19
20
-198
11
-71
21
-198
0
SOLID
5
9C
100
AcDbEntity
8
0
6
CONTINUOUS
62
7
370
0
100
AcDbTrace
10
19
20
-198
30
0
11
15.5
21
-198.582798521
31
0
12
15.5
22
-197.417201479
32
0
13
15.5
23
-197.417201479
33
0
0
SOLID
5
9D
100
AcDbEntity
8
0
6
CONTINUOUS
62
7
370
0
100
AcDbTrace
10
-71
20
-198
30
0
11
-67.5
21
-197.417201479
31
0
12
-67.5
22
-198.582798521
32
0
13
-67.5
23
-198.582798521
33
0
0
MTEXT
5
9E
100
AcDbEntity
8
0
6
CONTINUOUS
62
7
370
0
100
AcDbMText
10
-26
20
-194.75
30
0
40
3.5
41
10.8888888889
71
5
72
1
1
90.00
7
standard
210
0
220
0
230
1
50
360
73
2
44
1
0
ENDBLK
5
53
330
51
100
AcDbEntity
8
0
100
AcDbBlockEnd
0
BLOCK
5
55
330
54
100
AcDbEntity
8
0
100
AcDbBlockBegin
2
*D4
70
1
10
0
20
0
3
*D4
1

0
LINE
5
9F
100
AcDbEntity
8
0
6
CONTINUOUS
62
7
370
0
100
AcDbLine
10
-199
20
200
11
-199
21
243
0
LINE
5
A0
100
AcDbEntity
8
0
6
CONTINUOUS
62
7
370
0
100
AcDbLine
10
199
20
200
11
199
21
243
0
LINE
5
A1
100
AcDbEntity
8
0
6
CONTINUOUS
62
7
370
0
100
AcDbLine
10
-199
20
242
11
199
21
242
0
SOLID
5
A2
100
AcDbEntity
8
0
6
CONTINUOUS
62
7
370
0
100
AcDbTrace
10
-199
20
242
30
0
11
-195.5
21
242.582798521
31
0
12
-195.5
22
241.417201479
32
0
13
-195.5
23
241.417201479
33
0
0
SOLID
5
A3
100
AcDbEntity
8
0
6
CONTINUOUS
62
7
370
0
100
AcDbTrace
10
199
20
242
30
0
11
195.5
21
241.417201479
31
0
12
195.5
22
242.582798521
32
0
13
195.5
23
242.582798521
33
0
0
MTEXT
5
A4
100
AcDbEntity
8
0
6
CONTINUOUS
62
7
370
0
100
AcDbMText
10
2.22044604925e-016
20
245.25
30
0
40
3.5
41
13.6111111111
71
5
72
1
1
398.00
7
standard
210
0
220
0
230
1
50
0
73
2
44
1
0
ENDBLK
5
56
330
54
100
AcDbEntity
8
0
100
AcDbBlockEnd
0
BLOCK
5
58
330
57
100
AcDbEntity
8
0
100
AcDbBlockBegin
2
*D19
70
1
10
0
20
0
3
*D19
1

0
LINE
5
A5
100
AcDbEntity
8
0
6
CONTINUOUS
62
7
370
0
100
AcDbLine
10
20
20
-198
11
20
21
-198
0
LINE
5
A6
100
AcDbEntity
8
0
6
CONTINUOUS
62
7
370
0
100
AcDbLine
10
85
20
-198
11
85
21
-198
0
LINE
5
A7
100
AcDbEntity
8
0
6
CONTINUOUS
62
7
370
0
100
AcDbLine
10
19
20
-198
11
84
21
-198
0
SOLID
5
A8
100
AcDbEntity
8
0
6
CONTINUOUS
62
7
370
0
100
AcDbTrace
10
19
20
-198
30
0
11
22.5
21
-197.417201479
31
0
12
22.5
22
-198.582798521
32
0
13
22.5
23
-198.582798521
33
0
0
SOLID
5
A9
100
AcDbEntity
8
0
6
CONTINUOUS
62
7
370
0
100
AcDbTrace
10
84
20
-198
30
0
11
80.5
21
-198.582798521
31
0
12
80.5
22
-197.417201479
32
0
13
80.5
23
-197.417201479
33
0
0
MTEXT
5
AA
100
AcDbEntity
8
0
6
CONTINUOUS
62
7
370
0
100
AcDbMText
10
51.5
20
-194.75
30
0
40
3.5
41
10.8888888889
71
5
72
1
1
65.00
7
standard
210
0
220
0
230
1
50
0
73
2
44
1
0
ENDBLK
5
59
330
57
100
AcDbEntity
8
0
100
AcDbBlockEnd
0
BLOCK
5
5B
330
5A
100
AcDbEntity
8
0
100
AcDbBlockBegin
2
*D9
70
1
10
0
20
0
3
*D9
1

0
LINE
5
AB
100
AcDbEntity
8
0
6
CONTINUOUS
62
7
370
0
100
AcDbLine
10
-15
20
199
11
-15
21
199
0
LINE
5
AC
100
AcDbEntity
8
0
6
CONTINUOUS
62
7
370
0
100
AcDbLine
10
-15
20
178
11
-15
21
178
0
LINE
5
AD
100
AcDbEntity
8
0
6
CONTINUOUS
62
7
370
0
100
AcDbLine
10
-16
20
199
11
-16
21
178
0
SOLID
5
AE
100
AcDbEntity
8
0
6
CONTINUOUS
62
7
370
0
100
AcDbTrace
10
-16
20
199
30
0
11
-15.4172014791
21
195.5
31
0
12
-16.5827985209
22
195.5
32
0
13
-16.5827985209
23
195.5
33
0
0
SOLID
5
AF
100
AcDbEntity
8
0
6
CONTINUOUS
62
7
370
0
100
AcDbTrace
10
-16
20
178
30
0
11
-16.5827985209
21
181.5
31
0
12
-15.4172014791
22
181.5
32
0
13
-15.4172014791
23
181.5
33
0
0
MTEXT
5
B0
100
AcDbEntity
8
0
6
CONTINUOUS
62
7
370
0
100
AcDbMText
10
-19.25
20
188.5
30
0
40
3.5
41
10.1111111111
71
5
72
1
1
21.00
7
standard
210
0
220
0
230
1
50
90
73
2
44
1
0
ENDBLK
5
5C
330
5A
100
AcDbEntity
8
0
100
AcDbBlockEnd
0
BLOCK
5
5E
330
5D
100
AcDbEntity
8
0
100
AcDbBlockBegin
2
*D11
70
1
10
0
20
0
3
*D11
1

0
LINE
5
B1
100
AcDbEntity
8
0
6
CONTINUOUS
62
7
370
0
100
AcDbLine
10
200
20
199
11
222
21
199
0
LINE
5
B2
100
AcDbEntity
8
0
6
CONTINUOUS
62
7
370
0
100
AcDbLine
10
200
20
141
11
222
21
141
0
LINE
5
B3
100
AcDbEntity
8
0
6
CONTINUOUS
62
7
370
0
100
AcDbLine
10
221
20
199
11
221
21
141
0
SOLID
5
B4
100
AcDbEntity
8
0
6
CONTINUOUS
62
7
370
0
100
AcDbTrace
10
221
20
199
30
0
11
221.582798521
21
195.5
31
0
12
220.417201479
22
195.5
32
0
13
220.417201479
23
195.5
33
0
0
SOLID
5
B5
100
AcDbEntity
8
0
6
CONTINUOUS
62
7
370
0
100
AcDbTrace
10
221
20
141
30
0
11
220.417201479
21
144.5
31
0
12
221.582798521
22
144.5
32
0
13
221.582798521
23
144.5
33
0
0
MTEXT
5
B6
100
AcDbEntity
8
0
6
CONTINUOUS
62
7
370
0
100
AcDbMText
10
217.75
20
170
30
0
40
3.5
41
10.8888888889
71
5
72
1
1
58.00
7
standard
210
0
220
0
230
1
50
90
73
2
44
1
0
ENDBLK
5
5F
330
5D
100
AcDbEntity
8
0
100
AcDbBlockEnd
0
BLOCK
5
61
330
60
100
AcDbEntity
8
0
100
AcDbBlockBegin
2
*D12
70
1
10
0
20
0
3
*D12
1

0
LINE
5
B7
100
AcDbEntity
8
0
6
CONTINUOUS
62
7
370
0
100
AcDbLine
10
200
20
-198
11
232
21
-198
0
LINE
5
B8
100
AcDbEntity
8
0
6
CONTINUOUS
62
7
370
0
100
AcDbLine
10
200
20
141
11
232
21
141
0
LINE
5
B9
100
AcDbEntity
8
0
6
CONTINUOUS
62
7
370
0
100
AcDbLine
10
231
20
-198
11
231
21
141
0
SOLID
5
BA
100
AcDbEntity
8
0
6
CONTINUOUS
62
7
370
0
100
AcDbTrace
10
231
20
-198
30
0
11
230.417201479
21
-194.5
31
0
12
231.582798521
22
-194.5
32
0
13
231.582798521
23
-194.5
33
0
0
SOLID
5
BB
100
AcDbEntity
8
0
6
CONTINUOUS
62
7
370
0
100
AcDbTrace
10
231
20
141
30
0
11
231.582798521
21
137.5
31
0
12
230.417201479
22
137.5
32
0
13
230.417201479
23
137.5
33
0
0
MTEXT
5
BC
100
AcDbEntity
8
0
6
CONTINUOUS
62
7
370
0
100
AcDbMText
10
227.75
20
-28.5
30
0
40
3.5
41
13.6111111111
71
5
72
1
1
339.00
7
standard
210
0
220
0
230
1
50
90
73
2
44
1
0
ENDBLK
5
62
330
60
100
AcDbEntity
8
0
100
AcDbBlockEnd
0
BLOCK
5
64
330
63
100
AcDbEntity
8
0
100
AcDbBlockBegin
2
*D14
70
1
10
0
20
0
3
*D14
1

0
LINE
5
BD
100
AcDbEntity
8
0
6
CONTINUOUS
62
7
370
0
100
AcDbLine
10
-78
20
143
11
-78
21
147
0
LINE
5
BE
100
AcDbEntity
8
0
6
CONTINUOUS
62
7
370
0
100
AcDbLine
10
-50
20
143
11
-50
21
147
0
LINE
5
BF
100
AcDbEntity
8
0
6
CONTINUOUS
62
7
370
0
100
AcDbLine
10
-78
20
146
11
-50
21
146
0
SOLID
5
C0
100
AcDbEntity
8
0
6
CONTINUOUS
62
7
370
0
100
AcDbTrace
10
-78
20
146
30
0
11
-74.5
21
146.582798521
31
0
12
-74.5
22
145.417201479
32
0
13
-74.5
23
145.417201479
33
0
0
SOLID
5
C1
100
AcDbEntity
8
0
6
CONTINUOUS
62
7
370
0
100
AcDbTrace
10
-50
20
146
30
0
11
-53.5
21
145.417201479
31
0
12
-53.5
22
146.582798521
32
0
13
-53.5
23
146.582798521
33
0
0
MTEXT
5
C2
100
AcDbEntity
8
0
6
CONTINUOUS
62
7
370
0
100
AcDbMText
10
-64
20
149.25
30
0
40
3.5
41
10.8888888889
71
5
72
1
1
28.00
7
standard
210
0
220
0
230
1
50
0
73
2
44
1
0
ENDBLK
5
65
330
63
100
AcDbEntity
8
0
100
AcDbBlockEnd
0
BLOCK
5
67
330
66
100
AcDbEntity
8
0
100
AcDbBlockBegin
2
*D17
70
1
10
0
20
0
3
*D17
1

0
LINE
5
C3
100
AcDbEntity
8
0
6
CONTINUOUS
62
7
370
0
100
AcDbLine
10
-199
20
-199
11
-199
21
-219
0
LINE
5
C4
100
AcDbEntity
8
0
6
CONTINUOUS
62
7
370
0
100
AcDbLine
10
-119
20
-199
11
-119
21
-219
0
LINE
5
C5
100
AcDbEntity
8
0
6
CONTINUOUS
62
7
370
0
100
AcDbLine
10
-199
20
-218
11
-119
21
-218
0
SOLID
5
C6
100
AcDbEntity
8
0
6
CONTINUOUS
62
7
370
0
100
AcDbTrace
10
-199
20
-218
30
0
11
-195.5
21
-217.417201479
31
0
12
-195.5
22
-218.582798521
32
0
13
-195.5
23
-218.582798521
33
0
0
SOLID
5
C7
100
AcDbEntity
8
0
6
CONTINUOUS
62
7
370
0
100
AcDbTrace
10
-119
20
-218
30
0
11
-122.5
21
-218.582798521
31
0
12
-122.5
22
-217.417201479
32
0
13
-122.5
23
-217.417201479
33
0
0
MTEXT
5
C8
100
AcDbEntity
8
0
6
CONTINUOUS
62
7
370
0
100
AcDbMText
10
-159
20
-214.75
30
0
40
3.5
41
10.8888888889
71
5
72
1
1
80.00
7
standard
210
0
220
0
230
1
50
0
73
2
44
1
0
ENDBLK
5
68
330
66
100
AcDbEntity
8
0
100
AcDbBlockEnd
0
BLOCK
5
6A
330
69
100
AcDbEntity
8
0
100
AcDbBlockBegin
2
*D5
70
1
10
0
20
0
3
*D5
1

0
LINE
5
C9
100
AcDbEntity
8
0
6
CONTINUOUS
62
7
370
0
100
AcDbLine
10
-96
20
177
11
-96
21
151
0
LINE
5
CA
100
AcDbEntity
8
0
6
CONTINUOUS
62
7
370
0
100
AcDbLine
10
-16
20
177
11
-16
21
151
0
LINE
5
CB
100
AcDbEntity
8
0
6
CONTINUOUS
62
7
370
0
100
AcDbLine
10
-96
20
152
11
-16
21
152
0
SOLID
5
CC
100
AcDbEntity
8
0
6
CONTINUOUS
62
7
370
0
100
AcDbTrace
10
-96
20
152
30
0
11
-92.5
21
152.582798521
31
0
12
-92.5
22
151.417201479
32
0
13
-92.5
23
151.417201479
33
0
0
SOLID
5
CD
100
AcDbEntity
8
0
6
CONTINUOUS
62
7
370
0
100
AcDbTrace
10
-16
20
152
30
0
11
-19.5
21
151.417201479
31
0
12
-19.5
22
152.582798521
32
0
13
-19.5
23
152.582798521
33
0
0
MTEXT
5
CE
100
AcDbEntity
8
0
6
CONTINUOUS
62
7
370
0
100
AcDbMText
10
-56
20
155.25
30
0
40
3.5
41
10.8888888889
71
5
72
1
1
80.00
7
standard
210
0
220
0
230
1
50
0
73
2
44
1
0
ENDBLK
5
6B
330
69
100
AcDbEntity
8
0
100
AcDbBlockEnd
0
BLOCK
5
6D
330
6C
100
AcDbEntity
8
0
100
AcDbBlockBegin
2
*D20
70
1
10
0
20
0
3
*D20
1

0
LINE
5
CF
100
AcDbEntity
8
0
6
CONTINUOUS
62
7
370
0
100
AcDbLine
10
199
20
-199
11
199
21
-219
0
LINE
5
D0
100
AcDbEntity
8
0
6
CONTINUOUS
62
7
370
0
100
AcDbLine
10
119
20
-199
11
119
21
-219
0
LINE
5
D1
100
AcDbEntity
8
0
6
CONTINUOUS
62
7
370
0
100
AcDbLine
10
199
20
-218
11
119
21
-218
0
SOLID
5
D2
100
AcDbEntity
8
0
6
CONTINUOUS
62
7
370
0
100
AcDbTrace
10
199
20
-218
30
0
11
195.5
21
-218.582798521
31
0
12
195.5
22
-217.417201479
32
0
13
195.5
23
-217.417201479
33
0
0
SOLID
5
D3
100
AcDbEntity
8
0
6
CONTINUOUS
62
7
370
0
100
AcDbTrace
10
119
20
-218
30
0
11
122.5
21
-217.417201479
31
0
12
122.5
22
-218.582798521
32
0
13
122.5
23
-218.582798521
33
0
0
MTEXT
5
D4
100
AcDbEntity
8
0
6
CONTINUOUS
62
7
370
0
100
AcDbMText
10
159
20
-214.75
30
0
40
3.5
41
10.8888888889
71
5
72
1
1
80.00
7
standard
210
0
220
0
230
1
50
360
73
2
44
1
0
ENDBLK
5
6E
330
6C
100
AcDbEntity
8
0
100
AcDbBlockEnd
0
BLOCK
5
70
330
6F
100
AcDbEntity
8
0
100
AcDbBlockBegin
2
*D21
70
1
10
0
20
0
3
*D21
1

0
LINE
5
D5
100
AcDbEntity
8
0
6
CONTINUOUS
62
7
370
0
100
AcDbLine
10
200
20
-198
11
212
21
-198
0
LINE
5
D6
100
AcDbEntity
8
0
6
CONTINUOUS
62
7
370
0
100
AcDbLine
10
200
20
-139
11
212
21
-139
0
LINE
5
D7
100
AcDbEntity
8
0
6
CONTINUOUS
62
7
370
0
100
AcDbLine
10
211
20
-198
11
211
21
-139
0
SOLID
5
D8
100
AcDbEntity
8
0
6
CONTINUOUS
62
7
370
0
100
AcDbTrace
10
211
20
-198
30
0
11
210.417201479
21
-194.5
31
0
12
211.582798521
22
-194.5
32
0
13
211.582798521
23
-194.5
33
0
0
SOLID
5
D9
100
AcDbEntity
8
0
6
CONTINUOUS
62
7
370
0
100
AcDbTrace
10
211
20
-139
30
0
11
211.582798521
21
-142.5
31
0
12
210.417201479
22
-142.5
32
0
13
210.417201479
23
-142.5
33
0
0
MTEXT
5
DA
100
AcDbEntity
8
0
6
CONTINUOUS
62
7
370
0
100
AcDbMText
10
207.75
20
-168.5
30
0
40
3.5
41
10.8888888889
71
5
72
1
1
59.00
7
standard
210
0
220
0
230
1
50
90
73
2
44
1
0
ENDBLK
5
71
330
6F
100
AcDbEntity
8
0
100
AcDbBlockEnd
0
BLOCK
5
73
330
72
100
AcDbEntity
8
0
100
AcDbBlockBegin
2
*D2
70
1
10
0
20
0
3
*D2
1

0
LINE
5
DB
100
AcDbEntity
8
0
6
CONTINUOUS
62
7
370
0
100
AcDbLine
10
129
20
200
11
129
21
233
0
LINE
5
DC
100
AcDbEntity
8
0
6
CONTINUOUS
62
7
370
0
100
AcDbLine
10
-199
20
200
11
-199
21
233
0
LINE
5
DD
100
AcDbEntity
8
0
6
CONTINUOUS
62
7
370
0
100
AcDbLine
10
129
20
232
11
-199
21
232
0
SOLID
5
DE
100
AcDbEntity
8
0
6
CONTINUOUS
62
7
370
0
100
AcDbTrace
10
129
20
232
30
0
11
125.5
21
231.417201479
31
0
12
125.5
22
232.582798521
32
0
13
125.5
23
232.582798521
33
0
0
SOLID
5
DF
100
AcDbEntity
8
0
6
CONTINUOUS
62
7
370
0
100
AcDbTrace
10
-199
20
232
30
0
11
-195.5
21
232.582798521
31
0
12
-195.5
22
231.417201479
32
0
13
-195.5
23
231.417201479
33
0
0
MTEXT
5
E0
100
AcDbEntity
8
0
6
CONTINUOUS
62
7
370
0
100
AcDbMText
10
-35
20
235.25
30
0
40
3.5
41
13.6111111111
71
5
72
1
1
328.00
7
standard
210
0
220
0
230
1
50
360
73
2
44
1
0
ENDBLK
5
74
330
72
100
AcDbEntity
8
0
100
AcDbBlockEnd
0
BLOCK
5
76
330
75
100
AcDbEntity
8
0
100
AcDbBlockBegin
2
*D3
70
1
10
0
20
0
3
*D3
1

0
LINE
5
E1
100
AcDbEntity
8
0
6
CONTINUOUS
62
7
370
0
100
AcDbLine
10
199
20
200
11
199
21
223
0
LINE
5
E2
100
AcDbEntity
8
0
6
CONTINUOUS
62
7
370
0
100
AcDbLine
10
129
20
200
11
129
21
223
0
LINE
5
E3
100
AcDbEntity
8
0
6
CONTINUOUS
62
7
370
0
100
AcDbLine
10
199
20
222
11
129
21
222
0
SOLID
5
E4
100
AcDbEntity
8
0
6
CONTINUOUS
62
7
370
0
100
AcDbTrace
10
199
20
222
30
0
11
195.5
21
221.417201479
31
0
12
195.5
22
222.582798521
32
0
13
195.5
23
222.582798521
33
0
0
SOLID
5
E5
100
AcDbEntity
8
0
6
CONTINUOUS
62
7
370
0
100
AcDbTrace
10
129
20
222
30
0
11
132.5
21
222.582798521
31
0
12
132.5
22
221.417201479
32
0
13
132.5
23
221.417201479
33
0
0
MTEXT
5
E6
100
AcDbEntity
8
0
6
CONTINUOUS
62
7
370
0
100
AcDbMText
10
164
20
225.25
30
0
40
3.5
41
10.8888888889
71
5
72
1
1
70.00
7
standard
210
0
220
0
230
1
50
360
73
2
44
1
0
ENDBLK
5
77
330
75
100
AcDbEntity
8
0
100
AcDbBlockEnd
0
BLOCK
5
79
330
78
100
AcDbEntity
8
0
100
AcDbBlockBegin
2
*D10
70
1
10
0
20
0
3
*D10
1

0
LINE
5
E7
100
AcDbEntity
8
0
6
CONTINUOUS
62
7
370
0
100
AcDbLine
10
199
20
198
11
199
21
181
0
LINE
5
E8
100
AcDbEntity
8
0
6
CONTINUOUS
62
7
370
0
100
AcDbLine
10
102
20
198
11
102
21
181
0
LINE
5
E9
100
AcDbEntity
8
0
6
CONTINUOUS
62
7
370
0
100
AcDbLine
10
199
20
182
11
102
21
182
0
SOLID
5
EA
100
AcDbEntity
8
0
6
CONTINUOUS
62
7
370
0
100
AcDbTrace
10
199
20
182
30
0
11
195.5
21
181.417201479
31
0
12
195.5
22
182.582798521
32
0
13
195.5
23
182.582798521
33
0
0
SOLID
5
EB
100
AcDbEntity
8
0
6
CONTINUOUS
62
7
370
0
100
AcDbTrace
10
102
20
182
30
0
11
105.5
21
182.582798521
31
0
12
105.5
22
181.417201479
32
0
13
105.5
23
181.417201479
33
0
0
MTEXT
5
EC
100
AcDbEntity
8
0
6
CONTINUOUS
62
7
370
0
100
AcDbMText
10
150.5
20
185.25
30
0
40
3.5
41
10.8888888889
71
5
72
1
1
97.00
7
standard
210
0
220
0
230
1
50
360
73
2
44
1
0
ENDBLK
5
7A
330
78
100
AcDbEntity
8
0
100
AcDbBlockEnd
0
BLOCK
5
7C
330
7B
100
AcDbEntity
8
0
100
AcDbBlockBegin
2
*D13
70
1
10
0
20
0
3
*D13
1

0
LINE
5
ED
100
AcDbEntity
8
0
6
CONTINUOUS
62
7
370
0
100
AcDbLine
10
200
20
-198
11
222
21
-198
0
LINE
5
EE
100
AcDbEntity
8
0
6
CONTINUOUS
62
7
370
0
100
AcDbLine
10
200
20
1
11
222
21
1
0
LINE
5
EF
100
AcDbEntity
8
0
6
CONTINUOUS
62
7
370
0
100
AcDbLine
10
221
20
-198
11
221
21
1
0
SOLID
5
F0
100
AcDbEntity
8
0
6
CONTINUOUS
62
7
370
0
100
AcDbTrace
10
221
20
-198
30
0
11
220.417201479
21
-194.5
31
0
12
221.582798521
22
-194.5
32
0
13
221.582798521
23
-194.5
33
0
0
SOLID
5
F1
100
AcDbEntity
8
0
6
CONTINUOUS
62
7
370
0
100
AcDbTrace
10
221
20
1
30
0
11
221.582798521
21
-2.5
31
0
12
220.417201479
22
-2.5
32
0
13
220.417201479
23
-2.5
33
0
0
MTEXT
5
F2
100
AcDbEntity
8
0
6
CONTINUOUS
62
7
370
0
100
AcDbMText
10
217.75
20
-98.5
30
0
40
3.5
41
12.8333333333
71
5
72
1
1
199.00
7
standard
210
0
220
0
230
1
50
90
73
2
44
1
0
ENDBLK
5
7D
330
7B
100
AcDbEntity
8
0
100
AcDbBlockEnd
0
BLOCK
5
7F
330
7E
100
AcDbEntity
8
0
100
AcDbBlockBegin
2
*D7
70
1
10
0
20
0
3
*D7
1

0
LINE
5
F3
100
AcDbEntity
8
0
6
CONTINUOUS
62
7
370
0
100
AcDbLine
10
-119
20
200
11
-119
21
213
0
LINE
5
F4
100
AcDbEntity
8
0
6
CONTINUOUS
62
7
370
0
100
AcDbLine
10
-16
20
200
11
-16
21
213
0
LINE
5
F5
100
AcDbEntity
8
0
6
CONTINUOUS
62
7
370
0
100
AcDbLine
10
-119
20
212
11
-16
21
212
0
SOLID
5
F6
100
AcDbEntity
8
0
6
CONTINUOUS
62
7
370
0
100
AcDbTrace
10
-119
20
212
30
0
11
-115.5
21
212.582798521
31
0
12
-115.5
22
211.417201479
32
0
13
-115.5
23
211.417201479
33
0
0
SOLID
5
F7
100
AcDbEntity
8
0
6
CONTINUOUS
62
7
370
0
100
AcDbTrace
10
-16
20
212
30
0
11
-19.5
21
211.417201479
31
0
12
-19.5
22
212.582798521
32
0
13
-19.5
23
212.582798521
33
0
0
MTEXT
5
F8
100
AcDbEntity
8
0
6
CONTINUOUS
62
7
370
0
100
AcDbMText
10
-67.5
20
215.25
30
0
40
3.5
41
12.8333333333
71
5
72
1
1
103.00
7
standard
210
0
220
0
230
1
50
0
73
2
44
1
0
ENDBLK
5
80
330
7E
100
AcDbEntity
8
0
100
AcDbBlockEnd
0
BLOCK
5
82
330
81
100
AcDbEntity
8
0
100
AcDbBlockBegin
2
*D8
70
1
10
0
20
0
3
*D8
1

0
LINE
5
F9
100
AcDbEntity
8
0
6
CONTINUOUS
62
7
370
0
100
AcDbLine
10
-199
20
200
11
-199
21
213
0
LINE
5
FA
100
AcDbEntity
8
0
6
CONTINUOUS
62
7
370
0
100
AcDbLine
10
-119
20
200
11
-119
21
213
0
LINE
5
FB
100
AcDbEntity
8
0
6
CONTINUOUS
62
7
370
0
100
AcDbLine
10
-199
20
212
11
-119
21
212
0
SOLID
5
FC
100
AcDbEntity
8
0
6
CONTINUOUS
62
7
370
0
100
AcDbTrace
10
-199
20
212
30
0
11
-195.5
21
212.582798521
31
0
12
-195.5
22
211.417201479
32
0
13
-195.5
23
211.417201479
33
0
0
SOLID
5
FD
100
AcDbEntity
8
0
6
CONTINUOUS
62
7
370
0
100
AcDbTrace
10
-119
20
212
30
0
11
-122.5
21
211.417201479
31
0
12
-122.5
22
212.582798521
32
0
13
-122.5
23
212.582798521
33
0
0
MTEXT
5
FE
100
AcDbEntity
8
0
6
CONTINUOUS
62
7
370
0
100
AcDbMText
10
-159
20
215.25
30
0
40
3.5
41
10.8888888889
71
5
72
1
1
80.00
7
standard
210
0
220
0
230
1
50
0
73
2
44
1
0
ENDBLK
5
83
330
81
100
AcDbEntity
8
0
100
AcDbBlockEnd
0
BLOCK
5
85
330
84
100
AcDbEntity
8
0
100
AcDbBlockBegin
2
*D15
70
1
10
0
20
0
3
*D15
1

0
LINE
5
FF
100
AcDbEntity
8
0
6
CONTINUOUS
62
7
370
0
100
AcDbLine
10
199
20
-160
11
199
21
-165
0
LINE
5
100
100
AcDbEntity
8
0
6
CONTINUOUS
62
7
370
0
100
AcDbLine
10
-199
20
-160
11
-199
21
-165
0
LINE
5
101
100
AcDbEntity
8
0
6
CONTINUOUS
62
7
370
0
100
AcDbLine
10
199
20
-164
11
-199
21
-164
0
SOLID
5
102
100
AcDbEntity
8
0
6
CONTINUOUS
62
7
370
0
100
AcDbTrace
10
199
20
-164
30
0
11
195.5
21
-164.582798521
31
0
12
195.5
22
-163.417201479
32
0
13
195.5
23
-163.417201479
33
0
0
SOLID
5
103
100
AcDbEntity
8
0
6
CONTINUOUS
62
7
370
0
100
AcDbTrace
10
-199
20
-164
30
0
11
-195.5
21
-163.417201479
31
0
12
-195.5
22
-164.582798521
32
0
13
-195.5
23
-164.582798521
33
0
0
MTEXT
5
104
100
AcDbEntity
8
0
6
CONTINUOUS
62
7
370
0
100
AcDbMText
10
2.22044604925e-016
20
-160.75
30
0
40
3.5
41
13.6111111111
71
5
72
1
1
398.00
7
standard
210
0
220
0
230
1
50
360
73
2
44
1
0
ENDBLK
5
86
330
84
100
AcDbEntity
8
0
100
AcDbBlockEnd
0
BLOCK
5
88
330
87
100
AcDbEntity
8
0
100
AcDbBlockBegin
2
*D6
70
1
10
0
20
0
3
*D6
1

0
LINE
5
105
100
AcDbEntity
8
0
6
CONTINUOUS
62
7
370
0
100
AcDbLine
10
64
20
177
11
64
21
151
0
LINE
5
106
100
AcDbEntity
8
0
6
CONTINUOUS
62
7
370
0
100
AcDbLine
10
-16
20
177
11
-16
21
151
0
LINE
5
107
100
AcDbEntity
8
0
6
CONTINUOUS
62
7
370
0
100
AcDbLine
10
64
20
152
11
-16
21
152
0
SOLID
5
108
100
AcDbEntity
8
0
6
CONTINUOUS
62
7
370
0
100
AcDbTrace
10
64
20
152
30
0
11
60.5
21
151.417201479
31
0
12
60.5
22
152.582798521
32
0
13
60.5
23
152.582798521
33
0
0
SOLID
5
109
100
AcDbEntity
8
0
6
CONTINUOUS
62
7
370
0
100
AcDbTrace
10
-16
20
152
30
0
11
-12.5
21
152.582798521
31
0
12
-12.5
22
151.417201479
32
0
13
-12.5
23
151.417201479
33
0
0
MTEXT
5
10A
100
AcDbEntity
8
0
6
CONTINUOUS
62
7
370
0
100
AcDbMText
10
24
20
155.25
30
0
40
3.5
41
10.8888888889
71
5
72
1
1
80.00
7
standard
210
0
220
0
230
1
50
360
73
2
44
1
0
ENDBLK
5
89
330
87
100
AcDbEntity
8
0
100
AcDbBlockEnd
0
BLOCK
5
8B
330
8A
100
AcDbEntity
8
0
100
AcDbBlockBegin
2
GENAXEH
70
0
10
0
20
0
3
GENAXEH
1

0
LINE
5
10B
100
AcDbEntity
8
0
6
ByLayer
62
256
370
-1
100
AcDbLine
10
-1
20
0
11
1
21
0
0
ENDBLK
5
8C
330
8A
100
AcDbEntity
8
0
100
AcDbBlockEnd
0
ENDSEC
0
SECTION
2
ENTITIES
0
POINT
5
10C
100
AcDbEntity
8
0
6
ByLayer
62
256
370
-1
100
AcDbPoint
10
-199
20
1
0
POINT
5
10D
100
AcDbEntity
8
0
6
ByLayer
62
256
370
-1
100
AcDbPoint
10
-199
20
141
0
POINT
5
10E
100
AcDbEntity
8
0
6
ByLayer
62
256
370
-1
100
AcDbPoint
10
-199
20
-139
0
POINT
5
10F
100
AcDbEntity
8
0
6
ByLayer
62
256
370
-1
100
AcDbPoint
10
199
20
1
0
POINT
5
110
100
AcDbEntity
8
0
6
ByLayer
62
256
370
-1
100
AcDbPoint
10
199
20
141
0
POINT
5
111
100
AcDbEntity
8
0
6
ByLayer
62
256
370
-1
100
AcDbPoint
10
199
20
-139
0
POINT
5
112
100
AcDbEntity
8
0
6
ByLayer
62
256
370
-1
100
AcDbPoint
10
199
20
-198
0
POINT
5
113
100
AcDbEntity
8
0
6
ByLayer
62
256
370
-1
100
AcDbPoint
10
-199
20
199
0
POINT
5
114
100
AcDbEntity
8
0
6
ByLayer
62
256
370
-1
100
AcDbPoint
10
199
20
199
0
POINT
5
115
100
AcDbEntity
8
0
6
ByLayer
62
256
370
-1
100
AcDbPoint
10
-199
20
-198
0
POINT
5
116
100
AcDbEntity
8
0
6
ByLayer
62
256
370
-1
100
AcDbPoint
10
-119
20
-198
0
POINT
5
117
100
AcDbEntity
8
0
6
ByLayer
62
256
370
-1
100
AcDbPoint
10
-119
20
199
0
POINT
5
118
100
AcDbEntity
8
0
6
ByLayer
62
256
370
-1
100
AcDbPoint
10
64
20
178
0
POINT
5
119
100
AcDbEntity
8
0
6
ByLayer
62
256
370
-1
100
AcDbPoint
10
-96
20
178
0
POINT
5
11A
100
AcDbEntity
8
0
6
ByLayer
62
256
370
-1
100
AcDbPoint
10
-16
20
178
0
CIRCLE
5
11B
100
AcDbEntity
8
HOLES
6
ByLayer
62
256
370
-1
100
AcDbCircle
10
-81
20
178
40
1.6
0
CIRCLE
5
11C
100
AcDbEntity
8
HOLES
6
ByLayer
62
256
370
-1
100
AcDbCircle
10
-111
20
178
40
1.6
0
CIRCLE
5
11D
100
AcDbEntity
8
HOLES
6
ByLayer
62
256
370
-1
100
AcDbCircle
10
79
20
178
40
1.6
0
CIRCLE
5
11E
100
AcDbEntity
8
HOLES
6
ByLayer
62
256
370
-1
100
AcDbCircle
10
49
20
178
40
1.6
0
CIRCLE
5
11F
100
AcDbEntity
8
HOLES
6
ByLayer
62
256
370
-1
100
AcDbCircle
10
-0.5
20
193.5
40
1.6
0
CIRCLE
5
120
100
AcDbEntity
8
HOLES
6
ByLayer
62
256
370
-1
100
AcDbCircle
10
-31.5
20
193.5
40
1.6
0
CIRCLE
5
121
100
AcDbEntity
8
HOLES
6
ByLayer
62
256
370
-1
100
AcDbCircle
10
-31.5
20
162.5
40
1.6
0
CIRCLE
5
122
100
AcDbEntity
8
HOLES
6
ByLayer
62
256
370
-1
100
AcDbCircle
10
-0.5
20
162.5
40
1.6
0
CIRCLE
5
123
100
AcDbEntity
8
HOLES
6
ByLayer
62
256
370
-1
100
AcDbCircle
10
64
20
178
40
6
0
POINT
5
124
100
AcDbEntity
8
0
6
ByLayer
62
256
370
-1
100
AcDbPoint
10
119
20
-198
0
POINT
5
125
100
AcDbEntity
8
0
6
ByLayer
62
256
370
-1
100
AcDbPoint
10
49
20
199
0
CIRCLE
5
126
100
AcDbEntity
8
HOLES
6
ByLayer
62
256
370
-1
100
AcDbCircle
10
-96
20
178
40
6
0
POINT
5
127
100
AcDbEntity
8
0
6
ByLayer
62
256
370
-1
100
AcDbPoint
10
-16
20
199
0
POINT
5
128
100
AcDbEntity
8
0
6
ByLayer
62
256
370
-1
100
AcDbPoint
10
102
20
199
0
POINT
5
129
100
AcDbEntity
8
0
6
ByLayer
62
256
370
-1
100
AcDbPoint
10
129
20
199
0
LINE
5
12A
100
AcDbEntity
8
IZREZ
6
ByLayer
62
256
370
-1
100
AcDbLine
10
149
20
199
11
149
21
205
0
LINE
5
12B
100
AcDbEntity
8
IZREZ
6
ByLayer
62
256
370
-1
100
AcDbLine
10
149
20
205
11
159
21
205
0
LINE
5
12C
100
AcDbEntity
8
IZREZ
6
ByLayer
62
256
370
-1
100
AcDbLine
10
159
20
205
11
159
21
199
0
LINE
5
12D
100
AcDbEntity
8
IZREZ
6
ByLayer
62
256
370
-1
100
AcDbLine
10
159
20
199
11
179
21
199
0
ARC
5
12E
100
AcDbEntity
8
IZREZ
6
ByLayer
62
256
370
-1
100
AcDbCircle
10
199
20
199
40
20
100
AcDbArc
50
180
51
270
0
LINE
5
12F
100
AcDbEntity
8
IZREZ
6
ByLayer
62
256
370
-1
100
AcDbLine
10
199
20
179
11
199
21
171
0
LINE
5
130
100
AcDbEntity
8
IZREZ
6
ByLayer
62
256
370
-1
100
AcDbLine
10
199
20
171
11
205
21
171
0
LINE
5
131
100
AcDbEntity
8
IZREZ
6
ByLayer
62
256
370
-1
100
AcDbLine
10
205
20
171
11
205
21
161
0
LINE
5
132
100
AcDbEntity
8
IZREZ
6
ByLayer
62
256
370
-1
100
AcDbLine
10
205
20
161
11
199
21
161
0
LINE
5
133
100
AcDbEntity
8
IZREZ
6
ByLayer
62
256
370
-1
100
AcDbLine
10
199
20
161
11
199
21
142.5
0
LINE
5
134
100
AcDbEntity
8
IZREZ
6
ByLayer
62
256
370
-1
100
AcDbLine
10
199
20
142.5
11
192
21
142.5
0
LINE
5
135
100
AcDbEntity
8
IZREZ
6
ByLayer
62
256
370
-1
100
AcDbLine
10
192
20
142.5
11
192
21
143.9
0
LINE
5
136
100
AcDbEntity
8
IZREZ
6
ByLayer
62
256
370
-1
100
AcDbLine
10
192
20
143.9
11
190
21
143.9
0
LINE
5
137
100
AcDbEntity
8
IZREZ
6
ByLayer
62
256
370
-1
100
AcDbLine
10
190
20
143.9
11
190
21
142.5
0
LINE
5
138
100
AcDbEntity
8
IZREZ
6
ByLayer
62
256
370
-1
100
AcDbLine
10
190
20
142.5
11
184
21
142.5
0
LINE
5
139
100
AcDbEntity
8
IZREZ
6
ByLayer
62
256
370
-1
100
AcDbLine
10
184
20
142.5
11
184
21
141
0
LINE
5
13A
100
AcDbEntity
8
IZREZ
6
ByLayer
62
256
370
-1
100
AcDbLine
10
184
20
141
11
184
21
139.5
0
LINE
5
13B
100
AcDbEntity
8
IZREZ
6
ByLayer
62
256
370
-1
100
AcDbLine
10
184
20
139.5
11
190
21
139.5
0
LINE
5
13C
100
AcDbEntity
8
IZREZ
6
ByLayer
62
256
370
-1
100
AcDbLine
10
190
20
139.5
11
190
21
138.1
0
LINE
5
13D
100
AcDbEntity
8
IZREZ
6
ByLayer
62
256
370
-1
100
AcDbLine
10
190
20
138.1
11
192
21
138.1
0
LINE
5
13E
100
AcDbEntity
8
IZREZ
6
ByLayer
62
256
370
-1
100
AcDbLine
10
192
20
138.1
11
192
21
139.5
0
LINE
5
13F
100
AcDbEntity
8
IZREZ
6
ByLayer
62
256
370
-1
100
AcDbLine
10
192
20
139.5
11
199
21
139.5
0
LINE
5
140
100
AcDbEntity
8
IZREZ
6
ByLayer
62
256
370
-1
100
AcDbLine
10
199
20
139.5
11
199
21
121
0
LINE
5
141
100
AcDbEntity
8
IZREZ
6
ByLayer
62
256
370
-1
100
AcDbLine
10
199
20
121
11
205
21
121
0
LINE
5
142
100
AcDbEntity
8
IZREZ
6
ByLayer
62
256
370
-1
100
AcDbLine
10
205
20
121
11
205
21
111
0
LINE
5
143
100
AcDbEntity
8
IZREZ
6
ByLayer
62
256
370
-1
100
AcDbLine
10
205
20
111
11
199
21
111
0
LINE
5
144
100
AcDbEntity
8
IZREZ
6
ByLayer
62
256
370
-1
100
AcDbLine
10
199
20
111
11
199
21
31
0
LINE
5
145
100
AcDbEntity
8
IZREZ
6
ByLayer
62
256
370
-1
100
AcDbLine
10
199
20
31
11
205
21
31
0
LINE
5
146
100
AcDbEntity
8
IZREZ
6
ByLayer
62
256
370
-1
100
AcDbLine
10
205
20
31
11
205
21
21
0
LINE
5
147
100
AcDbEntity
8
IZREZ
6
ByLayer
62
256
370
-1
100
AcDbLine
10
205
20
21
11
199
21
21
0
LINE
5
148
100
AcDbEntity
8
IZREZ
6
ByLayer
62
256
370
-1
100
AcDbLine
10
199
20
21
11
199
21
2.5
0
LINE
5
149
100
AcDbEntity
8
IZREZ
6
ByLayer
62
256
370
-1
100
AcDbLine
10
199
20
2.5
11
192
21
2.5
0
LINE
5
14A
100
AcDbEntity
8
IZREZ
6
ByLayer
62
256
370
-1
100
AcDbLine
10
192
20
2.5
11
192
21
3.9
0
LINE
5
14B
100
AcDbEntity
8
IZREZ
6
ByLayer
62
256
370
-1
100
AcDbLine
10
192
20
3.9
11
190
21
3.9
0
LINE
5
14C
100
AcDbEntity
8
IZREZ
6
ByLayer
62
256
370
-1
100
AcDbLine
10
190
20
3.9
11
190
21
2.5
0
LINE
5
14D
100
AcDbEntity
8
IZREZ
6
ByLayer
62
256
370
-1
100
AcDbLine
10
190
20
2.5
11
184
21
2.5
0
LINE
5
14E
100
AcDbEntity
8
IZREZ
6
ByLayer
62
256
370
-1
100
AcDbLine
10
184
20
2.5
11
184
21
1
0
LINE
5
14F
100
AcDbEntity
8
IZREZ
6
ByLayer
62
256
370
-1
100
AcDbLine
10
184
20
1
11
184
21
-0.5
0
LINE
5
150
100
AcDbEntity
8
IZREZ
6
ByLayer
62
256
370
-1
100
AcDbLine
10
184
20
-0.5
11
190
21
-0.5
0
LINE
5
151
100
AcDbEntity
8
IZREZ
6
ByLayer
62
256
370
-1
100
AcDbLine
10
190
20
-0.5
11
190
21
-1.9
0
LINE
5
152
100
AcDbEntity
8
IZREZ
6
ByLayer
62
256
370
-1
100
AcDbLine
10
190
20
-1.9
11
192
21
-1.9
0
LINE
5
153
100
AcDbEntity
8
IZREZ
6
ByLayer
62
256
370
-1
100
AcDbLine
10
192
20
-1.9
11
192
21
-0.5
0
LINE
5
154
100
AcDbEntity
8
IZREZ
6
ByLayer
62
256
370
-1
100
AcDbLine
10
192
20
-0.5
11
199
21
-0.5
0
LINE
5
155
100
AcDbEntity
8
IZREZ
6
ByLayer
62
256
370
-1
100
AcDbLine
10
199
20
-0.5
11
199
21
-19
0
LINE
5
156
100
AcDbEntity
8
IZREZ
6
ByLayer
62
256
370
-1
100
AcDbLine
10
199
20
-19
11
205
21
-19
0
LINE
5
157
100
AcDbEntity
8
IZREZ
6
ByLayer
62
256
370
-1
100
AcDbLine
10
205
20
-19
11
205
21
-29
0
LINE
5
158
100
AcDbEntity
8
IZREZ
6
ByLayer
62
256
370
-1
100
AcDbLine
10
205
20
-29
11
199
21
-29
0
LINE
5
159
100
AcDbEntity
8
IZREZ
6
ByLayer
62
256
370
-1
100
AcDbLine
10
199
20
-29
11
199
21
-109
0
LINE
5
15A
100
AcDbEntity
8
IZREZ
6
ByLayer
62
256
370
-1
100
AcDbLine
10
199
20
-109
11
205
21
-109
0
LINE
5
15B
100
AcDbEntity
8
IZREZ
6
ByLayer
62
256
370
-1
100
AcDbLine
10
205
20
-109
11
205
21
-119
0
LINE
5
15C
100
AcDbEntity
8
IZREZ
6
ByLayer
62
256
370
-1
100
AcDbLine
10
205
20
-119
11
199
21
-119
0
LINE
5
15D
100
AcDbEntity
8
IZREZ
6
ByLayer
62
256
370
-1
100
AcDbLine
10
199
20
-119
11
199
21
-137.5
0
LINE
5
15E
100
AcDbEntity
8
IZREZ
6
ByLayer
62
256
370
-1
100
AcDbLine
10
199
20
-137.5
11
192
21
-137.5
0
LINE
5
15F
100
AcDbEntity
8
IZREZ
6
ByLayer
62
256
370
-1
100
AcDbLine
10
192
20
-137.5
11
192
21
-136.1
0
LINE
5
160
100
AcDbEntity
8
IZREZ
6
ByLayer
62
256
370
-1
100
AcDbLine
10
192
20
-136.1
11
190
21
-136.1
0
LINE
5
161
100
AcDbEntity
8
IZREZ
6
ByLayer
62
256
370
-1
100
AcDbLine
10
190
20
-136.1
11
190
21
-137.5
0
LINE
5
162
100
AcDbEntity
8
IZREZ
6
ByLayer
62
256
370
-1
100
AcDbLine
10
190
20
-137.5
11
184
21
-137.5
0
LINE
5
163
100
AcDbEntity
8
IZREZ
6
ByLayer
62
256
370
-1
100
AcDbLine
10
184
20
-137.5
11
184
21
-139
0
LINE
5
164
100
AcDbEntity
8
IZREZ
6
ByLayer
62
256
370
-1
100
AcDbLine
10
184
20
-139
11
184
21
-140.5
0
LINE
5
165
100
AcDbEntity
8
IZREZ
6
ByLayer
62
256
370
-1
100
AcDbLine
10
184
20
-140.5
11
190
21
-140.5
0
LINE
5
166
100
AcDbEntity
8
IZREZ
6
ByLayer
62
256
370
-1
100
AcDbLine
10
190
20
-140.5
11
190
21
-141.9
0
LINE
5
167
100
AcDbEntity
8
IZREZ
6
ByLayer
62
256
370
-1
100
AcDbLine
10
190
20
-141.9
11
192
21
-141.9
0
LINE
5
168
100
AcDbEntity
8
IZREZ
6
ByLayer
62
256
370
-1
100
AcDbLine
10
192
20
-141.9
11
192
21
-140.5
0
LINE
5
169
100
AcDbEntity
8
IZREZ
6
ByLayer
62
256
370
-1
100
AcDbLine
10
192
20
-140.5
11
199
21
-140.5
0
LINE
5
16A
100
AcDbEntity
8
IZREZ
6
ByLayer
62
256
370
-1
100
AcDbLine
10
199
20
-140.5
11
199
21
-159
0
LINE
5
16B
100
AcDbEntity
8
IZREZ
6
ByLayer
62
256
370
-1
100
AcDbLine
10
199
20
-159
11
205
21
-159
0
LINE
5
16C
100
AcDbEntity
8
IZREZ
6
ByLayer
62
256
370
-1
100
AcDbLine
10
205
20
-159
11
205
21
-169
0
LINE
5
16D
100
AcDbEntity
8
IZREZ
6
ByLayer
62
256
370
-1
100
AcDbLine
10
205
20
-169
11
199
21
-169
0
LINE
5
16E
100
AcDbEntity
8
IZREZ
6
ByLayer
62
256
370
-1
100
AcDbLine
10
199
20
-169
11
199
21
-178
0
ARC
5
16F
100
AcDbEntity
8
IZREZ
6
ByLayer
62
256
370
-1
100
AcDbCircle
10
199
20
-198
40
20
100
AcDbArc
50
90
51
180
0
LINE
5
170
100
AcDbEntity
8
IZREZ
6
ByLayer
62
256
370
-1
100
AcDbLine
10
179
20
-198
11
149
21
-198
0
LINE
5
171
100
AcDbEntity
8
IZREZ
6
ByLayer
62
256
370
-1
100
AcDbLine
10
149
20
-198
11
149
21
-204
0
LINE
5
172
100
AcDbEntity
8
IZREZ
6
ByLayer
62
256
370
-1
100
AcDbLine
10
149
20
-204
11
139
21
-204
0
LINE
5
173
100
AcDbEntity
8
IZREZ
6
ByLayer
62
256
370
-1
100
AcDbLine
10
139
20
-204
11
139
21
-198
0
LINE
5
174
100
AcDbEntity
8
IZREZ
6
ByLayer
62
256
370
-1
100
AcDbLine
10
139
20
-198
11
120.5
21
-198
0
LINE
5
175
100
AcDbEntity
8
IZREZ
6
ByLayer
62
256
370
-1
100
AcDbLine
10
120.5
20
-198
11
120.5
21
-191
0
LINE
5
176
100
AcDbEntity
8
IZREZ
6
ByLayer
62
256
370
-1
100
AcDbLine
10
120.5
20
-191
11
121.9
21
-191
0
LINE
5
177
100
AcDbEntity
8
IZREZ
6
ByLayer
62
256
370
-1
100
AcDbLine
10
121.9
20
-191
11
121.9
21
-189
0
LINE
5
178
100
AcDbEntity
8
IZREZ
6
ByLayer
62
256
370
-1
100
AcDbLine
10
121.9
20
-189
11
120.5
21
-189
0
LINE
5
179
100
AcDbEntity
8
IZREZ
6
ByLayer
62
256
370
-1
100
AcDbLine
10
120.5
20
-189
11
120.5
21
-183
0
LINE
5
17A
100
AcDbEntity
8
IZREZ
6
ByLayer
62
256
370
-1
100
AcDbLine
10
120.5
20
-183
11
119
21
-183
0
LINE
5
17B
100
AcDbEntity
8
IZREZ
6
ByLayer
62
256
370
-1
100
AcDbLine
10
119
20
-183
11
117.5
21
-183
0
LINE
5
17C
100
AcDbEntity
8
IZREZ
6
ByLayer
62
256
370
-1
100
AcDbLine
10
117.5
20
-183
11
117.5
21
-189
0
LINE
5
17D
100
AcDbEntity
8
IZREZ
6
ByLayer
62
256
370
-1
100
AcDbLine
10
117.5
20
-189
11
116.1
21
-189
0
LINE
5
17E
100
AcDbEntity
8
IZREZ
6
ByLayer
62
256
370
-1
100
AcDbLine
10
116.1
20
-189
11
116.1
21
-191
0
LINE
5
17F
100
AcDbEntity
8
IZREZ
6
ByLayer
62
256
370
-1
100
AcDbLine
10
116.1
20
-191
11
117.5
21
-191
0
LINE
5
180
100
AcDbEntity
8
IZREZ
6
ByLayer
62
256
370
-1
100
AcDbLine
10
117.5
20
-191
11
117.5
21
-198
0
LINE
5
181
100
AcDbEntity
8
IZREZ
6
ByLayer
62
256
370
-1
100
AcDbLine
10
117.5
20
-198
11
99
21
-198
0
LINE
5
182
100
AcDbEntity
8
IZREZ
6
ByLayer
62
256
370
-1
100
AcDbLine
10
99
20
-198
11
99
21
-204
0
LINE
5
183
100
AcDbEntity
8
IZREZ
6
ByLayer
62
256
370
-1
100
AcDbLine
10
99
20
-204
11
89
21
-204
0
LINE
5
184
100
AcDbEntity
8
IZREZ
6
ByLayer
62
256
370
-1
100
AcDbLine
10
89
20
-204
11
89
21
-198
0
LINE
5
185
100
AcDbEntity
8
IZREZ
6
ByLayer
62
256
370
-1
100
AcDbLine
10
-89
20
-198
11
-89
21
-204
0
LINE
5
186
100
AcDbEntity
8
IZREZ
6
ByLayer
62
256
370
-1
100
AcDbLine
10
-89
20
-204
11
-99
21
-204
0
LINE
5
187
100
AcDbEntity
8
IZREZ
6
ByLayer
62
256
370
-1
100
AcDbLine
10
-99
20
-204
11
-99
21
-198
0
LINE
5
188
100
AcDbEntity
8
IZREZ
6
ByLayer
62
256
370
-1
100
AcDbLine
10
-99
20
-198
11
-117.5
21
-198
0
LINE
5
189
100
AcDbEntity
8
IZREZ
6
ByLayer
62
256
370
-1
100
AcDbLine
10
-117.5
20
-198
11
-117.5
21
-191
0
LINE
5
18A
100
AcDbEntity
8
IZREZ
6
ByLayer
62
256
370
-1
100
AcDbLine
10
-117.5
20
-191
11
-116.1
21
-191
0
LINE
5
18B
100
AcDbEntity
8
IZREZ
6
ByLayer
62
256
370
-1
100
AcDbLine
10
-116.1
20
-191
11
-116.1
21
-189
0
LINE
5
18C
100
AcDbEntity
8
IZREZ
6
ByLayer
62
256
370
-1
100
AcDbLine
10
-116.1
20
-189
11
-117.5
21
-189
0
LINE
5
18D
100
AcDbEntity
8
IZREZ
6
ByLayer
62
256
370
-1
100
AcDbLine
10
-117.5
20
-189
11
-117.5
21
-183
0
LINE
5
18E
100
AcDbEntity
8
IZREZ
6
ByLayer
62
256
370
-1
100
AcDbLine
10
-117.5
20
-183
11
-119
21
-183
0
LINE
5
18F
100
AcDbEntity
8
IZREZ
6
ByLayer
62
256
370
-1
100
AcDbLine
10
-119
20
-183
11
-120.5
21
-183
0
LINE
5
190
100
AcDbEntity
8
IZREZ
6
ByLayer
62
256
370
-1
100
AcDbLine
10
-120.5
20
-183
11
-120.5
21
-189
0
LINE
5
191
100
AcDbEntity
8
IZREZ
6
ByLayer
62
256
370
-1
100
AcDbLine
10
-120.5
20
-189
11
-121.9
21
-189
0
LINE
5
192
100
AcDbEntity
8
IZREZ
6
ByLayer
62
256
370
-1
100
AcDbLine
10
-121.9
20
-189
11
-121.9
21
-191
0
LINE
5
193
100
AcDbEntity
8
IZREZ
6
ByLayer
62
256
370
-1
100
AcDbLine
10
-121.9
20
-191
11
-120.5
21
-191
0
LINE
5
194
100
AcDbEntity
8
IZREZ
6
ByLayer
62
256
370
-1
100
AcDbLine
10
-120.5
20
-191
11
-120.5
21
-198
0
LINE
5
195
100
AcDbEntity
8
IZREZ
6
ByLayer
62
256
370
-1
100
AcDbLine
10
-120.5
20
-198
11
-139
21
-198
0
LINE
5
196
100
AcDbEntity
8
IZREZ
6
ByLayer
62
256
370
-1
100
AcDbLine
10
-139
20
-198
11
-139
21
-204
0
LINE
5
197
100
AcDbEntity
8
IZREZ
6
ByLayer
62
256
370
-1
100
AcDbLine
10
-139
20
-204
11
-149
21
-204
0
LINE
5
198
100
AcDbEntity
8
IZREZ
6
ByLayer
62
256
370
-1
100
AcDbLine
10
-149
20
-204
11
-149
21
-198
0
LINE
5
199
100
AcDbEntity
8
IZREZ
6
ByLayer
62
256
370
-1
100
AcDbLine
10
-149
20
-198
11
-179
21
-198
0
ARC
5
19A
100
AcDbEntity
8
IZREZ
6
ByLayer
62
256
370
-1
100
AcDbCircle
10
-199
20
-198
40
20
100
AcDbArc
50
9.29739496005e-012
51
90
0
LINE
5
19B
100
AcDbEntity
8
IZREZ
6
ByLayer
62
256
370
-1
100
AcDbLine
10
-199
20
-178
11
-199
21
-169
0
LINE
5
19C
100
AcDbEntity
8
IZREZ
6
ByLayer
62
256
370
-1
100
AcDbLine
10
-199
20
-169
11
-205
21
-169
0
LINE
5
19D
100
AcDbEntity
8
IZREZ
6
ByLayer
62
256
370
-1
100
AcDbLine
10
-205
20
-169
11
-205
21
-159
0
LINE
5
19E
100
AcDbEntity
8
IZREZ
6
ByLayer
62
256
370
-1
100
AcDbLine
10
-205
20
-159
11
-199
21
-159
0
LINE
5
19F
100
AcDbEntity
8
IZREZ
6
ByLayer
62
256
370
-1
100
AcDbLine
10
-199
20
-159
11
-199
21
-140.5
0
LINE
5
1A0
100
AcDbEntity
8
IZREZ
6
ByLayer
62
256
370
-1
100
AcDbLine
10
-199
20
-140.5
11
-192
21
-140.5
0
LINE
5
1A1
100
AcDbEntity
8
IZREZ
6
ByLayer
62
256
370
-1
100
AcDbLine
10
-192
20
-140.5
11
-192
21
-141.9
0
LINE
5
1A2
100
AcDbEntity
8
IZREZ
6
ByLayer
62
256
370
-1
100
AcDbLine
10
-192
20
-141.9
11
-190
21
-141.9
0
LINE
5
1A3
100
AcDbEntity
8
IZREZ
6
ByLayer
62
256
370
-1
100
AcDbLine
10
-190
20
-141.9
11
-190
21
-140.5
0
LINE
5
1A4
100
AcDbEntity
8
IZREZ
6
ByLayer
62
256
370
-1
100
AcDbLine
10
-190
20
-140.5
11
-184
21
-140.5
0
LINE
5
1A5
100
AcDbEntity
8
IZREZ
6
ByLayer
62
256
370
-1
100
AcDbLine
10
-184
20
-140.5
11
-184
21
-139
0
LINE
5
1A6
100
AcDbEntity
8
IZREZ
6
ByLayer
62
256
370
-1
100
AcDbLine
10
-184
20
-139
11
-184
21
-137.5
0
LINE
5
1A7
100
AcDbEntity
8
IZREZ
6
ByLayer
62
256
370
-1
100
AcDbLine
10
-184
20
-137.5
11
-190
21
-137.5
0
LINE
5
1A8
100
AcDbEntity
8
IZREZ
6
ByLayer
62
256
370
-1
100
AcDbLine
10
-190
20
-137.5
11
-190
21
-136.1
0
LINE
5
1A9
100
AcDbEntity
8
IZREZ
6
ByLayer
62
256
370
-1
100
AcDbLine
10
-190
20
-136.1
11
-192
21
-136.1
0
LINE
5
1AA
100
AcDbEntity
8
IZREZ
6
ByLayer
62
256
370
-1
100
AcDbLine
10
-192
20
-136.1
11
-192
21
-137.5
0
LINE
5
1AB
100
AcDbEntity
8
IZREZ
6
ByLayer
62
256
370
-1
100
AcDbLine
10
-192
20
-137.5
11
-199
21
-137.5
0
LINE
5
1AC
100
AcDbEntity
8
IZREZ
6
ByLayer
62
256
370
-1
100
AcDbLine
10
-199
20
-137.5
11
-199
21
-119
0
LINE
5
1AD
100
AcDbEntity
8
IZREZ
6
ByLayer
62
256
370
-1
100
AcDbLine
10
-199
20
-119
11
-205
21
-119
0
LINE
5
1AE
100
AcDbEntity
8
IZREZ
6
ByLayer
62
256
370
-1
100
AcDbLine
10
-205
20
-119
11
-205
21
-109
0
LINE
5
1AF
100
AcDbEntity
8
IZREZ
6
ByLayer
62
256
370
-1
100
AcDbLine
10
-205
20
-109
11
-199
21
-109
0
LINE
5
1B0
100
AcDbEntity
8
IZREZ
6
ByLayer
62
256
370
-1
100
AcDbLine
10
-199
20
-109
11
-199
21
-29
0
LINE
5
1B1
100
AcDbEntity
8
IZREZ
6
ByLayer
62
256
370
-1
100
AcDbLine
10
-199
20
-29
11
-205
21
-29
0
LINE
5
1B2
100
AcDbEntity
8
IZREZ
6
ByLayer
62
256
370
-1
100
AcDbLine
10
-205
20
-29
11
-205
21
-19
0
LINE
5
1B3
100
AcDbEntity
8
IZREZ
6
ByLayer
62
256
370
-1
100
AcDbLine
10
-205
20
-19
11
-199
21
-19
0
LINE
5
1B4
100
AcDbEntity
8
IZREZ
6
ByLayer
62
256
370
-1
100
AcDbLine
10
-199
20
-19
11
-199
21
-0.5
0
LINE
5
1B5
100
AcDbEntity
8
IZREZ
6
ByLayer
62
256
370
-1
100
AcDbLine
10
-199
20
-0.5
11
-192
21
-0.5
0
LINE
5
1B6
100
AcDbEntity
8
IZREZ
6
ByLayer
62
256
370
-1
100
AcDbLine
10
-192
20
-0.5
11
-192
21
-1.9
0
LINE
5
1B7
100
AcDbEntity
8
IZREZ
6
ByLayer
62
256
370
-1
100
AcDbLine
10
-192
20
-1.9
11
-190
21
-1.9
0
LINE
5
1B8
100
AcDbEntity
8
IZREZ
6
ByLayer
62
256
370
-1
100
AcDbLine
10
-190
20
-1.9
11
-190
21
-0.5
0
LINE
5
1B9
100
AcDbEntity
8
IZREZ
6
ByLayer
62
256
370
-1
100
AcDbLine
10
-190
20
-0.5
11
-184
21
-0.5
0
LINE
5
1BA
100
AcDbEntity
8
IZREZ
6
ByLayer
62
256
370
-1
100
AcDbLine
10
-184
20
-0.5
11
-184
21
1
0
LINE
5
1BB
100
AcDbEntity
8
IZREZ
6
ByLayer
62
256
370
-1
100
AcDbLine
10
-184
20
1
11
-184
21
2.5
0
LINE
5
1BC
100
AcDbEntity
8
IZREZ
6
ByLayer
62
256
370
-1
100
AcDbLine
10
-184
20
2.5
11
-190
21
2.5
0
LINE
5
1BD
100
AcDbEntity
8
IZREZ
6
ByLayer
62
256
370
-1
100
AcDbLine
10
-190
20
2.5
11
-190
21
3.9
0
LINE
5
1BE
100
AcDbEntity
8
IZREZ
6
ByLayer
62
256
370
-1
100
AcDbLine
10
-190
20
3.9
11
-192
21
3.9
0
LINE
5
1BF
100
AcDbEntity
8
IZREZ
6
ByLayer
62
256
370
-1
100
AcDbLine
10
-192
20
3.9
11
-192
21
2.5
0
LINE
5
1C0
100
AcDbEntity
8
IZREZ
6
ByLayer
62
256
370
-1
100
AcDbLine
10
-192
20
2.5
11
-199
21
2.5
0
LINE
5
1C1
100
AcDbEntity
8
IZREZ
6
ByLayer
62
256
370
-1
100
AcDbLine
10
-199
20
2.5
11
-199
21
21
0
LINE
5
1C2
100
AcDbEntity
8
IZREZ
6
ByLayer
62
256
370
-1
100
AcDbLine
10
-199
20
21
11
-205
21
21
0
LINE
5
1C3
100
AcDbEntity
8
IZREZ
6
ByLayer
62
256
370
-1
100
AcDbLine
10
-205
20
21
11
-205
21
31
0
LINE
5
1C4
100
AcDbEntity
8
IZREZ
6
ByLayer
62
256
370
-1
100
AcDbLine
10
-205
20
31
11
-199
21
31
0
LINE
5
1C5
100
AcDbEntity
8
IZREZ
6
ByLayer
62
256
370
-1
100
AcDbLine
10
-199
20
31
11
-199
21
111
0
LINE
5
1C6
100
AcDbEntity
8
IZREZ
6
ByLayer
62
256
370
-1
100
AcDbLine
10
-199
20
111
11
-205
21
111
0
LINE
5
1C7
100
AcDbEntity
8
IZREZ
6
ByLayer
62
256
370
-1
100
AcDbLine
10
-205
20
111
11
-205
21
121
0
LINE
5
1C8
100
AcDbEntity
8
IZREZ
6
ByLayer
62
256
370
-1
100
AcDbLine
10
-205
20
121
11
-199
21
121
0
LINE
5
1C9
100
AcDbEntity
8
IZREZ
6
ByLayer
62
256
370
-1
100
AcDbLine
10
-199
20
121
11
-199
21
139.5
0
LINE
5
1CA
100
AcDbEntity
8
IZREZ
6
ByLayer
62
256
370
-1
100
AcDbLine
10
-199
20
139.5
11
-192
21
139.5
0
LINE
5
1CB
100
AcDbEntity
8
IZREZ
6
ByLayer
62
256
370
-1
100
AcDbLine
10
-192
20
139.5
11
-192
21
138.1
0
LINE
5
1CC
100
AcDbEntity
8
IZREZ
6
ByLayer
62
256
370
-1
100
AcDbLine
10
-192
20
138.1
11
-190
21
138.1
0
LINE
5
1CD
100
AcDbEntity
8
IZREZ
6
ByLayer
62
256
370
-1
100
AcDbLine
10
-190
20
138.1
11
-190
21
139.5
0
LINE
5
1CE
100
AcDbEntity
8
IZREZ
6
ByLayer
62
256
370
-1
100
AcDbLine
10
-190
20
139.5
11
-184
21
139.5
0
LINE
5
1CF
100
AcDbEntity
8
IZREZ
6
ByLayer
62
256
370
-1
100
AcDbLine
10
-184
20
139.5
11
-184
21
141
0
LINE
5
1D0
100
AcDbEntity
8
IZREZ
6
ByLayer
62
256
370
-1
100
AcDbLine
10
-184
20
141
11
-184
21
142.5
0
LINE
5
1D1
100
AcDbEntity
8
IZREZ
6
ByLayer
62
256
370
-1
100
AcDbLine
10
-184
20
142.5
11
-190
21
142.5
0
LINE
5
1D2
100
AcDbEntity
8
IZREZ
6
ByLayer
62
256
370
-1
100
AcDbLine
10
-190
20
142.5
11
-190
21
143.9
0
LINE
5
1D3
100
AcDbEntity
8
IZREZ
6
ByLayer
62
256
370
-1
100
AcDbLine
10
-190
20
143.9
11
-192
21
143.9
0
LINE
5
1D4
100
AcDbEntity
8
IZREZ
6
ByLayer
62
256
370
-1
100
AcDbLine
10
-192
20
143.9
11
-192
21
142.5
0
LINE
5
1D5
100
AcDbEntity
8
IZREZ
6
ByLayer
62
256
370
-1
100
AcDbLine
10
-192
20
142.5
11
-199
21
142.5
0
LINE
5
1D6
100
AcDbEntity
8
IZREZ
6
ByLayer
62
256
370
-1
100
AcDbLine
10
-199
20
142.5
11
-199
21
161
0
LINE
5
1D7
100
AcDbEntity
8
IZREZ
6
ByLayer
62
256
370
-1
100
AcDbLine
10
-199
20
161
11
-205
21
161
0
LINE
5
1D8
100
AcDbEntity
8
IZREZ
6
ByLayer
62
256
370
-1
100
AcDbLine
10
-205
20
161
11
-205
21
171
0
LINE
5
1D9
100
AcDbEntity
8
IZREZ
6
ByLayer
62
256
370
-1
100
AcDbLine
10
-205
20
171
11
-199
21
171
0
LINE
5
1DA
100
AcDbEntity
8
IZREZ
6
ByLayer
62
256
370
-1
100
AcDbLine
10
-199
20
171
11
-199
21
179
0
ARC
5
1DB
100
AcDbEntity
8
IZREZ
6
ByLayer
62
256
370
-1
100
AcDbCircle
10
-199
20
199
40
20
100
AcDbArc
50
270
51
0
0
LINE
5
1DC
100
AcDbEntity
8
IZREZ
6
ByLayer
62
256
370
-1
100
AcDbLine
10
-179
20
199
11
-149
21
199
0
LINE
5
1DD
100
AcDbEntity
8
IZREZ
6
ByLayer
62
256
370
-1
100
AcDbLine
10
-149
20
199
11
-149
21
205
0
LINE
5
1DE
100
AcDbEntity
8
IZREZ
6
ByLayer
62
256
370
-1
100
AcDbLine
10
-149
20
205
11
-139
21
205
0
LINE
5
1DF
100
AcDbEntity
8
IZREZ
6
ByLayer
62
256
370
-1
100
AcDbLine
10
-139
20
205
11
-139
21
199
0
LINE
5
1E0
100
AcDbEntity
8
IZREZ
6
ByLayer
62
256
370
-1
100
AcDbLine
10
-139
20
199
11
-120.5
21
199
0
LINE
5
1E1
100
AcDbEntity
8
IZREZ
6
ByLayer
62
256
370
-1
100
AcDbLine
10
-120.5
20
199
11
-120.5
21
192
0
LINE
5
1E2
100
AcDbEntity
8
IZREZ
6
ByLayer
62
256
370
-1
100
AcDbLine
10
-120.5
20
192
11
-121.9
21
192
0
LINE
5
1E3
100
AcDbEntity
8
IZREZ
6
ByLayer
62
256
370
-1
100
AcDbLine
10
-121.9
20
192
11
-121.9
21
190
0
LINE
5
1E4
100
AcDbEntity
8
IZREZ
6
ByLayer
62
256
370
-1
100
AcDbLine
10
-121.9
20
190
11
-120.5
21
190
0
LINE
5
1E5
100
AcDbEntity
8
IZREZ
6
ByLayer
62
256
370
-1
100
AcDbLine
10
-120.5
20
190
11
-120.5
21
184
0
LINE
5
1E6
100
AcDbEntity
8
IZREZ
6
ByLayer
62
256
370
-1
100
AcDbLine
10
-120.5
20
184
11
-119
21
184
0
LINE
5
1E7
100
AcDbEntity
8
IZREZ
6
ByLayer
62
256
370
-1
100
AcDbLine
10
-119
20
184
11
-117.5
21
184
0
LINE
5
1E8
100
AcDbEntity
8
IZREZ
6
ByLayer
62
256
370
-1
100
AcDbLine
10
-117.5
20
184
11
-117.5
21
190
0
LINE
5
1E9
100
AcDbEntity
8
IZREZ
6
ByLayer
62
256
370
-1
100
AcDbLine
10
-117.5
20
190
11
-116.1
21
190
0
LINE
5
1EA
100
AcDbEntity
8
IZREZ
6
ByLayer
62
256
370
-1
100
AcDbLine
10
-116.1
20
190
11
-116.1
21
192
0
LINE
5
1EB
100
AcDbEntity
8
IZREZ
6
ByLayer
62
256
370
-1
100
AcDbLine
10
-116.1
20
192
11
-117.5
21
192
0
LINE
5
1EC
100
AcDbEntity
8
IZREZ
6
ByLayer
62
256
370
-1
100
AcDbLine
10
-117.5
20
192
11
-117.5
21
199
0
LINE
5
1ED
100
AcDbEntity
8
IZREZ
6
ByLayer
62
256
370
-1
100
AcDbLine
10
-117.5
20
199
11
-99
21
199
0
LINE
5
1EE
100
AcDbEntity
8
IZREZ
6
ByLayer
62
256
370
-1
100
AcDbLine
10
-99
20
199
11
-99
21
205
0
LINE
5
1EF
100
AcDbEntity
8
IZREZ
6
ByLayer
62
256
370
-1
100
AcDbLine
10
-99
20
205
11
-89
21
205
0
LINE
5
1F0
100
AcDbEntity
8
IZREZ
6
ByLayer
62
256
370
-1
100
AcDbLine
10
-89
20
205
11
-89
21
199
0
LINE
5
1F1
100
AcDbEntity
8
IZREZ
6
ByLayer
62
256
370
-1
100
AcDbLine
10
-46
20
199
11
-46
21
205
0
LINE
5
1F2
100
AcDbEntity
8
IZREZ
6
ByLayer
62
256
370
-1
100
AcDbLine
10
-46
20
205
11
-36
21
205
0
LINE
5
1F3
100
AcDbEntity
8
IZREZ
6
ByLayer
62
256
370
-1
100
AcDbLine
10
-36
20
205
11
-36
21
199
0
LINE
5
1F4
100
AcDbEntity
8
IZREZ
6
ByLayer
62
256
370
-1
100
AcDbLine
10
-36
20
199
11
-17.5
21
199
0
LINE
5
1F5
100
AcDbEntity
8
IZREZ
6
ByLayer
62
256
370
-1
100
AcDbLine
10
-17.5
20
199
11
-17.5
21
192
0
LINE
5
1F6
100
AcDbEntity
8
IZREZ
6
ByLayer
62
256
370
-1
100
AcDbLine
10
-17.5
20
192
11
-18.9
21
192
0
LINE
5
1F7
100
AcDbEntity
8
IZREZ
6
ByLayer
62
256
370
-1
100
AcDbLine
10
-18.9
20
192
11
-18.9
21
190
0
LINE
5
1F8
100
AcDbEntity
8
IZREZ
6
ByLayer
62
256
370
-1
100
AcDbLine
10
-18.9
20
190
11
-17.5
21
190
0
LINE
5
1F9
100
AcDbEntity
8
IZREZ
6
ByLayer
62
256
370
-1
100
AcDbLine
10
-17.5
20
190
11
-17.5
21
188.897247359
0
LINE
5
1FA
100
AcDbEntity
8
IZREZ
6
ByLayer
62
256
370
-1
100
AcDbLine
10
-14.5
20
188.897247359
11
-14.5
21
190
0
LINE
5
1FB
100
AcDbEntity
8
IZREZ
6
ByLayer
62
256
370
-1
100
AcDbLine
10
-14.5
20
190
11
-13.1
21
190
0
LINE
5
1FC
100
AcDbEntity
8
IZREZ
6
ByLayer
62
256
370
-1
100
AcDbLine
10
-13.1
20
190
11
-13.1
21
192
0
LINE
5
1FD
100
AcDbEntity
8
IZREZ
6
ByLayer
62
256
370
-1
100
AcDbLine
10
-13.1
20
192
11
-14.5
21
192
0
LINE
5
1FE
100
AcDbEntity
8
IZREZ
6
ByLayer
62
256
370
-1
100
AcDbLine
10
-14.5
20
192
11
-14.5
21
199
0
LINE
5
1FF
100
AcDbEntity
8
IZREZ
6
ByLayer
62
256
370
-1
100
AcDbLine
10
-14.5
20
199
11
4
21
199
0
LINE
5
200
100
AcDbEntity
8
IZREZ
6
ByLayer
62
256
370
-1
100
AcDbLine
10
4
20
199
11
4
21
205
0
LINE
5
201
100
AcDbEntity
8
IZREZ
6
ByLayer
62
256
370
-1
100
AcDbLine
10
4
20
205
11
14
21
205
0
LINE
5
202
100
AcDbEntity
8
IZREZ
6
ByLayer
62
256
370
-1
100
AcDbLine
10
14
20
205
11
14
21
199
0
LINE
5
203
100
AcDbEntity
8
IZREZ
6
ByLayer
62
256
370
-1
100
AcDbLine
10
14
20
199
11
47.5
21
199
0
LINE
5
204
100
AcDbEntity
8
IZREZ
6
ByLayer
62
256
370
-1
100
AcDbLine
10
47.5
20
199
11
47.5
21
192
0
LINE
5
205
100
AcDbEntity
8
IZREZ
6
ByLayer
62
256
370
-1
100
AcDbLine
10
47.5
20
192
11
46.1
21
192
0
LINE
5
206
100
AcDbEntity
8
IZREZ
6
ByLayer
62
256
370
-1
100
AcDbLine
10
46.1
20
192
11
46.1
21
190
0
LINE
5
207
100
AcDbEntity
8
IZREZ
6
ByLayer
62
256
370
-1
100
AcDbLine
10
46.1
20
190
11
47.5
21
190
0
LINE
5
208
100
AcDbEntity
8
IZREZ
6
ByLayer
62
256
370
-1
100
AcDbLine
10
47.5
20
190
11
47.5
21
184
0
LINE
5
209
100
AcDbEntity
8
IZREZ
6
ByLayer
62
256
370
-1
100
AcDbLine
10
47.5
20
184
11
49
21
184
0
LINE
5
20A
100
AcDbEntity
8
IZREZ
6
ByLayer
62
256
370
-1
100
AcDbLine
10
49
20
184
11
50.5
21
184
0
LINE
5
20B
100
AcDbEntity
8
IZREZ
6
ByLayer
62
256
370
-1
100
AcDbLine
10
50.5
20
184
11
50.5
21
190
0
LINE
5
20C
100
AcDbEntity
8
IZREZ
6
ByLayer
62
256
370
-1
100
AcDbLine
10
50.5
20
190
11
51.9
21
190
0
LINE
5
20D
100
AcDbEntity
8
IZREZ
6
ByLayer
62
256
370
-1
100
AcDbLine
10
51.9
20
190
11
51.9
21
192
0
LINE
5
20E
100
AcDbEntity
8
IZREZ
6
ByLayer
62
256
370
-1
100
AcDbLine
10
51.9
20
192
11
50.5
21
192
0
LINE
5
20F
100
AcDbEntity
8
IZREZ
6
ByLayer
62
256
370
-1
100
AcDbLine
10
50.5
20
192
11
50.5
21
199
0
LINE
5
210
100
AcDbEntity
8
IZREZ
6
ByLayer
62
256
370
-1
100
AcDbLine
10
50.5
20
199
11
69
21
199
0
LINE
5
211
100
AcDbEntity
8
IZREZ
6
ByLayer
62
256
370
-1
100
AcDbLine
10
69
20
199
11
69
21
205
0
LINE
5
212
100
AcDbEntity
8
IZREZ
6
ByLayer
62
256
370
-1
100
AcDbLine
10
69
20
205
11
79
21
205
0
LINE
5
213
100
AcDbEntity
8
IZREZ
6
ByLayer
62
256
370
-1
100
AcDbLine
10
79
20
205
11
79
21
199
0
LINE
5
214
100
AcDbEntity
8
IZREZ
6
ByLayer
62
256
370
-1
100
AcDbLine
10
79
20
199
11
93
21
199
0
LINE
5
215
100
AcDbEntity
8
IZREZ
6
ByLayer
62
256
370
-1
100
AcDbLine
10
93
20
199
11
93
21
186
0
LINE
5
216
100
AcDbEntity
8
IZREZ
6
ByLayer
62
256
370
-1
100
AcDbLine
10
93
20
186
11
111
21
186
0
LINE
5
217
100
AcDbEntity
8
IZREZ
6
ByLayer
62
256
370
-1
100
AcDbLine
10
111
20
186
11
111
21
199
0
LINE
5
218
100
AcDbEntity
8
IZREZ
6
ByLayer
62
256
370
-1
100
AcDbLine
10
111
20
199
11
117.5
21
199
0
LINE
5
219
100
AcDbEntity
8
IZREZ
6
ByLayer
62
256
370
-1
100
AcDbLine
10
117.5
20
199
11
127.5
21
199
0
LINE
5
21A
100
AcDbEntity
8
IZREZ
6
ByLayer
62
256
370
-1
100
AcDbLine
10
127.5
20
199
11
127.5
21
192
0
LINE
5
21B
100
AcDbEntity
8
IZREZ
6
ByLayer
62
256
370
-1
100
AcDbLine
10
127.5
20
192
11
126.1
21
192
0
LINE
5
21C
100
AcDbEntity
8
IZREZ
6
ByLayer
62
256
370
-1
100
AcDbLine
10
126.1
20
192
11
126.1
21
190
0
LINE
5
21D
100
AcDbEntity
8
IZREZ
6
ByLayer
62
256
370
-1
100
AcDbLine
10
126.1
20
190
11
127.5
21
190
0
LINE
5
21E
100
AcDbEntity
8
IZREZ
6
ByLayer
62
256
370
-1
100
AcDbLine
10
127.5
20
190
11
127.5
21
184
0
LINE
5
21F
100
AcDbEntity
8
IZREZ
6
ByLayer
62
256
370
-1
100
AcDbLine
10
127.5
20
184
11
129
21
184
0
LINE
5
220
100
AcDbEntity
8
IZREZ
6
ByLayer
62
256
370
-1
100
AcDbLine
10
129
20
184
11
130.5
21
184
0
LINE
5
221
100
AcDbEntity
8
IZREZ
6
ByLayer
62
256
370
-1
100
AcDbLine
10
130.5
20
184
11
130.5
21
190
0
LINE
5
222
100
AcDbEntity
8
IZREZ
6
ByLayer
62
256
370
-1
100
AcDbLine
10
130.5
20
190
11
131.9
21
190
0
LINE
5
223
100
AcDbEntity
8
IZREZ
6
ByLayer
62
256
370
-1
100
AcDbLine
10
131.9
20
190
11
131.9
21
192
0
LINE
5
224
100
AcDbEntity
8
IZREZ
6
ByLayer
62
256
370
-1
100
AcDbLine
10
131.9
20
192
11
130.5
21
192
0
LINE
5
225
100
AcDbEntity
8
IZREZ
6
ByLayer
62
256
370
-1
100
AcDbLine
10
130.5
20
192
11
130.5
21
199
0
LINE
5
226
100
AcDbEntity
8
IZREZ
6
ByLayer
62
256
370
-1
100
AcDbLine
10
130.5
20
199
11
149
21
199
0
LINE
5
227
100
AcDbEntity
8
IZREZ
6
ByLayer
62
256
370
-1
100
AcDbLine
10
149
20
199
11
130.5
21
199
0
POINT
5
228
100
AcDbEntity
8
0
6
ByLayer
62
256
370
-1
100
AcDbPoint
10
94
20
-138
0
CIRCLE
5
229
100
AcDbEntity
8
HOLES
6
ByLayer
62
256
370
-1
100
AcDbCircle
10
94
20
-138
40
1.6
0
CIRCLE
5
22A
100
AcDbEntity
8
HOLES
6
ByLayer
62
256
370
-1
100
AcDbCircle
10
179
20
-138
40
1.6
0
CIRCLE
5
22B
100
AcDbEntity
8
HOLES
6
ByLayer
62
256
370
-1
100
AcDbCircle
10
94
20
-12
40
1.6
0
CIRCLE
5
22C
100
AcDbEntity
8
HOLES
6
ByLayer
62
256
370
-1
100
AcDbCircle
10
179
20
-12
40
1.6
0
LINE
5
22D
100
AcDbEntity
8
GRAVIRANJE
6
ByLayer
62
256
370
-1
100
AcDbLine
10
84
20
-148
11
189
21
-148
0
LINE
5
22E
100
AcDbEntity
8
GRAVIRANJE
6
ByLayer
62
256
370
-1
100
AcDbLine
10
189
20
-148
11
189
21
58
0
LINE
5
22F
100
AcDbEntity
8
GRAVIRANJE
6
ByLayer
62
256
370
-1
100
AcDbLine
10
189
20
58
11
84
21
58
0
LINE
5
230
100
AcDbEntity
8
GRAVIRANJE
6
ByLayer
62
256
370
-1
100
AcDbLine
10
84
20
58
11
84
21
-148
0
MTEXT
5
231
100
AcDbEntity
8
GRAVIRANJE
6
ByLayer
62
256
370
-1
100
AcDbMText
10
104
20
-128
30
0
40
5
41
28.74999894
71
1
72
1
1
24V PSU
7
standard
210
0
220
0
230
1
50
0
73
2
44
1
0
LINE
5
232
100
AcDbEntity
8
IZREZ
6
ByLayer
62
256
370
-1
100
AcDbLine
10
84
20
-198
11
84
21
-168
0
LINE
5
233
100
AcDbEntity
8
IZREZ
6
ByLayer
62
256
370
-1
100
AcDbLine
10
84
20
-198
11
89
21
-198
0
POINT
5
234
100
AcDbEntity
8
0
6
ByLayer
62
256
370
-1
100
AcDbPoint
10
19
20
-198
0
LINE
5
235
100
AcDbEntity
8
IZREZ
6
ByLayer
62
256
370
-1
100
AcDbLine
10
-71
20
-168
11
-71
21
-198
0
LINE
5
236
100
AcDbEntity
8
IZREZ
6
ByLayer
62
256
370
-1
100
AcDbLine
10
84
20
-168
11
-71
21
-168
0
LINE
5
237
100
AcDbEntity
8
IZREZ
6
ByLayer
62
256
370
-1
100
AcDbLine
10
-71
20
-198
11
-89
21
-198
0
CIRCLE
5
238
100
AcDbEntity
8
HOLES
6
ByLayer
62
256
370
-1
100
AcDbCircle
10
21
20
-28
40
1.5
0
CIRCLE
5
239
100
AcDbEntity
8
HOLES
6
ByLayer
62
256
370
-1
100
AcDbCircle
10
21
20
-86
40
1.5
0
CIRCLE
5
23A
100
AcDbEntity
8
GRAVIRANJE
6
ByLayer
62
256
370
-1
100
AcDbCircle
10
21
20
-86
40
2.5
0
CIRCLE
5
23B
100
AcDbEntity
8
HOLES
6
ByLayer
62
256
370
-1
100
AcDbCircle
10
-28
20
-28
40
1.5
0
CIRCLE
5
23C
100
AcDbEntity
8
GRAVIRANJE
6
ByLayer
62
256
370
-1
100
AcDbCircle
10
-28
20
-28
40
2.5
0
CIRCLE
5
23D
100
AcDbEntity
8
HOLES
6
ByLayer
62
256
370
-1
100
AcDbCircle
10
-28
20
-86
40
1.5
0
CIRCLE
5
23E
100
AcDbEntity
8
GRAVIRANJE
6
ByLayer
62
256
370
-1
100
AcDbCircle
10
-28
20
-86
40
2.5
0
CIRCLE
5
23F
100
AcDbEntity
8
GRAVIRANJE
6
ByLayer
62
256
370
-1
100
AcDbCircle
10
21
20
-28
40
2.5
0
LINE
5
240
100
AcDbEntity
8
GRAVIRANJE
6
ByLayer
62
256
370
-1
100
AcDbLine
10
21
20
-25
11
-28
21
-25
0
LINE
5
241
100
AcDbEntity
8
GRAVIRANJE
6
ByLayer
62
256
370
-1
100
AcDbLine
10
21
20
-110
11
-28
21
-110
0
LINE
5
242
100
AcDbEntity
8
GRAVIRANJE
6
ByLayer
62
256
370
-1
100
AcDbLine
10
-31
20
-28
11
-31
21
-107
0
LINE
5
243
100
AcDbEntity
8
GRAVIRANJE
6
ByLayer
62
256
370
-1
100
AcDbLine
10
24
20
-107
11
24
21
-28
0
ARC
5
244
100
AcDbEntity
8
GRAVIRANJE
6
ByLayer
62
256
370
-1
100
AcDbCircle
10
21
20
-28
40
3
100
AcDbArc
50
360
51
90
0
ARC
5
245
100
AcDbEntity
8
GRAVIRANJE
6
ByLayer
62
256
370
-1
100
AcDbCircle
10
-28
20
-28
40
3
100
AcDbArc
50
90
51
180
0
ARC
5
246
100
AcDbEntity
8
GRAVIRANJE
6
ByLayer
62
256
370
-1
100
AcDbCircle
10
-28
20
-107
40
3
100
AcDbArc
50
180.000060921
51
270
0
ARC
5
247
100
AcDbEntity
8
GRAVIRANJE
6
ByLayer
62
256
370
-1
100
AcDbCircle
10
21
20
-107
40
3
100
AcDbArc
50
270
51
360
0
POINT
5
248
100
AcDbEntity
8
0
6
ByLayer
62
256
370
-1
100
AcDbPoint
10
61
20
62
0
POINT
5
249
100
AcDbEntity
8
0
6
ByLayer
62
256
370
-1
100
AcDbPoint
10
21
20
62
0
POINT
5
24A
100
AcDbEntity
8
0
6
ByLayer
62
256
370
-1
100
AcDbPoint
10
21
20
22
0
POINT
5
24B
100
AcDbEntity
8
0
6
ByLayer
62
256
370
-1
100
AcDbPoint
10
61
20
22
0
CIRCLE
5
24C
100
AcDbEntity
8
HOLES
6
ByLayer
62
256
370
-1
100
AcDbCircle
10
61
20
62
40
1.5
0
CIRCLE
5
24D
100
AcDbEntity
8
HOLES
6
ByLayer
62
256
370
-1
100
AcDbCircle
10
21
20
62
40
1.5
0
CIRCLE
5
24E
100
AcDbEntity
8
HOLES
6
ByLayer
62
256
370
-1
100
AcDbCircle
10
21
20
22
40
1.5
0
CIRCLE
5
24F
100
AcDbEntity
8
HOLES
6
ByLayer
62
256
370
-1
100
AcDbCircle
10
61
20
22
40
1.5
0
ARC
5
250
100
AcDbEntity
8
GRAVIRANJE
6
ByLayer
62
256
370
-1
100
AcDbCircle
10
61
20
62
40
5
100
AcDbArc
50
0
51
90
0
LINE
5
251
100
AcDbEntity
8
GRAVIRANJE
6
ByLayer
62
256
370
-1
100
AcDbLine
10
21
20
67
11
61
21
67
0
ARC
5
252
100
AcDbEntity
8
GRAVIRANJE
6
ByLayer
62
256
370
-1
100
AcDbCircle
10
21
20
62
40
5
100
AcDbArc
50
90
51
180
0
LINE
5
253
100
AcDbEntity
8
GRAVIRANJE
6
ByLayer
62
256
370
-1
100
AcDbLine
10
16
20
22
11
16
21
62
0
ARC
5
254
100
AcDbEntity
8
GRAVIRANJE
6
ByLayer
62
256
370
-1
100
AcDbCircle
10
21
20
22
40
5
100
AcDbArc
50
180
51
270
0
LINE
5
255
100
AcDbEntity
8
GRAVIRANJE
6
ByLayer
62
256
370
-1
100
AcDbLine
10
61
20
17
11
21
21
17
0
LINE
5
256
100
AcDbEntity
8
GRAVIRANJE
6
ByLayer
62
256
370
-1
100
AcDbLine
10
66
20
62
11
66
21
22
0
ARC
5
257
100
AcDbEntity
8
GRAVIRANJE
6
ByLayer
62
256
370
-1
100
AcDbCircle
10
61
20
22
40
5
100
AcDbArc
50
270
51
0
0
POINT
5
258
100
AcDbEntity
8
0
6
ByLayer
62
256
370
-1
100
AcDbPoint
10
-19
20
62
0
POINT
5
259
100
AcDbEntity
8
0
6
ByLayer
62
256
370
-1
100
AcDbPoint
10
-59
20
62
0
POINT
5
25A
100
AcDbEntity
8
0
6
ByLayer
62
256
370
-1
100
AcDbPoint
10
-59
20
22
0
POINT
5
25B
100
AcDbEntity
8
0
6
ByLayer
62
256
370
-1
100
AcDbPoint
10
-19
20
22
0
CIRCLE
5
25C
100
AcDbEntity
8
HOLES
6
ByLayer
62
256
370
-1
100
AcDbCircle
10
-19
20
62
40
1.5
0
CIRCLE
5
25D
100
AcDbEntity
8
HOLES
6
ByLayer
62
256
370
-1
100
AcDbCircle
10
-59
20
62
40
1.5
0
CIRCLE
5
25E
100
AcDbEntity
8
HOLES
6
ByLayer
62
256
370
-1
100
AcDbCircle
10
-59
20
22
40
1.5
0
CIRCLE
5
25F
100
AcDbEntity
8
HOLES
6
ByLayer
62
256
370
-1
100
AcDbCircle
10
-19
20
22
40
1.5
0
ARC
5
260
100
AcDbEntity
8
GRAVIRANJE
6
ByLayer
62
256
370
-1
100
AcDbCircle
10
-19
20
62
40
5
100
AcDbArc
50
0
51
90
0
LINE
5
261
100
AcDbEntity
8
GRAVIRANJE
6
ByLayer
62
256
370
-1
100
AcDbLine
10
-59
20
67
11
-19
21
67
0
ARC
5
262
100
AcDbEntity
8
GRAVIRANJE
6
ByLayer
62
256
370
-1
100
AcDbCircle
10
-59
20
62
40
5
100
AcDbArc
50
90
51
180
0
LINE
5
263
100
AcDbEntity
8
GRAVIRANJE
6
ByLayer
62
256
370
-1
100
AcDbLine
10
-64
20
22
11
-64
21
62
0
ARC
5
264
100
AcDbEntity
8
GRAVIRANJE
6
ByLayer
62
256
370
-1
100
AcDbCircle
10
-59
20
22
40
5
100
AcDbArc
50
180
51
270
0
LINE
5
265
100
AcDbEntity
8
GRAVIRANJE
6
ByLayer
62
256
370
-1
100
AcDbLine
10
-19
20
17
11
-59
21
17
0
LINE
5
266
100
AcDbEntity
8
GRAVIRANJE
6
ByLayer
62
256
370
-1
100
AcDbLine
10
-14
20
62
11
-14
21
22
0
ARC
5
267
100
AcDbEntity
8
GRAVIRANJE
6
ByLayer
62
256
370
-1
100
AcDbCircle
10
-19
20
22
40
5
100
AcDbArc
50
270
51
0
0
CIRCLE
5
268
100
AcDbEntity
8
HOLES
6
ByLayer
62
256
370
-1
100
AcDbCircle
10
-82
20
42
40
1.6
0
CIRCLE
5
269
100
AcDbEntity
8
HOLES
6
ByLayer
62
256
370
-1
100
AcDbCircle
10
-76
20
42
40
1.6
0
CIRCLE
5
26A
100
AcDbEntity
8
HOLES
6
ByLayer
62
256
370
-1
100
AcDbCircle
10
-82
20
-8
40
1.6
0
CIRCLE
5
26B
100
AcDbEntity
8
HOLES
6
ByLayer
62
256
370
-1
100
AcDbCircle
10
-76
20
-8
40
1.6
0
CIRCLE
5
26C
100
AcDbEntity
8
HOLES
6
ByLayer
62
256
370
-1
100
AcDbCircle
10
-82
20
-58
40
1.6
0
CIRCLE
5
26D
100
AcDbEntity
8
HOLES
6
ByLayer
62
256
370
-1
100
AcDbCircle
10
-76
20
-58
40
1.6
0
CIRCLE
5
26E
100
AcDbEntity
8
HOLES
6
ByLayer
62
256
370
-1
100
AcDbCircle
10
-82
20
-108
40
1.6
0
CIRCLE
5
26F
100
AcDbEntity
8
HOLES
6
ByLayer
62
256
370
-1
100
AcDbCircle
10
-76
20
-108
40
1.6
0
CIRCLE
5
270
100
AcDbEntity
8
HOLES
6
ByLayer
62
256
370
-1
100
AcDbCircle
10
-9
20
89
40
1.6
0
CIRCLE
5
271
100
AcDbEntity
8
HOLES
6
ByLayer
62
256
370
-1
100
AcDbCircle
10
-9
20
95
40
1.6
0
CIRCLE
5
272
100
AcDbEntity
8
HOLES
6
ByLayer
62
256
370
-1
100
AcDbCircle
10
-59
20
89
40
1.6
0
CIRCLE
5
273
100
AcDbEntity
8
HOLES
6
ByLayer
62
256
370
-1
100
AcDbCircle
10
-59
20
95
40
1.6
0
CIRCLE
5
274
100
AcDbEntity
8
HOLES
6
ByLayer
62
256
370
-1
100
AcDbCircle
10
173.121320344
20
169.878679656
40
1.6
0
CIRCLE
5
275
100
AcDbEntity
8
HOLES
6
ByLayer
62
256
370
-1
100
AcDbCircle
10
168.878679656
20
174.121320344
40
1.6
0
CIRCLE
5
276
100
AcDbEntity
8
HOLES
6
ByLayer
62
256
370
-1
100
AcDbCircle
10
143.121320344
20
139.878679656
40
1.6
0
CIRCLE
5
277
100
AcDbEntity
8
HOLES
6
ByLayer
62
256
370
-1
100
AcDbCircle
10
138.878679656
20
144.121320344
40
1.6
0
CIRCLE
5
278
100
AcDbEntity
8
HOLES
6
ByLayer
62
256
370
-1
100
AcDbCircle
10
113.121320344
20
109.878679656
40
1.6
0
CIRCLE
5
279
100
AcDbEntity
8
HOLES
6
ByLayer
62
256
370
-1
100
AcDbCircle
10
108.878679656
20
114.121320344
40
1.6
0
CIRCLE
5
27A
100
AcDbEntity
8
HOLES
6
ByLayer
62
256
370
-1
100
AcDbCircle
10
41
20
89
40
1.6
0
CIRCLE
5
27B
100
AcDbEntity
8
HOLES
6
ByLayer
62
256
370
-1
100
AcDbCircle
10
41
20
95
40
1.6
0
CIRCLE
5
27C
100
AcDbEntity
8
HOLES
6
ByLayer
62
256
370
-1
100
AcDbCircle
10
91
20
89
40
1.6
0
CIRCLE
5
27D
100
AcDbEntity
8
HOLES
6
ByLayer
62
256
370
-1
100
AcDbCircle
10
91
20
95
40
1.6
0
CIRCLE
5
27E
100
AcDbEntity
8
HOLES
6
ByLayer
62
256
370
-1
100
AcDbCircle
10
-166.878679656
20
174.121320344
40
1.6
0
CIRCLE
5
27F
100
AcDbEntity
8
HOLES
6
ByLayer
62
256
370
-1
100
AcDbCircle
10
-171.121320344
20
169.878679656
40
1.6
0
CIRCLE
5
280
100
AcDbEntity
8
HOLES
6
ByLayer
62
256
370
-1
100
AcDbCircle
10
-146.878679656
20
154.121320344
40
1.6
0
CIRCLE
5
281
100
AcDbEntity
8
HOLES
6
ByLayer
62
256
370
-1
100
AcDbCircle
10
-151.121320344
20
149.878679656
40
1.6
0
CIRCLE
5
282
100
AcDbEntity
8
HOLES
6
ByLayer
62
256
370
-1
100
AcDbCircle
10
-116.878679656
20
124.121320344
40
1.6
0
CIRCLE
5
283
100
AcDbEntity
8
HOLES
6
ByLayer
62
256
370
-1
100
AcDbCircle
10
-121.121320344
20
119.878679656
40
1.6
0
CIRCLE
5
284
100
AcDbEntity
8
HOLES
6
ByLayer
62
256
370
-1
100
AcDbCircle
10
-86.878679656
20
94.121320344
40
1.6
0
CIRCLE
5
285
100
AcDbEntity
8
HOLES
6
ByLayer
62
256
370
-1
100
AcDbCircle
10
-91.121320344
20
89.878679656
40
1.6
0
CIRCLE
5
286
100
AcDbEntity
8
HOLES
6
ByLayer
62
256
370
-1
100
AcDbCircle
10
-49
20
-141
40
1.6
0
CIRCLE
5
287
100
AcDbEntity
8
HOLES
6
ByLayer
62
256
370
-1
100
AcDbCircle
10
-49
20
-135
40
1.6
0
CIRCLE
5
288
100
AcDbEntity
8
HOLES
6
ByLayer
62
256
370
-1
100
AcDbCircle
10
-9
20
-141
40
1.6
0
CIRCLE
5
289
100
AcDbEntity
8
HOLES
6
ByLayer
62
256
370
-1
100
AcDbCircle
10
-9
20
-135
40
1.6
0
CIRCLE
5
28A
100
AcDbEntity
8
HOLES
6
ByLayer
62
256
370
-1
100
AcDbCircle
10
41
20
-141
40
1.6
0
CIRCLE
5
28B
100
AcDbEntity
8
HOLES
6
ByLayer
62
256
370
-1
100
AcDbCircle
10
41
20
-135
40
1.6
0
CIRCLE
5
28C
100
AcDbEntity
8
HOLES
6
ByLayer
62
256
370
-1
100
AcDbCircle
10
-166.878679656
20
-170.121320344
40
1.6
0
CIRCLE
5
28D
100
AcDbEntity
8
HOLES
6
ByLayer
62
256
370
-1
100
AcDbCircle
10
-171.121320344
20
-165.878679656
40
1.6
0
CIRCLE
5
28E
100
AcDbEntity
8
HOLES
6
ByLayer
62
256
370
-1
100
AcDbCircle
10
-136.878679656
20
-140.121320344
40
1.6
0
CIRCLE
5
28F
100
AcDbEntity
8
HOLES
6
ByLayer
62
256
370
-1
100
AcDbCircle
10
-141.121320344
20
-135.878679656
40
1.6
0
CIRCLE
5
290
100
AcDbEntity
8
HOLES
6
ByLayer
62
256
370
-1
100
AcDbCircle
10
-106.878679656
20
-110.121320344
40
1.6
0
CIRCLE
5
291
100
AcDbEntity
8
HOLES
6
ByLayer
62
256
370
-1
100
AcDbCircle
10
-111.121320344
20
-105.878679656
40
1.6
0
CIRCLE
5
292
100
AcDbEntity
8
HOLES
6
ByLayer
62
256
370
-1
100
AcDbCircle
10
176.121320344
20
-172.878679656
40
1.6
0
CIRCLE
5
293
100
AcDbEntity
8
HOLES
6
ByLayer
62
256
370
-1
100
AcDbCircle
10
171.878679656
20
-177.121320344
40
1.6
0
ARC
5
294
100
AcDbEntity
8
HOLES
6
ByLayer
62
256
370
-1
100
AcDbCircle
10
-16
20
178
40
11
100
AcDbArc
50
97.8375
51
82.1625
0
LINE
5
295
100
AcDbEntity
8
GRAVIRANJE
6
ByLayer
62
256
370
-1
100
AcDbLine
10
171
20
172
11
111
21
112
0
LINE
5
296
100
AcDbEntity
8
GRAVIRANJE
6
ByLayer
62
256
370
-1
100
AcDbLine
10
91
20
92
11
-59
21
92
0
LINE
5
297
100
AcDbEntity
8
GRAVIRANJE
6
ByLayer
62
256
370
-1
100
AcDbLine
10
-89
20
92
11
-169
21
172
0
LINE
5
298
100
AcDbEntity
8
GRAVIRANJE
6
ByLayer
62
256
370
-1
100
AcDbLine
10
-79
20
42
11
-79
21
-108
0
LINE
5
299
100
AcDbEntity
8
GRAVIRANJE
6
ByLayer
62
256
370
-1
100
AcDbLine
10
-49
20
-138
11
41
21
-138
0
LINE
5
29A
100
AcDbEntity
8
GRAVIRANJE
6
ByLayer
62
256
370
-1
100
AcDbLine
10
101
20
-168
11
141
21
-168
0
LINE
5
29B
100
AcDbEntity
8
GRAVIRANJE
6
ByLayer
62
256
370
-1
100
AcDbLine
10
141
20
-168
11
153
21
-168
0
LINE
5
29C
100
AcDbEntity
8
GRAVIRANJE
6
ByLayer
62
256
370
-1
100
AcDbLine
10
174
20
-175
11
167
21
-168
0
LINE
5
29D
100
AcDbEntity
8
GRAVIRANJE
6
ByLayer
62
256
370
-1
100
AcDbLine
10
167
20
-168
11
153
21
-168
0
CIRCLE
5
29E
100
AcDbEntity
8
HOLES
6
ByLayer
62
256
370
-1
100
AcDbCircle
10
73.121320344
20
-145.878679656
40
1.6
0
CIRCLE
5
29F
100
AcDbEntity
8
HOLES
6
ByLayer
62
256
370
-1
100
AcDbCircle
10
68.878679656
20
-150.121320344
40
1.6
0
LINE
5
2A0
100
AcDbEntity
8
GRAVIRANJE
6
ByLayer
62
256
370
-1
100
AcDbLine
10
71
20
-148
11
61
21
-138
0
LINE
5
2A1
100
AcDbEntity
8
GRAVIRANJE
6
ByLayer
62
256
370
-1
100
AcDbLine
10
61
20
-138
11
41
21
-138
0
LINE
5
2A2
100
AcDbEntity
8
GRAVIRANJE
6
ByLayer
62
256
370
-1
100
AcDbLine
10
71
20
-148
11
91
21
-168
0
LINE
5
2A3
100
AcDbEntity
8
GRAVIRANJE
6
ByLayer
62
256
370
-1
100
AcDbLine
10
91
20
-168
11
101
21
-168
0
CIRCLE
5
2A4
100
AcDbEntity
8
HOLES
6
ByLayer
62
256
370
-1
100
AcDbCircle
10
91
20
-171
40
1.6
0
CIRCLE
5
2A5
100
AcDbEntity
8
HOLES
6
ByLayer
62
256
370
-1
100
AcDbCircle
10
91
20
-165
40
1.6
0
CIRCLE
5
2A6
100
AcDbEntity
8
HOLES
6
ByLayer
62
256
370
-1
100
AcDbCircle
10
161
20
-171
40
1.6
0
CIRCLE
5
2A7
100
AcDbEntity
8
HOLES
6
ByLayer
62
256
370
-1
100
AcDbCircle
10
161
20
-165
40
1.6
0
CIRCLE
5
2A8
100
AcDbEntity
8
HOLES
6
ByLayer
62
256
370
-1
100
AcDbCircle
10
116
20
-171
40
1.6
0
CIRCLE
5
2A9
100
AcDbEntity
8
HOLES
6
ByLayer
62
256
370
-1
100
AcDbCircle
10
116
20
-165
40
1.6
0
CIRCLE
5
2AA
100
AcDbEntity
8
HOLES
6
ByLayer
62
256
370
-1
100
AcDbCircle
10
139
20
-171
40
1.6
0
CIRCLE
5
2AB
100
AcDbEntity
8
HOLES
6
ByLayer
62
256
370
-1
100
AcDbCircle
10
139
20
-165
40
1.6
0
LINE
5
2AC
100
AcDbEntity
8
GRAVIRANJE
6
ByLayer
62
256
370
-1
100
AcDbLine
10
-169
20
-168
11
-109
21
-108
0
LINE
5
2AD
100
AcDbEntity
8
IZREZ
6
ByLayer
62
256
370
-1
100
AcDbLine
10
-69
20
199
11
-69
21
196
0
LINE
5
2AE
100
AcDbEntity
8
IZREZ
6
ByLayer
62
256
370
-1
100
AcDbLine
10
-59
20
199
11
-59
21
196
0
ARC
5
2AF
100
AcDbEntity
8
IZREZ
6
ByLayer
62
256
370
-1
100
AcDbCircle
10
-64
20
196
40
5
100
AcDbArc
50
180
51
0
0
LINE
5
2B0
100
AcDbEntity
8
IZREZ
6
ByLayer
62
256
370
-1
100
AcDbLine
10
-59
20
199
11
-46
21
199
0
LINE
5
2B1
100
AcDbEntity
8
IZREZ
6
ByLayer
62
256
370
-1
100
AcDbLine
10
-69
20
199
11
-89
21
199
0
CIRCLE
5
2B2
100
AcDbEntity
8
HOLES
6
ByLayer
62
256
370
-1
100
AcDbCircle
10
-67
20
182
40
1.6
0
CIRCLE
5
2B3
100
AcDbEntity
8
HOLES
6
ByLayer
62
256
370
-1
100
AcDbCircle
10
-61
20
182
40
1.6
0
CIRCLE
5
2B4
100
AcDbEntity
8
HOLES
6
ByLayer
62
256
370
-1
100
AcDbCircle
10
-67
20
102
40
1.6
0
CIRCLE
5
2B5
100
AcDbEntity
8
HOLES
6
ByLayer
62
256
370
-1
100
AcDbCircle
10
-61
20
102
40
1.6
0
CIRCLE
5
2B6
100
AcDbEntity
8
HOLES
6
ByLayer
62
256
370
-1
100
AcDbCircle
10
-67
20
142
40
1.6
0
CIRCLE
5
2B7
100
AcDbEntity
8
HOLES
6
ByLayer
62
256
370
-1
100
AcDbCircle
10
-61
20
142
40
1.6
0
LINE
5
2B8
100
AcDbEntity
8
GRAVIRANJE
6
ByLayer
62
256
370
-1
100
AcDbLine
10
-64
20
182
11
-64
21
102
0
CIRCLE
5
2B9
100
AcDbEntity
8
HOLES
6
ByLayer
62
256
370
-1
100
AcDbCircle
10
-50
20
142
40
1.6
0
CIRCLE
5
2BA
100
AcDbEntity
8
HOLES
6
ByLayer
62
256
370
-1
100
AcDbCircle
10
-78
20
142
40
1.6
0
MTEXT
5
2BB
100
AcDbEntity
8
0
6
ByLayer
62
256
370
-1
100
AcDbMText
10
-61
20
138
30
0
40
5
41
31.6666666667
71
1
72
1
1
MAX31855
7
STANDARD
210
0
220
0
230
1
50
0
73
2
44
1
0
CIRCLE
5
2BC
100
AcDbEntity
8
HOLES
6
ByLayer
62
256
370
-1
100
AcDbCircle
10
11
20
89
40
1.6
0
CIRCLE
5
2BD
100
AcDbEntity
8
HOLES
6
ByLayer
62
256
370
-1
100
AcDbCircle
10
11
20
95
40
1.6
0
CIRCLE
5
2BE
100
AcDbEntity
8
HOLES
6
ByLayer
62
256
370
-1
100
AcDbCircle
10
-144.7
20
-24.1
40
1.6
0
LINE
5
2BF
100
AcDbEntity
8
GRAVIRANJE
6
ByLayer
62
256
370
-1
100
AcDbLine
10
-110.8
20
-56.1
11
-102.8
21
-56.1
0
LINE
5
2C0
100
AcDbEntity
8
GRAVIRANJE
6
ByLayer
62
256
370
-1
100
AcDbLine
10
-102.8
20
-56.1
11
-98.8
21
-52.1
0
LINE
5
2C1
100
AcDbEntity
8
GRAVIRANJE
6
ByLayer
62
256
370
-1
100
AcDbLine
10
-114.3
20
-59.6
11
-110.8
21
-56.1
0
LINE
5
2C2
100
AcDbEntity
8
GRAVIRANJE
6
ByLayer
62
256
370
-1
100
AcDbLine
10
-152.3
20
-57.1
11
-151.8
21
-57.1
0
LINE
5
2C3
100
AcDbEntity
8
GRAVIRANJE
6
ByLayer
62
256
370
-1
100
AcDbLine
10
-149.3
20
-59.6
11
-114.3
21
-59.6
0
LINE
5
2C4
100
AcDbEntity
8
GRAVIRANJE
6
ByLayer
62
256
370
-1
100
AcDbLine
10
-151.8
20
-57.1
11
-149.3
21
-59.6
0
CIRCLE
5
2C5
100
AcDbEntity
8
HOLES
6
ByLayer
62
256
370
-1
100
AcDbCircle
10
-149.8
20
-54.55
40
1.6
0
LINE
5
2C6
100
AcDbEntity
8
GRAVIRANJE
6
ByLayer
62
256
370
-1
100
AcDbLine
10
-99
20
42
11
-152.34
21
42
0
CIRCLE
5
2C7
100
AcDbEntity
8
HOLES
6
ByLayer
62
256
370
-1
100
AcDbCircle
10
-149.8
20
28.03
40
1.6
0
CIRCLE
5
2C8
100
AcDbEntity
8
HOLES
6
ByLayer
62
256
370
-1
100
AcDbCircle
10
-101.54
20
26.76
40
1.6
0
CIRCLE
5
2C9
100
AcDbEntity
8
HOLES
6
ByLayer
62
256
370
-1
100
AcDbCircle
10
-149.8
20
-54.52
40
1.6
0
LINE
5
2CA
100
AcDbEntity
8
GRAVIRANJE
6
ByLayer
62
256
370
-1
100
AcDbLine
10
-152.3
20
-57.1
11
-152.34
21
-57.1
0
LINE
5
2CB
100
AcDbEntity
8
GRAVIRANJE
6
ByLayer
62
256
370
-1
100
AcDbLine
10
-152.34
20
-57.1
11
-152.34
21
42
0
LINE
5
2CC
100
AcDbEntity
8
GRAVIRANJE
6
ByLayer
62
256
370
-1
100
AcDbLine
10
-99
20
42
11
-98.8
21
-52.1
0
CIRCLE
5
2CD
100
AcDbEntity
8
HOLES
6
ByLayer
62
256
370
-1
100
AcDbCircle
10
-101.54
20
-48.17
40
1.6
0
MTEXT
5
2CE
100
AcDbEntity
8
GRAVIRANJE
6
ByLayer
62
256
370
-1
100
AcDbMText
10
-116.8
20
15.9
30
0
40
4
41
24.4444444444
71
1
72
1
1
Arduino\PMega2560
7
standard
210
0
220
0
230
1
50
180
73
2
44
1
0
MTEXT
5
2CF
100
AcDbEntity
8
GRAVIRANJE
6
ByLayer
62
256
370
-1
100
AcDbMText
10
14
20
-42
30
0
40
4
41
37.2222242794
71
1
72
1
1
Raspberry PI+
7
standard
210
0
220
0
230
1
50
180
73
2
44
1
0
CIRCLE
5
2D0
100
AcDbEntity
8
HOLES
6
ByLayer
62
256
370
-1
100
AcDbCircle
10
51
20
-58
40
1
0
CIRCLE
5
2D1
100
AcDbEntity
8
HOLES
6
ByLayer
62
256
370
-1
100
AcDbCircle
10
67.25
20
-58
40
1
0
CIRCLE
5
2D2
100
AcDbEntity
8
HOLES
6
ByLayer
62
256
370
-1
100
AcDbCircle
10
51
20
-93.7
40
1
0
CIRCLE
5
2D3
100
AcDbEntity
8
HOLES
6
ByLayer
62
256
370
-1
100
AcDbCircle
10
67.25
20
-93.7
40
1
0
LINE
5
2D4
100
AcDbEntity
8
GRAVIRANJE
6
ByLayer
62
256
370
-1
100
AcDbLine
10
49
20
-56
11
70
21
-56
0
LINE
5
2D5
100
AcDbEntity
8
GRAVIRANJE
6
ByLayer
62
256
370
-1
100
AcDbLine
10
70
20
-56
11
70
21
-116
0
LINE
5
2D6
100
AcDbEntity
8
GRAVIRANJE
6
ByLayer
62
256
370
-1
100
AcDbLine
10
70
20
-116
11
49
21
-116
0
LINE
5
2D7
100
AcDbEntity
8
GRAVIRANJE
6
ByLayer
62
256
370
-1
100
AcDbLine
10
49
20
-116
11
49
21
-56
0
CIRCLE
5
2D8
100
AcDbEntity
8
HOLES
6
ByLayer
62
256
370
-1
100
AcDbCircle
10
58
20
-38
40
1.6
0
CIRCLE
5
2D9
100
AcDbEntity
8
HOLES
6
ByLayer
62
256
370
-1
100
AcDbCircle
10
64
20
-38
40
1.6
0
CIRCLE
5
2DA
100
AcDbEntity
8
HOLES
6
ByLayer
62
256
370
-1
100
AcDbCircle
10
21
20
-11
40
1.6
0
CIRCLE
5
2DB
100
AcDbEntity
8
HOLES
6
ByLayer
62
256
370
-1
100
AcDbCircle
10
21
20
-5
40
1.6
0
CIRCLE
5
2DC
100
AcDbEntity
8
HOLES
6
ByLayer
62
256
370
-1
100
AcDbCircle
10
41
20
-11
40
1.6
0
CIRCLE
5
2DD
100
AcDbEntity
8
HOLES
6
ByLayer
62
256
370
-1
100
AcDbCircle
10
41
20
-5
40
1.6
0
CIRCLE
5
2DE
100
AcDbEntity
8
HOLES
6
ByLayer
62
256
370
-1
100
AcDbCircle
10
13.121320344
20
4.121320344
40
1.6
0
CIRCLE
5
2DF
100
AcDbEntity
8
HOLES
6
ByLayer
62
256
370
-1
100
AcDbCircle
10
8.878679656
20
-0.121320344
40
1.6
0
CIRCLE
5
2E0
100
AcDbEntity
8
HOLES
6
ByLayer
62
256
370
-1
100
AcDbCircle
10
63.121320344
20
-15.878679656
40
1.6
0
CIRCLE
5
2E1
100
AcDbEntity
8
HOLES
6
ByLayer
62
256
370
-1
100
AcDbCircle
10
58.878679656
20
-20.121320344
40
1.6
0
CIRCLE
5
2E2
100
AcDbEntity
8
GRAVIRANJE
6
ByLayer
62
256
370
-1
100
AcDbCircle
10
51
20
-58
40
1.5
0
CIRCLE
5
2E3
100
AcDbEntity
8
GRAVIRANJE
6
ByLayer
62
256
370
-1
100
AcDbCircle
10
67.25
20
-58
40
1.5
0
CIRCLE
5
2E4
100
AcDbEntity
8
GRAVIRANJE
6
ByLayer
62
256
370
-1
100
AcDbCircle
10
67.25
20
-93.7
40
1.5
0
CIRCLE
5
2E5
100
AcDbEntity
8
GRAVIRANJE
6
ByLayer
62
256
370
-1
100
AcDbCircle
10
51
20
-93.7
40
1.5
0
MTEXT
5
2E6
100
AcDbEntity
8
GRAVIRANJE
6
ByLayer
62
256
370
-1
100
AcDbMText
10
61
20
-68
30
0
40
4
41
37.5555547075
71
1
72
1
1
+5V USB PWR
7
standard
210
0
220
0
230
1
50
270
73
2
44
1
0
POINT
5
2E7
100
AcDbEntity
8
0
6
ByLayer
62
256
370
-1
100
AcDbPoint
10
-139
20
112
0
POINT
5
2E8
100
AcDbEntity
8
0
6
ByLayer
62
256
370
-1
100
AcDbPoint
10
-179
20
112
0
POINT
5
2E9
100
AcDbEntity
8
0
6
ByLayer
62
256
370
-1
100
AcDbPoint
10
-179
20
72
0
POINT
5
2EA
100
AcDbEntity
8
0
6
ByLayer
62
256
370
-1
100
AcDbPoint
10
-139
20
72
0
CIRCLE
5
2EB
100
AcDbEntity
8
HOLES
6
ByLayer
62
256
370
-1
100
AcDbCircle
10
-139
20
112
40
1.5
0
CIRCLE
5
2EC
100
AcDbEntity
8
HOLES
6
ByLayer
62
256
370
-1
100
AcDbCircle
10
-179
20
112
40
1.5
0
CIRCLE
5
2ED
100
AcDbEntity
8
HOLES
6
ByLayer
62
256
370
-1
100
AcDbCircle
10
-179
20
72
40
1.5
0
CIRCLE
5
2EE
100
AcDbEntity
8
HOLES
6
ByLayer
62
256
370
-1
100
AcDbCircle
10
-139
20
72
40
1.5
0
ARC
5
2EF
100
AcDbEntity
8
GRAVIRANJE
6
ByLayer
62
256
370
-1
100
AcDbCircle
10
-139
20
112
40
5
100
AcDbArc
50
0
51
90
0
LINE
5
2F0
100
AcDbEntity
8
GRAVIRANJE
6
ByLayer
62
256
370
-1
100
AcDbLine
10
-179
20
117
11
-139
21
117
0
ARC
5
2F1
100
AcDbEntity
8
GRAVIRANJE
6
ByLayer
62
256
370
-1
100
AcDbCircle
10
-179
20
112
40
5
100
AcDbArc
50
90
51
180
0
LINE
5
2F2
100
AcDbEntity
8
GRAVIRANJE
6
ByLayer
62
256
370
-1
100
AcDbLine
10
-184
20
72
11
-184
21
112
0
ARC
5
2F3
100
AcDbEntity
8
GRAVIRANJE
6
ByLayer
62
256
370
-1
100
AcDbCircle
10
-179
20
72
40
5
100
AcDbArc
50
180
51
270
0
LINE
5
2F4
100
AcDbEntity
8
GRAVIRANJE
6
ByLayer
62
256
370
-1
100
AcDbLine
10
-139
20
67
11
-179
21
67
0
LINE
5
2F5
100
AcDbEntity
8
GRAVIRANJE
6
ByLayer
62
256
370
-1
100
AcDbLine
10
-134
20
112
11
-134
21
72
0
ARC
5
2F6
100
AcDbEntity
8
GRAVIRANJE
6
ByLayer
62
256
370
-1
100
AcDbCircle
10
-139
20
72
40
5
100
AcDbArc
50
270
51
0
0
DIMENSION
5
2F7
100
AcDbEntity
8
0
6
ByLayer
62
256
370
-1
100
AcDbDimension
2
*D1
10
49
20
222
30
0
11
-75
21
225.25
31
0
70
33
71
5
72
0
3
Standard
53
0
210
0
220
0
230
1
100
AcDbAlignedDimension
13
-199
23
199
33
0
14
49
24
199
34
0
0
DIMENSION
5
2F8
100
AcDbEntity
8
0
6
ByLayer
62
256
370
-1
100
AcDbDimension
2
*D2
10
-199
20
232
30
0
11
-35
21
235.25
31
0
70
33
71
5
72
0
3
Standard
53
0
210
0
220
0
230
1
100
AcDbAlignedDimension
13
129
23
199
33
0
14
-199
24
199
34
0
0
DIMENSION
5
2F9
100
AcDbEntity
8
0
6
ByLayer
62
256
370
-1
100
AcDbDimension
2
*D3
10
129
20
222
30
0
11
164
21
225.25
31
0
70
33
71
5
72
0
3
Standard
53
0
210
0
220
0
230
1
100
AcDbAlignedDimension
13
199
23
199
33
0
14
129
24
199
34
0
0
DIMENSION
5
2FA
100
AcDbEntity
8
0
6
ByLayer
62
256
370
-1
100
AcDbDimension
2
*D4
10
199
20
242
30
0
11
2.22044604925e-016
21
245.25
31
0
70
33
71
5
3
Standard
53
0
210
0
220
0
230
1
100
AcDbAlignedDimension
13
-199
23
199
33
0
14
199
24
199
34
0
0
DIMENSION
5
2FB
100
AcDbEntity
8
0
6
ByLayer
62
256
370
-1
100
AcDbDimension
2
*D5
10
-16
20
152
30
0
11
-56
21
155.25
31
0
70
33
71
5
72
0
3
Standard
53
0
210
0
220
0
230
1
100
AcDbAlignedDimension
13
-96
23
178
33
0
14
-16
24
178
34
0
0
DIMENSION
5
2FC
100
AcDbEntity
8
0
6
ByLayer
62
256
370
-1
100
AcDbDimension
2
*D6
10
-16
20
152
30
0
11
24
21
155.25
31
0
70
33
71
5
72
0
3
Standard
53
0
210
0
220
0
230
1
100
AcDbAlignedDimension
13
64
23
178
33
0
14
-16
24
178
34
0
0
DIMENSION
5
2FD
100
AcDbEntity
8
0
6
ByLayer
62
256
370
-1
100
AcDbDimension
2
*D7
10
-16
20
212
30
0
11
-67.5
21
215.25
31
0
70
33
71
5
72
0
3
Standard
53
0
210
0
220
0
230
1
100
AcDbAlignedDimension
13
-119
23
199
33
0
14
-16
24
199
34
0
0
DIMENSION
5
2FE
100
AcDbEntity
8
0
6
ByLayer
62
256
370
-1
100
AcDbDimension
2
*D8
10
-119
20
212
30
0
11
-159
21
215.25
31
0
70
33
71
5
3
Standard
53
0
210
0
220
0
230
1
100
AcDbAlignedDimension
13
-199
23
199
33
0
14
-119
24
199
34
0
0
DIMENSION
5
2FF
100
AcDbEntity
8
0
6
ByLayer
62
256
370
-1
100
AcDbDimension
2
*D9
10
-16
20
178
30
0
11
-19.25
21
188.5
31
0
70
33
71
5
72
0
3
Standard
53
0
210
0
220
0
230
1
100
AcDbAlignedDimension
13
-16
23
199
33
0
14
-16
24
178
34
0
0
DIMENSION
5
300
100
AcDbEntity
8
0
6
ByLayer
62
256
370
-1
100
AcDbDimension
2
*D10
10
102
20
182
30
0
11
150.5
21
185.25
31
0
70
33
71
5
72
0
3
Standard
53
0
210
0
220
0
230
1
100
AcDbAlignedDimension
13
199
23
199
33
0
14
102
24
199
34
0
0
DIMENSION
5
301
100
AcDbEntity
8
0
6
ByLayer
62
256
370
-1
100
AcDbDimension
2
*D11
10
221
20
141
30
0
11
217.75
21
170
31
0
70
33
71
5
3
Standard
53
0
210
0
220
0
230
1
100
AcDbAlignedDimension
13
199
23
199
33
0
14
199
24
141
34
0
0
DIMENSION
5
302
100
AcDbEntity
8
0
6
ByLayer
62
256
370
-1
100
AcDbDimension
2
*D12
10
231
20
141
30
0
11
227.75
21
-28.5
31
0
70
33
71
5
72
0
3
Standard
53
0
210
0
220
0
230
1
100
AcDbAlignedDimension
13
199
23
-198
33
0
14
199
24
141
34
0
0
DIMENSION
5
303
100
AcDbEntity
8
0
6
ByLayer
62
256
370
-1
100
AcDbDimension
2
*D13
10
221
20
1
30
0
11
217.75
21
-98.5
31
0
70
33
71
5
72
0
3
Standard
53
0
210
0
220
0
230
1
100
AcDbAlignedDimension
13
199
23
-198
33
0
14
199
24
1
34
0
0
DIMENSION
5
304
100
AcDbEntity
8
0
6
ByLayer
62
256
370
-1
100
AcDbDimension
2
*D14
10
-50
20
146
30
0
11
-64
21
149.25
31
0
70
33
71
5
72
0
3
Standard
53
0
210
0
220
0
230
1
100
AcDbAlignedDimension
13
-78
23
142
33
0
14
-50
24
142
34
0
0
DIMENSION
5
305
100
AcDbEntity
8
0
6
ByLayer
62
256
370
-1
100
AcDbDimension
2
*D15
10
-199
20
-164
30
0
11
2.22044604925e-016
21
-160.75
31
0
70
33
71
5
3
Standard
53
0
210
0
220
0
230
1
100
AcDbAlignedDimension
13
199
23
-159
33
0
14
-199
24
-159
34
0
0
DIMENSION
5
306
100
AcDbEntity
8
0
6
ByLayer
62
256
370
-1
100
AcDbDimension
2
*D16
10
-199
20
-228
30
0
11
-90
21
-224.75
31
0
70
33
71
5
72
0
3
Standard
53
0
210
0
220
0
230
1
100
AcDbAlignedDimension
13
19
23
-198
33
0
14
-199
24
-198
34
0
0
DIMENSION
5
307
100
AcDbEntity
8
0
6
ByLayer
62
256
370
-1
100
AcDbDimension
2
*D17
10
-119
20
-218
30
0
11
-159
21
-214.75
31
0
70
33
71
5
72
0
3
Standard
53
0
210
0
220
0
230
1
100
AcDbAlignedDimension
13
-199
23
-198
33
0
14
-119
24
-198
34
0
0
DIMENSION
5
308
100
AcDbEntity
8
0
6
ByLayer
62
256
370
-1
100
AcDbDimension
2
*D18
10
-71
20
-198
30
0
11
-26
21
-194.75
31
0
70
33
71
5
72
0
3
Standard
53
0
210
0
220
0
230
1
100
AcDbAlignedDimension
13
19
23
-198
33
0
14
-71
24
-198
34
0
0
DIMENSION
5
309
100
AcDbEntity
8
0
6
ByLayer
62
256
370
-1
100
AcDbDimension
2
*D19
10
84
20
-198
30
0
11
51.5
21
-194.75
31
0
70
33
71
5
72
0
3
Standard
53
0
210
0
220
0
230
1
100
AcDbAlignedDimension
13
19
23
-198
33
0
14
84
24
-198
34
0
0
DIMENSION
5
30A
100
AcDbEntity
8
0
6
ByLayer
62
256
370
-1
100
AcDbDimension
2
*D20
10
119
20
-218
30
0
11
159
21
-214.75
31
0
70
33
71
5
72
0
3
Standard
53
0
210
0
220
0
230
1
100
AcDbAlignedDimension
13
199
23
-198
33
0
14
119
24
-198
34
0
0
DIMENSION
5
30B
100
AcDbEntity
8
0
6
ByLayer
62
256
370
-1
100
AcDbDimension
2
*D21
10
211
20
-139
30
0
11
207.75
21
-168.5
31
0
70
33
71
5
72
0
3
Standard
53
0
210
0
220
0
230
1
100
AcDbAlignedDimension
13
199
23
-198
33
0
14
199
24
-139
34
0
0
CIRCLE
5
30C
100
AcDbEntity
8
HOLES
6
ByLayer
62
256
370
-1
100
AcDbCircle
10
-3
20
42
40
1.6
0
CIRCLE
5
30D
100
AcDbEntity
8
HOLES
6
ByLayer
62
256
370
-1
100
AcDbCircle
10
3
20
42
40
1.6
0
CIRCLE
5
30E
100
AcDbEntity
8
HOLES
6
ByLayer
62
256
370
-1
100
AcDbCircle
10
-3
20
-8
40
1.6
0
CIRCLE
5
30F
100
AcDbEntity
8
HOLES
6
ByLayer
62
256
370
-1
100
AcDbCircle
10
3
20
-8
40
1.6
0
CIRCLE
5
310
100
AcDbEntity
8
HOLES
6
ByLayer
62
256
370
-1
100
AcDbCircle
10
-3
20
82
40
1.6
0
CIRCLE
5
311
100
AcDbEntity
8
HOLES
6
ByLayer
62
256
370
-1
100
AcDbCircle
10
3
20
82
40
1.6
0
LINE
5
312
100
AcDbEntity
8
GRAVIRANJE
6
ByLayer
62
256
370
-1
100
AcDbLine
10
0
20
82
11
0
21
-8
0
CIRCLE
5
313
100
AcDbEntity
8
HOLES
6
ByLayer
62
256
370
-1
100
AcDbCircle
10
-3
20
12
40
1.6
0
CIRCLE
5
314
100
AcDbEntity
8
HOLES
6
ByLayer
62
256
370
-1
100
AcDbCircle
10
3
20
12
40
1.6
0
ENDSEC
0
SECTION
2
OBJECTS
0
DICTIONARY
5
C
330
0
100
AcDbDictionary
281
1
3
ACAD_GROUP
350
D
0
DICTIONARY
5
D
330
C
100
AcDbDictionary
281
1
0
ENDSEC
0
EOF
