999
dxfrw 0.6.3
  0
SECTION
  2
HEADER
  9
$ACADVER
  1
AC1021
  9
$DWGCODEPAGE
  3
ANSI_1250
  9
$INSBASE
 10
0
 20
0
 30
0
  9
$EXTMIN
 10
-123.000286451
 20
-286.999316193
 30
0
  9
$EXTMAX
 10
123.002171488
 20
109.967099973
 30
0
  9
$LIMMIN
 10
0
 20
0
  9
$LIMMAX
 10
420
 20
297
  9
$ORTHOMODE
 70
    0
  9
$REGENMODE
 70
    1
  9
$FILLMODE
 70
    1
  9
$QTEXTMODE
 70
    0
  9
$MIRRTEXT
 70
    0
  9
$LTSCALE
 40
1
  9
$ATTMODE
 70
    0
  9
$TEXTSIZE
 40
2.5
  9
$TRACEWID
 40
15.68
  9
$TEXTSTYLE
  7
STANDARD
  9
$CLAYER
  8
IZREZ
  9
$CELTYPE
  6
BYLAYER
  9
$CECOLOR
 62
  256
  9
$CELTSCALE
 40
1
  9
$DISPSILH
 70
    0
  9
$DIMSCALE
 40
1
  9
$DIMASZ
 40
2.5
  9
$DIMEXO
 40
0.625
  9
$DIMDLI
 40
3.75
  9
$DIMRND
 40
0
  9
$DIMDLE
 40
0
  9
$DIMEXE
 40
1.25
  9
$DIMTP
 40
0
  9
$DIMTM
 40
0
  9
$DIMTXT
 40
2.5
  9
$DIMCEN
 40
2.5
  9
$DIMTSZ
 40
0
  9
$DIMTOL
 70
    0
  9
$DIMLIM
 70
    0
  9
$DIMTIH
 70
    0
  9
$DIMTOH
 70
    0
  9
$DIMSE1
 70
    0
  9
$DIMSE2
 70
    0
  9
$DIMTAD
 70
    1
  9
$DIMZIN
 70
    8
  9
$DIMBLK
  1

  9
$DIMASO
 70
    1
  9
$DIMSHO
 70
    1
  9
$DIMPOST
  1

  9
$DIMAPOST
  1

  9
$DIMALT
 70
    0
  9
$DIMALTD
 70
    3
  9
$DIMALTF
 40
0.03937
  9
$DIMLFAC
 40
1
  9
$DIMTOFL
 70
    1
  9
$DIMTVP
 40
0
  9
$DIMTIX
 70
    0
  9
$DIMSOXD
 70
    0
  9
$DIMSAH
 70
    0
  9
$DIMBLK1
  1

  9
$DIMBLK2
  1

  9
$DIMSTYLE
  2
ISO-25
  9
$DIMCLRD
 70
    0
  9
$DIMCLRE
 70
    0
  9
$DIMCLRT
 70
    0
  9
$DIMTFAC
 40
1
  9
$DIMGAP
 40
0.625
  9
$DIMJUST
 70
    0
  9
$DIMSD1
 70
    0
  9
$DIMSD2
 70
    0
  9
$DIMTOLJ
 70
    0
  9
$DIMTZIN
 70
    8
  9
$DIMALTZ
 70
    0
  9
$DIMALTTZ
 70
    0
  9
$DIMUPT
 70
    0
  9
$DIMDEC
 70
    2
  9
$DIMTDEC
 70
    2
  9
$DIMALTU
 70
    2
  9
$DIMALTTD
 70
    3
  9
$DIMTXSTY
  7
STANDARD
  9
$DIMAUNIT
 70
    0
  9
$DIMADEC
 70
    0
  9
$DIMALTRND
 40
0
  9
$DIMAZIN
 70
    0
  9
$DIMDSEP
 70
   44
  9
$DIMATFIT
 70
    3
  9
$DIMFRAC
 70
    0
  9
$DIMLDRBLK
  1
STANDARD
  9
$DIMLUNIT
 70
    2
  9
$DIMLWD
 70
   -2
  9
$DIMLWE
 70
   -2
  9
$DIMTMOVE
 70
    0
  9
$DIMFXL
 40
1
  9
$DIMFXLON
 70
    0
  9
$DIMJOGANG
 40
0.7854
  9
$DIMTFILL
 70
    0
  9
$DIMTFILLCLR
 70
    0
  9
$DIMARCSYM
 70
    0
  9
$DIMLTYPE
  6

  9
$DIMLTEX1
  6

  9
$DIMLTEX2
  6

  9
$LUNITS
 70
    2
  9
$LUPREC
 70
    4
  9
$SKETCHINC
 40
1
  9
$FILLETRAD
 40
0
  9
$AUNITS
 70
    0
  9
$AUPREC
 70
    0
  9
$MENU
  1
.
  9
$ELEVATION
 40
0
  9
$PELEVATION
 40
0
  9
$THICKNESS
 40
0
  9
$LIMCHECK
 70
    0
  9
$CHAMFERA
 40
0
  9
$CHAMFERB
 40
0
  9
$CHAMFERC
 40
0
  9
$CHAMFERD
 40
0
  9
$SKPOLY
 70
    0
  9
$USRTIMER
 70
    1
  9
$ANGBASE
 50
0
  9
$ANGDIR
 70
    0
  9
$PDMODE
 70
   34
  9
$PDSIZE
 40
0
  9
$PLINEWID
 40
0
  9
$SPLFRAME
 70
    0
  9
$SPLINETYPE
 70
    2
  9
$SPLINESEGS
 70
    8
  9
$HANDSEED
  5
20000
  9
$SURFTAB1
 70
    6
  9
$SURFTAB2
 70
    6
  9
$SURFTYPE
 70
    6
  9
$SURFU
 70
    6
  9
$SURFV
 70
    6
  9
$UCSBASE
  2

  9
$UCSNAME
  2

  9
$UCSORG
 10
0
 20
0
 30
0
  9
$UCSXDIR
 10
1
 20
0
 30
0
  9
$UCSYDIR
 10
0
 20
1
 30
0
  9
$UCSORTHOREF
  2

  9
$UCSORTHOVIEW
 70
    0
  9
$UCSORGTOP
 10
0
 20
0
 30
0
  9
$UCSORGBOTTOM
 10
0
 20
0
 30
0
  9
$UCSORGLEFT
 10
0
 20
0
 30
0
  9
$UCSORGRIGHT
 10
0
 20
0
 30
0
  9
$UCSORGFRONT
 10
0
 20
0
 30
0
  9
$UCSORGBACK
 10
0
 20
0
 30
0
  9
$PUCSBASE
  2

  9
$PUCSNAME
  2

  9
$PUCSORG
 10
0
 20
0
 30
0
  9
$PUCSXDIR
 10
1
 20
0
 30
0
  9
$PUCSYDIR
 10
0
 20
1
 30
0
  9
$PUCSORTHOREF
  2

  9
$PUCSORTHOVIEW
 70
    0
  9
$PUCSORGTOP
 10
0
 20
0
 30
0
  9
$PUCSORGBOTTOM
 10
0
 20
0
 30
0
  9
$PUCSORGLEFT
 10
0
 20
0
 30
0
  9
$PUCSORGRIGHT
 10
0
 20
0
 30
0
  9
$PUCSORGFRONT
 10
0
 20
0
 30
0
  9
$PUCSORGBACK
 10
0
 20
0
 30
0
  9
$USERI1
 70
    0
  9
$USERI2
 70
    0
  9
$USERI3
 70
    0
  9
$USERI4
 70
    0
  9
$USERI5
 70
    0
  9
$USERR1
 40
0
  9
$USERR2
 40
0
  9
$USERR3
 40
0
  9
$USERR4
 40
0
  9
$USERR5
 40
0
  9
$WORLDVIEW
 70
    1
  9
$SHADEDGE
 70
    3
  9
$SHADEDIF
 70
   70
  9
$TILEMODE
 70
    1
  9
$MAXACTVP
 70
   64
  9
$PINSBASE
 10
0
 20
0
 30
0
  9
$PLIMCHECK
 70
    0
  9
$PEXTMIN
 10
0
 20
0
 30
0
  9
$PEXTMAX
 10
0
 20
0
 30
0
  9
$GRIDMODE
 70
    1
  9
$SNAPSTYLE
 70
    0
  9
$PLIMMIN
 10
0
 20
0
  9
$PLIMMAX
 10
0
 20
0
  9
$UNITMODE
 70
    0
  9
$VISRETAIN
 70
    1
  9
$PLINEGEN
 70
    0
  9
$PSLTSCALE
 70
    1
  9
$TREEDEPTH
 70
 3020
  9
$CMLSTYLE
  2
Standard
  9
$CMLJUST
 70
    0
  9
$CMLSCALE
 40
20
  9
$PROXYGRAPHICS
 70
    1
  9
$MEASUREMENT
 70
    1
  9
$CELWEIGHT
370
   -1
  9
$ENDCAPS
280
    0
  9
$JOINSTYLE
280
    0
  9
$LWDISPLAY
290
    0
  9
$INSUNITS
 70
    4
  9
$HYPERLINKBASE
  1

  9
$STYLESHEET
  1

  9
$XEDIT
290
    1
  9
$CEPSNTYPE
380
    0
  9
$PSTYLEMODE
290
    1
  9
$EXTNAMES
290
    1
  9
$PSVPSCALE
 40
1
  9
$OLESTARTUP
290
    0
  9
$SORTENTS
280
  127
  9
$INDEXCTL
280
    0
  9
$HIDETEXT
280
    1
  9
$XCLIPFRAME
290
    0
  9
$HALOGAP
280
    0
  9
$OBSCOLOR
 70
  257
  9
$OBSLTYPE
280
    0
  9
$INTERSECTIONDISPLAY
280
    0
  9
$INTERSECTIONCOLOR
 70
  257
  9
$DIMASSOC
280
    1
  9
$PROJECTNAME
  1

  9
$CAMERADISPLAY
290
    0
  9
$LENSLENGTH
 40
50
  9
$CAMERAHEIGHT
 40
0
  9
$STEPSPERSEC
 40
2
  9
$STEPSIZE
 40
50
  9
$3DDWFPREC
 40
2
  9
$PSOLWIDTH
 40
5
  9
$PSOLHEIGHT
 40
80
  9
$LOFTANG1
 40
1.570796326794897
  9
$LOFTANG2
 40
1.570796326794897
  9
$LOFTMAG1
 40
0
  9
$LOFTMAG2
 40
0
  9
$LOFTPARAM
 70
    7
  9
$LOFTNORMALS
280
    1
  9
$LATITUDE
 40
1
  9
$LONGITUDE
 40
1
  9
$NORTHDIRECTION
 40
0
  9
$TIMEZONE
 70
-8000
  9
$LIGHTGLYPHDISPLAY
280
    1
  9
$TILEMODELIGHTSYNCH
280
    1
  9
$SOLIDHIST
280
    1
  9
$SHOWHIST
280
    1
  9
$DWFFRAME
280
    2
  9
$DGNFRAME
280
    0
  9
$REALWORLDSCALE
290
    1
  9
$INTERFERECOLOR
 62
    1
  9
$CSHADOW
280
    0
  9
$SHADOWPLANELOCATION
 40
0
  0
ENDSEC
  0
SECTION
  2
CLASSES
  0
ENDSEC
  0
SECTION
  2
TABLES
  0
TABLE
  2
VPORT
  5
8
330
0
100
AcDbSymbolTable
 70
    1
  0
VPORT
  5
31
330
2
100
AcDbSymbolTableRecord
100
AcDbViewportTableRecord
  2
*ACTIVE
 70
    0
 10
0
 20
0
 11
1
 21
1
 12
-48.53070210910215
 22
-29.3758384061336
 13
0
 23
0
 14
10
 24
10
 15
10
 25
10
 16
0
 26
0
 36
1
 17
0
 27
0
 37
0
 40
8.328201609986328
 41
1.872727272727273
 42
50
 43
0
 44
0
 50
0
 51
0
 71
    0
 72
  100
 73
    1
 74
    3
 75
    0
 76
    1
 77
    0
 78
    0
281
    0
 65
    1
110
0
120
0
130
0
111
1
121
0
131
0
112
0
122
1
132
0
 79
    0
146
0
348
10020
 60
    7
 61
    5
292
1
282
    1
141
0
142
0
 63
  250
421
3358443
  0
ENDTAB
  0
TABLE
  2
LTYPE
  5
5
330
0
100
AcDbSymbolTable
 70
    4
  0
LTYPE
  5
14
330
5
100
AcDbSymbolTableRecord
100
AcDbLinetypeTableRecord
  2
ByBlock
 70
    0
  3

 72
   65
 73
    0
 40
0
  0
LTYPE
  5
15
330
5
100
AcDbSymbolTableRecord
100
AcDbLinetypeTableRecord
  2
ByLayer
 70
    0
  3

 72
   65
 73
    0
 40
0
  0
LTYPE
  5
16
330
5
100
AcDbSymbolTableRecord
100
AcDbLinetypeTableRecord
  2
Continuous
 70
    0
  3
Solid line
 72
   65
 73
    0
 40
0
  0
LTYPE
  5
32
330
5
100
AcDbSymbolTableRecord
100
AcDbLinetypeTableRecord
  2
DOT
 70
    0
  3
Dot . . . . . . . . . . . . . . . . . . . . . .
 72
   65
 73
    2
 40
6.35
 49
0
 74
    0
 49
-6.35
 74
    0
  0
LTYPE
  5
33
330
5
100
AcDbSymbolTableRecord
100
AcDbLinetypeTableRecord
  2
DOTTINY
 70
    0
  3
Dot (.15x) .....................................
 72
   65
 73
    2
 40
0.9525
 49
0
 74
    0
 49
-0.9525
 74
    0
  0
LTYPE
  5
34
330
5
100
AcDbSymbolTableRecord
100
AcDbLinetypeTableRecord
  2
DOT2
 70
    0
  3
Dot (.5x) .....................................
 72
   65
 73
    2
 40
3.175
 49
0
 74
    0
 49
-3.175
 74
    0
  0
LTYPE
  5
35
330
5
100
AcDbSymbolTableRecord
100
AcDbLinetypeTableRecord
  2
DOTX2
 70
    0
  3
Dot (2x) .  .  .  .  .  .  .  .  .  .  .  .  .
 72
   65
 73
    2
 40
12.7
 49
0
 74
    0
 49
-12.7
 74
    0
  0
LTYPE
  5
36
330
5
100
AcDbSymbolTableRecord
100
AcDbLinetypeTableRecord
  2
DASHED
 70
    0
  3
Dashed _ _ _ _ _ _ _ _ _ _ _ _ _ _ _ _ _
 72
   65
 73
    2
 40
19.05
 49
12.7
 74
    0
 49
-6.35
 74
    0
  0
LTYPE
  5
37
330
5
100
AcDbSymbolTableRecord
100
AcDbLinetypeTableRecord
  2
DASHEDTINY
 70
    0
  3
Dashed (.15x) _ _ _ _ _ _ _ _ _ _ _ _ _ _ _ _ _
 72
   65
 73
    2
 40
2.8575
 49
1.905
 74
    0
 49
-0.9525
 74
    0
  0
LTYPE
  5
38
330
5
100
AcDbSymbolTableRecord
100
AcDbLinetypeTableRecord
  2
DASHED2
 70
    0
  3
Dashed (.5x) _ _ _ _ _ _ _ _ _ _ _ _ _ _ _ _ _
 72
   65
 73
    2
 40
9.524999999999999
 49
6.35
 74
    0
 49
-3.175
 74
    0
  0
LTYPE
  5
39
330
5
100
AcDbSymbolTableRecord
100
AcDbLinetypeTableRecord
  2
DASHEDX2
 70
    0
  3
Dashed (2x) ____  ____  ____  ____  ____  ___
 72
   65
 73
    2
 40
38.09999999999999
 49
25.4
 74
    0
 49
-12.7
 74
    0
  0
LTYPE
  5
3A
330
5
100
AcDbSymbolTableRecord
100
AcDbLinetypeTableRecord
  2
DASHDOT
 70
    0
  3
Dash dot __ . __ . __ . __ . __ . __ . __ . __
 72
   65
 73
    4
 40
25.4
 49
12.7
 74
    0
 49
-6.35
 74
    0
 49
0
 74
    0
 49
-6.35
 74
    0
  0
LTYPE
  5
3B
330
5
100
AcDbSymbolTableRecord
100
AcDbLinetypeTableRecord
  2
DASHDOTTINY
 70
    0
  3
Dash dot (.15x) _._._._._._._._._._._._._._._.
 72
   65
 73
    4
 40
3.81
 49
1.905
 74
    0
 49
-0.9525
 74
    0
 49
0
 74
    0
 49
-0.9525
 74
    0
  0
LTYPE
  5
3C
330
5
100
AcDbSymbolTableRecord
100
AcDbLinetypeTableRecord
  2
DASHDOT2
 70
    0
  3
Dash dot (.5x) _._._._._._._._._._._._._._._.
 72
   65
 73
    4
 40
12.7
 49
6.35
 74
    0
 49
-3.175
 74
    0
 49
0
 74
    0
 49
-3.175
 74
    0
  0
LTYPE
  5
3D
330
5
100
AcDbSymbolTableRecord
100
AcDbLinetypeTableRecord
  2
DASHDOTX2
 70
    0
  3
Dash dot (2x) ____  .  ____  .  ____  .  ___
 72
   65
 73
    4
 40
50.8
 49
25.4
 74
    0
 49
-12.7
 74
    0
 49
0
 74
    0
 49
-12.7
 74
    0
  0
LTYPE
  5
3E
330
5
100
AcDbSymbolTableRecord
100
AcDbLinetypeTableRecord
  2
DIVIDE
 70
    0
  3
Divide ____ . . ____ . . ____ . . ____ . . ____
 72
   65
 73
    6
 40
31.75
 49
12.7
 74
    0
 49
-6.35
 74
    0
 49
0
 74
    0
 49
-6.35
 74
    0
 49
0
 74
    0
 49
-6.35
 74
    0
  0
LTYPE
  5
3F
330
5
100
AcDbSymbolTableRecord
100
AcDbLinetypeTableRecord
  2
DIVIDETINY
 70
    0
  3
Divide (.15x) __..__..__..__..__..__..__..__.._
 72
   65
 73
    6
 40
4.7625
 49
1.905
 74
    0
 49
-0.9525
 74
    0
 49
0
 74
    0
 49
-0.9525
 74
    0
 49
0
 74
    0
 49
-0.9525
 74
    0
  0
LTYPE
  5
40
330
5
100
AcDbSymbolTableRecord
100
AcDbLinetypeTableRecord
  2
DIVIDE2
 70
    0
  3
Divide (.5x) __..__..__..__..__..__..__..__.._
 72
   65
 73
    6
 40
15.875
 49
6.35
 74
    0
 49
-3.175
 74
    0
 49
0
 74
    0
 49
-3.175
 74
    0
 49
0
 74
    0
 49
-3.175
 74
    0
  0
LTYPE
  5
41
330
5
100
AcDbSymbolTableRecord
100
AcDbLinetypeTableRecord
  2
DIVIDEX2
 70
    0
  3
Divide (2x) ________  .  .  ________  .  .  _
 72
   65
 73
    6
 40
63.5
 49
25.4
 74
    0
 49
-12.7
 74
    0
 49
0
 74
    0
 49
-12.7
 74
    0
 49
0
 74
    0
 49
-12.7
 74
    0
  0
LTYPE
  5
42
330
5
100
AcDbSymbolTableRecord
100
AcDbLinetypeTableRecord
  2
BORDER
 70
    0
  3
Border __ __ . __ __ . __ __ . __ __ . __ __ .
 72
   65
 73
    6
 40
44.45
 49
12.7
 74
    0
 49
-6.35
 74
    0
 49
12.7
 74
    0
 49
-6.35
 74
    0
 49
0
 74
    0
 49
-6.35
 74
    0
  0
LTYPE
  5
43
330
5
100
AcDbSymbolTableRecord
100
AcDbLinetypeTableRecord
  2
BORDERTINY
 70
    0
  3
Border (.15x) __.__.__.__.__.__.__.__.__.__.__.
 72
   65
 73
    6
 40
6.6675
 49
1.905
 74
    0
 49
-0.9525
 74
    0
 49
1.905
 74
    0
 49
-0.9525
 74
    0
 49
0
 74
    0
 49
-0.9525
 74
    0
  0
LTYPE
  5
44
330
5
100
AcDbSymbolTableRecord
100
AcDbLinetypeTableRecord
  2
BORDER2
 70
    0
  3
Border (.5x) __.__.__.__.__.__.__.__.__.__.__.
 72
   65
 73
    6
 40
22.225
 49
6.35
 74
    0
 49
-3.175
 74
    0
 49
6.35
 74
    0
 49
-3.175
 74
    0
 49
0
 74
    0
 49
-3.175
 74
    0
  0
LTYPE
  5
45
330
5
100
AcDbSymbolTableRecord
100
AcDbLinetypeTableRecord
  2
BORDERX2
 70
    0
  3
Border (2x) ____  ____  .  ____  ____  .  ___
 72
   65
 73
    6
 40
88.89999999999999
 49
25.4
 74
    0
 49
-12.7
 74
    0
 49
25.4
 74
    0
 49
-12.7
 74
    0
 49
0
 74
    0
 49
-12.7
 74
    0
  0
LTYPE
  5
46
330
5
100
AcDbSymbolTableRecord
100
AcDbLinetypeTableRecord
  2
CENTER
 70
    0
  3
Center ____ _ ____ _ ____ _ ____ _ ____ _ ____
 72
   65
 73
    4
 40
50.8
 49
31.75
 74
    0
 49
-6.35
 74
    0
 49
6.35
 74
    0
 49
-6.35
 74
    0
  0
LTYPE
  5
47
330
5
100
AcDbSymbolTableRecord
100
AcDbLinetypeTableRecord
  2
CENTERTINY
 70
    0
  3
Center (.15x) ___ _ ___ _ ___ _ ___ _ ___ _ ___
 72
   65
 73
    4
 40
7.619999999999999
 49
4.7625
 74
    0
 49
-0.9525
 74
    0
 49
0.9525
 74
    0
 49
-0.9525
 74
    0
  0
LTYPE
  5
48
330
5
100
AcDbSymbolTableRecord
100
AcDbLinetypeTableRecord
  2
CENTER2
 70
    0
  3
Center (.5x) ___ _ ___ _ ___ _ ___ _ ___ _ ___
 72
   65
 73
    4
 40
28.575
 49
19.05
 74
    0
 49
-3.175
 74
    0
 49
3.175
 74
    0
 49
-3.175
 74
    0
  0
LTYPE
  5
49
330
5
100
AcDbSymbolTableRecord
100
AcDbLinetypeTableRecord
  2
CENTERX2
 70
    0
  3
Center (2x) ________  __  ________  __  _____
 72
   65
 73
    4
 40
101.6
 49
63.5
 74
    0
 49
-12.7
 74
    0
 49
12.7
 74
    0
 49
-12.7
 74
    0
  0
ENDTAB
  0
TABLE
  2
LAYER
  5
2
330
0
100
AcDbSymbolTable
 70
    1
  0
LAYER
  5
10
330
2
100
AcDbSymbolTableRecord
100
AcDbLayerTableRecord
  2
0
 70
    0
 62
    2
  6
CONTINUOUS
370
   -3
390
F
  0
LAYER
  5
4A
330
2
100
AcDbSymbolTableRecord
100
AcDbLayerTableRecord
  2
HOLES
 70
    0
 62
    5
  6
CONTINUOUS
370
    0
390
F
  0
LAYER
  5
4B
330
2
100
AcDbSymbolTableRecord
100
AcDbLayerTableRecord
  2
IZREZ
 70
    0
 62
    7
  6
CONTINUOUS
370
    0
390
F
  0
ENDTAB
  0
TABLE
  2
STYLE
  5
3
330
0
100
AcDbSymbolTable
 70
    3
  0
STYLE
  5
4C
330
2
100
AcDbSymbolTableRecord
100
AcDbTextStyleTableRecord
  2
Standard
 70
    0
 40
0
 41
1
 50
0
 71
    0
 42
1
  3
txt
  4

  0
ENDTAB
  0
TABLE
  2
VIEW
  5
6
330
0
100
AcDbSymbolTable
 70
    0
  0
ENDTAB
  0
TABLE
  2
UCS
  5
7
330
0
100
AcDbSymbolTable
 70
    0
  0
ENDTAB
  0
TABLE
  2
APPID
  5
9
330
0
100
AcDbSymbolTable
 70
    1
  0
APPID
  5
12
330
9
100
AcDbSymbolTableRecord
100
AcDbRegAppTableRecord
  2
ACAD
 70
    0
  0
APPID
  5
4D
330
9
100
AcDbSymbolTableRecord
100
AcDbRegAppTableRecord
  2
LibreCad
 70
    0
  0
ENDTAB
  0
TABLE
  2
DIMSTYLE
  5
A
330
0
100
AcDbSymbolTable
 70
    1
100
AcDbDimStyleTable
 71
    1
  0
DIMSTYLE
105
4E
330
A
100
AcDbSymbolTableRecord
100
AcDbDimStyleTableRecord
  2
Standard
 70
    0
 40
1
 41
2.5
 42
0.625
 43
0.38
 44
1.25
 45
0
 46
0
 47
0
 48
0
 49
1
140
2.5
141
0.09
142
0
143
25.4
144
1
145
0
146
1
147
0.625
148
0
 71
    0
 72
    0
 73
    0
 74
    1
 75
    0
 76
    0
 77
    0
 78
    1
 79
    0
170
    0
171
    2
172
    0
173
    0
174
    0
175
    0
176
    0
177
    0
178
    0
179
    0
271
    2
272
    4
273
    2
274
    2
275
    0
276
    0
277
    2
278
    0
279
    0
280
    0
281
    0
282
    0
283
    1
284
    0
285
    0
286
    0
288
    0
289
    3
340
standard
341

371
   -2
372
   -2
  0
ENDTAB
  0
TABLE
  2
BLOCK_RECORD
  5
1
330
0
100
AcDbSymbolTable
 70
    2
  0
BLOCK_RECORD
  5
1F
330
1
100
AcDbSymbolTableRecord
100
AcDbBlockTableRecord
  2
*Model_Space
 70
    0
280
    1
281
    0
  0
BLOCK_RECORD
  5
1E
330
1
100
AcDbSymbolTableRecord
100
AcDbBlockTableRecord
  2
*Paper_Space
 70
    0
280
    1
281
    0
  0
ENDTAB
  0
ENDSEC
  0
SECTION
  2
BLOCKS
  0
BLOCK
  5
20
330
1F
100
AcDbEntity
  8
0
100
AcDbBlockBegin
  2
*Model_Space
 70
    0
 10
0
 20
0
 30
0
  3
*Model_Space
  1

  0
ENDBLK
  5
21
330
1F
100
AcDbEntity
  8
0
100
AcDbBlockEnd
  0
BLOCK
  5
1C
330
1B
100
AcDbEntity
  8
0
100
AcDbBlockBegin
  2
*Paper_Space
 70
    0
 10
0
 20
0
 30
0
  3
*Paper_Space
  1

  0
ENDBLK
  5
1D
330
1F
100
AcDbEntity
  8
0
100
AcDbBlockEnd
  0
ENDSEC
  0
SECTION
  2
ENTITIES
  0
POINT
  5
4F
100
AcDbEntity
  8
0
  6
ByLayer
 62
  256
370
   -1
100
AcDbPoint
 10
-0.000286450999965
 20
0.0006838069999729999
  0
POINT
  5
50
100
AcDbEntity
  8
0
  6
ByLayer
 62
  256
370
   -1
100
AcDbPoint
 10
-0.0002864509999643877
 20
-9.999316193000027
  0
POINT
  5
51
100
AcDbEntity
  8
0
  6
ByLayer
 62
  256
370
   -1
100
AcDbPoint
 10
-0.0002864509999637754
 20
-19.99931619300003
  0
POINT
  5
52
100
AcDbEntity
  8
0
  6
ByLayer
 62
  256
370
   -1
100
AcDbPoint
 10
-0.000286450999963163
 20
-29.99931619300003
  0
CIRCLE
  5
53
100
AcDbEntity
  8
HOLES
  6
ByLayer
 62
  256
370
   -1
100
AcDbCircle
 10
0.000198678000004
 20
0.000485128999969
 40
2.25
  0
POINT
  5
54
100
AcDbEntity
  8
0
  6
ByLayer
 62
  256
370
   -1
100
AcDbPoint
 10
-9.985120321999965
 20
-0.02559787100002761
  0
POINT
  5
55
100
AcDbEntity
  8
0
  6
ByLayer
 62
  256
370
   -1
100
AcDbPoint
 10
10.01487967800004
 20
-0.02559787100002638
  0
CIRCLE
  5
56
100
AcDbEntity
  8
HOLES
  6
ByLayer
 62
  256
370
   -1
100
AcDbCircle
 10
10.01519867800003
 20
-0.02551487100002638
 40
1.5
  0
CIRCLE
  5
57
100
AcDbEntity
  8
HOLES
  6
ByLayer
 62
  256
370
   -1
100
AcDbCircle
 10
-9.984801321999965
 20
-0.02551487100002761
 40
1.5
  0
CIRCLE
  5
58
100
AcDbEntity
  8
HOLES
  6
ByLayer
 62
  256
370
   -1
100
AcDbCircle
 10
-0.0002864509999643877
 20
-9.999316193000027
 40
2.25
  0
CIRCLE
  5
59
100
AcDbEntity
  8
HOLES
  6
ByLayer
 62
  256
370
   -1
100
AcDbCircle
 10
10.01471354900004
 20
-10.02531619300003
 40
1.5
  0
CIRCLE
  5
5A
100
AcDbEntity
  8
HOLES
  6
ByLayer
 62
  256
370
   -1
100
AcDbCircle
 10
-9.985286450999965
 20
-10.02531619300003
 40
1.5
  0
CIRCLE
  5
5B
100
AcDbEntity
  8
HOLES
  6
ByLayer
 62
  256
370
   -1
100
AcDbCircle
 10
-0.0002864509999637754
 20
-19.99931619300003
 40
2.25
  0
CIRCLE
  5
5C
100
AcDbEntity
  8
HOLES
  6
ByLayer
 62
  256
370
   -1
100
AcDbCircle
 10
10.01471354900004
 20
-20.02531619300003
 40
1.5
  0
CIRCLE
  5
5D
100
AcDbEntity
  8
HOLES
  6
ByLayer
 62
  256
370
   -1
100
AcDbCircle
 10
-9.985286450999963
 20
-20.02531619300003
 40
1.5
  0
CIRCLE
  5
5E
100
AcDbEntity
  8
HOLES
  6
ByLayer
 62
  256
370
   -1
100
AcDbCircle
 10
-0.000286450999963163
 20
-29.99931619300003
 40
2.25
  0
CIRCLE
  5
5F
100
AcDbEntity
  8
HOLES
  6
ByLayer
 62
  256
370
   -1
100
AcDbCircle
 10
10.01471354900004
 20
-30.02531619300003
 40
1.5
  0
CIRCLE
  5
60
100
AcDbEntity
  8
HOLES
  6
ByLayer
 62
  256
370
   -1
100
AcDbCircle
 10
-9.985286450999963
 20
-30.02531619300003
 40
1.5
  0
LINE
  5
61
100
AcDbEntity
  8
0
  6
ByLayer
 62
  256
370
   -1
100
AcDbLine
 10
-56.00028645099995
 20
-279.999316193
 11
-56.00028645099995
 21
-286.999316193
  0
LINE
  5
62
100
AcDbEntity
  8
0
  6
ByLayer
 62
  256
370
   -1
100
AcDbLine
 10
-58.00028645099995
 20
-279.999316193
 11
-58.00028645099995
 21
-286.999316193
  0
LINE
  5
63
100
AcDbEntity
  8
0
  6
ByLayer
 62
  256
370
   -1
100
AcDbLine
 10
-60.00028645099995
 20
-279.999316193
 11
-60.00028645099995
 21
-286.999316193
  0
LINE
  5
64
100
AcDbEntity
  8
0
  6
ByLayer
 62
  256
370
   -1
100
AcDbLine
 10
-54.00028645099995
 20
-285.999316193
 11
-58.00028645099995
 21
-285.999316193
  0
LWPOLYLINE
  5
65
100
AcDbEntity
  8
IZREZ
  6
ByLayer
 62
  256
370
   -1
100
AcDbPolyline
 90
  171
 70
    0
 43
0
 10
73.00358567800005
 20
-160.029384871
 10
73.00358567800004
 20
-107.446295871
 10
66.03834067800004
 20
-107.446295871
 10
66.03834067800004
 20
-108.846484871
 10
63.83771367800004
 20
-108.846484871
 10
63.83771367800004
 20
-107.446295871
 10
61.09558567800004
 20
-107.446295871
 10
61.09558567800004
 20
-104.645607871
 10
63.83771367800004
 20
-104.645607871
 10
63.83771367800004
 20
-103.246123871
 10
66.03834067800004
 20
-103.246123871
 10
66.03834067800004
 20
-104.645607871
 10
73.00358567800004
 20
-104.645607871
 10
73.00358567800004
 20
-99.02901887100003
 10
67.40147467800003
 20
-99.02901887100003
 10
67.40147467800003
 20
-51.51586287100002
 10
73.00358567800004
 20
-51.51586287100002
 10
73.00358567800004
 20
-42.91618487100002
 10
66.03834067800004
 20
-42.91618487100002
 10
66.03834067800004
 20
-44.31564087100002
 10
63.83771367800004
 20
-44.31564087100002
 10
63.83771367800004
 20
-42.91618487100002
 10
61.09558567800003
 20
-42.91618487100002
 10
61.09558567800003
 20
-40.11549687100002
 10
63.83771367800004
 20
-40.11549687100002
 10
63.83771367800004
 20
-38.71601287100002
 10
66.03834067800004
 20
-38.71601287100002
 10
66.03834067800004
 20
-40.11549687100002
 10
73.00358567800004
 20
-40.11549687100002
 10
73.00358567800004
 20
-31.51652387100002
 10
67.40147467800003
 20
-31.51652387100002
 10
67.40147467800003
 20
15.99699812899998
 10
73.00358567800004
 20
15.99699812899998
 10
73.00358567800004
 20
24.61395412899998
 10
66.03834067800004
 20
24.61395412899998
 10
66.03834067800004
 20
23.21447012899998
 10
63.83771367800004
 20
23.21447012899998
 10
63.83771367800004
 20
24.61395412899998
 10
61.09558567800003
 20
24.61395412899998
 10
61.09558567800003
 20
27.41467112899998
 10
63.83771367800004
 20
27.41467112899998
 10
63.83771367800004
 20
28.81483212899998
 10
66.03834067800004
 20
28.81483212899998
 10
66.03834067800004
 20
27.41467112899998
 10
73.00395267800003
 20
27.41467112899998
 10
73.00395267800003
 20
35.99702012899998
 10
67.40147467800003
 20
35.99702012899998
 10
67.40147467800003
 20
69.91518712899997
 10
73.00183567800003
 20
69.91518712899997
 10
73.00155367800004
 20
78.49757112899998
 10
66.03664767800004
 20
78.49757112899998
 10
66.03664767800004
 20
77.09738212899997
 10
63.83672567800003
 20
77.09738212899997
 10
63.83672567800003
 20
78.49757112899998
 10
61.09389267800002
 20
78.49757112899998
 10
61.09389267800002
 20
81.29862612899997
 10
63.83743067800003
 20
81.29862612899997
 10
63.83743067800003
 20
82.69774312899997
 10
66.03735367800003
 20
82.69774312899997
 10
66.03735367800003
 20
81.29862612899997
 10
73.00225867800003
 20
81.29862612899997
 10
73.00225867800003
 20
89.91520912899998
 10
67.40147467800003
 20
89.91520912899998
 10
67.40147467800003
 20
109.964920129
 10
-67.39752080079997
 20
109.967099973
 10
-67.39816925149997
 20
89.91738898399997
 10
-72.99895324859996
 20
89.91757012539998
 10
-72.99923192739996
 20
81.30098712989998
 10
-66.03432693099997
 20
81.30076186989997
 10
-66.03428168049996
 20
82.69987886919998
 10
-63.83435868169997
 20
82.69980771889998
 10
-63.83440393209997
 20
81.30069071969997
 10
-61.09086593359997
 20
81.30060198769998
 10
-61.09095652569997
 20
78.49954698919997
 10
-63.83378952429997
 20
78.49963569829997
 10
-63.83383480939997
 20
77.09944669909997
 10
-66.03375680819997
 20
77.09951784929997
 10
-66.03371152309997
 20
78.49970684849997
 10
-72.99861751949996
 20
78.49993210849998
 10
-72.99917709219997
 20
69.91754812209997
 10
-67.39881609509996
 20
69.91736699439997
 10
-67.39991308149996
 20
35.99920001219996
 10
-73.00239107859997
 20
35.99938120839997
 10
-73.00266865019996
 20
27.41703221279997
 10
-66.03705665379997
 20
27.41680692999997
 10
-66.03701136959997
 20
28.81696792929997
 10
-63.83638437079996
 20
28.81689675629997
 10
-63.83642965499997
 20
27.41673575699997
 10
-61.09430165639996
 20
27.41664707069997
 10
-61.09439223759996
 20
24.61593007209997
 10
-63.83652023619997
 20
24.61601875849997
 10
-63.83656549849997
 20
23.21653475919997
 10
-66.03719249729997
 20
23.21660593219997
 10
-66.03714723499996
 20
24.61608993149997
 10
-73.00239223139997
 20
24.61631520239997
 10
-73.00267092219997
 20
15.99935920689997
 10
-67.40055992519997
 20
15.99917802259997
 10
-67.40209661449997
 20
-31.51434395250003
 10
-73.00420761159997
 20
-31.51416276820003
 10
-73.00448572079996
 20
-40.11313576370004
 10
-66.03924072449996
 20
-40.11336103470003
 10
-66.03919546219997
 20
-38.71387703540003
 10
-63.83856846329996
 20
-38.71394820840003
 10
-63.83861372559996
 20
-40.11343220770004
 10
-61.09648572709997
 20
-40.11352089400003
 10
-61.09657630729996
 20
-42.91420889250004
 10
-63.83870430589997
 20
-42.91412020620003
 10
-63.83874956729996
 20
-44.31357620550003
 10
-66.03937656609996
 20
-44.31350503250003
 10
-66.03933130469997
 20
-42.91404903320004
 10
-73.00457630109996
 20
-42.91382376220003
 10
-73.00485443309996
 20
-51.51350175770003
 10
-67.40274343609997
 20
-51.51368294200003
 10
-67.40428011359997
 20
-99.02683891720002
 10
-73.00639111059996
 20
-99.02665773290002
 10
-73.00657276319997
 20
-104.64324673
 10
-66.04132776679997
 20
-104.643472001
 10
-66.04128250449996
 20
-103.243988002
 10
-63.84065550569996
 20
-103.244059175
 10
-63.84070076799996
 20
-104.643543174
 10
-61.09857276939996
 20
-104.64363186
 10
-61.09866334969996
 20
-107.444319859
 10
-63.84079134829996
 20
-107.444231172
 10
-63.84083663339996
 20
-108.844420172
 10
-66.04146363219996
 20
-108.844348999
 10
-66.04141834709996
 20
-107.444159999
 10
-73.00666334349997
 20
-107.443934728
 10
-73.00836399349996
 20
-160.027023701
 10
-123.000286451
 20
-159.999316193
 10
-123.000286451
 20
-285.999316193
 10
-60.00028645099995
 20
-285.999316193
 10
-59.61010580699995
 20
-285.960886754
 10
-59.23491958629995
 20
-285.847075258
 10
-58.88914598499995
 20
-285.662255418
 10
-58.58607288859995
 20
-285.413529755
 10
-58.33734722639995
 20
-285.110456659
 10
-58.15252738599995
 20
-284.764683058
 10
-58.03871589019995
 20
-284.389496837
 10
-58.00028645099995
 20
-283.999316193
 10
-58.00028645099995
 20
-282.999316193
 10
-57.96185701179995
 20
-282.609135549
 10
-57.84804551599995
 20
-282.2339493280001
 10
-57.66322567559995
 20
-281.888175727
 10
-57.41450001339995
 20
-281.585102631
 10
-57.11142691699995
 20
-281.336376968
 10
-56.76565331569995
 20
-281.151557128
 10
-56.39046709499995
 20
-281.0377456320001
 10
-56.00028645099995
 20
-280.999316193
 10
-55.40028645099995
 20
-280.999316193
 10
55.39825812340005
 20
-281.0011079240001
 10
55.99825812310005
 20
-281.00112733
 10
56.38843752400005
 20
-281.039569388
 10
56.76362006360005
 20
-281.153393018
 10
57.10938768730005
 20
-281.338224042
 10
57.41245273910005
 20
-281.586959506
 10
57.66116859920005
 20
-281.890040646
 10
57.84597725640005
 20
-282.2358202250001
 10
57.95977661780005
 20
-282.6110101260001
 10
57.99819343770005
 20
-283.001192013
 10
57.99816109560005
 20
-284.001192012
 10
58.03657791550005
 20
-284.391373899
 10
58.15037727690005
 20
-284.766563801
 10
58.33518593410005
 20
-285.112343379
 10
58.58390179420005
 20
-285.41542452
 10
58.88696684610005
 20
-285.664159984
 10
59.23273446970005
 20
-285.8489910070001
 10
59.60791700930005
 20
-285.962814637
 10
59.99809641020005
 20
-286.001256696
 10
122.9980963770001
 20
-286.003294251
 10
123.002171488
 20
-160.003294317
 10
73.01024816040005
 20
-160.029384979
  0
POINT
  5
66
100
AcDbEntity
  8
0
  6
ByLayer
 62
  256
370
   -1
100
AcDbPoint
 10
-108.015690737
 20
-230.029384815
  0
POINT
  5
67
100
AcDbEntity
  8
0
  6
ByLayer
 62
  256
370
   -1
100
AcDbPoint
 10
-108.015690737
 20
-240.029384815
  0
POINT
  5
68
100
AcDbEntity
  8
0
  6
ByLayer
 62
  256
370
   -1
100
AcDbPoint
 10
-108.015690737
 20
-250.029384815
  0
POINT
  5
69
100
AcDbEntity
  8
0
  6
ByLayer
 62
  256
370
   -1
100
AcDbPoint
 10
-108.015690737
 20
-260.029384815
  0
POINT
  5
6A
100
AcDbEntity
  8
0
  6
ByLayer
 62
  256
370
   -1
100
AcDbPoint
 10
108.0056665370001
 20
-230.029384815
  0
POINT
  5
6B
100
AcDbEntity
  8
0
  6
ByLayer
 62
  256
370
   -1
100
AcDbPoint
 10
108.0056665370001
 20
-240.029384815
  0
POINT
  5
6C
100
AcDbEntity
  8
0
  6
ByLayer
 62
  256
370
   -1
100
AcDbPoint
 10
108.0056665370001
 20
-250.029384815
  0
POINT
  5
6D
100
AcDbEntity
  8
0
  6
ByLayer
 62
  256
370
   -1
100
AcDbPoint
 10
108.0056665370001
 20
-260.029384815
  0
CIRCLE
  5
6E
100
AcDbEntity
  8
HOLES
  6
ByLayer
 62
  256
370
   -1
100
AcDbCircle
 10
-108.015690737
 20
-230.029384815
 40
2.25
  0
CIRCLE
  5
6F
100
AcDbEntity
  8
HOLES
  6
ByLayer
 62
  256
370
   -1
100
AcDbCircle
 10
-98.00069073699996
 20
-230.055384815
 40
1.5
  0
CIRCLE
  5
70
100
AcDbEntity
  8
HOLES
  6
ByLayer
 62
  256
370
   -1
100
AcDbCircle
 10
-118.000690737
 20
-230.055384815
 40
1.5
  0
CIRCLE
  5
71
100
AcDbEntity
  8
HOLES
  6
ByLayer
 62
  256
370
   -1
100
AcDbCircle
 10
-108.016175866
 20
-240.029186137
 40
2.25
  0
CIRCLE
  5
72
100
AcDbEntity
  8
HOLES
  6
ByLayer
 62
  256
370
   -1
100
AcDbCircle
 10
-98.00117586599995
 20
-240.055186137
 40
1.5
  0
CIRCLE
  5
73
100
AcDbEntity
  8
HOLES
  6
ByLayer
 62
  256
370
   -1
100
AcDbCircle
 10
-118.001175866
 20
-240.055186137
 40
1.5
  0
CIRCLE
  5
74
100
AcDbEntity
  8
HOLES
  6
ByLayer
 62
  256
370
   -1
100
AcDbCircle
 10
-108.016175866
 20
-250.029186137
 40
2.25
  0
CIRCLE
  5
75
100
AcDbEntity
  8
HOLES
  6
ByLayer
 62
  256
370
   -1
100
AcDbCircle
 10
-98.00117586599995
 20
-250.055186137
 40
1.5
  0
CIRCLE
  5
76
100
AcDbEntity
  8
HOLES
  6
ByLayer
 62
  256
370
   -1
100
AcDbCircle
 10
-118.001175866
 20
-250.055186137
 40
1.5
  0
CIRCLE
  5
77
100
AcDbEntity
  8
HOLES
  6
ByLayer
 62
  256
370
   -1
100
AcDbCircle
 10
-108.016175866
 20
-260.029186137
 40
2.25
  0
CIRCLE
  5
78
100
AcDbEntity
  8
HOLES
  6
ByLayer
 62
  256
370
   -1
100
AcDbCircle
 10
-98.00117586599995
 20
-260.055186137
 40
1.5
  0
CIRCLE
  5
79
100
AcDbEntity
  8
HOLES
  6
ByLayer
 62
  256
370
   -1
100
AcDbCircle
 10
-118.001175866
 20
-260.055186137
 40
1.5
  0
LINE
  5
7A
100
AcDbEntity
  8
0
  6
ByLayer
 62
  256
370
   -1
100
AcDbLine
 10
-58.00028645099995
 20
-274.999316193
 11
-62.00028645099995
 21
-274.999316193
  0
POINT
  5
7B
100
AcDbEntity
  8
0
  6
ByLayer
 62
  256
370
   -1
100
AcDbPoint
 10
-0.0002864509999509166
 20
-229.999316193
  0
POINT
  5
7C
100
AcDbEntity
  8
0
  6
ByLayer
 62
  256
370
   -1
100
AcDbPoint
 10
-0.0002864509999503043
 20
-239.999316193
  0
POINT
  5
7D
100
AcDbEntity
  8
0
  6
ByLayer
 62
  256
370
   -1
100
AcDbPoint
 10
-0.0002864509999496919
 20
-249.999316193
  0
POINT
  5
7E
100
AcDbEntity
  8
0
  6
ByLayer
 62
  256
370
   -1
100
AcDbPoint
 10
-0.0002864509999490796
 20
-259.999316193
  0
CIRCLE
  5
7F
100
AcDbEntity
  8
HOLES
  6
ByLayer
 62
  256
370
   -1
100
AcDbCircle
 10
-0.0002864509999509166
 20
-229.999316193
 40
2.25
  0
CIRCLE
  5
80
100
AcDbEntity
  8
HOLES
  6
ByLayer
 62
  256
370
   -1
100
AcDbCircle
 10
10.01471354900005
 20
-230.025316193
 40
1.5
  0
CIRCLE
  5
81
100
AcDbEntity
  8
HOLES
  6
ByLayer
 62
  256
370
   -1
100
AcDbCircle
 10
-9.985286450999951
 20
-230.025316193
 40
1.5
  0
CIRCLE
  5
82
100
AcDbEntity
  8
HOLES
  6
ByLayer
 62
  256
370
   -1
100
AcDbCircle
 10
-0.0007715799999193043
 20
-239.999117515
 40
2.25
  0
CIRCLE
  5
83
100
AcDbEntity
  8
HOLES
  6
ByLayer
 62
  256
370
   -1
100
AcDbCircle
 10
10.01422842000005
 20
-240.025117515
 40
1.5
  0
CIRCLE
  5
84
100
AcDbEntity
  8
HOLES
  6
ByLayer
 62
  256
370
   -1
100
AcDbCircle
 10
-9.985771579999952
 20
-240.025117515
 40
1.5
  0
CIRCLE
  5
85
100
AcDbEntity
  8
HOLES
  6
ByLayer
 62
  256
370
   -1
100
AcDbCircle
 10
-0.0007715799999186919
 20
-249.999117515
 40
2.25
  0
CIRCLE
  5
86
100
AcDbEntity
  8
HOLES
  6
ByLayer
 62
  256
370
   -1
100
AcDbCircle
 10
10.01422842000005
 20
-250.025117515
 40
1.5
  0
CIRCLE
  5
87
100
AcDbEntity
  8
HOLES
  6
ByLayer
 62
  256
370
   -1
100
AcDbCircle
 10
-9.98577157999995
 20
-250.025117515
 40
1.5
  0
CIRCLE
  5
88
100
AcDbEntity
  8
HOLES
  6
ByLayer
 62
  256
370
   -1
100
AcDbCircle
 10
-0.0007715799999180795
 20
-259.999117515
 40
2.25
  0
CIRCLE
  5
89
100
AcDbEntity
  8
HOLES
  6
ByLayer
 62
  256
370
   -1
100
AcDbCircle
 10
10.01422842000005
 20
-260.025117515
 40
1.5
  0
CIRCLE
  5
8A
100
AcDbEntity
  8
HOLES
  6
ByLayer
 62
  256
370
   -1
100
AcDbCircle
 10
-9.98577157999995
 20
-260.025117515
 40
1.5
  0
CIRCLE
  5
8B
100
AcDbEntity
  8
HOLES
  6
ByLayer
 62
  256
370
   -1
100
AcDbCircle
 10
108.0151168060001
 20
-230.032878265
 40
2.25
  0
CIRCLE
  5
8C
100
AcDbEntity
  8
HOLES
  6
ByLayer
 62
  256
370
   -1
100
AcDbCircle
 10
98.00011597040005
 20
-230.058554359
 40
1.5
  0
CIRCLE
  5
8D
100
AcDbEntity
  8
HOLES
  6
ByLayer
 62
  256
370
   -1
100
AcDbCircle
 10
118.00011596
 20
-230.059201201
 40
1.5
  0
CIRCLE
  5
8E
100
AcDbEntity
  8
HOLES
  6
ByLayer
 62
  256
370
   -1
100
AcDbCircle
 10
108.0152785200001
 20
-240.032679598
 40
2.25
  0
CIRCLE
  5
8F
100
AcDbEntity
  8
HOLES
  6
ByLayer
 62
  256
370
   -1
100
AcDbCircle
 10
98.00027768430004
 20
-240.058355691
 40
1.5
  0
CIRCLE
  5
90
100
AcDbEntity
  8
HOLES
  6
ByLayer
 62
  256
370
   -1
100
AcDbCircle
 10
118.000277674
 20
-240.059002534
 40
1.5
  0
CIRCLE
  5
91
100
AcDbEntity
  8
HOLES
  6
ByLayer
 62
  256
370
   -1
100
AcDbCircle
 10
108.014955098
 20
-250.032679592
 40
2.25
  0
CIRCLE
  5
92
100
AcDbEntity
  8
HOLES
  6
ByLayer
 62
  256
370
   -1
100
AcDbCircle
 10
97.99995426280005
 20
-250.058355686
 40
1.5
  0
CIRCLE
  5
93
100
AcDbEntity
  8
HOLES
  6
ByLayer
 62
  256
370
   -1
100
AcDbCircle
 10
117.9999542520001
 20
-250.059002529
 40
1.5
  0
CIRCLE
  5
94
100
AcDbEntity
  8
HOLES
  6
ByLayer
 62
  256
370
   -1
100
AcDbCircle
 10
108.0146316770001
 20
-260.032679587
 40
2.25
  0
CIRCLE
  5
95
100
AcDbEntity
  8
HOLES
  6
ByLayer
 62
  256
370
   -1
100
AcDbCircle
 10
97.99963084140005
 20
-260.058355681
 40
1.5
  0
CIRCLE
  5
96
100
AcDbEntity
  8
HOLES
  6
ByLayer
 62
  256
370
   -1
100
AcDbCircle
 10
117.999630831
 20
-260.059002523
 40
1.5
  0
ENDSEC
  0
SECTION
  2
OBJECTS
  0
DICTIONARY
  5
C
330
0
100
AcDbDictionary
281
    1
  3
ACAD_GROUP
350
D
  0
DICTIONARY
  5
D
330
C
100
AcDbDictionary
281
    1
  0
ENDSEC
  0
EOF
