999
dxfrw 0.6.3
  0
SECTION
  2
HEADER
  9
$ACADVER
  1
AC1021
  9
$DWGCODEPAGE
  3
ANSI_1250
  9
$INSBASE
 10
0
 20
0
 30
0
  9
$EXTMIN
 10
4
 20
0.00410429128661
 30
0
  9
$EXTMAX
 10
414
 20
501
 30
0
  9
$LIMMIN
 10
0
 20
0
  9
$LIMMAX
 10
420
 20
297
  9
$ORTHOMODE
 70
    0
  9
$REGENMODE
 70
    1
  9
$FILLMODE
 70
    1
  9
$QTEXTMODE
 70
    0
  9
$MIRRTEXT
 70
    0
  9
$LTSCALE
 40
1
  9
$ATTMODE
 70
    0
  9
$TEXTSIZE
 40
2.5
  9
$TRACEWID
 40
15.68
  9
$TEXTSTYLE
  7
STANDARD
  9
$CLAYER
  8
HOLES
  9
$CELTYPE
  6
BYLAYER
  9
$CECOLOR
 62
  256
  9
$CELTSCALE
 40
1
  9
$DISPSILH
 70
    0
  9
$DIMSCALE
 40
1
  9
$DIMASZ
 40
3.5
  9
$DIMEXO
 40
1
  9
$DIMDLI
 40
3.75
  9
$DIMRND
 40
0
  9
$DIMDLE
 40
0
  9
$DIMEXE
 40
1
  9
$DIMTP
 40
0
  9
$DIMTM
 40
0
  9
$DIMTXT
 40
3.5
  9
$DIMCEN
 40
2.5
  9
$DIMTSZ
 40
0
  9
$DIMTOL
 70
    0
  9
$DIMLIM
 70
    0
  9
$DIMTIH
 70
    0
  9
$DIMTOH
 70
    0
  9
$DIMSE1
 70
    0
  9
$DIMSE2
 70
    0
  9
$DIMTAD
 70
    1
  9
$DIMZIN
 70
    8
  9
$DIMBLK
  1

  9
$DIMASO
 70
    1
  9
$DIMSHO
 70
    1
  9
$DIMPOST
  1

  9
$DIMAPOST
  1

  9
$DIMALT
 70
    0
  9
$DIMALTD
 70
    3
  9
$DIMALTF
 40
0.03937
  9
$DIMLFAC
 40
1
  9
$DIMTOFL
 70
    1
  9
$DIMTVP
 40
0
  9
$DIMTIX
 70
    0
  9
$DIMSOXD
 70
    0
  9
$DIMSAH
 70
    0
  9
$DIMBLK1
  1

  9
$DIMBLK2
  1

  9
$DIMSTYLE
  2
AM_ISO
  9
$DIMCLRD
 70
    0
  9
$DIMCLRE
 70
    0
  9
$DIMCLRT
 70
    0
  9
$DIMTFAC
 40
1
  9
$DIMGAP
 40
1.5
  9
$DIMJUST
 70
    0
  9
$DIMSD1
 70
    0
  9
$DIMSD2
 70
    0
  9
$DIMTOLJ
 70
    0
  9
$DIMTZIN
 70
    8
  9
$DIMALTZ
 70
    0
  9
$DIMALTTZ
 70
    0
  9
$DIMUPT
 70
    0
  9
$DIMDEC
 70
    2
  9
$DIMTDEC
 70
    2
  9
$DIMALTU
 70
    2
  9
$DIMALTTD
 70
    3
  9
$DIMTXSTY
  7
STANDARD
  9
$DIMAUNIT
 70
    0
  9
$DIMADEC
 70
    0
  9
$DIMALTRND
 40
0
  9
$DIMAZIN
 70
    0
  9
$DIMDSEP
 70
   44
  9
$DIMATFIT
 70
    3
  9
$DIMFRAC
 70
    0
  9
$DIMLDRBLK
  1
STANDARD
  9
$DIMLUNIT
 70
    2
  9
$DIMLWD
 70
   -2
  9
$DIMLWE
 70
   -2
  9
$DIMTMOVE
 70
    0
  9
$DIMFXL
 40
1
  9
$DIMFXLON
 70
    0
  9
$DIMJOGANG
 40
0.7854
  9
$DIMTFILL
 70
    0
  9
$DIMTFILLCLR
 70
    0
  9
$DIMARCSYM
 70
    0
  9
$DIMLTYPE
  6

  9
$DIMLTEX1
  6

  9
$DIMLTEX2
  6

  9
$LUNITS
 70
    2
  9
$LUPREC
 70
    2
  9
$SKETCHINC
 40
1
  9
$FILLETRAD
 40
0
  9
$AUNITS
 70
    0
  9
$AUPREC
 70
    0
  9
$MENU
  1
.
  9
$ELEVATION
 40
0
  9
$PELEVATION
 40
0
  9
$THICKNESS
 40
0
  9
$LIMCHECK
 70
    0
  9
$CHAMFERA
 40
0
  9
$CHAMFERB
 40
0
  9
$CHAMFERC
 40
0
  9
$CHAMFERD
 40
0
  9
$SKPOLY
 70
    0
  9
$USRTIMER
 70
    1
  9
$ANGBASE
 50
0
  9
$ANGDIR
 70
    0
  9
$PDMODE
 70
   34
  9
$PDSIZE
 40
0
  9
$PLINEWID
 40
0
  9
$SPLFRAME
 70
    0
  9
$SPLINETYPE
 70
    2
  9
$SPLINESEGS
 70
    8
  9
$HANDSEED
  5
20000
  9
$SURFTAB1
 70
    6
  9
$SURFTAB2
 70
    6
  9
$SURFTYPE
 70
    6
  9
$SURFU
 70
    6
  9
$SURFV
 70
    6
  9
$UCSBASE
  2

  9
$UCSNAME
  2

  9
$UCSORG
 10
0
 20
0
 30
0
  9
$UCSXDIR
 10
1
 20
0
 30
0
  9
$UCSYDIR
 10
0
 20
1
 30
0
  9
$UCSORTHOREF
  2

  9
$UCSORTHOVIEW
 70
    0
  9
$UCSORGTOP
 10
0
 20
0
 30
0
  9
$UCSORGBOTTOM
 10
0
 20
0
 30
0
  9
$UCSORGLEFT
 10
0
 20
0
 30
0
  9
$UCSORGRIGHT
 10
0
 20
0
 30
0
  9
$UCSORGFRONT
 10
0
 20
0
 30
0
  9
$UCSORGBACK
 10
0
 20
0
 30
0
  9
$PUCSBASE
  2

  9
$PUCSNAME
  2

  9
$PUCSORG
 10
0
 20
0
 30
0
  9
$PUCSXDIR
 10
1
 20
0
 30
0
  9
$PUCSYDIR
 10
0
 20
1
 30
0
  9
$PUCSORTHOREF
  2

  9
$PUCSORTHOVIEW
 70
    0
  9
$PUCSORGTOP
 10
0
 20
0
 30
0
  9
$PUCSORGBOTTOM
 10
0
 20
0
 30
0
  9
$PUCSORGLEFT
 10
0
 20
0
 30
0
  9
$PUCSORGRIGHT
 10
0
 20
0
 30
0
  9
$PUCSORGFRONT
 10
0
 20
0
 30
0
  9
$PUCSORGBACK
 10
0
 20
0
 30
0
  9
$USERI1
 70
    0
  9
$USERI2
 70
    0
  9
$USERI3
 70
    0
  9
$USERI4
 70
    0
  9
$USERI5
 70
    0
  9
$USERR1
 40
0
  9
$USERR2
 40
0
  9
$USERR3
 40
0
  9
$USERR4
 40
0
  9
$USERR5
 40
0
  9
$WORLDVIEW
 70
    1
  9
$SHADEDGE
 70
    3
  9
$SHADEDIF
 70
   70
  9
$TILEMODE
 70
    1
  9
$MAXACTVP
 70
   64
  9
$PINSBASE
 10
0
 20
0
 30
0
  9
$PLIMCHECK
 70
    0
  9
$PEXTMIN
 10
0
 20
0
 30
0
  9
$PEXTMAX
 10
0
 20
0
 30
0
  9
$GRIDMODE
 70
    1
  9
$SNAPSTYLE
 70
    0
  9
$PLIMMIN
 10
0
 20
0
  9
$PLIMMAX
 10
0
 20
0
  9
$UNITMODE
 70
    0
  9
$VISRETAIN
 70
    1
  9
$PLINEGEN
 70
    0
  9
$PSLTSCALE
 70
    1
  9
$TREEDEPTH
 70
 3020
  9
$CMLSTYLE
  2
Standard
  9
$CMLJUST
 70
    0
  9
$CMLSCALE
 40
20
  9
$PROXYGRAPHICS
 70
    1
  9
$MEASUREMENT
 70
    1
  9
$CELWEIGHT
370
   -1
  9
$ENDCAPS
280
    0
  9
$JOINSTYLE
280
    0
  9
$LWDISPLAY
290
    0
  9
$INSUNITS
 70
    4
  9
$HYPERLINKBASE
  1

  9
$STYLESHEET
  1

  9
$XEDIT
290
    1
  9
$CEPSNTYPE
380
    0
  9
$PSTYLEMODE
290
    1
  9
$EXTNAMES
290
    1
  9
$PSVPSCALE
 40
1
  9
$OLESTARTUP
290
    0
  9
$SORTENTS
280
  127
  9
$INDEXCTL
280
    0
  9
$HIDETEXT
280
    1
  9
$XCLIPFRAME
290
    0
  9
$HALOGAP
280
    0
  9
$OBSCOLOR
 70
  257
  9
$OBSLTYPE
280
    0
  9
$INTERSECTIONDISPLAY
280
    0
  9
$INTERSECTIONCOLOR
 70
  257
  9
$DIMASSOC
280
    1
  9
$PROJECTNAME
  1

  9
$CAMERADISPLAY
290
    0
  9
$LENSLENGTH
 40
50
  9
$CAMERAHEIGHT
 40
0
  9
$STEPSPERSEC
 40
2
  9
$STEPSIZE
 40
50
  9
$3DDWFPREC
 40
2
  9
$PSOLWIDTH
 40
5
  9
$PSOLHEIGHT
 40
80
  9
$LOFTANG1
 40
1.570796326794897
  9
$LOFTANG2
 40
1.570796326794897
  9
$LOFTMAG1
 40
0
  9
$LOFTMAG2
 40
0
  9
$LOFTPARAM
 70
    7
  9
$LOFTNORMALS
280
    1
  9
$LATITUDE
 40
1
  9
$LONGITUDE
 40
1
  9
$NORTHDIRECTION
 40
0
  9
$TIMEZONE
 70
-8000
  9
$LIGHTGLYPHDISPLAY
280
    1
  9
$TILEMODELIGHTSYNCH
280
    1
  9
$SOLIDHIST
280
    1
  9
$SHOWHIST
280
    1
  9
$DWFFRAME
280
    2
  9
$DGNFRAME
280
    0
  9
$REALWORLDSCALE
290
    1
  9
$INTERFERECOLOR
 62
    1
  9
$CSHADOW
280
    0
  9
$SHADOWPLANELOCATION
 40
0
  0
ENDSEC
  0
SECTION
  2
CLASSES
  0
ENDSEC
  0
SECTION
  2
TABLES
  0
TABLE
  2
VPORT
  5
8
330
0
100
AcDbSymbolTable
 70
    1
  0
VPORT
  5
31
330
2
100
AcDbSymbolTableRecord
100
AcDbViewportTableRecord
  2
*ACTIVE
 70
    0
 10
0
 20
0
 11
1
 21
1
 12
326.971242531946
 22
260.1208467916089
 13
0
 23
0
 14
10
 24
10
 15
10
 25
10
 16
0
 26
0
 36
1
 17
0
 27
0
 37
0
 40
542.0839020924368
 41
1.860805860805861
 42
50
 43
0
 44
0
 50
0
 51
0
 71
    0
 72
  100
 73
    1
 74
    3
 75
    0
 76
    1
 77
    0
 78
    0
281
    0
 65
    1
110
0
120
0
130
0
111
1
121
0
131
0
112
0
122
1
132
0
 79
    0
146
0
348
10020
 60
    7
 61
    5
292
1
282
    1
141
0
142
0
 63
  250
421
3358443
  0
ENDTAB
  0
TABLE
  2
LTYPE
  5
5
330
0
100
AcDbSymbolTable
 70
    4
  0
LTYPE
  5
14
330
5
100
AcDbSymbolTableRecord
100
AcDbLinetypeTableRecord
  2
ByBlock
 70
    0
  3

 72
   65
 73
    0
 40
0
  0
LTYPE
  5
15
330
5
100
AcDbSymbolTableRecord
100
AcDbLinetypeTableRecord
  2
ByLayer
 70
    0
  3

 72
   65
 73
    0
 40
0
  0
LTYPE
  5
16
330
5
100
AcDbSymbolTableRecord
100
AcDbLinetypeTableRecord
  2
Continuous
 70
    0
  3
Solid line
 72
   65
 73
    0
 40
0
  0
LTYPE
  5
32
330
5
100
AcDbSymbolTableRecord
100
AcDbLinetypeTableRecord
  2
DOT
 70
    0
  3
Dot . . . . . . . . . . . . . . . . . . . . . .
 72
   65
 73
    2
 40
6.35
 49
0
 74
    0
 49
-6.35
 74
    0
  0
LTYPE
  5
33
330
5
100
AcDbSymbolTableRecord
100
AcDbLinetypeTableRecord
  2
DOTTINY
 70
    0
  3
Dot (.15x) .....................................
 72
   65
 73
    2
 40
0.9525
 49
0
 74
    0
 49
-0.9525
 74
    0
  0
LTYPE
  5
34
330
5
100
AcDbSymbolTableRecord
100
AcDbLinetypeTableRecord
  2
DOT2
 70
    0
  3
Dot (.5x) .....................................
 72
   65
 73
    2
 40
3.175
 49
0
 74
    0
 49
-3.175
 74
    0
  0
LTYPE
  5
35
330
5
100
AcDbSymbolTableRecord
100
AcDbLinetypeTableRecord
  2
DOTX2
 70
    0
  3
Dot (2x) .  .  .  .  .  .  .  .  .  .  .  .  .
 72
   65
 73
    2
 40
12.7
 49
0
 74
    0
 49
-12.7
 74
    0
  0
LTYPE
  5
36
330
5
100
AcDbSymbolTableRecord
100
AcDbLinetypeTableRecord
  2
DASHED
 70
    0
  3
Dashed _ _ _ _ _ _ _ _ _ _ _ _ _ _ _ _ _
 72
   65
 73
    2
 40
19.05
 49
12.7
 74
    0
 49
-6.35
 74
    0
  0
LTYPE
  5
37
330
5
100
AcDbSymbolTableRecord
100
AcDbLinetypeTableRecord
  2
DASHEDTINY
 70
    0
  3
Dashed (.15x) _ _ _ _ _ _ _ _ _ _ _ _ _ _ _ _ _
 72
   65
 73
    2
 40
2.8575
 49
1.905
 74
    0
 49
-0.9525
 74
    0
  0
LTYPE
  5
38
330
5
100
AcDbSymbolTableRecord
100
AcDbLinetypeTableRecord
  2
DASHED2
 70
    0
  3
Dashed (.5x) _ _ _ _ _ _ _ _ _ _ _ _ _ _ _ _ _
 72
   65
 73
    2
 40
9.524999999999999
 49
6.35
 74
    0
 49
-3.175
 74
    0
  0
LTYPE
  5
39
330
5
100
AcDbSymbolTableRecord
100
AcDbLinetypeTableRecord
  2
DASHEDX2
 70
    0
  3
Dashed (2x) ____  ____  ____  ____  ____  ___
 72
   65
 73
    2
 40
38.09999999999999
 49
25.4
 74
    0
 49
-12.7
 74
    0
  0
LTYPE
  5
3A
330
5
100
AcDbSymbolTableRecord
100
AcDbLinetypeTableRecord
  2
DASHDOT
 70
    0
  3
Dash dot __ . __ . __ . __ . __ . __ . __ . __
 72
   65
 73
    4
 40
25.4
 49
12.7
 74
    0
 49
-6.35
 74
    0
 49
0
 74
    0
 49
-6.35
 74
    0
  0
LTYPE
  5
3B
330
5
100
AcDbSymbolTableRecord
100
AcDbLinetypeTableRecord
  2
DASHDOTTINY
 70
    0
  3
Dash dot (.15x) _._._._._._._._._._._._._._._.
 72
   65
 73
    4
 40
3.81
 49
1.905
 74
    0
 49
-0.9525
 74
    0
 49
0
 74
    0
 49
-0.9525
 74
    0
  0
LTYPE
  5
3C
330
5
100
AcDbSymbolTableRecord
100
AcDbLinetypeTableRecord
  2
DASHDOT2
 70
    0
  3
Dash dot (.5x) _._._._._._._._._._._._._._._.
 72
   65
 73
    4
 40
12.7
 49
6.35
 74
    0
 49
-3.175
 74
    0
 49
0
 74
    0
 49
-3.175
 74
    0
  0
LTYPE
  5
3D
330
5
100
AcDbSymbolTableRecord
100
AcDbLinetypeTableRecord
  2
DASHDOTX2
 70
    0
  3
Dash dot (2x) ____  .  ____  .  ____  .  ___
 72
   65
 73
    4
 40
50.8
 49
25.4
 74
    0
 49
-12.7
 74
    0
 49
0
 74
    0
 49
-12.7
 74
    0
  0
LTYPE
  5
3E
330
5
100
AcDbSymbolTableRecord
100
AcDbLinetypeTableRecord
  2
DIVIDE
 70
    0
  3
Divide ____ . . ____ . . ____ . . ____ . . ____
 72
   65
 73
    6
 40
31.75
 49
12.7
 74
    0
 49
-6.35
 74
    0
 49
0
 74
    0
 49
-6.35
 74
    0
 49
0
 74
    0
 49
-6.35
 74
    0
  0
LTYPE
  5
3F
330
5
100
AcDbSymbolTableRecord
100
AcDbLinetypeTableRecord
  2
DIVIDETINY
 70
    0
  3
Divide (.15x) __..__..__..__..__..__..__..__.._
 72
   65
 73
    6
 40
4.7625
 49
1.905
 74
    0
 49
-0.9525
 74
    0
 49
0
 74
    0
 49
-0.9525
 74
    0
 49
0
 74
    0
 49
-0.9525
 74
    0
  0
LTYPE
  5
40
330
5
100
AcDbSymbolTableRecord
100
AcDbLinetypeTableRecord
  2
DIVIDE2
 70
    0
  3
Divide (.5x) __..__..__..__..__..__..__..__.._
 72
   65
 73
    6
 40
15.875
 49
6.35
 74
    0
 49
-3.175
 74
    0
 49
0
 74
    0
 49
-3.175
 74
    0
 49
0
 74
    0
 49
-3.175
 74
    0
  0
LTYPE
  5
41
330
5
100
AcDbSymbolTableRecord
100
AcDbLinetypeTableRecord
  2
DIVIDEX2
 70
    0
  3
Divide (2x) ________  .  .  ________  .  .  _
 72
   65
 73
    6
 40
63.5
 49
25.4
 74
    0
 49
-12.7
 74
    0
 49
0
 74
    0
 49
-12.7
 74
    0
 49
0
 74
    0
 49
-12.7
 74
    0
  0
LTYPE
  5
42
330
5
100
AcDbSymbolTableRecord
100
AcDbLinetypeTableRecord
  2
BORDER
 70
    0
  3
Border __ __ . __ __ . __ __ . __ __ . __ __ .
 72
   65
 73
    6
 40
44.45
 49
12.7
 74
    0
 49
-6.35
 74
    0
 49
12.7
 74
    0
 49
-6.35
 74
    0
 49
0
 74
    0
 49
-6.35
 74
    0
  0
LTYPE
  5
43
330
5
100
AcDbSymbolTableRecord
100
AcDbLinetypeTableRecord
  2
BORDERTINY
 70
    0
  3
Border (.15x) __.__.__.__.__.__.__.__.__.__.__.
 72
   65
 73
    6
 40
6.6675
 49
1.905
 74
    0
 49
-0.9525
 74
    0
 49
1.905
 74
    0
 49
-0.9525
 74
    0
 49
0
 74
    0
 49
-0.9525
 74
    0
  0
LTYPE
  5
44
330
5
100
AcDbSymbolTableRecord
100
AcDbLinetypeTableRecord
  2
BORDER2
 70
    0
  3
Border (.5x) __.__.__.__.__.__.__.__.__.__.__.
 72
   65
 73
    6
 40
22.225
 49
6.35
 74
    0
 49
-3.175
 74
    0
 49
6.35
 74
    0
 49
-3.175
 74
    0
 49
0
 74
    0
 49
-3.175
 74
    0
  0
LTYPE
  5
45
330
5
100
AcDbSymbolTableRecord
100
AcDbLinetypeTableRecord
  2
BORDERX2
 70
    0
  3
Border (2x) ____  ____  .  ____  ____  .  ___
 72
   65
 73
    6
 40
88.89999999999999
 49
25.4
 74
    0
 49
-12.7
 74
    0
 49
25.4
 74
    0
 49
-12.7
 74
    0
 49
0
 74
    0
 49
-12.7
 74
    0
  0
LTYPE
  5
46
330
5
100
AcDbSymbolTableRecord
100
AcDbLinetypeTableRecord
  2
CENTER
 70
    0
  3
Center ____ _ ____ _ ____ _ ____ _ ____ _ ____
 72
   65
 73
    4
 40
50.8
 49
31.75
 74
    0
 49
-6.35
 74
    0
 49
6.35
 74
    0
 49
-6.35
 74
    0
  0
LTYPE
  5
47
330
5
100
AcDbSymbolTableRecord
100
AcDbLinetypeTableRecord
  2
CENTERTINY
 70
    0
  3
Center (.15x) ___ _ ___ _ ___ _ ___ _ ___ _ ___
 72
   65
 73
    4
 40
7.619999999999999
 49
4.7625
 74
    0
 49
-0.9525
 74
    0
 49
0.9525
 74
    0
 49
-0.9525
 74
    0
  0
LTYPE
  5
48
330
5
100
AcDbSymbolTableRecord
100
AcDbLinetypeTableRecord
  2
CENTER2
 70
    0
  3
Center (.5x) ___ _ ___ _ ___ _ ___ _ ___ _ ___
 72
   65
 73
    4
 40
28.575
 49
19.05
 74
    0
 49
-3.175
 74
    0
 49
3.175
 74
    0
 49
-3.175
 74
    0
  0
LTYPE
  5
49
330
5
100
AcDbSymbolTableRecord
100
AcDbLinetypeTableRecord
  2
CENTERX2
 70
    0
  3
Center (2x) ________  __  ________  __  _____
 72
   65
 73
    4
 40
101.6
 49
63.5
 74
    0
 49
-12.7
 74
    0
 49
12.7
 74
    0
 49
-12.7
 74
    0
  0
ENDTAB
  0
TABLE
  2
LAYER
  5
2
330
0
100
AcDbSymbolTable
 70
    1
  0
LAYER
  5
10
330
2
100
AcDbSymbolTableRecord
100
AcDbLayerTableRecord
  2
0
 70
    0
 62
    2
  6
CONTINUOUS
370
   -3
390
F
  0
LAYER
  5
4A
330
2
100
AcDbSymbolTableRecord
100
AcDbLayerTableRecord
  2
GRAVIRANJE
 70
    0
 62
    3
  6
CONTINUOUS
370
   -3
390
F
  0
LAYER
  5
4B
330
2
100
AcDbSymbolTableRecord
100
AcDbLayerTableRecord
  2
HOLES
 70
    0
 62
  160
  6
CONTINUOUS
370
   -3
390
F
  0
LAYER
  5
4C
330
2
100
AcDbSymbolTableRecord
100
AcDbLayerTableRecord
  2
IZREZ
 70
    0
 62
    7
  6
CONTINUOUS
370
   -3
390
F
  0
ENDTAB
  0
TABLE
  2
STYLE
  5
3
330
0
100
AcDbSymbolTable
 70
    3
  0
STYLE
  5
4D
330
2
100
AcDbSymbolTableRecord
100
AcDbTextStyleTableRecord
  2
Standard
 70
    0
 40
0
 41
1
 50
0
 71
    0
 42
1
  3
txt
  4

  0
ENDTAB
  0
TABLE
  2
VIEW
  5
6
330
0
100
AcDbSymbolTable
 70
    0
  0
ENDTAB
  0
TABLE
  2
UCS
  5
7
330
0
100
AcDbSymbolTable
 70
    0
  0
ENDTAB
  0
TABLE
  2
APPID
  5
9
330
0
100
AcDbSymbolTable
 70
    1
  0
APPID
  5
12
330
9
100
AcDbSymbolTableRecord
100
AcDbRegAppTableRecord
  2
ACAD
 70
    0
  0
APPID
  5
4E
330
9
100
AcDbSymbolTableRecord
100
AcDbRegAppTableRecord
  2
LibreCad
 70
    0
  0
ENDTAB
  0
TABLE
  2
DIMSTYLE
  5
A
330
0
100
AcDbSymbolTable
 70
    1
100
AcDbDimStyleTable
 71
    1
  0
DIMSTYLE
105
4F
330
A
100
AcDbSymbolTableRecord
100
AcDbDimStyleTableRecord
  2
Standard
 70
    0
 40
1
 41
3.5
 42
1
 43
0.38
 44
1
 45
0
 46
0
 47
0
 48
0
 49
1
140
3.5
141
0.09
142
0
143
25.4
144
1
145
0
146
1
147
1.5
148
0
 71
    0
 72
    0
 73
    0
 74
    1
 75
    0
 76
    0
 77
    0
 78
    8
 79
    0
170
    0
171
    2
172
    0
173
    0
174
    0
175
    0
176
    0
177
    0
178
    0
179
    0
271
    2
272
    4
273
    2
274
    2
275
    0
276
    0
277
    2
278
   44
279
    0
280
    0
281
    0
282
    0
283
    1
284
    0
285
    0
286
    0
288
    0
289
    3
340
STANDARD
341

371
   -2
372
   -2
  0
ENDTAB
  0
TABLE
  2
BLOCK_RECORD
  5
1
330
0
100
AcDbSymbolTable
 70
    2
  0
BLOCK_RECORD
  5
1F
330
1
100
AcDbSymbolTableRecord
100
AcDbBlockTableRecord
  2
*Model_Space
 70
    0
280
    1
281
    0
  0
BLOCK_RECORD
  5
1E
330
1
100
AcDbSymbolTableRecord
100
AcDbBlockTableRecord
  2
*Paper_Space
 70
    0
280
    1
281
    0
  0
BLOCK_RECORD
  5
50
330
1
100
AcDbSymbolTableRecord
100
AcDbBlockTableRecord
  2
*D1
 70
    0
280
    1
281
    0
  0
BLOCK_RECORD
  5
53
330
1
100
AcDbSymbolTableRecord
100
AcDbBlockTableRecord
  2
*D3
 70
    0
280
    1
281
    0
  0
BLOCK_RECORD
  5
56
330
1
100
AcDbSymbolTableRecord
100
AcDbBlockTableRecord
  2
*D6
 70
    0
280
    1
281
    0
  0
BLOCK_RECORD
  5
59
330
1
100
AcDbSymbolTableRecord
100
AcDbBlockTableRecord
  2
*D5
 70
    0
280
    1
281
    0
  0
BLOCK_RECORD
  5
5C
330
1
100
AcDbSymbolTableRecord
100
AcDbBlockTableRecord
  2
*D8
 70
    0
280
    1
281
    0
  0
BLOCK_RECORD
  5
5F
330
1
100
AcDbSymbolTableRecord
100
AcDbBlockTableRecord
  2
*D4
 70
    0
280
    1
281
    0
  0
BLOCK_RECORD
  5
62
330
1
100
AcDbSymbolTableRecord
100
AcDbBlockTableRecord
  2
*D10
 70
    0
280
    1
281
    0
  0
BLOCK_RECORD
  5
65
330
1
100
AcDbSymbolTableRecord
100
AcDbBlockTableRecord
  2
*D2
 70
    0
280
    1
281
    0
  0
BLOCK_RECORD
  5
68
330
1
100
AcDbSymbolTableRecord
100
AcDbBlockTableRecord
  2
*D7
 70
    0
280
    1
281
    0
  0
BLOCK_RECORD
  5
6B
330
1
100
AcDbSymbolTableRecord
100
AcDbBlockTableRecord
  2
*D9
 70
    0
280
    1
281
    0
  0
BLOCK_RECORD
  5
6E
330
1
100
AcDbSymbolTableRecord
100
AcDbBlockTableRecord
  2
GENAXEH
 70
    0
280
    1
281
    0
  0
BLOCK_RECORD
  5
71
330
1
100
AcDbSymbolTableRecord
100
AcDbBlockTableRecord
  2
A$C31835E99
 70
    0
280
    1
281
    0
  0
ENDTAB
  0
ENDSEC
  0
SECTION
  2
BLOCKS
  0
BLOCK
  5
20
330
1F
100
AcDbEntity
  8
0
100
AcDbBlockBegin
  2
*Model_Space
 70
    0
 10
0
 20
0
 30
0
  3
*Model_Space
  1

  0
ENDBLK
  5
21
330
1F
100
AcDbEntity
  8
0
100
AcDbBlockEnd
  0
BLOCK
  5
1C
330
1B
100
AcDbEntity
  8
0
100
AcDbBlockBegin
  2
*Paper_Space
 70
    0
 10
0
 20
0
 30
0
  3
*Paper_Space
  1

  0
ENDBLK
  5
1D
330
1F
100
AcDbEntity
  8
0
100
AcDbBlockEnd
  0
BLOCK
  5
51
330
50
100
AcDbEntity
  8
0
100
AcDbBlockBegin
  2
*D1
 70
    1
 10
0
 20
0
  3
*D1
  1

  0
LINE
  5
74
100
AcDbEntity
  8
0
  6
ByBlock
 62
    0
370
   -2
100
AcDbLine
 10
409
 20
80
 11
409
 21
80
  0
LINE
  5
75
100
AcDbEntity
  8
0
  6
ByBlock
 62
    0
370
   -2
100
AcDbLine
 10
11
 20
80
 11
11
 21
80
  0
LINE
  5
76
100
AcDbEntity
  8
0
  6
ByBlock
 62
    0
370
   -2
100
AcDbLine
 10
408
 20
80
 11
10
 21
80
  0
MTEXT
  5
77
100
AcDbEntity
  8
0
  6
CONTINUOUS
 62
    0
370
   -2
100
AcDbMText
 10
209
 20
83.25
 30
0
 40
3.5
 41
0
 71
    5
 72
    1
  1
398
  7
STANDARD
210
0
220
0
230
1
 50
0
 73
    2
 44
1
  0
SOLID
  5
78
100
AcDbEntity
  8
0
  6
ByBlock
 62
    0
370
   -2
100
AcDbTrace
 10
408
 20
80
 30
0
 11
404.5
 21
79.41720147911802
 31
0
 12
404.5
 22
80.58279852088198
 32
0
 13
404.5
 23
80.58279852088198
 33
0
  0
SOLID
  5
79
100
AcDbEntity
  8
0
  6
ByBlock
 62
    0
370
   -2
100
AcDbTrace
 10
10
 20
80
 30
0
 11
13.5
 21
80.58279852088198
 31
0
 12
13.5
 22
79.41720147911802
 32
0
 13
13.5
 23
79.41720147911802
 33
0
  0
ENDBLK
  5
52
330
50
100
AcDbEntity
  8
0
100
AcDbBlockEnd
  0
BLOCK
  5
54
330
53
100
AcDbEntity
  8
0
100
AcDbBlockBegin
  2
*D3
 70
    1
 10
0
 20
0
  3
*D3
  1

  0
LINE
  5
7A
100
AcDbEntity
  8
0
  6
ByBlock
 62
    0
370
   -2
100
AcDbLine
 10
408
 20
76
 11
408
 21
56
  0
LINE
  5
7B
100
AcDbEntity
  8
0
  6
ByBlock
 62
    0
370
   -2
100
AcDbLine
 10
328
 20
76
 11
328
 21
56
  0
LINE
  5
7C
100
AcDbEntity
  8
0
  6
ByBlock
 62
    0
370
   -2
100
AcDbLine
 10
408
 20
57
 11
328
 21
57
  0
MTEXT
  5
7D
100
AcDbEntity
  8
0
  6
CONTINUOUS
 62
    0
370
   -2
100
AcDbMText
 10
368
 20
60.25
 30
0
 40
3.5
 41
0
 71
    5
 72
    1
  1
80
  7
STANDARD
210
0
220
0
230
1
 50
0
 73
    2
 44
1
  0
SOLID
  5
7E
100
AcDbEntity
  8
0
  6
ByBlock
 62
    0
370
   -2
100
AcDbTrace
 10
408
 20
57
 30
0
 11
404.5
 21
56.41720147911802
 31
0
 12
404.5
 22
57.58279852088198
 32
0
 13
404.5
 23
57.58279852088198
 33
0
  0
SOLID
  5
7F
100
AcDbEntity
  8
0
  6
ByBlock
 62
    0
370
   -2
100
AcDbTrace
 10
328
 20
57
 30
0
 11
331.5
 21
57.58279852088198
 31
0
 12
331.5
 22
56.41720147911802
 32
0
 13
331.5
 23
56.41720147911802
 33
0
  0
ENDBLK
  5
55
330
53
100
AcDbEntity
  8
0
100
AcDbBlockEnd
  0
BLOCK
  5
57
330
56
100
AcDbEntity
  8
0
100
AcDbBlockBegin
  2
*D6
 70
    1
 10
0
 20
0
  3
*D6
  1

  0
LINE
  5
80
100
AcDbEntity
  8
0
  6
ByBlock
 62
    0
370
   -2
100
AcDbLine
 10
80
 20
76
 11
80
 21
46
  0
LINE
  5
81
100
AcDbEntity
  8
0
  6
ByBlock
 62
    0
370
   -2
100
AcDbLine
 10
10
 20
76
 11
9.999999999999995
 21
46
  0
LINE
  5
82
100
AcDbEntity
  8
0
  6
ByBlock
 62
    0
370
   -2
100
AcDbLine
 10
80
 20
47
 11
9.999999999999995
 21
47
  0
MTEXT
  5
83
100
AcDbEntity
  8
0
  6
CONTINUOUS
 62
    0
370
   -2
100
AcDbMText
 10
45
 20
50.25
 30
0
 40
3.5
 41
0
 71
    5
 72
    1
  1
70
  7
STANDARD
210
0
220
0
230
1
 50
0
 73
    2
 44
1
  0
SOLID
  5
84
100
AcDbEntity
  8
0
  6
ByBlock
 62
    0
370
   -2
100
AcDbTrace
 10
80
 20
47
 30
0
 11
76.5
 21
46.41720147911802
 31
0
 12
76.5
 22
47.58279852088198
 32
0
 13
76.5
 23
47.58279852088198
 33
0
  0
SOLID
  5
85
100
AcDbEntity
  8
0
  6
ByBlock
 62
    0
370
   -2
100
AcDbTrace
 10
9.999999999999995
 20
47
 30
0
 11
13.49999999999999
 21
47.58279852088198
 31
0
 12
13.49999999999999
 22
46.41720147911802
 32
0
 13
13.49999999999999
 23
46.41720147911802
 33
0
  0
ENDBLK
  5
58
330
56
100
AcDbEntity
  8
0
100
AcDbBlockEnd
  0
BLOCK
  5
5A
330
59
100
AcDbEntity
  8
0
100
AcDbBlockBegin
  2
*D5
 70
    1
 10
0
 20
0
  3
*D5
  1

  0
LINE
  5
86
100
AcDbEntity
  8
0
  6
ByBlock
 62
    0
370
   -2
100
AcDbLine
 10
328
 20
76
 11
328
 21
56
  0
LINE
  5
87
100
AcDbEntity
  8
0
  6
ByBlock
 62
    0
370
   -2
100
AcDbLine
 10
225
 20
76
 11
225
 21
56
  0
LINE
  5
88
100
AcDbEntity
  8
0
  6
ByBlock
 62
    0
370
   -2
100
AcDbLine
 10
328
 20
57
 11
225
 21
57
  0
MTEXT
  5
89
100
AcDbEntity
  8
0
  6
CONTINUOUS
 62
    0
370
   -2
100
AcDbMText
 10
276.5
 20
60.25
 30
0
 40
3.5
 41
0
 71
    5
 72
    1
  1
103
  7
STANDARD
210
0
220
0
230
1
 50
0
 73
    2
 44
1
  0
SOLID
  5
8A
100
AcDbEntity
  8
0
  6
ByBlock
 62
    0
370
   -2
100
AcDbTrace
 10
328
 20
57
 30
0
 11
324.5
 21
56.41720147911802
 31
0
 12
324.5
 22
57.58279852088198
 32
0
 13
324.5
 23
57.58279852088198
 33
0
  0
SOLID
  5
8B
100
AcDbEntity
  8
0
  6
ByBlock
 62
    0
370
   -2
100
AcDbTrace
 10
225
 20
57
 30
0
 11
228.5
 21
57.58279852088198
 31
0
 12
228.5
 22
56.41720147911802
 32
0
 13
228.5
 23
56.41720147911802
 33
0
  0
ENDBLK
  5
5B
330
59
100
AcDbEntity
  8
0
100
AcDbBlockEnd
  0
BLOCK
  5
5D
330
5C
100
AcDbEntity
  8
0
100
AcDbBlockBegin
  2
*D8
 70
    1
 10
0
 20
0
  3
*D8
  1

  0
LINE
  5
8C
100
AcDbEntity
  8
0
  6
ByBlock
 62
    0
370
   -2
100
AcDbLine
 10
10
 20
410
 11
408
 21
410
  0
MTEXT
  5
8D
100
AcDbEntity
  8
0
  6
CONTINUOUS
 62
    0
370
   -2
100
AcDbMText
 10
209
 20
413.25
 30
0
 40
3.5
 41
0
 71
    5
 72
    1
  1
398
  7
STANDARD
210
0
220
0
230
1
 50
0
 73
    2
 44
1
  0
SOLID
  5
8E
100
AcDbEntity
  8
0
  6
ByBlock
 62
    0
370
   -2
100
AcDbTrace
 10
10
 20
410
 30
0
 11
13.5
 21
410.582798520882
 31
0
 12
13.5
 22
409.417201479118
 32
0
 13
13.5
 23
409.417201479118
 33
0
  0
SOLID
  5
8F
100
AcDbEntity
  8
0
  6
ByBlock
 62
    0
370
   -2
100
AcDbTrace
 10
408
 20
410
 30
0
 11
404.5
 21
409.417201479118
 31
0
 12
404.5
 22
410.582798520882
 32
0
 13
404.5
 23
410.582798520882
 33
0
  0
LINE
  5
90
100
AcDbEntity
  8
0
  6
ByBlock
 62
    0
370
   -2
100
AcDbLine
 10
10
 20
402.5
 11
10
 21
411
  0
LINE
  5
91
100
AcDbEntity
  8
0
  6
ByBlock
 62
    0
370
   -2
100
AcDbLine
 10
408
 20
402.5
 11
408
 21
411
  0
ENDBLK
  5
5E
330
5C
100
AcDbEntity
  8
0
100
AcDbBlockEnd
  0
BLOCK
  5
60
330
5F
100
AcDbEntity
  8
0
100
AcDbBlockBegin
  2
*D4
 70
    1
 10
0
 20
0
  3
*D4
  1

  0
LINE
  5
92
100
AcDbEntity
  8
0
  6
ByBlock
 62
    0
370
   -2
100
AcDbLine
 10
408
 20
76
 11
408
 21
46
  0
LINE
  5
93
100
AcDbEntity
  8
0
  6
ByBlock
 62
    0
370
   -2
100
AcDbLine
 10
160
 20
76
 11
160
 21
46
  0
LINE
  5
94
100
AcDbEntity
  8
0
  6
ByBlock
 62
    0
370
   -2
100
AcDbLine
 10
408
 20
47
 11
160
 21
47
  0
MTEXT
  5
95
100
AcDbEntity
  8
0
  6
CONTINUOUS
 62
    0
370
   -2
100
AcDbMText
 10
284
 20
50.25
 30
0
 40
3.5
 41
0
 71
    5
 72
    1
  1
248
  7
STANDARD
210
0
220
0
230
1
 50
0
 73
    2
 44
1
  0
SOLID
  5
96
100
AcDbEntity
  8
0
  6
ByBlock
 62
    0
370
   -2
100
AcDbTrace
 10
408
 20
47
 30
0
 11
404.5
 21
46.41720147911802
 31
0
 12
404.5
 22
47.58279852088198
 32
0
 13
404.5
 23
47.58279852088198
 33
0
  0
SOLID
  5
97
100
AcDbEntity
  8
0
  6
ByBlock
 62
    0
370
   -2
100
AcDbTrace
 10
160
 20
47
 30
0
 11
163.5
 21
47.58279852088198
 31
0
 12
163.5
 22
46.41720147911802
 32
0
 13
163.5
 23
46.41720147911802
 33
0
  0
ENDBLK
  5
61
330
5F
100
AcDbEntity
  8
0
100
AcDbBlockEnd
  0
BLOCK
  5
63
330
62
100
AcDbEntity
  8
0
100
AcDbBlockBegin
  2
*D10
 70
    1
 10
0
 20
0
  3
*D10
  1

  0
LINE
  5
98
100
AcDbEntity
  8
0
  6
ByBlock
 62
    0
370
   -2
100
AcDbLine
 10
386
 20
450
 11
408
 21
450
  0
MTEXT
  5
99
100
AcDbEntity
  8
0
  6
CONTINUOUS
 62
    0
370
   -2
100
AcDbMText
 10
397
 20
453.25
 30
0
 40
3.5
 41
0
 71
    5
 72
    1
  1
22
  7
STANDARD
210
0
220
0
230
1
 50
0
 73
    2
 44
1
  0
SOLID
  5
9A
100
AcDbEntity
  8
0
  6
ByBlock
 62
    0
370
   -2
100
AcDbTrace
 10
386
 20
450
 30
0
 11
389.5
 21
450.582798520882
 31
0
 12
389.5
 22
449.417201479118
 32
0
 13
389.5
 23
449.417201479118
 33
0
  0
SOLID
  5
9B
100
AcDbEntity
  8
0
  6
ByBlock
 62
    0
370
   -2
100
AcDbTrace
 10
408
 20
450
 30
0
 11
404.5
 21
449.417201479118
 31
0
 12
404.5
 22
450.582798520882
 32
0
 13
404.5
 23
450.582798520882
 33
0
  0
LINE
  5
9C
100
AcDbEntity
  8
0
  6
ByBlock
 62
    0
370
   -2
100
AcDbLine
 10
386
 20
428
 11
386
 21
451
  0
LINE
  5
9D
100
AcDbEntity
  8
0
  6
ByBlock
 62
    0
370
   -2
100
AcDbLine
 10
408
 20
428
 11
408
 21
451
  0
ENDBLK
  5
64
330
62
100
AcDbEntity
  8
0
100
AcDbBlockEnd
  0
BLOCK
  5
66
330
65
100
AcDbEntity
  8
0
100
AcDbBlockBegin
  2
*D2
 70
    1
 10
0
 20
0
  3
*D2
  1

  0
LINE
  5
9E
100
AcDbEntity
  8
0
  6
ByBlock
 62
    0
370
   -2
100
AcDbLine
 10
209
 20
482
 11
209
 21
501
  0
LINE
  5
9F
100
AcDbEntity
  8
0
  6
ByBlock
 62
    0
370
   -2
100
AcDbLine
 10
408
 20
482
 11
408
 21
501
  0
LINE
  5
A0
100
AcDbEntity
  8
0
  6
ByBlock
 62
    0
370
   -2
100
AcDbLine
 10
209
 20
500
 11
408
 21
500
  0
MTEXT
  5
A1
100
AcDbEntity
  8
0
  6
CONTINUOUS
 62
    0
370
   -2
100
AcDbMText
 10
308.5
 20
503.25
 30
0
 40
3.5
 41
0
 71
    5
 72
    1
  1
199
  7
STANDARD
210
0
220
0
230
1
 50
0
 73
    2
 44
1
  0
SOLID
  5
A2
100
AcDbEntity
  8
0
  6
ByBlock
 62
    0
370
   -2
100
AcDbTrace
 10
209
 20
500
 30
0
 11
212.5
 21
500.582798520882
 31
0
 12
212.5
 22
499.417201479118
 32
0
 13
212.5
 23
499.417201479118
 33
0
  0
SOLID
  5
A3
100
AcDbEntity
  8
0
  6
ByBlock
 62
    0
370
   -2
100
AcDbTrace
 10
408
 20
500
 30
0
 11
404.5
 21
499.417201479118
 31
0
 12
404.5
 22
500.582798520882
 32
0
 13
404.5
 23
500.582798520882
 33
0
  0
ENDBLK
  5
67
330
65
100
AcDbEntity
  8
0
100
AcDbBlockEnd
  0
BLOCK
  5
69
330
68
100
AcDbEntity
  8
0
100
AcDbBlockBegin
  2
*D7
 70
    1
 10
0
 20
0
  3
*D7
  1

  0
LINE
  5
A4
100
AcDbEntity
  8
0
  6
ByBlock
 62
    0
370
   -2
100
AcDbLine
 10
80
 20
76
 11
79.99999999999999
 21
36
  0
LINE
  5
A5
100
AcDbEntity
  8
0
  6
ByBlock
 62
    0
370
   -2
100
AcDbLine
 10
408
 20
76
 11
408
 21
36
  0
LINE
  5
A6
100
AcDbEntity
  8
0
  6
ByBlock
 62
    0
370
   -2
100
AcDbLine
 10
79.99999999999999
 20
37
 11
408
 21
37
  0
MTEXT
  5
A7
100
AcDbEntity
  8
0
  6
CONTINUOUS
 62
    0
370
   -2
100
AcDbMText
 10
244
 20
40.25
 30
0
 40
3.5
 41
0
 71
    5
 72
    1
  1
328
  7
STANDARD
210
0
220
0
230
1
 50
0
 73
    2
 44
1
  0
SOLID
  5
A8
100
AcDbEntity
  8
0
  6
ByBlock
 62
    0
370
   -2
100
AcDbTrace
 10
79.99999999999999
 20
37
 30
0
 11
83.49999999999999
 21
37.58279852088198
 31
0
 12
83.49999999999999
 22
36.41720147911802
 32
0
 13
83.49999999999999
 23
36.41720147911802
 33
0
  0
SOLID
  5
A9
100
AcDbEntity
  8
0
  6
ByBlock
 62
    0
370
   -2
100
AcDbTrace
 10
408
 20
37
 30
0
 11
404.5
 21
36.41720147911802
 31
0
 12
404.5
 22
37.58279852088198
 32
0
 13
404.5
 23
37.58279852088198
 33
0
  0
ENDBLK
  5
6A
330
68
100
AcDbEntity
  8
0
100
AcDbBlockEnd
  0
BLOCK
  5
6C
330
6B
100
AcDbEntity
  8
0
100
AcDbBlockBegin
  2
*D9
 70
    1
 10
0
 20
0
  3
*D9
  1

  0
LINE
  5
AA
100
AcDbEntity
  8
0
  6
ByBlock
 62
    0
370
   -2
100
AcDbLine
 10
33
 20
450
 11
10
 21
450
  0
MTEXT
  5
AB
100
AcDbEntity
  8
0
  6
CONTINUOUS
 62
    0
370
   -2
100
AcDbMText
 10
21.5
 20
453.25
 30
0
 40
3.5
 41
0
 71
    5
 72
    1
  1
23
  7
STANDARD
210
0
220
0
230
1
 50
0
 73
    2
 44
1
  0
SOLID
  5
AC
100
AcDbEntity
  8
0
  6
ByBlock
 62
    0
370
   -2
100
AcDbTrace
 10
33
 20
450
 30
0
 11
29.5
 21
449.417201479118
 31
0
 12
29.5
 22
450.582798520882
 32
0
 13
29.5
 23
450.582798520882
 33
0
  0
SOLID
  5
AD
100
AcDbEntity
  8
0
  6
ByBlock
 62
    0
370
   -2
100
AcDbTrace
 10
10
 20
450
 30
0
 11
13.5
 21
450.582798520882
 31
0
 12
13.5
 22
449.417201479118
 32
0
 13
13.5
 23
449.417201479118
 33
0
  0
LINE
  5
AE
100
AcDbEntity
  8
0
  6
ByBlock
 62
    0
370
   -2
100
AcDbLine
 10
33
 20
428
 11
33
 21
451
  0
LINE
  5
AF
100
AcDbEntity
  8
0
  6
ByBlock
 62
    0
370
   -2
100
AcDbLine
 10
10
 20
428
 11
10
 21
451
  0
ENDBLK
  5
6D
330
6B
100
AcDbEntity
  8
0
100
AcDbBlockEnd
  0
BLOCK
  5
6F
330
6E
100
AcDbEntity
  8
0
100
AcDbBlockBegin
  2
GENAXEH
 70
    0
 10
0
 20
0
  3
GENAXEH
  1

  0
LINE
  5
B0
100
AcDbEntity
  8
0
  6
ByLayer
 62
  256
370
   -1
100
AcDbLine
 10
-1
 20
0
 11
1
 21
0
  0
ENDBLK
  5
70
330
6E
100
AcDbEntity
  8
0
100
AcDbBlockEnd
  0
BLOCK
  5
72
330
71
100
AcDbEntity
  8
0
100
AcDbBlockBegin
  2
A$C31835E99
 70
    0
 10
0
 20
0
  3
A$C31835E99
  1

  0
SPLINE
  5
B1
100
AcDbEntity
  8
IZREZ
  6
ByLayer
 62
  256
370
   -1
100
AcDbSpline
210
0
220
0
230
0
 70
   11
 71
    3
 72
  470
 73
  466
 74
    0
 42
1e-07
 43
1e-07
 40
0
 40
0
 40
0
 40
0
 40
0.00215982721382
 40
0.00431965442765
 40
0.00647948164147
 40
0.00863930885529
 40
0.0107991360691
 40
0.0129589632829
 40
0.0151187904968
 40
0.0172786177106
 40
0.0194384449244
 40
0.0215982721382
 40
0.0237580993521
 40
0.0259179265659
 40
0.0280777537797
 40
0.0302375809935
 40
0.0323974082073
 40
0.0345572354212
 40
0.036717062635
 40
0.0388768898488
 40
0.0410367170626
 40
0.0431965442765
 40
0.0453563714903
 40
0.0475161987041
 40
0.0496760259179
 40
0.0518358531317
 40
0.0539956803456
 40
0.0561555075594
 40
0.0583153347732
 40
0.060475161987
 40
0.06263498920089999
 40
0.0647948164147
 40
0.0669546436285
 40
0.0691144708423
 40
0.0712742980562
 40
0.07343412527
 40
0.07559395248380001
 40
0.0777537796976
 40
0.0799136069114
 40
0.08207343412529999
 40
0.0842332613391
 40
0.0863930885529
 40
0.0885529157667
 40
0.0907127429806
 40
0.0928725701944
 40
0.09503239740820001
 40
0.097192224622
 40
0.0993520518359
 40
0.10151187905
 40
0.103671706263
 40
0.105831533477
 40
0.107991360691
 40
0.110151187905
 40
0.112311015119
 40
0.114470842333
 40
0.116630669546
 40
0.11879049676
 40
0.120950323974
 40
0.123110151188
 40
0.125269978402
 40
0.127429805616
 40
0.129589632829
 40
0.131749460043
 40
0.133909287257
 40
0.136069114471
 40
0.138228941685
 40
0.140388768898
 40
0.142548596112
 40
0.144708423326
 40
0.14686825054
 40
0.149028077754
 40
0.151187904968
 40
0.153347732181
 40
0.155507559395
 40
0.157667386609
 40
0.159827213823
 40
0.161987041037
 40
0.164146868251
 40
0.166306695464
 40
0.168466522678
 40
0.170626349892
 40
0.172786177106
 40
0.17494600432
 40
0.177105831533
 40
0.179265658747
 40
0.181425485961
 40
0.183585313175
 40
0.185745140389
 40
0.187904967603
 40
0.190064794816
 40
0.19222462203
 40
0.194384449244
 40
0.196544276458
 40
0.198704103672
 40
0.200863930886
 40
0.203023758099
 40
0.205183585313
 40
0.207343412527
 40
0.209503239741
 40
0.211663066955
 40
0.213822894168
 40
0.215982721382
 40
0.218142548596
 40
0.22030237581
 40
0.222462203024
 40
0.224622030238
 40
0.226781857451
 40
0.228941684665
 40
0.231101511879
 40
0.233261339093
 40
0.235421166307
 40
0.237580993521
 40
0.239740820734
 40
0.241900647948
 40
0.244060475162
 40
0.246220302376
 40
0.24838012959
 40
0.250539956803
 40
0.252699784017
 40
0.254859611231
 40
0.257019438445
 40
0.259179265659
 40
0.261339092873
 40
0.263498920086
 40
0.2656587473
 40
0.267818574514
 40
0.269978401728
 40
0.272138228942
 40
0.274298056156
 40
0.276457883369
 40
0.278617710583
 40
0.280777537797
 40
0.282937365011
 40
0.285097192225
 40
0.287257019438
 40
0.289416846652
 40
0.291576673866
 40
0.29373650108
 40
0.295896328294
 40
0.298056155508
 40
0.300215982721
 40
0.302375809935
 40
0.304535637149
 40
0.306695464363
 40
0.308855291577
 40
0.31101511879
 40
0.313174946004
 40
0.315334773218
 40
0.317494600432
 40
0.319654427646
 40
0.32181425486
 40
0.323974082073
 40
0.326133909287
 40
0.328293736501
 40
0.330453563715
 40
0.332613390929
 40
0.334773218143
 40
0.336933045356
 40
0.33909287257
 40
0.341252699784
 40
0.343412526998
 40
0.345572354212
 40
0.347732181425
 40
0.349892008639
 40
0.352051835853
 40
0.354211663067
 40
0.356371490281
 40
0.358531317495
 40
0.360691144708
 40
0.362850971922
 40
0.365010799136
 40
0.36717062635
 40
0.369330453564
 40
0.371490280778
 40
0.373650107991
 40
0.375809935205
 40
0.377969762419
 40
0.380129589633
 40
0.382289416847
 40
0.38444924406
 40
0.386609071274
 40
0.388768898488
 40
0.390928725702
 40
0.393088552916
 40
0.39524838013
 40
0.397408207343
 40
0.399568034557
 40
0.401727861771
 40
0.403887688985
 40
0.406047516199
 40
0.408207343413
 40
0.410367170626
 40
0.41252699784
 40
0.414686825054
 40
0.416846652268
 40
0.419006479482
 40
0.421166306695
 40
0.423326133909
 40
0.425485961123
 40
0.427645788337
 40
0.429805615551
 40
0.431965442765
 40
0.434125269978
 40
0.436285097192
 40
0.438444924406
 40
0.44060475162
 40
0.442764578834
 40
0.444924406048
 40
0.447084233261
 40
0.449244060475
 40
0.451403887689
 40
0.453563714903
 40
0.455723542117
 40
0.45788336933
 40
0.460043196544
 40
0.462203023758
 40
0.464362850972
 40
0.466522678186
 40
0.4686825054
 40
0.470842332613
 40
0.473002159827
 40
0.475161987041
 40
0.477321814255
 40
0.479481641469
 40
0.481641468683
 40
0.483801295896
 40
0.48596112311
 40
0.488120950324
 40
0.490280777538
 40
0.492440604752
 40
0.494600431965
 40
0.496760259179
 40
0.498920086393
 40
0.501079913607
 40
0.503239740821
 40
0.505399568035
 40
0.507559395248
 40
0.509719222462
 40
0.511879049676
 40
0.5140388768900001
 40
0.516198704104
 40
0.518358531317
 40
0.520518358531
 40
0.522678185745
 40
0.524838012959
 40
0.526997840173
 40
0.529157667387
 40
0.5313174946
 40
0.533477321814
 40
0.535637149028
 40
0.537796976242
 40
0.5399568034559999
 40
0.54211663067
 40
0.5442764578830001
 40
0.546436285097
 40
0.548596112311
 40
0.550755939525
 40
0.552915766739
 40
0.555075593952
 40
0.557235421166
 40
0.55939524838
 40
0.561555075594
 40
0.563714902808
 40
0.5658747300219999
 40
0.568034557235
 40
0.5701943844489999
 40
0.572354211663
 40
0.574514038877
 40
0.576673866091
 40
0.578833693305
 40
0.580993520518
 40
0.583153347732
 40
0.585313174946
 40
0.58747300216
 40
0.589632829374
 40
0.591792656587
 40
0.593952483801
 40
0.596112311015
 40
0.5982721382290001
 40
0.600431965443
 40
0.602591792657
 40
0.60475161987
 40
0.606911447084
 40
0.609071274298
 40
0.611231101512
 40
0.613390928726
 40
0.61555075594
 40
0.617710583153
 40
0.619870410367
 40
0.622030237581
 40
0.6241900647950001
 40
0.626349892009
 40
0.6285097192220001
 40
0.630669546436
 40
0.63282937365
 40
0.634989200864
 40
0.637149028078
 40
0.639308855292
 40
0.641468682505
 40
0.643628509719
 40
0.645788336933
 40
0.647948164147
 40
0.6501079913609999
 40
0.652267818575
 40
0.6544276457879999
 40
0.656587473002
 40
0.658747300216
 40
0.66090712743
 40
0.663066954644
 40
0.665226781857
 40
0.667386609071
 40
0.669546436285
 40
0.671706263499
 40
0.673866090713
 40
0.676025917927
 40
0.67818574514
 40
0.680345572354
 40
0.682505399568
 40
0.684665226782
 40
0.686825053996
 40
0.68898488121
 40
0.691144708423
 40
0.693304535637
 40
0.695464362851
 40
0.697624190065
 40
0.699784017279
 40
0.701943844492
 40
0.704103671706
 40
0.70626349892
 40
0.7084233261340001
 40
0.710583153348
 40
0.712742980562
 40
0.714902807775
 40
0.717062634989
 40
0.719222462203
 40
0.721382289417
 40
0.723542116631
 40
0.725701943844
 40
0.727861771058
 40
0.730021598272
 40
0.732181425486
 40
0.7343412526999999
 40
0.736501079914
 40
0.7386609071270001
 40
0.740820734341
 40
0.742980561555
 40
0.745140388769
 40
0.747300215983
 40
0.749460043197
 40
0.75161987041
 40
0.753779697624
 40
0.755939524838
 40
0.758099352052
 40
0.760259179266
 40
0.762419006479
 40
0.7645788336929999
 40
0.766738660907
 40
0.768898488121
 40
0.771058315335
 40
0.773218142549
 40
0.775377969762
 40
0.777537796976
 40
0.77969762419
 40
0.781857451404
 40
0.784017278618
 40
0.786177105832
 40
0.788336933045
 40
0.790496760259
 40
0.7926565874730001
 40
0.794816414687
 40
0.796976241901
 40
0.799136069114
 40
0.801295896328
 40
0.803455723542
 40
0.805615550756
 40
0.80777537797
 40
0.809935205184
 40
0.812095032397
 40
0.814254859611
 40
0.816414686825
 40
0.8185745140389999
 40
0.820734341253
 40
0.822894168467
 40
0.82505399568
 40
0.827213822894
 40
0.829373650108
 40
0.831533477322
 40
0.833693304536
 40
0.835853131749
 40
0.838012958963
 40
0.840172786177
 40
0.842332613391
 40
0.8444924406049999
 40
0.846652267819
 40
0.8488120950319999
 40
0.850971922246
 40
0.85313174946
 40
0.855291576674
 40
0.857451403888
 40
0.859611231102
 40
0.861771058315
 40
0.863930885529
 40
0.866090712743
 40
0.868250539957
 40
0.870410367171
 40
0.872570194384
 40
0.874730021598
 40
0.8768898488120001
 40
0.879049676026
 40
0.88120950324
 40
0.883369330454
 40
0.885529157667
 40
0.887688984881
 40
0.889848812095
 40
0.892008639309
 40
0.894168466523
 40
0.896328293737
 40
0.89848812095
 40
0.900647948164
 40
0.9028077753780001
 40
0.904967602592
 40
0.907127429806
 40
0.909287257019
 40
0.911447084233
 40
0.913606911447
 40
0.915766738661
 40
0.917926565875
 40
0.920086393089
 40
0.922246220302
 40
0.924406047516
 40
0.92656587473
 40
0.9287257019439999
 40
0.930885529158
 40
0.9330453563709999
 40
0.935205183585
 40
0.937365010799
 40
0.939524838013
 40
0.941684665227
 40
0.943844492441
 40
0.946004319654
 40
0.948164146868
 40
0.950323974082
 40
0.952483801296
 40
0.95464362851
 40
0.9568034557240001
 40
0.958963282937
 40
0.961123110151
 40
0.963282937365
 40
0.965442764579
 40
0.967602591793
 40
0.969762419006
 40
0.97192224622
 40
0.974082073434
 40
0.976241900648
 40
0.978401727862
 40
0.980561555076
 40
0.982721382289
 40
0.984881209503
 40
0.9870410367170001
 40
0.989200863931
 40
0.991360691145
 40
0.993520518359
 40
0.995680345572
 40
0.997840172786
 40
1
 40
1
 40
1
 40
1
 10
28.2376777799
 20
24.3141062231
 30
0
 10
28.2376777799
 20
30.9807728897
 30
0
 10
28.2376777799
 20
37.6474395564
 30
0
 10
28.2376777799
 20
44.3141062231
 30
0
 10
28.2376777799
 20
57.4814192231
 30
0
 10
28.2376777799
 20
70.6487322231
 30
0
 10
28.2376777799
 20
83.81604522310001
 30
0
 10
26.2077944466
 20
83.8994232231
 30
0
 10
24.1779111133
 20
83.9828012231
 30
0
 10
22.1480277799
 20
84.06617922309999
 30
0
 10
22.1480277799
 20
87.41661788970001
 30
0
 10
22.1480277799
 20
90.76705655639999
 30
0
 10
22.1480277799
 20
94.11749522309999
 30
0
 10
24.1779111133
 20
94.2008732231
 30
0
 10
26.2077944466
 20
94.2842512231
 30
0
 10
28.2376777799
 20
94.3676292231
 30
0
 10
28.2376777799
 20
100.325575556
 30
0
 10
28.2376777799
 20
106.28352189
 30
0
 10
28.2376777799
 20
112.241468223
 30
0
 10
28.2376777799
 20
112.385401556
 30
0
 10
28.2376777799
 20
112.52933489
 30
0
 10
28.2376777799
 20
112.673268223
 30
0
 10
30.5771871133
 20
112.673268223
 30
0
 10
32.9166964466
 20
112.673268223
 30
0
 10
35.2562057799
 20
112.673268223
 30
0
 10
35.2562057799
 20
112.229586556
 30
0
 10
35.2562057799
 20
111.78590489
 30
0
 10
35.2562057799
 20
111.342223223
 30
0
 10
35.9895131133
 20
111.342223223
 30
0
 10
36.7228204466
 20
111.342223223
 30
0
 10
37.4561277799
 20
111.342223223
 30
0
 10
37.4561277799
 20
111.808717556
 30
0
 10
37.4561277799
 20
112.27521189
 30
0
 10
37.4561277799
 20
112.741706223
 30
0
 10
37.9370721133
 20
112.741706223
 30
0
 10
38.4180164466
 20
112.741706223
 30
0
 10
38.8989607799
 20
112.741706223
 30
0
 10
38.8989607799
 20
113.66657689
 30
0
 10
38.8989607799
 20
114.591447556
 30
0
 10
38.8989607799
 20
115.516318223
 30
0
 10
38.4180164466
 20
115.516318223
 30
0
 10
37.9370721133
 20
115.516318223
 30
0
 10
37.4561277799
 20
115.516318223
 30
0
 10
37.4561277799
 20
115.983038556
 30
0
 10
37.4561277799
 20
116.44975889
 30
0
 10
37.4561277799
 20
116.916479223
 30
0
 10
36.7228204466
 20
116.916479223
 30
0
 10
35.9895131133
 20
116.916479223
 30
0
 10
35.2562057799
 20
116.916479223
 30
0
 10
35.2562057799
 20
116.44975889
 30
0
 10
35.2562057799
 20
115.983038556
 30
0
 10
35.2562057799
 20
115.516318223
 30
0
 10
32.9166964466
 20
115.516318223
 30
0
 10
30.5771871133
 20
115.516318223
 30
0
 10
28.2376777799
 20
115.516318223
 30
0
 10
28.2376777799
 20
115.683064556
 30
0
 10
28.2376777799
 20
115.84981089
 30
0
 10
28.2376777799
 20
116.016557223
 30
0
 10
28.2376777799
 20
121.946751556
 30
0
 10
28.2376777799
 20
127.87694589
 30
0
 10
28.2376777799
 20
133.807140223
 30
0
 10
26.2077944466
 20
133.890508556
 30
0
 10
24.1779111133
 20
133.97387689
 30
0
 10
22.1480277799
 20
134.057245223
 30
0
 10
22.1480277799
 20
137.41086389
 30
0
 10
22.1480277799
 20
140.764482556
 30
0
 10
22.1480277799
 20
144.118101223
 30
0
 10
24.1779111133
 20
144.20147889
 30
0
 10
26.2077944466
 20
144.284856556
 30
0
 10
28.2376777799
 20
144.368234223
 30
0
 10
28.2376777799
 20
168.09136389
 30
0
 10
28.2376777799
 20
191.814493556
 30
0
 10
28.2376777799
 20
215.537623223
 30
0
 10
26.2077944466
 20
215.621001223
 30
0
 10
24.1779111133
 20
215.704379223
 30
0
 10
22.1480277799
 20
215.787757223
 30
0
 10
22.1480277799
 20
219.133266223
 30
0
 10
22.1480277799
 20
222.478775223
 30
0
 10
22.1480277799
 20
225.824284223
 30
0
 10
24.1779111133
 20
225.90765289
 30
0
 10
26.2077944466
 20
225.991021556
 30
0
 10
28.2376777799
 20
226.074390223
 30
0
 10
28.2376777799
 20
232.01281789
 30
0
 10
28.2376777799
 20
237.951245556
 30
0
 10
28.2376777799
 20
243.889673223
 30
0
 10
28.2376777799
 20
244.056184556
 30
0
 10
28.2376777799
 20
244.22269589
 30
0
 10
28.2376777799
 20
244.389207223
 30
0
 10
30.5771871133
 20
244.389207223
 30
0
 10
32.9166964466
 20
244.389207223
 30
0
 10
35.2562057799
 20
244.389207223
 30
0
 10
35.2562057799
 20
243.922712556
 30
0
 10
35.2562057799
 20
243.45621789
 30
0
 10
35.2562057799
 20
242.989723223
 30
0
 10
35.9895131133
 20
242.989723223
 30
0
 10
36.7228204466
 20
242.989723223
 30
0
 10
37.4561277799
 20
242.989723223
 30
0
 10
37.4561277799
 20
243.45621789
 30
0
 10
37.4561277799
 20
243.922712556
 30
0
 10
37.4561277799
 20
244.389207223
 30
0
 10
37.9370721133
 20
244.389207223
 30
0
 10
38.4180164466
 20
244.389207223
 30
0
 10
38.8989607799
 20
244.389207223
 30
0
 10
38.8989607799
 20
245.344529223
 30
0
 10
38.8989607799
 20
246.299851223
 30
0
 10
38.8989607799
 20
247.255173223
 30
0
 10
38.4180164466
 20
247.255173223
 30
0
 10
37.9370721133
 20
247.255173223
 30
0
 10
37.4561277799
 20
247.255173223
 30
0
 10
37.4561277799
 20
247.721780556
 30
0
 10
37.4561277799
 20
248.18838789
 30
0
 10
37.4561277799
 20
248.654995223
 30
0
 10
36.7228204466
 20
248.654995223
 30
0
 10
35.9895131133
 20
248.654995223
 30
0
 10
35.2562057799
 20
248.654995223
 30
0
 10
35.2562057799
 20
248.18838789
 30
0
 10
35.2562057799
 20
247.721780556
 30
0
 10
35.2562057799
 20
247.255173223
 30
0
 10
32.9166964466
 20
247.255173223
 30
0
 10
30.5771871133
 20
247.255173223
 30
0
 10
28.2376777799
 20
247.255173223
 30
0
 10
28.2376777799
 20
247.42204189
 30
0
 10
28.2376777799
 20
247.588910556
 30
0
 10
28.2376777799
 20
247.755779223
 30
0
 10
28.2376777799
 20
253.685023556
 30
0
 10
28.2376777799
 20
259.61426789
 30
0
 10
28.2376777799
 20
265.543512223
 30
0
 10
26.2077944466
 20
265.62688989
 30
0
 10
24.1779111133
 20
265.710267556
 30
0
 10
22.1480277799
 20
265.793645223
 30
0
 10
22.1480277799
 20
269.142569556
 30
0
 10
22.1480277799
 20
272.49149389
 30
0
 10
22.1480277799
 20
275.840418223
 30
0
 10
24.1779111133
 20
275.923786556
 30
0
 10
26.2077944466
 20
276.00715489
 30
0
 10
28.2376777799
 20
276.090523223
 30
0
 10
28.2376777799
 20
300.629980556
 30
0
 10
28.2376777799
 20
325.16943789
 30
0
 10
28.2376777799
 20
349.708895223
 30
0
 10
26.2077944466
 20
349.792273223
 30
0
 10
24.1779111133
 20
349.875651223
 30
0
 10
22.1480277799
 20
349.959029223
 30
0
 10
22.1480277799
 20
353.320286556
 30
0
 10
22.1480277799
 20
356.68154389
 30
0
 10
22.1480277799
 20
360.042801223
 30
0
 10
24.1779111133
 20
360.12617889
 30
0
 10
26.2077944466
 20
360.209556556
 30
0
 10
28.2376777799
 20
360.292934223
 30
0
 10
28.2376777799
 20
366.21419189
 30
0
 10
28.2376777799
 20
372.135449556
 30
0
 10
28.2376777799
 20
378.056707223
 30
0
 10
28.2376777799
 20
378.22309589
 30
0
 10
28.2376777799
 20
378.389484556
 30
0
 10
28.2376777799
 20
378.555873223
 30
0
 10
30.5771871133
 20
378.555873223
 30
0
 10
32.9166964466
 20
378.555873223
 30
0
 10
35.2562057799
 20
378.555873223
 30
0
 10
35.2562057799
 20
378.089388223
 30
0
 10
35.2562057799
 20
377.622903223
 30
0
 10
35.2562057799
 20
377.156418223
 30
0
 10
35.9895131133
 20
377.156418223
 30
0
 10
36.7228204466
 20
377.156418223
 30
0
 10
37.4561277799
 20
377.156418223
 30
0
 10
37.4561277799
 20
377.622903223
 30
0
 10
37.4561277799
 20
378.089388223
 30
0
 10
37.4561277799
 20
378.555873223
 30
0
 10
37.9370721133
 20
378.555873223
 30
0
 10
38.4180164466
 20
378.555873223
 30
0
 10
38.8989607799
 20
378.555873223
 30
0
 10
38.8989607799
 20
379.51014189
 30
0
 10
38.8989607799
 20
380.464410556
 30
0
 10
38.8989607799
 20
381.418679223
 30
0
 10
38.4180164466
 20
381.418679223
 30
0
 10
37.9370721133
 20
381.418679223
 30
0
 10
37.4561277799
 20
381.418679223
 30
0
 10
37.4561277799
 20
381.885399556
 30
0
 10
37.4561277799
 20
382.35211989
 30
0
 10
37.4561277799
 20
382.818840223
 30
0
 10
36.7228204466
 20
382.818840223
 30
0
 10
35.9895131133
 20
382.818840223
 30
0
 10
35.2562057799
 20
382.818840223
 30
0
 10
35.2562057799
 20
382.35211989
 30
0
 10
35.2562057799
 20
381.885399556
 30
0
 10
35.2562057799
 20
381.418679223
 30
0
 10
32.9166964466
 20
381.418679223
 30
0
 10
30.5771871133
 20
381.418679223
 30
0
 10
28.2376777799
 20
381.418679223
 30
0
 10
28.2376777799
 20
381.585425556
 30
0
 10
28.2376777799
 20
381.75217189
 30
0
 10
28.2376777799
 20
381.918918223
 30
0
 10
28.2376777799
 20
387.854164223
 30
0
 10
28.2376777799
 20
393.789410223
 30
0
 10
28.2376777799
 20
399.724656223
 30
0
 10
26.2077944466
 20
399.808034223
 30
0
 10
24.1779111133
 20
399.891412223
 30
0
 10
22.1480277799
 20
399.974790223
 30
0
 10
22.1480277799
 20
403.320412223
 30
0
 10
22.1480277799
 20
406.666034223
 30
0
 10
22.1480277799
 20
410.011656223
 30
0
 10
24.1779111133
 20
410.095034223
 30
0
 10
26.2077944466
 20
410.178412223
 30
0
 10
28.2376777799
 20
410.261790223
 30
0
 10
28.2376777799
 20
437.628427223
 30
0
 10
28.2376777799
 20
464.995064223
 30
0
 10
28.2376777799
 20
492.361701223
 30
0
 10
35.8585054466
 20
492.361701223
 30
0
 10
43.4793331133
 20
492.361701223
 30
0
 10
51.1001607799
 20
492.361701223
 30
0
 10
53.0457167799
 20
492.361701223
 30
0
 10
55.6612107799
 20
493.577740223
 30
0
 10
56.9125277799
 20
495.065051223
 30
0
 10
58.2002794466
 20
496.59634189
 30
0
 10
59.4880311133
 20
498.127632556
 30
0
 10
60.7757827799
 20
499.658923223
 30
0
 10
62.0263947799
 20
501.145162223
 30
0
 10
64.6418887799
 20
502.362245223
 30
0
 10
66.5885167799
 20
502.362245223
 30
0
 10
149.837727113
 20
502.362245223
 30
0
 10
233.086937447
 20
502.362245223
 30
0
 10
316.33614778
 20
502.362245223
 30
0
 10
318.28277478
 20
502.362245223
 30
0
 10
320.89753578
 20
501.145162223
 30
0
 10
322.14814678
 20
499.658923223
 30
0
 10
323.435908113
 20
498.127632556
 30
0
 10
324.723669447
 20
496.59634189
 30
0
 10
326.01143078
 20
495.065051223
 30
0
 10
327.26342478
 20
493.577740223
 30
0
 10
329.87891978
 20
492.361701223
 30
0
 10
331.82413578
 20
492.361701223
 30
0
 10
339.390626447
 20
492.361701223
 30
0
 10
346.957117113
 20
492.361701223
 30
0
 10
354.52360778
 20
492.361701223
 30
0
 10
354.52360778
 20
469.02836789
 30
0
 10
354.52360778
 20
445.695034556
 30
0
 10
354.52360778
 20
422.361701223
 30
0
 10
354.52360778
 20
418.328397556
 30
0
 10
354.52360778
 20
414.29509389
 30
0
 10
354.52360778
 20
410.261790223
 30
0
 10
356.55350078
 20
410.178412223
 30
0
 10
358.58339378
 20
410.095034223
 30
0
 10
360.61328678
 20
410.011656223
 30
0
 10
360.61328678
 20
406.666034223
 30
0
 10
360.61328678
 20
403.320412223
 30
0
 10
360.61328678
 20
399.974790223
 30
0
 10
358.583403447
 20
399.891412223
 30
0
 10
356.553520113
 20
399.808034223
 30
0
 10
354.52363678
 20
399.724656223
 30
0
 10
354.52363678
 20
393.789410223
 30
0
 10
354.52363678
 20
387.854164223
 30
0
 10
354.52363678
 20
381.918918223
 30
0
 10
354.52363678
 20
381.75217189
 30
0
 10
354.52363678
 20
381.585425556
 30
0
 10
354.52363678
 20
381.418679223
 30
0
 10
352.184249447
 20
381.418679223
 30
0
 10
349.844862113
 20
381.418679223
 30
0
 10
347.50547478
 20
381.418679223
 30
0
 10
347.50547478
 20
381.885399556
 30
0
 10
347.50547478
 20
382.35211989
 30
0
 10
347.50547478
 20
382.818840223
 30
0
 10
346.772045113
 20
382.818840223
 30
0
 10
346.038615447
 20
382.818840223
 30
0
 10
345.30518578
 20
382.818840223
 30
0
 10
345.30518578
 20
382.35211989
 30
0
 10
345.30518578
 20
381.885399556
 30
0
 10
345.30518578
 20
381.418679223
 30
0
 10
344.824354447
 20
381.418679223
 30
0
 10
344.343523113
 20
381.418679223
 30
0
 10
343.86269178
 20
381.418679223
 30
0
 10
343.86269178
 20
380.464410556
 30
0
 10
343.86269178
 20
379.51014189
 30
0
 10
343.86269178
 20
378.555873223
 30
0
 10
344.343523113
 20
378.555873223
 30
0
 10
344.824354447
 20
378.555873223
 30
0
 10
345.30518578
 20
378.555873223
 30
0
 10
345.30518578
 20
378.089388223
 30
0
 10
345.30518578
 20
377.622903223
 30
0
 10
345.30518578
 20
377.156418223
 30
0
 10
346.038615447
 20
377.156418223
 30
0
 10
346.772045113
 20
377.156418223
 30
0
 10
347.50547478
 20
377.156418223
 30
0
 10
347.50547478
 20
377.622903223
 30
0
 10
347.50547478
 20
378.089388223
 30
0
 10
347.50547478
 20
378.555873223
 30
0
 10
349.844862113
 20
378.555873223
 30
0
 10
352.184249447
 20
378.555873223
 30
0
 10
354.52363678
 20
378.555873223
 30
0
 10
354.52363678
 20
378.389484556
 30
0
 10
354.52363678
 20
378.22309589
 30
0
 10
354.52363678
 20
378.056707223
 30
0
 10
354.52363678
 20
372.135449556
 30
0
 10
354.52363678
 20
366.21419189
 30
0
 10
354.52363678
 20
360.292934223
 30
0
 10
356.553520113
 20
360.209556556
 30
0
 10
358.583403447
 20
360.12617889
 30
0
 10
360.61328678
 20
360.042801223
 30
0
 10
360.61328678
 20
356.68154389
 30
0
 10
360.61328678
 20
353.320286556
 30
0
 10
360.61328678
 20
349.959029223
 30
0
 10
358.583403447
 20
349.875651223
 30
0
 10
356.553520113
 20
349.792273223
 30
0
 10
354.52363678
 20
349.708895223
 30
0
 10
354.52363678
 20
325.16943789
 30
0
 10
354.52363678
 20
300.629980556
 30
0
 10
354.52363678
 20
276.090523223
 30
0
 10
356.553520113
 20
276.00715489
 30
0
 10
358.583403447
 20
275.923786556
 30
0
 10
360.61328678
 20
275.840418223
 30
0
 10
360.61328678
 20
272.49149389
 30
0
 10
360.61328678
 20
269.142569556
 30
0
 10
360.61328678
 20
265.793645223
 30
0
 10
358.583403447
 20
265.710267556
 30
0
 10
356.553520113
 20
265.62688989
 30
0
 10
354.52363678
 20
265.543512223
 30
0
 10
354.52363678
 20
259.61426789
 30
0
 10
354.52363678
 20
253.685023556
 30
0
 10
354.52363678
 20
247.755779223
 30
0
 10
354.52363678
 20
247.588910556
 30
0
 10
354.52363678
 20
247.42204189
 30
0
 10
354.52363678
 20
247.255173223
 30
0
 10
352.184249447
 20
247.255173223
 30
0
 10
349.844862113
 20
247.255173223
 30
0
 10
347.50547478
 20
247.255173223
 30
0
 10
347.50547478
 20
247.721780556
 30
0
 10
347.50547478
 20
248.18838789
 30
0
 10
347.50547478
 20
248.654995223
 30
0
 10
346.772045113
 20
248.654995223
 30
0
 10
346.038615447
 20
248.654995223
 30
0
 10
345.30518578
 20
248.654995223
 30
0
 10
345.30518578
 20
248.18838789
 30
0
 10
345.30518578
 20
247.721780556
 30
0
 10
345.30518578
 20
247.255173223
 30
0
 10
344.824354447
 20
247.255173223
 30
0
 10
344.343523113
 20
247.255173223
 30
0
 10
343.86269178
 20
247.255173223
 30
0
 10
343.86269178
 20
246.299851223
 30
0
 10
343.86269178
 20
245.344529223
 30
0
 10
343.86269178
 20
244.389207223
 30
0
 10
344.343523113
 20
244.389207223
 30
0
 10
344.824354447
 20
244.389207223
 30
0
 10
345.30518578
 20
244.389207223
 30
0
 10
345.30518578
 20
243.922712556
 30
0
 10
345.30518578
 20
243.45621789
 30
0
 10
345.30518578
 20
242.989723223
 30
0
 10
346.038615447
 20
242.989723223
 30
0
 10
346.772045113
 20
242.989723223
 30
0
 10
347.50547478
 20
242.989723223
 30
0
 10
347.50547478
 20
243.45621789
 30
0
 10
347.50547478
 20
243.922712556
 30
0
 10
347.50547478
 20
244.389207223
 30
0
 10
349.844862113
 20
244.389207223
 30
0
 10
352.184249447
 20
244.389207223
 30
0
 10
354.52363678
 20
244.389207223
 30
0
 10
354.52363678
 20
244.22269589
 30
0
 10
354.52363678
 20
244.056184556
 30
0
 10
354.52363678
 20
243.889673223
 30
0
 10
354.52363678
 20
237.951245556
 30
0
 10
354.52363678
 20
232.01281789
 30
0
 10
354.52363678
 20
226.074390223
 30
0
 10
356.553520113
 20
225.991021556
 30
0
 10
358.583403447
 20
225.90765289
 30
0
 10
360.61328678
 20
225.824284223
 30
0
 10
360.61328678
 20
222.47865289
 30
0
 10
360.61328678
 20
219.133021556
 30
0
 10
360.61328678
 20
215.787390223
 30
0
 10
358.583403447
 20
215.704012223
 30
0
 10
356.553520113
 20
215.620634223
 30
0
 10
354.52363678
 20
215.537256223
 30
0
 10
354.52363678
 20
191.81424889
 30
0
 10
354.52363678
 20
168.091241556
 30
0
 10
354.52363678
 20
144.368234223
 30
0
 10
356.553520113
 20
144.284856556
 30
0
 10
358.583403447
 20
144.20147889
 30
0
 10
360.61328678
 20
144.118101223
 30
0
 10
360.61328678
 20
140.764595556
 30
0
 10
360.61328678
 20
137.41108989
 30
0
 10
360.61328678
 20
134.057584223
 30
0
 10
358.583403447
 20
133.97421589
 30
0
 10
356.553520113
 20
133.890847556
 30
0
 10
354.52363678
 20
133.807479223
 30
0
 10
354.52363678
 20
127.877284556
 30
0
 10
354.52363678
 20
121.94708989
 30
0
 10
354.52363678
 20
116.016895223
 30
0
 10
354.52363678
 20
115.85014889
 30
0
 10
354.52363678
 20
115.683402556
 30
0
 10
354.52363678
 20
115.516656223
 30
0
 10
352.184249447
 20
115.516656223
 30
0
 10
349.844862113
 20
115.516656223
 30
0
 10
347.50547478
 20
115.516656223
 30
0
 10
347.50547478
 20
115.983376556
 30
0
 10
347.50547478
 20
116.45009689
 30
0
 10
347.50547478
 20
116.916817223
 30
0
 10
346.772045113
 20
116.916817223
 30
0
 10
346.038615447
 20
116.916817223
 30
0
 10
345.30518578
 20
116.916817223
 30
0
 10
345.30518578
 20
116.45009689
 30
0
 10
345.30518578
 20
115.983376556
 30
0
 10
345.30518578
 20
115.516656223
 30
0
 10
344.824354447
 20
115.516656223
 30
0
 10
344.343523113
 20
115.516656223
 30
0
 10
343.86269178
 20
115.516656223
 30
0
 10
343.86269178
 20
114.59167289
 30
0
 10
343.86269178
 20
113.666689556
 30
0
 10
343.86269178
 20
112.741706223
 30
0
 10
344.343523113
 20
112.741706223
 30
0
 10
344.824354447
 20
112.741706223
 30
0
 10
345.30518578
 20
112.741706223
 30
0
 10
345.30518578
 20
112.27521189
 30
0
 10
345.30518578
 20
111.808717556
 30
0
 10
345.30518578
 20
111.342223223
 30
0
 10
346.038615447
 20
111.342223223
 30
0
 10
346.772045113
 20
111.342223223
 30
0
 10
347.50547478
 20
111.342223223
 30
0
 10
347.50547478
 20
111.786017556
 30
0
 10
347.50547478
 20
112.22981189
 30
0
 10
347.50547478
 20
112.673606223
 30
0
 10
349.844862113
 20
112.673606223
 30
0
 10
352.184249447
 20
112.673606223
 30
0
 10
354.52363678
 20
112.673606223
 30
0
 10
354.52363678
 20
112.52967289
 30
0
 10
354.52363678
 20
112.385739556
 30
0
 10
354.52363678
 20
112.241806223
 30
0
 10
354.52363678
 20
106.283747223
 30
0
 10
354.52363678
 20
100.325688223
 30
0
 10
354.52363678
 20
94.3676292231
 30
0
 10
356.553520113
 20
94.2842512231
 30
0
 10
358.583403447
 20
94.2008732231
 30
0
 10
360.61328678
 20
94.11749522309999
 30
0
 10
360.61328678
 20
90.76705655639999
 30
0
 10
360.61328678
 20
87.41661788970001
 30
0
 10
360.61328678
 20
84.06617922309999
 30
0
 10
358.583403447
 20
83.9828012231
 30
0
 10
356.553520113
 20
83.8994232231
 30
0
 10
354.52363678
 20
83.81604522310001
 30
0
 10
354.52363678
 20
70.6487322231
 30
0
 10
354.52363678
 20
57.4814192231
 30
0
 10
354.52363678
 20
44.3141062231
 30
0
 10
354.52363678
 20
37.6474395564
 30
0
 10
354.52363678
 20
30.9807728897
 30
0
 10
354.52363678
 20
24.3141062231
 30
0
 10
346.598761437
 20
24.3141062231
 30
0
 10
338.673886094
 20
24.3141062231
 30
0
 10
330.749010751
 20
24.3141062231
 30
0
 10
328.169900632
 20
24.3141062231
 30
0
 10
326.209796344
 20
25.9903520846
 30
0
 10
325.809577438
 20
28.5382205732
 30
0
 10
325.46651135
 20
30.7222435183
 30
0
 10
325.123445262
 20
32.9062664634
 30
0
 10
324.780379175
 20
35.0902894084
 30
0
 10
324.380160918
 20
37.6381537622
 30
0
 10
322.420061425
 20
39.3143987911
 30
0
 10
319.840955491
 20
39.3144037586
 30
0
 10
234.185131248
 20
39.3144862467
 30
0
 10
148.529307005
 20
39.3145687349
 30
0
 10
62.8734827614
 20
39.3146512231
 30
0
 10
60.2943750565
 20
39.3146512231
 30
0
 10
58.3342716724
 20
37.6384080196
 30
0
 10
57.93405031
 20
35.090542361
 30
0
 10
57.5909682039
 20
32.906433269
 30
0
 10
57.2478860977
 20
30.7223241771
 30
0
 10
56.9048039916
 20
28.5382150852
 30
0
 10
56.5045826292
 20
25.9903494265
 30
0
 10
54.544479245
 20
24.3141062231
 30
0
 10
51.9653715401
 20
24.3141062231
 30
0
 10
44.0561402867
 20
24.3141062231
 30
0
 10
36.1469090333
 20
24.3141062231
 30
0
 10
28.2376777799
 20
24.3141062231
 30
0
  0
LWPOLYLINE
  5
B2
100
AcDbEntity
  8
0
  6
ByLayer
 62
  256
370
   -1
100
AcDbPolyline
 90
    4
 70
    1
 43
0
 10
0
 20
0
 10
11.5537239984
 20
0
 10
11.5537239984
 20
11.3398729487
 10
0
 20
11.3398729487
  0
ENDBLK
  5
73
330
71
100
AcDbEntity
  8
0
100
AcDbBlockEnd
  0
ENDSEC
  0
SECTION
  2
ENTITIES
  0
SPLINE
  5
B3
100
AcDbEntity
  8
HOLES
  6
ByLayer
 62
  256
370
   -1
100
AcDbSpline
210
0
220
0
230
0
 70
   11
 71
    3
 72
   17
 73
   13
 74
    0
 42
1e-07
 43
1e-07
 40
0
 40
0
 40
0
 40
0
 40
0.1
 40
0.2
 40
0.3
 40
0.4
 40
0.5
 40
0.6
 40
0.7
 40
0.8
 40
0.9
 40
1
 40
1
 40
1
 40
1
 10
336.66200579
 20
61.2008932913
 30
0
 10
335.87531179
 20
61.2008932913
 30
0
 10
335.23715079
 20
60.5627042913
 30
0
 10
335.23715079
 20
59.7760102913
 30
0
 10
335.23715079
 20
58.9893152913
 30
0
 10
335.87531179
 20
58.3511542913
 30
0
 10
336.66200579
 20
58.3511542913
 30
0
 10
337.44903879
 20
58.3511542913
 30
0
 10
338.08722779
 20
58.9893152913
 30
0
 10
338.08722779
 20
59.7760102913
 30
0
 10
338.08722779
 20
60.5627042913
 30
0
 10
337.44903879
 20
61.2008932913
 30
0
 10
336.66200579
 20
61.2008932913
 30
0
  0
SPLINE
  5
B4
100
AcDbEntity
  8
HOLES
  6
ByLayer
 62
  256
370
   -1
100
AcDbSpline
210
0
220
0
230
0
 70
   11
 71
    3
 72
   17
 73
   13
 74
    0
 42
1e-07
 43
1e-07
 40
0
 40
0
 40
0
 40
0
 40
0.1
 40
0.2
 40
0.3
 40
0.4
 40
0.5
 40
0.6
 40
0.7
 40
0.8
 40
0.9
 40
1
 40
1
 40
1
 40
1
 10
236.597760839
 20
45.6543641558
 30
0
 10
236.597760839
 20
46.4417641558
 30
0
 10
237.235921839
 20
47.0788801558
 30
0
 10
238.022616839
 20
47.0788801558
 30
0
 10
238.810016839
 20
47.0788801558
 30
0
 10
239.447471839
 20
46.4417641558
 30
0
 10
239.447471839
 20
45.6543641558
 30
0
 10
239.447471839
 20
44.8680081558
 30
0
 10
238.810016839
 20
44.2298471558
 30
0
 10
238.022616839
 20
44.2298471558
 30
0
 10
237.235921839
 20
44.2298471558
 30
0
 10
236.597760839
 20
44.8680081558
 30
0
 10
236.597760839
 20
45.6543641558
 30
0
  0
CIRCLE
  5
B5
100
AcDbEntity
  8
HOLES
  6
ByLayer
 62
  256
370
   -1
100
AcDbCircle
 10
301.15582238
 20
289.378724046
 40
2
  0
POINT
  5
B6
100
AcDbEntity
  8
0
  6
ByLayer
 62
  256
370
   -1
100
AcDbPoint
 10
50
 20
481
  0
POINT
  5
B7
100
AcDbEntity
  8
0
  6
ByLayer
 62
  256
370
   -1
100
AcDbPoint
 10
368
 20
481
  0
DIMENSION
  5
B8
100
AcDbEntity
  8
0
  6
ByLayer
 62
  256
370
   -1
100
AcDbDimension
  2
*D1
 10
10
 20
80
 30
0
 11
209
 21
83.25
 31
0
 70
   33
 71
    5
 72
    0
  3
Standard
 53
0
210
0
220
0
230
1
100
AcDbAlignedDimension
 13
408
 23
80
 33
0
 14
10
 24
80
 34
0
  0
POINT
  5
B9
100
AcDbEntity
  8
0
  6
ByLayer
 62
  256
370
   -1
100
AcDbPoint
 10
209
 20
481
  0
ARC
  5
BA
100
AcDbEntity
  8
HOLES
  6
CONTINUOUS
 62
  256
370
   -1
100
AcDbCircle
 10
239
 20
450
 40
15
100
AcDbArc
 50
270
 51
90
  0
ARC
  5
BB
100
AcDbEntity
  8
HOLES
  6
CONTINUOUS
 62
  256
370
   -1
100
AcDbCircle
 10
179
 20
450
 40
15
100
AcDbArc
 50
90
 51
270
  0
LINE
  5
BC
100
AcDbEntity
  8
HOLES
  6
ByLayer
 62
  256
370
   -1
100
AcDbLine
 10
179
 20
465
 11
239
 21
465
  0
LINE
  5
BD
100
AcDbEntity
  8
HOLES
  6
ByLayer
 62
  256
370
   -1
100
AcDbLine
 10
179
 20
435
 11
239
 21
435
  0
POINT
  5
BE
100
AcDbEntity
  8
0
  6
ByLayer
 62
  256
370
   -1
100
AcDbPoint
 10
408
 20
488
  0
DIMENSION
  5
BF
100
AcDbEntity
  8
0
  6
ByLayer
 62
  256
370
   -1
100
AcDbDimension
  2
*D2
 10
408
 20
500
 30
0
 11
308.5
 21
503.25
 31
0
 70
   33
 71
    5
  3
Standard
 53
0
210
0
220
0
230
1
100
AcDbAlignedDimension
 13
209
 23
481
 33
0
 14
408
 24
481
 34
0
  0
LWPOLYLINE
  5
C0
100
AcDbEntity
  8
HOLES
  6
ByLayer
 62
  256
370
   -1
100
AcDbPolyline
 90
    5
 70
    1
 43
0
 10
80
 20
484
 10
70
 20
484
 10
70
 20
478
 10
80
 20
478
 10
80
 20
478
  0
CIRCLE
  5
C1
100
AcDbEntity
  8
HOLES
  6
ByLayer
 62
  256
370
   -1
100
AcDbCircle
 10
50
 20
481
 40
1.5
  0
LWPOLYLINE
  5
C2
100
AcDbEntity
  8
HOLES
  6
ByLayer
 62
  256
370
   -1
100
AcDbPolyline
 90
    5
 70
    1
 43
0
 10
239
 20
484
 10
229
 20
484
 10
229
 20
478
 10
239
 20
478
 10
239
 20
478
  0
LWPOLYLINE
  5
C3
100
AcDbEntity
  8
HOLES
  6
ByLayer
 62
  256
370
   -1
100
AcDbPolyline
 90
    5
 70
    1
 43
0
 10
189
 20
484
 10
179
 20
484
 10
179
 20
478
 10
189
 20
478
 10
189
 20
478
  0
CIRCLE
  5
C4
100
AcDbEntity
  8
HOLES
  6
ByLayer
 62
  256
370
   -1
100
AcDbCircle
 10
209
 20
481
 40
1.5
  0
LWPOLYLINE
  5
C5
100
AcDbEntity
  8
HOLES
  6
ByLayer
 62
  256
370
   -1
100
AcDbPolyline
 90
    5
 70
    1
 43
0
 10
348
 20
484
 10
338
 20
484
 10
338
 20
478
 10
348
 20
478
 10
348
 20
478
  0
CIRCLE
  5
C6
100
AcDbEntity
  8
HOLES
  6
ByLayer
 62
  256
370
   -1
100
AcDbCircle
 10
368
 20
481
 40
1.5
  0
POINT
  5
C7
100
AcDbEntity
  8
0
  6
ByLayer
 62
  256
370
   -1
100
AcDbPoint
 10
408
 20
70
  0
POINT
  5
C8
100
AcDbEntity
  8
0
  6
ByLayer
 62
  256
370
   -1
100
AcDbPoint
 10
10
 20
250
  0
POINT
  5
C9
100
AcDbEntity
  8
0
  6
ByLayer
 62
  256
370
   -1
100
AcDbPoint
 10
10
 20
400
  0
POINT
  5
CA
100
AcDbEntity
  8
0
  6
ByLayer
 62
  256
370
   -1
100
AcDbPoint
 10
10
 20
100
  0
POINT
  5
CB
100
AcDbEntity
  8
0
  6
ByLayer
 62
  256
370
   -1
100
AcDbPoint
 10
408
 20
100
  0
POINT
  5
CC
100
AcDbEntity
  8
0
  6
ByLayer
 62
  256
370
   -1
100
AcDbPoint
 10
408
 20
250
  0
POINT
  5
CD
100
AcDbEntity
  8
0
  6
ByLayer
 62
  256
370
   -1
100
AcDbPoint
 10
408
 20
400
  0
LWPOLYLINE
  5
CE
100
AcDbEntity
  8
HOLES
  6
ByLayer
 62
  256
370
   -1
100
AcDbPolyline
 90
   14
 70
    1
 43
0
 10
394.9
 20
389.1
 10
394.1
 20
388.885640646
 10
393.514359354
 20
388.3
 10
393.3
 20
387.5
 10
393.3
 20
352
 10
393.514359354
 20
351.2
 10
394.1
 20
350.614359354
 10
394.9
 20
350.4
 10
395.7
 20
350.614359354
 10
396.285640646
 20
351.2
 10
396.5
 20
352
 10
396.5
 20
387.5
 10
396.285640646
 20
388.3
 10
395.7
 20
388.885640646
  0
LWPOLYLINE
  5
CF
100
AcDbEntity
  8
HOLES
  6
ByLayer
 62
  256
370
   -1
100
AcDbPolyline
 90
   14
 70
    1
 43
0
 10
393.3
 20
342
 10
393.514359354
 20
342.8
 10
394.1
 20
343.385640646
 10
394.9
 20
343.6
 10
395.7
 20
343.385640646
 10
396.285640646
 20
342.8
 10
396.5
 20
342
 10
396.5
 20
306.5
 10
396.285640646
 20
305.7
 10
395.7
 20
305.114359354
 10
394.9
 20
304.9
 10
394.1
 20
305.114359354
 10
393.514359354
 20
305.7
 10
393.3
 20
306.5
  0
LWPOLYLINE
  5
D0
100
AcDbEntity
  8
HOLES
  6
ByLayer
 62
  256
370
   -1
100
AcDbPolyline
 90
   14
 70
    1
 43
0
 10
363.9
 20
389.1
 10
364.7
 20
388.885640646
 10
365.285640646
 20
388.3
 10
365.5
 20
387.5
 10
365.5
 20
352
 10
365.285640646
 20
351.2
 10
364.7
 20
350.614359354
 10
363.9
 20
350.4
 10
363.1
 20
350.614359354
 10
362.514359354
 20
351.2
 10
362.3
 20
352
 10
362.3
 20
387.5
 10
362.514359354
 20
388.3
 10
363.1
 20
388.885640646
  0
LWPOLYLINE
  5
D1
100
AcDbEntity
  8
HOLES
  6
ByLayer
 62
  256
370
   -1
100
AcDbPolyline
 90
   14
 70
    1
 43
0
 10
365.5
 20
342
 10
365.285640646
 20
342.8
 10
364.7
 20
343.385640646
 10
363.9
 20
343.6
 10
363.1
 20
343.385640646
 10
362.514359354
 20
342.8
 10
362.3
 20
342
 10
362.3
 20
306.5
 10
362.514359354
 20
305.7
 10
363.1
 20
305.114359354
 10
363.9
 20
304.9
 10
364.7
 20
305.114359354
 10
365.285640646
 20
305.7
 10
365.5
 20
306.5
  0
LWPOLYLINE
  5
D2
100
AcDbEntity
  8
HOLES
  6
ByLayer
 62
  256
370
   -1
100
AcDbPolyline
 90
   26
 70
    1
 43
0
 10
390.025184089
 20
374.847009496
 10
388.926279442
 20
377.5
 10
387.178174593
 20
379.778174593
 10
384.9
 20
381.526279442
 10
382.247009496
 20
382.625184089
 10
379.4
 20
383
 10
376.552990504
 20
382.625184089
 10
373.9
 20
381.526279442
 10
371.621825407
 20
379.778174593
 10
369.873720558
 20
377.5
 10
368.774815911
 20
374.847009496
 10
368.4
 20
372
 10
368.4
 20
322
 10
368.774815911
 20
319.152990504
 10
369.873720558
 20
316.5
 10
371.621825407
 20
314.221825407
 10
373.9
 20
312.473720558
 10
376.552990504
 20
311.374815911
 10
379.4
 20
311
 10
382.247009496
 20
311.374815911
 10
384.9
 20
312.473720558
 10
387.178174593
 20
314.221825407
 10
388.926279442
 20
316.5
 10
390.025184089
 20
319.152990504
 10
390.4
 20
322
 10
390.4
 20
372
  0
POINT
  5
D3
100
AcDbEntity
  8
0
  6
ByLayer
 62
  256
370
   -1
100
AcDbPoint
 10
340
 20
340
  0
POINT
  5
D4
100
AcDbEntity
  8
0
  6
ByLayer
 62
  256
370
   -1
100
AcDbPoint
 10
300
 20
340
  0
POINT
  5
D5
100
AcDbEntity
  8
0
  6
ByLayer
 62
  256
370
   -1
100
AcDbPoint
 10
300
 20
300
  0
POINT
  5
D6
100
AcDbEntity
  8
0
  6
ByLayer
 62
  256
370
   -1
100
AcDbPoint
 10
340
 20
300
  0
CIRCLE
  5
D7
100
AcDbEntity
  8
HOLES
  6
ByLayer
 62
  256
370
   -1
100
AcDbCircle
 10
340
 20
340
 40
1.5
  0
CIRCLE
  5
D8
100
AcDbEntity
  8
HOLES
  6
ByLayer
 62
  256
370
   -1
100
AcDbCircle
 10
300
 20
340
 40
1.5
  0
CIRCLE
  5
D9
100
AcDbEntity
  8
HOLES
  6
ByLayer
 62
  256
370
   -1
100
AcDbCircle
 10
300
 20
300
 40
1.5
  0
CIRCLE
  5
DA
100
AcDbEntity
  8
HOLES
  6
ByLayer
 62
  256
370
   -1
100
AcDbCircle
 10
340
 20
300
 40
1.5
  0
ARC
  5
DB
100
AcDbEntity
  8
GRAVIRANJE
  6
ByLayer
 62
  256
370
   -1
100
AcDbCircle
 10
340
 20
340
 40
5
100
AcDbArc
 50
0
 51
90
  0
LINE
  5
DC
100
AcDbEntity
  8
GRAVIRANJE
  6
ByLayer
 62
  256
370
   -1
100
AcDbLine
 10
300
 20
345
 11
340
 21
345
  0
ARC
  5
DD
100
AcDbEntity
  8
GRAVIRANJE
  6
ByLayer
 62
  256
370
   -1
100
AcDbCircle
 10
300
 20
340
 40
5
100
AcDbArc
 50
90
 51
180
  0
LINE
  5
DE
100
AcDbEntity
  8
GRAVIRANJE
  6
ByLayer
 62
  256
370
   -1
100
AcDbLine
 10
295
 20
300
 11
295
 21
340
  0
ARC
  5
DF
100
AcDbEntity
  8
GRAVIRANJE
  6
ByLayer
 62
  256
370
   -1
100
AcDbCircle
 10
300
 20
300
 40
5
100
AcDbArc
 50
180
 51
270
  0
LINE
  5
E0
100
AcDbEntity
  8
GRAVIRANJE
  6
ByLayer
 62
  256
370
   -1
100
AcDbLine
 10
340
 20
295
 11
300
 21
295
  0
LINE
  5
E1
100
AcDbEntity
  8
GRAVIRANJE
  6
ByLayer
 62
  256
370
   -1
100
AcDbLine
 10
345
 20
340
 11
345
 21
300
  0
ARC
  5
E2
100
AcDbEntity
  8
GRAVIRANJE
  6
ByLayer
 62
  256
370
   -1
100
AcDbCircle
 10
340
 20
300
 40
5
100
AcDbArc
 50
270
 51
0
  0
POINT
  5
E3
100
AcDbEntity
  8
0
  6
ByLayer
 62
  256
370
   -1
100
AcDbPoint
 10
70
 20
340
  0
POINT
  5
E4
100
AcDbEntity
  8
0
  6
ByLayer
 62
  256
370
   -1
100
AcDbPoint
 10
30
 20
340
  0
POINT
  5
E5
100
AcDbEntity
  8
0
  6
ByLayer
 62
  256
370
   -1
100
AcDbPoint
 10
30
 20
300
  0
POINT
  5
E6
100
AcDbEntity
  8
0
  6
ByLayer
 62
  256
370
   -1
100
AcDbPoint
 10
70
 20
300
  0
CIRCLE
  5
E7
100
AcDbEntity
  8
HOLES
  6
ByLayer
 62
  256
370
   -1
100
AcDbCircle
 10
70
 20
340
 40
1.5
  0
CIRCLE
  5
E8
100
AcDbEntity
  8
HOLES
  6
ByLayer
 62
  256
370
   -1
100
AcDbCircle
 10
30
 20
340
 40
1.5
  0
CIRCLE
  5
E9
100
AcDbEntity
  8
HOLES
  6
ByLayer
 62
  256
370
   -1
100
AcDbCircle
 10
30
 20
300
 40
1.5
  0
CIRCLE
  5
EA
100
AcDbEntity
  8
HOLES
  6
ByLayer
 62
  256
370
   -1
100
AcDbCircle
 10
70
 20
300
 40
1.5
  0
ARC
  5
EB
100
AcDbEntity
  8
GRAVIRANJE
  6
ByLayer
 62
  256
370
   -1
100
AcDbCircle
 10
70
 20
340
 40
5
100
AcDbArc
 50
0
 51
90
  0
LINE
  5
EC
100
AcDbEntity
  8
GRAVIRANJE
  6
ByLayer
 62
  256
370
   -1
100
AcDbLine
 10
30
 20
345
 11
70
 21
345
  0
ARC
  5
ED
100
AcDbEntity
  8
GRAVIRANJE
  6
ByLayer
 62
  256
370
   -1
100
AcDbCircle
 10
30
 20
340
 40
5
100
AcDbArc
 50
90
 51
180
  0
LINE
  5
EE
100
AcDbEntity
  8
GRAVIRANJE
  6
ByLayer
 62
  256
370
   -1
100
AcDbLine
 10
25
 20
300
 11
25
 21
340
  0
ARC
  5
EF
100
AcDbEntity
  8
GRAVIRANJE
  6
ByLayer
 62
  256
370
   -1
100
AcDbCircle
 10
30
 20
300
 40
5
100
AcDbArc
 50
180
 51
270
  0
LINE
  5
F0
100
AcDbEntity
  8
GRAVIRANJE
  6
ByLayer
 62
  256
370
   -1
100
AcDbLine
 10
70
 20
295
 11
30
 21
295
  0
LINE
  5
F1
100
AcDbEntity
  8
GRAVIRANJE
  6
ByLayer
 62
  256
370
   -1
100
AcDbLine
 10
75
 20
340
 11
75
 21
300
  0
ARC
  5
F2
100
AcDbEntity
  8
GRAVIRANJE
  6
ByLayer
 62
  256
370
   -1
100
AcDbCircle
 10
70
 20
300
 40
5
100
AcDbArc
 50
270
 51
0
  0
LWPOLYLINE
  5
F3
100
AcDbEntity
  8
IZREZ
  6
ByLayer
 62
  256
370
   -1
100
AcDbPolyline
 90
  710
 70
    1
 43
0
 10
408.002313804
 20
32.8135823407
 10
408.002313804
 20
31.8265755685
 10
408.002313804
 20
31.009222264
 10
408.002313804
 20
30.3433142051
 10
408.002313804
 20
29.8052206788
 10
408.002313804
 20
29.3713109723
 10
408.002313804
 20
29.0179543725
 10
408.002313804
 20
28.7215201664
 10
408.002313804
 20
28.4583776412
 10
408.002313804
 20
28.2048964854
 10
408.002313804
 20
27.9405124427
 10
408.002313804
 20
27.6551123189
 10
408.002313804
 20
27.3408077455
 10
408.002313804
 20
26.989710354
 10
408.002313804
 20
26.5939317761
 10
408.002313804
 20
26.1455836432
 10
408.002313804
 20
25.6367775869
 10
408.002313804
 20
25.0596252386
 10
408.002313804
 20
24.5061587561
 10
408.002313804
 20
24.0141308374
 10
408.002313804
 20
23.5769676631
 10
408.002313804
 20
23.1880954131
 10
408.002313804
 20
22.8409402679
 10
408.002313804
 20
22.5289284077
 10
408.002313804
 20
22.2454860128
 10
408.002313804
 20
21.9840392634
 10
408.002313804
 20
21.7379916413
 10
408.002313804
 20
21.4997401305
 10
408.002313804
 20
21.2602975414
 10
408.002313804
 20
21.0105760388
 10
408.002313804
 20
20.7414877876
 10
408.002313804
 20
20.4439449525
 10
408.002313804
 20
20.1088596983
 10
408.002313804
 20
19.7271441898
 10
408.002313804
 20
19.2897105918
 10
408.002313804
 20
18.7886889325
 10
408.002313804
 20
18.226573562
 10
408.002313804
 20
17.6110971078
 10
408.002313804
 20
16.950032641
 10
408.002313804
 20
16.251153233
 10
408.002313804
 20
15.522231955
 10
408.002313804
 20
14.7710418783
 10
408.002313804
 20
14.0053560741
 10
408.002313804
 20
13.2329444167
 10
408.002313804
 20
12.4596946779
 10
408.002313804
 20
11.6864449391
 10
408.002313804
 20
10.9131952004
 10
408.002313804
 20
10.1399454616
 10
408.002313804
 20
9.366695722839999
 10
408.002313804
 20
8.593445984080001
 10
408.002313804
 20
7.82019624531
 10
408.002313804
 20
7.04694650654
 10
408.002034723
 20
6.27393153975
 10
407.995168294
 20
5.50645806769
 10
407.969585915
 20
4.75472907002
 10
407.912921692
 20
4.0291471459
 10
407.812809728
 20
3.34011489448
 10
407.65688413
 20
2.69803491491
 10
407.432779001
 20
2.11330980634
 10
407.128128446
 20
1.59634216793
 10
406.730566571
 20
1.15753459883
 10
406.230651907
 20
0.80482957272
 10
405.635157424
 20
0.532529445327
 10
404.956443807
 20
0.330235998718
 10
404.206876954
 20
0.18754663374
 10
403.398822757
 20
0.09405875124059999
 10
402.544647114
 20
0.0393697520674
 10
401.656715919
 20
0.0130770370676
 10
400.747395068
 20
0.00477800708864
 10
399.829009766
 20
0.00410429128661
 10
398.909823598
 20
0.00410429128661
 10
397.99063743
 20
0.00410429128661
 10
397.071451262
 20
0.00410429128661
 10
396.152265093
 20
0.00410429128661
 10
395.233078925
 20
0.00410429128661
 10
394.313892757
 20
0.00410429128661
 10
393.394706588
 20
0.00410429128661
 10
392.47552042
 20
0.00410429128661
 10
391.556713672
 20
0.00410429128661
 10
390.643377912
 20
0.00410429128661
 10
389.743794318
 20
0.00410429128661
 10
388.866304369
 20
0.00410429128661
 10
388.019249542
 20
0.00410429128661
 10
387.210971314
 20
0.00410429128661
 10
386.449811165
 20
0.00410429128661
 10
385.744110572
 20
0.00410429128661
 10
385.10221096
 20
0.00410429989287
 10
384.529616268
 20
0.00457653393842
 10
384.021363715
 20
0.00773505686347
 10
383.570077713
 20
0.0161954657349
 10
383.168382675
 20
0.0325733576196
 10
382.808903013
 20
0.0594843295844
 10
382.484263139
 20
0.0995439786963
 10
382.187087467
 20
0.155367902022
 10
381.910000409
 20
0.229571696629
 10
381.645724586
 20
0.324727970881
 10
381.390681343
 20
0.441790308593
 10
381.146028973
 20
0.579638811578
 10
380.913235613
 20
0.737017953889
 10
380.693769404
 20
0.912672209579
 10
380.489098484
 20
1.1053460527
 10
380.300690991
 20
1.31378395731
 10
380.130015065
 20
1.53673039746
 10
379.978538845
 20
1.7729298472
 10
379.847424483
 20
2.02107283056
 10
379.735451123
 20
2.27942971212
 10
379.64028034
 20
2.54607381243
 10
379.559567285
 20
2.81907731947
 10
379.49096711
 20
3.09651242123
 10
379.432134966
 20
3.37645130567
 10
379.380726004
 20
3.65696616078
 10
379.334395376
 20
3.93612917454
 10
379.290799836
 20
4.21201430856
 10
379.248179824
 20
4.48334128341
 10
379.206225052
 20
4.75043321801
 10
379.164846339
 20
5.01385785328
 10
379.123954504
 20
5.27418293012
 10
379.083460367
 20
5.53197618942
 10
379.043274747
 20
5.78780537209
 10
379.003308462
 20
6.04223821903
 10
378.963472334
 20
6.29584247114
 10
378.923679528
 20
6.54917092475
 10
378.883888164
 20
6.80249020051
 10
378.844096799
 20
7.05580947627
 10
378.804305435
 20
7.30912875203
 10
378.76451407
 20
7.56244802779
 10
378.724722706
 20
7.81576730356
 10
378.684931342
 20
8.06908657932
 10
378.645139977
 20
8.32240585508
 10
378.605348613
 20
8.57572513084
 10
378.565545715
 20
8.829117828499999
 10
378.525660861
 20
9.083032278519999
 10
378.485604878
 20
9.338036164909999
 10
378.445288587
 20
9.59469722213
 10
378.404622808
 20
9.853583184630001
 10
378.363518362
 20
10.1152617868
 10
378.321886068
 20
10.3803007632
 10
378.279636747
 20
10.6492678483
 10
378.236671342
 20
10.9227198472
 10
378.192109499
 20
11.2003491877
 10
378.143736824
 20
11.4803723895
 10
378.089208474
 20
11.7608616522
 10
378.026179605
 20
12.0398891754
 10
377.952305374
 20
12.3155271587
 10
377.865240939
 20
12.5858478017
 10
377.762641455
 20
12.8489233039
 10
377.64216208
 20
13.102825865
 10
377.501654003
 20
13.3456622476
 10
377.341174361
 20
13.5759281527
 10
377.162169608
 20
13.7923642359
 10
376.966107874
 20
13.9937149751
 10
376.754457291
 20
14.1787248484
 10
376.52868599
 20
14.3461383335
 10
376.290262103
 20
14.4946999086
 10
376.040653762
 20
14.6231540515
 10
375.781325672
 20
14.7302453421
 10
375.488356505
 20
14.8154735432
 10
375.051438681
 20
14.8809082327
 10
374.341906021
 20
14.9291651197
 10
373.231092347
 20
14.962859913
 10
371.59033148
 20
14.9846083218
 10
369.290957242
 20
14.9970260549
 10
366.204303454
 20
15.0027288214
 10
362.201703937
 20
15.0043323303
 10
357.157973682
 20
15.004417036
 10
66.89125937430001
 20
15.0046276153
 10
60.793818365
 20
15.0046333726
 10
55.7500880053
 20
15.0045583811
 10
51.7474883605
 20
15.0029625796
 10
48.6608344194
 20
14.9972657515
 10
46.3614600029
 20
14.9848524326
 10
44.7206989319
 20
14.9631071587
 10
43.6098850273
 20
14.9294144656
 10
42.9003521102
 20
14.8811588891
 10
42.4634340012
 20
14.815724965
 10
42.1704645215
 20
14.7304972291
 10
41.9111360911
 20
14.6234063136
 10
41.661527385
 20
14.4949525035
 10
41.4231031138
 20
14.346391219
 10
41.1973314136
 20
14.1789779823
 10
40.9856804202
 20
13.9939683152
 10
40.7896182698
 20
13.79261774
 10
40.6106130984
 20
13.5761817786
 10
40.4501330421
 20
13.3459159532
 10
40.3096245571
 20
13.1030796075
 10
40.1891447768
 20
12.8491769933
 10
40.0865448702
 20
12.586101227
 10
39.9994799726
 20
12.3157799814
 10
39.9256052196
 20
12.0401409296
 10
39.8625757464
 20
11.7611117443
 10
39.8080466885
 20
11.4806200986
 10
39.7596731814
 20
11.2005936653
 10
39.7151103603
 20
10.9229601173
 10
39.6721438114
 20
10.6495028224
 10
39.6298931882
 20
10.3805293943
 10
39.5882594525
 20
10.1154831588
 10
39.5471534447
 20
9.85379651387
 10
39.5064860054
 20
9.594901857489999
 10
39.466167975
 20
9.338231587559999
 10
39.426110194
 20
9.08321810204
 10
39.3862235028
 20
8.829293798849999
 10
39.34641875
 20
8.57589112636
 10
39.3066255277
 20
8.32256185864
 10
39.2668323053
 20
8.06923259093
 10
39.227039083
 20
7.81590332321
 10
39.1872458606
 20
7.56257405549
 10
39.1474526383
 20
7.30924478778
 10
39.1076594159
 20
7.05591552006
 10
39.0678661936
 20
6.80258625234
 10
39.0280729712
 20
6.54925698463
 10
38.9882783076
 20
6.29591854131
 10
38.9484403318
 20
6.04230436694
 10
38.9084722313
 20
5.78786180036
 10
38.8682848466
 20
5.53202323952
 10
38.8277890182
 20
5.27422108235
 10
38.7868955865
 20
5.0138877268
 10
38.7455153921
 20
4.75045557079
 10
38.7035592754
 20
4.48335701227
 10
38.6609380768
 20
4.21202444918
 10
38.6173415257
 20
3.93613487415
 10
38.5710100554
 20
3.65696849966
 10
38.5196004047
 20
3.37645122517
 10
38.4607677089
 20
3.09651072359
 10
38.3921671034
 20
2.81907466785
 10
38.3114537237
 20
2.54607073086
 10
38.216282705
 20
2.27942658554
 10
38.104309183
 20
2.02106990479
 10
37.9731947165
 20
1.77292722919
 10
37.821718438
 20
1.53672809491
 10
37.6510424954
 20
1.31378196319
 10
37.4626350248
 20
1.10534435611
 10
37.2579641623
 20
0.912670795715
 10
37.0384980438
 20
0.7370168040890001
 10
36.8057048055
 20
0.579637903294
 10
36.5610525833
 20
0.441789615398
 10
36.3060095133
 20
0.324727462467
 10
36.0417347399
 20
0.229571339089
 10
35.7646635332
 20
0.155367662153
 10
35.4675426488
 20
0.09954382735099999
 10
35.1430209039
 20
0.0594842417645
 10
34.7837471158
 20
0.0325733124743
 10
34.3823701017
 20
0.0161954465611
 10
33.931538679
 20
0.00773505110593
 10
33.4239016648
 20
0.00457653318956
 10
32.8521078765
 20
0.00410429989286
 10
32.2112114448
 20
0.00410429128661
 10
31.5067007121
 20
0.00410429128661
 10
30.746892698
 20
0.00410429128661
 10
29.940104473
 20
0.00410429128661
 10
29.0946531081
 20
0.00410429128661
 10
28.218855674
 20
0.00410429128661
 10
27.3210292416
 20
0.00410429128661
 10
26.4094908816
 20
0.00410429128661
 10
25.4924975414
 20
0.00410429128661
 10
24.5751258913
 20
0.00410429128661
 10
23.6577542412
 20
0.00410429128661
 10
22.7403825912
 20
0.00410429128661
 10
21.8230109411
 20
0.00410429128661
 10
20.905639291
 20
0.00410429128661
 10
19.9882676409
 20
0.00410429128661
 10
19.0708959908
 20
0.00410429128661
 10
18.1535243408
 20
0.00410429128661
 10
17.2369519768
 20
0.00477800708863
 10
16.3294261688
 20
0.0130770370676
 10
15.4432477932
 20
0.0393697520673
 10
14.5907583344
 20
0.0940587512404
 10
13.7842992766
 20
0.18754663374
 10
13.0362121043
 20
0.330235998717
 10
12.3588383017
 20
0.532529445327
 10
11.7645193533
 20
0.80482957272
 10
11.2655915456
 20
1.15753459883
 10
10.8688144765
 20
1.59634216793
 10
10.5647653168
 20
2.11330980634
 10
10.3411025822
 20
2.69803491491
 10
10.1854847884
 20
3.34011489448
 10
10.0855704509
 20
4.0291471459
 10
10.0290180855
 20
4.75472907002
 10
10.0034862078
 20
5.50645806768
 10
9.9966333334
 20
6.27393153974
 10
9.996354803599999
 20
7.04694650654
 10
9.996354803599999
 20
7.82019624531
 10
9.996354803599999
 20
8.593445984080001
 10
9.996354803599999
 20
9.366695722839999
 10
9.996354803599999
 20
10.1399454616
 10
9.996354803599999
 20
10.9131952004
 10
9.996354803599999
 20
11.6864449391
 10
9.996354803599999
 20
12.4596946779
 10
9.996354803599999
 20
13.2329444167
 10
9.996354803599999
 20
14.0053560741
 10
9.996354803599999
 20
14.7710418783
 10
9.996354803599999
 20
15.522231955
 10
9.996354803599999
 20
16.251153233
 10
9.996354803599999
 20
16.950032641
 10
9.996354803599999
 20
17.6110971078
 10
9.996354803599999
 20
18.226573562
 10
9.996354803599999
 20
18.7886889325
 10
9.996354803599999
 20
19.2897105918
 10
9.996354803599999
 20
19.7271441898
 10
9.996354803599999
 20
20.1088596983
 10
9.996354803599999
 20
20.4439449525
 10
9.996354803599999
 20
20.7414877876
 10
9.996354803599999
 20
21.0105760388
 10
9.996354803599999
 20
21.2602975414
 10
9.996354803599999
 20
21.4997401305
 10
9.996354803599999
 20
21.7379916413
 10
9.996354803599999
 20
21.9840392634
 10
9.996354803599999
 20
22.2454860128
 10
9.996354803599999
 20
22.5289284077
 10
9.996354803599999
 20
22.8409402679
 10
9.996354803599999
 20
23.1880954131
 10
9.996354803599999
 20
23.5769676631
 10
9.996354803599999
 20
24.0141308374
 10
9.996354803599999
 20
24.506158756
 10
9.996354803599999
 20
25.0596252386
 10
9.996354803599999
 20
25.4064115748
 10
9.996354803599999
 20
25.7286303015
 10
9.996354803599999
 20
26.0278664259
 10
9.996354803599999
 20
26.305704955
 10
9.996354803599999
 20
26.5637308958
 10
9.996354803599999
 20
26.8035292555
 10
9.996354803599999
 20
27.026685041
 10
9.996354803599999
 20
27.2347832595
 10
9.996354803599999
 20
27.429408918
 10
9.996354803599999
 20
27.6121470235
 10
9.996354803599999
 20
27.7845825832
 10
9.996354803599999
 20
27.948300604
 10
9.996354803599999
 20
28.1048860931
 10
9.996354803599999
 20
28.2559322947
 10
9.996354803599999
 20
28.4040291603
 10
9.996354803599999
 20
28.5537023949
 10
9.996354803599999
 20
28.7097001092
 10
9.996354803599999
 20
28.8767704139
 10
9.996354803599999
 20
29.0596614199
 10
9.996354803599999
 20
29.2631212377
 10
9.996354803599999
 20
29.4918979782
 10
9.996354803599999
 20
29.750739752
 10
9.996354803599999
 20
30.0443946699
 10
9.996354803599999
 20
30.3776108426
 10
9.996354803599999
 20
30.7551363808
 10
9.996354803599999
 20
31.1817193953
 10
9.996354803599999
 20
31.6621079968
 10
9.996354803599999
 20
32.2009118238
 10
9.996354803599999
 20
32.7995556551
 10
9.996354803599999
 20
33.4562794096
 10
9.996354803599999
 20
34.1691845341
 10
9.996354803599999
 20
34.9363724753
 10
9.996354803599999
 20
35.75594468
 10
9.996354803599999
 20
36.6260025949
 10
9.996354803599999
 20
37.5446476668
 10
9.996354803599999
 20
38.5099813424
 10
9.996354803599999
 20
39.5201050685
 10
9.996354803599999
 20
40.5731202918
 10
9.996354803599999
 20
41.6671284591
 10
9.996354803599999
 20
42.8002310172
 10
9.996354803599999
 20
43.9705294128
 10
9.996354803599999
 20
45.1771489364
 10
9.996354803599999
 20
46.4281261114
 10
9.996354803599999
 20
47.736085798
 10
9.996354803599999
 20
49.1136907764
 10
9.996354803599999
 20
50.5736038271
 10
9.996354803599999
 20
52.1284877303
 10
10
 20
70
 10
4
 20
70
 10
4
 20
80
 10
10
 20
80
 10
10
 20
98.5
 10
17
 20
98.5
 10
17
 20
97.09999999999999
 10
19
 20
97.09999999999999
 10
19
 20
98.5
 10
25
 20
98.5
 10
25
 20
100
 10
25
 20
101.5
 10
19
 20
101.5
 10
19
 20
102.9
 10
17
 20
102.9
 10
17
 20
101.5
 10
10
 20
101.5
 10
10
 20
120
 10
4
 20
120
 10
4
 20
130
 10
10
 20
130
 10
10
 20
220
 10
4
 20
220
 10
4
 20
230
 10
10
 20
230
 10
10
 20
248.5
 10
17
 20
248.5
 10
17
 20
247.1
 10
19
 20
247.1
 10
19
 20
248.5
 10
25
 20
248.5
 10
25
 20
250
 10
25
 20
251.5
 10
19
 20
251.5
 10
19
 20
252.9
 10
17
 20
252.9
 10
17
 20
251.5
 10
10
 20
251.5
 10
10
 20
270
 10
4
 20
270
 10
4
 20
280
 10
10
 20
280
 10
10
 20
370
 10
4
 20
370
 10
4
 20
380
 10
10
 20
380
 10
10
 20
398.5
 10
17
 20
398.5
 10
17
 20
397.1
 10
19
 20
397.1
 10
19
 20
398.5
 10
25
 20
398.5
 10
25
 20
400
 10
25
 20
401.5
 10
19
 20
401.5
 10
19
 20
402.9
 10
17
 20
402.9
 10
17
 20
401.5
 10
10
 20
401.5
 10
10
 20
420
 10
4
 20
420
 10
4
 20
430
 10
10
 20
430
 10
9.996354803599999
 20
442.245106093
 10
9.996354803599999
 20
445.643215798
 10
9.996354803599999
 20
449.041325503
 10
9.996689423899999
 20
452.438233576
 10
10.0048316868
 20
455.807104154
 10
10.0350961935
 20
459.096533044
 10
10.1020727673
 20
462.254127721
 10
10.2203512314
 20
465.227495662
 10
10.4045214093
 20
467.964244341
 10
10.6691731242
 20
470.411981235
 10
11.0288961995
 20
472.51831382
 10
11.497798419
 20
474.23258059
 10
12.0766935973
 20
475.551859111
 10
12.7517458903
 20
476.525834343
 10
13.5083654746
 20
477.206898812
 10
14.331962527
 20
477.647445041
 10
15.207947224
 20
477.899865555
 10
16.1217297425
 20
478.016552878
 10
17.0587202589
 20
478.049899534
 10
18.0044956869
 20
478.051699291
 10
18.9507722958
 20
478.051699291
 10
19.8970489047
 20
478.051699291
 10
20.8433255136
 20
478.051699291
 10
21.7896021225
 20
478.051699291
 10
22.7358787314
 20
478.051699291
 10
23.6821553404
 20
478.051699291
 10
24.6284319493
 20
478.051699291
 10
25.5746269841
 20
478.051699291
 10
26.5164719773
 20
478.051699291
 10
27.4435858886
 20
478.051699291
 10
28.3451035973
 20
478.051699291
 10
29.2101599831
 20
478.051699291
 10
30.0278899253
 20
478.051699291
 10
30.7874283036
 20
478.051699291
 10
31.4779099973
 20
478.051699291
 10
32.0885758707
 20
478.051710013
 10
32.6167146788
 20
478.052556335
 10
33.0731716189
 20
478.056434557
 10
33.4700943856
 20
478.065672747
 10
33.8196306736
 20
478.08259897
 10
34.1339281778
 20
478.109541294
 10
34.4251345928
 20
478.148827784
 10
34.7053976133
 20
478.202786509
 10
34.9868237384
 20
478.27373491
 10
35.2764768234
 20
478.362690067
 10
35.5715958254
 20
478.468135477
 10
35.8682864984
 20
478.588262416
 10
36.1626545962
 20
478.721262158
 10
36.4508058728
 20
478.865325978
 10
36.7288460821
 20
479.018645151
 10
36.9928809779
 20
479.17941095
 10
37.2390244842
 20
479.345816359
 10
37.4652297024
 20
479.51643854
 10
37.6736070895
 20
479.690723082
 10
37.8668380703
 20
479.868234841
 10
38.0476040697
 20
480.048538673
 10
38.2185865126
 20
480.231199435
 10
38.3824668238
 20
480.415781983
 10
38.5419264281
 20
480.601851173
 10
38.6996454415
 20
480.788972028
 10
38.8576265525
 20
480.976795987
 10
39.0160897702
 20
481.165201888
 10
39.1749653414
 20
481.354105534
 10
39.3341835132
 20
481.543422727
 10
39.4936745328
 20
481.73306927
 10
39.653368647
 20
481.922960966
 10
39.8131961029
 20
482.113013616
 10
39.9730871556
 20
482.303143032
 10
40.132987016
 20
482.49328308
 10
40.2928868764
 20
482.683423128
 10
40.4527867369
 20
482.873563176
 10
40.6126865973
 20
483.063703224
 10
40.7725864577
 20
483.253843273
 10
40.9324863181
 20
483.443983321
 10
41.0923861786
 20
483.634123369
 10
41.2522860385
 20
483.824263416
 10
41.4121727651
 20
484.014387533
 10
41.5719859086
 20
484.20442239
 10
41.7316543665
 20
484.394281739
 10
41.8911070361
 20
484.58387933
 10
42.0502728147
 20
484.773128912
 10
42.2090805996
 20
484.961944236
 10
42.3674592882
 20
485.150239051
 10
42.5253377778
 20
485.337927109
 10
42.6830790141
 20
485.524868156
 10
42.8428818159
 20
485.710693531
 10
43.0074303045
 20
485.894974196
 10
43.1794086042
 20
486.077281108
 10
43.3615008392
 20
486.257185229
 10
43.5563911338
 20
486.434257517
 10
43.7667636123
 20
486.608068932
 10
43.9953023989
 20
486.778190434
 10
44.2438157593
 20
486.944008463
 10
44.5097598017
 20
487.103992579
 10
44.7892413934
 20
487.256328093
 10
45.078366991
 20
487.39920023
 10
45.373243051
 20
487.530794216
 10
45.6699760297
 20
487.649295275
 10
45.9646723838
 20
487.752888632
 10
46.2534385698
 20
487.839759513
 10
46.5503019913
 20
487.908555007
 10
46.9741297721
 20
487.960624167
 10
47.6818004617
 20
487.998295692
 10
48.8302456955
 20
488.023899646
 10
50.576397109
 20
488.039766095
 10
53.0771863377
 20
488.048225103
 10
56.4895450169
 20
488.051606737
 10
60.9704047821
 20
488.052241061
 10
348.116803884
 20
488.052243291
 10
354.397226227
 20
488.052243291
 10
359.491972442
 20
488.052131408
 10
363.438870378
 20
488.050465396
 10
366.392811049
 20
488.044930393
 10
368.510724691
 20
488.033196332
 10
369.949541538
 20
488.012933148
 10
370.866191827
 20
487.981810777
 10
371.417605794
 20
487.937499152
 10
371.760713676
 20
487.877668209
 10
372.046451833
 20
487.800142362
 10
372.338502564
 20
487.704994826
 10
372.634602347
 20
487.593998438
 10
372.930860442
 20
487.468967972
 10
373.223386107
 20
487.331718204
 10
373.508288603
 20
487.184063908
 10
373.781677188
 20
487.02781986
 10
374.039661122
 20
486.864800834
 10
374.278535432
 20
486.696782445
 10
374.497959487
 20
486.52483108
 10
374.700518499
 20
486.34939634
 10
374.888895213
 20
486.170907265
 10
375.06577237
 20
485.989792896
 10
375.233832715
 20
485.806482273
 10
375.395758991
 20
485.621404436
 10
375.554233941
 20
485.434988425
 10
375.711882936
 20
485.24765614
 10
375.870011786
 20
485.059665226
 10
376.02860674
 20
484.871109074
 10
376.187596676
 20
484.682073934
 10
376.34691047
 20
484.492646056
 10
376.506476998
 20
484.30291169
 10
376.666225139
 20
484.112957086
 10
376.826083769
 20
483.922868493
 10
376.98598282
 20
483.732730882
 10
377.145883881
 20
483.542590834
 10
377.305784941
 20
483.352450786
 10
377.465686002
 20
483.162310738
 10
377.625587063
 20
482.97217069
 10
377.785488124
 20
482.782030642
 10
377.945389184
 20
482.591890593
 10
378.105290245
 20
482.401750545
 10
378.265190613
 20
482.211611349
 10
378.425061516
 20
482.021508383
 10
378.584837032
 20
481.831522705
 10
378.744448684
 20
481.641738515
 10
378.903827998
 20
481.452240009
 10
379.062906498
 20
481.263111385
 10
379.221615708
 20
481.074436841
 10
379.379887154
 20
480.886300575
 10
379.537670283
 20
480.698789072
 10
379.69594343
 20
480.512120253
 10
379.857253528
 20
480.326712408
 10
380.024279431
 20
480.143000681
 10
380.199699992
 20
479.961420217
 10
380.386194063
 20
479.782406158
 10
380.586440498
 20
479.606393649
 10
380.80311815
 20
479.433817832
 10
381.038880234
 20
479.265119211
 10
381.294152567
 20
479.101203791
 10
381.565440191
 20
478.943796986
 10
381.848849499
 20
478.794707519
 10
382.140486887
 20
478.655744117
 10
382.436458751
 20
478.528715505
 10
382.732871486
 20
478.415430408
 10
383.025831486
 20
478.317697551
 10
383.311478559
 20
478.237316989
 10
383.590793035
 20
478.174832435
 10
383.874619185
 20
478.128227461
 10
384.175001981
 20
478.095174
 10
384.503986396
 20
478.073343986
 10
384.873617402
 20
478.060409352
 10
385.295939969
 20
478.054042031
 10
385.782999072
 20
478.051913957
 10
386.346817855
 20
478.051699291
 10
386.993276167
 20
478.051699291
 10
387.713715219
 20
478.051699291
 10
388.497373266
 20
478.051699291
 10
389.333488564
 20
478.051699291
 10
390.211299367
 20
478.051699291
 10
391.120043929
 20
478.051699291
 10
392.048960507
 20
478.051699291
 10
392.987290908
 20
478.051699291
 10
393.926820502
 20
478.051699291
 10
394.866350097
 20
478.051699291
 10
395.805879692
 20
478.051699291
 10
396.745409287
 20
478.051699291
 10
397.684938881
 20
478.051699291
 10
398.624468476
 20
478.051699291
 10
399.563998071
 20
478.051699291
 10
400.503526761
 20
478.051696502
 10
401.44008225
 20
478.042525036
 10
402.361107616
 20
477.985462212
 10
403.252117064
 20
477.835837134
 10
404.098624797
 20
477.548978903
 10
404.886145016
 20
477.080216623
 10
405.600191926
 20
476.384879395
 10
406.22627973
 20
475.418296323
 10
406.749922661
 20
474.135796605
 10
407.161737977
 20
472.508445999
 10
407.471647396
 20
470.566840824
 10
407.694136715
 20
468.355651978
 10
407.843691731
 20
465.919550357
 10
407.934798241
 20
463.303206859
 10
407.981942041
 20
460.551292382
 10
407.999608929
 20
457.708477823
 10
408.002284701
 20
454.81943408
 10
408.002284804
 20
451.92213918
 10
408.002284804
 20
449.024843964
 10
408.002284804
 20
446.127548748
 10
408.002284804
 20
443.230253531
 10
408
 20
430
 10
414
 20
430
 10
414
 20
420
 10
408
 20
420
 10
408
 20
401.5
 10
401
 20
401.5
 10
401
 20
402.9
 10
399
 20
402.9
 10
399
 20
401.5
 10
393
 20
401.5
 10
393
 20
400
 10
393
 20
398.5
 10
399
 20
398.5
 10
399
 20
397.1
 10
401
 20
397.1
 10
401
 20
398.5
 10
408
 20
398.5
 10
408
 20
380
 10
414
 20
380
 10
414
 20
370
 10
408
 20
370
 10
408
 20
280
 10
414
 20
280
 10
414
 20
270
 10
408
 20
270
 10
408
 20
251.5
 10
401
 20
251.5
 10
401
 20
252.9
 10
399
 20
252.9
 10
399
 20
251.5
 10
393
 20
251.5
 10
393
 20
250
 10
393
 20
248.5
 10
399
 20
248.5
 10
399
 20
247.1
 10
401
 20
247.1
 10
401
 20
248.5
 10
408
 20
248.5
 10
408
 20
230
 10
414
 20
230
 10
414
 20
220
 10
408
 20
220
 10
408
 20
130
 10
414
 20
130
 10
414
 20
120
 10
408
 20
120
 10
408
 20
101.5
 10
401
 20
101.5
 10
401
 20
102.9
 10
399
 20
102.9
 10
399
 20
101.5
 10
393
 20
101.5
 10
393
 20
100
 10
393
 20
98.5
 10
399
 20
98.5
 10
399
 20
97.09999999999999
 10
401
 20
97.09999999999999
 10
401
 20
98.5
 10
408
 20
98.5
 10
408
 20
80
 10
414
 20
80
 10
414
 20
70
 10
408
 20
70
 10
408.002313804
 20
38.1201419353
 10
408.002313804
 20
36.6338226465
 10
408.002313804
 20
35.2392542584
 10
408.002313804
 20
33.95848981
  0
CIRCLE
  5
F4
100
AcDbEntity
  8
HOLES
  6
ByLayer
 62
  256
370
   -1
100
AcDbCircle
 10
160
 20
77
 40
1.6
  0
LWPOLYLINE
  5
F5
100
AcDbEntity
  8
HOLES
  6
ByLayer
 62
  256
370
   -1
100
AcDbPolyline
 90
    5
 70
    1
 43
0
 10
358
 20
80
 10
348
 20
80
 10
348
 20
74
 10
358
 20
74
 10
358
 20
74
  0
LWPOLYLINE
  5
F6
100
AcDbEntity
  8
HOLES
  6
ByLayer
 62
  256
370
   -1
100
AcDbPolyline
 90
    5
 70
    1
 43
0
 10
308
 20
80
 10
298
 20
80
 10
298
 20
74
 10
308
 20
74
 10
308
 20
74
  0
CIRCLE
  5
F7
100
AcDbEntity
  8
HOLES
  6
ByLayer
 62
  256
370
   -1
100
AcDbCircle
 10
328
 20
77
 40
1.5
  0
LWPOLYLINE
  5
F8
100
AcDbEntity
  8
HOLES
  6
ByLayer
 62
  256
370
   -1
100
AcDbPolyline
 90
    5
 70
    1
 43
0
 10
255
 20
80
 10
245
 20
80
 10
245
 20
74
 10
255
 20
74
 10
255
 20
74
  0
LWPOLYLINE
  5
F9
100
AcDbEntity
  8
HOLES
  6
ByLayer
 62
  256
370
   -1
100
AcDbPolyline
 90
    5
 70
    1
 43
0
 10
205
 20
80
 10
195
 20
80
 10
195
 20
74
 10
205
 20
74
 10
205
 20
74
  0
CIRCLE
  5
FA
100
AcDbEntity
  8
HOLES
  6
ByLayer
 62
  256
370
   -1
100
AcDbCircle
 10
225
 20
77
 40
1.5
  0
LWPOLYLINE
  5
FB
100
AcDbEntity
  8
HOLES
  6
ByLayer
 62
  256
370
   -1
100
AcDbPolyline
 90
    5
 70
    1
 43
0
 10
140
 20
80
 10
130
 20
80
 10
130
 20
74
 10
140
 20
74
 10
140
 20
74
  0
LWPOLYLINE
  5
FC
100
AcDbEntity
  8
HOLES
  6
ByLayer
 62
  256
370
   -1
100
AcDbPolyline
 90
    5
 70
    1
 43
0
 10
60
 20
80
 10
50
 20
80
 10
50
 20
74
 10
60
 20
74
 10
60
 20
74
  0
CIRCLE
  5
FD
100
AcDbEntity
  8
HOLES
  6
ByLayer
 62
  256
370
   -1
100
AcDbCircle
 10
80
 20
77
 40
1.5
  0
LWPOLYLINE
  5
FE
100
AcDbEntity
  8
HOLES
  6
ByLayer
 62
  256
370
   -1
100
AcDbPolyline
 90
   14
 70
    1
 43
0
 10
93.75
 20
78.299038106
 10
94.299038106
 20
77.75
 10
94.5
 20
77
 10
94.5
 20
47
 10
94.299038106
 20
46.25
 10
93.75
 20
45.700961894
 10
93
 20
45.5
 10
92.25
 20
45.700961894
 10
91.70096189429999
 20
46.25
 10
91.5
 20
47
 10
91.5
 20
77
 10
91.70096189429999
 20
77.75
 10
92.25
 20
78.299038106
 10
93
 20
78.5
  0
LWPOLYLINE
  5
FF
100
AcDbEntity
  8
HOLES
  6
ByLayer
 62
  256
370
   -1
100
AcDbPolyline
 90
   14
 70
    1
 43
0
 10
103.35
 20
78.299038106
 10
103.899038106
 20
77.75
 10
104.1
 20
77
 10
104.1
 20
47
 10
103.899038106
 20
46.25
 10
103.35
 20
45.700961894
 10
102.6
 20
45.5
 10
101.85
 20
45.700961894
 10
101.300961894
 20
46.25
 10
101.1
 20
47
 10
101.1
 20
77
 10
101.300961894
 20
77.75
 10
101.85
 20
78.299038106
 10
102.6
 20
78.5
  0
LWPOLYLINE
  5
100
100
AcDbEntity
  8
HOLES
  6
ByLayer
 62
  256
370
   -1
100
AcDbPolyline
 90
   14
 70
    1
 43
0
 10
112.75
 20
78.299038106
 10
113.299038106
 20
77.75
 10
113.5
 20
77
 10
113.5
 20
47
 10
113.299038106
 20
46.25
 10
112.75
 20
45.700961894
 10
112
 20
45.5
 10
111.25
 20
45.700961894
 10
110.700961894
 20
46.25
 10
110.5
 20
47
 10
110.5
 20
77
 10
110.700961894
 20
77.75
 10
111.25
 20
78.299038106
 10
112
 20
78.5
  0
POINT
  5
101
100
AcDbEntity
  8
0
  6
ByLayer
 62
  256
370
   -1
100
AcDbPoint
 10
328
 20
77
  0
POINT
  5
102
100
AcDbEntity
  8
0
  6
ByLayer
 62
  256
370
   -1
100
AcDbPoint
 10
160
 20
77
  0
DIMENSION
  5
103
100
AcDbEntity
  8
0
  6
ByLayer
 62
  256
370
   -1
100
AcDbDimension
  2
*D3
 10
328
 20
57
 30
0
 11
368
 21
60.25
 31
0
 70
   33
 71
    5
  3
Standard
 53
0
210
0
220
0
230
1
100
AcDbAlignedDimension
 13
408
 23
77
 33
0
 14
328
 24
77
 34
0
  0
DIMENSION
  5
104
100
AcDbEntity
  8
0
  6
ByLayer
 62
  256
370
   -1
100
AcDbDimension
  2
*D4
 10
160
 20
47
 30
0
 11
284
 21
50.25
 31
0
 70
   33
 71
    5
  3
Standard
 53
0
210
0
220
0
230
1
100
AcDbAlignedDimension
 13
408
 23
77
 33
0
 14
160
 24
77
 34
0
  0
POINT
  5
105
100
AcDbEntity
  8
0
  6
ByLayer
 62
  256
370
   -1
100
AcDbPoint
 10
225
 20
77
  0
DIMENSION
  5
106
100
AcDbEntity
  8
0
  6
ByLayer
 62
  256
370
   -1
100
AcDbDimension
  2
*D5
 10
225
 20
57
 30
0
 11
276.5
 21
60.25
 31
0
 70
   33
 71
    5
  3
Standard
 53
0
210
0
220
0
230
1
100
AcDbAlignedDimension
 13
328
 23
77
 33
0
 14
225
 24
77
 34
0
  0
POINT
  5
107
100
AcDbEntity
  8
0
  6
ByLayer
 62
  256
370
   -1
100
AcDbPoint
 10
80
 20
77
  0
DIMENSION
  5
108
100
AcDbEntity
  8
0
  6
ByLayer
 62
  256
370
   -1
100
AcDbDimension
  2
*D6
 10
10
 20
47
 30
0
 11
45
 21
50.25
 31
0
 70
   33
 71
    5
  3
Standard
 53
0
210
0
220
0
230
1
100
AcDbAlignedDimension
 13
80
 23
77
 33
0
 14
10
 24
77
 34
0
  0
DIMENSION
  5
109
100
AcDbEntity
  8
0
  6
ByLayer
 62
  256
370
   -1
100
AcDbDimension
  2
*D7
 10
408
 20
37
 30
0
 11
244
 21
40.25
 31
0
 70
   33
 71
    5
  3
Standard
 53
0
210
0
220
0
230
1
100
AcDbAlignedDimension
 13
80
 23
77
 33
0
 14
408
 24
77
 34
0
  0
ARC
  5
10A
100
AcDbEntity
  8
HOLES
  6
ByLayer
 62
  256
370
   -1
100
AcDbCircle
 10
47.0126452538
 20
448.893025085
 40
1.5
100
AcDbArc
 50
89.765555991
 51
90
  0
DIMENSION
  5
10B
100
AcDbEntity
  8
0
  6
ByLayer
 62
  256
370
   -1
100
AcDbDimension
  2
*D8
 10
408
 20
410
 30
0
 11
209
 21
413.25
 31
0
 70
   32
 71
    5
 72
    0
  3
Standard
 53
0
210
0
220
0
230
1
100
AcDbAlignedDimension
 13
10
 23
401.5
 33
0
 14
408
 24
401.5
 34
0
100
AcDbRotatedDimension
  0
CIRCLE
  5
10C
100
AcDbEntity
  8
HOLES
  6
ByLayer
 62
  256
370
   -1
100
AcDbCircle
 10
48.5
 20
442.5
 40
1.6
  0
CIRCLE
  5
10D
100
AcDbEntity
  8
HOLES
  6
ByLayer
 62
  256
370
   -1
100
AcDbCircle
 10
17.5
 20
442.5
 40
1.6
  0
CIRCLE
  5
10E
100
AcDbEntity
  8
HOLES
  6
ByLayer
 62
  256
370
   -1
100
AcDbCircle
 10
17.5
 20
411.5
 40
1.6
  0
CIRCLE
  5
10F
100
AcDbEntity
  8
HOLES
  6
ByLayer
 62
  256
370
   -1
100
AcDbCircle
 10
48.5
 20
411.5
 40
1.6
  0
CIRCLE
  5
110
100
AcDbEntity
  8
HOLES
  6
ByLayer
 62
  256
370
   -1
100
AcDbCircle
 10
33
 20
439.7
 40
1.5
  0
CIRCLE
  5
111
100
AcDbEntity
  8
HOLES
  6
ByLayer
 62
  256
370
   -1
100
AcDbCircle
 10
33
 20
414.3
 40
1.5
  0
POINT
  5
112
100
AcDbEntity
  8
0
  6
ByLayer
 62
  256
370
   -1
100
AcDbPoint
 10
33
 20
427
  0
DIMENSION
  5
113
100
AcDbEntity
  8
0
  6
ByLayer
 62
  256
370
   -1
100
AcDbDimension
  2
*D9
 10
10
 20
450
 30
0
 11
21.5
 21
453.25
 31
0
 70
   32
 71
    5
 72
    0
  3
Standard
 53
0
210
0
220
0
230
1
100
AcDbAlignedDimension
 13
33
 23
427
 33
0
 14
10
 24
427
 34
0
100
AcDbRotatedDimension
  0
POINT
  5
114
100
AcDbEntity
  8
0
  6
ByLayer
 62
  256
370
   -1
100
AcDbPoint
 10
386
 20
427
  0
CIRCLE
  5
115
100
AcDbEntity
  8
HOLES
  6
ByLayer
 62
  256
370
   -1
100
AcDbCircle
 10
401.5
 20
442.5
 40
1.6
  0
CIRCLE
  5
116
100
AcDbEntity
  8
HOLES
  6
ByLayer
 62
  256
370
   -1
100
AcDbCircle
 10
370.5
 20
442.5
 40
1.6
  0
CIRCLE
  5
117
100
AcDbEntity
  8
HOLES
  6
ByLayer
 62
  256
370
   -1
100
AcDbCircle
 10
370.5
 20
411.5
 40
1.6
  0
CIRCLE
  5
118
100
AcDbEntity
  8
HOLES
  6
ByLayer
 62
  256
370
   -1
100
AcDbCircle
 10
401.5
 20
411.5
 40
1.6
  0
CIRCLE
  5
119
100
AcDbEntity
  8
HOLES
  6
ByLayer
 62
  256
370
   -1
100
AcDbCircle
 10
386
 20
439.7
 40
1.5
  0
CIRCLE
  5
11A
100
AcDbEntity
  8
HOLES
  6
ByLayer
 62
  256
370
   -1
100
AcDbCircle
 10
386
 20
414.3
 40
1.5
  0
DIMENSION
  5
11B
100
AcDbEntity
  8
0
  6
ByLayer
 62
  256
370
   -1
100
AcDbDimension
  2
*D10
 10
408
 20
450
 30
0
 11
397
 21
453.25
 31
0
 70
   32
 71
    5
 72
    0
  3
Standard
 53
0
210
0
220
0
230
1
100
AcDbAlignedDimension
 13
386
 23
427
 33
0
 14
408
 24
427
 34
0
100
AcDbRotatedDimension
  0
CIRCLE
  5
11C
100
AcDbEntity
  8
HOLES
  6
ByLayer
 62
  256
370
   -1
100
AcDbCircle
 10
386
 20
427
 40
7.9
  0
CIRCLE
  5
11D
100
AcDbEntity
  8
HOLES
  6
ByLayer
 62
  256
370
   -1
100
AcDbCircle
 10
33
 20
427
 40
7.9
  0
CIRCLE
  5
11E
100
AcDbEntity
  8
HOLES
  6
ByLayer
 62
  256
370
   -1
100
AcDbCircle
 10
300
 20
270
 40
8
  0
CIRCLE
  5
11F
100
AcDbEntity
  8
HOLES
  6
ByLayer
 62
  256
370
   -1
100
AcDbCircle
 10
304
 20
250
 40
2
  0
CIRCLE
  5
120
100
AcDbEntity
  8
HOLES
  6
ByLayer
 62
  256
370
   -1
100
AcDbCircle
 10
296
 20
250
 40
2
  0
CIRCLE
  5
121
100
AcDbEntity
  8
HOLES
  6
ByLayer
 62
  256
370
   -1
100
AcDbCircle
 10
304
 20
100
 40
2
  0
CIRCLE
  5
122
100
AcDbEntity
  8
HOLES
  6
ByLayer
 62
  256
370
   -1
100
AcDbCircle
 10
296
 20
100
 40
2
  0
CIRCLE
  5
123
100
AcDbEntity
  8
HOLES
  6
ByLayer
 62
  256
370
   -1
100
AcDbCircle
 10
304
 20
130
 40
2
  0
CIRCLE
  5
124
100
AcDbEntity
  8
HOLES
  6
ByLayer
 62
  256
370
   -1
100
AcDbCircle
 10
296
 20
130
 40
2
  0
CIRCLE
  5
125
100
AcDbEntity
  8
HOLES
  6
ByLayer
 62
  256
370
   -1
100
AcDbCircle
 10
304
 20
160
 40
2
  0
CIRCLE
  5
126
100
AcDbEntity
  8
HOLES
  6
ByLayer
 62
  256
370
   -1
100
AcDbCircle
 10
296
 20
160
 40
2
  0
CIRCLE
  5
127
100
AcDbEntity
  8
HOLES
  6
ByLayer
 62
  256
370
   -1
100
AcDbCircle
 10
304
 20
190
 40
2
  0
CIRCLE
  5
128
100
AcDbEntity
  8
HOLES
  6
ByLayer
 62
  256
370
   -1
100
AcDbCircle
 10
296
 20
190
 40
2
  0
CIRCLE
  5
129
100
AcDbEntity
  8
HOLES
  6
ByLayer
 62
  256
370
   -1
100
AcDbCircle
 10
304
 20
220
 40
2
  0
CIRCLE
  5
12A
100
AcDbEntity
  8
HOLES
  6
ByLayer
 62
  256
370
   -1
100
AcDbCircle
 10
296
 20
220
 40
2
  0
LWPOLYLINE
  5
12B
100
AcDbEntity
  8
HOLES
  6
ByLayer
 62
  256
370
   -1
100
AcDbPolyline
 90
   14
 70
    1
 43
0
 10
93.75
 20
408.299038106
 10
94.299038106
 20
407.75
 10
94.5
 20
407
 10
94.5
 20
377
 10
94.299038106
 20
376.25
 10
93.75
 20
375.700961894
 10
93
 20
375.5
 10
92.25
 20
375.700961894
 10
91.70096189429999
 20
376.25
 10
91.5
 20
377
 10
91.5
 20
407
 10
91.70096189429999
 20
407.75
 10
92.25
 20
408.299038106
 10
93
 20
408.5
  0
LWPOLYLINE
  5
12C
100
AcDbEntity
  8
HOLES
  6
ByLayer
 62
  256
370
   -1
100
AcDbPolyline
 90
   14
 70
    1
 43
0
 10
103.35
 20
408.299038106
 10
103.899038106
 20
407.75
 10
104.1
 20
407
 10
104.1
 20
377
 10
103.899038106
 20
376.25
 10
103.35
 20
375.700961894
 10
102.6
 20
375.5
 10
101.85
 20
375.700961894
 10
101.300961894
 20
376.25
 10
101.1
 20
377
 10
101.1
 20
407
 10
101.300961894
 20
407.75
 10
101.85
 20
408.299038106
 10
102.6
 20
408.5
  0
LWPOLYLINE
  5
12D
100
AcDbEntity
  8
HOLES
  6
ByLayer
 62
  256
370
   -1
100
AcDbPolyline
 90
   14
 70
    1
 43
0
 10
112.75
 20
408.299038106
 10
113.299038106
 20
407.75
 10
113.5
 20
407
 10
113.5
 20
377
 10
113.299038106
 20
376.25
 10
112.75
 20
375.700961894
 10
112
 20
375.5
 10
111.25
 20
375.700961894
 10
110.700961894
 20
376.25
 10
110.5
 20
377
 10
110.5
 20
407
 10
110.700961894
 20
407.75
 10
111.25
 20
408.299038106
 10
112
 20
408.5
  0
ENDSEC
  0
SECTION
  2
OBJECTS
  0
DICTIONARY
  5
C
330
0
100
AcDbDictionary
281
    1
  3
ACAD_GROUP
350
D
  0
DICTIONARY
  5
D
330
C
100
AcDbDictionary
281
    1
  0
ENDSEC
  0
EOF
