999
dxfrw 0.5.13
0
SECTION
2
HEADER
9
$ACADVER
1
AC1021
9
$HANDSEED
5
20000
9
$DWGCODEPAGE
3
ANSI_1250
9
$INSBASE
10
0
20
0
30
0
9
$EXTMIN
10
-109.966416166
20
-123
30
0
9
$EXTMAX
10
287
20
123.002457939
30
0
9
$LIMMIN
10
0
20
0
9
$LIMMAX
10
420
20
297
9
$ORTHOMODE
70
0
9
$LTSCALE
40
1
9
$TEXTSTYLE
7
STANDARD
9
$CLAYER
8
IZREZ
9
$DIMASZ
40
2.5
9
$DIMLFAC
40
1
9
$DIMSCALE
40
1
9
$DIMEXO
40
0.625
9
$DIMEXE
40
1.25
9
$DIMTXT
40
2.5
9
$DIMTSZ
40
0
9
$DIMAUNIT
70
0
9
$DIMADEC
70
0
9
$DIMLUNIT
70
2
9
$DIMSTYLE
2
ISO-25
9
$DIMGAP
40
0.625
9
$DIMTIH
70
0
9
$LUNITS
70
2
9
$LUPREC
70
4
9
$AUNITS
70
0
9
$AUPREC
70
0
9
$SPLINESEGS
70
8
9
$GRIDMODE
70
1
9
$SNAPSTYLE
70
0
9
$PINSBASE
10
0
20
0
30
0
9
$PLIMMIN
10
0
20
0
9
$PLIMMAX
10
0
20
0
9
$INSUNITS
70
4
9
$PSVPSCALE
40
1
0
ENDSEC
0
SECTION
2
CLASSES
0
ENDSEC
0
SECTION
2
TABLES
0
TABLE
2
VPORT
5
8
330
0
100
AcDbSymbolTable
70
1
0
VPORT
5
31
330
2
100
AcDbSymbolTableRecord
100
AcDbViewportTableRecord
2
*ACTIVE
70
0
10
0
20
0
11
1
21
1
12
165.085630794
22
63.5091882082
13
0
23
0
14
10
24
10
15
10
25
10
16
0
26
0
36
1
17
0
27
0
37
0
40
253.654167362
41
1.90497737557
42
50
43
0
44
0
50
0
51
0
71
0
72
100
73
1
74
3
75
0
76
1
77
0
78
0
281
0
65
1
110
0
120
0
130
0
111
1
121
0
131
0
112
0
122
1
132
0
79
0
146
0
348
10020
60
7
61
5
292
1
282
1
141
0
142
0
63
250
421
3358443
0
ENDTAB
0
TABLE
2
LTYPE
5
5
330
0
100
AcDbSymbolTable
70
4
0
LTYPE
5
14
330
5
100
AcDbSymbolTableRecord
100
AcDbLinetypeTableRecord
2
ByBlock
70
0
3

72
65
73
0
40
0
0
LTYPE
5
15
330
5
100
AcDbSymbolTableRecord
100
AcDbLinetypeTableRecord
2
ByLayer
70
0
3

72
65
73
0
40
0
0
LTYPE
5
16
330
5
100
AcDbSymbolTableRecord
100
AcDbLinetypeTableRecord
2
Continuous
70
0
3
Solid line
72
65
73
0
40
0
0
LTYPE
5
32
330
5
100
AcDbSymbolTableRecord
100
AcDbLinetypeTableRecord
2
DOT
70
0
3
Dot . . . . . . . . . . . . . . . . . . . . . .
72
65
73
2
40
6.35
49
0
74
0
49
-6.35
74
0
0
LTYPE
5
33
330
5
100
AcDbSymbolTableRecord
100
AcDbLinetypeTableRecord
2
DOT2
70
0
3
Dot (.5x) .....................................
72
65
73
2
40
3.175
49
0
74
0
49
-3.175
74
0
0
LTYPE
5
34
330
5
100
AcDbSymbolTableRecord
100
AcDbLinetypeTableRecord
2
DOTX2
70
0
3
Dot (2x) .  .  .  .  .  .  .  .  .  .  .  .  .
72
65
73
2
40
12.7
49
0
74
0
49
-12.7
74
0
0
LTYPE
5
35
330
5
100
AcDbSymbolTableRecord
100
AcDbLinetypeTableRecord
2
DASHED
70
0
3
Dot . . . . . . . . . . . . . . . . . . . . . .
72
65
73
2
40
19.05
49
12.7
74
0
49
-6.35
74
0
0
LTYPE
5
36
330
5
100
AcDbSymbolTableRecord
100
AcDbLinetypeTableRecord
2
DASHED2
70
0
3
Dashed (.5x) _ _ _ _ _ _ _ _ _ _ _ _ _ _ _ _ _
72
65
73
2
40
9.525
49
6.35
74
0
49
-3.175
74
0
0
LTYPE
5
37
330
5
100
AcDbSymbolTableRecord
100
AcDbLinetypeTableRecord
2
DASHEDX2
70
0
3
Dashed (2x) ____  ____  ____  ____  ____  ___
72
65
73
2
40
38.1
49
25.4
74
0
49
-12.7
74
0
0
LTYPE
5
38
330
5
100
AcDbSymbolTableRecord
100
AcDbLinetypeTableRecord
2
DASHDOT
70
0
3
Dash dot __ . __ . __ . __ . __ . __ . __ . __
72
65
73
4
40
25.4
49
12.7
74
0
49
-6.35
74
0
49
0
74
0
49
-6.35
74
0
0
LTYPE
5
39
330
5
100
AcDbSymbolTableRecord
100
AcDbLinetypeTableRecord
2
DASHDOT2
70
0
3
Dash dot (.5x) _._._._._._._._._._._._._._._.
72
65
73
4
40
12.7
49
6.35
74
0
49
-3.175
74
0
49
0
74
0
49
-3.175
74
0
0
LTYPE
5
3A
330
5
100
AcDbSymbolTableRecord
100
AcDbLinetypeTableRecord
2
DASHDOTX2
70
0
3
Dash dot (2x) ____  .  ____  .  ____  .  ___
72
65
73
4
40
50.8
49
25.4
74
0
49
-12.7
74
0
49
0
74
0
49
-12.7
74
0
0
LTYPE
5
3B
330
5
100
AcDbSymbolTableRecord
100
AcDbLinetypeTableRecord
2
DIVIDE
70
0
3
Divide ____ . . ____ . . ____ . . ____ . . ____
72
65
73
6
40
31.75
49
12.7
74
0
49
-6.35
74
0
49
0
74
0
49
-6.35
74
0
49
0
74
0
49
-6.35
74
0
0
LTYPE
5
3C
330
5
100
AcDbSymbolTableRecord
100
AcDbLinetypeTableRecord
2
DIVIDE2
70
0
3
Divide (.5x) __..__..__..__..__..__..__..__.._
72
65
73
6
40
15.875
49
6.35
74
0
49
-3.175
74
0
49
0
74
0
49
-3.175
74
0
49
0
74
0
49
-3.175
74
0
0
LTYPE
5
3D
330
5
100
AcDbSymbolTableRecord
100
AcDbLinetypeTableRecord
2
DIVIDEX2
70
0
3
Divide (2x) ________  .  .  ________  .  .  _
72
65
73
6
40
63.5
49
25.4
74
0
49
-12.7
74
0
49
0
74
0
49
-12.7
74
0
49
0
74
0
49
-12.7
74
0
0
LTYPE
5
3E
330
5
100
AcDbSymbolTableRecord
100
AcDbLinetypeTableRecord
2
BORDER
70
0
3
Border __ __ . __ __ . __ __ . __ __ . __ __ .
72
65
73
6
40
44.45
49
12.7
74
0
49
-6.35
74
0
49
12.7
74
0
49
-6.35
74
0
49
0
74
0
49
-6.35
74
0
0
LTYPE
5
3F
330
5
100
AcDbSymbolTableRecord
100
AcDbLinetypeTableRecord
2
BORDER2
70
0
3
Border (.5x) __.__.__.__.__.__.__.__.__.__.__.
72
65
73
6
40
22.225
49
6.35
74
0
49
-3.175
74
0
49
6.35
74
0
49
-3.175
74
0
49
0
74
0
49
-3.175
74
0
0
LTYPE
5
40
330
5
100
AcDbSymbolTableRecord
100
AcDbLinetypeTableRecord
2
BORDERX2
70
0
3
Border (2x) ____  ____  .  ____  ____  .  ___
72
65
73
6
40
88.9
49
25.4
74
0
49
-12.7
74
0
49
25.4
74
0
49
-12.7
74
0
49
0
74
0
49
-12.7
74
0
0
LTYPE
5
41
330
5
100
AcDbSymbolTableRecord
100
AcDbLinetypeTableRecord
2
CENTER
70
0
3
Center ____ _ ____ _ ____ _ ____ _ ____ _ ____
72
65
73
4
40
50.8
49
31.75
74
0
49
-6.35
74
0
49
6.35
74
0
49
-6.35
74
0
0
LTYPE
5
42
330
5
100
AcDbSymbolTableRecord
100
AcDbLinetypeTableRecord
2
CENTER2
70
0
3
Center (.5x) ___ _ ___ _ ___ _ ___ _ ___ _ ___
72
65
73
4
40
28.575
49
19.05
74
0
49
-3.175
74
0
49
3.175
74
0
49
-3.175
74
0
0
LTYPE
5
43
330
5
100
AcDbSymbolTableRecord
100
AcDbLinetypeTableRecord
2
CENTERX2
70
0
3
Center (2x) ________  __  ________  __  _____
72
65
73
4
40
101.6
49
63.5
74
0
49
-12.7
74
0
49
12.7
74
0
49
-12.7
74
0
0
ENDTAB
0
TABLE
2
LAYER
5
2
330
0
100
AcDbSymbolTable
70
1
0
LAYER
5
10
330
2
100
AcDbSymbolTableRecord
100
AcDbLayerTableRecord
2
0
70
0
62
2
6
CONTINUOUS
370
-3
390
F
0
LAYER
5
44
330
2
100
AcDbSymbolTableRecord
100
AcDbLayerTableRecord
2
HOLES
70
0
62
5
6
CONTINUOUS
370
0
390
F
0
LAYER
5
45
330
2
100
AcDbSymbolTableRecord
100
AcDbLayerTableRecord
2
IZREZ
70
0
62
7
6
CONTINUOUS
370
0
390
F
0
ENDTAB
0
TABLE
2
STYLE
5
3
330
0
100
AcDbSymbolTable
70
3
0
STYLE
5
46
330
2
100
AcDbSymbolTableRecord
100
AcDbTextStyleTableRecord
2
Standard
70
0
40
0
41
1
50
0
71
0
42
1
3
txt
4

0
ENDTAB
0
TABLE
2
VIEW
5
6
330
0
100
AcDbSymbolTable
70
0
0
ENDTAB
0
TABLE
2
UCS
5
7
330
0
100
AcDbSymbolTable
70
0
0
ENDTAB
0
TABLE
2
APPID
5
9
330
0
100
AcDbSymbolTable
70
1
0
APPID
5
12
330
9
100
AcDbSymbolTableRecord
100
AcDbRegAppTableRecord
2
ACAD
70
0
0
APPID
5
47
330
9
100
AcDbSymbolTableRecord
100
AcDbRegAppTableRecord
2
LibreCad
70
0
0
ENDTAB
0
TABLE
2
DIMSTYLE
5
A
330
0
100
AcDbSymbolTable
70
1
100
AcDbDimStyleTable
71
1
0
DIMSTYLE
105
48
330
A
100
AcDbSymbolTableRecord
100
AcDbDimStyleTableRecord
2
Standard
70
0
40
1
41
2.5
42
0.625
43
0.38
44
1.25
45
0
46
0
47
0
48
0
140
2.5
141
0.09
142
0
143
25.4
144
1
145
0
146
1
147
0.625
148
0
71
0
72
0
73
0
74
1
75
0
76
0
77
0
78
0
79
0
170
0
171
2
172
0
173
0
174
0
175
0
176
0
177
0
178
0
179
0
271
4
272
4
273
2
274
2
275
0
276
0
277
2
278
46
279
0
280
0
281
0
282
0
283
1
284
0
285
0
286
0
288
0
289
3
340
Standard
341

371
-2
372
-2
0
ENDTAB
0
TABLE
2
BLOCK_RECORD
5
1
330
0
100
AcDbSymbolTable
70
2
0
BLOCK_RECORD
5
1F
330
1
100
AcDbSymbolTableRecord
100
AcDbBlockTableRecord
2
*Model_Space
70
0
280
1
281
0
0
BLOCK_RECORD
5
1E
330
1
100
AcDbSymbolTableRecord
100
AcDbBlockTableRecord
2
*Paper_Space
70
0
280
1
281
0
0
ENDTAB
0
ENDSEC
0
SECTION
2
BLOCKS
0
BLOCK
5
20
330
1F
100
AcDbEntity
8
0
100
AcDbBlockBegin
2
*Model_Space
70
0
10
0
20
0
30
0
3
*Model_Space
1

0
ENDBLK
5
21
330
1F
100
AcDbEntity
8
0
100
AcDbBlockEnd
0
BLOCK
5
1C
330
1B
100
AcDbEntity
8
0
100
AcDbBlockBegin
2
*Paper_Space
70
0
10
0
20
0
30
0
3
*Paper_Space
1

0
ENDBLK
5
1D
330
1F
100
AcDbEntity
8
0
100
AcDbBlockEnd
0
ENDSEC
0
SECTION
2
ENTITIES
0
POINT
5
49
100
AcDbEntity
8
0
6
ByLayer
62
256
370
-1
100
AcDbPoint
10
0
20
0
0
POINT
5
4A
100
AcDbEntity
8
0
6
ByLayer
62
256
370
-1
100
AcDbPoint
10
10
20
0
0
POINT
5
4B
100
AcDbEntity
8
0
6
ByLayer
62
256
370
-1
100
AcDbPoint
10
20
20
0
0
POINT
5
4C
100
AcDbEntity
8
0
6
ByLayer
62
256
370
-1
100
AcDbPoint
10
30
20
0
0
CIRCLE
5
4D
100
AcDbEntity
8
HOLES
6
ByLayer
62
256
370
-1
100
AcDbCircle
10
0.000198678000004
20
0.000485128999969
40
2.25
0
POINT
5
4E
100
AcDbEntity
8
0
6
ByLayer
62
256
370
-1
100
AcDbPoint
10
0.026281678
20
-9.984833871
0
POINT
5
4F
100
AcDbEntity
8
0
6
ByLayer
62
256
370
-1
100
AcDbPoint
10
0.026281678
20
10.015166129
0
CIRCLE
5
50
100
AcDbEntity
8
HOLES
6
ByLayer
62
256
370
-1
100
AcDbCircle
10
0.026198678
20
10.015485129
40
1.5
0
CIRCLE
5
51
100
AcDbEntity
8
HOLES
6
ByLayer
62
256
370
-1
100
AcDbCircle
10
0.026198678
20
-9.984514871
40
1.5
0
CIRCLE
5
52
100
AcDbEntity
8
HOLES
6
ByLayer
62
256
370
-1
100
AcDbCircle
10
10
20
0
40
2.25
0
CIRCLE
5
53
100
AcDbEntity
8
HOLES
6
ByLayer
62
256
370
-1
100
AcDbCircle
10
10.026
20
10.015
40
1.5
0
CIRCLE
5
54
100
AcDbEntity
8
HOLES
6
ByLayer
62
256
370
-1
100
AcDbCircle
10
10.026
20
-9.985
40
1.5
0
CIRCLE
5
55
100
AcDbEntity
8
HOLES
6
ByLayer
62
256
370
-1
100
AcDbCircle
10
20
20
0
40
2.25
0
CIRCLE
5
56
100
AcDbEntity
8
HOLES
6
ByLayer
62
256
370
-1
100
AcDbCircle
10
20.026
20
10.015
40
1.5
0
CIRCLE
5
57
100
AcDbEntity
8
HOLES
6
ByLayer
62
256
370
-1
100
AcDbCircle
10
20.026
20
-9.985
40
1.5
0
CIRCLE
5
58
100
AcDbEntity
8
HOLES
6
ByLayer
62
256
370
-1
100
AcDbCircle
10
30
20
0
40
2.25
0
CIRCLE
5
59
100
AcDbEntity
8
HOLES
6
ByLayer
62
256
370
-1
100
AcDbCircle
10
30.026
20
10.015
40
1.5
0
CIRCLE
5
5A
100
AcDbEntity
8
HOLES
6
ByLayer
62
256
370
-1
100
AcDbCircle
10
30.026
20
-9.985
40
1.5
0
LINE
5
5B
100
AcDbEntity
8
0
6
ByLayer
62
256
370
-1
100
AcDbLine
10
280
20
-56
11
287
21
-56
0
LINE
5
5C
100
AcDbEntity
8
0
6
ByLayer
62
256
370
-1
100
AcDbLine
10
280
20
-58
11
287
21
-58
0
LINE
5
5D
100
AcDbEntity
8
0
6
ByLayer
62
256
370
-1
100
AcDbLine
10
280
20
-60
11
287
21
-60
0
LINE
5
5E
100
AcDbEntity
8
0
6
ByLayer
62
256
370
-1
100
AcDbLine
10
286
20
-54
11
286
21
-58
0
LWPOLYLINE
5
5F
100
AcDbEntity
8
IZREZ
6
ByLayer
62
256
370
-1
100
AcDbPolyline
90
171
70
0
43
0
10
160.030068678
20
73.003872129
10
107.446979678
20
73.003872129
10
107.446979678
20
66.038627129
10
108.847168678
20
66.038627129
10
108.847168678
20
63.838000129
10
107.446979678
20
63.838000129
10
107.446979678
20
61.095872129
10
104.646291678
20
61.095872129
10
104.646291678
20
63.838000129
10
103.246807678
20
63.838000129
10
103.246807678
20
66.038627129
10
104.646291678
20
66.038627129
10
104.646291678
20
73.003872129
10
99.029702678
20
73.003872129
10
99.029702678
20
67.401761129
10
51.516546678
20
67.401761129
10
51.516546678
20
73.003872129
10
42.916868678
20
73.003872129
10
42.916868678
20
66.038627129
10
44.316324678
20
66.038627129
10
44.316324678
20
63.838000129
10
42.916868678
20
63.838000129
10
42.916868678
20
61.095872129
10
40.116180678
20
61.095872129
10
40.116180678
20
63.838000129
10
38.716696678
20
63.838000129
10
38.716696678
20
66.038627129
10
40.116180678
20
66.038627129
10
40.116180678
20
73.003872129
10
31.517207678
20
73.003872129
10
31.517207678
20
67.401761129
10
-15.996314322
20
67.401761129
10
-15.996314322
20
73.003872129
10
-24.613270322
20
73.003872129
10
-24.613270322
20
66.038627129
10
-23.213786322
20
66.038627129
10
-23.213786322
20
63.838000129
10
-24.613270322
20
63.838000129
10
-24.613270322
20
61.095872129
10
-27.413987322
20
61.095872129
10
-27.413987322
20
63.838000129
10
-28.814148322
20
63.838000129
10
-28.814148322
20
66.038627129
10
-27.413987322
20
66.038627129
10
-27.413987322
20
73.004239129
10
-35.996336322
20
73.004239129
10
-35.996336322
20
67.401761129
10
-69.914503322
20
67.401761129
10
-69.914503322
20
73.002122129
10
-78.496887322
20
73.001840129
10
-78.496887322
20
66.036934129
10
-77.096698322
20
66.036934129
10
-77.096698322
20
63.837012129
10
-78.496887322
20
63.837012129
10
-78.496887322
20
61.094179129
10
-81.297942322
20
61.094179129
10
-81.297942322
20
63.837717129
10
-82.697059322
20
63.837717129
10
-82.697059322
20
66.037640129
10
-81.297942322
20
66.037640129
10
-81.297942322
20
73.002545129
10
-89.914525322
20
73.002545129
10
-89.914525322
20
67.401761129
10
-109.964236322
20
67.401761129
10
-109.966416166
20
-67.3972343498
10
-89.916705177
20
-67.3978828005
10
-89.9168863184
20
-72.9986667976
10
-81.3003033229
20
-72.9989454764
10
-81.3000780629
20
-66.03404048
10
-82.6991950622
20
-66.0339952295
10
-82.6991239119
20
-63.8340722307
10
-81.3000069127
20
-63.8341174811
10
-81.2999181807
20
-61.0905794826
10
-78.4988631822
20
-61.0906700747
10
-78.4989518913
20
-63.8335030733
10
-77.0987628921
20
-63.8335483584
10
-77.0988340423
20
-66.0334703572
10
-78.4990230415
20
-66.0334250721
10
-78.4992483015
20
-72.9983310685
10
-69.9168643151
20
-72.9988906412
10
-69.9166831874
20
-67.3985296441
10
-35.9985162052
20
-67.3996266305
10
-35.9986974014
20
-73.0021046276
10
-27.4163484058
20
-73.0023821992
10
-27.416123123
20
-66.0367702028
10
-28.8162841223
20
-66.0367249186
10
-28.8162129493
20
-63.8360979198
10
-27.41605195
20
-63.836143204
10
-27.4159632637
20
-61.0940152054
10
-24.6152462651
20
-61.0941057866
10
-24.6153349515
20
-63.8362337852
10
-23.2158509522
20
-63.8362790475
10
-23.2159221252
20
-66.0369060463
10
-24.6154061245
20
-66.036860784
10
-24.6156313954
20
-73.0021057804
10
-15.9986753999
20
-73.0023844712
10
-15.9984942156
20
-67.4002734742
10
31.5150277595
20
-67.4018101635
10
31.5148465752
20
-73.0039211606
10
40.1138195707
20
-73.0041992698
10
40.1140448417
20
-66.0389542735
10
38.7145608424
20
-66.0389090112
10
38.7146320154
20
-63.8382820123
10
40.1141160147
20
-63.8383272746
10
40.114204701
20
-61.0961992761
10
42.9148926995
20
-61.0962898563
10
42.9148040132
20
-63.8384178549
10
44.3142600125
20
-63.8384631163
10
44.3141888395
20
-66.0390901151
10
42.9147328402
20
-66.0390448537
10
42.9145075692
20
-73.0042898501
10
51.5141855647
20
-73.0045679821
10
51.514366749
20
-67.4024569851
10
99.0275227242
20
-67.4039936626
10
99.0273415399
20
-73.0061046596
10
104.643930537
20
-73.0062863122
10
104.644155808
20
-66.0410413158
10
103.244671809
20
-66.0409960535
10
103.244742982
20
-63.8403690547
10
104.644226981
20
-63.840414317
10
104.644315667
20
-61.0982863184
10
107.445003666
20
-61.0983768987
10
107.444914979
20
-63.8405048973
10
108.845103979
20
-63.8405501824
10
108.845032806
20
-66.0411771812
10
107.444843806
20
-66.0411318961
10
107.444618535
20
-73.0063768925
10
160.027707508
20
-73.0080775425
10
160
20
-123
10
286
20
-123
10
286
20
-60
10
285.961570561
20
-59.609819356
10
285.847759065
20
-59.2346331353
10
285.662939225
20
-58.888859534
10
285.414213562
20
-58.5857864376
10
285.111140466
20
-58.3370607754
10
284.765366865
20
-58.152240935
10
284.390180644
20
-58.0384294392
10
284
20
-58
10
283
20
-58
10
282.609819356
20
-57.9615705608
10
282.234633135
20
-57.847759065
10
281.888859534
20
-57.6629392246
10
281.585786438
20
-57.4142135624
10
281.337060775
20
-57.111140466
10
281.152240935
20
-56.7653668647
10
281.038429439
20
-56.390180644
10
281
20
-56
10
281
20
-55.4
10
281.001791731
20
55.3985445744
10
281.001811137
20
55.9985445741
10
281.040253195
20
56.388723975
10
281.154076825
20
56.7639065146
10
281.338907849
20
57.1096741383
10
281.587643313
20
57.4127391901
10
281.890724453
20
57.6614550502
10
282.236504032
20
57.8462637074
10
282.611693933
20
57.9600630688
10
283.00187582
20
57.9984798887
10
284.001875819
20
57.9984475466
10
284.392057706
20
58.0368643665
10
284.767247608
20
58.1506637279
10
285.113027186
20
58.3354723851
10
285.416108327
20
58.5841882452
10
285.664843791
20
58.8872532971
10
285.849674814
20
59.2330209207
10
285.963498444
20
59.6082034603
10
286.001940503
20
59.9983828612
10
286.003978058
20
122.998382828
10
160.003978124
20
123.002457939
10
160.030068786
20
73.0105346114
0
POINT
5
60
100
AcDbEntity
8
0
6
ByLayer
62
256
370
-1
100
AcDbPoint
10
230.030068622
20
-108.015404286
0
POINT
5
61
100
AcDbEntity
8
0
6
ByLayer
62
256
370
-1
100
AcDbPoint
10
240.030068622
20
-108.015404286
0
POINT
5
62
100
AcDbEntity
8
0
6
ByLayer
62
256
370
-1
100
AcDbPoint
10
250.030068622
20
-108.015404286
0
POINT
5
63
100
AcDbEntity
8
0
6
ByLayer
62
256
370
-1
100
AcDbPoint
10
260.030068622
20
-108.015404286
0
POINT
5
64
100
AcDbEntity
8
0
6
ByLayer
62
256
370
-1
100
AcDbPoint
10
230.030068622
20
108.005952988
0
POINT
5
65
100
AcDbEntity
8
0
6
ByLayer
62
256
370
-1
100
AcDbPoint
10
240.030068622
20
108.005952988
0
POINT
5
66
100
AcDbEntity
8
0
6
ByLayer
62
256
370
-1
100
AcDbPoint
10
250.030068622
20
108.005952988
0
POINT
5
67
100
AcDbEntity
8
0
6
ByLayer
62
256
370
-1
100
AcDbPoint
10
260.030068622
20
108.005952988
0
CIRCLE
5
68
100
AcDbEntity
8
HOLES
6
ByLayer
62
256
370
-1
100
AcDbCircle
10
230.030068622
20
-108.015404286
40
2.25
0
CIRCLE
5
69
100
AcDbEntity
8
HOLES
6
ByLayer
62
256
370
-1
100
AcDbCircle
10
230.056068622
20
-98.000404286
40
1.5
0
CIRCLE
5
6A
100
AcDbEntity
8
HOLES
6
ByLayer
62
256
370
-1
100
AcDbCircle
10
230.056068622
20
-118.000404286
40
1.5
0
CIRCLE
5
6B
100
AcDbEntity
8
HOLES
6
ByLayer
62
256
370
-1
100
AcDbCircle
10
240.029869944
20
-108.015889415
40
2.25
0
CIRCLE
5
6C
100
AcDbEntity
8
HOLES
6
ByLayer
62
256
370
-1
100
AcDbCircle
10
240.055869944
20
-98.000889415
40
1.5
0
CIRCLE
5
6D
100
AcDbEntity
8
HOLES
6
ByLayer
62
256
370
-1
100
AcDbCircle
10
240.055869944
20
-118.000889415
40
1.5
0
CIRCLE
5
6E
100
AcDbEntity
8
HOLES
6
ByLayer
62
256
370
-1
100
AcDbCircle
10
250.029869944
20
-108.015889415
40
2.25
0
CIRCLE
5
6F
100
AcDbEntity
8
HOLES
6
ByLayer
62
256
370
-1
100
AcDbCircle
10
250.055869944
20
-98.000889415
40
1.5
0
CIRCLE
5
70
100
AcDbEntity
8
HOLES
6
ByLayer
62
256
370
-1
100
AcDbCircle
10
250.055869944
20
-118.000889415
40
1.5
0
CIRCLE
5
71
100
AcDbEntity
8
HOLES
6
ByLayer
62
256
370
-1
100
AcDbCircle
10
260.029869944
20
-108.015889415
40
2.25
0
CIRCLE
5
72
100
AcDbEntity
8
HOLES
6
ByLayer
62
256
370
-1
100
AcDbCircle
10
260.055869944
20
-98.000889415
40
1.5
0
CIRCLE
5
73
100
AcDbEntity
8
HOLES
6
ByLayer
62
256
370
-1
100
AcDbCircle
10
260.055869944
20
-118.000889415
40
1.5
0
LINE
5
74
100
AcDbEntity
8
0
6
ByLayer
62
256
370
-1
100
AcDbLine
10
275
20
-58
11
275
21
-62
0
POINT
5
75
100
AcDbEntity
8
0
6
ByLayer
62
256
370
-1
100
AcDbPoint
10
230
20
0
0
POINT
5
76
100
AcDbEntity
8
0
6
ByLayer
62
256
370
-1
100
AcDbPoint
10
240
20
0
0
POINT
5
77
100
AcDbEntity
8
0
6
ByLayer
62
256
370
-1
100
AcDbPoint
10
250
20
0
0
POINT
5
78
100
AcDbEntity
8
0
6
ByLayer
62
256
370
-1
100
AcDbPoint
10
260
20
0
0
CIRCLE
5
79
100
AcDbEntity
8
HOLES
6
ByLayer
62
256
370
-1
100
AcDbCircle
10
230
20
0
40
2.25
0
CIRCLE
5
7A
100
AcDbEntity
8
HOLES
6
ByLayer
62
256
370
-1
100
AcDbCircle
10
230.026
20
10.015
40
1.5
0
CIRCLE
5
7B
100
AcDbEntity
8
HOLES
6
ByLayer
62
256
370
-1
100
AcDbCircle
10
230.026
20
-9.985
40
1.5
0
CIRCLE
5
7C
100
AcDbEntity
8
HOLES
6
ByLayer
62
256
370
-1
100
AcDbCircle
10
239.999801322
20
-0.000485128999969
40
2.25
0
CIRCLE
5
7D
100
AcDbEntity
8
HOLES
6
ByLayer
62
256
370
-1
100
AcDbCircle
10
240.025801322
20
10.014514871
40
1.5
0
CIRCLE
5
7E
100
AcDbEntity
8
HOLES
6
ByLayer
62
256
370
-1
100
AcDbCircle
10
240.025801322
20
-9.985485129
40
1.5
0
CIRCLE
5
7F
100
AcDbEntity
8
HOLES
6
ByLayer
62
256
370
-1
100
AcDbCircle
10
249.999801322
20
-0.000485128999969
40
2.25
0
CIRCLE
5
80
100
AcDbEntity
8
HOLES
6
ByLayer
62
256
370
-1
100
AcDbCircle
10
250.025801322
20
10.014514871
40
1.5
0
CIRCLE
5
81
100
AcDbEntity
8
HOLES
6
ByLayer
62
256
370
-1
100
AcDbCircle
10
250.025801322
20
-9.985485129
40
1.5
0
CIRCLE
5
82
100
AcDbEntity
8
HOLES
6
ByLayer
62
256
370
-1
100
AcDbCircle
10
259.999801322
20
-0.000485128999969
40
2.25
0
CIRCLE
5
83
100
AcDbEntity
8
HOLES
6
ByLayer
62
256
370
-1
100
AcDbCircle
10
260.025801322
20
10.014514871
40
1.5
0
CIRCLE
5
84
100
AcDbEntity
8
HOLES
6
ByLayer
62
256
370
-1
100
AcDbCircle
10
260.025801322
20
-9.985485129
40
1.5
0
CIRCLE
5
85
100
AcDbEntity
8
HOLES
6
ByLayer
62
256
370
-1
100
AcDbCircle
10
230.033562072
20
108.015403257
40
2.25
0
CIRCLE
5
86
100
AcDbEntity
8
HOLES
6
ByLayer
62
256
370
-1
100
AcDbCircle
10
230.059238166
20
98.0004024214
40
1.5
0
CIRCLE
5
87
100
AcDbEntity
8
HOLES
6
ByLayer
62
256
370
-1
100
AcDbCircle
10
230.059885008
20
118.000402411
40
1.5
0
CIRCLE
5
88
100
AcDbEntity
8
HOLES
6
ByLayer
62
256
370
-1
100
AcDbCircle
10
240.033363405
20
108.015564971
40
2.25
0
CIRCLE
5
89
100
AcDbEntity
8
HOLES
6
ByLayer
62
256
370
-1
100
AcDbCircle
10
240.059039498
20
98.0005641353
40
1.5
0
CIRCLE
5
8A
100
AcDbEntity
8
HOLES
6
ByLayer
62
256
370
-1
100
AcDbCircle
10
240.059686341
20
118.000564125
40
1.5
0
CIRCLE
5
8B
100
AcDbEntity
8
HOLES
6
ByLayer
62
256
370
-1
100
AcDbCircle
10
250.033363399
20
108.015241549
40
2.25
0
CIRCLE
5
8C
100
AcDbEntity
8
HOLES
6
ByLayer
62
256
370
-1
100
AcDbCircle
10
250.059039493
20
98.0002407138
40
1.5
0
CIRCLE
5
8D
100
AcDbEntity
8
HOLES
6
ByLayer
62
256
370
-1
100
AcDbCircle
10
250.059686336
20
118.000240703
40
1.5
0
CIRCLE
5
8E
100
AcDbEntity
8
HOLES
6
ByLayer
62
256
370
-1
100
AcDbCircle
10
260.033363394
20
108.014918128
40
2.25
0
CIRCLE
5
8F
100
AcDbEntity
8
HOLES
6
ByLayer
62
256
370
-1
100
AcDbCircle
10
260.059039488
20
97.9999172924
40
1.5
0
CIRCLE
5
90
100
AcDbEntity
8
HOLES
6
ByLayer
62
256
370
-1
100
AcDbCircle
10
260.05968633
20
117.999917282
40
1.5
0
ENDSEC
0
SECTION
2
OBJECTS
0
DICTIONARY
5
C
330
0
100
AcDbDictionary
281
1
3
ACAD_GROUP
350
D
0
DICTIONARY
5
D
330
C
100
AcDbDictionary
281
1
0
ENDSEC
0
EOF
