999
dxfrw 0.5.13
0
SECTION
2
HEADER
9
$ACADVER
1
AC1021
9
$HANDSEED
5
20000
9
$DWGCODEPAGE
3
ANSI_1250
9
$INSBASE
10
0
20
0
30
0
9
$EXTMIN
10
573.550402244
20
374.833163242
30
0
9
$EXTMAX
10
950.862512054
20
665.156886221
30
0
9
$LIMMIN
10
0
20
0
9
$LIMMAX
10
12
20
9
9
$ORTHOMODE
70
0
9
$LTSCALE
40
1
9
$TEXTSTYLE
7
STANDARD
9
$CLAYER
8
0
9
$DIMASZ
40
0.18
9
$DIMLFAC
40
1
9
$DIMSCALE
40
1
9
$DIMEXO
40
0.0625
9
$DIMEXE
40
0.18
9
$DIMTXT
40
0.18
9
$DIMTSZ
40
0
9
$DIMAUNIT
70
0
9
$DIMADEC
70
0
9
$DIMLUNIT
70
2
9
$DIMSTYLE
2
ISO-25
9
$DIMGAP
40
0.09
9
$DIMTIH
70
1
9
$LUNITS
70
2
9
$LUPREC
70
2
9
$AUNITS
70
0
9
$AUPREC
70
0
9
$SPLINESEGS
70
8
9
$GRIDMODE
70
1
9
$SNAPSTYLE
70
0
9
$PINSBASE
10
0
20
0
30
0
9
$PLIMMIN
10
-100.179572249
20
72.6795677193
9
$PLIMMAX
10
109.920433854
20
369.579561616
9
$INSUNITS
70
4
9
$PSVPSCALE
40
1
0
ENDSEC
0
SECTION
2
CLASSES
0
ENDSEC
0
SECTION
2
TABLES
0
TABLE
2
VPORT
5
8
330
0
100
AcDbSymbolTable
70
1
0
VPORT
5
31
330
2
100
AcDbSymbolTableRecord
100
AcDbViewportTableRecord
2
*ACTIVE
70
0
10
0
20
0
11
1
21
1
12
226.011505863
22
196.841321671
13
0
23
0
14
10
24
10
15
10
25
10
16
0
26
0
36
1
17
0
27
0
37
0
40
23.8873949286
41
2.09615384615
42
50
43
0
44
0
50
0
51
0
71
0
72
100
73
1
74
3
75
0
76
1
77
0
78
0
281
0
65
1
110
0
120
0
130
0
111
1
121
0
131
0
112
0
122
1
132
0
79
0
146
0
348
10020
60
7
61
5
292
1
282
1
141
0
142
0
63
250
421
3358443
0
ENDTAB
0
TABLE
2
LTYPE
5
5
330
0
100
AcDbSymbolTable
70
4
0
LTYPE
5
14
330
5
100
AcDbSymbolTableRecord
100
AcDbLinetypeTableRecord
2
ByBlock
70
0
3

72
65
73
0
40
0
0
LTYPE
5
15
330
5
100
AcDbSymbolTableRecord
100
AcDbLinetypeTableRecord
2
ByLayer
70
0
3

72
65
73
0
40
0
0
LTYPE
5
16
330
5
100
AcDbSymbolTableRecord
100
AcDbLinetypeTableRecord
2
Continuous
70
0
3
Solid line
72
65
73
0
40
0
0
LTYPE
5
32
330
5
100
AcDbSymbolTableRecord
100
AcDbLinetypeTableRecord
2
DOT
70
0
3
Dot . . . . . . . . . . . . . . . . . . . . . .
72
65
73
2
40
6.35
49
0
74
0
49
-6.35
74
0
0
LTYPE
5
33
330
5
100
AcDbSymbolTableRecord
100
AcDbLinetypeTableRecord
2
DOT2
70
0
3
Dot (.5x) .....................................
72
65
73
2
40
3.175
49
0
74
0
49
-3.175
74
0
0
LTYPE
5
34
330
5
100
AcDbSymbolTableRecord
100
AcDbLinetypeTableRecord
2
DOTX2
70
0
3
Dot (2x) .  .  .  .  .  .  .  .  .  .  .  .  .
72
65
73
2
40
12.7
49
0
74
0
49
-12.7
74
0
0
LTYPE
5
35
330
5
100
AcDbSymbolTableRecord
100
AcDbLinetypeTableRecord
2
DASHED
70
0
3
Dot . . . . . . . . . . . . . . . . . . . . . .
72
65
73
2
40
19.05
49
12.7
74
0
49
-6.35
74
0
0
LTYPE
5
36
330
5
100
AcDbSymbolTableRecord
100
AcDbLinetypeTableRecord
2
DASHED2
70
0
3
Dashed (.5x) _ _ _ _ _ _ _ _ _ _ _ _ _ _ _ _ _
72
65
73
2
40
9.525
49
6.35
74
0
49
-3.175
74
0
0
LTYPE
5
37
330
5
100
AcDbSymbolTableRecord
100
AcDbLinetypeTableRecord
2
DASHEDX2
70
0
3
Dashed (2x) ____  ____  ____  ____  ____  ___
72
65
73
2
40
38.1
49
25.4
74
0
49
-12.7
74
0
0
LTYPE
5
38
330
5
100
AcDbSymbolTableRecord
100
AcDbLinetypeTableRecord
2
DASHDOT
70
0
3
Dash dot __ . __ . __ . __ . __ . __ . __ . __
72
65
73
4
40
25.4
49
12.7
74
0
49
-6.35
74
0
49
0
74
0
49
-6.35
74
0
0
LTYPE
5
39
330
5
100
AcDbSymbolTableRecord
100
AcDbLinetypeTableRecord
2
DASHDOT2
70
0
3
Dash dot (.5x) _._._._._._._._._._._._._._._.
72
65
73
4
40
12.7
49
6.35
74
0
49
-3.175
74
0
49
0
74
0
49
-3.175
74
0
0
LTYPE
5
3A
330
5
100
AcDbSymbolTableRecord
100
AcDbLinetypeTableRecord
2
DASHDOTX2
70
0
3
Dash dot (2x) ____  .  ____  .  ____  .  ___
72
65
73
4
40
50.8
49
25.4
74
0
49
-12.7
74
0
49
0
74
0
49
-12.7
74
0
0
LTYPE
5
3B
330
5
100
AcDbSymbolTableRecord
100
AcDbLinetypeTableRecord
2
DIVIDE
70
0
3
Divide ____ . . ____ . . ____ . . ____ . . ____
72
65
73
6
40
31.75
49
12.7
74
0
49
-6.35
74
0
49
0
74
0
49
-6.35
74
0
49
0
74
0
49
-6.35
74
0
0
LTYPE
5
3C
330
5
100
AcDbSymbolTableRecord
100
AcDbLinetypeTableRecord
2
DIVIDE2
70
0
3
Divide (.5x) __..__..__..__..__..__..__..__.._
72
65
73
6
40
15.875
49
6.35
74
0
49
-3.175
74
0
49
0
74
0
49
-3.175
74
0
49
0
74
0
49
-3.175
74
0
0
LTYPE
5
3D
330
5
100
AcDbSymbolTableRecord
100
AcDbLinetypeTableRecord
2
DIVIDEX2
70
0
3
Divide (2x) ________  .  .  ________  .  .  _
72
65
73
6
40
63.5
49
25.4
74
0
49
-12.7
74
0
49
0
74
0
49
-12.7
74
0
49
0
74
0
49
-12.7
74
0
0
LTYPE
5
3E
330
5
100
AcDbSymbolTableRecord
100
AcDbLinetypeTableRecord
2
BORDER
70
0
3
Border __ __ . __ __ . __ __ . __ __ . __ __ .
72
65
73
6
40
44.45
49
12.7
74
0
49
-6.35
74
0
49
12.7
74
0
49
-6.35
74
0
49
0
74
0
49
-6.35
74
0
0
LTYPE
5
3F
330
5
100
AcDbSymbolTableRecord
100
AcDbLinetypeTableRecord
2
BORDER2
70
0
3
Border (.5x) __.__.__.__.__.__.__.__.__.__.__.
72
65
73
6
40
22.225
49
6.35
74
0
49
-3.175
74
0
49
6.35
74
0
49
-3.175
74
0
49
0
74
0
49
-3.175
74
0
0
LTYPE
5
40
330
5
100
AcDbSymbolTableRecord
100
AcDbLinetypeTableRecord
2
BORDERX2
70
0
3
Border (2x) ____  ____  .  ____  ____  .  ___
72
65
73
6
40
88.9
49
25.4
74
0
49
-12.7
74
0
49
25.4
74
0
49
-12.7
74
0
49
0
74
0
49
-12.7
74
0
0
LTYPE
5
41
330
5
100
AcDbSymbolTableRecord
100
AcDbLinetypeTableRecord
2
CENTER
70
0
3
Center ____ _ ____ _ ____ _ ____ _ ____ _ ____
72
65
73
4
40
50.8
49
31.75
74
0
49
-6.35
74
0
49
6.35
74
0
49
-6.35
74
0
0
LTYPE
5
42
330
5
100
AcDbSymbolTableRecord
100
AcDbLinetypeTableRecord
2
CENTER2
70
0
3
Center (.5x) ___ _ ___ _ ___ _ ___ _ ___ _ ___
72
65
73
4
40
28.575
49
19.05
74
0
49
-3.175
74
0
49
3.175
74
0
49
-3.175
74
0
0
LTYPE
5
43
330
5
100
AcDbSymbolTableRecord
100
AcDbLinetypeTableRecord
2
CENTERX2
70
0
3
Center (2x) ________  __  ________  __  _____
72
65
73
4
40
101.6
49
63.5
74
0
49
-12.7
74
0
49
12.7
74
0
49
-12.7
74
0
0
ENDTAB
0
TABLE
2
LAYER
5
2
330
0
100
AcDbSymbolTable
70
1
0
LAYER
5
10
330
2
100
AcDbSymbolTableRecord
100
AcDbLayerTableRecord
2
0
70
0
62
7
6
CONTINUOUS
370
-3
390
F
0
LAYER
5
44
330
2
100
AcDbSymbolTableRecord
100
AcDbLayerTableRecord
2
AM_0
70
0
62
7
6
CONTINUOUS
370
-3
390
F
0
LAYER
5
45
330
2
100
AcDbSymbolTableRecord
100
AcDbLayerTableRecord
2
DEFPOINTS
70
0
62
7
6
CONTINUOUS
370
-3
390
F
0
LAYER
5
46
330
2
100
AcDbSymbolTableRecord
100
AcDbLayerTableRecord
2
GRAVIRANJE
70
0
62
3
6
CONTINUOUS
370
-3
390
F
0
LAYER
5
47
330
2
100
AcDbSymbolTableRecord
100
AcDbLayerTableRecord
2
HOLES
70
0
62
5
6
CONTINUOUS
370
-3
390
F
0
LAYER
5
48
330
2
100
AcDbSymbolTableRecord
100
AcDbLayerTableRecord
2
IZREZ
70
0
62
7
6
CONTINUOUS
370
-3
390
F
0
LAYER
5
49
330
2
100
AcDbSymbolTableRecord
100
AcDbLayerTableRecord
2
NAMEDPARTS
70
0
62
4
6
CONTINUOUS
370
-3
390
F
0
LAYER
5
4A
330
2
100
AcDbSymbolTableRecord
100
AcDbLayerTableRecord
2
PLOŠČA
70
0
62
1
6
CONTINUOUS
370
-3
390
F
0
LAYER
5
4B
330
2
100
AcDbSymbolTableRecord
100
AcDbLayerTableRecord
2
PRVI_IZREZ
70
0
62
6
6
CONTINUOUS
370
-3
390
F
0
ENDTAB
0
TABLE
2
STYLE
5
3
330
0
100
AcDbSymbolTable
70
3
0
STYLE
5
4C
330
2
100
AcDbSymbolTableRecord
100
AcDbTextStyleTableRecord
2
standard
70
0
40
0
41
1
50
0
71
0
42
1
3
standard
4

0
ENDTAB
0
TABLE
2
VIEW
5
6
330
0
100
AcDbSymbolTable
70
0
0
ENDTAB
0
TABLE
2
UCS
5
7
330
0
100
AcDbSymbolTable
70
0
0
ENDTAB
0
TABLE
2
APPID
5
9
330
0
100
AcDbSymbolTable
70
1
0
APPID
5
12
330
9
100
AcDbSymbolTableRecord
100
AcDbRegAppTableRecord
2
ACAD
70
0
0
APPID
5
4D
330
9
100
AcDbSymbolTableRecord
100
AcDbRegAppTableRecord
2
LibreCad
70
0
0
ENDTAB
0
TABLE
2
DIMSTYLE
5
A
330
0
100
AcDbSymbolTable
70
1
100
AcDbDimStyleTable
71
1
0
DIMSTYLE
105
4E
330
A
100
AcDbSymbolTableRecord
100
AcDbDimStyleTableRecord
2
Standard
70
0
40
1
41
0.18
42
0.0625
43
0.38
44
0.18
45
0
46
0
47
0
48
0
140
0.18
141
0.09
142
0
143
25.4
144
1
145
0
146
1
147
0.09
148
0
71
0
72
0
73
0
74
1
75
0
76
0
77
0
78
0
79
0
170
0
171
2
172
0
173
0
174
0
175
0
176
0
177
0
178
0
179
0
271
4
272
4
273
2
274
2
275
0
276
0
277
2
278
46
279
0
280
0
281
0
282
0
283
1
284
0
285
0
286
0
288
0
289
3
340
Standard
341

371
-2
372
-2
0
ENDTAB
0
TABLE
2
BLOCK_RECORD
5
1
330
0
100
AcDbSymbolTable
70
2
0
BLOCK_RECORD
5
1F
330
1
100
AcDbSymbolTableRecord
100
AcDbBlockTableRecord
2
*Model_Space
70
0
280
1
281
0
0
BLOCK_RECORD
5
1E
330
1
100
AcDbSymbolTableRecord
100
AcDbBlockTableRecord
2
*Paper_Space
70
0
280
1
281
0
0
BLOCK_RECORD
5
4F
330
1
100
AcDbSymbolTableRecord
100
AcDbBlockTableRecord
2
A$C5D251C3C
70
0
280
1
281
0
0
BLOCK_RECORD
5
52
330
1
100
AcDbSymbolTableRecord
100
AcDbBlockTableRecord
2
A$C0C973283
70
0
280
1
281
0
0
BLOCK_RECORD
5
55
330
1
100
AcDbSymbolTableRecord
100
AcDbBlockTableRecord
2
A$C6F00599D
70
0
280
1
281
0
0
BLOCK_RECORD
5
58
330
1
100
AcDbSymbolTableRecord
100
AcDbBlockTableRecord
2
A$C76C52477
70
0
280
1
281
0
0
BLOCK_RECORD
5
5B
330
1
100
AcDbSymbolTableRecord
100
AcDbBlockTableRecord
2
A$C241F728F
70
0
280
1
281
0
0
BLOCK_RECORD
5
5E
330
1
100
AcDbSymbolTableRecord
100
AcDbBlockTableRecord
2
A$C21F65412
70
0
280
1
281
0
0
BLOCK_RECORD
5
61
330
1
100
AcDbSymbolTableRecord
100
AcDbBlockTableRecord
2
A$C3DC3604F
70
0
280
1
281
0
0
BLOCK_RECORD
5
64
330
1
100
AcDbSymbolTableRecord
100
AcDbBlockTableRecord
2
A$C7D2713D4
70
0
280
1
281
0
0
BLOCK_RECORD
5
67
330
1
100
AcDbSymbolTableRecord
100
AcDbBlockTableRecord
2
A$C5A9B251F
70
0
280
1
281
0
0
BLOCK_RECORD
5
6A
330
1
100
AcDbSymbolTableRecord
100
AcDbBlockTableRecord
2
A$C6BC03FCC
70
0
280
1
281
0
0
BLOCK_RECORD
5
6D
330
1
100
AcDbSymbolTableRecord
100
AcDbBlockTableRecord
2
A$C340E325E
70
0
280
1
281
0
0
BLOCK_RECORD
5
70
330
1
100
AcDbSymbolTableRecord
100
AcDbBlockTableRecord
2
A$C39D41026
70
0
280
1
281
0
0
BLOCK_RECORD
5
73
330
1
100
AcDbSymbolTableRecord
100
AcDbBlockTableRecord
2
A$C7E562B80
70
0
280
1
281
0
0
BLOCK_RECORD
5
76
330
1
100
AcDbSymbolTableRecord
100
AcDbBlockTableRecord
2
A$C6C1C4E75
70
0
280
1
281
0
0
BLOCK_RECORD
5
79
330
1
100
AcDbSymbolTableRecord
100
AcDbBlockTableRecord
2
A$C3CFE77DF
70
0
280
1
281
0
0
BLOCK_RECORD
5
7C
330
1
100
AcDbSymbolTableRecord
100
AcDbBlockTableRecord
2
A$C030E3DB9
70
0
280
1
281
0
0
BLOCK_RECORD
5
7F
330
1
100
AcDbSymbolTableRecord
100
AcDbBlockTableRecord
2
A$C7E4964E8
70
0
280
1
281
0
0
BLOCK_RECORD
5
82
330
1
100
AcDbSymbolTableRecord
100
AcDbBlockTableRecord
2
GENAXEH
70
0
280
1
281
0
0
ENDTAB
0
ENDSEC
0
SECTION
2
BLOCKS
0
BLOCK
5
20
330
1F
100
AcDbEntity
8
0
100
AcDbBlockBegin
2
*Model_Space
70
0
10
0
20
0
30
0
3
*Model_Space
1

0
ENDBLK
5
21
330
1F
100
AcDbEntity
8
0
100
AcDbBlockEnd
0
BLOCK
5
1C
330
1B
100
AcDbEntity
8
0
100
AcDbBlockBegin
2
*Paper_Space
70
0
10
0
20
0
30
0
3
*Paper_Space
1

0
ENDBLK
5
1D
330
1F
100
AcDbEntity
8
0
100
AcDbBlockEnd
0
BLOCK
5
50
330
4F
100
AcDbEntity
8
0
100
AcDbBlockBegin
2
A$C5D251C3C
70
0
10
0
20
0
3
A$C5D251C3C
1

0
ENDBLK
5
51
330
4F
100
AcDbEntity
8
0
100
AcDbBlockEnd
0
BLOCK
5
53
330
52
100
AcDbEntity
8
0
100
AcDbBlockBegin
2
A$C0C973283
70
0
10
0
20
0
3
A$C0C973283
1

0
ENDBLK
5
54
330
52
100
AcDbEntity
8
0
100
AcDbBlockEnd
0
BLOCK
5
56
330
55
100
AcDbEntity
8
0
100
AcDbBlockBegin
2
A$C6F00599D
70
0
10
0
20
0
3
A$C6F00599D
1

0
ENDBLK
5
57
330
55
100
AcDbEntity
8
0
100
AcDbBlockEnd
0
BLOCK
5
59
330
58
100
AcDbEntity
8
0
100
AcDbBlockBegin
2
A$C76C52477
70
0
10
0
20
0
3
A$C76C52477
1

0
ENDBLK
5
5A
330
58
100
AcDbEntity
8
0
100
AcDbBlockEnd
0
BLOCK
5
5C
330
5B
100
AcDbEntity
8
0
100
AcDbBlockBegin
2
A$C241F728F
70
0
10
0
20
0
3
A$C241F728F
1

0
ENDBLK
5
5D
330
5B
100
AcDbEntity
8
0
100
AcDbBlockEnd
0
BLOCK
5
5F
330
5E
100
AcDbEntity
8
0
100
AcDbBlockBegin
2
A$C21F65412
70
0
10
0
20
0
3
A$C21F65412
1

0
ENDBLK
5
60
330
5E
100
AcDbEntity
8
0
100
AcDbBlockEnd
0
BLOCK
5
62
330
61
100
AcDbEntity
8
0
100
AcDbBlockBegin
2
A$C3DC3604F
70
0
10
0
20
0
3
A$C3DC3604F
1

0
ENDBLK
5
63
330
61
100
AcDbEntity
8
0
100
AcDbBlockEnd
0
BLOCK
5
65
330
64
100
AcDbEntity
8
0
100
AcDbBlockBegin
2
A$C7D2713D4
70
0
10
0
20
0
3
A$C7D2713D4
1

0
ENDBLK
5
66
330
64
100
AcDbEntity
8
0
100
AcDbBlockEnd
0
BLOCK
5
68
330
67
100
AcDbEntity
8
0
100
AcDbBlockBegin
2
A$C5A9B251F
70
0
10
0
20
0
3
A$C5A9B251F
1

0
ENDBLK
5
69
330
67
100
AcDbEntity
8
0
100
AcDbBlockEnd
0
BLOCK
5
6B
330
6A
100
AcDbEntity
8
0
100
AcDbBlockBegin
2
A$C6BC03FCC
70
0
10
0
20
0
3
A$C6BC03FCC
1

0
ENDBLK
5
6C
330
6A
100
AcDbEntity
8
0
100
AcDbBlockEnd
0
BLOCK
5
6E
330
6D
100
AcDbEntity
8
0
100
AcDbBlockBegin
2
A$C340E325E
70
0
10
0
20
0
3
A$C340E325E
1

0
ENDBLK
5
6F
330
6D
100
AcDbEntity
8
0
100
AcDbBlockEnd
0
BLOCK
5
71
330
70
100
AcDbEntity
8
0
100
AcDbBlockBegin
2
A$C39D41026
70
0
10
0
20
0
3
A$C39D41026
1

0
ENDBLK
5
72
330
70
100
AcDbEntity
8
0
100
AcDbBlockEnd
0
BLOCK
5
74
330
73
100
AcDbEntity
8
0
100
AcDbBlockBegin
2
A$C7E562B80
70
0
10
0
20
0
3
A$C7E562B80
1

0
ENDBLK
5
75
330
73
100
AcDbEntity
8
0
100
AcDbBlockEnd
0
BLOCK
5
77
330
76
100
AcDbEntity
8
0
100
AcDbBlockBegin
2
A$C6C1C4E75
70
0
10
0
20
0
3
A$C6C1C4E75
1

0
ENDBLK
5
78
330
76
100
AcDbEntity
8
0
100
AcDbBlockEnd
0
BLOCK
5
7A
330
79
100
AcDbEntity
8
0
100
AcDbBlockBegin
2
A$C3CFE77DF
70
0
10
0
20
0
3
A$C3CFE77DF
1

0
ENDBLK
5
7B
330
79
100
AcDbEntity
8
0
100
AcDbBlockEnd
0
BLOCK
5
7D
330
7C
100
AcDbEntity
8
0
100
AcDbBlockBegin
2
A$C030E3DB9
70
0
10
0
20
0
3
A$C030E3DB9
1

0
ENDBLK
5
7E
330
7C
100
AcDbEntity
8
0
100
AcDbBlockEnd
0
BLOCK
5
80
330
7F
100
AcDbEntity
8
0
100
AcDbBlockBegin
2
A$C7E4964E8
70
0
10
0
20
0
3
A$C7E4964E8
1

0
ENDBLK
5
81
330
7F
100
AcDbEntity
8
0
100
AcDbBlockEnd
0
BLOCK
5
83
330
82
100
AcDbEntity
8
0
100
AcDbBlockBegin
2
GENAXEH
70
0
10
0
20
0
3
GENAXEH
1

0
LINE
5
85
100
AcDbEntity
8
0
6
ByLayer
62
256
370
-1
100
AcDbLine
10
-1
20
0
11
1
21
0
0
ENDBLK
5
84
330
82
100
AcDbEntity
8
0
100
AcDbBlockEnd
0
ENDSEC
0
SECTION
2
ENTITIES
0
SPLINE
5
86
100
AcDbEntity
8
HOLES
6
ByLayer
62
256
370
-1
100
AcDbSpline
210
0
220
0
230
1
70
11
71
3
72
17
73
13
74
0
42
1e-007
43
1e-007
40
0
40
0
40
0
40
0
40
0.1
40
0.2
40
0.3
40
0.4
40
0.5
40
0.6
40
0.7
40
0.8
40
0.9
40
1
40
1
40
1
40
1
10
755.506923059
20
534.461118622
30
0
10
755.506923059
20
533.674424622
30
0
10
756.145098059
20
533.036602622
30
0
10
756.931793059
20
533.036602622
30
0
10
757.719193059
20
533.036602622
30
0
10
758.356662059
20
533.674424622
30
0
10
758.356662059
20
534.461118622
30
0
10
758.356662059
20
535.247813622
30
0
10
757.719193059
20
535.885988622
30
0
10
756.931793059
20
535.885988622
30
0
10
756.145098059
20
535.885988622
30
0
10
755.506923059
20
535.247813622
30
0
10
755.506923059
20
534.461118622
30
0
0
SPLINE
5
87
100
AcDbEntity
8
HOLES
6
ByLayer
62
256
370
-1
100
AcDbSpline
210
0
220
0
230
1
70
11
71
3
72
17
73
13
74
0
42
1e-007
43
1e-007
40
0
40
0
40
0
40
0
40
0.1
40
0.2
40
0.3
40
0.4
40
0.5
40
0.6
40
0.7
40
0.8
40
0.9
40
1
40
1
40
1
40
1
10
755.506923059
20
561.185940622
30
0
10
755.506923059
20
560.398893622
30
0
10
756.145098059
20
559.761423622
30
0
10
756.931793059
20
559.761423622
30
0
10
757.719193059
20
559.761423622
30
0
10
758.356662059
20
560.398893622
30
0
10
758.356662059
20
561.185940622
30
0
10
758.356662059
20
561.972987622
30
0
10
757.719193059
20
562.610810622
30
0
10
756.931793059
20
562.610810622
30
0
10
756.145098059
20
562.610810622
30
0
10
755.506923059
20
561.972987622
30
0
10
755.506923059
20
561.185940622
30
0
0
SPLINE
5
88
100
AcDbEntity
8
HOLES
6
ByLayer
62
256
370
-1
100
AcDbSpline
210
0
220
0
230
1
70
11
71
3
72
17
73
13
74
0
42
1e-007
43
1e-007
40
0
40
0
40
0
40
0
40
0.1
40
0.2
40
0.3
40
0.4
40
0.5
40
0.6
40
0.7
40
0.8
40
0.9
40
1
40
1
40
1
40
1
10
755.506923059
20
587.910231622
30
0
10
755.506923059
20
587.123184622
30
0
10
756.145098059
20
586.485715622
30
0
10
756.931793059
20
586.485715622
30
0
10
757.719193059
20
586.485715622
30
0
10
758.356662059
20
587.123184622
30
0
10
758.356662059
20
587.910231622
30
0
10
758.356662059
20
588.697278622
30
0
10
757.719193059
20
589.335101622
30
0
10
756.931793059
20
589.335101622
30
0
10
756.145098059
20
589.335101622
30
0
10
755.506923059
20
588.697278622
30
0
10
755.506923059
20
587.910231622
30
0
0
SPLINE
5
89
100
AcDbEntity
8
HOLES
6
ByLayer
62
256
370
-1
100
AcDbSpline
210
0
220
0
230
1
70
11
71
3
72
17
73
13
74
0
42
1e-007
43
1e-007
40
0
40
0
40
0
40
0
40
0.1
40
0.2
40
0.3
40
0.4
40
0.5
40
0.6
40
0.7
40
0.8
40
0.9
40
1
40
1
40
1
40
1
10
648.954487206
20
573.361022697
30
0
10
648.954487206
20
572.574328697
30
0
10
649.592662206
20
571.936506697
30
0
10
650.379357206
20
571.936506697
30
0
10
651.166757206
20
571.936506697
30
0
10
651.804226206
20
572.574328697
30
0
10
651.804226206
20
573.361022697
30
0
10
651.804226206
20
574.147717697
30
0
10
651.166757206
20
574.785892697
30
0
10
650.379357206
20
574.785892697
30
0
10
649.592662206
20
574.785892697
30
0
10
648.954487206
20
574.147717697
30
0
10
648.954487206
20
573.361022697
30
0
0
SPLINE
5
8A
100
AcDbEntity
8
HOLES
6
ByLayer
62
256
370
-1
100
AcDbSpline
210
0
220
0
230
1
70
11
71
3
72
17
73
13
74
0
42
1e-007
43
1e-007
40
0
40
0
40
0
40
0
40
0.1
40
0.2
40
0.3
40
0.4
40
0.5
40
0.6
40
0.7
40
0.8
40
0.9
40
1
40
1
40
1
40
1
10
648.954487206
20
600.085844697
30
0
10
648.954487206
20
599.298797697
30
0
10
649.592662206
20
598.661327697
30
0
10
650.379357206
20
598.661327697
30
0
10
651.166757206
20
598.661327697
30
0
10
651.804226206
20
599.298797697
30
0
10
651.804226206
20
600.085844697
30
0
10
651.804226206
20
600.872891697
30
0
10
651.166757206
20
601.510714697
30
0
10
650.379357206
20
601.510714697
30
0
10
649.592662206
20
601.510714697
30
0
10
648.954487206
20
600.872891697
30
0
10
648.954487206
20
600.085844697
30
0
0
SPLINE
5
8B
100
AcDbEntity
8
HOLES
6
ByLayer
62
256
370
-1
100
AcDbSpline
210
0
220
0
230
1
70
11
71
3
72
17
73
13
74
0
42
1e-007
43
1e-007
40
0
40
0
40
0
40
0
40
0.1
40
0.2
40
0.3
40
0.4
40
0.5
40
0.6
40
0.7
40
0.8
40
0.9
40
1
40
1
40
1
40
1
10
648.954487206
20
626.810135697
30
0
10
648.954487206
20
626.023088697
30
0
10
649.592662206
20
625.385619697
30
0
10
650.379357206
20
625.385619697
30
0
10
651.166757206
20
625.385619697
30
0
10
651.804226206
20
626.023088697
30
0
10
651.804226206
20
626.810135697
30
0
10
651.804226206
20
627.597182697
30
0
10
651.166757206
20
628.235005697
30
0
10
650.379357206
20
628.235005697
30
0
10
649.592662206
20
628.235005697
30
0
10
648.954487206
20
627.597182697
30
0
10
648.954487206
20
626.810135697
30
0
0
SPLINE
5
8C
100
AcDbEntity
8
HOLES
6
ByLayer
62
256
370
-1
100
AcDbSpline
210
0
220
0
230
1
70
11
71
3
72
17
73
13
74
0
42
1e-007
43
1e-007
40
0
40
0
40
0
40
0
40
0.1
40
0.2
40
0.3
40
0.4
40
0.5
40
0.6
40
0.7
40
0.8
40
0.9
40
1
40
1
40
1
40
1
10
705.261661539
20
544.936918609
30
0
10
705.261661539
20
544.150224609
30
0
10
705.899836539
20
543.512402609
30
0
10
706.686531539
20
543.512402609
30
0
10
707.473931539
20
543.512402609
30
0
10
708.111400539
20
544.150224609
30
0
10
708.111400539
20
544.936918609
30
0
10
708.111400539
20
545.723613609
30
0
10
707.473931539
20
546.361788609
30
0
10
706.686531539
20
546.361788609
30
0
10
705.899836539
20
546.361788609
30
0
10
705.261661539
20
545.723613609
30
0
10
705.261661539
20
544.936918609
30
0
0
SPLINE
5
8D
100
AcDbEntity
8
HOLES
6
ByLayer
62
256
370
-1
100
AcDbSpline
210
0
220
0
230
1
70
11
71
3
72
17
73
13
74
0
42
1e-007
43
1e-007
40
0
40
0
40
0
40
0
40
0.1
40
0.2
40
0.3
40
0.4
40
0.5
40
0.6
40
0.7
40
0.8
40
0.9
40
1
40
1
40
1
40
1
10
705.261661539
20
571.661740609
30
0
10
705.261661539
20
570.874693609
30
0
10
705.899836539
20
570.237223609
30
0
10
706.686531539
20
570.237223609
30
0
10
707.473931539
20
570.237223609
30
0
10
708.111400539
20
570.874693609
30
0
10
708.111400539
20
571.661740609
30
0
10
708.111400539
20
572.448787609
30
0
10
707.473931539
20
573.086610609
30
0
10
706.686531539
20
573.086610609
30
0
10
705.899836539
20
573.086610609
30
0
10
705.261661539
20
572.448787609
30
0
10
705.261661539
20
571.661740609
30
0
0
SPLINE
5
8E
100
AcDbEntity
8
HOLES
6
ByLayer
62
256
370
-1
100
AcDbSpline
210
0
220
0
230
1
70
11
71
3
72
17
73
13
74
0
42
1e-007
43
1e-007
40
0
40
0
40
0
40
0
40
0.1
40
0.2
40
0.3
40
0.4
40
0.5
40
0.6
40
0.7
40
0.8
40
0.9
40
1
40
1
40
1
40
1
10
705.261661539
20
598.386031609
30
0
10
705.261661539
20
597.598984609
30
0
10
705.899836539
20
596.961515609
30
0
10
706.686531539
20
596.961515609
30
0
10
707.473931539
20
596.961515609
30
0
10
708.111400539
20
597.598984609
30
0
10
708.111400539
20
598.386031609
30
0
10
708.111400539
20
599.173078609
30
0
10
707.473931539
20
599.810901609
30
0
10
706.686531539
20
599.810901609
30
0
10
705.899836539
20
599.810901609
30
0
10
705.261661539
20
599.173078609
30
0
10
705.261661539
20
598.386031609
30
0
0
SPLINE
5
8F
100
AcDbEntity
8
HOLES
6
ByLayer
62
256
370
-1
100
AcDbSpline
210
0
220
0
230
1
70
11
71
3
72
17
73
13
74
0
42
1e-007
43
1e-007
40
0
40
0
40
0
40
0
40
0.1
40
0.2
40
0.3
40
0.4
40
0.5
40
0.6
40
0.7
40
0.8
40
0.9
40
1
40
1
40
1
40
1
10
601.650229699
20
630.299999555
30
0
10
601.650229699
20
631.086693555
30
0
10
601.012054699
20
631.724515555
30
0
10
600.225359699
20
631.724515555
30
0
10
599.437959699
20
631.724515555
30
0
10
598.800490699
20
631.086693555
30
0
10
598.800490699
20
630.299999555
30
0
10
598.800490699
20
629.513304555
30
0
10
599.437959699
20
628.875129555
30
0
10
600.225359699
20
628.875129555
30
0
10
601.012054699
20
628.875129555
30
0
10
601.650229699
20
629.513304555
30
0
10
601.650229699
20
630.299999555
30
0
0
SPLINE
5
90
100
AcDbEntity
8
HOLES
6
ByLayer
62
256
370
-1
100
AcDbSpline
210
0
220
0
230
1
70
11
71
3
72
17
73
13
74
0
42
1e-007
43
1e-007
40
0
40
0
40
0
40
0
40
0.1
40
0.2
40
0.3
40
0.4
40
0.5
40
0.6
40
0.7
40
0.8
40
0.9
40
1
40
1
40
1
40
1
10
601.650229699
20
603.575177555
30
0
10
601.650229699
20
604.362224555
30
0
10
601.012054699
20
604.999694555
30
0
10
600.225359699
20
604.999694555
30
0
10
599.437959699
20
604.999694555
30
0
10
598.800490699
20
604.362224555
30
0
10
598.800490699
20
603.575177555
30
0
10
598.800490699
20
602.788130555
30
0
10
599.437959699
20
602.150307555
30
0
10
600.225359699
20
602.150307555
30
0
10
601.012054699
20
602.150307555
30
0
10
601.650229699
20
602.788130555
30
0
10
601.650229699
20
603.575177555
30
0
0
SPLINE
5
91
100
AcDbEntity
8
HOLES
6
ByLayer
62
256
370
-1
100
AcDbSpline
210
0
220
0
230
1
70
11
71
3
72
17
73
13
74
0
42
1e-007
43
1e-007
40
0
40
0
40
0
40
0
40
0.1
40
0.2
40
0.3
40
0.4
40
0.5
40
0.6
40
0.7
40
0.8
40
0.9
40
1
40
1
40
1
40
1
10
601.650229699
20
576.850886555
30
0
10
601.650229699
20
577.637933555
30
0
10
601.012054699
20
578.275402555
30
0
10
600.225359699
20
578.275402555
30
0
10
599.437959699
20
578.275402555
30
0
10
598.800490699
20
577.637933555
30
0
10
598.800490699
20
576.850886555
30
0
10
598.800490699
20
576.063839555
30
0
10
599.437959699
20
575.426016555
30
0
10
600.225359699
20
575.426016555
30
0
10
601.012054699
20
575.426016555
30
0
10
601.650229699
20
576.063839555
30
0
10
601.650229699
20
576.850886555
30
0
0
SPLINE
5
92
100
AcDbEntity
8
HOLES
6
ByLayer
62
256
370
-1
100
AcDbSpline
210
0
220
0
230
1
70
11
71
3
72
17
73
13
74
0
42
1e-007
43
1e-007
40
0
40
0
40
0
40
0
40
0.1
40
0.2
40
0.3
40
0.4
40
0.5
40
0.6
40
0.7
40
0.8
40
0.9
40
1
40
1
40
1
40
1
10
721.048283981
20
385.366069504
30
0
10
720.261588981
20
385.366069504
30
0
10
719.623766981
20
384.727894504
30
0
10
719.623766981
20
383.941200504
30
0
10
719.623766981
20
383.153800504
30
0
10
720.261588981
20
382.516330504
30
0
10
721.048283981
20
382.516330504
30
0
10
721.835330981
20
382.516330504
30
0
10
722.473505981
20
383.153800504
30
0
10
722.473505981
20
383.941200504
30
0
10
722.473505981
20
384.727894504
30
0
10
721.835330981
20
385.366069504
30
0
10
721.048283981
20
385.366069504
30
0
0
SPLINE
5
93
100
AcDbEntity
8
HOLES
6
ByLayer
62
256
370
-1
100
AcDbSpline
210
0
220
0
230
1
70
11
71
3
72
17
73
13
74
0
42
1e-007
43
1e-007
40
0
40
0
40
0
40
0
40
0.1
40
0.2
40
0.3
40
0.4
40
0.5
40
0.6
40
0.7
40
0.8
40
0.9
40
1
40
1
40
1
40
1
10
747.773457981
20
385.366069504
30
0
10
746.986410981
20
385.366069504
30
0
10
746.348588981
20
384.727894504
30
0
10
746.348588981
20
383.941200504
30
0
10
746.348588981
20
383.153800504
30
0
10
746.986410981
20
382.516330504
30
0
10
747.773457981
20
382.516330504
30
0
10
748.560152981
20
382.516330504
30
0
10
749.198327981
20
383.153800504
30
0
10
749.198327981
20
383.941200504
30
0
10
749.198327981
20
384.727894504
30
0
10
748.560152981
20
385.366069504
30
0
10
747.773457981
20
385.366069504
30
0
0
SPLINE
5
94
100
AcDbEntity
8
HOLES
6
ByLayer
62
256
370
-1
100
AcDbSpline
210
0
220
0
230
1
70
11
71
3
72
17
73
13
74
0
42
1e-007
43
1e-007
40
0
40
0
40
0
40
0
40
0.1
40
0.2
40
0.3
40
0.4
40
0.5
40
0.6
40
0.7
40
0.8
40
0.9
40
1
40
1
40
1
40
1
10
774.497396981
20
385.366069504
30
0
10
773.710701981
20
385.366069504
30
0
10
773.073232981
20
384.727894504
30
0
10
773.073232981
20
383.941200504
30
0
10
773.073232981
20
383.153800504
30
0
10
773.710701981
20
382.516330504
30
0
10
774.497396981
20
382.516330504
30
0
10
775.284443981
20
382.516330504
30
0
10
775.922618981
20
383.153800504
30
0
10
775.922618981
20
383.941200504
30
0
10
775.922618981
20
384.727894504
30
0
10
775.284443981
20
385.366069504
30
0
10
774.497396981
20
385.366069504
30
0
0
SPLINE
5
95
100
AcDbEntity
8
HOLES
6
ByLayer
62
256
370
-1
100
AcDbSpline
210
0
220
0
230
1
70
11
71
3
72
17
73
13
74
0
42
1e-007
43
1e-007
40
0
40
0
40
0
40
0
40
0.1
40
0.2
40
0.3
40
0.4
40
0.5
40
0.6
40
0.7
40
0.8
40
0.9
40
1
40
1
40
1
40
1
10
770.133676981
20
605.820502504
30
0
10
769.346276981
20
605.820502504
30
0
10
768.708806981
20
605.182327504
30
0
10
768.708806981
20
604.395632504
30
0
10
768.708806981
20
603.608232504
30
0
10
769.346276981
20
602.970763504
30
0
10
770.133676981
20
602.970763504
30
0
10
770.920017981
20
602.970763504
30
0
10
771.558545981
20
603.608232504
30
0
10
771.558545981
20
604.395632504
30
0
10
771.558545981
20
605.182327504
30
0
10
770.920017981
20
605.820502504
30
0
10
770.133676981
20
605.820502504
30
0
0
SPLINE
5
96
100
AcDbEntity
8
HOLES
6
ByLayer
62
256
370
-1
100
AcDbSpline
210
0
220
0
230
1
70
11
71
3
72
17
73
13
74
0
42
1e-007
43
1e-007
40
0
40
0
40
0
40
0
40
0.1
40
0.2
40
0.3
40
0.4
40
0.5
40
0.6
40
0.7
40
0.8
40
0.9
40
1
40
1
40
1
40
1
10
770.133676981
20
541.347963504
30
0
10
769.346276981
20
541.347963504
30
0
10
768.708806981
20
540.709788504
30
0
10
768.708806981
20
539.923093504
30
0
10
768.708806981
20
539.135693504
30
0
10
769.346276981
20
538.498224504
30
0
10
770.133676981
20
538.498224504
30
0
10
770.920017981
20
538.498224504
30
0
10
771.558545981
20
539.135693504
30
0
10
771.558545981
20
539.923093504
30
0
10
771.558545981
20
540.709788504
30
0
10
770.920017981
20
541.347963504
30
0
10
770.133676981
20
541.347963504
30
0
0
SPLINE
5
97
100
AcDbEntity
8
HOLES
6
ByLayer
62
256
370
-1
100
AcDbSpline
210
0
220
0
230
1
70
11
71
3
72
17
73
13
74
0
42
1e-007
43
1e-007
40
0
40
0
40
0
40
0
40
0.1
40
0.2
40
0.3
40
0.4
40
0.5
40
0.6
40
0.7
40
0.8
40
0.9
40
1
40
1
40
1
40
1
10
770.133676981
20
419.804978504
30
0
10
769.346276981
20
419.804978504
30
0
10
768.708806981
20
419.166803504
30
0
10
768.708806981
20
418.380108504
30
0
10
768.708806981
20
417.592708504
30
0
10
769.346276981
20
416.955239504
30
0
10
770.133676981
20
416.955239504
30
0
10
770.920017981
20
416.955239504
30
0
10
771.558545981
20
417.592708504
30
0
10
771.558545981
20
418.380108504
30
0
10
771.558545981
20
419.166803504
30
0
10
770.920017981
20
419.804978504
30
0
10
770.133676981
20
419.804978504
30
0
0
SPLINE
5
98
100
AcDbEntity
8
HOLES
6
ByLayer
62
256
370
-1
100
AcDbSpline
210
0
220
0
230
1
70
11
71
3
72
17
73
13
74
0
42
1e-007
43
1e-007
40
0
40
0
40
0
40
0
40
0.1
40
0.2
40
0.3
40
0.4
40
0.5
40
0.6
40
0.7
40
0.8
40
0.9
40
1
40
1
40
1
40
1
10
770.133676981
20
473.813737504
30
0
10
769.346276981
20
473.813737504
30
0
10
768.708806981
20
473.175562504
30
0
10
768.708806981
20
472.388868504
30
0
10
768.708806981
20
471.601468504
30
0
10
769.346276981
20
470.963998504
30
0
10
770.133676981
20
470.963998504
30
0
10
770.920017981
20
470.963998504
30
0
10
771.558545981
20
471.601468504
30
0
10
771.558545981
20
472.388868504
30
0
10
771.558545981
20
473.175562504
30
0
10
770.920017981
20
473.813737504
30
0
10
770.133676981
20
473.813737504
30
0
0
SPLINE
5
99
100
AcDbEntity
8
HOLES
6
ByLayer
62
256
370
-1
100
AcDbSpline
210
0
220
0
230
1
70
11
71
3
72
17
73
13
74
0
42
1e-007
43
1e-007
40
0
40
0
40
0
40
0
40
0.1
40
0.2
40
0.3
40
0.4
40
0.5
40
0.6
40
0.7
40
0.8
40
0.9
40
1
40
1
40
1
40
1
10
636.294098956
20
384.666671043
30
0
10
635.507403956
20
384.666671043
30
0
10
634.869581956
20
384.028496043
30
0
10
634.869581956
20
383.241802043
30
0
10
634.869581956
20
382.454402043
30
0
10
635.507403956
20
381.816932043
30
0
10
636.294098956
20
381.816932043
30
0
10
637.081145956
20
381.816932043
30
0
10
637.719320956
20
382.454402043
30
0
10
637.719320956
20
383.241802043
30
0
10
637.719320956
20
384.028496043
30
0
10
637.081145956
20
384.666671043
30
0
10
636.294098956
20
384.666671043
30
0
0
SPLINE
5
9A
100
AcDbEntity
8
HOLES
6
ByLayer
62
256
370
-1
100
AcDbSpline
210
0
220
0
230
1
70
11
71
3
72
17
73
13
74
0
42
1e-007
43
1e-007
40
0
40
0
40
0
40
0
40
0.1
40
0.2
40
0.3
40
0.4
40
0.5
40
0.6
40
0.7
40
0.8
40
0.9
40
1
40
1
40
1
40
1
10
663.019272956
20
384.666671043
30
0
10
662.232225956
20
384.666671043
30
0
10
661.594403956
20
384.028496043
30
0
10
661.594403956
20
383.241802043
30
0
10
661.594403956
20
382.454402043
30
0
10
662.232225956
20
381.816932043
30
0
10
663.019272956
20
381.816932043
30
0
10
663.805967956
20
381.816932043
30
0
10
664.444142956
20
382.454402043
30
0
10
664.444142956
20
383.241802043
30
0
10
664.444142956
20
384.028496043
30
0
10
663.805967956
20
384.666671043
30
0
10
663.019272956
20
384.666671043
30
0
0
SPLINE
5
9B
100
AcDbEntity
8
HOLES
6
ByLayer
62
256
370
-1
100
AcDbSpline
210
0
220
0
230
1
70
11
71
3
72
17
73
13
74
0
42
1e-007
43
1e-007
40
0
40
0
40
0
40
0
40
0.1
40
0.2
40
0.3
40
0.4
40
0.5
40
0.6
40
0.7
40
0.8
40
0.9
40
1
40
1
40
1
40
1
10
689.743211956
20
384.666671043
30
0
10
688.956516956
20
384.666671043
30
0
10
688.319047956
20
384.028496043
30
0
10
688.319047956
20
383.241802043
30
0
10
688.319047956
20
382.454402043
30
0
10
688.956516956
20
381.816932043
30
0
10
689.743211956
20
381.816932043
30
0
10
690.530258956
20
381.816932043
30
0
10
691.168433956
20
382.454402043
30
0
10
691.168433956
20
383.241802043
30
0
10
691.168433956
20
384.028496043
30
0
10
690.530258956
20
384.666671043
30
0
10
689.743211956
20
384.666671043
30
0
0
SPLINE
5
9C
100
AcDbEntity
8
HOLES
6
ByLayer
62
256
370
-1
100
AcDbSpline
210
0
220
0
230
1
70
11
71
3
72
17
73
13
74
0
42
1e-007
43
1e-007
40
0
40
0
40
0
40
0
40
0.1
40
0.2
40
0.3
40
0.4
40
0.5
40
0.6
40
0.7
40
0.8
40
0.9
40
1
40
1
40
1
40
1
10
685.379491956
20
605.121104043
30
0
10
684.592091956
20
605.121104043
30
0
10
683.954621956
20
604.482929043
30
0
10
683.954621956
20
603.696234043
30
0
10
683.954621956
20
602.908834043
30
0
10
684.592091956
20
602.271365043
30
0
10
685.379491956
20
602.271365043
30
0
10
686.165832956
20
602.271365043
30
0
10
686.804360956
20
602.908834043
30
0
10
686.804360956
20
603.696234043
30
0
10
686.804360956
20
604.482929043
30
0
10
686.165832956
20
605.121104043
30
0
10
685.379491956
20
605.121104043
30
0
0
SPLINE
5
9D
100
AcDbEntity
8
HOLES
6
ByLayer
62
256
370
-1
100
AcDbSpline
210
0
220
0
230
1
70
11
71
3
72
17
73
13
74
0
42
1e-007
43
1e-007
40
0
40
0
40
0
40
0
40
0.1
40
0.2
40
0.3
40
0.4
40
0.5
40
0.6
40
0.7
40
0.8
40
0.9
40
1
40
1
40
1
40
1
10
685.379491956
20
540.648565043
30
0
10
684.592091956
20
540.648565043
30
0
10
683.954621956
20
540.010390043
30
0
10
683.954621956
20
539.223695043
30
0
10
683.954621956
20
538.436295043
30
0
10
684.592091956
20
537.798826043
30
0
10
685.379491956
20
537.798826043
30
0
10
686.165832956
20
537.798826043
30
0
10
686.804360956
20
538.436295043
30
0
10
686.804360956
20
539.223695043
30
0
10
686.804360956
20
540.010390043
30
0
10
686.165832956
20
540.648565043
30
0
10
685.379491956
20
540.648565043
30
0
0
SPLINE
5
9E
100
AcDbEntity
8
HOLES
6
ByLayer
62
256
370
-1
100
AcDbSpline
210
0
220
0
230
1
70
11
71
3
72
17
73
13
74
0
42
1e-007
43
1e-007
40
0
40
0
40
0
40
0
40
0.1
40
0.2
40
0.3
40
0.4
40
0.5
40
0.6
40
0.7
40
0.8
40
0.9
40
1
40
1
40
1
40
1
10
685.379491956
20
419.105580043
30
0
10
684.592091956
20
419.105580043
30
0
10
683.954621956
20
418.467405043
30
0
10
683.954621956
20
417.680710043
30
0
10
683.954621956
20
416.893310043
30
0
10
684.592091956
20
416.255841043
30
0
10
685.379491956
20
416.255841043
30
0
10
686.165832956
20
416.255841043
30
0
10
686.804360956
20
416.893310043
30
0
10
686.804360956
20
417.680710043
30
0
10
686.804360956
20
418.467405043
30
0
10
686.165832956
20
419.105580043
30
0
10
685.379491956
20
419.105580043
30
0
0
SPLINE
5
9F
100
AcDbEntity
8
HOLES
6
ByLayer
62
256
370
-1
100
AcDbSpline
210
0
220
0
230
1
70
11
71
3
72
17
73
13
74
0
42
1e-007
43
1e-007
40
0
40
0
40
0
40
0
40
0.1
40
0.2
40
0.3
40
0.4
40
0.5
40
0.6
40
0.7
40
0.8
40
0.9
40
1
40
1
40
1
40
1
10
685.379491956
20
473.114339043
30
0
10
684.592091956
20
473.114339043
30
0
10
683.954621956
20
472.476164043
30
0
10
683.954621956
20
471.689470043
30
0
10
683.954621956
20
470.902070043
30
0
10
684.592091956
20
470.264600043
30
0
10
685.379491956
20
470.264600043
30
0
10
686.165832956
20
470.264600043
30
0
10
686.804360956
20
470.902070043
30
0
10
686.804360956
20
471.689470043
30
0
10
686.804360956
20
472.476164043
30
0
10
686.165832956
20
473.114339043
30
0
10
685.379491956
20
473.114339043
30
0
0
SPLINE
5
A0
100
AcDbEntity
8
HOLES
6
ByLayer
62
256
370
-1
100
AcDbSpline
210
0
220
0
230
1
70
11
71
3
72
17
73
13
74
0
42
1e-007
43
1e-007
40
0
40
0
40
0
40
0
40
0.1
40
0.2
40
0.3
40
0.4
40
0.5
40
0.6
40
0.7
40
0.8
40
0.9
40
1
40
1
40
1
40
1
10
635.274518244
20
655.320318327
30
0
10
636.061213244
20
655.320318327
30
0
10
636.699035244
20
655.958493327
30
0
10
636.699035244
20
656.745187327
30
0
10
636.699035244
20
657.532587327
30
0
10
636.061213244
20
658.170057327
30
0
10
635.274518244
20
658.170057327
30
0
10
634.487471244
20
658.170057327
30
0
10
633.849296244
20
657.532587327
30
0
10
633.849296244
20
656.745187327
30
0
10
633.849296244
20
655.958493327
30
0
10
634.487471244
20
655.320318327
30
0
10
635.274518244
20
655.320318327
30
0
0
SPLINE
5
A1
100
AcDbEntity
8
HOLES
6
ByLayer
62
256
370
-1
100
AcDbSpline
210
0
220
0
230
1
70
11
71
3
72
17
73
13
74
0
42
1e-007
43
1e-007
40
0
40
0
40
0
40
0
40
0.1
40
0.2
40
0.3
40
0.4
40
0.5
40
0.6
40
0.7
40
0.8
40
0.9
40
1
40
1
40
1
40
1
10
608.549344244
20
655.320318327
30
0
10
609.336391244
20
655.320318327
30
0
10
609.974213244
20
655.958493327
30
0
10
609.974213244
20
656.745187327
30
0
10
609.974213244
20
657.532587327
30
0
10
609.336391244
20
658.170057327
30
0
10
608.549344244
20
658.170057327
30
0
10
607.762649244
20
658.170057327
30
0
10
607.124474244
20
657.532587327
30
0
10
607.124474244
20
656.745187327
30
0
10
607.124474244
20
655.958493327
30
0
10
607.762649244
20
655.320318327
30
0
10
608.549344244
20
655.320318327
30
0
0
SPLINE
5
A2
100
AcDbEntity
8
HOLES
6
ByLayer
62
256
370
-1
100
AcDbSpline
210
0
220
0
230
1
70
11
71
3
72
17
73
13
74
0
42
1e-007
43
1e-007
40
0
40
0
40
0
40
0
40
0.1
40
0.2
40
0.3
40
0.4
40
0.5
40
0.6
40
0.7
40
0.8
40
0.9
40
1
40
1
40
1
40
1
10
581.825405244
20
655.320318327
30
0
10
582.612100244
20
655.320318327
30
0
10
583.249569244
20
655.958493327
30
0
10
583.249569244
20
656.745187327
30
0
10
583.249569244
20
657.532587327
30
0
10
582.612100244
20
658.170057327
30
0
10
581.825405244
20
658.170057327
30
0
10
581.038358244
20
658.170057327
30
0
10
580.400183244
20
657.532587327
30
0
10
580.400183244
20
656.745187327
30
0
10
580.400183244
20
655.958493327
30
0
10
581.038358244
20
655.320318327
30
0
10
581.825405244
20
655.320318327
30
0
0
SPLINE
5
A3
100
AcDbEntity
8
HOLES
6
ByLayer
62
256
370
-1
100
AcDbSpline
210
0
220
0
230
1
70
11
71
3
72
17
73
13
74
0
42
1e-007
43
1e-007
40
0
40
0
40
0
40
0
40
0.1
40
0.2
40
0.3
40
0.4
40
0.5
40
0.6
40
0.7
40
0.8
40
0.9
40
1
40
1
40
1
40
1
10
586.189125244
20
434.865885327
30
0
10
586.976525244
20
434.865885327
30
0
10
587.613995244
20
435.504060327
30
0
10
587.613995244
20
436.290755327
30
0
10
587.613995244
20
437.078155327
30
0
10
586.976525244
20
437.715624327
30
0
10
586.189125244
20
437.715624327
30
0
10
585.402784244
20
437.715624327
30
0
10
584.764256244
20
437.078155327
30
0
10
584.764256244
20
436.290755327
30
0
10
584.764256244
20
435.504060327
30
0
10
585.402784244
20
434.865885327
30
0
10
586.189125244
20
434.865885327
30
0
0
SPLINE
5
A4
100
AcDbEntity
8
HOLES
6
ByLayer
62
256
370
-1
100
AcDbSpline
210
0
220
0
230
1
70
11
71
3
72
17
73
13
74
0
42
1e-007
43
1e-007
40
0
40
0
40
0
40
0
40
0.1
40
0.2
40
0.3
40
0.4
40
0.5
40
0.6
40
0.7
40
0.8
40
0.9
40
1
40
1
40
1
40
1
10
586.189125244
20
499.338424327
30
0
10
586.976525244
20
499.338424327
30
0
10
587.613995244
20
499.976599327
30
0
10
587.613995244
20
500.763294327
30
0
10
587.613995244
20
501.550694327
30
0
10
586.976525244
20
502.188163327
30
0
10
586.189125244
20
502.188163327
30
0
10
585.402784244
20
502.188163327
30
0
10
584.764256244
20
501.550694327
30
0
10
584.764256244
20
500.763294327
30
0
10
584.764256244
20
499.976599327
30
0
10
585.402784244
20
499.338424327
30
0
10
586.189125244
20
499.338424327
30
0
0
SPLINE
5
A5
100
AcDbEntity
8
HOLES
6
ByLayer
62
256
370
-1
100
AcDbSpline
210
0
220
0
230
1
70
11
71
3
72
17
73
13
74
0
42
1e-007
43
1e-007
40
0
40
0
40
0
40
0
40
0.1
40
0.2
40
0.3
40
0.4
40
0.5
40
0.6
40
0.7
40
0.8
40
0.9
40
1
40
1
40
1
40
1
10
586.189125244
20
566.872650327
30
0
10
586.976525244
20
566.872650327
30
0
10
587.613995244
20
567.510825327
30
0
10
587.613995244
20
568.297519327
30
0
10
587.613995244
20
569.084919327
30
0
10
586.976525244
20
569.722389327
30
0
10
586.189125244
20
569.722389327
30
0
10
585.402784244
20
569.722389327
30
0
10
584.764256244
20
569.084919327
30
0
10
584.764256244
20
568.297519327
30
0
10
584.764256244
20
567.510825327
30
0
10
585.402784244
20
566.872650327
30
0
10
586.189125244
20
566.872650327
30
0
0
SPLINE
5
A6
100
AcDbEntity
8
HOLES
6
ByLayer
62
256
370
-1
100
AcDbSpline
210
0
220
0
230
1
70
11
71
3
72
17
73
13
74
0
42
1e-007
43
1e-007
40
0
40
0
40
0
40
0
40
0.1
40
0.2
40
0.3
40
0.4
40
0.5
40
0.6
40
0.7
40
0.8
40
0.9
40
1
40
1
40
1
40
1
10
719.291693731
20
655.32337842
30
0
10
720.078388731
20
655.32337842
30
0
10
720.716210731
20
655.96155342
30
0
10
720.716210731
20
656.74824742
30
0
10
720.716210731
20
657.53564742
30
0
10
720.078388731
20
658.17311742
30
0
10
719.291693731
20
658.17311742
30
0
10
718.504646731
20
658.17311742
30
0
10
717.866471731
20
657.53564742
30
0
10
717.866471731
20
656.74824742
30
0
10
717.866471731
20
655.96155342
30
0
10
718.504646731
20
655.32337842
30
0
10
719.291693731
20
655.32337842
30
0
0
SPLINE
5
A7
100
AcDbEntity
8
HOLES
6
ByLayer
62
256
370
-1
100
AcDbSpline
210
0
220
0
230
1
70
11
71
3
72
17
73
13
74
0
42
1e-007
43
1e-007
40
0
40
0
40
0
40
0
40
0.1
40
0.2
40
0.3
40
0.4
40
0.5
40
0.6
40
0.7
40
0.8
40
0.9
40
1
40
1
40
1
40
1
10
692.566519731
20
655.32337842
30
0
10
693.353566731
20
655.32337842
30
0
10
693.991388731
20
655.96155342
30
0
10
693.991388731
20
656.74824742
30
0
10
693.991388731
20
657.53564742
30
0
10
693.353566731
20
658.17311742
30
0
10
692.566519731
20
658.17311742
30
0
10
691.779824731
20
658.17311742
30
0
10
691.141649731
20
657.53564742
30
0
10
691.141649731
20
656.74824742
30
0
10
691.141649731
20
655.96155342
30
0
10
691.779824731
20
655.32337842
30
0
10
692.566519731
20
655.32337842
30
0
0
SPLINE
5
A8
100
AcDbEntity
8
HOLES
6
ByLayer
62
256
370
-1
100
AcDbSpline
210
0
220
0
230
1
70
11
71
3
72
17
73
13
74
0
42
1e-007
43
1e-007
40
0
40
0
40
0
40
0
40
0.1
40
0.2
40
0.3
40
0.4
40
0.5
40
0.6
40
0.7
40
0.8
40
0.9
40
1
40
1
40
1
40
1
10
665.842580731
20
655.32337842
30
0
10
666.629275731
20
655.32337842
30
0
10
667.266744731
20
655.96155342
30
0
10
667.266744731
20
656.74824742
30
0
10
667.266744731
20
657.53564742
30
0
10
666.629275731
20
658.17311742
30
0
10
665.842580731
20
658.17311742
30
0
10
665.055533731
20
658.17311742
30
0
10
664.417358731
20
657.53564742
30
0
10
664.417358731
20
656.74824742
30
0
10
664.417358731
20
655.96155342
30
0
10
665.055533731
20
655.32337842
30
0
10
665.842580731
20
655.32337842
30
0
0
SPLINE
5
A9
100
AcDbEntity
8
HOLES
6
ByLayer
62
256
370
-1
100
AcDbSpline
210
0
220
0
230
1
70
11
71
3
72
17
73
13
74
0
42
1e-007
43
1e-007
40
0
40
0
40
0
40
0
40
0.1
40
0.2
40
0.3
40
0.4
40
0.5
40
0.6
40
0.7
40
0.8
40
0.9
40
1
40
1
40
1
40
1
10
670.206300731
20
434.86894542
30
0
10
670.993700731
20
434.86894542
30
0
10
671.631170731
20
435.50712042
30
0
10
671.631170731
20
436.29381542
30
0
10
671.631170731
20
437.08121542
30
0
10
670.993700731
20
437.71868442
30
0
10
670.206300731
20
437.71868442
30
0
10
669.419959731
20
437.71868442
30
0
10
668.781431731
20
437.08121542
30
0
10
668.781431731
20
436.29381542
30
0
10
668.781431731
20
435.50712042
30
0
10
669.419959731
20
434.86894542
30
0
10
670.206300731
20
434.86894542
30
0
0
SPLINE
5
AA
100
AcDbEntity
8
HOLES
6
ByLayer
62
256
370
-1
100
AcDbSpline
210
0
220
0
230
1
70
11
71
3
72
17
73
13
74
0
42
1e-007
43
1e-007
40
0
40
0
40
0
40
0
40
0.1
40
0.2
40
0.3
40
0.4
40
0.5
40
0.6
40
0.7
40
0.8
40
0.9
40
1
40
1
40
1
40
1
10
670.206300731
20
499.34148442
30
0
10
670.993700731
20
499.34148442
30
0
10
671.631170731
20
499.97965942
30
0
10
671.631170731
20
500.76635442
30
0
10
671.631170731
20
501.55375442
30
0
10
670.993700731
20
502.19122342
30
0
10
670.206300731
20
502.19122342
30
0
10
669.419959731
20
502.19122342
30
0
10
668.781431731
20
501.55375442
30
0
10
668.781431731
20
500.76635442
30
0
10
668.781431731
20
499.97965942
30
0
10
669.419959731
20
499.34148442
30
0
10
670.206300731
20
499.34148442
30
0
0
SPLINE
5
AB
100
AcDbEntity
8
HOLES
6
ByLayer
62
256
370
-1
100
AcDbSpline
210
0
220
0
230
1
70
11
71
3
72
17
73
13
74
0
42
1e-007
43
1e-007
40
0
40
0
40
0
40
0
40
0.1
40
0.2
40
0.3
40
0.4
40
0.5
40
0.6
40
0.7
40
0.8
40
0.9
40
1
40
1
40
1
40
1
10
670.206300731
20
566.87571042
30
0
10
670.993700731
20
566.87571042
30
0
10
671.631170731
20
567.51388542
30
0
10
671.631170731
20
568.30057942
30
0
10
671.631170731
20
569.08797942
30
0
10
670.993700731
20
569.72544942
30
0
10
670.206300731
20
569.72544942
30
0
10
669.419959731
20
569.72544942
30
0
10
668.781431731
20
569.08797942
30
0
10
668.781431731
20
568.30057942
30
0
10
668.781431731
20
567.51388542
30
0
10
669.419959731
20
566.87571042
30
0
10
670.206300731
20
566.87571042
30
0
0
TEXT
5
AC
100
AcDbEntity
8
GRAVIRANJE
6
ByLayer
62
256
370
-1
100
AcDbText
10
684.867420888
20
659.226220485
30
0
40
2.5
1
10-*-4
50
180
41
1
51
0
7
standard
71
0
210
0
220
0
230
1
100
AcDbText
0
SPLINE
5
AD
100
AcDbEntity
8
IZREZ
6
ByLayer
62
256
370
-1
100
AcDbSpline
210
0
220
0
230
1
70
11
71
3
72
47
73
43
74
0
42
1e-007
43
1e-007
40
0
40
0
40
0
40
0
40
0.025
40
0.05
40
0.075
40
0.1
40
0.125
40
0.15
40
0.175
40
0.2
40
0.225
40
0.25
40
0.275
40
0.3
40
0.325
40
0.35
40
0.375
40
0.4
40
0.425
40
0.45
40
0.475
40
0.5
40
0.525
40
0.55
40
0.575
40
0.6
40
0.625
40
0.65
40
0.675
40
0.7
40
0.725
40
0.75
40
0.775
40
0.8
40
0.825
40
0.85
40
0.875
40
0.9
40
0.925
40
0.95
40
0.975
40
1
40
1
40
1
40
1
10
667.567320731
20
662.20586142
30
0
10
687.567327398
20
662.20586142
30
0
10
707.567334064
20
662.20586142
30
0
10
727.567340731
20
662.20586142
30
0
10
727.567340731
20
663.18946064
30
0
10
727.567340731
20
664.173059861
30
0
10
727.567340731
20
665.156659081
30
0
10
730.900541731
20
665.156533528
30
0
10
734.233742731
20
665.156407974
30
0
10
737.566943731
20
665.15628242
30
0
10
737.566943731
20
661.616628086
30
0
10
737.566943731
20
658.076973753
30
0
10
737.566943731
20
654.53731942
30
0
10
737.566943731
20
651.23708242
30
0
10
734.889007731
20
648.18873042
30
0
10
731.616640731
20
647.76292742
30
0
10
715.343888731
20
645.644496753
30
0
10
699.071136731
20
643.526066086
30
0
10
682.798384731
20
641.40763542
30
0
10
679.525665731
20
640.98077442
30
0
10
676.848787731
20
637.93312742
30
0
10
676.848787731
20
634.63324442
30
0
10
676.848787731
20
632.097712753
30
0
10
676.848787731
20
629.562181086
30
0
10
676.848787731
20
627.02664942
30
0
10
676.848976064
20
559.101169753
30
0
10
676.849164398
20
491.175690086
30
0
10
676.849352731
20
423.25021042
30
0
10
673.635547064
20
423.25021042
30
0
10
670.421741398
20
423.25021042
30
0
10
667.207935731
20
423.25021042
30
0
10
661.905685731
20
423.25021042
30
0
10
657.567577731
20
427.75024342
30
0
10
657.567577731
20
433.24969542
30
0
10
657.567577731
20
510.55212642
30
0
10
657.567577731
20
587.85455742
30
0
10
657.567577731
20
665.15698842
30
0
10
660.900825398
20
665.156894417
30
0
10
664.234073064
20
665.156800415
30
0
10
667.567320731
20
665.156706412
30
0
10
667.567320731
20
664.17318542
30
0
10
667.567320731
20
663.18952342
30
0
10
667.567320731
20
662.20586142
30
0
0
SPLINE
5
AE
100
AcDbEntity
8
HOLES
6
ByLayer
62
256
370
-1
100
AcDbSpline
210
0
220
0
230
1
70
11
71
3
72
17
73
13
74
0
42
1e-007
43
1e-007
40
0
40
0
40
0
40
0
40
0.1
40
0.2
40
0.3
40
0.4
40
0.5
40
0.6
40
0.7
40
0.8
40
0.9
40
1
40
1
40
1
40
1
10
671.631170731
20
622.30933942
30
0
10
671.631170731
20
623.09673942
30
0
10
670.993700731
20
623.73420842
30
0
10
670.206300731
20
623.73420842
30
0
10
669.419959731
20
623.73420842
30
0
10
668.781431731
20
623.09673942
30
0
10
668.781431731
20
622.30933942
30
0
10
668.781431731
20
621.52264442
30
0
10
669.419959731
20
620.88446942
30
0
10
670.206300731
20
620.88446942
30
0
10
670.993700731
20
620.88446942
30
0
10
671.631170731
20
621.52264442
30
0
10
671.631170731
20
622.30933942
30
0
0
TEXT
5
AF
100
AcDbEntity
8
GRAVIRANJE
6
ByLayer
62
256
370
-1
100
AcDbText
10
600.850245401
20
659.223160392
30
0
40
2.5
1
10-*-4
50
180
41
1
51
0
7
standard
71
0
210
0
220
0
230
1
100
AcDbText
0
SPLINE
5
B0
100
AcDbEntity
8
IZREZ
6
ByLayer
62
256
370
-1
100
AcDbSpline
210
0
220
0
230
1
70
11
71
3
72
47
73
43
74
0
42
1e-007
43
1e-007
40
0
40
0
40
0
40
0
40
0.025
40
0.05
40
0.075
40
0.1
40
0.125
40
0.15
40
0.175
40
0.2
40
0.225
40
0.25
40
0.275
40
0.3
40
0.325
40
0.35
40
0.375
40
0.4
40
0.425
40
0.45
40
0.475
40
0.5
40
0.525
40
0.55
40
0.575
40
0.6
40
0.625
40
0.65
40
0.675
40
0.7
40
0.725
40
0.75
40
0.775
40
0.8
40
0.825
40
0.85
40
0.875
40
0.9
40
0.925
40
0.95
40
0.975
40
1
40
1
40
1
40
1
10
583.550145244
20
662.202801327
30
0
10
603.550151911
20
662.202801327
30
0
10
623.550158577
20
662.202801327
30
0
10
643.550165244
20
662.202801327
30
0
10
643.550165244
20
663.186400548
30
0
10
643.550165244
20
664.169999768
30
0
10
643.550165244
20
665.153598989
30
0
10
646.883366244
20
665.153473435
30
0
10
650.216567244
20
665.153347881
30
0
10
653.549768244
20
665.153222327
30
0
10
653.549768244
20
661.613567994
30
0
10
653.549768244
20
658.07391366
30
0
10
653.549768244
20
654.534259327
30
0
10
653.549768244
20
651.234022327
30
0
10
650.871832244
20
648.185670327
30
0
10
647.599465244
20
647.759867327
30
0
10
631.326713244
20
645.64143666
30
0
10
615.053961244
20
643.523005994
30
0
10
598.781209244
20
641.404575327
30
0
10
595.508490244
20
640.977714327
30
0
10
592.831612244
20
637.930067327
30
0
10
592.831612244
20
634.630184327
30
0
10
592.831612244
20
632.09465266
30
0
10
592.831612244
20
629.559120994
30
0
10
592.831612244
20
627.023589327
30
0
10
592.831800577
20
559.09810966
30
0
10
592.831988911
20
491.172629994
30
0
10
592.832177244
20
423.247150327
30
0
10
589.618371577
20
423.247150327
30
0
10
586.404565911
20
423.247150327
30
0
10
583.190760244
20
423.247150327
30
0
10
577.888510244
20
423.247150327
30
0
10
573.550402244
20
427.747183327
30
0
10
573.550402244
20
433.246635327
30
0
10
573.550402244
20
510.549066327
30
0
10
573.550402244
20
587.851497327
30
0
10
573.550402244
20
665.153928327
30
0
10
576.883649911
20
665.153834325
30
0
10
580.216897577
20
665.153740322
30
0
10
583.550145244
20
665.15364632
30
0
10
583.550145244
20
664.170125327
30
0
10
583.550145244
20
663.186463327
30
0
10
583.550145244
20
662.202801327
30
0
0
SPLINE
5
B1
100
AcDbEntity
8
HOLES
6
ByLayer
62
256
370
-1
100
AcDbSpline
210
0
220
0
230
1
70
11
71
3
72
17
73
13
74
0
42
1e-007
43
1e-007
40
0
40
0
40
0
40
0
40
0.1
40
0.2
40
0.3
40
0.4
40
0.5
40
0.6
40
0.7
40
0.8
40
0.9
40
1
40
1
40
1
40
1
10
587.613995244
20
622.306279327
30
0
10
587.613995244
20
623.093679327
30
0
10
586.976525244
20
623.731148327
30
0
10
586.189125244
20
623.731148327
30
0
10
585.402784244
20
623.731148327
30
0
10
584.764256244
20
623.093679327
30
0
10
584.764256244
20
622.306279327
30
0
10
584.764256244
20
621.519584327
30
0
10
585.402784244
20
620.881409327
30
0
10
586.189125244
20
620.881409327
30
0
10
586.976525244
20
620.881409327
30
0
10
587.613995244
20
621.519584327
30
0
10
587.613995244
20
622.306279327
30
0
0
TEXT
5
B2
100
AcDbEntity
8
GRAVIRANJE
6
ByLayer
62
256
370
-1
100
AcDbText
10
670.718371799
20
380.763828978
30
0
40
2.5
1
10-*-4
50
0
41
1
51
0
7
standard
71
0
210
0
220
0
230
1
100
AcDbText
0
SPLINE
5
B3
100
AcDbEntity
8
IZREZ
6
ByLayer
62
256
370
-1
100
AcDbSpline
210
0
220
0
230
1
70
11
71
3
72
47
73
43
74
0
42
1e-007
43
1e-007
40
0
40
0
40
0
40
0
40
0.025
40
0.05
40
0.075
40
0.1
40
0.125
40
0.15
40
0.175
40
0.2
40
0.225
40
0.25
40
0.275
40
0.3
40
0.325
40
0.35
40
0.375
40
0.4
40
0.425
40
0.45
40
0.475
40
0.5
40
0.525
40
0.55
40
0.575
40
0.6
40
0.625
40
0.65
40
0.675
40
0.7
40
0.725
40
0.75
40
0.775
40
0.8
40
0.825
40
0.85
40
0.875
40
0.9
40
0.925
40
0.95
40
0.975
40
1
40
1
40
1
40
1
10
688.018471956
20
377.784188043
30
0
10
668.018465289
20
377.784188043
30
0
10
648.018458622
20
377.784188043
30
0
10
628.018451956
20
377.784188043
30
0
10
628.018451956
20
376.800588823
30
0
10
628.018451956
20
375.816989602
30
0
10
628.018451956
20
374.833390381
30
0
10
624.685250956
20
374.833515935
30
0
10
621.352049956
20
374.833641489
30
0
10
618.018848956
20
374.833767043
30
0
10
618.018848956
20
378.373421376
30
0
10
618.018848956
20
381.91307571
30
0
10
618.018848956
20
385.452730043
30
0
10
618.018848956
20
388.752967043
30
0
10
620.696784956
20
391.801319043
30
0
10
623.969151956
20
392.227122043
30
0
10
640.241903956
20
394.34555271
30
0
10
656.514655956
20
396.463983376
30
0
10
672.787407956
20
398.582414043
30
0
10
676.060126956
20
399.009275043
30
0
10
678.737004956
20
402.056922043
30
0
10
678.737004956
20
405.356805043
30
0
10
678.737004956
20
407.89233671
30
0
10
678.737004956
20
410.427868376
30
0
10
678.737004956
20
412.963400043
30
0
10
678.736816622
20
480.88887971
30
0
10
678.736628289
20
548.814359376
30
0
10
678.736439956
20
616.739839043
30
0
10
681.950245622
20
616.739839043
30
0
10
685.164051289
20
616.739839043
30
0
10
688.377856956
20
616.739839043
30
0
10
693.680106956
20
616.739839043
30
0
10
698.018214956
20
612.239806043
30
0
10
698.018214956
20
606.740354043
30
0
10
698.018214956
20
529.437923043
30
0
10
698.018214956
20
452.135492043
30
0
10
698.018214956
20
374.833061043
30
0
10
694.684967289
20
374.833155046
30
0
10
691.351719622
20
374.833249048
30
0
10
688.018471956
20
374.83334305
30
0
10
688.018471956
20
375.816864043
30
0
10
688.018471956
20
376.800526043
30
0
10
688.018471956
20
377.784188043
30
0
0
TEXT
5
B4
100
AcDbEntity
8
GRAVIRANJE
6
ByLayer
62
256
370
-1
100
AcDbText
10
755.472556824
20
381.463227439
30
0
40
2.5
1
10-*-4
50
0
41
1
51
0
7
standard
71
0
210
0
220
0
230
1
100
AcDbText
0
SPLINE
5
B5
100
AcDbEntity
8
IZREZ
6
ByLayer
62
256
370
-1
100
AcDbSpline
210
0
220
0
230
1
70
11
71
3
72
47
73
43
74
0
42
1e-007
43
1e-007
40
0
40
0
40
0
40
0
40
0.025
40
0.05
40
0.075
40
0.1
40
0.125
40
0.15
40
0.175
40
0.2
40
0.225
40
0.25
40
0.275
40
0.3
40
0.325
40
0.35
40
0.375
40
0.4
40
0.425
40
0.45
40
0.475
40
0.5
40
0.525
40
0.55
40
0.575
40
0.6
40
0.625
40
0.65
40
0.675
40
0.7
40
0.725
40
0.75
40
0.775
40
0.8
40
0.825
40
0.85
40
0.875
40
0.9
40
0.925
40
0.95
40
0.975
40
1
40
1
40
1
40
1
10
772.772656981
20
378.483586504
30
0
10
752.772650314
20
378.483586504
30
0
10
732.772643647
20
378.483586504
30
0
10
712.772636981
20
378.483586504
30
0
10
712.772636981
20
377.499987284
30
0
10
712.772636981
20
376.516388063
30
0
10
712.772636981
20
375.532788843
30
0
10
709.439435981
20
375.532914396
30
0
10
706.106234981
20
375.53303995
30
0
10
702.773033981
20
375.533165504
30
0
10
702.773033981
20
379.072819838
30
0
10
702.773033981
20
382.612474171
30
0
10
702.773033981
20
386.152128504
30
0
10
702.773033981
20
389.452365504
30
0
10
705.450969981
20
392.500717504
30
0
10
708.723336981
20
392.926520504
30
0
10
724.996088981
20
395.044951171
30
0
10
741.268840981
20
397.163381838
30
0
10
757.541592981
20
399.281812504
30
0
10
760.814311981
20
399.708673504
30
0
10
763.491189981
20
402.756320504
30
0
10
763.491189981
20
406.056203504
30
0
10
763.491189981
20
408.591735171
30
0
10
763.491189981
20
411.127266838
30
0
10
763.491189981
20
413.662798504
30
0
10
763.491001647
20
481.588278171
30
0
10
763.490813314
20
549.513757838
30
0
10
763.490624981
20
617.439237504
30
0
10
766.704430647
20
617.439237504
30
0
10
769.918236314
20
617.439237504
30
0
10
773.132041981
20
617.439237504
30
0
10
778.434291981
20
617.439237504
30
0
10
782.772399981
20
612.939204504
30
0
10
782.772399981
20
607.439752504
30
0
10
782.772399981
20
530.137321504
30
0
10
782.772399981
20
452.834890504
30
0
10
782.772399981
20
375.532459504
30
0
10
779.439152314
20
375.532553507
30
0
10
776.105904647
20
375.532647509
30
0
10
772.772656981
20
375.532741511
30
0
10
772.772656981
20
376.516262504
30
0
10
772.772656981
20
377.499924504
30
0
10
772.772656981
20
378.483586504
30
0
0
TEXT
5
B6
100
AcDbEntity
8
GRAVIRANJE
6
ByLayer
62
256
370
-1
100
AcDbText
10
596.899986644
20
623.605742615
30
0
40
2.5
1
11-*-4
50
270
41
1
51
0
7
standard
71
0
210
0
220
0
230
1
100
AcDbText
0
TEXT
5
B7
100
AcDbEntity
8
GRAVIRANJE
6
ByLayer
62
256
370
-1
100
AcDbText
10
710.011904594
20
551.63117555
30
0
40
2.5
1
11-*-4
50
90
41
1
51
0
7
standard
71
0
210
0
220
0
230
1
100
AcDbText
0
TEXT
5
B8
100
AcDbEntity
8
GRAVIRANJE
6
ByLayer
62
256
370
-1
100
AcDbText
10
653.70473026
20
580.055279638
30
0
40
2.5
1
11-*-4
50
90
41
1
51
0
7
standard
71
0
210
0
220
0
230
1
100
AcDbText
0
TEXT
5
B9
100
AcDbEntity
8
GRAVIRANJE
6
ByLayer
62
256
370
-1
100
AcDbText
10
760.257166114
20
541.155375563
30
0
40
2.5
1
11-*-4
50
90
41
1
51
0
7
standard
71
0
210
0
220
0
230
1
100
AcDbText
0
SPLINE
5
BA
100
AcDbEntity
8
IZREZ
6
ByLayer
62
256
370
-1
100
AcDbSpline
210
0
220
0
230
1
70
8
71
3
72
38
73
34
74
0
42
1e-007
43
1e-007
40
0
40
0
40
0
40
0
40
0.0322580645161
40
0.0645161290323
40
0.0967741935484
40
0.129032258065
40
0.161290322581
40
0.193548387097
40
0.225806451613
40
0.258064516129
40
0.290322580645
40
0.322580645161
40
0.354838709677
40
0.387096774194
40
0.41935483871
40
0.451612903226
40
0.483870967742
40
0.516129032258
40
0.548387096774
40
0.58064516129
40
0.612903225806
40
0.645161290323
40
0.677419354839
40
0.709677419355
40
0.741935483871
40
0.774193548387
40
0.806451612903
40
0.838709677419
40
0.870967741935
40
0.903225806452
40
0.935483870968
40
0.967741935484
40
1
40
1
40
1
40
1
10
604.182502699
20
605.862936084
30
0
10
604.182502699
20
613.433933241
30
0
10
604.182502699
20
621.004930398
30
0
10
604.182502699
20
628.575927555
30
0
10
605.165929365
20
628.575927555
30
0
10
606.149356032
20
628.575927555
30
0
10
607.132782699
20
628.575927555
30
0
10
607.132782699
20
631.909010889
30
0
10
607.132782699
20
635.242094222
30
0
10
607.132782699
20
638.575177555
30
0
10
604.191321699
20
638.575177555
30
0
10
601.249860699
20
638.575177555
30
0
10
598.308399699
20
638.575177555
30
0
10
596.658104699
20
638.575177555
30
0
10
595.308024699
20
637.225450555
30
0
10
595.308024699
20
635.575155555
30
0
10
595.308024699
20
610.908174222
30
0
10
595.308024699
20
586.241192889
30
0
10
595.308024699
20
561.574211555
30
0
10
595.308024699
20
559.923564555
30
0
10
596.657752699
20
558.573483555
30
0
10
598.307693699
20
558.573483555
30
0
10
601.249390032
20
558.573953889
30
0
10
604.191086365
20
558.574424222
30
0
10
607.132782699
20
558.574894555
30
0
10
607.132782699
20
561.908448222
30
0
10
607.132782699
20
565.242001889
30
0
10
607.132782699
20
568.575555555
30
0
10
606.149356032
20
568.575555555
30
0
10
605.165929365
20
568.575555555
30
0
10
604.182502699
20
568.575555555
30
0
10
604.182502699
20
580.838015732
30
0
10
604.182502699
20
593.100475908
30
0
10
604.182502699
20
605.362936084
30
0
0
SPLINE
5
BB
100
AcDbEntity
8
IZREZ
6
ByLayer
62
256
370
-1
100
AcDbSpline
210
0
220
0
230
1
70
8
71
3
72
38
73
34
74
0
42
1e-007
43
1e-007
40
0
40
0
40
0
40
0
40
0.0322580645161
40
0.0645161290323
40
0.0967741935484
40
0.129032258065
40
0.161290322581
40
0.193548387097
40
0.225806451613
40
0.258064516129
40
0.290322580645
40
0.322580645161
40
0.354838709677
40
0.387096774194
40
0.41935483871
40
0.451612903226
40
0.483870967742
40
0.516129032258
40
0.548387096774
40
0.58064516129
40
0.612903225806
40
0.645161290323
40
0.677419354839
40
0.709677419355
40
0.741935483871
40
0.774193548387
40
0.806451612903
40
0.838709677419
40
0.870967741935
40
0.903225806452
40
0.935483870968
40
0.967741935484
40
1
40
1
40
1
40
1
10
646.422214206
20
597.798086168
30
0
10
646.422214206
20
590.227089011
30
0
10
646.422214206
20
582.656091854
30
0
10
646.422214206
20
575.085094697
30
0
10
645.438787539
20
575.085094697
30
0
10
644.455360873
20
575.085094697
30
0
10
643.471934206
20
575.085094697
30
0
10
643.471934206
20
571.752011364
30
0
10
643.471934206
20
568.41892803
30
0
10
643.471934206
20
565.085844697
30
0
10
646.413395206
20
565.085844697
30
0
10
649.354856206
20
565.085844697
30
0
10
652.296317206
20
565.085844697
30
0
10
653.946612206
20
565.085844697
30
0
10
655.296692206
20
566.435571697
30
0
10
655.296692206
20
568.085866697
30
0
10
655.296692206
20
592.75284803
30
0
10
655.296692206
20
617.419829364
30
0
10
655.296692206
20
642.086810697
30
0
10
655.296692206
20
643.737457697
30
0
10
653.946964206
20
645.087538697
30
0
10
652.297023206
20
645.087538697
30
0
10
649.355326873
20
645.087068364
30
0
10
646.413630539
20
645.08659803
30
0
10
643.471934206
20
645.086127697
30
0
10
643.471934206
20
641.75257403
30
0
10
643.471934206
20
638.419020364
30
0
10
643.471934206
20
635.085466697
30
0
10
644.455360873
20
635.085466697
30
0
10
645.438787539
20
635.085466697
30
0
10
646.422214206
20
635.085466697
30
0
10
646.422214206
20
622.823006521
30
0
10
646.422214206
20
610.560546345
30
0
10
646.422214206
20
598.298086168
30
0
0
SPLINE
5
BC
100
AcDbEntity
8
IZREZ
6
ByLayer
62
256
370
-1
100
AcDbSpline
210
0
220
0
230
1
70
8
71
3
72
38
73
34
74
0
42
1e-007
43
1e-007
40
0
40
0
40
0
40
0
40
0.0322580645161
40
0.0645161290323
40
0.0967741935484
40
0.129032258065
40
0.161290322581
40
0.193548387097
40
0.225806451613
40
0.258064516129
40
0.290322580645
40
0.322580645161
40
0.354838709677
40
0.387096774194
40
0.41935483871
40
0.451612903226
40
0.483870967742
40
0.516129032258
40
0.548387096774
40
0.58064516129
40
0.612903225806
40
0.645161290323
40
0.677419354839
40
0.709677419355
40
0.741935483871
40
0.774193548387
40
0.806451612903
40
0.838709677419
40
0.870967741935
40
0.903225806452
40
0.935483870968
40
0.967741935484
40
1
40
1
40
1
40
1
10
702.729388539
20
569.373982081
30
0
10
702.729388539
20
561.802984924
30
0
10
702.729388539
20
554.231987766
30
0
10
702.729388539
20
546.660990609
30
0
10
701.745961872
20
546.660990609
30
0
10
700.762535206
20
546.660990609
30
0
10
699.779108539
20
546.660990609
30
0
10
699.779108539
20
543.327907276
30
0
10
699.779108539
20
539.994823943
30
0
10
699.779108539
20
536.661740609
30
0
10
702.720569539
20
536.661740609
30
0
10
705.662030539
20
536.661740609
30
0
10
708.603491539
20
536.661740609
30
0
10
710.253786539
20
536.661740609
30
0
10
711.603866539
20
538.011467609
30
0
10
711.603866539
20
539.661762609
30
0
10
711.603866539
20
564.328743943
30
0
10
711.603866539
20
588.995725276
30
0
10
711.603866539
20
613.662706609
30
0
10
711.603866539
20
615.313353609
30
0
10
710.254138539
20
616.663434609
30
0
10
708.604197539
20
616.663434609
30
0
10
705.662501206
20
616.662964276
30
0
10
702.720804872
20
616.662493943
30
0
10
699.779108539
20
616.662023609
30
0
10
699.779108539
20
613.328469943
30
0
10
699.779108539
20
609.994916276
30
0
10
699.779108539
20
606.661362609
30
0
10
700.762535206
20
606.661362609
30
0
10
701.745961872
20
606.661362609
30
0
10
702.729388539
20
606.661362609
30
0
10
702.729388539
20
594.398902433
30
0
10
702.729388539
20
582.136442257
30
0
10
702.729388539
20
569.873982081
30
0
0
SPLINE
5
BD
100
AcDbEntity
8
IZREZ
6
ByLayer
62
256
370
-1
100
AcDbSpline
210
0
220
0
230
1
70
8
71
3
72
38
73
34
74
0
42
1e-007
43
1e-007
40
0
40
0
40
0
40
0
40
0.0322580645161
40
0.0645161290323
40
0.0967741935484
40
0.129032258065
40
0.161290322581
40
0.193548387097
40
0.225806451613
40
0.258064516129
40
0.290322580645
40
0.322580645161
40
0.354838709677
40
0.387096774194
40
0.41935483871
40
0.451612903226
40
0.483870967742
40
0.516129032258
40
0.548387096774
40
0.58064516129
40
0.612903225806
40
0.645161290323
40
0.677419354839
40
0.709677419355
40
0.741935483871
40
0.774193548387
40
0.806451612903
40
0.838709677419
40
0.870967741935
40
0.903225806452
40
0.935483870968
40
0.967741935484
40
1
40
1
40
1
40
1
10
752.974650059
20
558.898182094
30
0
10
752.974650059
20
551.327184937
30
0
10
752.974650059
20
543.756187779
30
0
10
752.974650059
20
536.185190622
30
0
10
751.991223393
20
536.185190622
30
0
10
751.007796726
20
536.185190622
30
0
10
750.024370059
20
536.185190622
30
0
10
750.024370059
20
532.852107289
30
0
10
750.024370059
20
529.519023956
30
0
10
750.024370059
20
526.185940622
30
0
10
752.965831059
20
526.185940622
30
0
10
755.907292059
20
526.185940622
30
0
10
758.848753059
20
526.185940622
30
0
10
760.499048059
20
526.185940622
30
0
10
761.849128059
20
527.535667622
30
0
10
761.849128059
20
529.185962622
30
0
10
761.849128059
20
553.852943956
30
0
10
761.849128059
20
578.519925289
30
0
10
761.849128059
20
603.186906622
30
0
10
761.849128059
20
604.837553622
30
0
10
760.499400059
20
606.187634622
30
0
10
758.849459059
20
606.187634622
30
0
10
755.907762726
20
606.187164289
30
0
10
752.966066393
20
606.186693956
30
0
10
750.024370059
20
606.186223622
30
0
10
750.024370059
20
602.852669956
30
0
10
750.024370059
20
599.519116289
30
0
10
750.024370059
20
596.185562622
30
0
10
751.007796726
20
596.185562622
30
0
10
751.991223393
20
596.185562622
30
0
10
752.974650059
20
596.185562622
30
0
10
752.974650059
20
583.923102446
30
0
10
752.974650059
20
571.66064227
30
0
10
752.974650059
20
559.398182094
30
0
0
CIRCLE
5
BE
100
AcDbEntity
8
HOLES
6
ByLayer
62
256
370
-1
100
AcDbCircle
10
847.935790459
20
445.101750129
40
1.5
0
CIRCLE
5
BF
100
AcDbEntity
8
HOLES
6
ByLayer
62
256
370
-1
100
AcDbCircle
10
942.935790459
20
445.101750129
40
1.5
0
CIRCLE
5
C0
100
AcDbEntity
8
HOLES
6
ByLayer
62
256
370
-1
100
AcDbCircle
10
947.935790459
20
460.300111947
40
1.5
0
CIRCLE
5
C1
100
AcDbEntity
8
HOLES
6
ByLayer
62
256
370
-1
100
AcDbCircle
10
947.935790459
20
425.101750129
40
1.5
0
TEXT
5
C2
100
AcDbEntity
8
GRAVIRANJE
6
ByLayer
62
256
370
-1
100
AcDbText
10
926.332946014
20
442.096970878
30
0
40
2.5
1
40-*-4
50
180
41
1
51
0
7
standard
71
0
210
0
220
0
230
1
100
AcDbText
0
LINE
5
C3
100
AcDbEntity
8
IZREZ
6
ByLayer
62
0
370
-1
100
AcDbLine
10
944.658696696
20
465.101750129
11
942.935790459
21
465.101750129
0
ARC
5
C4
100
AcDbEntity
8
IZREZ
6
ByLayer
62
0
370
-1
100
AcDbCircle
10
926.352666507
20
490.101750129
40
30
100
AcDbArc
50
270
51
303.557309762
0
LINE
5
C5
100
AcDbEntity
8
IZREZ
6
ByLayer
62
0
370
-1
100
AcDbLine
10
926.352666507
20
460.101750129
11
808.413016034
21
460.101750129
0
ARC
5
C6
100
AcDbEntity
8
IZREZ
6
ByLayer
62
0
370
-1
100
AcDbCircle
10
808.413016034
20
465.601750129
40
5.5
100
AcDbArc
50
185.21590857
51
270
0
LINE
5
C7
100
AcDbEntity
8
IZREZ
6
ByLayer
62
0
370
-1
100
AcDbLine
10
802.935790459
20
465.101750129
11
797.935790459
21
465.101750129
0
ARC
5
C8
100
AcDbEntity
8
IZREZ
6
ByLayer
62
0
370
-1
100
AcDbCircle
10
803.435790459
20
457.379924722
40
5.5
100
AcDbArc
50
180
51
225
0
LINE
5
C9
100
AcDbEntity
8
IZREZ
6
ByLayer
62
0
370
-1
100
AcDbLine
10
799.546703162
20
453.490837426
11
805.487828659
21
447.549711929
0
ARC
5
CA
100
AcDbEntity
8
IZREZ
6
ByLayer
62
0
370
-1
100
AcDbCircle
10
835.53986686
20
477.601750129
40
42.5
100
AcDbArc
50
225
51
270
0
LINE
5
CB
100
AcDbEntity
8
IZREZ
6
ByLayer
62
0
370
-1
100
AcDbLine
10
835.53986686
20
435.101750129
11
932.935790459
21
435.101750129
0
LINE
5
CC
100
AcDbEntity
8
IZREZ
6
ByLayer
62
0
370
-1
100
AcDbLine
10
932.935790459
20
435.101750129
11
947.935790459
21
420.101750129
0
LINE
5
CD
100
AcDbEntity
8
IZREZ
6
ByLayer
62
0
370
-1
100
AcDbLine
10
947.935790459
20
420.101750129
11
950.862512054
21
420.101750129
0
LINE
5
CE
100
AcDbEntity
8
IZREZ
6
ByLayer
62
0
370
-1
100
AcDbLine
10
950.862512054
20
465.101750129
11
945.158696696
21
465.101750129
0
LINE
5
CF
100
AcDbEntity
8
IZREZ
6
ByLayer
62
0
370
-1
100
AcDbLine
10
797.935790459
20
465.101750129
11
797.935790459
21
457.379924722
0
LWPOLYLINE
5
D0
100
AcDbEntity
8
IZREZ
6
ByLayer
62
0
370
-1
100
AcDbPolyline
90
13
70
0
43
0
10
944.335418291
20
513.309174244
10
942.612512054
20
513.309174244
42
-0.147476824782
10
926.029388102
20
508.309174244
10
838.089737629
20
508.309174244
42
-0.387794582409
10
832.612512054
20
513.309174244
10
827.612512054
20
513.309174244
10
827.612512054
20
505.587348837
42
0.19891236738
10
829.223424757
20
501.69826154
10
835.164550254
20
495.757136043
42
0.19891236738
10
865.216588455
20
483.309174244
10
932.612512054
20
483.309174244
10
947.612512054
20
468.309174244
10
950.862512054
20
468.309174244
0
CIRCLE
5
D1
100
AcDbEntity
8
HOLES
6
ByLayer
62
256
370
-1
100
AcDbCircle
10
847.612512054
20
493.309174244
40
1.5
0
CIRCLE
5
D2
100
AcDbEntity
8
HOLES
6
ByLayer
62
256
370
-1
100
AcDbCircle
10
942.612512054
20
493.309174244
40
1.5
0
TEXT
5
D3
100
AcDbEntity
8
GRAVIRANJE
6
ByLayer
62
256
370
-1
100
AcDbText
10
926.009667609
20
490.304394992
30
0
40
2.5
1
40-*-4
50
180
41
1
51
0
7
standard
71
0
210
0
220
0
230
1
100
AcDbText
0
CIRCLE
5
D4
100
AcDbEntity
8
HOLES
6
ByLayer
62
256
370
-1
100
AcDbCircle
10
947.612512054
20
508.507536061
40
1.5
0
CIRCLE
5
D5
100
AcDbEntity
8
HOLES
6
ByLayer
62
256
370
-1
100
AcDbCircle
10
947.612512054
20
473.309174244
40
1.5
0
MTEXT
5
D6
100
AcDbEntity
8
0
6
ByLayer
62
256
370
-1
100
AcDbMText
10
848.967938971
20
430.210755628
30
0
40
2.5
41
30.6944444444
71
1
72
1
1
{For 2kg material}
7
standard
210
0
220
0
230
1
50
0
73
1
44
1
0
MTEXT
5
D7
100
AcDbEntity
8
0
6
ByLayer
62
256
370
-1
100
AcDbMText
10
848.967938971
20
478.357388014
30
0
40
2.5
41
30.1388888889
71
1
72
1
1
{For 1kg material}
7
standard
210
0
220
0
230
1
50
0
73
1
44
1
0
LINE
5
D8
100
AcDbEntity
8
0
6
ByLayer
62
256
370
-1
100
AcDbLine
10
950.862512054
20
420.101750129
11
950.862512054
21
465.101750129
0
LINE
5
D9
100
AcDbEntity
8
0
6
ByLayer
62
256
370
-1
100
AcDbLine
10
950.862512054
20
468.309174244
11
950.862512054
21
513.309174244
0
LWPOLYLINE
5
DA
100
AcDbEntity
8
IZREZ
6
ByLayer
62
0
370
-1
100
AcDbPolyline
90
2
70
0
43
0
10
950.862512054
20
513.309174244
10
944.835418291
20
513.309174244
0
ENDSEC
0
SECTION
2
OBJECTS
0
DICTIONARY
5
C
330
0
100
AcDbDictionary
281
1
3
ACAD_GROUP
350
D
0
DICTIONARY
5
D
330
C
100
AcDbDictionary
281
1
0
ENDSEC
0
EOF
