999
last saved by ezdxf 0.8.2 on 2018-02-03 13:42:42
  0
SECTION
  2
HEADER
  9
$ACADVER
  1
AC1021
  9
$ACADMAINTVER
 70
50
  9
$DWGCODEPAGE
  3
ANSI_1252
  9
$LASTSAVEDBY
  1
unknown
  9
$INSBASE
 10
0.0
 20
0.0
 30
0.0
  9
$EXTMIN
 10
1e+20
 20
1e+20
 30
1e+20
  9
$EXTMAX
 10
-1e+20
 20
-1e+20
 30
-1e+20
  9
$LIMMIN
 10
0.0
 20
0.0
  9
$LIMMAX
 10
12.0
 20
9.0
  9
$ORTHOMODE
 70
0
  9
$REGENMODE
 70
1
  9
$FILLMODE
 70
1
  9
$QTEXTMODE
 70
0
  9
$MIRRTEXT
 70
0
  9
$LTSCALE
 40
1.0
  9
$ATTMODE
 70
1
  9
$TEXTSIZE
 40
0.2
  9
$TRACEWID
 40
0.05
  9
$TEXTSTYLE
  7
Notes
  9
$CLAYER
  8
0
  9
$CELTYPE
  6
ByLayer
  9
$CECOLOR
 62
256
  9
$CELTSCALE
 40
1.0
  9
$DISPSILH
 70
0
  9
$DIMSCALE
 40
1.0
  9
$DIMASZ
 40
3.0
  9
$DIMEXO
 40
1.5
  9
$DIMDLI
 40
6.0
  9
$DIMRND
 40
0.0
  9
$DIMDLE
 40
0.0
  9
$DIMEXE
 40
3.0
  9
$DIMTP
 40
0.0
  9
$DIMTM
 40
0.0
  9
$DIMTXT
 40
3.0
  9
$DIMCEN
 40
3.0
  9
$DIMTSZ
 40
0.0
  9
$DIMTOL
 70
0
  9
$DIMLIM
 70
0
  9
$DIMTIH
 70
0
  9
$DIMTOH
 70
0
  9
$DIMSE1
 70
0
  9
$DIMSE2
 70
0
  9
$DIMTAD
 70
1
  9
$DIMZIN
 70
3
  9
$DIMBLK
  1

  9
$DIMASO
 70
1
  9
$DIMSHO
 70
1
  9
$DIMPOST
  1

  9
$DIMAPOST
  1

  9
$DIMALT
 70
0
  9
$DIMALTD
 70
2
  9
$DIMALTF
 40
25.4
  9
$DIMLFAC
 40
1.0
  9
$DIMTOFL
 70
0
  9
$DIMTVP
 40
0.0
  9
$DIMTIX
 70
0
  9
$DIMSOXD
 70
0
  9
$DIMSAH
 70
0
  9
$DIMBLK1
  1

  9
$DIMBLK2
  1

  9
$DIMSTYLE
  2
Civil-Metric
  9
$DIMCLRD
 70
0
  9
$DIMCLRE
 70
0
  9
$DIMCLRT
 70
0
  9
$DIMTFAC
 40
1.0
  9
$DIMGAP
 40
2.0
  9
$DIMJUST
 70
0
  9
$DIMSD1
 70
0
  9
$DIMSD2
 70
0
  9
$DIMTOLJ
 70
1
  9
$DIMTZIN
 70
0
  9
$DIMALTZ
 70
0
  9
$DIMALTTZ
 70
0
  9
$DIMUPT
 70
0
  9
$DIMDEC
 70
2
  9
$DIMTDEC
 70
2
  9
$DIMALTU
 70
2
  9
$DIMALTTD
 70
2
  9
$DIMTXSTY
  7
Standard
  9
$DIMAUNIT
 70
0
  9
$DIMADEC
 70
2
  9
$DIMALTRND
 40
0.0
  9
$DIMAZIN
 70
2
  9
$DIMDSEP
 70
46
  9
$DIMATFIT
 70
3
  9
$DIMFRAC
 70
1
  9
$DIMLDRBLK
  1

  9
$DIMLUNIT
 70
2
  9
$DIMLWD
 70
-2
  9
$DIMLWE
 70
-2
  9
$DIMTMOVE
 70
0
  9
$DIMFXL
 40
1.0
  9
$DIMFXLON
 70
0
  9
$DIMJOGANG
 40
0.785398163397
  9
$DIMTFILL
 70
0
  9
$DIMTFILLCLR
 70
0
  9
$DIMARCSYM
 70
0
  9
$DIMLTYPE
  6

  9
$DIMLTEX1
  6

  9
$DIMLTEX2
  6

  9
$LUNITS
 70
2
  9
$LUPREC
 70
4
  9
$SKETCHINC
 40
0.1
  9
$FILLETRAD
 40
0.0
  9
$AUNITS
 70
4
  9
$AUPREC
 70
5
  9
$MENU
  1
.
  9
$ELEVATION
 40
0.0
  9
$PELEVATION
 40
0.0
  9
$THICKNESS
 40
0.0
  9
$LIMCHECK
 70
0
  9
$CHAMFERA
 40
0.0
  9
$CHAMFERB
 40
0.0
  9
$CHAMFERC
 40
0.0
  9
$CHAMFERD
 40
0.0
  9
$SKPOLY
 70
0
  9
$TDCREATE
 40
2458153.57131
  9
$TDUPDATE
 40
2458153.57132
  9
$TDINDWG
 40
0.0
  9
$TDUSRTIMER
 40
0.0
  9
$USRTIMER
 70
1
  9
$ANGBASE
 50
0.0
  9
$ANGDIR
 70
0
  9
$PDMODE
 70
0
  9
$PDSIZE
 40
0.0
  9
$PLINEWID
 40
0.0
  9
$SPLFRAME
 70
0
  9
$SPLINETYPE
 70
6
  9
$SPLINESEGS
 70
8
  9
$HANDSEED
  5
666
  9
$SURFTAB1
 70
6
  9
$SURFTAB2
 70
6
  9
$SURFTYPE
 70
6
  9
$SURFU
 70
6
  9
$SURFV
 70
6
  9
$UCSBASE
  2

  9
$UCSNAME
  2

  9
$UCSORG
 10
0.0
 20
0.0
 30
0.0
  9
$UCSXDIR
 10
1.0
 20
0.0
 30
0.0
  9
$UCSYDIR
 10
0.0
 20
1.0
 30
0.0
  9
$UCSORTHOREF
  2

  9
$UCSORTHOVIEW
 70
0
  9
$UCSORGTOP
 10
0.0
 20
0.0
 30
0.0
  9
$UCSORGBOTTOM
 10
0.0
 20
0.0
 30
0.0
  9
$UCSORGLEFT
 10
0.0
 20
0.0
 30
0.0
  9
$UCSORGRIGHT
 10
0.0
 20
0.0
 30
0.0
  9
$UCSORGFRONT
 10
0.0
 20
0.0
 30
0.0
  9
$UCSORGBACK
 10
0.0
 20
0.0
 30
0.0
  9
$PUCSBASE
  2

  9
$PUCSNAME
  2

  9
$PUCSORG
 10
0.0
 20
0.0
 30
0.0
  9
$PUCSXDIR
 10
1.0
 20
0.0
 30
0.0
  9
$PUCSYDIR
 10
0.0
 20
1.0
 30
0.0
  9
$PUCSORTHOREF
  2

  9
$PUCSORTHOVIEW
 70
0
  9
$PUCSORGTOP
 10
0.0
 20
0.0
 30
0.0
  9
$PUCSORGBOTTOM
 10
0.0
 20
0.0
 30
0.0
  9
$PUCSORGLEFT
 10
0.0
 20
0.0
 30
0.0
  9
$PUCSORGRIGHT
 10
0.0
 20
0.0
 30
0.0
  9
$PUCSORGFRONT
 10
0.0
 20
0.0
 30
0.0
  9
$PUCSORGBACK
 10
0.0
 20
0.0
 30
0.0
  9
$USERI1
 70
0
  9
$USERI2
 70
0
  9
$USERI3
 70
0
  9
$USERI4
 70
0
  9
$USERI5
 70
0
  9
$USERR1
 40
0.0
  9
$USERR2
 40
0.0
  9
$USERR3
 40
0.0
  9
$USERR4
 40
0.0
  9
$USERR5
 40
0.0
  9
$WORLDVIEW
 70
1
  9
$SHADEDGE
 70
3
  9
$SHADEDIF
 70
70
  9
$TILEMODE
 70
1
  9
$MAXACTVP
 70
64
  9
$PINSBASE
 10
0.0
 20
0.0
 30
0.0
  9
$PLIMCHECK
 70
0
  9
$PEXTMIN
 10
0.628866766397
 20
0.799999952316
 30
0.0
  9
$PEXTMAX
 10
9.02886638493
 20
7.19999957085
 30
0.0
  9
$PLIMMIN
 10
-0.700541819174
 20
-0.228100386192
  9
$PLIMMAX
 10
10.2994579405
 20
8.27189937351
  9
$UNITMODE
 70
0
  9
$VISRETAIN
 70
1
  9
$PLINEGEN
 70
0
  9
$PSLTSCALE
 70
1
  9
$TREEDEPTH
 70
3020
  9
$CMLSTYLE
  2
Standard
  9
$CMLJUST
 70
0
  9
$CMLSCALE
 40
1.0
  9
$PROXYGRAPHICS
 70
1
  9
$MEASUREMENT
 70
1
  9
$CELWEIGHT
370
-1
  9
$ENDCAPS
280
0
  9
$JOINSTYLE
280
0
  9
$LWDISPLAY
290
0
  9
$INSUNITS
 70
4
  9
$HYPERLINKBASE
  1

  9
$STYLESHEET
  1

  9
$XEDIT
290
1
  9
$CEPSNTYPE
380
0
  9
$PSTYLEMODE
290
1
  9
$FINGERPRINTGUID
  2
{39DB1BDD-BC6C-46D3-A333-DFCC0DC4782D}
  9
$VERSIONGUID
  2
{69EEBB2D-7039-498F-9366-3F994E4A07E7}
  9
$EXTNAMES
290
1
  9
$PSVPSCALE
 40
0.0
  9
$OLESTARTUP
290
0
  9
$SORTENTS
280
127
  9
$INDEXCTL
280
0
  9
$HIDETEXT
280
1
  9
$XCLIPFRAME
290
0
  9
$HALOGAP
280
0
  9
$OBSCOLOR
 70
257
  9
$OBSLTYPE
280
0
  9
$INTERSECTIONDISPLAY
280
0
  9
$INTERSECTIONCOLOR
 70
257
  9
$DIMASSOC
280
2
  9
$PROJECTNAME
  1

  9
$CAMERADISPLAY
290
0
  9
$LENSLENGTH
 40
50.0
  9
$CAMERAHEIGHT
 40
0.0
  9
$STEPSPERSEC
 40
2.0
  9
$STEPSIZE
 40
6.0
  9
$3DDWFPREC
 40
2.0
  9
$PSOLWIDTH
 40
0.25
  9
$PSOLHEIGHT
 40
4.0
  9
$LOFTANG1
 40
1.57079632679
  9
$LOFTANG2
 40
1.57079632679
  9
$LOFTMAG1
 40
0.0
  9
$LOFTMAG2
 40
0.0
  9
$LOFTPARAM
 70
7
  9
$LOFTNORMALS
280
1
  9
$LATITUDE
 40
37.795
  9
$LONGITUDE
 40
-122.394
  9
$NORTHDIRECTION
 40
0.0
  9
$TIMEZONE
 70
-8000
  9
$LIGHTGLYPHDISPLAY
280
1
  9
$TILEMODELIGHTSYNCH
280
1
  9
$CMATERIAL
347
96
  9
$SOLIDHIST
280
1
  9
$SHOWHIST
280
1
  9
$DWFFRAME
280
2
  9
$DGNFRAME
280
0
  9
$REALWORLDSCALE
290
1
  9
$INTERFERECOLOR
 62
1
  9
$INTERFEREOBJVS
345
A3
  9
$INTERFEREVPVS
346
A0
  9
$CSHADOW
280
0
  9
$SHADOWPLANELOCATION
 40
0.0
  0
ENDSEC
  0
SECTION
  2
CLASSES
  0
CLASS
  1
ACDBDICTIONARYWDFLT
  2
AcDbDictionaryWithDefault
  3
ObjectDBX Classes
 90
0
 91
1
280
0
281
0
  0
CLASS
  1
DICTIONARYVAR
  2
AcDbDictionaryVar
  3
ObjectDBX Classes
 90
0
 91
13
280
0
281
0
  0
CLASS
  1
TABLESTYLE
  2
AcDbTableStyle
  3
ObjectDBX Classes
 90
4095
 91
1
280
0
281
0
  0
CLASS
  1
MATERIAL
  2
AcDbMaterial
  3
ObjectDBX Classes
 90
1153
 91
3
280
0
281
0
  0
CLASS
  1
VISUALSTYLE
  2
AcDbVisualStyle
  3
ObjectDBX Classes
 90
4095
 91
19
280
0
281
0
  0
CLASS
  1
SCALE
  2
AcDbScale
  3
ObjectDBX Classes
 90
1153
 91
17
280
0
281
0
  0
CLASS
  1
MLEADERSTYLE
  2
AcDbMLeaderStyle
  3
ACDB_MLEADERSTYLE_CLASS
 90
4095
 91
3
280
0
281
0
  0
CLASS
  1
CELLSTYLEMAP
  2
AcDbCellStyleMap
  3
ObjectDBX Classes
 90
1152
 91
4
280
0
281
0
  0
CLASS
  1
EXACXREFPANELOBJECT
  2
ExAcXREFPanelObject
  3
EXAC_ESW
 90
1025
 91
0
280
0
281
0
  0
CLASS
  1
NPOCOLLECTION
  2
AcDbImpNonPersistentObjectsCollection
  3
ObjectDBX Classes
 90
1153
 91
0
280
0
281
0
  0
CLASS
  1
LAYER_INDEX
  2
AcDbLayerIndex
  3
ObjectDBX Classes
 90
0
 91
0
280
0
281
0
  0
CLASS
  1
SPATIAL_INDEX
  2
AcDbSpatialIndex
  3
ObjectDBX Classes
 90
0
 91
0
280
0
281
0
  0
CLASS
  1
IDBUFFER
  2
AcDbIdBuffer
  3
ObjectDBX Classes
 90
0
 91
0
280
0
281
0
  0
CLASS
  1
DIMASSOC
  2
AcDbDimAssoc
  3
"AcDbDimAssoc|Product Desc:     AcDim ARX App For Dimension|Company:          Autodesk, Inc.|WEB Address:      www.autodesk.com"
 90
0
 91
0
280
0
281
0
  0
CLASS
  1
IMAGEDEF
  2
AcDbRasterImageDef
  3
ISM
 90
0
 91
1
280
0
281
0
  0
CLASS
  1
RASTERVARIABLES
  2
AcDbRasterVariables
  3
ISM
 90
0
 91
1
280
0
281
0
  0
CLASS
  1
IMAGEDEF_REACTOR
  2
AcDbRasterImageDefReactor
  3
ISM
 90
1
 91
1
280
0
281
0
  0
CLASS
  1
IMAGE
  2
AcDbRasterImage
  3
ISM
 90
2175
 91
1
280
0
281
1
  0
CLASS
  1
PDFDEFINITION
  2
AcDbPdfDefinition
  3
ObjectDBX Classes
 90
1153
 91
1
280
0
281
0
  0
CLASS
  1
PDFUNDERLAY
  2
AcDbPdfReference
  3
ObjectDBX Classes
 90
4095
 91
1
280
0
281
1
  0
CLASS
  1
DWFDEFINITION
  2
AcDbDwfDefinition
  3
ObjectDBX Classes
 90
1153
 91
2
280
0
281
0
  0
CLASS
  1
DWFUNDERLAY
  2
AcDbDwfReference
  3
ObjectDBX Classes
 90
1153
 91
1
280
0
281
1
  0
CLASS
  1
DGNDEFINITION
  2
AcDbDgnDefinition
  3
ObjectDBX Classes
 90
1153
 91
2
280
0
281
0
  0
CLASS
  1
DGNUNDERLAY
  2
AcDbDgnReference
  3
ObjectDBX Classes
 90
1153
 91
1
280
0
281
1
  0
ENDSEC
  0
SECTION
  2
TABLES
  0
TABLE
  2
VPORT
  5
8
330
0
100
AcDbSymbolTable
 70
0
  0
ENDTAB
  0
TABLE
  2
LTYPE
  5
5
330
0
100
AcDbSymbolTable
 70
7
  0
LTYPE
  5
14
330
5
100
AcDbSymbolTableRecord
100
AcDbLinetypeTableRecord
  2
ByBlock
 70
0
  3

 72
65
 73
0
 40
0.0
  0
LTYPE
  5
15
330
5
100
AcDbSymbolTableRecord
100
AcDbLinetypeTableRecord
  2
ByLayer
 70
0
  3

 72
65
 73
0
 40
0.0
  0
LTYPE
  5
16
330
5
100
AcDbSymbolTableRecord
100
AcDbLinetypeTableRecord
  2
Continuous
 70
0
  3
Solid line
 72
65
 73
0
 40
0.0
  0
LTYPE
  5
1B1
330
5
100
AcDbSymbolTableRecord
100
AcDbLinetypeTableRecord
  2
CENTER
 70
0
  3
Center ____ _ ____ _ ____ _ ____ _ ____ _ ____
 72
65
 73
4
 40
2.0
 49
1.25
 74
0
 49
-0.25
 74
0
 49
0.25
 74
0
 49
-0.25
 74
0
  0
LTYPE
  5
1B2
330
5
100
AcDbSymbolTableRecord
100
AcDbLinetypeTableRecord
  2
DASHED
 70
0
  3
Dashed __ __ __ __ __ __ __ __ __ __ __ __ __ _
 72
65
 73
2
 40
0.75
 49
0.5
 74
0
 49
-0.25
 74
0
  0
LTYPE
  5
1B3
330
5
100
AcDbSymbolTableRecord
100
AcDbLinetypeTableRecord
  2
PHANTOM
 70
0
  3
Phantom ______  __  __  ______  __  __  ______
 72
65
 73
6
 40
2.5
 49
1.25
 74
0
 49
-0.25
 74
0
 49
0.25
 74
0
 49
-0.25
 74
0
 49
0.25
 74
0
 49
-0.25
 74
0
  0
LTYPE
  5
39E
330
5
100
AcDbSymbolTableRecord
100
AcDbLinetypeTableRecord
  2
HIDDEN
 70
0
  3
Hidden __ __ __ __ __ __ __ __ __ __ __ __ __ __
 72
65
 73
2
 40
9.525
 49
6.35
 74
0
 49
-3.175
 74
0
  0
ENDTAB
  0
TABLE
  2
LAYER
  5
2
330
0
100
AcDbSymbolTable
 70
6
  0
LAYER
  5
10
330
2
100
AcDbSymbolTableRecord
100
AcDbLayerTableRecord
  2
0
 70
0
 62
2
  6
Continuous
370
-3
390
F
347
98
  0
LAYER
  5
1B4
330
2
100
AcDbSymbolTableRecord
100
AcDbLayerTableRecord
  2
View Port
 70
0
 62
7
  6
Continuous
290
0
370
-3
390
F
347
98
  0
LAYER
  5
21D
330
2
100
AcDbSymbolTableRecord
100
AcDbLayerTableRecord
  2
Defpoints
 70
0
 62
7
  6
Continuous
290
0
370
-3
390
F
347
98
  0
LAYER
  5
58D
330
2
100
AcDbSymbolTableRecord
100
AcDbLayerTableRecord
  2
GRAVIRANJE
 70
0
 62
3
  6
CONTINUOUS
290
1
390
503
  0
LAYER
  5
58F
330
2
100
AcDbSymbolTableRecord
100
AcDbLayerTableRecord
  2
HOLES
 70
0
 62
160
  6
CONTINUOUS
290
1
390
503
  0
LAYER
  5
5EC
330
2
100
AcDbSymbolTableRecord
100
AcDbLayerTableRecord
  2
IZREZ
 70
0
 62
7
  6
CONTINUOUS
290
1
390
503
  0
ENDTAB
  0
TABLE
  2
STYLE
  5
3
330
0
100
AcDbSymbolTable
 70
3
  0
STYLE
  5
11
330
3
100
AcDbSymbolTableRecord
100
AcDbTextStyleTableRecord
  2
Standard
 70
0
 40
0.0
 41
1.0
 50
0.0
 71
0
 42
0.2
  3
arial.ttf
  4

  0
STYLE
  5
DC
330
3
100
AcDbSymbolTableRecord
100
AcDbTextStyleTableRecord
  2
Annotative
 70
0
 40
0.0
 41
1.0
 50
0.0
 71
0
 42
0.2
  3
arial.ttf
  4

  0
STYLE
  5
178
330
3
100
AcDbSymbolTableRecord
100
AcDbTextStyleTableRecord
  2
Notes
 70
0
 40
3.0
 41
1.0
 50
0.0
 71
0
 42
0.2
  3
arial.ttf
  4

  0
ENDTAB
  0
TABLE
  2
VIEW
  5
6
330
0
100
AcDbSymbolTable
 70
0
  0
ENDTAB
  0
TABLE
  2
UCS
  5
7
330
0
100
AcDbSymbolTable
 70
0
  0
ENDTAB
  0
TABLE
  2
APPID
  5
9
330
0
100
AcDbSymbolTable
 70
11
  0
APPID
  5
12
330
9
100
AcDbSymbolTableRecord
100
AcDbRegAppTableRecord
  2
ACAD
 70
0
  0
APPID
  5
DD
330
9
100
AcDbSymbolTableRecord
100
AcDbRegAppTableRecord
  2
AcadAnnoPO
 70
0
  0
APPID
  5
DE
330
9
100
AcDbSymbolTableRecord
100
AcDbRegAppTableRecord
  2
AcadAnnotative
 70
0
  0
APPID
  5
DF
330
9
100
AcDbSymbolTableRecord
100
AcDbRegAppTableRecord
  2
ACAD_DSTYLE_DIMJAG
 70
0
  0
APPID
  5
E0
330
9
100
AcDbSymbolTableRecord
100
AcDbRegAppTableRecord
  2
ACAD_DSTYLE_DIMTALN
 70
0
  0
APPID
  5
107
330
9
100
AcDbSymbolTableRecord
100
AcDbRegAppTableRecord
  2
ACAD_MLEADERVER
 70
0
  0
APPID
  5
1B5
330
9
100
AcDbSymbolTableRecord
100
AcDbRegAppTableRecord
  2
AcAecLayerStandard
 70
0
  0
APPID
  5
1BA
330
9
100
AcDbSymbolTableRecord
100
AcDbRegAppTableRecord
  2
ACAD_EXEMPT_FROM_CAD_STANDARDS
 70
0
  0
APPID
  5
237
330
9
100
AcDbSymbolTableRecord
100
AcDbRegAppTableRecord
  2
ACAD_DSTYLE_DIMBREAK
 70
0
  0
APPID
  5
28E
330
9
100
AcDbSymbolTableRecord
100
AcDbRegAppTableRecord
  2
ACAD_PSEXT
 70
0
  0
APPID
  5
4C2
330
9
100
AcDbSymbolTableRecord
100
AcDbRegAppTableRecord
  2
HATCHBACKGROUNDCOLOR
 70
0
  0
ENDTAB
  0
TABLE
  2
DIMSTYLE
  5
A
330
0
100
AcDbSymbolTable
 70
3
100
AcDbDimStyleTable
 71
3
340
242
340
27
340
E1
  0
DIMSTYLE
105
27
330
A
100
AcDbSymbolTableRecord
100
AcDbDimStyleTableRecord
  2
Standard
 70
0
 41
3.0
 42
2.0
 43
9.0
 44
5.0
140
3.0
141
2.0
147
2.0
340
11
1001
ACAD_DSTYLE_DIMJAG
1070
388
1040
38.0
1001
ACAD_DSTYLE_DIMBREAK
1070
391
1040
90.0
1001
ACAD_DSTYLE_DIMTALN
1070
392
1070
0
  0
DIMSTYLE
105
E1
330
A
100
AcDbSymbolTableRecord
100
AcDbDimStyleTableRecord
  2
Annotative
 70
0
 40
0.0
 41
3.0
 42
2.5
 43
10.0
 44
5.0
140
3.0
141
2.0
147
2.0
340
11
1001
AcadAnnotative
1000
AnnotativeData
1002
{
1070
1
1070
1
1002
}
1001
ACAD_DSTYLE_DIMJAG
1070
388
1040
38.0
1001
ACAD_DSTYLE_DIMBREAK
1070
391
1040
90.0
1001
ACAD_DSTYLE_DIMTALN
1070
392
1070
0
  0
DIMSTYLE
105
242
330
A
100
AcDbSymbolTableRecord
100
AcDbDimStyleTableRecord
  2
Civil-Metric
 70
0
 41
3.0
 42
1.5
 43
6.0
 44
3.0
 73
0
 74
0
 77
1
 78
3
 79
2
140
3.0
141
3.0
147
2.0
179
2
271
2
272
2
276
1
340
11
1001
ACAD_DSTYLE_DIMBREAK
1070
391
1040
3.0
1001
ACAD_DSTYLE_DIMJAG
1070
388
1040
38.0
1001
ACAD_DSTYLE_DIMTALN
1070
392
1070
0
  0
ENDTAB
  0
TABLE
  2
BLOCK_RECORD
  5
1
330
0
100
AcDbSymbolTable
 70
4
  0
BLOCK_RECORD
  5
1F
330
1
100
AcDbSymbolTableRecord
100
AcDbBlockTableRecord
  2
*Model_Space
340
507
 70
0
280
1
281
0
  0
BLOCK_RECORD
  5
58
330
1
100
AcDbSymbolTableRecord
100
AcDbBlockTableRecord
  2
*Paper_Space
340
508
 70
0
280
1
281
0
  0
BLOCK_RECORD
  5
238
330
1
100
AcDbSymbolTableRecord
100
AcDbBlockTableRecord
  2
_ArchTick
340
0
 70
0
280
1
281
0
  0
BLOCK_RECORD
  5
23C
330
1
100
AcDbSymbolTableRecord
100
AcDbBlockTableRecord
  2
_Open30
340
0
 70
0
280
1
281
0
  0
ENDTAB
  0
ENDSEC
  0
SECTION
  2
BLOCKS
  0
BLOCK
  5
23A
330
238
100
AcDbEntity
  8
0
100
AcDbBlockBegin
  2
_ArchTick
 70
0
 10
0.0
 20
0.0
 30
0.0
  3
_ArchTick
  1

  0
LWPOLYLINE
  5
239
330
238
100
AcDbEntity
  8
0
  6
ByBlock
 62
0
100
AcDbPolyline
 90
2
 70
0
 43
0.15
 10
-0.5
 20
-0.5
 10
0.5
 20
0.5
  0
ENDBLK
  5
23B
330
238
100
AcDbEntity
  8
0
100
AcDbBlockEnd
  0
BLOCK
  5
20
330
1F
100
AcDbEntity
  8
0
100
AcDbBlockBegin
  2
*Model_Space
 70
0
 10
0.0
 20
0.0
 30
0.0
  3
*Model_Space
  1

  0
ENDBLK
  5
21
330
1F
100
AcDbEntity
  8
0
100
AcDbBlockEnd
  0
BLOCK
  5
5A
330
58
100
AcDbEntity
 67
1
  8
0
100
AcDbBlockBegin
  2
*Paper_Space
 70
0
 10
0.0
 20
0.0
 30
0.0
  3
*Paper_Space
  1

  0
ENDBLK
  5
5B
330
58
100
AcDbEntity
 67
1
  8
0
100
AcDbBlockEnd
  0
BLOCK
  5
240
330
23C
100
AcDbEntity
  8
0
100
AcDbBlockBegin
  2
_Open30
 70
0
 10
0.0
 20
0.0
 30
0.0
  3
_Open30
  1

  0
LINE
  5
23D
330
23C
100
AcDbEntity
  8
0
  6
ByBlock
 62
0
370
-2
100
AcDbLine
 10
-1.0
 20
0.26794919
 30
0.0
 11
0.0
 21
0.0
 31
0.0
  0
LINE
  5
23E
330
23C
100
AcDbEntity
  8
0
  6
ByBlock
 62
0
370
-2
100
AcDbLine
 10
0.0
 20
0.0
 30
0.0
 11
-1.0
 21
-0.26794919
 31
0.0
  0
LINE
  5
23F
330
23C
100
AcDbEntity
  8
0
  6
ByBlock
 62
0
370
-2
100
AcDbLine
 10
0.0
 20
0.0
 30
0.0
 11
-1.0
 21
0.0
 31
0.0
  0
ENDBLK
  5
241
330
23C
100
AcDbEntity
  8
0
100
AcDbBlockEnd
  0
ENDSEC
  0
SECTION
  2
ENTITIES
  0
TEXT
  5
58E
330
1F
100
AcDbEntity
  8
GRAVIRANJE
 67
0
100
AcDbText
 10
-14.479380463
 20
5.48503401907
 30
0.0
 40
2.5
  1
3-*-6
 50
0.0
 51
0.0
  7
standard
 41
1.0
 71
0
 72
0
 11
0.0
 21
0.0
 31
0.0
100
AcDbText
 73
0
  0
LWPOLYLINE
  5
590
330
1F
100
AcDbEntity
  8
HOLES
 67
0
100
AcDbPolyline
 90
4
 70
1
 10
-65.40607952
 20
64.2391995767
 10
-17.90607952
 20
64.2391995767
 10
-17.90607952
 20
36.2391995767
 10
-65.40607952
 20
36.2391995767
  0
LWPOLYLINE
  5
591
330
1F
100
AcDbEntity
  8
0
 67
0
100
AcDbPolyline
 90
4
 70
1
 10
-424.799991584
 20
-0.570000236185
 10
-420.630723304
 20
-0.570000236185
 10
-420.630723304
 20
3.04457967899
 10
-424.799991584
 20
3.04457967899
  0
TEXT
  5
592
330
1F
100
AcDbEntity
  8
GRAVIRANJE
 67
0
100
AcDbText
 10
-60.0
 20
29.43
 30
0.0
 40
2.5
  1
LEFT SIDE (INSIDE)
 50
0.0
 51
0.0
  7
standard
 41
1.0
 71
0
 72
0
 11
0.0
 21
0.0
 31
0.0
100
AcDbText
 73
0
  0
CIRCLE
  5
593
330
1F
100
AcDbEntity
  8
HOLES
 67
0
100
AcDbCircle
 10
-30.0
 20
250.0
 40
2.0
  0
CIRCLE
  5
594
330
1F
100
AcDbEntity
  8
HOLES
 67
0
100
AcDbCircle
 10
-40.0
 20
250.0
 40
2.0
  0
CIRCLE
  5
595
330
1F
100
AcDbEntity
  8
HOLES
 67
0
100
AcDbCircle
 10
-30.0
 20
170.0
 40
2.0
  0
CIRCLE
  5
596
330
1F
100
AcDbEntity
  8
HOLES
 67
0
100
AcDbCircle
 10
-40.0
 20
170.0
 40
2.0
  0
CIRCLE
  5
597
330
1F
100
AcDbEntity
  8
HOLES
 67
0
100
AcDbCircle
 10
-320.0
 20
120.0
 40
1.5
  0
CIRCLE
  5
598
330
1F
100
AcDbEntity
  8
HOLES
 67
0
100
AcDbCircle
 10
-100.0
 20
120.0
 40
1.5
  0
CIRCLE
  5
599
330
1F
100
AcDbEntity
  8
HOLES
 67
0
100
AcDbCircle
 10
-210.0
 20
390.0
 40
1.5
  0
LWPOLYLINE
  5
59A
330
1F
100
AcDbEntity
  8
HOLES
 67
0
100
AcDbPolyline
 90
14
 70
1
 10
-377.599038106
 20
442.05
 10
-377.05
 20
442.599038106
 10
-376.3
 20
442.8
 10
-346.3
 20
442.8
 10
-345.55
 20
442.599038106
 10
-345.000961894
 20
442.05
 10
-344.8
 20
441.3
 10
-345.000961894
 20
440.55
 10
-345.55
 20
440.000961894
 10
-346.3
 20
439.8
 10
-376.3
 20
439.8
 10
-377.05
 20
440.000961894
 10
-377.599038106
 20
440.55
 10
-377.8
 20
441.3
  0
LWPOLYLINE
  5
59B
330
1F
100
AcDbEntity
  8
HOLES
 67
0
100
AcDbPolyline
 90
14
 70
1
 10
-377.599038106
 20
451.65
 10
-377.05
 20
452.199038106
 10
-376.3
 20
452.4
 10
-346.3
 20
452.4
 10
-345.55
 20
452.199038106
 10
-345.000961894
 20
451.65
 10
-344.8
 20
450.9
 10
-345.000961894
 20
450.15
 10
-345.55
 20
449.600961894
 10
-346.3
 20
449.4
 10
-376.3
 20
449.4
 10
-377.05
 20
449.600961894
 10
-377.599038106
 20
450.15
 10
-377.8
 20
450.9
  0
LWPOLYLINE
  5
59C
330
1F
100
AcDbEntity
  8
HOLES
 67
0
100
AcDbPolyline
 90
14
 70
1
 10
-377.599038106
 20
461.05
 10
-377.05
 20
461.599038106
 10
-376.3
 20
461.8
 10
-346.3
 20
461.8
 10
-345.55
 20
461.599038106
 10
-345.000961894
 20
461.05
 10
-344.8
 20
460.3
 10
-345.000961894
 20
459.55
 10
-345.55
 20
459.000961894
 10
-346.3
 20
458.8
 10
-376.3
 20
458.8
 10
-377.05
 20
459.000961894
 10
-377.599038106
 20
459.55
 10
-377.8
 20
460.3
  0
POINT
  5
59D
330
1F
100
AcDbEntity
  8
0
 67
0
100
AcDbPoint
 10
-376.3
 20
441.3
  0
TEXT
  5
59E
330
1F
100
AcDbEntity
  8
GRAVIRANJE
 67
0
100
AcDbText
 10
-30.0
 20
10.0
 30
0.0
 40
3.0
  1
INNER LEFT
 50
0.0
 51
0.0
  7
standard
 41
1.0
 71
0
 72
0
 11
0.0
 21
0.0
 31
0.0
100
AcDbText
 73
0
  0
CIRCLE
  5
59F
330
1F
100
AcDbEntity
  8
HOLES
 67
0
100
AcDbCircle
 10
-30.0
 20
310.0
 40
2.0
  0
CIRCLE
  5
5A0
330
1F
100
AcDbEntity
  8
HOLES
 67
0
100
AcDbCircle
 10
-40.0
 20
310.0
 40
2.0
  0
LWPOLYLINE
  5
5A1
330
1F
100
AcDbEntity
  8
HOLES
 67
0
100
AcDbPolyline
 90
14
 70
1
 10
-101.299038106
 20
442.05
 10
-100.75
 20
442.599038106
 10
-100.0
 20
442.8
 10
-70.0
 20
442.8
 10
-69.25
 20
442.599038106
 10
-68.7009618943
 20
442.05
 10
-68.5
 20
441.3
 10
-68.7009618943
 20
440.55
 10
-69.25
 20
440.000961894
 10
-70.0
 20
439.8
 10
-100.0
 20
439.8
 10
-100.75
 20
440.000961894
 10
-101.299038106
 20
440.55
 10
-101.5
 20
441.3
  0
LWPOLYLINE
  5
5A2
330
1F
100
AcDbEntity
  8
HOLES
 67
0
100
AcDbPolyline
 90
14
 70
1
 10
-101.299038106
 20
451.65
 10
-100.75
 20
452.199038106
 10
-100.0
 20
452.4
 10
-70.0
 20
452.4
 10
-69.25
 20
452.199038106
 10
-68.7009618943
 20
451.65
 10
-68.5
 20
450.9
 10
-68.7009618943
 20
450.15
 10
-69.25
 20
449.600961894
 10
-70.0
 20
449.4
 10
-100.0
 20
449.4
 10
-100.75
 20
449.600961894
 10
-101.299038106
 20
450.15
 10
-101.5
 20
450.9
  0
POINT
  5
5A3
330
1F
100
AcDbEntity
  8
0
 67
0
100
AcDbPoint
 10
-70.0
 20
441.3
  0
POINT
  5
5A4
330
1F
100
AcDbEntity
  8
0
 67
0
100
AcDbPoint
 10
0.0
 20
250.0
  0
POINT
  5
5A5
330
1F
100
AcDbEntity
  8
0
 67
0
100
AcDbPoint
 10
-210.0
 20
77.0
  0
POINT
  5
5A6
330
1F
100
AcDbEntity
  8
0
 67
0
100
AcDbPoint
 10
-70.0
 20
77.0
  0
POINT
  5
5A7
330
1F
100
AcDbEntity
  8
0
 67
0
100
AcDbPoint
 10
-350.0
 20
77.0
  0
POINT
  5
5A8
330
1F
100
AcDbEntity
  8
0
 67
0
100
AcDbPoint
 10
-54.0
 20
481.0
  0
POINT
  5
5A9
330
1F
100
AcDbEntity
  8
0
 67
0
100
AcDbPoint
 10
-210.0
 20
481.0
  0
POINT
  5
5AA
330
1F
100
AcDbEntity
  8
0
 67
0
100
AcDbPoint
 10
-367.0
 20
481.0
  0
POINT
  5
5AB
330
1F
100
AcDbEntity
  8
0
 67
0
100
AcDbPoint
 10
-409.0
 20
481.0
  0
POINT
  5
5AC
330
1F
100
AcDbEntity
  8
0
 67
0
100
AcDbPoint
 10
-409.0
 20
77.0
  0
POINT
  5
5AD
330
1F
100
AcDbEntity
  8
0
 67
0
100
AcDbPoint
 10
-412.0
 20
250.0
  0
POINT
  5
5AE
330
1F
100
AcDbEntity
  8
0
 67
0
100
AcDbPoint
 10
-412.0
 20
100.0
  0
POINT
  5
5AF
330
1F
100
AcDbEntity
  8
0
 67
0
100
AcDbPoint
 10
-9.0
 20
100.0
  0
POINT
  5
5B0
330
1F
100
AcDbEntity
  8
0
 67
0
100
AcDbPoint
 10
-9.0
 20
250.0
  0
POINT
  5
5B1
330
1F
100
AcDbEntity
  8
0
 67
0
100
AcDbPoint
 10
-9.0
 20
400.0
  0
LWPOLYLINE
  5
5B2
330
1F
100
AcDbEntity
  8
HOLES
 67
0
100
AcDbPolyline
 90
5
 70
1
 10
-337.0
 20
484.0
 10
-347.0
 20
484.0
 10
-347.0
 20
478.0
 10
-337.0
 20
478.0
 10
-337.0
 20
478.0
  0
CIRCLE
  5
5B3
330
1F
100
AcDbEntity
  8
HOLES
 67
0
100
AcDbCircle
 10
-367.0
 20
481.0
 40
1.5
  0
LWPOLYLINE
  5
5B4
330
1F
100
AcDbEntity
  8
HOLES
 67
0
100
AcDbPolyline
 90
5
 70
1
 10
-180.0
 20
484.0
 10
-190.0
 20
484.0
 10
-190.0
 20
478.0
 10
-180.0
 20
478.0
 10
-180.0
 20
478.0
  0
LWPOLYLINE
  5
5B5
330
1F
100
AcDbEntity
  8
HOLES
 67
0
100
AcDbPolyline
 90
5
 70
1
 10
-230.0
 20
484.0
 10
-240.0
 20
484.0
 10
-240.0
 20
478.0
 10
-230.0
 20
478.0
 10
-230.0
 20
478.0
  0
CIRCLE
  5
5B6
330
1F
100
AcDbEntity
  8
HOLES
 67
0
100
AcDbCircle
 10
-210.0
 20
481.0
 40
1.5
  0
LWPOLYLINE
  5
5B7
330
1F
100
AcDbEntity
  8
HOLES
 67
0
100
AcDbPolyline
 90
5
 70
1
 10
-74.0
 20
484.0
 10
-84.0
 20
484.0
 10
-84.0
 20
478.0
 10
-74.0
 20
478.0
 10
-74.0
 20
478.0
  0
CIRCLE
  5
5B8
330
1F
100
AcDbEntity
  8
HOLES
 67
0
100
AcDbCircle
 10
-54.0
 20
481.0
 40
1.5
  0
LWPOLYLINE
  5
5B9
330
1F
100
AcDbEntity
  8
HOLES
 67
0
100
AcDbPolyline
 90
5
 70
1
 10
-180.0
 20
80.0
 10
-190.0
 20
80.0
 10
-190.0
 20
74.0
 10
-180.0
 20
74.0
 10
-180.0
 20
74.0
  0
LWPOLYLINE
  5
5BA
330
1F
100
AcDbEntity
  8
HOLES
 67
0
100
AcDbPolyline
 90
5
 70
1
 10
-230.0
 20
80.0
 10
-240.0
 20
80.0
 10
-240.0
 20
74.0
 10
-230.0
 20
74.0
 10
-230.0
 20
74.0
  0
CIRCLE
  5
5BB
330
1F
100
AcDbEntity
  8
HOLES
 67
0
100
AcDbCircle
 10
-210.0
 20
77.0
 40
1.5
  0
LWPOLYLINE
  5
5BC
330
1F
100
AcDbEntity
  8
HOLES
 67
0
100
AcDbPolyline
 90
5
 70
1
 10
-40.0
 20
80.0
 10
-50.0
 20
80.0
 10
-50.0
 20
74.0
 10
-40.0
 20
74.0
 10
-40.0
 20
74.0
  0
LWPOLYLINE
  5
5BD
330
1F
100
AcDbEntity
  8
HOLES
 67
0
100
AcDbPolyline
 90
5
 70
1
 10
-90.0
 20
80.0
 10
-100.0
 20
80.0
 10
-100.0
 20
74.0
 10
-90.0
 20
74.0
 10
-90.0
 20
74.0
  0
CIRCLE
  5
5BE
330
1F
100
AcDbEntity
  8
HOLES
 67
0
100
AcDbCircle
 10
-70.0
 20
77.0
 40
1.5
  0
LWPOLYLINE
  5
5BF
330
1F
100
AcDbEntity
  8
HOLES
 67
0
100
AcDbPolyline
 90
5
 70
1
 10
-320.0
 20
80.0
 10
-330.0
 20
80.0
 10
-330.0
 20
74.0
 10
-320.0
 20
74.0
 10
-320.0
 20
74.0
  0
LWPOLYLINE
  5
5C0
330
1F
100
AcDbEntity
  8
HOLES
 67
0
100
AcDbPolyline
 90
5
 70
1
 10
-370.0
 20
80.0
 10
-380.0
 20
80.0
 10
-380.0
 20
74.0
 10
-370.0
 20
74.0
 10
-370.0
 20
74.0
  0
CIRCLE
  5
5C1
330
1F
100
AcDbEntity
  8
HOLES
 67
0
100
AcDbCircle
 10
-350.0
 20
77.0
 40
1.5
  0
LWPOLYLINE
  5
5C2
330
1F
100
AcDbEntity
  8
HOLES
 67
0
100
AcDbPolyline
 90
5
 70
1
 10
-415.0
 20
280.0
 10
-415.0
 20
270.0
 10
-409.0
 20
270.0
 10
-409.0
 20
280.0
 10
-409.0
 20
280.0
  0
LWPOLYLINE
  5
5C3
330
1F
100
AcDbEntity
  8
HOLES
 67
0
100
AcDbPolyline
 90
5
 70
1
 10
-415.0
 20
230.0
 10
-415.0
 20
220.0
 10
-409.0
 20
220.0
 10
-409.0
 20
230.0
 10
-409.0
 20
230.0
  0
CIRCLE
  5
5C4
330
1F
100
AcDbEntity
  8
HOLES
 67
0
100
AcDbCircle
 10
-412.0
 20
250.0
 40
1.5
  0
LWPOLYLINE
  5
5C5
330
1F
100
AcDbEntity
  8
HOLES
 67
0
100
AcDbPolyline
 90
5
 70
1
 10
-415.0
 20
130.0
 10
-415.0
 20
120.0
 10
-409.0
 20
120.0
 10
-409.0
 20
130.0
 10
-409.0
 20
130.0
  0
LWPOLYLINE
  5
5C6
330
1F
100
AcDbEntity
  8
HOLES
 67
0
100
AcDbPolyline
 90
5
 70
1
 10
-415.0
 20
80.0
 10
-415.0
 20
70.0
 10
-409.0
 20
70.0
 10
-409.0
 20
80.0
 10
-409.0
 20
80.0
  0
CIRCLE
  5
5C7
330
1F
100
AcDbEntity
  8
HOLES
 67
0
100
AcDbCircle
 10
-412.0
 20
100.0
 40
1.5
  0
LWPOLYLINE
  5
5C8
330
1F
100
AcDbEntity
  8
HOLES
 67
0
100
AcDbPolyline
 90
5
 70
1
 10
-12.0
 20
130.0
 10
-12.0
 20
120.0
 10
-6.0
 20
120.0
 10
-6.0
 20
130.0
 10
-6.0
 20
130.0
  0
LWPOLYLINE
  5
5C9
330
1F
100
AcDbEntity
  8
HOLES
 67
0
100
AcDbPolyline
 90
5
 70
1
 10
-12.0
 20
80.0
 10
-12.0
 20
70.0
 10
-6.0
 20
70.0
 10
-6.0
 20
80.0
 10
-6.0
 20
80.0
  0
CIRCLE
  5
5CA
330
1F
100
AcDbEntity
  8
HOLES
 67
0
100
AcDbCircle
 10
-9.0
 20
100.0
 40
1.5
  0
LWPOLYLINE
  5
5CB
330
1F
100
AcDbEntity
  8
HOLES
 67
0
100
AcDbPolyline
 90
5
 70
1
 10
-12.0
 20
280.0
 10
-12.0
 20
270.0
 10
-6.0
 20
270.0
 10
-6.0
 20
280.0
 10
-6.0
 20
280.0
  0
LWPOLYLINE
  5
5CC
330
1F
100
AcDbEntity
  8
HOLES
 67
0
100
AcDbPolyline
 90
5
 70
1
 10
-12.0
 20
230.0
 10
-12.0
 20
220.0
 10
-6.0
 20
220.0
 10
-6.0
 20
230.0
 10
-6.0
 20
230.0
  0
CIRCLE
  5
5CD
330
1F
100
AcDbEntity
  8
HOLES
 67
0
100
AcDbCircle
 10
-9.0
 20
250.0
 40
1.5
  0
LWPOLYLINE
  5
5CE
330
1F
100
AcDbEntity
  8
HOLES
 67
0
100
AcDbPolyline
 90
5
 70
1
 10
-12.0
 20
430.0
 10
-12.0
 20
420.0
 10
-6.0
 20
420.0
 10
-6.0
 20
430.0
 10
-6.0
 20
430.0
  0
LWPOLYLINE
  5
5CF
330
1F
100
AcDbEntity
  8
HOLES
 67
0
100
AcDbPolyline
 90
5
 70
1
 10
-12.0
 20
380.0
 10
-12.0
 20
370.0
 10
-6.0
 20
370.0
 10
-6.0
 20
380.0
 10
-6.0
 20
380.0
  0
CIRCLE
  5
5D0
330
1F
100
AcDbEntity
  8
HOLES
 67
0
100
AcDbCircle
 10
-9.0
 20
400.0
 40
1.5
  0
POINT
  5
5D1
330
1F
100
AcDbEntity
  8
0
 67
0
100
AcDbPoint
 10
-412.0
 20
400.0
  0
LWPOLYLINE
  5
5D2
330
1F
100
AcDbEntity
  8
HOLES
 67
0
100
AcDbPolyline
 90
5
 70
1
 10
-415.0
 20
430.0
 10
-415.0
 20
420.0
 10
-409.0
 20
420.0
 10
-409.0
 20
430.0
 10
-409.0
 20
430.0
  0
LWPOLYLINE
  5
5D3
330
1F
100
AcDbEntity
  8
HOLES
 67
0
100
AcDbPolyline
 90
5
 70
1
 10
-415.0
 20
380.0
 10
-415.0
 20
370.0
 10
-409.0
 20
370.0
 10
-409.0
 20
380.0
 10
-409.0
 20
380.0
  0
CIRCLE
  5
5D4
330
1F
100
AcDbEntity
  8
HOLES
 67
0
100
AcDbCircle
 10
-412.0
 20
400.0
 40
1.5
  0
LWPOLYLINE
  5
5D5
330
1F
100
AcDbEntity
  8
HOLES
 67
0
100
AcDbPolyline
 90
14
 70
1
 10
-105.299038106
 20
461.05
 10
-104.75
 20
461.599038106
 10
-104.0
 20
461.8
 10
-74.0
 20
461.8
 10
-73.25
 20
461.599038106
 10
-72.7009618943
 20
461.05
 10
-72.5
 20
460.3
 10
-72.7009618943
 20
459.55
 10
-73.25
 20
459.000961894
 10
-74.0
 20
458.8
 10
-104.0
 20
458.8
 10
-104.75
 20
459.000961894
 10
-105.299038106
 20
459.55
 10
-105.5
 20
460.3
  0
CIRCLE
  5
5D6
330
1F
100
AcDbEntity
  8
HOLES
 67
0
100
AcDbCircle
 10
-113.75
 20
60.0
 40
1.25
  0
CIRCLE
  5
5D7
330
1F
100
AcDbEntity
  8
HOLES
 67
0
100
AcDbCircle
 10
-86.25
 20
60.0
 40
1.25
  0
POINT
  5
5D8
330
1F
100
AcDbEntity
  8
0
 67
0
100
AcDbPoint
 10
-100.0
 20
60.0
  0
LWPOLYLINE
  5
5D9
330
1F
100
AcDbEntity
  8
HOLES
 67
0
100
AcDbPolyline
 90
12
 70
1
 10
-95.0
 20
57.0
 10
-105.0
 20
57.0
 10
-107.2
 20
58.98
 42
0.124313654801
 10
-107.485642931
 20
59.1258427239
 42
-0.272375344145
 10
-108.0
 20
60.0
 10
-108.0
 20
62.0
 42
-0.414213562373
 10
-107.0
 20
63.0
 10
-93.0
 20
63.0
 42
-0.414213562373
 10
-92.0
 20
62.0
 10
-92.0
 20
60.0
 42
-0.272375344145
 10
-92.5143570688
 20
59.1258427239
 42
0.124313654801
 10
-92.8
 20
58.98
  0
LWPOLYLINE
  5
5DA
330
1F
100
AcDbEntity
  8
HOLES
 67
0
100
AcDbPolyline
 90
8
 70
1
 10
-90.0
 20
43.0
 42
0.414213562373
 10
-92.0
 20
45.0
 10
-108.0
 20
45.0
 42
0.414213562373
 10
-110.0
 20
43.0
 10
-110.0
 20
27.0
 42
0.414213562373
 10
-108.0
 20
25.0
 10
-92.0
 20
25.0
 42
0.414213562373
 10
-90.0
 20
27.0
  0
MTEXT
  5
5DB
330
1F
100
AcDbEntity
  8
GRAVIRANJE
 67
0
100
AcDbMText
 50
0.0
 40
4.0
 41
11.1111111111
 71
1
 72
1
 73
2
 10
-105.6
 20
56.0
 30
0.0
  7
standard
 44
1.0
  1
HDMI
  0
MTEXT
  5
5DC
330
1F
100
AcDbEntity
  8
GRAVIRANJE
 67
0
100
AcDbMText
 50
0.0
 40
4.0
 41
11.5555555556
 71
1
 72
1
 73
2
 10
-106.0
 20
50.0
 30
0.0
  7
standard
 44
1.0
  1
RJ45
  0
CIRCLE
  5
5DD
330
1F
100
AcDbEntity
  8
HOLES
 67
0
100
AcDbCircle
 10
-405.7
 20
445.0
 40
1.5
  0
CIRCLE
  5
5DE
330
1F
100
AcDbEntity
  8
HOLES
 67
0
100
AcDbCircle
 10
-380.3
 20
445.0
 40
1.5
  0
CIRCLE
  5
5DF
330
1F
100
AcDbEntity
  8
HOLES
 67
0
100
AcDbCircle
 10
-393.0
 20
445.0
 40
8.0
  0
CIRCLE
  5
5E0
330
1F
100
AcDbEntity
  8
HOLES
 67
0
100
AcDbCircle
 10
-67.2
 20
445.0
 40
1.5
  0
CIRCLE
  5
5E1
330
1F
100
AcDbEntity
  8
HOLES
 67
0
100
AcDbCircle
 10
-41.8
 20
445.0
 40
1.5
  0
CIRCLE
  5
5E2
330
1F
100
AcDbEntity
  8
HOLES
 67
0
100
AcDbCircle
 10
-54.5
 20
445.0
 40
8.0
  0
CIRCLE
  5
5E3
330
1F
100
AcDbEntity
  8
HOLES
 67
0
100
AcDbCircle
 10
-70.0
 20
460.5
 40
1.6
  0
CIRCLE
  5
5E4
330
1F
100
AcDbEntity
  8
HOLES
 67
0
100
AcDbCircle
 10
-39.0
 20
460.5
 40
1.6
  0
CIRCLE
  5
5E5
330
1F
100
AcDbEntity
  8
HOLES
 67
0
100
AcDbCircle
 10
-39.0
 20
429.5
 40
1.6
  0
CIRCLE
  5
5E6
330
1F
100
AcDbEntity
  8
HOLES
 67
0
100
AcDbCircle
 10
-70.0
 20
429.5
 40
1.6
  0
LWPOLYLINE
  5
5E7
330
1F
100
AcDbEntity
  8
HOLES
 67
0
100
AcDbPolyline
 90
14
 70
1
 10
-64.5
 20
405.1
 10
-63.7
 20
404.885640646
 10
-63.1143593539
 20
404.3
 10
-62.9
 20
403.5
 10
-62.9
 20
368.0
 10
-63.1143593539
 20
367.2
 10
-63.7
 20
366.614359354
 10
-64.5
 20
366.4
 10
-65.3
 20
366.614359354
 10
-65.8856406461
 20
367.2
 10
-66.1
 20
368.0
 10
-66.1
 20
403.5
 10
-65.8856406461
 20
404.3
 10
-65.3
 20
404.885640646
  0
LWPOLYLINE
  5
5E8
330
1F
100
AcDbEntity
  8
HOLES
 67
0
100
AcDbPolyline
 90
14
 70
1
 10
-62.9
 20
358.0
 10
-63.1143593539
 20
358.8
 10
-63.7
 20
359.385640646
 10
-64.5
 20
359.6
 10
-65.3
 20
359.385640646
 10
-65.8856406461
 20
358.8
 10
-66.1
 20
358.0
 10
-66.1
 20
322.5
 10
-65.8856406461
 20
321.7
 10
-65.3
 20
321.114359354
 10
-64.5
 20
320.9
 10
-63.7
 20
321.114359354
 10
-63.1143593539
 20
321.7
 10
-62.9
 20
322.5
  0
LWPOLYLINE
  5
5E9
330
1F
100
AcDbEntity
  8
HOLES
 67
0
100
AcDbPolyline
 90
14
 70
1
 10
-33.5
 20
405.1
 10
-34.3
 20
404.885640646
 10
-34.8856406461
 20
404.3
 10
-35.1
 20
403.5
 10
-35.1
 20
368.0
 10
-34.8856406461
 20
367.2
 10
-34.3
 20
366.614359354
 10
-33.5
 20
366.4
 10
-32.7
 20
366.614359354
 10
-32.1143593539
 20
367.2
 10
-31.9
 20
368.0
 10
-31.9
 20
403.5
 10
-32.1143593539
 20
404.3
 10
-32.7
 20
404.885640646
  0
LWPOLYLINE
  5
5EA
330
1F
100
AcDbEntity
  8
HOLES
 67
0
100
AcDbPolyline
 90
14
 70
1
 10
-35.1
 20
358.0
 10
-34.8856406461
 20
358.8
 10
-34.3
 20
359.385640646
 10
-33.5
 20
359.6
 10
-32.7
 20
359.385640646
 10
-32.1143593539
 20
358.8
 10
-31.9
 20
358.0
 10
-31.9
 20
322.5
 10
-32.1143593539
 20
321.7
 10
-32.7
 20
321.114359354
 10
-33.5
 20
320.9
 10
-34.3
 20
321.114359354
 10
-34.8856406461
 20
321.7
 10
-35.1
 20
322.5
  0
LWPOLYLINE
  5
5EB
330
1F
100
AcDbEntity
  8
HOLES
 67
0
100
AcDbPolyline
 90
26
 70
1
 10
-38.3748159108
 20
390.847009496
 10
-39.4737205584
 20
393.5
 10
-41.2218254069
 20
395.778174593
 10
-43.5
 20
397.526279442
 10
-46.1529905039
 20
398.625184089
 10
-49.0
 20
399.0
 10
-51.8470094961
 20
398.625184089
 10
-54.5
 20
397.526279442
 10
-56.7781745931
 20
395.778174593
 10
-58.5262794416
 20
393.5
 10
-59.6251840892
 20
390.847009496
 10
-60.0
 20
388.0
 10
-60.0
 20
338.0
 10
-59.6251840892
 20
335.152990504
 10
-58.5262794416
 20
332.5
 10
-56.7781745931
 20
330.221825407
 10
-54.5
 20
328.473720558
 10
-51.8470094961
 20
327.374815911
 10
-49.0
 20
327.0
 10
-46.1529905039
 20
327.374815911
 10
-43.5
 20
328.473720558
 10
-41.2218254069
 20
330.221825407
 10
-39.4737205584
 20
332.5
 10
-38.3748159108
 20
335.152990504
 10
-38.0
 20
338.0
 10
-38.0
 20
388.0
  0
LWPOLYLINE
  5
5ED
330
1F
100
AcDbEntity
  8
IZREZ
 67
0
100
AcDbPolyline
 90
650
 70
1
 10
-409.005317935
 20
-0.000537819124
 10
-408.13822768
 20
-0.000537819124
 10
-407.252023206
 20
-0.000537819124
 10
-406.343012593
 20
-0.000537819124
 10
-405.417503922
 20
-0.000537819124
 10
-404.481805275
 20
-0.000537819124
 10
-403.542164914
 20
-0.000537819124
 10
-402.602279542
 20
-0.000537819124
 10
-401.66239417
 20
-0.000537819124
 10
-400.722508798
 20
-0.000537819124
 10
-399.782623426
 20
-0.000537819124
 10
-398.842738054
 20
-0.000537819124
 10
-397.902852682
 20
-0.000537819124
 10
-396.96296731
 20
-0.000537819124
 10
-396.023081938
 20
-0.000537819124
 10
-395.083196566
 20
-0.000537819124
 10
-394.143586223
 20
-0.000537819124
 10
-393.20840052
 20
-0.000537819124
 10
-392.284653235
 20
-0.000537819124
 10
-391.379425297
 20
-0.000537819124
 10
-390.499797632
 20
-0.000537819124
 10
-389.652851165
 20
-0.000537819124
 10
-388.845666825
 20
-0.000537819124
 10
-388.085325535
 20
-0.000537819124
 10
-387.378908225
 20
-0.000537819124
 10
-386.733495819
 20
-0.000537819124
 10
-386.154806406
 20
-0.000356178215119
 10
-385.639854747
 20
0.0013487352895
 10
-385.182232637
 20
0.00637477062622
 10
-384.775523678
 20
0.0165208687874
 10
-384.413311474
 20
0.0335859707655
 10
-384.089179628
 20
0.0593690175529
 10
-383.796711743
 20
0.0956689501419
 10
-383.529491421
 20
0.144284709525
 10
-383.281102266
 20
0.207015236694
 10
-383.045128445
 20
0.285659270629
 10
-382.816697745
 20
0.381462031463
 10
-382.595846565
 20
0.49390858982
 10
-382.383584798
 20
0.622134935823
 10
-382.180922337
 20
0.765277059598
 10
-381.988869075
 20
0.922470951269
 10
-381.808434906
 20
1.09285260096
 10
-381.640629724
 20
1.2755579988
 10
-381.486463421
 20
1.46972313491
 10
-381.346945891
 20
1.67448399942
 10
-381.223072215
 20
1.8889875994
 10
-381.114759642
 20
2.11318259716
 10
-381.020135901
 20
2.34834864028
 10
-380.937159998
 20
2.59589086627
 10
-380.86379094
 20
2.85721441265
 10
-380.797987733
 20
3.13372441693
 10
-380.737709384
 20
3.42682601662
 10
-380.680914899
 20
3.73792434924
 10
-380.625563284
 20
4.0684245523
 10
-380.569613546
 20
4.41973176332
 10
-380.511076996
 20
4.79321968112
 10
-380.448975662
 20
5.18965449527
 10
-380.383245762
 20
5.60925290566
 10
-380.313856449
 20
6.05221181401
 10
-380.240776881
 20
6.51872812208
 10
-380.163976213
 20
7.00899873159
 10
-380.083423599
 20
7.52322054428
 10
-379.999088195
 20
8.0615904619
 10
-379.910939158
 20
8.62430538618
 10
-379.818945641
 20
9.21156221887
 10
-379.72323402
 20
9.82255422594
 10
-379.625214678
 20
10.4482779801
 10
-379.526924987
 20
11.0757275547
 10
-379.430406564
 20
11.6918699249
 10
-379.337701027
 20
12.2836720657
 10
-379.250849993
 20
12.8381009525
 10
-379.17189508
 20
13.3421235602
 10
-379.102877906
 20
13.7827068641
 10
-379.045840086
 20
14.1468178393
 10
-379.00282324
 20
14.421423461
 10
-378.887237526
 20
14.9914687611
 10
-378.692957116
 20
15.6671017755
 10
-378.46590658
 20
16.2357039976
 10
-378.211478697
 20
16.7081812786
 10
-377.935066247
 20
17.0954394697
 10
-377.64206201
 20
17.4083844219
 10
-377.337858767
 20
17.6579219864
 10
-377.027849296
 20
17.8549580144
 10
-376.717415478
 20
18.0103977281
 10
-376.385167659
 20
18.1336020485
 10
-375.925354027
 20
18.2290655112
 10
-375.215647062
 20
18.3003264907
 10
-374.133719245
 20
18.350923362
 10
-372.557243055
 20
18.3843944997
 10
-370.363890972
 20
18.4042782784
 10
-367.431335474
 20
18.414113073
 10
-363.637249043
 20
18.4174372581
 10
-358.859470826
 20
18.4177867929
 10
-353.038687502
 20
18.4177867929
 10
-346.272599098
 20
18.4177867929
 10
-270.391777708
 20
18.4177867929
 10
-261.520680053
 20
18.4177867929
 10
-252.191547977
 20
18.4177867929
 10
-242.526199146
 20
18.4177867929
 10
-232.646451225
 20
18.4177867929
 10
-222.67384121
 20
18.4177867929
 10
-212.69231869
 20
18.4177867929
 10
-202.710796171
 20
18.4177867929
 10
-192.729273651
 20
18.4177867929
 10
-182.747751131
 20
18.4177867929
 10
-172.766228611
 20
18.4177867929
 10
-162.784706091
 20
18.4177867929
 10
-152.803183571
 20
18.4177867929
 10
-142.821661051
 20
18.4177867929
 10
-132.840803775
 20
18.4177867929
 10
-122.905309062
 20
18.4177867929
 10
-113.130603091
 20
18.4177867929
 10
-103.638495514
 20
18.4177867929
 10
-94.5507959837
 20
18.4177867929
 10
-85.9893141526
 20
18.4177867929
 10
-78.0758596735
 20
18.4177867929
 10
-70.9322421989
 20
18.4177867929
 10
-64.6802713814
 20
18.4177867929
 10
-59.4391676069
 20
18.417761537
 10
-55.2274935156
 20
18.416703947
 10
-51.9330537757
 20
18.4123315225
 10
-49.4349142803
 20
18.4022765247
 10
-47.6121409222
 20
18.3841712147
 10
-46.3437995944
 20
18.3556478537
 10
-45.5089561899
 20
18.3143387027
 10
-44.9866766016
 20
18.2578760228
 10
-44.6560267224
 20
18.1838920752
 10
-44.398326014
 20
18.090083762
 10
-44.1519386968
 20
17.9757842486
 10
-43.9153293704
 20
17.8420506107
 10
-43.6898278484
 20
17.6900221093
 10
-43.4767639446
 20
17.5208380054
 10
-43.2774674727
 20
17.3356375599
 10
-43.0932682465
 20
17.1355600339
 10
-42.9254960795
 20
16.9217446884
 10
-42.7754807856
 20
16.6953307843
 10
-42.6444827045
 20
16.4576823871
 10
-42.5325382027
 20
16.2141240985
 10
-42.4386371819
 20
15.9733666758
 10
-42.3617358447
 20
15.7442299193
 10
-42.300790394
 20
15.5355336294
 10
-42.2547570322
 20
15.3560976063
 10
-42.2225919622
 20
15.2147416503
 10
-42.2032513866
 20
15.120285562
 10
-42.1956915081
 20
15.0815491414
 10
-42.1677590175
 20
14.9776039526
 10
-42.1007323817
 20
14.5529375563
 10
-42.0212125495
 20
14.0476161939
 10
-41.9312145525
 20
13.4746487309
 10
-41.8327534225
 20
12.8470440327
 10
-41.7278441911
 20
12.1778109649
 10
-41.6185018899
 20
11.4799583929
 10
-41.5067415508
 20
10.7664951824
 10
-41.3944787318
 20
10.0497828121
 10
-41.2828938199
 20
9.33739816931
 10
-41.172837696
 20
8.63477367301
 10
-41.0651596867
 20
7.94733162682
 10
-40.9607091188
 20
7.28049433433
 10
-40.8603353189
 20
6.63968409917
 10
-40.7648876135
 20
6.03032322494
 10
-40.6752153295
 20
5.45783401525
 10
-40.5921677934
 20
4.92763877371
 10
-40.5161515625
 20
4.4440675846
 10
-40.4450270611
 20
4.00516975824
 10
-40.3757463876
 20
3.60675395513
 10
-40.3052605177
 20
3.24462606629
 10
-40.2305204268
 20
2.91459198271
 10
-40.1484770906
 20
2.61245759538
 10
-40.0560814846
 20
2.33402879531
 10
-39.9502845845
 20
2.07511147348
 10
-39.8280373658
 20
1.83151152089
 10
-39.6869360308
 20
1.59982064753
 10
-39.5274870695
 20
1.3801749912
 10
-39.3510171343
 20
1.17370956206
 10
-39.1588529241
 20
0.981559427089
 10
-38.9523211381
 20
0.804859653291
 10
-38.732748475
 20
0.644745307652
 10
-38.5014616341
 20
0.502351457165
 10
-38.2597873142
 20
0.378813168821
 10
-38.0090521102
 20
0.275265472295
 10
-37.7487540394
 20
0.192187689212
 10
-37.4719025394
 20
0.127732407514
 10
-37.1700684945
 20
0.0795363656035
 10
-36.8348227893
 20
0.0452363018846
 10
-36.4577363079
 20
0.0224689547596
 10
-36.0303799348
 20
0.00887106263138
 10
-35.5443245544
 20
0.00207936390288
 10
-34.9911410509
 20
-0.000269403023035
 10
-34.3624054154
 20
-0.00053781912416
 10
-33.6538250628
 20
-0.000537819124111
 10
-32.8726882178
 20
-0.000537819124074
 10
-32.028296995
 20
-0.000537819124046
 10
-31.1299535086
 20
-0.000537819124026
 10
-30.1869598732
 20
-0.000537819124013
 10
-29.2086182031
 20
-0.000537819124005
 10
-28.2042306127
 20
-0.000537819124001
 10
-27.1830992163
 20
-0.000537819124
 10
-26.1545137256
 20
-0.000537819124
 10
-25.1251344545
 20
-0.000537819124
 10
-24.0957551833
 20
-0.000537819124
 10
-23.0663759122
 20
-0.000537819124
 10
-22.036996641
 20
-0.000537819124
 10
-21.0076173698
 20
-0.000537819124
 10
-19.9782380987
 20
-0.000537819124
 10
-18.9488588275
 20
-0.000537819124
 10
-17.9194795564
 20
-0.000537819124
 10
-16.8901306042
 20
-0.000537819124
 10
-15.8636174925
 20
-0.000537819124
 10
-14.8477116012
 20
-0.000537819124
 10
-13.8506998213
 20
-0.000537819124
 10
-12.8808690439
 20
-0.000537819124
 10
-11.9465061599
 20
-0.000537819124
 10
-11.0558980603
 20
-0.000537819124
 10
-10.2173316361
 20
-0.000537819124
 10
-9.43909377826
 20
-0.000537819124
 10
-8.72934907845
 20
-0.000508223756615
 10
-8.09015756505
 20
0.00105781368763
 10
-7.51476549691
 20
0.0077999956333
 10
-6.99573197528
 20
0.0235243106843
 10
-6.5256161014
 20
0.0520367474448
 10
-6.09697697653
 20
0.0971432945185
 10
-5.7023737019
 20
0.16264994051
 10
-5.33436537876
 20
0.252362674022
 10
-4.98551110836
 20
0.37008748366
 10
-4.64851763547
 20
0.519534227949
 10
-4.32067653014
 20
0.701427605112
 10
-4.00464189524
 20
0.913000790953
 10
-3.70337221673
 20
1.15128877876
 10
-3.41982598056
 20
1.4133265618
 10
-3.15696167267
 20
1.69614913339
 10
-2.91773777902
 20
1.99679148678
 10
-2.70511278553
 20
2.31228861528
 10
-2.52204517817
 20
2.63967551216
 10
-2.37133495507
 20
2.97614817315
 10
-2.25245769368
 20
3.32227976095
 10
-2.1617335708
 20
3.68184890358
 10
-2.09535810823
 20
4.05876086182
 10
-2.04952682781
 20
4.45692089643
 10
-2.02043525137
 20
4.88023426821
 10
-2.00427890072
 20
5.33260623793
 10
-1.99725329769
 20
5.81794206636
 10
-1.9955539641
 20
6.34014701428
 10
-1.995513383
 20
6.90281488834
 10
-1.995513383
 20
7.50487921868
 10
-1.995513383
 20
8.14168604534
 10
-1.995513383
 20
8.80848912564
 10
-1.995513383
 20
9.50054221693
 10
-1.995513383
 20
10.2130990765
 10
-1.995513383
 20
10.9414134618
 10
-1.995513383
 20
11.68073913
 10
-1.995513383
 20
12.4263298386
 10
-1.995513383
 20
13.1736880732
 10
-1.995513383
 20
13.9210722287
 10
-1.995513383
 20
14.6684563841
 10
-1.995513383
 20
15.4158405396
 10
-1.995513383
 20
16.1632246951
 10
-1.995513383
 20
16.9106088505
 10
-1.995513383
 20
17.657993006
 10
-1.995513383
 20
18.4053771614
 10
-1.995513383
 20
19.1527613169
 10
-1.99551338211
 20
19.8995957459
 10
-1.99551337195
 20
20.6407024078
 10
-1.99551334038
 20
21.3685848575
 10
-1.99551327523
 20
22.075729338
 10
-1.99551316436
 20
22.7546220923
 10
-1.99551299558
 20
23.3977493633
 10
-1.99551275674
 20
23.9975973943
 10
-1.99551243567
 20
24.5466524281
 10
-1.99551202021
 20
25.0374007078
 10
-1.9955115
 20
25.4639057846
 10
-1.99551087641
 20
25.8304999769
 10
-1.99551015551
 20
26.1456258695
 10
-1.99550934339
 20
26.4177369476
 10
-1.99550844611
 20
26.6552866961
 10
-1.99550746977
 20
26.8667286002
 10
-1.99550642045
 20
27.0605161449
 10
-1.99550530423
 20
27.2451028153
 10
-1.99550412719
 20
27.4289420964
 10
-1.99550289068
 20
27.6200001646
 10
-1.99550157193
 20
27.8237630361
 10
-1.99550014052
 20
28.044929672
 10
-1.99549856605
 20
28.2881987127
 10
-1.99549681809
 20
28.5582687986
 10
-1.99549486622
 20
28.8598385703
 10
-1.99549268003
 20
29.1976066681
 10
-1.99549022909
 20
29.5762717326
 10
-1.995487483
 20
30.0005324043
 10
-1.99550983717
 20
31.5352384277
 10
-1.99550339303
 20
33.3472969481
 10
-1.99549183921
 20
35.8854060902
 10
-1.99547368382
 20
39.3747872282
 10
-1.99544743499
 20
44.0406617364
 10
-1.99541160084
 20
50.1082509892
 10
-1.99536468949
 20
57.8027763609
 10
-1.99530551447
 20
67.303895639
 10
-1.99523481636
 20
78.503760657
 10
-1.99515408536
 20
91.1826870397
 10
-1.99506481337
 20
105.120740012
 10
-1.99496849225
 20
120.097984798
 10
-1.9948666139
 20
135.894486622
 10
-1.99476067018
 20
152.29031071
 10
-1.99465215299
 20
169.065522285
 10
-1.99454254902
 20
186.000948898
 10
-1.99443285031
 20
202.950344233
 10
-1.99432315161
 20
219.899739569
 10
-1.99421345292
 20
236.849134904
 10
-1.99410375423
 20
253.798530239
 10
-1.99399405555
 20
270.747925575
 10
-1.99388435685
 20
287.69732091
 10
-1.99377465816
 20
304.646716245
 10
-1.99366495945
 20
321.59611158
 10
-1.99355534601
 20
338.532628758
 10
-1.9934467836
 20
355.310440482
 10
-1.99334075736
 20
371.705286596
 10
-1.99323875919
 20
387.491893212
 10
-1.99314228096
 20
402.444986441
 10
-1.99305281456
 20
416.339292396
 10
-1.99297185186
 20
428.949537188
 10
-1.99290088474
 20
440.050446929
 10
-1.99284279776
 20
449.416894083
 10
-1.99381016471
 20
456.9298567
 10
-1.99960508697
 20
462.763456946
 10
-2.0145073534
 20
467.142015908
 10
-2.04279675285
 20
470.289854671
 10
-2.08875307416
 20
472.43129432
 10
-2.1566561062
 20
473.790655942
 10
-2.2507856378
 20
474.592260621
 10
-2.37542145782
 20
475.060429443
 10
-2.53463240039
 20
475.413170962
 10
-2.72860944159
 20
475.752454106
 10
-2.95414022867
 20
476.078407823
 10
-3.20789686721
 20
476.387703635
 10
-3.48655146277
 20
476.677013061
 10
-3.78677612092
 20
476.943007622
 10
-4.10524294723
 20
477.182358838
 10
-4.43862404728
 20
477.391738229
 10
-4.78359152662
 20
477.567817317
 10
-5.13853610992
 20
477.70844315
 10
-5.5092586126
 20
477.816531258
 10
-5.90355654712
 20
477.896362902
 10
-6.32922745493
 20
477.952219365
 10
-6.79406887745
 20
477.98838193
 10
-7.30587835613
 20
478.009131878
 10
-7.8724534324
 20
478.018750492
 10
-8.50159164769
 20
478.021519055
 10
-9.20091402644
 20
478.021673181
 10
-9.97117949453
 20
478.021673181
 10
-10.8042328691
 20
478.021673181
 10
-11.6913232225
 20
478.021673181
 10
-12.6236996268
 20
478.021673181
 10
-13.5926111545
 20
478.021673181
 10
-14.5893068777
 20
478.021673181
 10
-15.6050358687
 20
478.021673181
 10
-16.6310471998
 20
478.021673181
 10
-17.659408907
 20
478.021673181
 10
-18.6877784307
 20
478.021673181
 10
-19.7161479545
 20
478.021673181
 10
-20.7445174783
 20
478.021673181
 10
-21.772887002
 20
478.021673181
 10
-22.8012565258
 20
478.021673181
 10
-23.8296260496
 20
478.021673181
 10
-24.8579955733
 20
478.021673181
 10
-25.8863366899
 20
478.021673181
 10
-26.9111837241
 20
478.021673181
 10
-27.9223953147
 20
478.021673181
 10
-28.9090631068
 20
478.021673181
 10
-29.8602787454
 20
478.021673181
 10
-30.7651338758
 20
478.021673181
 10
-31.6127201429
 20
478.021673181
 10
-32.3921291918
 20
478.021673181
 10
-33.0924526678
 20
478.021673181
 10
-33.7039547826
 20
478.021772095
 10
-34.2301267044
 20
478.023184618
 10
-34.6828050625
 20
478.027829441
 10
-35.0739573671
 20
478.037636295
 10
-35.4155511283
 20
478.054534911
 10
-35.7195538564
 20
478.080455021
 10
-35.9979330615
 20
478.117326355
 10
-36.2626562537
 20
478.167078646
 10
-36.5256884123
 20
478.231641052
 10
-36.7956357961
 20
478.312183806
 10
-37.0711246835
 20
478.407622097
 10
-37.3489362083
 20
478.516454188
 10
-37.6258515043
 20
478.637178345
 10
-37.8986517051
 20
478.768292831
 10
-38.1641179446
 20
478.90829591
 10
-38.4190313564
 20
479.055685848
 10
-38.6601730743
 20
479.208960909
 10
-38.8844554016
 20
479.366646965
 10
-39.0914808421
 20
479.527836135
 10
-39.2833722212
 20
479.692151023
 10
-39.462349513
 20
479.859234681
 10
-39.6306326915
 20
480.028730162
 10
-39.7904417305
 20
480.200280519
 10
-39.9439966041
 20
480.373528803
 10
-40.0935172863
 20
480.548118068
 10
-40.241223751
 20
480.723691366
 10
-40.3890101359
 20
480.899932603
 10
-40.5372559786
 20
481.076715589
 10
-40.6859010636
 20
481.253969269
 10
-40.8348851281
 20
481.431622595
 10
-40.9841479088
 20
481.609604519
 10
-41.133629143
 20
481.787843992
 10
-41.2832685676
 20
481.966269967
 10
-41.4330059195
 20
482.144811396
 10
-41.5827814654
 20
482.323397854
 10
-41.7325594635
 20
482.501987203
 10
-41.8823374616
 20
482.680576551
 10
-42.0321154597
 20
482.8591659
 10
-42.1818934578
 20
483.037755249
 10
-42.3316714559
 20
483.216344598
 10
-42.481449454
 20
483.394933947
 10
-42.6312274521
 20
483.573523296
 10
-42.7810054502
 20
483.752112644
 10
-42.9307783098
 20
483.930695835
 10
-43.0805029154
 20
484.109221195
 10
-43.2301191305
 20
484.287616653
 10
-43.3795667379
 20
484.465810041
 10
-43.5287855207
 20
484.64372919
 10
-43.6777152618
 20
484.821301934
 10
-43.8262957444
 20
484.998456104
 10
-43.9744667513
 20
485.175119533
 10
-44.1221723909
 20
485.351219516
 10
-44.2700375201
 20
485.526599094
 10
-44.4201035592
 20
485.700925973
 10
-44.5745886885
 20
485.873845984
 10
-44.7357110882
 20
486.045004955
 10
-44.9056889386
 20
486.214048716
 10
-45.08674042
 20
486.380623098
 10
-45.2810837124
 20
486.544373929
 10
-45.4909369962
 20
486.704947039
 10
-45.7182698026
 20
486.861935633
 10
-45.961979031
 20
487.014282605
 10
-46.218889204
 20
487.16049224
 10
-46.4857860244
 20
487.299060609
 10
-46.7594551953
 20
487.42848378
 10
-47.0366824196
 20
487.547257822
 10
-47.3142534001
 20
487.653878807
 10
-47.58895384
 20
487.746842801
 10
-47.8575792388
 20
487.824646118
 10
-48.1457343445
 20
487.88649515
 10
-48.5711569682
 20
487.933867166
 10
-49.2699639293
 20
487.968692433
 10
-50.3782720471
 20
487.992901222
 10
-52.0321981406
 20
488.008423801
 10
-54.3678590292
 20
488.017190439
 10
-57.521371532
 20
488.021131405
 10
-61.6288524684
 20
488.022176967
 10
-66.8207691303
 20
488.022217181
 10
-73.0976496848
 20
488.022217181
 10
-80.3300831734
 20
488.022217181
 10
-88.3830091109
 20
488.022217181
 10
-97.1213670119
 20
488.022217181
 10
-106.410096391
 20
488.022217181
 10
-116.114136763
 20
488.022217181
 10
-126.098427641
 20
488.022217181
 10
-136.227908542
 20
488.022217181
 10
-146.385334653
 20
488.022217181
 10
-156.54277026
 20
488.022217181
 10
-166.700205868
 20
488.022217181
 10
-176.857641475
 20
488.022217181
 10
-187.015077083
 20
488.022217181
 10
-197.17251269
 20
488.022217181
 10
-207.329948298
 20
488.022217181
 10
-217.487383905
 20
488.022217181
 10
-227.643854397
 20
488.022217181
 10
-237.746872118
 20
488.022217181
 10
-247.66755897
 20
488.022217181
 10
-257.270855049
 20
488.022217181
 10
-266.421700452
 20
488.022217181
 10
-274.985035275
 20
488.022217181
 10
-282.825799615
 20
488.022217181
 10
-355.799377233
 20
488.022217181
 10
-364.524705942
 20
488.020418055
 10
-367.439769799
 20
488.015342453
 10
-369.574415927
 20
488.004910355
 10
-371.064759982
 20
487.987191492
 10
-372.04691762
 20
487.960255595
 10
-372.657004494
 20
487.922172395
 10
-373.03113626
 20
487.871011624
 10
-373.305242803
 20
487.804847591
 10
-373.575870387
 20
487.72272534
 10
-373.85169523
 20
487.62585575
 10
-374.129504154
 20
487.515742751
 10
-374.406083982
 20
487.393890275
 10
-374.678221537
 20
487.261802252
 10
-374.942703641
 20
487.120982612
 10
-375.196317116
 20
486.972935286
 10
-375.435848787
 20
486.819164204
 10
-375.658306425
 20
486.661126514
 10
-375.863697434
 20
486.499644224
 10
-376.054190998
 20
486.33508161
 10
-376.232004029
 20
486.167792843
 10
-376.399353438
 20
485.998132092
 10
-376.558456136
 20
485.826453529
 10
-376.711529033
 20
485.653111323
 10
-376.860789041
 20
485.478459646
 10
-377.008453023
 20
485.302852661
 10
-377.156298829
 20
485.126590147
 10
-377.304592263
 20
484.949784571
 10
-377.453273839
 20
484.772508099
 10
-377.602284071
 20
484.594832899
 10
-377.751563475
 20
484.416831139
 10
-377.901052564
 20
484.238574988
 10
-378.050691854
 20
484.060136613
 10
-378.200421858
 20
483.881588182
 10
-378.350184156
 20
483.703000573
 10
-378.499947887
 20
483.524411225
 10
-378.649711619
 20
483.345821876
 10
-378.799475351
 20
483.167232527
 10
-378.949239083
 20
482.988643178
 10
-379.099002814
 20
482.810053829
 10
-379.248766546
 20
482.63146448
 10
-379.398530278
 20
482.452875132
 10
-379.54829401
 20
482.274285783
 10
-379.698050514
 20
482.095705066
 10
-379.84775347
 20
481.917188305
 10
-379.997343401
 20
481.738806535
 10
-380.146760819
 20
481.560630805
 10
-380.295946239
 20
481.382732163
 10
-380.444840173
 20
481.205181657
 10
-380.593383134
 20
481.028050335
 10
-380.741515635
 20
480.851409246
 10
-380.889191223
 20
480.675331073
 10
-381.037194532
 20
480.499992801
 10
-381.187627406
 20
480.325736723
 10
-381.342708462
 20
480.152919786
 10
-381.504656315
 20
479.981898937
 10
-381.675689581
 20
479.813031124
 10
-381.858026876
 20
479.646673294
 10
-382.053886816
 20
479.483182396
 10
-382.265488017
 20
479.322915375
 10
-382.494666812
 20
479.166309674
 10
-382.739932266
 20
479.014503318
 10
-382.998080253
 20
478.868995062
 10
-383.265892489
 20
478.731286641
 10
-383.54015069
 20
478.602879791
 10
-383.817636571
 20
478.485276249
 10
-384.095131849
 20
478.379977748
 10
-384.369418239
 20
478.288486026
 10
-384.63729102
 20
478.212299752
 10
-384.899596784
 20
478.152002083
 10
-385.166881011
 20
478.105984425
 10
-385.451110271
 20
478.072317048
 10
-385.764251136
 20
478.049070219
 10
-386.118270174
 20
478.034314207
 10
-386.525133957
 20
478.026119282
 10
-386.996809055
 20
478.022555711
 10
-387.545262037
 20
478.021693765
 10
-388.181636011
 20
478.021673181
 10
-388.90475263
 20
478.021673181
 10
-389.703948468
 20
478.021673181
 10
-390.568316111
 20
478.021673181
 10
-391.486948143
 20
478.021673181
 10
-392.448937149
 20
478.021673181
 10
-393.443375715
 20
478.021673181
 10
-394.459356425
 20
478.021673181
 10
-395.485971893
 20
478.021673181
 10
-396.514272301
 20
478.021673181
 10
-397.54257271
 20
478.021673181
 10
-398.570873118
 20
478.021673181
 10
-399.599173526
 20
478.021673181
 10
-400.627473934
 20
478.021673181
 10
-401.655774342
 20
478.021673181
 10
-402.68407475
 20
478.021673181
 10
-403.712375159
 20
478.021673181
 10
-404.740542659
 20
478.021673181
 10
-405.764529501
 20
478.021673181
 10
-406.775827236
 20
478.021673181
 10
-407.765684759
 20
478.021673181
 10
-408.72535096
 20
478.021673181
 10
-409.646074733
 20
478.021673181
 10
-410.519104971
 20
478.021673181
 10
-411.335690565
 20
478.021673181
 10
-412.087080408
 20
478.021673181
 10
-412.766371571
 20
478.02119516
 10
-413.377453829
 20
478.016969624
 10
-413.928123458
 20
478.004716683
 10
-414.42618212
 20
477.980155056
 10
-414.879431476
 20
477.939003459
 10
-415.29567319
 20
477.876980611
 10
-415.682708923
 20
477.78980523
 10
-416.048340338
 20
477.673196033
 10
-416.400318984
 20
477.522905981
 10
-416.742519115
 20
477.337337503
 10
-417.072242699
 20
477.119384052
 10
-417.38615508
 20
476.872374108
 10
-417.680921601
 20
476.599636151
 10
-417.953207605
 20
476.304498661
 10
-418.199678434
 20
475.990290118
 10
-418.416999431
 20
475.660339
 10
-418.60183594
 20
475.317973788
 10
-418.751337194
 20
474.951862847
 10
-418.867234654
 20
474.411849772
 10
-418.953786013
 20
473.471242491
 10
-419.015275375
 20
471.902548876
 10
-419.055986841
 20
469.478276797
 10
-419.080204514
 20
465.970934125
 10
-419.092212495
 20
461.153028731
 10
-419.096294887
 20
454.797068486
 10
-419.096733383
 20
446.675752003
 10
-419.096733383
 20
436.646969091
 10
-419.096733383
 20
424.787617127
 10
-419.096733383
 20
411.209301532
 10
-419.096733383
 20
396.023627731
 10
-419.096733383
 20
379.342201148
 10
-419.096733383
 20
361.276627205
 10
-419.096733383
 20
341.938511326
 10
-419.096733383
 20
321.439458934
 10
-419.096733383
 20
299.869029009
 10
-419.096733383
 20
276.951884421
 10
-419.096733383
 20
252.11272992
 10
-419.096733383
 20
224.767367965
 10
-419.096733383
 20
160.221231523
 10
-419.096733383
 20
121.852061953
 10
-419.096733383
 20
78.6398947607
 10
-419.096733383
 20
30.0005324043
 10
-419.096685922
 20
6.52082338698
 10
-419.095226266
 20
5.98770276198
 10
-419.089533322
 20
5.49741889278
 10
-419.076710629
 20
5.04556830402
 10
-419.053861728
 20
4.62774752033
 10
-419.018090158
 20
4.23955306633
 10
-418.966499458
 20
3.87658146665
 10
-418.896193169
 20
3.53442924591
 10
-418.80427483
 20
3.20869292874
 10
-418.687847981
 20
2.89496903977
 10
-418.544300933
 20
2.58922244797
 10
-418.374042371
 20
2.29132479673
 10
-418.179300157
 20
2.00350078794
 10
-417.962327154
 20
1.72800746098
 10
-417.725376225
 20
1.46710185525
 10
-417.470700232
 20
1.22304101013
 10
-417.20055204
 20
0.998081965026
 10
-416.91718451
 20
0.794481759313
 10
-416.622850505
 20
0.614497432386
 10
-416.319802888
 20
0.460386023636
 10
-416.009256655
 20
0.333728912153
 10
-415.687193616
 20
0.232700632008
 10
-415.347949887
 20
0.154404357769
 10
-414.985860985
 20
0.0959428729967
 10
-414.595262428
 20
0.0544189612528
 10
-414.17048973
 20
0.0269354060981
 10
-413.70587841
 20
0.0105949910934
 10
-413.195763982
 20
0.00250049979976
 10
-412.634481965
 20
-0.000245284221835
 10
-412.01637514
 20
-0.000537819124
 10
-411.338822573
 20
-0.000537819124
 10
-410.606923462
 20
-0.000537819124
 10
-409.826985889
 20
-0.000537819124
  0
LWPOLYLINE
  5
5EE
330
1F
100
AcDbEntity
  8
IZREZ
 67
0
100
AcDbPolyline
 90
336
 70
0
 10
-90.0
 20
127.948042181
 10
-94.2261537705
 20
127.948042181
 10
-102.502217446
 20
127.948042181
 10
-111.396622417
 20
127.948042181
 10
-120.777806705
 20
127.948042181
 10
-130.514208333
 20
127.948042181
 10
-140.474265322
 20
127.948042181
 10
-150.527007725
 20
127.948042181
 10
-160.587271087
 20
127.948042181
 10
-170.64753445
 20
127.948042181
 10
-180.707797812
 20
127.948042181
 10
-190.768061175
 20
127.948042181
 10
-200.828324538
 20
127.948042181
 10
-210.8885879
 20
127.948042181
 10
-220.948851263
 20
127.948042181
 10
-231.009114625
 20
127.948042181
 10
-241.060688306
 20
127.948042181
 10
-251.012595198
 20
127.948042181
 10
-260.728492206
 20
127.948042181
 10
-270.071562005
 20
127.948042181
 10
-278.904987271
 20
127.948042181
 10
-287.091950681
 20
127.948042181
 10
-294.495634909
 20
127.948042181
 10
-300.979222631
 20
127.948042181
 10
-370.70820954
 20
127.948050218
 10
-373.994543512
 20
127.948094697
 10
-376.401907558
 20
127.948207341
 10
-378.067156855
 20
127.948419856
 10
-379.127146577
 20
127.948763945
 10
-379.718731902
 20
127.949271314
 10
-379.978768006
 20
127.949973668
 10
-380.044110064
 20
127.950902711
 10
-380.047275813
 20
127.952088139
 10
-380.048992932
 20
127.953526393
 10
-380.050975015
 20
127.955186582
 10
-380.05318421
 20
127.957036999
 10
-380.055582666
 20
127.95904594
 10
-380.05813253
 20
127.9611817
 10
-380.06079595
 20
127.963412575
 10
-380.063535074
 20
127.965706859
 10
-380.06631205
 20
127.968032848
 10
-380.069095334
 20
127.970364121
 10
-380.071878619
 20
127.972695394
 10
-380.074661904
 20
127.975026667
 10
-380.077445189
 20
127.97735794
 10
-380.080228473
 20
127.979689213
 10
-380.083011758
 20
127.982020486
 10
-380.085795043
 20
127.984351759
 10
-380.088578328
 20
127.986683032
 10
-380.091427021
 20
127.989026069
 10
-380.096610428
 20
127.991789002
 10
-380.109078876
 20
127.995862142
 10
-380.133944674
 20
128.002164933
 10
-380.176320131
 20
128.011616818
 10
-380.241317556
 20
128.025137242
 10
-380.334049259
 20
128.043645648
 10
-380.459627549
 20
128.06806148
 10
-380.623164735
 20
128.099304181
 10
-380.828672538
 20
128.138532303
 10
-381.073217976
 20
128.188413172
 10
-381.351166666
 20
128.252201004
 10
-381.656878175
 20
128.333151332
 10
-381.98471207
 20
128.434519688
 10
-382.329027919
 20
128.559561604
 10
-382.68418529
 20
128.711532611
 10
-383.044543749
 20
128.893688242
 10
-383.404469955
 20
129.10925893
 10
-383.759008844
 20
129.359073998
 10
-384.104435652
 20
129.639607504
 10
-384.437155538
 20
129.946873584
 10
-384.75357366
 20
130.276886373
 10
-385.050095176
 20
130.625660004
 10
-385.323125244
 20
130.989208615
 10
-385.569069023
 20
131.363546338
 10
-385.784331671
 20
131.74468731
 10
-385.965731017
 20
132.128558858
 10
-386.114345147
 20
132.510192155
 10
-386.233765467
 20
132.884089688
 10
-386.327615871
 20
133.244747113
 10
-386.39952025
 20
133.586660083
 10
-386.453102498
 20
133.904324253
 10
-386.491986505
 20
134.192235278
 10
-386.519796164
 20
134.444888812
 10
-386.540157112
 20
134.656813455
 10
-386.557960086
 20
134.846422686
 10
-386.581590986
 20
135.098118148
 10
-386.620034238
 20
135.507601499
 10
-386.682274265
 20
136.170574402
 10
-386.777295492
 20
137.182738516
 10
-386.914082342
 20
138.639795502
 10
-387.101619239
 20
140.637447021
 10
-387.348890608
 20
143.271394733
 10
-387.664161159
 20
146.63230208
 10
-388.042465516
 20
150.718217861
 10
-388.467227172
 20
155.445909379
 10
-388.921475423
 20
160.729384467
 10
-389.388239567
 20
166.482650955
 10
-389.850548901
 20
172.619716673
 10
-390.291432724
 20
179.054589452
 10
-390.693920333
 20
185.701277122
 10
-391.041041024
 20
192.473787515
 10
-391.319756461
 20
199.290227827
 10
-391.533983294
 20
206.086380303
 10
-391.69220681
 20
212.802789845
 10
-391.802912359
 20
219.380001422
 10
-391.874585292
 20
225.758560005
 10
-391.915710961
 20
231.879010565
 10
-391.934774717
 20
237.681898073
 10
-391.94026191
 20
243.107767498
 10
-391.940538056
 20
248.098741548
 10
-391.939310002
 20
252.658277456
 10
-391.934232823
 20
256.869508172
 10
-391.922557144
 20
260.820891509
 10
-391.901533589
 20
264.600885279
 10
-391.868412784
 20
268.297947295
 10
-391.820445354
 20
272.00053537
 10
-391.754881924
 20
275.797107317
 10
-391.668973119
 20
279.776120948
 10
-391.560741471
 20
284.007787456
 10
-391.433477769
 20
288.437785384
 10
-391.292673395
 20
292.959774897
 10
-391.143827099
 20
297.467242008
 10
-390.992437631
 20
301.853672729
 10
-390.844003741
 20
306.012553071
 10
-390.704024179
 20
309.837369046
 10
-390.577997696
 20
313.221606666
 10
-390.471401037
 20
316.059233623
 10
-390.387048462
 20
318.302500913
 10
-390.322583285
 20
320.016854376
 10
-390.275054711
 20
321.280745217
 10
-390.241511946
 20
322.172624642
 10
-390.219004196
 20
322.770943858
 10
-390.204580666
 20
323.154154068
 10
-390.195290562
 20
323.40070648
 10
-390.188183088
 20
323.589052298
 10
-390.180464122
 20
323.79342728
 10
-390.171106835
 20
324.040515469
 10
-390.160199462
 20
324.326998469
 10
-390.147847727
 20
324.649087358
 10
-390.134157352
 20
325.002993216
 10
-390.11923406
 20
325.384927121
 10
-390.103183576
 20
325.791100152
 10
-390.08611162
 20
326.217723388
 10
-390.068123938
 20
326.661007646
 10
-390.049353763
 20
327.116818008
 10
-390.030016015
 20
327.579992245
 10
-390.010340713
 20
328.045178195
 10
-389.99055788
 20
328.507023695
 10
-389.970897536
 20
328.960176581
 10
-389.951589702
 20
329.399284691
 10
-389.932864399
 20
329.818995863
 10
-389.914951648
 20
330.213957934
 10
-389.898072682
 20
330.579039629
 10
-389.882268497
 20
330.913639965
 10
-389.867411232
 20
331.221402167
 10
-389.853366518
 20
331.506133062
 10
-389.839999987
 20
331.771639476
 10
-389.827177269
 20
332.021728232
 10
-389.814763996
 20
332.260206158
 10
-389.802625799
 20
332.490880078
 10
-389.790628308
 20
332.717556818
 10
-389.778614231
 20
332.944041842
 10
-389.766319718
 20
333.174134282
 10
-389.753449983
 20
333.411631434
 10
-389.739710234
 20
333.660330593
 10
-389.724805681
 20
333.924029055
 10
-389.708441532
 20
334.206524115
 10
-389.690322998
 20
334.511613068
 10
-389.670155286
 20
334.843093209
 10
-389.647649326
 20
335.204681493
 10
-389.62277507
 20
335.596455735
 10
-389.595861888
 20
336.013444179
 10
-389.567265625
 20
336.450303126
 10
-389.537342127
 20
336.901688873
 10
-389.506447236
 20
337.362257719
 10
-389.4749368
 20
337.826665962
 10
-389.443166661
 20
338.289569901
 10
-389.411492664
 20
338.745625834
 10
-389.38015293
 20
339.191179973
 10
-389.348515512
 20
339.635068046
 10
-389.3155585
 20
340.091723618
 10
-389.280258146
 20
340.575606659
 10
-389.241590697
 20
341.101177139
 10
-389.198532406
 20
341.682895029
 10
-389.150059521
 20
342.335220299
 10
-389.095148294
 20
343.072612919
 10
-389.032778745
 20
343.909480892
 10
-388.962524427
 20
344.852053453
 10
-388.885193967
 20
345.889540697
 10
-388.801750105
 20
347.009029063
 10
-388.713155582
 20
348.197604987
 10
-388.620373138
 20
349.442354908
 10
-388.524365515
 20
350.730365262
 10
-388.426095451
 20
352.048722488
 10
-388.326525687
 20
353.384513024
 10
-388.226574899
 20
354.72541437
 10
-388.126617231
 20
356.066407995
 10
-388.026659564
 20
357.40740162
 10
-387.926701896
 20
358.748395245
 10
-387.826744228
 20
360.08938887
 10
-387.726786561
 20
361.430382495
 10
-387.626828893
 20
362.77137612
 10
-387.526871226
 20
364.112369745
 10
-387.426913621
 20
365.453362461
 10
-387.32714074
 20
366.79168209
 10
-387.228327597
 20
368.116113624
 10
-387.131366972
 20
369.413737905
 10
-387.037151645
 20
370.671635777
 10
-386.946574395
 20
371.876888081
 10
-386.860528001
 20
373.016575659
 10
-386.779905244
 20
374.077779354
 10
-386.705598904
 20
375.047580009
 10
-386.638377116
 20
375.913576609
 10
-386.576141225
 20
376.675285457
 10
-386.513925784
 20
377.344140171
 10
-386.446640701
 20
377.932092514
 10
-386.369195887
 20
378.451094248
 10
-386.276501251
 20
378.913097136
 10
-386.163466701
 20
379.33005294
 10
-386.025002147
 20
379.713913423
 10
-385.856017499
 20
380.076630346
 10
-385.652572619
 20
380.428132647
 10
-385.416492027
 20
380.768208937
 10
-385.151402807
 20
381.093477028
 10
-384.860932654
 20
381.400553658
 10
-384.548709262
 20
381.686055561
 10
-384.218360329
 20
381.946599474
 10
-383.873513547
 20
382.178802133
 10
-383.517796614
 20
382.379280273
 10
-383.153875097
 20
382.544705896
 10
-382.733051498
 20
382.674701333
 10
-382.13047433
 20
382.773263256
 10
-381.215129432
 20
382.844742324
 10
-379.856002645
 20
382.893489197
 10
-377.922079808
 20
382.923854533
 10
-375.282346763
 20
382.940188993
 10
-371.80578935
 20
382.946843236
 10
-367.361393408
 20
382.948167922
 10
-295.289786307
 20
382.948176181
 10
-287.846285623
 20
382.948176181
 10
-279.639599043
 20
382.948176181
 10
-270.801310341
 20
382.948176181
 10
-261.463003292
 20
382.948176181
 10
-251.756261673
 20
382.948176181
 10
-241.812669258
 20
382.948176181
 10
-231.763634377
 20
382.948176181
 10
-221.703371015
 20
382.948176181
 10
-211.643107652
 20
382.948176181
 10
-201.58284429
 20
382.948176181
 10
-191.522580927
 20
382.948176181
 10
-181.462317565
 20
382.948176181
 10
-171.402054202
 20
382.948176181
 10
-161.34179084
 20
382.948176181
 10
-151.281527477
 20
382.948176181
 10
-141.226617385
 20
382.948176181
 10
-131.255089836
 20
382.948176181
 10
-121.4973505
 20
382.948176181
 10
-112.084961355
 20
382.948176181
 10
-103.14948438
 20
382.948176181
 10
-94.8224815507
 20
382.948176181
 10
-90.0
 20
382.948176181
 10
-86.5428695021
 20
382.9431432
 10
-83.7663434386
 20
382.929115306
 10
-81.7197312753
 20
382.90209435
 10
-80.2724657799
 20
382.857820311
 10
-79.2939797203
 20
382.792033166
 10
-78.6537058643
 20
382.700472897
 10
-78.2210769798
 20
382.578879482
 10
-77.8679163584
 20
382.423127306
 10
-77.5280646387
 20
382.232577636
 10
-77.2015599985
 20
382.010313647
 10
-76.8916682935
 20
381.759599991
 10
-76.6016553794
 20
381.483701318
 10
-76.3347871118
 20
381.185882277
 10
-76.0943293465
 20
380.86940752
 10
-75.8835479391
 20
380.537541696
 10
-75.7057087452
 20
380.193549456
 10
-75.563163156
 20
379.825449819
 10
-75.4533164262
 20
379.338801554
 10
-75.371909209
 20
378.61141178
 10
-75.3146809032
 20
377.521066704
 10
-75.2773709078
 20
375.945552531
 10
-75.2557186215
 20
373.762655468
 10
-75.2454634434
 20
370.850161722
 10
-75.2423447721
 20
367.085857497
 10
-75.242126383
 20
362.348933153
 10
-75.242126383
 20
356.60811305
 10
-75.242126383
 20
349.974026506
 10
-75.242126383
 20
342.569882687
 10
-75.242126383
 20
334.518890756
 10
-75.242126383
 20
325.944259878
 10
-75.242126383
 20
316.969199217
 10
-75.242126383
 20
307.716917937
 10
-75.242126383
 20
298.310625201
 10
-75.242126383
 20
288.86486703
 10
-75.242126383
 20
279.418788002
 10
-75.242126383
 20
269.972708974
 10
-75.242126383
 20
260.526629946
 10
-75.242126383
 20
251.080550917
 10
-75.242126383
 20
241.634471889
 10
-75.242126383
 20
232.188392861
 10
-75.242126383
 20
222.742313833
 10
-75.242126383
 20
213.296344859
 10
-75.242126383
 20
203.883468291
 10
-75.242126383
 20
194.615363174
 10
-75.242126383
 20
185.615239255
 10
-75.242126383
 20
177.006306281
 10
-75.242126383
 20
168.911773996
 10
-75.242126383
 20
161.454852147
 10
-75.242126383
 20
154.758750482
 10
-75.242126383
 20
148.946678744
 10
-75.2422797646
 20
144.133011352
 10
-75.2450349534
 20
140.299920011
 10
-75.2546071039
 20
137.327806519
 10
-75.2752568175
 20
135.094454799
 10
-75.3112446951
 20
133.477648773
 10
-75.366831338
 20
132.355172363
 10
-75.4462773472
 20
131.604809493
 10
-75.553843324
 20
131.104344083
 10
-75.6937898499
 20
130.731560385
 10
-75.869026723
 20
130.386763348
 10
-76.0774507487
 20
130.053836179
 10
-76.3157960716
 20
129.736046348
 10
-76.5807968358
 20
129.436661327
 10
-76.8691871858
 20
129.158948588
 10
-77.1777012658
 20
128.906175604
 10
-77.5030732203
 20
128.681609844
 10
-77.8420371934
 20
128.488518783
 10
-78.1933599197
 20
128.33005555
 10
-78.6156789229
 20
128.20600532
 10
-79.2358503551
 20
128.112315715
 10
-80.1844414486
 20
128.044725595
 10
-81.5920194355
 20
127.99897382
 10
-83.5891515479
 20
127.970799249
 10
-86.306405018
 20
127.955940741
 10
-90.0
 20
127.949932771
  0
CIRCLE
  5
61F
330
1F
100
AcDbEntity
  8
HOLES
 67
0
100
AcDbCircle
 10
30.0
 20
250.0
 40
2.0
  0
CIRCLE
  5
620
330
1F
100
AcDbEntity
  8
HOLES
 67
0
100
AcDbCircle
 10
40.0
 20
250.0
 40
2.0
  0
CIRCLE
  5
621
330
1F
100
AcDbEntity
  8
HOLES
 67
0
100
AcDbCircle
 10
30.0
 20
170.0
 40
2.0
  0
CIRCLE
  5
622
330
1F
100
AcDbEntity
  8
HOLES
 67
0
100
AcDbCircle
 10
40.0
 20
170.0
 40
2.0
  0
CIRCLE
  5
623
330
1F
100
AcDbEntity
  8
HOLES
 67
0
100
AcDbCircle
 10
320.0
 20
120.0
 40
1.5
  0
CIRCLE
  5
624
330
1F
100
AcDbEntity
  8
HOLES
 67
0
100
AcDbCircle
 10
100.0
 20
120.0
 40
1.5
  0
CIRCLE
  5
625
330
1F
100
AcDbEntity
  8
HOLES
 67
0
100
AcDbCircle
 10
210.0
 20
390.0
 40
1.5
  0
TEXT
  5
626
330
1F
100
AcDbEntity
  8
GRAVIRANJE
 67
0
100
AcDbText
 10
10.0
 20
10.0
 30
0.0
 40
3.0
  1
INNER RIGHT
 50
0.0
 51
0.0
  7
standard
 41
1.0
 71
0
 72
0
 11
0.0
 21
0.0
 31
0.0
100
AcDbText
 73
0
  0
CIRCLE
  5
627
330
1F
100
AcDbEntity
  8
HOLES
 67
0
100
AcDbCircle
 10
30.0
 20
310.0
 40
2.0
  0
CIRCLE
  5
628
330
1F
100
AcDbEntity
  8
HOLES
 67
0
100
AcDbCircle
 10
40.0
 20
310.0
 40
2.0
  0
POINT
  5
629
330
1F
100
AcDbEntity
  8
0
 67
0
100
AcDbPoint
 10
70.0
 20
77.0
  0
POINT
  5
62A
330
1F
100
AcDbEntity
  8
0
 67
0
100
AcDbPoint
 10
210.0
 20
77.0
  0
POINT
  5
62B
330
1F
100
AcDbEntity
  8
0
 67
0
100
AcDbPoint
 10
350.0
 20
77.0
  0
POINT
  5
62C
330
1F
100
AcDbEntity
  8
0
 67
0
100
AcDbPoint
 10
54.0
 20
481.0
  0
POINT
  5
62D
330
1F
100
AcDbEntity
  8
0
 67
0
100
AcDbPoint
 10
210.0
 20
481.0
  0
POINT
  5
62E
330
1F
100
AcDbEntity
  8
0
 67
0
100
AcDbPoint
 10
367.0
 20
481.0
  0
POINT
  5
62F
330
1F
100
AcDbEntity
  8
0
 67
0
100
AcDbPoint
 10
9.0
 20
400.0
  0
POINT
  5
630
330
1F
100
AcDbEntity
  8
0
 67
0
100
AcDbPoint
 10
9.0
 20
250.0
  0
POINT
  5
631
330
1F
100
AcDbEntity
  8
0
 67
0
100
AcDbPoint
 10
9.0
 20
100.0
  0
POINT
  5
632
330
1F
100
AcDbEntity
  8
0
 67
0
100
AcDbPoint
 10
412.0
 20
100.0
  0
POINT
  5
633
330
1F
100
AcDbEntity
  8
0
 67
0
100
AcDbPoint
 10
412.0
 20
250.0
  0
POINT
  5
634
330
1F
100
AcDbEntity
  8
0
 67
0
100
AcDbPoint
 10
412.0
 20
400.0
  0
LWPOLYLINE
  5
635
330
1F
100
AcDbEntity
  8
HOLES
 67
0
100
AcDbPolyline
 90
5
 70
1
 10
84.0
 20
484.0
 10
74.0
 20
484.0
 10
74.0
 20
478.0
 10
84.0
 20
478.0
 10
84.0
 20
478.0
  0
CIRCLE
  5
636
330
1F
100
AcDbEntity
  8
HOLES
 67
0
100
AcDbCircle
 10
54.0
 20
481.0
 40
1.5
  0
LWPOLYLINE
  5
637
330
1F
100
AcDbEntity
  8
HOLES
 67
0
100
AcDbPolyline
 90
5
 70
1
 10
240.0
 20
484.0
 10
230.0
 20
484.0
 10
230.0
 20
478.0
 10
240.0
 20
478.0
 10
240.0
 20
478.0
  0
LWPOLYLINE
  5
638
330
1F
100
AcDbEntity
  8
HOLES
 67
0
100
AcDbPolyline
 90
5
 70
1
 10
190.0
 20
484.0
 10
180.0
 20
484.0
 10
180.0
 20
478.0
 10
190.0
 20
478.0
 10
190.0
 20
478.0
  0
CIRCLE
  5
639
330
1F
100
AcDbEntity
  8
HOLES
 67
0
100
AcDbCircle
 10
210.0
 20
481.0
 40
1.5
  0
LWPOLYLINE
  5
63A
330
1F
100
AcDbEntity
  8
HOLES
 67
0
100
AcDbPolyline
 90
5
 70
1
 10
347.0
 20
484.0
 10
337.0
 20
484.0
 10
337.0
 20
478.0
 10
347.0
 20
478.0
 10
347.0
 20
478.0
  0
CIRCLE
  5
63B
330
1F
100
AcDbEntity
  8
HOLES
 67
0
100
AcDbCircle
 10
367.0
 20
481.0
 40
1.5
  0
LWPOLYLINE
  5
63C
330
1F
100
AcDbEntity
  8
HOLES
 67
0
100
AcDbPolyline
 90
5
 70
1
 10
240.0
 20
80.0
 10
230.0
 20
80.0
 10
230.0
 20
74.0
 10
240.0
 20
74.0
 10
240.0
 20
74.0
  0
LWPOLYLINE
  5
63D
330
1F
100
AcDbEntity
  8
HOLES
 67
0
100
AcDbPolyline
 90
5
 70
1
 10
190.0
 20
80.0
 10
180.0
 20
80.0
 10
180.0
 20
74.0
 10
190.0
 20
74.0
 10
190.0
 20
74.0
  0
CIRCLE
  5
63E
330
1F
100
AcDbEntity
  8
HOLES
 67
0
100
AcDbCircle
 10
210.0
 20
77.0
 40
1.5
  0
LWPOLYLINE
  5
63F
330
1F
100
AcDbEntity
  8
HOLES
 67
0
100
AcDbPolyline
 90
5
 70
1
 10
100.0
 20
80.0
 10
90.0
 20
80.0
 10
90.0
 20
74.0
 10
100.0
 20
74.0
 10
100.0
 20
74.0
  0
LWPOLYLINE
  5
640
330
1F
100
AcDbEntity
  8
HOLES
 67
0
100
AcDbPolyline
 90
5
 70
1
 10
50.0
 20
80.0
 10
40.0
 20
80.0
 10
40.0
 20
74.0
 10
50.0
 20
74.0
 10
50.0
 20
74.0
  0
CIRCLE
  5
641
330
1F
100
AcDbEntity
  8
HOLES
 67
0
100
AcDbCircle
 10
70.0
 20
77.0
 40
1.5
  0
LWPOLYLINE
  5
642
330
1F
100
AcDbEntity
  8
HOLES
 67
0
100
AcDbPolyline
 90
5
 70
1
 10
380.0
 20
80.0
 10
370.0
 20
80.0
 10
370.0
 20
74.0
 10
380.0
 20
74.0
 10
380.0
 20
74.0
  0
LWPOLYLINE
  5
643
330
1F
100
AcDbEntity
  8
HOLES
 67
0
100
AcDbPolyline
 90
5
 70
1
 10
330.0
 20
80.0
 10
320.0
 20
80.0
 10
320.0
 20
74.0
 10
330.0
 20
74.0
 10
330.0
 20
74.0
  0
CIRCLE
  5
644
330
1F
100
AcDbEntity
  8
HOLES
 67
0
100
AcDbCircle
 10
350.0
 20
77.0
 40
1.5
  0
LWPOLYLINE
  5
645
330
1F
100
AcDbEntity
  8
HOLES
 67
0
100
AcDbPolyline
 90
5
 70
1
 10
409.0
 20
280.0
 10
409.0
 20
270.0
 10
415.0
 20
270.0
 10
415.0
 20
280.0
 10
415.0
 20
280.0
  0
LWPOLYLINE
  5
646
330
1F
100
AcDbEntity
  8
HOLES
 67
0
100
AcDbPolyline
 90
5
 70
1
 10
409.0
 20
230.0
 10
409.0
 20
220.0
 10
415.0
 20
220.0
 10
415.0
 20
230.0
 10
415.0
 20
230.0
  0
CIRCLE
  5
647
330
1F
100
AcDbEntity
  8
HOLES
 67
0
100
AcDbCircle
 10
412.0
 20
250.0
 40
1.5
  0
LWPOLYLINE
  5
648
330
1F
100
AcDbEntity
  8
HOLES
 67
0
100
AcDbPolyline
 90
5
 70
1
 10
409.0
 20
430.0
 10
409.0
 20
420.0
 10
415.0
 20
420.0
 10
415.0
 20
430.0
 10
415.0
 20
430.0
  0
LWPOLYLINE
  5
649
330
1F
100
AcDbEntity
  8
HOLES
 67
0
100
AcDbPolyline
 90
5
 70
1
 10
409.0
 20
380.0
 10
409.0
 20
370.0
 10
415.0
 20
370.0
 10
415.0
 20
380.0
 10
415.0
 20
380.0
  0
CIRCLE
  5
64A
330
1F
100
AcDbEntity
  8
HOLES
 67
0
100
AcDbCircle
 10
412.0
 20
400.0
 40
1.5
  0
LWPOLYLINE
  5
64B
330
1F
100
AcDbEntity
  8
HOLES
 67
0
100
AcDbPolyline
 90
5
 70
1
 10
409.0
 20
130.0
 10
409.0
 20
120.0
 10
415.0
 20
120.0
 10
415.0
 20
130.0
 10
415.0
 20
130.0
  0
LWPOLYLINE
  5
64C
330
1F
100
AcDbEntity
  8
HOLES
 67
0
100
AcDbPolyline
 90
5
 70
1
 10
409.0
 20
80.0
 10
409.0
 20
70.0
 10
415.0
 20
70.0
 10
415.0
 20
80.0
 10
415.0
 20
80.0
  0
CIRCLE
  5
64D
330
1F
100
AcDbEntity
  8
HOLES
 67
0
100
AcDbCircle
 10
412.0
 20
100.0
 40
1.5
  0
LWPOLYLINE
  5
64E
330
1F
100
AcDbEntity
  8
HOLES
 67
0
100
AcDbPolyline
 90
5
 70
1
 10
6.0
 20
130.0
 10
6.0
 20
120.0
 10
12.0
 20
120.0
 10
12.0
 20
130.0
 10
12.0
 20
130.0
  0
LWPOLYLINE
  5
64F
330
1F
100
AcDbEntity
  8
HOLES
 67
0
100
AcDbPolyline
 90
5
 70
1
 10
6.0
 20
80.0
 10
6.0
 20
70.0
 10
12.0
 20
70.0
 10
12.0
 20
80.0
 10
12.0
 20
80.0
  0
CIRCLE
  5
650
330
1F
100
AcDbEntity
  8
HOLES
 67
0
100
AcDbCircle
 10
9.0
 20
100.0
 40
1.5
  0
LWPOLYLINE
  5
651
330
1F
100
AcDbEntity
  8
HOLES
 67
0
100
AcDbPolyline
 90
5
 70
1
 10
6.0
 20
280.0
 10
6.0
 20
270.0
 10
12.0
 20
270.0
 10
12.0
 20
280.0
 10
12.0
 20
280.0
  0
LWPOLYLINE
  5
652
330
1F
100
AcDbEntity
  8
HOLES
 67
0
100
AcDbPolyline
 90
5
 70
1
 10
6.0
 20
230.0
 10
6.0
 20
220.0
 10
12.0
 20
220.0
 10
12.0
 20
230.0
 10
12.0
 20
230.0
  0
CIRCLE
  5
653
330
1F
100
AcDbEntity
  8
HOLES
 67
0
100
AcDbCircle
 10
9.0
 20
250.0
 40
1.5
  0
LWPOLYLINE
  5
654
330
1F
100
AcDbEntity
  8
HOLES
 67
0
100
AcDbPolyline
 90
5
 70
1
 10
6.0
 20
430.0
 10
6.0
 20
420.0
 10
12.0
 20
420.0
 10
12.0
 20
430.0
 10
12.0
 20
430.0
  0
LWPOLYLINE
  5
655
330
1F
100
AcDbEntity
  8
HOLES
 67
0
100
AcDbPolyline
 90
5
 70
1
 10
6.0
 20
380.0
 10
6.0
 20
370.0
 10
12.0
 20
370.0
 10
12.0
 20
380.0
 10
12.0
 20
380.0
  0
CIRCLE
  5
656
330
1F
100
AcDbEntity
  8
HOLES
 67
0
100
AcDbCircle
 10
9.0
 20
400.0
 40
1.5
  0
CIRCLE
  5
657
330
1F
100
AcDbEntity
  8
HOLES
 67
0
100
AcDbCircle
 10
380.3
 20
445.0
 40
1.5
  0
CIRCLE
  5
658
330
1F
100
AcDbEntity
  8
HOLES
 67
0
100
AcDbCircle
 10
405.7
 20
445.0
 40
1.5
  0
CIRCLE
  5
659
330
1F
100
AcDbEntity
  8
HOLES
 67
0
100
AcDbCircle
 10
393.0
 20
445.0
 40
8.0
  0
CIRCLE
  5
65A
330
1F
100
AcDbEntity
  8
HOLES
 67
0
100
AcDbCircle
 10
70.0
 20
460.5
 40
1.6
  0
CIRCLE
  5
65B
330
1F
100
AcDbEntity
  8
HOLES
 67
0
100
AcDbCircle
 10
39.0
 20
460.5
 40
1.6
  0
CIRCLE
  5
65C
330
1F
100
AcDbEntity
  8
HOLES
 67
0
100
AcDbCircle
 10
39.0
 20
429.5
 40
1.6
  0
CIRCLE
  5
65D
330
1F
100
AcDbEntity
  8
HOLES
 67
0
100
AcDbCircle
 10
70.0
 20
429.5
 40
1.6
  0
LWPOLYLINE
  5
65E
330
1F
100
AcDbEntity
  8
HOLES
 67
0
100
AcDbPolyline
 90
14
 70
1
 10
101.299038106
 20
442.05
 10
100.75
 20
442.599038106
 10
100.0
 20
442.8
 10
70.0
 20
442.8
 10
69.25
 20
442.599038106
 10
68.7009618943
 20
442.05
 10
68.5
 20
441.3
 10
68.7009618943
 20
440.55
 10
69.25
 20
440.000961894
 10
70.0
 20
439.8
 10
100.0
 20
439.8
 10
100.75
 20
440.000961894
 10
101.299038106
 20
440.55
 10
101.5
 20
441.3
  0
LWPOLYLINE
  5
65F
330
1F
100
AcDbEntity
  8
HOLES
 67
0
100
AcDbPolyline
 90
14
 70
1
 10
101.299038106
 20
451.65
 10
100.75
 20
452.199038106
 10
100.0
 20
452.4
 10
70.0
 20
452.4
 10
69.25
 20
452.199038106
 10
68.7009618943
 20
451.65
 10
68.5
 20
450.9
 10
68.7009618943
 20
450.15
 10
69.25
 20
449.600961894
 10
70.0
 20
449.4
 10
100.0
 20
449.4
 10
100.75
 20
449.600961894
 10
101.299038106
 20
450.15
 10
101.5
 20
450.9
  0
LWPOLYLINE
  5
660
330
1F
100
AcDbEntity
  8
HOLES
 67
0
100
AcDbPolyline
 90
14
 70
1
 10
105.299038106
 20
461.05
 10
104.75
 20
461.599038106
 10
104.0
 20
461.8
 10
74.0
 20
461.8
 10
73.25
 20
461.599038106
 10
72.7009618943
 20
461.05
 10
72.5
 20
460.3
 10
72.7009618943
 20
459.55
 10
73.25
 20
459.000961894
 10
74.0
 20
458.8
 10
104.0
 20
458.8
 10
104.75
 20
459.000961894
 10
105.299038106
 20
459.55
 10
105.5
 20
460.3
  0
CIRCLE
  5
661
330
1F
100
AcDbEntity
  8
HOLES
 67
0
100
AcDbCircle
 10
41.8
 20
445.0
 40
1.5
  0
CIRCLE
  5
662
330
1F
100
AcDbEntity
  8
HOLES
 67
0
100
AcDbCircle
 10
67.2
 20
445.0
 40
1.5
  0
CIRCLE
  5
663
330
1F
100
AcDbEntity
  8
HOLES
 67
0
100
AcDbCircle
 10
54.5
 20
445.0
 40
8.0
  0
LWPOLYLINE
  5
664
330
1F
100
AcDbEntity
  8
IZREZ
 67
0
100
AcDbPolyline
 90
650
 70
1
 10
409.005317935
 20
-0.000537819124
 10
408.13822768
 20
-0.000537819124
 10
407.252023206
 20
-0.000537819124
 10
406.343012593
 20
-0.000537819124
 10
405.417503922
 20
-0.000537819124
 10
404.481805275
 20
-0.000537819124
 10
403.542164914
 20
-0.000537819124
 10
402.602279542
 20
-0.000537819124
 10
401.66239417
 20
-0.000537819124
 10
400.722508798
 20
-0.000537819124
 10
399.782623426
 20
-0.000537819124
 10
398.842738054
 20
-0.000537819124
 10
397.902852682
 20
-0.000537819124
 10
396.96296731
 20
-0.000537819124
 10
396.023081938
 20
-0.000537819124
 10
395.083196566
 20
-0.000537819124
 10
394.143586223
 20
-0.000537819124
 10
393.20840052
 20
-0.000537819124
 10
392.284653235
 20
-0.000537819124
 10
391.379425297
 20
-0.000537819124
 10
390.499797632
 20
-0.000537819124
 10
389.652851165
 20
-0.000537819124
 10
388.845666825
 20
-0.000537819124
 10
388.085325535
 20
-0.000537819124
 10
387.378908225
 20
-0.000537819124
 10
386.733495819
 20
-0.000537819124
 10
386.154806406
 20
-0.000356178215119
 10
385.639854747
 20
0.0013487352895
 10
385.182232637
 20
0.00637477062622
 10
384.775523678
 20
0.0165208687874
 10
384.413311474
 20
0.0335859707655
 10
384.089179628
 20
0.0593690175529
 10
383.796711743
 20
0.0956689501419
 10
383.529491421
 20
0.144284709525
 10
383.281102266
 20
0.207015236694
 10
383.045128445
 20
0.285659270629
 10
382.816697745
 20
0.381462031463
 10
382.595846565
 20
0.49390858982
 10
382.383584798
 20
0.622134935823
 10
382.180922337
 20
0.765277059598
 10
381.988869075
 20
0.922470951269
 10
381.808434906
 20
1.09285260096
 10
381.640629724
 20
1.2755579988
 10
381.486463421
 20
1.46972313491
 10
381.346945891
 20
1.67448399942
 10
381.223072215
 20
1.8889875994
 10
381.114759642
 20
2.11318259716
 10
381.020135901
 20
2.34834864028
 10
380.937159998
 20
2.59589086627
 10
380.86379094
 20
2.85721441265
 10
380.797987733
 20
3.13372441693
 10
380.737709384
 20
3.42682601662
 10
380.680914899
 20
3.73792434924
 10
380.625563284
 20
4.0684245523
 10
380.569613546
 20
4.41973176332
 10
380.511076996
 20
4.79321968112
 10
380.448975662
 20
5.18965449527
 10
380.383245762
 20
5.60925290566
 10
380.313856449
 20
6.05221181401
 10
380.240776881
 20
6.51872812208
 10
380.163976213
 20
7.00899873159
 10
380.083423599
 20
7.52322054428
 10
379.999088195
 20
8.0615904619
 10
379.910939158
 20
8.62430538618
 10
379.818945641
 20
9.21156221887
 10
379.72323402
 20
9.82255422594
 10
379.625214678
 20
10.4482779801
 10
379.526924987
 20
11.0757275547
 10
379.430406564
 20
11.6918699249
 10
379.337701027
 20
12.2836720657
 10
379.250849993
 20
12.8381009525
 10
379.17189508
 20
13.3421235602
 10
379.102877906
 20
13.7827068641
 10
379.045840086
 20
14.1468178393
 10
379.00282324
 20
14.421423461
 10
378.887237526
 20
14.9914687611
 10
378.692957116
 20
15.6671017755
 10
378.46590658
 20
16.2357039976
 10
378.211478697
 20
16.7081812786
 10
377.935066247
 20
17.0954394697
 10
377.64206201
 20
17.4083844219
 10
377.337858767
 20
17.6579219864
 10
377.027849296
 20
17.8549580144
 10
376.717415478
 20
18.0103977281
 10
376.385167659
 20
18.1336020485
 10
375.925354027
 20
18.2290655112
 10
375.215647062
 20
18.3003264907
 10
374.133719245
 20
18.350923362
 10
372.557243055
 20
18.3843944997
 10
370.363890972
 20
18.4042782784
 10
367.431335474
 20
18.414113073
 10
363.637249043
 20
18.4174372581
 10
358.859470826
 20
18.4177867929
 10
353.038687502
 20
18.4177867929
 10
346.272599098
 20
18.4177867929
 10
270.391777708
 20
18.4177867929
 10
261.520680053
 20
18.4177867929
 10
252.191547977
 20
18.4177867929
 10
242.526199146
 20
18.4177867929
 10
232.646451225
 20
18.4177867929
 10
222.67384121
 20
18.4177867929
 10
212.69231869
 20
18.4177867929
 10
202.710796171
 20
18.4177867929
 10
192.729273651
 20
18.4177867929
 10
182.747751131
 20
18.4177867929
 10
172.766228611
 20
18.4177867929
 10
162.784706091
 20
18.4177867929
 10
152.803183571
 20
18.4177867929
 10
142.821661051
 20
18.4177867929
 10
132.840803775
 20
18.4177867929
 10
122.905309062
 20
18.4177867929
 10
113.130603091
 20
18.4177867929
 10
103.638495514
 20
18.4177867929
 10
94.5507959837
 20
18.4177867929
 10
85.9893141526
 20
18.4177867929
 10
78.0758596735
 20
18.4177867929
 10
70.9322421989
 20
18.4177867929
 10
64.6802713814
 20
18.4177867929
 10
59.4391676069
 20
18.417761537
 10
55.2274935156
 20
18.416703947
 10
51.9330537757
 20
18.4123315225
 10
49.4349142803
 20
18.4022765247
 10
47.6121409222
 20
18.3841712147
 10
46.3437995944
 20
18.3556478537
 10
45.5089561899
 20
18.3143387027
 10
44.9866766016
 20
18.2578760228
 10
44.6560267224
 20
18.1838920752
 10
44.398326014
 20
18.090083762
 10
44.1519386968
 20
17.9757842486
 10
43.9153293704
 20
17.8420506107
 10
43.6898278484
 20
17.6900221093
 10
43.4767639446
 20
17.5208380054
 10
43.2774674727
 20
17.3356375599
 10
43.0932682465
 20
17.1355600339
 10
42.9254960795
 20
16.9217446884
 10
42.7754807856
 20
16.6953307843
 10
42.6444827045
 20
16.4576823871
 10
42.5325382027
 20
16.2141240985
 10
42.4386371819
 20
15.9733666758
 10
42.3617358447
 20
15.7442299193
 10
42.300790394
 20
15.5355336294
 10
42.2547570322
 20
15.3560976063
 10
42.2225919622
 20
15.2147416503
 10
42.2032513866
 20
15.120285562
 10
42.1956915081
 20
15.0815491414
 10
42.1677590175
 20
14.9776039526
 10
42.1007323817
 20
14.5529375563
 10
42.0212125495
 20
14.0476161939
 10
41.9312145525
 20
13.4746487309
 10
41.8327534225
 20
12.8470440327
 10
41.7278441911
 20
12.1778109649
 10
41.6185018899
 20
11.4799583929
 10
41.5067415508
 20
10.7664951824
 10
41.3944787318
 20
10.0497828121
 10
41.2828938199
 20
9.33739816931
 10
41.172837696
 20
8.63477367301
 10
41.0651596867
 20
7.94733162682
 10
40.9607091188
 20
7.28049433433
 10
40.8603353189
 20
6.63968409917
 10
40.7648876135
 20
6.03032322494
 10
40.6752153295
 20
5.45783401525
 10
40.5921677934
 20
4.92763877371
 10
40.5161515625
 20
4.4440675846
 10
40.4450270611
 20
4.00516975824
 10
40.3757463876
 20
3.60675395513
 10
40.3052605177
 20
3.24462606629
 10
40.2305204268
 20
2.91459198271
 10
40.1484770906
 20
2.61245759538
 10
40.0560814846
 20
2.33402879531
 10
39.9502845845
 20
2.07511147348
 10
39.8280373658
 20
1.83151152089
 10
39.6869360308
 20
1.59982064753
 10
39.5274870695
 20
1.3801749912
 10
39.3510171343
 20
1.17370956206
 10
39.1588529241
 20
0.981559427089
 10
38.9523211381
 20
0.804859653291
 10
38.732748475
 20
0.644745307652
 10
38.5014616341
 20
0.502351457165
 10
38.2597873142
 20
0.378813168821
 10
38.0090521102
 20
0.275265472295
 10
37.7487540394
 20
0.192187689212
 10
37.4719025394
 20
0.127732407514
 10
37.1700684945
 20
0.0795363656035
 10
36.8348227893
 20
0.0452363018846
 10
36.4577363079
 20
0.0224689547596
 10
36.0303799348
 20
0.00887106263138
 10
35.5443245544
 20
0.00207936390288
 10
34.9911410509
 20
-0.000269403023035
 10
34.3624054154
 20
-0.00053781912416
 10
33.6538250628
 20
-0.000537819124111
 10
32.8726882178
 20
-0.000537819124074
 10
32.028296995
 20
-0.000537819124046
 10
31.1299535086
 20
-0.000537819124026
 10
30.1869598732
 20
-0.000537819124013
 10
29.2086182031
 20
-0.000537819124005
 10
28.2042306127
 20
-0.000537819124001
 10
27.1830992163
 20
-0.000537819124
 10
26.1545137256
 20
-0.000537819124
 10
25.1251344545
 20
-0.000537819124
 10
24.0957551833
 20
-0.000537819124
 10
23.0663759122
 20
-0.000537819124
 10
22.036996641
 20
-0.000537819124
 10
21.0076173698
 20
-0.000537819124
 10
19.9782380987
 20
-0.000537819124
 10
18.9488588275
 20
-0.000537819124
 10
17.9194795564
 20
-0.000537819124
 10
16.8901306042
 20
-0.000537819124
 10
15.8636174925
 20
-0.000537819124
 10
14.8477116012
 20
-0.000537819124
 10
13.8506998213
 20
-0.000537819124
 10
12.8808690439
 20
-0.000537819124
 10
11.9465061599
 20
-0.000537819124
 10
11.0558980603
 20
-0.000537819124
 10
10.2173316361
 20
-0.000537819124
 10
9.43909377826
 20
-0.000537819124
 10
8.72934907845
 20
-0.000508223756615
 10
8.09015756505
 20
0.00105781368763
 10
7.51476549691
 20
0.0077999956333
 10
6.99573197528
 20
0.0235243106843
 10
6.5256161014
 20
0.0520367474448
 10
6.09697697653
 20
0.0971432945185
 10
5.7023737019
 20
0.16264994051
 10
5.33436537876
 20
0.252362674022
 10
4.98551110836
 20
0.37008748366
 10
4.64851763547
 20
0.519534227949
 10
4.32067653014
 20
0.701427605112
 10
4.00464189524
 20
0.913000790953
 10
3.70337221673
 20
1.15128877876
 10
3.41982598056
 20
1.4133265618
 10
3.15696167267
 20
1.69614913339
 10
2.91773777902
 20
1.99679148678
 10
2.70511278553
 20
2.31228861528
 10
2.52204517817
 20
2.63967551216
 10
2.37133495507
 20
2.97614817315
 10
2.25245769368
 20
3.32227976095
 10
2.1617335708
 20
3.68184890358
 10
2.09535810823
 20
4.05876086182
 10
2.04952682781
 20
4.45692089643
 10
2.02043525137
 20
4.88023426821
 10
2.00427890072
 20
5.33260623793
 10
1.99725329769
 20
5.81794206636
 10
1.9955539641
 20
6.34014701428
 10
1.995513383
 20
6.90281488834
 10
1.995513383
 20
7.50487921868
 10
1.995513383
 20
8.14168604534
 10
1.995513383
 20
8.80848912564
 10
1.995513383
 20
9.50054221693
 10
1.995513383
 20
10.2130990765
 10
1.995513383
 20
10.9414134618
 10
1.995513383
 20
11.68073913
 10
1.995513383
 20
12.4263298386
 10
1.995513383
 20
13.1736880732
 10
1.995513383
 20
13.9210722287
 10
1.995513383
 20
14.6684563841
 10
1.995513383
 20
15.4158405396
 10
1.995513383
 20
16.1632246951
 10
1.995513383
 20
16.9106088505
 10
1.995513383
 20
17.657993006
 10
1.995513383
 20
18.4053771614
 10
1.995513383
 20
19.1527613169
 10
1.99551338211
 20
19.8995957459
 10
1.99551337195
 20
20.6407024078
 10
1.99551334038
 20
21.3685848575
 10
1.99551327523
 20
22.075729338
 10
1.99551316436
 20
22.7546220923
 10
1.99551299558
 20
23.3977493633
 10
1.99551275674
 20
23.9975973943
 10
1.99551243567
 20
24.5466524281
 10
1.99551202021
 20
25.0374007078
 10
1.9955115
 20
25.4639057846
 10
1.99551087641
 20
25.8304999769
 10
1.99551015551
 20
26.1456258695
 10
1.99550934339
 20
26.4177369476
 10
1.99550844611
 20
26.6552866961
 10
1.99550746977
 20
26.8667286002
 10
1.99550642045
 20
27.0605161449
 10
1.99550530423
 20
27.2451028153
 10
1.99550412719
 20
27.4289420964
 10
1.99550289068
 20
27.6200001646
 10
1.99550157193
 20
27.8237630361
 10
1.99550014052
 20
28.044929672
 10
1.99549856605
 20
28.2881987127
 10
1.99549681809
 20
28.5582687986
 10
1.99549486622
 20
28.8598385703
 10
1.99549268003
 20
29.1976066681
 10
1.99549022909
 20
29.5762717326
 10
1.995487483
 20
30.0005324043
 10
1.99550983717
 20
31.5352384277
 10
1.99550339303
 20
33.3472969481
 10
1.99549183921
 20
35.8854060902
 10
1.99547368382
 20
39.3747872282
 10
1.99544743499
 20
44.0406617364
 10
1.99541160084
 20
50.1082509892
 10
1.99536468949
 20
57.8027763609
 10
1.99530551447
 20
67.303895639
 10
1.99523481636
 20
78.503760657
 10
1.99515408536
 20
91.1826870397
 10
1.99506481337
 20
105.120740012
 10
1.99496849225
 20
120.097984798
 10
1.9948666139
 20
135.894486622
 10
1.99476067018
 20
152.29031071
 10
1.99465215299
 20
169.065522285
 10
1.99454254902
 20
186.000948898
 10
1.99443285031
 20
202.950344233
 10
1.99432315161
 20
219.899739569
 10
1.99421345292
 20
236.849134904
 10
1.99410375423
 20
253.798530239
 10
1.99399405555
 20
270.747925575
 10
1.99388435685
 20
287.69732091
 10
1.99377465816
 20
304.646716245
 10
1.99366495945
 20
321.59611158
 10
1.99355534601
 20
338.532628758
 10
1.9934467836
 20
355.310440482
 10
1.99334075736
 20
371.705286596
 10
1.99323875919
 20
387.491893212
 10
1.99314228096
 20
402.444986441
 10
1.99305281456
 20
416.339292396
 10
1.99297185186
 20
428.949537188
 10
1.99290088474
 20
440.050446929
 10
1.99284279776
 20
449.416894083
 10
1.99381016471
 20
456.9298567
 10
1.99960508697
 20
462.763456946
 10
2.0145073534
 20
467.142015908
 10
2.04279675285
 20
470.289854671
 10
2.08875307416
 20
472.43129432
 10
2.1566561062
 20
473.790655942
 10
2.2507856378
 20
474.592260621
 10
2.37542145782
 20
475.060429443
 10
2.53463240039
 20
475.413170962
 10
2.72860944159
 20
475.752454106
 10
2.95414022867
 20
476.078407823
 10
3.20789686721
 20
476.387703635
 10
3.48655146277
 20
476.677013061
 10
3.78677612092
 20
476.943007622
 10
4.10524294723
 20
477.182358838
 10
4.43862404728
 20
477.391738229
 10
4.78359152662
 20
477.567817317
 10
5.13853610992
 20
477.70844315
 10
5.5092586126
 20
477.816531258
 10
5.90355654712
 20
477.896362902
 10
6.32922745493
 20
477.952219365
 10
6.79406887745
 20
477.98838193
 10
7.30587835613
 20
478.009131878
 10
7.8724534324
 20
478.018750492
 10
8.50159164769
 20
478.021519055
 10
9.20091402644
 20
478.021673181
 10
9.97117949453
 20
478.021673181
 10
10.8042328691
 20
478.021673181
 10
11.6913232225
 20
478.021673181
 10
12.6236996268
 20
478.021673181
 10
13.5926111545
 20
478.021673181
 10
14.5893068777
 20
478.021673181
 10
15.6050358687
 20
478.021673181
 10
16.6310471998
 20
478.021673181
 10
17.659408907
 20
478.021673181
 10
18.6877784307
 20
478.021673181
 10
19.7161479545
 20
478.021673181
 10
20.7445174783
 20
478.021673181
 10
21.772887002
 20
478.021673181
 10
22.8012565258
 20
478.021673181
 10
23.8296260496
 20
478.021673181
 10
24.8579955733
 20
478.021673181
 10
25.8863366899
 20
478.021673181
 10
26.9111837241
 20
478.021673181
 10
27.9223953147
 20
478.021673181
 10
28.9090631068
 20
478.021673181
 10
29.8602787454
 20
478.021673181
 10
30.7651338758
 20
478.021673181
 10
31.6127201429
 20
478.021673181
 10
32.3921291918
 20
478.021673181
 10
33.0924526678
 20
478.021673181
 10
33.7039547826
 20
478.021772095
 10
34.2301267044
 20
478.023184618
 10
34.6828050625
 20
478.027829441
 10
35.0739573671
 20
478.037636295
 10
35.4155511283
 20
478.054534911
 10
35.7195538564
 20
478.080455021
 10
35.9979330615
 20
478.117326355
 10
36.2626562537
 20
478.167078646
 10
36.5256884123
 20
478.231641052
 10
36.7956357961
 20
478.312183806
 10
37.0711246835
 20
478.407622097
 10
37.3489362083
 20
478.516454188
 10
37.6258515043
 20
478.637178345
 10
37.8986517051
 20
478.768292831
 10
38.1641179446
 20
478.90829591
 10
38.4190313564
 20
479.055685848
 10
38.6601730743
 20
479.208960909
 10
38.8844554016
 20
479.366646965
 10
39.0914808421
 20
479.527836135
 10
39.2833722212
 20
479.692151023
 10
39.462349513
 20
479.859234681
 10
39.6306326915
 20
480.028730162
 10
39.7904417305
 20
480.200280519
 10
39.9439966041
 20
480.373528803
 10
40.0935172863
 20
480.548118068
 10
40.241223751
 20
480.723691366
 10
40.3890101359
 20
480.899932603
 10
40.5372559786
 20
481.076715589
 10
40.6859010636
 20
481.253969269
 10
40.8348851281
 20
481.431622595
 10
40.9841479088
 20
481.609604519
 10
41.133629143
 20
481.787843992
 10
41.2832685676
 20
481.966269967
 10
41.4330059195
 20
482.144811396
 10
41.5827814654
 20
482.323397854
 10
41.7325594635
 20
482.501987203
 10
41.8823374616
 20
482.680576551
 10
42.0321154597
 20
482.8591659
 10
42.1818934578
 20
483.037755249
 10
42.3316714559
 20
483.216344598
 10
42.481449454
 20
483.394933947
 10
42.6312274521
 20
483.573523296
 10
42.7810054502
 20
483.752112644
 10
42.9307783098
 20
483.930695835
 10
43.0805029154
 20
484.109221195
 10
43.2301191305
 20
484.287616653
 10
43.3795667379
 20
484.465810041
 10
43.5287855207
 20
484.64372919
 10
43.6777152618
 20
484.821301934
 10
43.8262957444
 20
484.998456104
 10
43.9744667513
 20
485.175119533
 10
44.1221723909
 20
485.351219516
 10
44.2700375201
 20
485.526599094
 10
44.4201035592
 20
485.700925973
 10
44.5745886885
 20
485.873845984
 10
44.7357110882
 20
486.045004955
 10
44.9056889386
 20
486.214048716
 10
45.08674042
 20
486.380623098
 10
45.2810837124
 20
486.544373929
 10
45.4909369962
 20
486.704947039
 10
45.7182698026
 20
486.861935633
 10
45.961979031
 20
487.014282605
 10
46.218889204
 20
487.16049224
 10
46.4857860244
 20
487.299060609
 10
46.7594551953
 20
487.42848378
 10
47.0366824196
 20
487.547257822
 10
47.3142534001
 20
487.653878807
 10
47.58895384
 20
487.746842801
 10
47.8575792388
 20
487.824646118
 10
48.1457343445
 20
487.88649515
 10
48.5711569682
 20
487.933867166
 10
49.2699639293
 20
487.968692433
 10
50.3782720471
 20
487.992901222
 10
52.0321981406
 20
488.008423801
 10
54.3678590292
 20
488.017190439
 10
57.521371532
 20
488.021131405
 10
61.6288524684
 20
488.022176967
 10
66.8207691303
 20
488.022217181
 10
73.0976496848
 20
488.022217181
 10
80.3300831734
 20
488.022217181
 10
88.3830091109
 20
488.022217181
 10
97.1213670119
 20
488.022217181
 10
106.410096391
 20
488.022217181
 10
116.114136763
 20
488.022217181
 10
126.098427641
 20
488.022217181
 10
136.227908542
 20
488.022217181
 10
146.385334653
 20
488.022217181
 10
156.54277026
 20
488.022217181
 10
166.700205868
 20
488.022217181
 10
176.857641475
 20
488.022217181
 10
187.015077083
 20
488.022217181
 10
197.17251269
 20
488.022217181
 10
207.329948298
 20
488.022217181
 10
217.487383905
 20
488.022217181
 10
227.643854397
 20
488.022217181
 10
237.746872118
 20
488.022217181
 10
247.66755897
 20
488.022217181
 10
257.270855049
 20
488.022217181
 10
266.421700452
 20
488.022217181
 10
274.985035275
 20
488.022217181
 10
282.825799615
 20
488.022217181
 10
355.799377233
 20
488.022217181
 10
364.524705942
 20
488.020418055
 10
367.439769799
 20
488.015342453
 10
369.574415927
 20
488.004910355
 10
371.064759982
 20
487.987191492
 10
372.04691762
 20
487.960255595
 10
372.657004494
 20
487.922172395
 10
373.03113626
 20
487.871011624
 10
373.305242803
 20
487.804847591
 10
373.575870387
 20
487.72272534
 10
373.85169523
 20
487.62585575
 10
374.129504154
 20
487.515742751
 10
374.406083982
 20
487.393890275
 10
374.678221537
 20
487.261802252
 10
374.942703641
 20
487.120982612
 10
375.196317116
 20
486.972935286
 10
375.435848787
 20
486.819164204
 10
375.658306425
 20
486.661126514
 10
375.863697434
 20
486.499644224
 10
376.054190998
 20
486.33508161
 10
376.232004029
 20
486.167792843
 10
376.399353438
 20
485.998132092
 10
376.558456136
 20
485.826453529
 10
376.711529033
 20
485.653111323
 10
376.860789041
 20
485.478459646
 10
377.008453023
 20
485.302852661
 10
377.156298829
 20
485.126590147
 10
377.304592263
 20
484.949784571
 10
377.453273839
 20
484.772508099
 10
377.602284071
 20
484.594832899
 10
377.751563475
 20
484.416831139
 10
377.901052564
 20
484.238574988
 10
378.050691854
 20
484.060136613
 10
378.200421858
 20
483.881588182
 10
378.350184156
 20
483.703000573
 10
378.499947887
 20
483.524411225
 10
378.649711619
 20
483.345821876
 10
378.799475351
 20
483.167232527
 10
378.949239083
 20
482.988643178
 10
379.099002814
 20
482.810053829
 10
379.248766546
 20
482.63146448
 10
379.398530278
 20
482.452875132
 10
379.54829401
 20
482.274285783
 10
379.698050514
 20
482.095705066
 10
379.84775347
 20
481.917188305
 10
379.997343401
 20
481.738806535
 10
380.146760819
 20
481.560630805
 10
380.295946239
 20
481.382732163
 10
380.444840173
 20
481.205181657
 10
380.593383134
 20
481.028050335
 10
380.741515635
 20
480.851409246
 10
380.889191223
 20
480.675331073
 10
381.037194532
 20
480.499992801
 10
381.187627406
 20
480.325736723
 10
381.342708462
 20
480.152919786
 10
381.504656315
 20
479.981898937
 10
381.675689581
 20
479.813031124
 10
381.858026876
 20
479.646673294
 10
382.053886816
 20
479.483182396
 10
382.265488017
 20
479.322915375
 10
382.494666812
 20
479.166309674
 10
382.739932266
 20
479.014503318
 10
382.998080253
 20
478.868995062
 10
383.265892489
 20
478.731286641
 10
383.54015069
 20
478.602879791
 10
383.817636571
 20
478.485276249
 10
384.095131849
 20
478.379977748
 10
384.369418239
 20
478.288486026
 10
384.63729102
 20
478.212299752
 10
384.899596784
 20
478.152002083
 10
385.166881011
 20
478.105984425
 10
385.451110271
 20
478.072317048
 10
385.764251136
 20
478.049070219
 10
386.118270174
 20
478.034314207
 10
386.525133957
 20
478.026119282
 10
386.996809055
 20
478.022555711
 10
387.545262037
 20
478.021693765
 10
388.181636011
 20
478.021673181
 10
388.90475263
 20
478.021673181
 10
389.703948468
 20
478.021673181
 10
390.568316111
 20
478.021673181
 10
391.486948143
 20
478.021673181
 10
392.448937149
 20
478.021673181
 10
393.443375715
 20
478.021673181
 10
394.459356425
 20
478.021673181
 10
395.485971893
 20
478.021673181
 10
396.514272301
 20
478.021673181
 10
397.54257271
 20
478.021673181
 10
398.570873118
 20
478.021673181
 10
399.599173526
 20
478.021673181
 10
400.627473934
 20
478.021673181
 10
401.655774342
 20
478.021673181
 10
402.68407475
 20
478.021673181
 10
403.712375159
 20
478.021673181
 10
404.740542659
 20
478.021673181
 10
405.764529501
 20
478.021673181
 10
406.775827236
 20
478.021673181
 10
407.765684759
 20
478.021673181
 10
408.72535096
 20
478.021673181
 10
409.646074733
 20
478.021673181
 10
410.519104971
 20
478.021673181
 10
411.335690565
 20
478.021673181
 10
412.087080408
 20
478.021673181
 10
412.766371571
 20
478.02119516
 10
413.377453829
 20
478.016969624
 10
413.928123458
 20
478.004716683
 10
414.42618212
 20
477.980155056
 10
414.879431476
 20
477.939003459
 10
415.29567319
 20
477.876980611
 10
415.682708923
 20
477.78980523
 10
416.048340338
 20
477.673196033
 10
416.400318984
 20
477.522905981
 10
416.742519115
 20
477.337337503
 10
417.072242699
 20
477.119384052
 10
417.38615508
 20
476.872374108
 10
417.680921601
 20
476.599636151
 10
417.953207605
 20
476.304498661
 10
418.199678434
 20
475.990290118
 10
418.416999431
 20
475.660339
 10
418.60183594
 20
475.317973788
 10
418.751337194
 20
474.951862847
 10
418.867234654
 20
474.411849772
 10
418.953786013
 20
473.471242491
 10
419.015275375
 20
471.902548876
 10
419.055986841
 20
469.478276797
 10
419.080204514
 20
465.970934125
 10
419.092212495
 20
461.153028731
 10
419.096294887
 20
454.797068486
 10
419.096733383
 20
446.675752003
 10
419.096733383
 20
436.646969091
 10
419.096733383
 20
424.787617127
 10
419.096733383
 20
411.209301532
 10
419.096733383
 20
396.023627731
 10
419.096733383
 20
379.342201148
 10
419.096733383
 20
361.276627205
 10
419.096733383
 20
341.938511326
 10
419.096733383
 20
321.439458934
 10
419.096733383
 20
299.869029009
 10
419.096733383
 20
276.951884421
 10
419.096733383
 20
252.11272992
 10
419.096733383
 20
224.767367965
 10
419.096733383
 20
160.221231523
 10
419.096733383
 20
121.852061953
 10
419.096733383
 20
78.6398947607
 10
419.096733383
 20
30.0005324043
 10
419.096685922
 20
6.52082338698
 10
419.095226266
 20
5.98770276198
 10
419.089533322
 20
5.49741889278
 10
419.076710629
 20
5.04556830402
 10
419.053861728
 20
4.62774752033
 10
419.018090158
 20
4.23955306633
 10
418.966499458
 20
3.87658146665
 10
418.896193169
 20
3.53442924591
 10
418.80427483
 20
3.20869292874
 10
418.687847981
 20
2.89496903977
 10
418.544300933
 20
2.58922244797
 10
418.374042371
 20
2.29132479673
 10
418.179300157
 20
2.00350078794
 10
417.962327154
 20
1.72800746098
 10
417.725376225
 20
1.46710185525
 10
417.470700232
 20
1.22304101013
 10
417.20055204
 20
0.998081965026
 10
416.91718451
 20
0.794481759313
 10
416.622850505
 20
0.614497432386
 10
416.319802888
 20
0.460386023636
 10
416.009256655
 20
0.333728912153
 10
415.687193616
 20
0.232700632008
 10
415.347949887
 20
0.154404357769
 10
414.985860985
 20
0.0959428729967
 10
414.595262428
 20
0.0544189612528
 10
414.17048973
 20
0.0269354060981
 10
413.70587841
 20
0.0105949910934
 10
413.195763982
 20
0.00250049979976
 10
412.634481965
 20
-0.000245284221835
 10
412.01637514
 20
-0.000537819124
 10
411.338822573
 20
-0.000537819124
 10
410.606923462
 20
-0.000537819124
 10
409.826985889
 20
-0.000537819124
  0
LWPOLYLINE
  5
665
330
1F
100
AcDbEntity
  8
IZREZ
 67
0
100
AcDbPolyline
 90
342
 70
1
 10
367.361393408
 20
382.948167922
 10
295.289786307
 20
382.948176181
 10
287.846285623
 20
382.948176181
 10
279.639599043
 20
382.948176181
 10
270.801310341
 20
382.948176181
 10
261.463003292
 20
382.948176181
 10
251.756261673
 20
382.948176181
 10
241.812669258
 20
382.948176181
 10
231.763634377
 20
382.948176181
 10
221.703371015
 20
382.948176181
 10
211.643107652
 20
382.948176181
 10
201.58284429
 20
382.948176181
 10
191.522580927
 20
382.948176181
 10
181.462317565
 20
382.948176181
 10
171.402054202
 20
382.948176181
 10
161.34179084
 20
382.948176181
 10
151.281527477
 20
382.948176181
 10
141.226617385
 20
382.948176181
 10
131.255089836
 20
382.948176181
 10
121.4973505
 20
382.948176181
 10
112.084961355
 20
382.948176181
 10
103.14948438
 20
382.948176181
 10
94.8224815507
 20
382.948176181
 10
87.2355148458
 20
382.948176181
 10
80.5201462426
 20
382.948176181
 10
74.8079322579
 20
382.948176092
 10
70.1798766978
 20
382.947354263
 10
66.5428695021
 20
382.942059413
 10
63.7663434386
 20
382.928031519
 10
61.7197312753
 20
382.901010563
 10
60.2724657799
 20
382.856736524
 10
59.2939797203
 20
382.790949379
 10
58.6537058643
 20
382.69938911
 10
58.2210769798
 20
382.577795695
 10
57.8679163584
 20
382.422043519
 10
57.5280646387
 20
382.231493849
 10
57.2015599985
 20
382.00922986
 10
56.8916682935
 20
381.758516204
 10
56.6016553794
 20
381.482617531
 10
56.3347871118
 20
381.18479849
 10
56.0943293465
 20
380.868323733
 10
55.8835479391
 20
380.536457909
 10
55.7057087452
 20
380.192465669
 10
55.563163156
 20
379.824366032
 10
55.4533164262
 20
379.337717767
 10
55.371909209
 20
378.610327993
 10
55.3146809032
 20
377.519982917
 10
55.2773709078
 20
375.944468744
 10
55.2557186215
 20
373.761571681
 10
55.2454634434
 20
370.849077935
 10
55.2423447721
 20
367.08477371
 10
55.242126383
 20
362.347849366
 10
55.242126383
 20
356.607029263
 10
55.242126383
 20
349.972942719
 10
55.242126383
 20
342.5687989
 10
55.242126383
 20
334.517806969
 10
55.242126383
 20
325.943176091
 10
55.242126383
 20
316.96811543
 10
55.242126383
 20
307.71583415
 10
55.242126383
 20
298.309541414
 10
55.242126383
 20
288.863783243
 10
55.242126383
 20
279.417704215
 10
55.242126383
 20
269.971625187
 10
55.242126383
 20
260.525546159
 10
55.242126383
 20
251.07946713
 10
55.242126383
 20
241.633388102
 10
55.242126383
 20
232.187309074
 10
55.242126383
 20
222.741230046
 10
55.242126383
 20
213.295261072
 10
55.242126383
 20
203.882384504
 10
55.242126383
 20
194.614279387
 10
55.242126383
 20
185.614155468
 10
55.242126383
 20
177.005222494
 10
55.242126383
 20
168.910690209
 10
55.242126383
 20
161.45376836
 10
55.242126383
 20
154.757666695
 10
55.242126383
 20
148.945594957
 10
55.2422797646
 20
144.131927565
 10
55.2450349534
 20
140.298836224
 10
55.2546071039
 20
137.326722732
 10
55.2752568175
 20
135.093371012
 10
55.3112446951
 20
133.476564986
 10
55.366831338
 20
132.354088576
 10
55.4462773472
 20
131.603725706
 10
55.553843324
 20
131.103260296
 10
55.6937898499
 20
130.730476598
 10
55.869026723
 20
130.385679561
 10
56.0774507487
 20
130.052752392
 10
56.3157960716
 20
129.734962561
 10
56.5807968358
 20
129.43557754
 10
56.8691871858
 20
129.157864801
 10
57.1777012658
 20
128.905091817
 10
57.5030732203
 20
128.680526057
 10
57.8420371934
 20
128.487434996
 10
58.1933599197
 20
128.328971763
 10
58.6156789229
 20
128.204921533
 10
59.2358503551
 20
128.111231928
 10
60.1844414486
 20
128.043641808
 10
61.5920194355
 20
127.997890033
 10
63.5891515479
 20
127.969715462
 10
66.306405018
 20
127.954856954
 10
69.8743470779
 20
127.94905337
 10
74.4235449597
 20
127.948043568
 10
80.0552982138
 20
127.948042181
 10
86.6999933671
 20
127.948042181
 10
94.2261537705
 20
127.948042181
 10
102.502217446
 20
127.948042181
 10
111.396622417
 20
127.948042181
 10
120.777806705
 20
127.948042181
 10
130.514208333
 20
127.948042181
 10
140.474265322
 20
127.948042181
 10
150.527007725
 20
127.948042181
 10
160.587271087
 20
127.948042181
 10
170.64753445
 20
127.948042181
 10
180.707797812
 20
127.948042181
 10
190.768061175
 20
127.948042181
 10
200.828324538
 20
127.948042181
 10
210.8885879
 20
127.948042181
 10
220.948851263
 20
127.948042181
 10
231.009114625
 20
127.948042181
 10
241.060688306
 20
127.948042181
 10
251.012595198
 20
127.948042181
 10
260.728492206
 20
127.948042181
 10
270.071562005
 20
127.948042181
 10
278.904987271
 20
127.948042181
 10
287.091950681
 20
127.948042181
 10
294.495634909
 20
127.948042181
 10
300.979222631
 20
127.948042181
 10
370.70820954
 20
127.948050218
 10
373.994543512
 20
127.948094697
 10
376.401907558
 20
127.948207341
 10
378.067156855
 20
127.948419856
 10
379.127146577
 20
127.948763945
 10
379.718731902
 20
127.949271314
 10
379.978768006
 20
127.949973668
 10
380.044110064
 20
127.950902711
 10
380.047275813
 20
127.952088139
 10
380.048992932
 20
127.953526393
 10
380.050975015
 20
127.955186582
 10
380.05318421
 20
127.957036999
 10
380.055582666
 20
127.95904594
 10
380.05813253
 20
127.9611817
 10
380.06079595
 20
127.963412575
 10
380.063535074
 20
127.965706859
 10
380.06631205
 20
127.968032848
 10
380.069095334
 20
127.970364121
 10
380.071878619
 20
127.972695394
 10
380.074661904
 20
127.975026667
 10
380.077445189
 20
127.97735794
 10
380.080228473
 20
127.979689213
 10
380.083011758
 20
127.982020486
 10
380.085795043
 20
127.984351759
 10
380.088578328
 20
127.986683032
 10
380.091427021
 20
127.989026069
 10
380.096610428
 20
127.991789002
 10
380.109078876
 20
127.995862142
 10
380.133944674
 20
128.002164933
 10
380.176320131
 20
128.011616818
 10
380.241317556
 20
128.025137242
 10
380.334049259
 20
128.043645648
 10
380.459627549
 20
128.06806148
 10
380.623164735
 20
128.099304181
 10
380.828672538
 20
128.138532303
 10
381.073217976
 20
128.188413172
 10
381.351166666
 20
128.252201004
 10
381.656878175
 20
128.333151332
 10
381.98471207
 20
128.434519688
 10
382.329027919
 20
128.559561604
 10
382.68418529
 20
128.711532611
 10
383.044543749
 20
128.893688242
 10
383.404469955
 20
129.10925893
 10
383.759008844
 20
129.359073998
 10
384.104435652
 20
129.639607504
 10
384.437155538
 20
129.946873584
 10
384.75357366
 20
130.276886373
 10
385.050095176
 20
130.625660004
 10
385.323125244
 20
130.989208615
 10
385.569069023
 20
131.363546338
 10
385.784331671
 20
131.74468731
 10
385.965731017
 20
132.128558858
 10
386.114345147
 20
132.510192155
 10
386.233765467
 20
132.884089688
 10
386.327615871
 20
133.244747113
 10
386.39952025
 20
133.586660083
 10
386.453102498
 20
133.904324253
 10
386.491986505
 20
134.192235278
 10
386.519796164
 20
134.444888812
 10
386.540157112
 20
134.656813455
 10
386.557960086
 20
134.846422686
 10
386.581590986
 20
135.098118148
 10
386.620034238
 20
135.507601499
 10
386.682274265
 20
136.170574402
 10
386.777295492
 20
137.182738516
 10
386.914082342
 20
138.639795502
 10
387.101619239
 20
140.637447021
 10
387.348890608
 20
143.271394733
 10
387.664161159
 20
146.63230208
 10
388.042465516
 20
150.718217861
 10
388.467227172
 20
155.445909379
 10
388.921475423
 20
160.729384467
 10
389.388239567
 20
166.482650955
 10
389.850548901
 20
172.619716673
 10
390.291432724
 20
179.054589452
 10
390.693920333
 20
185.701277122
 10
391.041041024
 20
192.473787515
 10
391.319756461
 20
199.290227827
 10
391.533983294
 20
206.086380303
 10
391.69220681
 20
212.802789845
 10
391.802912359
 20
219.380001422
 10
391.874585292
 20
225.758560005
 10
391.915710961
 20
231.879010565
 10
391.934774717
 20
237.681898073
 10
391.94026191
 20
243.107767498
 10
391.940538056
 20
248.098741548
 10
391.939310002
 20
252.658277456
 10
391.934232823
 20
256.869508172
 10
391.922557144
 20
260.820891509
 10
391.901533589
 20
264.600885279
 10
391.868412784
 20
268.297947295
 10
391.820445354
 20
272.00053537
 10
391.754881924
 20
275.797107317
 10
391.668973119
 20
279.776120948
 10
391.560741471
 20
284.007787456
 10
391.433477769
 20
288.437785384
 10
391.292673395
 20
292.959774897
 10
391.143827099
 20
297.467242008
 10
390.992437631
 20
301.853672729
 10
390.844003741
 20
306.012553071
 10
390.704024179
 20
309.837369046
 10
390.577997696
 20
313.221606666
 10
390.471401037
 20
316.059233623
 10
390.387048462
 20
318.302500913
 10
390.322583285
 20
320.016854376
 10
390.275054711
 20
321.280745217
 10
390.241511946
 20
322.172624642
 10
390.219004196
 20
322.770943858
 10
390.204580666
 20
323.154154068
 10
390.195290562
 20
323.40070648
 10
390.188183088
 20
323.589052298
 10
390.180464122
 20
323.79342728
 10
390.171106835
 20
324.040515469
 10
390.160199462
 20
324.326998469
 10
390.147847727
 20
324.649087358
 10
390.134157352
 20
325.002993216
 10
390.11923406
 20
325.384927121
 10
390.103183576
 20
325.791100152
 10
390.08611162
 20
326.217723388
 10
390.068123938
 20
326.661007646
 10
390.049353763
 20
327.116818008
 10
390.030016015
 20
327.579992245
 10
390.010340713
 20
328.045178195
 10
389.99055788
 20
328.507023695
 10
389.970897536
 20
328.960176581
 10
389.951589702
 20
329.399284691
 10
389.932864399
 20
329.818995863
 10
389.914951648
 20
330.213957934
 10
389.898072682
 20
330.579039629
 10
389.882268497
 20
330.913639965
 10
389.867411232
 20
331.221402167
 10
389.853366518
 20
331.506133062
 10
389.839999987
 20
331.771639476
 10
389.827177269
 20
332.021728232
 10
389.814763996
 20
332.260206158
 10
389.802625799
 20
332.490880078
 10
389.790628308
 20
332.717556818
 10
389.778614231
 20
332.944041842
 10
389.766319718
 20
333.174134282
 10
389.753449983
 20
333.411631434
 10
389.739710234
 20
333.660330593
 10
389.724805681
 20
333.924029055
 10
389.708441532
 20
334.206524115
 10
389.690322998
 20
334.511613068
 10
389.670155286
 20
334.843093209
 10
389.647649326
 20
335.204681493
 10
389.62277507
 20
335.596455735
 10
389.595861888
 20
336.013444179
 10
389.567265625
 20
336.450303126
 10
389.537342127
 20
336.901688873
 10
389.506447236
 20
337.362257719
 10
389.4749368
 20
337.826665962
 10
389.443166661
 20
338.289569901
 10
389.411492664
 20
338.745625834
 10
389.38015293
 20
339.191179973
 10
389.348515512
 20
339.635068046
 10
389.3155585
 20
340.091723618
 10
389.280258146
 20
340.575606659
 10
389.241590697
 20
341.101177139
 10
389.198532406
 20
341.682895029
 10
389.150059521
 20
342.335220299
 10
389.095148294
 20
343.072612919
 10
389.032778745
 20
343.909480892
 10
388.962524427
 20
344.852053453
 10
388.885193967
 20
345.889540697
 10
388.801750105
 20
347.009029063
 10
388.713155582
 20
348.197604987
 10
388.620373138
 20
349.442354908
 10
388.524365515
 20
350.730365262
 10
388.426095451
 20
352.048722488
 10
388.326525687
 20
353.384513024
 10
388.226574899
 20
354.72541437
 10
388.126617231
 20
356.066407995
 10
388.026659564
 20
357.40740162
 10
387.926701896
 20
358.748395245
 10
387.826744228
 20
360.08938887
 10
387.726786561
 20
361.430382495
 10
387.626828893
 20
362.77137612
 10
387.526871226
 20
364.112369745
 10
387.426913621
 20
365.453362461
 10
387.32714074
 20
366.79168209
 10
387.228327597
 20
368.116113624
 10
387.131366972
 20
369.413737905
 10
387.037151645
 20
370.671635777
 10
386.946574395
 20
371.876888081
 10
386.860528001
 20
373.016575659
 10
386.779905244
 20
374.077779354
 10
386.705598904
 20
375.047580009
 10
386.638377116
 20
375.913576609
 10
386.576141225
 20
376.675285457
 10
386.513925784
 20
377.344140171
 10
386.446640701
 20
377.932092514
 10
386.369195887
 20
378.451094248
 10
386.276501251
 20
378.913097136
 10
386.163466701
 20
379.33005294
 10
386.025002147
 20
379.713913423
 10
385.856017499
 20
380.076630346
 10
385.652572619
 20
380.428132647
 10
385.416492027
 20
380.768208937
 10
385.151402807
 20
381.093477028
 10
384.860932654
 20
381.400553658
 10
384.548709262
 20
381.686055561
 10
384.218360329
 20
381.946599474
 10
383.873513547
 20
382.178802133
 10
383.517796614
 20
382.379280273
 10
383.153875097
 20
382.544705896
 10
382.733051498
 20
382.674701333
 10
382.13047433
 20
382.773263256
 10
381.215129432
 20
382.844742324
 10
379.856002645
 20
382.893489197
 10
377.922079808
 20
382.923854533
 10
375.282346763
 20
382.940188993
 10
371.80578935
 20
382.946843236
 10
371.80578935
 20
382.946843236
  0
ENDSEC
  0
SECTION
  2
OBJECTS
  0
DICTIONARY
  5
C
330
0
100
AcDbDictionary
281
1
  3
ACAD_COLOR
350
4FB
  3
ACAD_GROUP
350
4FC
  3
ACAD_LAYOUT
350
4FD
  3
ACAD_MATERIAL
350
4FE
  3
ACAD_MLEADERSTYLE
350
4FF
  3
ACAD_MLINESTYLE
350
500
  3
ACAD_PLOTSETTINGS
350
501
  3
ACAD_PLOTSTYLENAME
350
503
  3
ACAD_SCALELIST
350
504
  3
ACAD_TABLESTYLE
350
505
  3
ACAD_VISUALSTYLE
350
506
  0
DICTIONARY
  5
4FB
330
C
100
AcDbDictionary
281
1
  0
DICTIONARY
  5
4FC
330
C
100
AcDbDictionary
281
1
  0
DICTIONARY
  5
4FD
330
C
100
AcDbDictionary
281
1
  3
Model
350
507
  3
Layout1
350
508
  0
DICTIONARY
  5
4FE
330
C
100
AcDbDictionary
281
1
  0
DICTIONARY
  5
4FF
330
C
100
AcDbDictionary
281
1
  0
DICTIONARY
  5
500
330
C
100
AcDbDictionary
281
1
  0
DICTIONARY
  5
501
330
C
100
AcDbDictionary
281
1
  0
ACDBPLACEHOLDER
  5
502
330
503
  0
ACDBDICTIONARYWDFLT
  5
503
330
C
100
AcDbDictionary
281
1
  3
Normal
350
502
100
AcDbDictionaryWithDefault
340
502
  0
DICTIONARY
  5
504
330
C
100
AcDbDictionary
281
1
  0
DICTIONARY
  5
505
330
C
100
AcDbDictionary
281
1
  0
DICTIONARY
  5
506
330
C
100
AcDbDictionary
281
1
  0
LAYOUT
  5
507
330
4FD
100
AcDbPlotSettings
  1

  2
DWFx ePlot (XPS Compatible).pc3
  4
ANSI_A_(8.50_x_11.00_Inches)
  6

 40
5.8
 41
17.8
 42
5.8
 43
17.8
 44
215.9
 45
279.4
 46
0.0
 47
0.0
 48
0.0
 49
0.0
140
0.0
141
0.0
142
1.0
143
14.53
 70
11952
 72
0
 73
1
 74
0
  7

 75
0
147
0.069
148
114.98
149
300.29
100
AcDbLayout
  1
Model
 70
1
 71
0
 10
0.0
 20
0.0
 11
12.0
 21
9.0
 12
0.0
 22
0.0
 32
0.0
 14
0.0
 24
0.0
 34
0.0
 15
0.0
 25
0.0
 35
0.0
146
0.0
 13
0.0
 23
0.0
 33
0.0
 16
1.0
 26
0.0
 36
0.0
 17
0.0
 27
1.0
 37
0.0
 76
0
330
1F
  0
LAYOUT
  5
508
330
4FD
100
AcDbPlotSettings
  1

  2
DWFx ePlot (XPS Compatible).pc3
  4
ANSI_A_(8.50_x_11.00_Inches)
  6

 40
5.8
 41
17.8
 42
5.8
 43
17.8
 44
215.9
 45
279.4
 46
0.0
 47
0.0
 48
0.0
 49
0.0
140
0.0
141
0.0
142
1.0
143
1.0
 70
688
 72
0
 73
1
 74
5
  7
acad.ctb
 75
16
147
1.0
148
0.0
149
0.0
100
AcDbLayout
  1
Layout1
 70
1
 71
1
 10
-0.7
 20
-0.23
 11
10.3
 21
8.27
 12
0.0
 22
0.0
 32
0.0
 14
0.63
 24
0.8
 34
0.0
 15
9.0
 25
7.2
 35
0.0
146
0.0
 13
0.0
 23
0.0
 33
0.0
 16
1.0
 26
0.0
 36
0.0
 17
0.0
 27
1.0
 37
0.0
 76
0
330
58
  0
ENDSEC
  0
EOF
