999
last saved by ezdxf 0.8.2 on 2018-02-03 13:42:42
  0
SECTION
  2
HEADER
  9
$ACADVER
  1
AC1021
  9
$ACADMAINTVER
 70
50
  9
$DWGCODEPAGE
  3
ANSI_1252
  9
$LASTSAVEDBY
  1
unknown
  9
$INSBASE
 10
0.0
 20
0.0
 30
0.0
  9
$EXTMIN
 10
1e+20
 20
1e+20
 30
1e+20
  9
$EXTMAX
 10
-1e+20
 20
-1e+20
 30
-1e+20
  9
$LIMMIN
 10
0.0
 20
0.0
  9
$LIMMAX
 10
12.0
 20
9.0
  9
$ORTHOMODE
 70
0
  9
$REGENMODE
 70
1
  9
$FILLMODE
 70
1
  9
$QTEXTMODE
 70
0
  9
$MIRRTEXT
 70
0
  9
$LTSCALE
 40
1.0
  9
$ATTMODE
 70
1
  9
$TEXTSIZE
 40
0.2
  9
$TRACEWID
 40
0.05
  9
$TEXTSTYLE
  7
Notes
  9
$CLAYER
  8
0
  9
$CELTYPE
  6
ByLayer
  9
$CECOLOR
 62
256
  9
$CELTSCALE
 40
1.0
  9
$DISPSILH
 70
0
  9
$DIMSCALE
 40
1.0
  9
$DIMASZ
 40
3.0
  9
$DIMEXO
 40
1.5
  9
$DIMDLI
 40
6.0
  9
$DIMRND
 40
0.0
  9
$DIMDLE
 40
0.0
  9
$DIMEXE
 40
3.0
  9
$DIMTP
 40
0.0
  9
$DIMTM
 40
0.0
  9
$DIMTXT
 40
3.0
  9
$DIMCEN
 40
3.0
  9
$DIMTSZ
 40
0.0
  9
$DIMTOL
 70
0
  9
$DIMLIM
 70
0
  9
$DIMTIH
 70
0
  9
$DIMTOH
 70
0
  9
$DIMSE1
 70
0
  9
$DIMSE2
 70
0
  9
$DIMTAD
 70
1
  9
$DIMZIN
 70
3
  9
$DIMBLK
  1

  9
$DIMASO
 70
1
  9
$DIMSHO
 70
1
  9
$DIMPOST
  1

  9
$DIMAPOST
  1

  9
$DIMALT
 70
0
  9
$DIMALTD
 70
2
  9
$DIMALTF
 40
25.4
  9
$DIMLFAC
 40
1.0
  9
$DIMTOFL
 70
0
  9
$DIMTVP
 40
0.0
  9
$DIMTIX
 70
0
  9
$DIMSOXD
 70
0
  9
$DIMSAH
 70
0
  9
$DIMBLK1
  1

  9
$DIMBLK2
  1

  9
$DIMSTYLE
  2
Civil-Metric
  9
$DIMCLRD
 70
0
  9
$DIMCLRE
 70
0
  9
$DIMCLRT
 70
0
  9
$DIMTFAC
 40
1.0
  9
$DIMGAP
 40
2.0
  9
$DIMJUST
 70
0
  9
$DIMSD1
 70
0
  9
$DIMSD2
 70
0
  9
$DIMTOLJ
 70
1
  9
$DIMTZIN
 70
0
  9
$DIMALTZ
 70
0
  9
$DIMALTTZ
 70
0
  9
$DIMUPT
 70
0
  9
$DIMDEC
 70
2
  9
$DIMTDEC
 70
2
  9
$DIMALTU
 70
2
  9
$DIMALTTD
 70
2
  9
$DIMTXSTY
  7
Standard
  9
$DIMAUNIT
 70
0
  9
$DIMADEC
 70
2
  9
$DIMALTRND
 40
0.0
  9
$DIMAZIN
 70
2
  9
$DIMDSEP
 70
46
  9
$DIMATFIT
 70
3
  9
$DIMFRAC
 70
1
  9
$DIMLDRBLK
  1

  9
$DIMLUNIT
 70
2
  9
$DIMLWD
 70
-2
  9
$DIMLWE
 70
-2
  9
$DIMTMOVE
 70
0
  9
$DIMFXL
 40
1.0
  9
$DIMFXLON
 70
0
  9
$DIMJOGANG
 40
0.785398163397
  9
$DIMTFILL
 70
0
  9
$DIMTFILLCLR
 70
0
  9
$DIMARCSYM
 70
0
  9
$DIMLTYPE
  6

  9
$DIMLTEX1
  6

  9
$DIMLTEX2
  6

  9
$LUNITS
 70
2
  9
$LUPREC
 70
4
  9
$SKETCHINC
 40
0.1
  9
$FILLETRAD
 40
0.0
  9
$AUNITS
 70
4
  9
$AUPREC
 70
5
  9
$MENU
  1
.
  9
$ELEVATION
 40
0.0
  9
$PELEVATION
 40
0.0
  9
$THICKNESS
 40
0.0
  9
$LIMCHECK
 70
0
  9
$CHAMFERA
 40
0.0
  9
$CHAMFERB
 40
0.0
  9
$CHAMFERC
 40
0.0
  9
$CHAMFERD
 40
0.0
  9
$SKPOLY
 70
0
  9
$TDCREATE
 40
2458153.57132
  9
$TDUPDATE
 40
2458153.57132
  9
$TDINDWG
 40
0.0
  9
$TDUSRTIMER
 40
0.0
  9
$USRTIMER
 70
1
  9
$ANGBASE
 50
0.0
  9
$ANGDIR
 70
0
  9
$PDMODE
 70
0
  9
$PDSIZE
 40
0.0
  9
$PLINEWID
 40
0.0
  9
$SPLFRAME
 70
0
  9
$SPLINETYPE
 70
6
  9
$SPLINESEGS
 70
8
  9
$HANDSEED
  5
662
  9
$SURFTAB1
 70
6
  9
$SURFTAB2
 70
6
  9
$SURFTYPE
 70
6
  9
$SURFU
 70
6
  9
$SURFV
 70
6
  9
$UCSBASE
  2

  9
$UCSNAME
  2

  9
$UCSORG
 10
0.0
 20
0.0
 30
0.0
  9
$UCSXDIR
 10
1.0
 20
0.0
 30
0.0
  9
$UCSYDIR
 10
0.0
 20
1.0
 30
0.0
  9
$UCSORTHOREF
  2

  9
$UCSORTHOVIEW
 70
0
  9
$UCSORGTOP
 10
0.0
 20
0.0
 30
0.0
  9
$UCSORGBOTTOM
 10
0.0
 20
0.0
 30
0.0
  9
$UCSORGLEFT
 10
0.0
 20
0.0
 30
0.0
  9
$UCSORGRIGHT
 10
0.0
 20
0.0
 30
0.0
  9
$UCSORGFRONT
 10
0.0
 20
0.0
 30
0.0
  9
$UCSORGBACK
 10
0.0
 20
0.0
 30
0.0
  9
$PUCSBASE
  2

  9
$PUCSNAME
  2

  9
$PUCSORG
 10
0.0
 20
0.0
 30
0.0
  9
$PUCSXDIR
 10
1.0
 20
0.0
 30
0.0
  9
$PUCSYDIR
 10
0.0
 20
1.0
 30
0.0
  9
$PUCSORTHOREF
  2

  9
$PUCSORTHOVIEW
 70
0
  9
$PUCSORGTOP
 10
0.0
 20
0.0
 30
0.0
  9
$PUCSORGBOTTOM
 10
0.0
 20
0.0
 30
0.0
  9
$PUCSORGLEFT
 10
0.0
 20
0.0
 30
0.0
  9
$PUCSORGRIGHT
 10
0.0
 20
0.0
 30
0.0
  9
$PUCSORGFRONT
 10
0.0
 20
0.0
 30
0.0
  9
$PUCSORGBACK
 10
0.0
 20
0.0
 30
0.0
  9
$USERI1
 70
0
  9
$USERI2
 70
0
  9
$USERI3
 70
0
  9
$USERI4
 70
0
  9
$USERI5
 70
0
  9
$USERR1
 40
0.0
  9
$USERR2
 40
0.0
  9
$USERR3
 40
0.0
  9
$USERR4
 40
0.0
  9
$USERR5
 40
0.0
  9
$WORLDVIEW
 70
1
  9
$SHADEDGE
 70
3
  9
$SHADEDIF
 70
70
  9
$TILEMODE
 70
1
  9
$MAXACTVP
 70
64
  9
$PINSBASE
 10
0.0
 20
0.0
 30
0.0
  9
$PLIMCHECK
 70
0
  9
$PEXTMIN
 10
0.628866766397
 20
0.799999952316
 30
0.0
  9
$PEXTMAX
 10
9.02886638493
 20
7.19999957085
 30
0.0
  9
$PLIMMIN
 10
-0.700541819174
 20
-0.228100386192
  9
$PLIMMAX
 10
10.2994579405
 20
8.27189937351
  9
$UNITMODE
 70
0
  9
$VISRETAIN
 70
1
  9
$PLINEGEN
 70
0
  9
$PSLTSCALE
 70
1
  9
$TREEDEPTH
 70
3020
  9
$CMLSTYLE
  2
Standard
  9
$CMLJUST
 70
0
  9
$CMLSCALE
 40
1.0
  9
$PROXYGRAPHICS
 70
1
  9
$MEASUREMENT
 70
1
  9
$CELWEIGHT
370
-1
  9
$ENDCAPS
280
0
  9
$JOINSTYLE
280
0
  9
$LWDISPLAY
290
0
  9
$INSUNITS
 70
4
  9
$HYPERLINKBASE
  1

  9
$STYLESHEET
  1

  9
$XEDIT
290
1
  9
$CEPSNTYPE
380
0
  9
$PSTYLEMODE
290
1
  9
$FINGERPRINTGUID
  2
{39DB1BDD-BC6C-46D3-A333-DFCC0DC4782D}
  9
$VERSIONGUID
  2
{69EEBB2D-7039-498F-9366-3F994E4A07E7}
  9
$EXTNAMES
290
1
  9
$PSVPSCALE
 40
0.0
  9
$OLESTARTUP
290
0
  9
$SORTENTS
280
127
  9
$INDEXCTL
280
0
  9
$HIDETEXT
280
1
  9
$XCLIPFRAME
290
0
  9
$HALOGAP
280
0
  9
$OBSCOLOR
 70
257
  9
$OBSLTYPE
280
0
  9
$INTERSECTIONDISPLAY
280
0
  9
$INTERSECTIONCOLOR
 70
257
  9
$DIMASSOC
280
2
  9
$PROJECTNAME
  1

  9
$CAMERADISPLAY
290
0
  9
$LENSLENGTH
 40
50.0
  9
$CAMERAHEIGHT
 40
0.0
  9
$STEPSPERSEC
 40
2.0
  9
$STEPSIZE
 40
6.0
  9
$3DDWFPREC
 40
2.0
  9
$PSOLWIDTH
 40
0.25
  9
$PSOLHEIGHT
 40
4.0
  9
$LOFTANG1
 40
1.57079632679
  9
$LOFTANG2
 40
1.57079632679
  9
$LOFTMAG1
 40
0.0
  9
$LOFTMAG2
 40
0.0
  9
$LOFTPARAM
 70
7
  9
$LOFTNORMALS
280
1
  9
$LATITUDE
 40
37.795
  9
$LONGITUDE
 40
-122.394
  9
$NORTHDIRECTION
 40
0.0
  9
$TIMEZONE
 70
-8000
  9
$LIGHTGLYPHDISPLAY
280
1
  9
$TILEMODELIGHTSYNCH
280
1
  9
$CMATERIAL
347
96
  9
$SOLIDHIST
280
1
  9
$SHOWHIST
280
1
  9
$DWFFRAME
280
2
  9
$DGNFRAME
280
0
  9
$REALWORLDSCALE
290
1
  9
$INTERFERECOLOR
 62
1
  9
$INTERFEREOBJVS
345
A3
  9
$INTERFEREVPVS
346
A0
  9
$CSHADOW
280
0
  9
$SHADOWPLANELOCATION
 40
0.0
  0
ENDSEC
  0
SECTION
  2
CLASSES
  0
CLASS
  1
ACDBDICTIONARYWDFLT
  2
AcDbDictionaryWithDefault
  3
ObjectDBX Classes
 90
0
 91
1
280
0
281
0
  0
CLASS
  1
DICTIONARYVAR
  2
AcDbDictionaryVar
  3
ObjectDBX Classes
 90
0
 91
13
280
0
281
0
  0
CLASS
  1
TABLESTYLE
  2
AcDbTableStyle
  3
ObjectDBX Classes
 90
4095
 91
1
280
0
281
0
  0
CLASS
  1
MATERIAL
  2
AcDbMaterial
  3
ObjectDBX Classes
 90
1153
 91
3
280
0
281
0
  0
CLASS
  1
VISUALSTYLE
  2
AcDbVisualStyle
  3
ObjectDBX Classes
 90
4095
 91
19
280
0
281
0
  0
CLASS
  1
SCALE
  2
AcDbScale
  3
ObjectDBX Classes
 90
1153
 91
17
280
0
281
0
  0
CLASS
  1
MLEADERSTYLE
  2
AcDbMLeaderStyle
  3
ACDB_MLEADERSTYLE_CLASS
 90
4095
 91
3
280
0
281
0
  0
CLASS
  1
CELLSTYLEMAP
  2
AcDbCellStyleMap
  3
ObjectDBX Classes
 90
1152
 91
4
280
0
281
0
  0
CLASS
  1
EXACXREFPANELOBJECT
  2
ExAcXREFPanelObject
  3
EXAC_ESW
 90
1025
 91
0
280
0
281
0
  0
CLASS
  1
NPOCOLLECTION
  2
AcDbImpNonPersistentObjectsCollection
  3
ObjectDBX Classes
 90
1153
 91
0
280
0
281
0
  0
CLASS
  1
LAYER_INDEX
  2
AcDbLayerIndex
  3
ObjectDBX Classes
 90
0
 91
0
280
0
281
0
  0
CLASS
  1
SPATIAL_INDEX
  2
AcDbSpatialIndex
  3
ObjectDBX Classes
 90
0
 91
0
280
0
281
0
  0
CLASS
  1
IDBUFFER
  2
AcDbIdBuffer
  3
ObjectDBX Classes
 90
0
 91
0
280
0
281
0
  0
CLASS
  1
DIMASSOC
  2
AcDbDimAssoc
  3
"AcDbDimAssoc|Product Desc:     AcDim ARX App For Dimension|Company:          Autodesk, Inc.|WEB Address:      www.autodesk.com"
 90
0
 91
0
280
0
281
0
  0
CLASS
  1
IMAGEDEF
  2
AcDbRasterImageDef
  3
ISM
 90
0
 91
1
280
0
281
0
  0
CLASS
  1
RASTERVARIABLES
  2
AcDbRasterVariables
  3
ISM
 90
0
 91
1
280
0
281
0
  0
CLASS
  1
IMAGEDEF_REACTOR
  2
AcDbRasterImageDefReactor
  3
ISM
 90
1
 91
1
280
0
281
0
  0
CLASS
  1
IMAGE
  2
AcDbRasterImage
  3
ISM
 90
2175
 91
1
280
0
281
1
  0
CLASS
  1
PDFDEFINITION
  2
AcDbPdfDefinition
  3
ObjectDBX Classes
 90
1153
 91
1
280
0
281
0
  0
CLASS
  1
PDFUNDERLAY
  2
AcDbPdfReference
  3
ObjectDBX Classes
 90
4095
 91
1
280
0
281
1
  0
CLASS
  1
DWFDEFINITION
  2
AcDbDwfDefinition
  3
ObjectDBX Classes
 90
1153
 91
2
280
0
281
0
  0
CLASS
  1
DWFUNDERLAY
  2
AcDbDwfReference
  3
ObjectDBX Classes
 90
1153
 91
1
280
0
281
1
  0
CLASS
  1
DGNDEFINITION
  2
AcDbDgnDefinition
  3
ObjectDBX Classes
 90
1153
 91
2
280
0
281
0
  0
CLASS
  1
DGNUNDERLAY
  2
AcDbDgnReference
  3
ObjectDBX Classes
 90
1153
 91
1
280
0
281
1
  0
ENDSEC
  0
SECTION
  2
TABLES
  0
TABLE
  2
VPORT
  5
8
330
0
100
AcDbSymbolTable
 70
0
  0
ENDTAB
  0
TABLE
  2
LTYPE
  5
5
330
0
100
AcDbSymbolTable
 70
7
  0
LTYPE
  5
14
330
5
100
AcDbSymbolTableRecord
100
AcDbLinetypeTableRecord
  2
ByBlock
 70
0
  3

 72
65
 73
0
 40
0.0
  0
LTYPE
  5
15
330
5
100
AcDbSymbolTableRecord
100
AcDbLinetypeTableRecord
  2
ByLayer
 70
0
  3

 72
65
 73
0
 40
0.0
  0
LTYPE
  5
16
330
5
100
AcDbSymbolTableRecord
100
AcDbLinetypeTableRecord
  2
Continuous
 70
0
  3
Solid line
 72
65
 73
0
 40
0.0
  0
LTYPE
  5
1B1
330
5
100
AcDbSymbolTableRecord
100
AcDbLinetypeTableRecord
  2
CENTER
 70
0
  3
Center ____ _ ____ _ ____ _ ____ _ ____ _ ____
 72
65
 73
4
 40
2.0
 49
1.25
 74
0
 49
-0.25
 74
0
 49
0.25
 74
0
 49
-0.25
 74
0
  0
LTYPE
  5
1B2
330
5
100
AcDbSymbolTableRecord
100
AcDbLinetypeTableRecord
  2
DASHED
 70
0
  3
Dashed __ __ __ __ __ __ __ __ __ __ __ __ __ _
 72
65
 73
2
 40
0.75
 49
0.5
 74
0
 49
-0.25
 74
0
  0
LTYPE
  5
1B3
330
5
100
AcDbSymbolTableRecord
100
AcDbLinetypeTableRecord
  2
PHANTOM
 70
0
  3
Phantom ______  __  __  ______  __  __  ______
 72
65
 73
6
 40
2.5
 49
1.25
 74
0
 49
-0.25
 74
0
 49
0.25
 74
0
 49
-0.25
 74
0
 49
0.25
 74
0
 49
-0.25
 74
0
  0
LTYPE
  5
39E
330
5
100
AcDbSymbolTableRecord
100
AcDbLinetypeTableRecord
  2
HIDDEN
 70
0
  3
Hidden __ __ __ __ __ __ __ __ __ __ __ __ __ __
 72
65
 73
2
 40
9.525
 49
6.35
 74
0
 49
-3.175
 74
0
  0
ENDTAB
  0
TABLE
  2
LAYER
  5
2
330
0
100
AcDbSymbolTable
 70
6
  0
LAYER
  5
10
330
2
100
AcDbSymbolTableRecord
100
AcDbLayerTableRecord
  2
0
 70
0
 62
2
  6
Continuous
370
-3
390
F
347
98
  0
LAYER
  5
1B4
330
2
100
AcDbSymbolTableRecord
100
AcDbLayerTableRecord
  2
View Port
 70
0
 62
7
  6
Continuous
290
0
370
-3
390
F
347
98
  0
LAYER
  5
21D
330
2
100
AcDbSymbolTableRecord
100
AcDbLayerTableRecord
  2
Defpoints
 70
0
 62
7
  6
Continuous
290
0
370
-3
390
F
347
98
  0
LAYER
  5
58D
330
2
100
AcDbSymbolTableRecord
100
AcDbLayerTableRecord
  2
HOLES
 70
0
 62
160
  6
CONTINUOUS
290
1
390
503
  0
LAYER
  5
592
330
2
100
AcDbSymbolTableRecord
100
AcDbLayerTableRecord
  2
IZREZ
 70
0
 62
7
  6
CONTINUOUS
290
1
390
503
  0
LAYER
  5
5E2
330
2
100
AcDbSymbolTableRecord
100
AcDbLayerTableRecord
  2
GRAVIRANJE
 70
0
 62
3
  6
CONTINUOUS
290
1
390
503
  0
ENDTAB
  0
TABLE
  2
STYLE
  5
3
330
0
100
AcDbSymbolTable
 70
3
  0
STYLE
  5
11
330
3
100
AcDbSymbolTableRecord
100
AcDbTextStyleTableRecord
  2
Standard
 70
0
 40
0.0
 41
1.0
 50
0.0
 71
0
 42
0.2
  3
arial.ttf
  4

  0
STYLE
  5
DC
330
3
100
AcDbSymbolTableRecord
100
AcDbTextStyleTableRecord
  2
Annotative
 70
0
 40
0.0
 41
1.0
 50
0.0
 71
0
 42
0.2
  3
arial.ttf
  4

  0
STYLE
  5
178
330
3
100
AcDbSymbolTableRecord
100
AcDbTextStyleTableRecord
  2
Notes
 70
0
 40
3.0
 41
1.0
 50
0.0
 71
0
 42
0.2
  3
arial.ttf
  4

  0
ENDTAB
  0
TABLE
  2
VIEW
  5
6
330
0
100
AcDbSymbolTable
 70
0
  0
ENDTAB
  0
TABLE
  2
UCS
  5
7
330
0
100
AcDbSymbolTable
 70
0
  0
ENDTAB
  0
TABLE
  2
APPID
  5
9
330
0
100
AcDbSymbolTable
 70
11
  0
APPID
  5
12
330
9
100
AcDbSymbolTableRecord
100
AcDbRegAppTableRecord
  2
ACAD
 70
0
  0
APPID
  5
DD
330
9
100
AcDbSymbolTableRecord
100
AcDbRegAppTableRecord
  2
AcadAnnoPO
 70
0
  0
APPID
  5
DE
330
9
100
AcDbSymbolTableRecord
100
AcDbRegAppTableRecord
  2
AcadAnnotative
 70
0
  0
APPID
  5
DF
330
9
100
AcDbSymbolTableRecord
100
AcDbRegAppTableRecord
  2
ACAD_DSTYLE_DIMJAG
 70
0
  0
APPID
  5
E0
330
9
100
AcDbSymbolTableRecord
100
AcDbRegAppTableRecord
  2
ACAD_DSTYLE_DIMTALN
 70
0
  0
APPID
  5
107
330
9
100
AcDbSymbolTableRecord
100
AcDbRegAppTableRecord
  2
ACAD_MLEADERVER
 70
0
  0
APPID
  5
1B5
330
9
100
AcDbSymbolTableRecord
100
AcDbRegAppTableRecord
  2
AcAecLayerStandard
 70
0
  0
APPID
  5
1BA
330
9
100
AcDbSymbolTableRecord
100
AcDbRegAppTableRecord
  2
ACAD_EXEMPT_FROM_CAD_STANDARDS
 70
0
  0
APPID
  5
237
330
9
100
AcDbSymbolTableRecord
100
AcDbRegAppTableRecord
  2
ACAD_DSTYLE_DIMBREAK
 70
0
  0
APPID
  5
28E
330
9
100
AcDbSymbolTableRecord
100
AcDbRegAppTableRecord
  2
ACAD_PSEXT
 70
0
  0
APPID
  5
4C2
330
9
100
AcDbSymbolTableRecord
100
AcDbRegAppTableRecord
  2
HATCHBACKGROUNDCOLOR
 70
0
  0
ENDTAB
  0
TABLE
  2
DIMSTYLE
  5
A
330
0
100
AcDbSymbolTable
 70
3
100
AcDbDimStyleTable
 71
3
340
242
340
27
340
E1
  0
DIMSTYLE
105
27
330
A
100
AcDbSymbolTableRecord
100
AcDbDimStyleTableRecord
  2
Standard
 70
0
 41
3.0
 42
2.0
 43
9.0
 44
5.0
140
3.0
141
2.0
147
2.0
340
11
1001
ACAD_DSTYLE_DIMJAG
1070
388
1040
38.0
1001
ACAD_DSTYLE_DIMBREAK
1070
391
1040
90.0
1001
ACAD_DSTYLE_DIMTALN
1070
392
1070
0
  0
DIMSTYLE
105
E1
330
A
100
AcDbSymbolTableRecord
100
AcDbDimStyleTableRecord
  2
Annotative
 70
0
 40
0.0
 41
3.0
 42
2.5
 43
10.0
 44
5.0
140
3.0
141
2.0
147
2.0
340
11
1001
AcadAnnotative
1000
AnnotativeData
1002
{
1070
1
1070
1
1002
}
1001
ACAD_DSTYLE_DIMJAG
1070
388
1040
38.0
1001
ACAD_DSTYLE_DIMBREAK
1070
391
1040
90.0
1001
ACAD_DSTYLE_DIMTALN
1070
392
1070
0
  0
DIMSTYLE
105
242
330
A
100
AcDbSymbolTableRecord
100
AcDbDimStyleTableRecord
  2
Civil-Metric
 70
0
 41
3.0
 42
1.5
 43
6.0
 44
3.0
 73
0
 74
0
 77
1
 78
3
 79
2
140
3.0
141
3.0
147
2.0
179
2
271
2
272
2
276
1
340
11
1001
ACAD_DSTYLE_DIMBREAK
1070
391
1040
3.0
1001
ACAD_DSTYLE_DIMJAG
1070
388
1040
38.0
1001
ACAD_DSTYLE_DIMTALN
1070
392
1070
0
  0
ENDTAB
  0
TABLE
  2
BLOCK_RECORD
  5
1
330
0
100
AcDbSymbolTable
 70
4
  0
BLOCK_RECORD
  5
1F
330
1
100
AcDbSymbolTableRecord
100
AcDbBlockTableRecord
  2
*Model_Space
340
507
 70
0
280
1
281
0
  0
BLOCK_RECORD
  5
58
330
1
100
AcDbSymbolTableRecord
100
AcDbBlockTableRecord
  2
*Paper_Space
340
508
 70
0
280
1
281
0
  0
BLOCK_RECORD
  5
238
330
1
100
AcDbSymbolTableRecord
100
AcDbBlockTableRecord
  2
_ArchTick
340
0
 70
0
280
1
281
0
  0
BLOCK_RECORD
  5
23C
330
1
100
AcDbSymbolTableRecord
100
AcDbBlockTableRecord
  2
_Open30
340
0
 70
0
280
1
281
0
  0
ENDTAB
  0
ENDSEC
  0
SECTION
  2
BLOCKS
  0
BLOCK
  5
23A
330
238
100
AcDbEntity
  8
0
100
AcDbBlockBegin
  2
_ArchTick
 70
0
 10
0.0
 20
0.0
 30
0.0
  3
_ArchTick
  1

  0
LWPOLYLINE
  5
239
330
238
100
AcDbEntity
  8
0
  6
ByBlock
 62
0
100
AcDbPolyline
 90
2
 70
0
 43
0.15
 10
-0.5
 20
-0.5
 10
0.5
 20
0.5
  0
ENDBLK
  5
23B
330
238
100
AcDbEntity
  8
0
100
AcDbBlockEnd
  0
BLOCK
  5
20
330
1F
100
AcDbEntity
  8
0
100
AcDbBlockBegin
  2
*Model_Space
 70
0
 10
0.0
 20
0.0
 30
0.0
  3
*Model_Space
  1

  0
ENDBLK
  5
21
330
1F
100
AcDbEntity
  8
0
100
AcDbBlockEnd
  0
BLOCK
  5
5A
330
58
100
AcDbEntity
 67
1
  8
0
100
AcDbBlockBegin
  2
*Paper_Space
 70
0
 10
0.0
 20
0.0
 30
0.0
  3
*Paper_Space
  1

  0
ENDBLK
  5
5B
330
58
100
AcDbEntity
 67
1
  8
0
100
AcDbBlockEnd
  0
BLOCK
  5
240
330
23C
100
AcDbEntity
  8
0
100
AcDbBlockBegin
  2
_Open30
 70
0
 10
0.0
 20
0.0
 30
0.0
  3
_Open30
  1

  0
LINE
  5
23D
330
23C
100
AcDbEntity
  8
0
  6
ByBlock
 62
0
370
-2
100
AcDbLine
 10
-1.0
 20
0.26794919
 30
0.0
 11
0.0
 21
0.0
 31
0.0
  0
LINE
  5
23E
330
23C
100
AcDbEntity
  8
0
  6
ByBlock
 62
0
370
-2
100
AcDbLine
 10
0.0
 20
0.0
 30
0.0
 11
-1.0
 21
-0.26794919
 31
0.0
  0
LINE
  5
23F
330
23C
100
AcDbEntity
  8
0
  6
ByBlock
 62
0
370
-2
100
AcDbLine
 10
0.0
 20
0.0
 30
0.0
 11
-1.0
 21
0.0
 31
0.0
  0
ENDBLK
  5
241
330
23C
100
AcDbEntity
  8
0
100
AcDbBlockEnd
  0
ENDSEC
  0
SECTION
  2
ENTITIES
  0
CIRCLE
  5
58E
330
1F
100
AcDbEntity
  8
HOLES
 67
0
100
AcDbCircle
 10
-193.116092804
 20
387.633411291
 40
1.5
  0
CIRCLE
  5
58F
330
1F
100
AcDbEntity
  8
HOLES
 67
0
100
AcDbCircle
 10
-291.722780804
 20
123.582619291
 40
1.5
  0
CIRCLE
  5
590
330
1F
100
AcDbEntity
  8
HOLES
 67
0
100
AcDbCircle
 10
-94.5565123036
 20
123.582619291
 40
1.5
  0
CIRCLE
  5
591
330
1F
100
AcDbEntity
  8
HOLES
 67
0
100
AcDbCircle
 10
-238.282313804
 20
116.804478211
 40
1.75
  0
LINE
  5
593
330
1F
100
AcDbEntity
  8
IZREZ
 67
0
100
AcDbLine
 10
-65.4924975414
 20
0.00410429128661
 11
-64.5751258913
 21
0.00410429128661
  0
ARC
  5
594
330
1F
100
AcDbEntity
  8
HOLES
 67
0
100
AcDbCircle
 10
-45.3126452538
 20
448.893025085
 40
1.5
100
AcDbArc
 50
90.0
 51
90.234444009
  0
POINT
  5
595
330
1F
100
AcDbEntity
  8
0
 67
0
100
AcDbPoint
 10
-193.116092804
 20
387.633411291
  0
CIRCLE
  5
596
330
1F
100
AcDbEntity
  8
HOLES
 67
0
100
AcDbCircle
 10
-137.282313804
 20
116.804478211
 40
1.75
  0
POINT
  5
597
330
1F
100
AcDbEntity
  8
0
 67
0
100
AcDbPoint
 10
-90.0
 20
70.0
  0
POINT
  5
598
330
1F
100
AcDbEntity
  8
0
 67
0
100
AcDbPoint
 10
-50.0
 20
481.0
  0
POINT
  5
599
330
1F
100
AcDbEntity
  8
0
 67
0
100
AcDbPoint
 10
-368.0
 20
481.0
  0
POINT
  5
59A
330
1F
100
AcDbEntity
  8
0
 67
0
100
AcDbPoint
 10
-10.0
 20
481.0
  0
POINT
  5
59B
330
1F
100
AcDbEntity
  8
0
 67
0
100
AcDbPoint
 10
0.0
 20
481.0
  0
POINT
  5
59C
330
1F
100
AcDbEntity
  8
0
 67
0
100
AcDbPoint
 10
-408.0
 20
481.0
  0
POINT
  5
59D
330
1F
100
AcDbEntity
  8
0
 67
0
100
AcDbPoint
 10
-209.0
 20
481.0
  0
POINT
  5
59E
330
1F
100
AcDbEntity
  8
0
 67
0
100
AcDbPoint
 10
-328.0
 20
70.0
  0
LWPOLYLINE
  5
59F
330
1F
100
AcDbEntity
  8
HOLES
 67
0
100
AcDbPolyline
 90
5
 70
1
 10
-338.0
 20
484.0
 10
-348.0
 20
484.0
 10
-348.0
 20
478.0
 10
-338.0
 20
478.0
 10
-338.0
 20
478.0
  0
CIRCLE
  5
5A0
330
1F
100
AcDbEntity
  8
HOLES
 67
0
100
AcDbCircle
 10
-368.0
 20
481.0
 40
1.5
  0
LWPOLYLINE
  5
5A1
330
1F
100
AcDbEntity
  8
HOLES
 67
0
100
AcDbPolyline
 90
5
 70
1
 10
-179.0
 20
484.0
 10
-189.0
 20
484.0
 10
-189.0
 20
478.0
 10
-179.0
 20
478.0
 10
-179.0
 20
478.0
  0
LWPOLYLINE
  5
5A2
330
1F
100
AcDbEntity
  8
HOLES
 67
0
100
AcDbPolyline
 90
5
 70
1
 10
-229.0
 20
484.0
 10
-239.0
 20
484.0
 10
-239.0
 20
478.0
 10
-229.0
 20
478.0
 10
-229.0
 20
478.0
  0
CIRCLE
  5
5A3
330
1F
100
AcDbEntity
  8
HOLES
 67
0
100
AcDbCircle
 10
-209.0
 20
481.0
 40
1.5
  0
LWPOLYLINE
  5
5A4
330
1F
100
AcDbEntity
  8
HOLES
 67
0
100
AcDbPolyline
 90
5
 70
1
 10
-70.0
 20
484.0
 10
-80.0
 20
484.0
 10
-80.0
 20
478.0
 10
-70.0
 20
478.0
 10
-70.0
 20
478.0
  0
CIRCLE
  5
5A5
330
1F
100
AcDbEntity
  8
HOLES
 67
0
100
AcDbCircle
 10
-50.0
 20
481.0
 40
1.5
  0
POINT
  5
5A6
330
1F
100
AcDbEntity
  8
0
 67
0
100
AcDbPoint
 10
-10.0
 20
250.0
  0
POINT
  5
5A7
330
1F
100
AcDbEntity
  8
0
 67
0
100
AcDbPoint
 10
-408.0
 20
100.0
  0
POINT
  5
5A8
330
1F
100
AcDbEntity
  8
0
 67
0
100
AcDbPoint
 10
-408.0
 20
250.0
  0
POINT
  5
5A9
330
1F
100
AcDbEntity
  8
0
 67
0
100
AcDbPoint
 10
-408.0
 20
400.0
  0
POINT
  5
5AA
330
1F
100
AcDbEntity
  8
0
 67
0
100
AcDbPoint
 10
-10.0
 20
400.0
  0
POINT
  5
5AB
330
1F
100
AcDbEntity
  8
0
 67
0
100
AcDbPoint
 10
-10.0
 20
100.0
  0
POINT
  5
5AC
330
1F
100
AcDbEntity
  8
0
 67
0
100
AcDbPoint
 10
-228.0
 20
70.0
  0
CIRCLE
  5
5AD
330
1F
100
AcDbEntity
  8
HOLES
 67
0
100
AcDbCircle
 10
-287.816
 20
50.265
 40
1.5
  0
CIRCLE
  5
5AE
330
1F
100
AcDbEntity
  8
HOLES
 67
0
100
AcDbCircle
 10
-143.036
 20
50.265
 40
1.5
  0
CIRCLE
  5
5AF
330
1F
100
AcDbEntity
  8
HOLES
 67
0
100
AcDbCircle
 10
-287.816
 20
100.049
 40
1.5
  0
CIRCLE
  5
5B0
330
1F
100
AcDbEntity
  8
HOLES
 67
0
100
AcDbCircle
 10
-143.036
 20
100.049
 40
1.5
  0
CIRCLE
  5
5B1
330
1F
100
AcDbEntity
  8
HOLES
 67
0
100
AcDbCircle
 10
-153.496
 20
72.889
 40
3.5
  0
CIRCLE
  5
5B2
330
1F
100
AcDbEntity
  8
HOLES
 67
0
100
AcDbCircle
 10
-153.796
 20
55.789
 40
3.5
  0
POINT
  5
5B3
330
1F
100
AcDbEntity
  8
0
 67
0
100
AcDbPoint
 10
-154.102
 20
92.148
  0
CIRCLE
  5
5B4
330
1F
100
AcDbEntity
  8
HOLES
 67
0
100
AcDbCircle
 10
-154.102
 20
92.148
 40
0.75
  0
CIRCLE
  5
5B5
330
1F
100
AcDbEntity
  8
HOLES
 67
0
100
AcDbCircle
 10
-152.102
 20
92.148
 40
0.75
  0
CIRCLE
  5
5B6
330
1F
100
AcDbEntity
  8
HOLES
 67
0
100
AcDbCircle
 10
-154.102
 20
94.148
 40
0.75
  0
CIRCLE
  5
5B7
330
1F
100
AcDbEntity
  8
HOLES
 67
0
100
AcDbCircle
 10
-152.102
 20
94.148
 40
0.75
  0
CIRCLE
  5
5B8
330
1F
100
AcDbEntity
  8
HOLES
 67
0
100
AcDbCircle
 10
-156.102
 20
94.148
 40
0.75
  0
CIRCLE
  5
5B9
330
1F
100
AcDbEntity
  8
HOLES
 67
0
100
AcDbCircle
 10
-156.102
 20
92.148
 40
0.75
  0
CIRCLE
  5
5BA
330
1F
100
AcDbEntity
  8
HOLES
 67
0
100
AcDbCircle
 10
-156.102
 20
90.148
 40
0.75
  0
CIRCLE
  5
5BB
330
1F
100
AcDbEntity
  8
HOLES
 67
0
100
AcDbCircle
 10
-154.102
 20
90.148
 40
0.75
  0
CIRCLE
  5
5BC
330
1F
100
AcDbEntity
  8
HOLES
 67
0
100
AcDbCircle
 10
-152.102
 20
90.148
 40
0.75
  0
POINT
  5
5BD
330
1F
100
AcDbEntity
  8
0
 67
0
100
AcDbPoint
 10
-267.0
 20
97.0
  0
POINT
  5
5BE
330
1F
100
AcDbEntity
  8
0
 67
0
100
AcDbPoint
 10
-228.9
 20
97.0
  0
LWPOLYLINE
  5
5BF
330
1F
100
AcDbEntity
  8
HOLES
 67
0
100
AcDbPolyline
 90
6
 70
1
 10
-179.0
 20
70.0
 10
-179.0
 20
50.0
 10
-277.0
 20
50.0
 10
-277.0
 20
70.0
 10
-277.0
 20
90.0
 10
-179.0
 20
90.0
  0
POINT
  5
5C0
330
1F
100
AcDbEntity
  8
0
 67
0
100
AcDbPoint
 10
-274.5
 20
42.5
  0
POINT
  5
5C1
330
1F
100
AcDbEntity
  8
0
 67
0
100
AcDbPoint
 10
-181.5
 20
42.5
  0
POINT
  5
5C2
330
1F
100
AcDbEntity
  8
0
 67
0
100
AcDbPoint
 10
-181.5
 20
97.5
  0
POINT
  5
5C3
330
1F
100
AcDbEntity
  8
0
 67
0
100
AcDbPoint
 10
-274.5
 20
97.5
  0
POINT
  5
5C4
330
1F
100
AcDbEntity
  8
0
 67
0
100
AcDbPoint
 10
-228.0
 20
70.0
  0
CIRCLE
  5
5C5
330
1F
100
AcDbEntity
  8
HOLES
 67
0
100
AcDbCircle
 10
-284.75
 20
30.0
 40
1.5
  0
CIRCLE
  5
5C6
330
1F
100
AcDbEntity
  8
HOLES
 67
0
100
AcDbCircle
 10
-255.25
 20
30.0
 40
1.5
  0
POINT
  5
5C7
330
1F
100
AcDbEntity
  8
0
 67
0
100
AcDbPoint
 10
-270.0
 20
30.0
  0
POINT
  5
5C8
330
1F
100
AcDbEntity
  8
0
 67
0
100
AcDbPoint
 10
-284.75
 20
30.0
  0
POINT
  5
5C9
330
1F
100
AcDbEntity
  8
0
 67
0
100
AcDbPoint
 10
-255.25
 20
30.0
  0
LWPOLYLINE
  5
5CA
330
1F
100
AcDbEntity
  8
HOLES
 67
0
100
AcDbPolyline
 90
4
 70
1
 10
-277.5
 20
33.0
 42
-0.414213562373
 10
-276.5
 20
34.0
 42
-1.0
 10
-276.50000035
 20
33.8
 42
0.414213434196
 10
-277.3
 20
33.0
 42
-1.0
  0
LWPOLYLINE
  5
5CB
330
1F
100
AcDbEntity
  8
HOLES
 67
0
100
AcDbPolyline
 90
4
 70
1
 10
-277.5
 20
27.0
 42
0.414213562373
 10
-276.5
 20
26.0
 42
1.0
 10
-276.50000035
 20
26.2
 42
-0.414213434196
 10
-277.3
 20
27.0
 42
1.0
  0
LWPOLYLINE
  5
5CC
330
1F
100
AcDbEntity
  8
HOLES
 67
0
100
AcDbPolyline
 90
4
 70
1
 10
-262.5
 20
33.0
 42
0.414213562373
 10
-263.5
 20
34.0
 42
1.0
 10
-263.49999965
 20
33.8
 42
-0.414213434196
 10
-262.7
 20
33.0
 42
1.0
  0
LWPOLYLINE
  5
5CD
330
1F
100
AcDbEntity
  8
HOLES
 67
0
100
AcDbPolyline
 90
4
 70
1
 10
-262.5
 20
27.0
 42
-0.414213562373
 10
-263.5
 20
26.0
 42
-1.0
 10
-263.49999965
 20
26.2
 42
0.414213434196
 10
-262.7
 20
27.0
 42
-1.0
  0
LWPOLYLINE
  5
5CE
330
1F
100
AcDbEntity
  8
HOLES
 67
0
100
AcDbPolyline
 90
4
 70
1
 10
-277.5
 20
30.5
 10
-277.5
 20
29.5
 42
1.0
 10
-277.3
 20
29.5
 10
-277.3
 20
30.5
 42
1.0
  0
LWPOLYLINE
  5
5CF
330
1F
100
AcDbEntity
  8
HOLES
 67
0
100
AcDbPolyline
 90
4
 70
1
 10
-277.5
 20
32.3
 10
-277.5
 20
31.3
 42
1.0
 10
-277.3
 20
31.3
 10
-277.3
 20
32.3
 42
1.0
  0
LWPOLYLINE
  5
5D0
330
1F
100
AcDbEntity
  8
HOLES
 67
0
100
AcDbPolyline
 90
4
 70
1
 10
-277.5
 20
27.7
 10
-277.5
 20
28.7
 42
-1.0
 10
-277.3
 20
28.7
 10
-277.3
 20
27.7
 42
-1.0
  0
LWPOLYLINE
  5
5D1
330
1F
100
AcDbEntity
  8
HOLES
 67
0
100
AcDbPolyline
 90
4
 70
1
 10
-262.5
 20
30.5
 10
-262.5
 20
29.5
 42
-1.0
 10
-262.7
 20
29.5
 10
-262.7
 20
30.5
 42
-1.0
  0
LWPOLYLINE
  5
5D2
330
1F
100
AcDbEntity
  8
HOLES
 67
0
100
AcDbPolyline
 90
4
 70
1
 10
-262.5
 20
32.3
 10
-262.5
 20
31.3
 42
-1.0
 10
-262.7
 20
31.3
 10
-262.7
 20
32.3
 42
-1.0
  0
LWPOLYLINE
  5
5D3
330
1F
100
AcDbEntity
  8
HOLES
 67
0
100
AcDbPolyline
 90
4
 70
1
 10
-262.5
 20
27.7
 10
-262.5
 20
28.7
 42
1.0
 10
-262.7
 20
28.7
 10
-262.7
 20
27.7
 42
1.0
  0
LWPOLYLINE
  5
5D4
330
1F
100
AcDbEntity
  8
HOLES
 67
0
100
AcDbPolyline
 90
4
 70
1
 10
-270.5
 20
33.8
 10
-269.5
 20
33.8
 42
1.0
 10
-269.5
 20
34.0
 10
-270.5
 20
34.0
 42
1.0
  0
LWPOLYLINE
  5
5D5
330
1F
100
AcDbEntity
  8
HOLES
 67
0
100
AcDbPolyline
 90
4
 70
1
 10
-274.0
 20
33.8
 10
-273.0
 20
33.8
 42
1.0
 10
-273.0
 20
34.0
 10
-274.0
 20
34.0
 42
1.0
  0
LWPOLYLINE
  5
5D6
330
1F
100
AcDbEntity
  8
HOLES
 67
0
100
AcDbPolyline
 90
4
 70
1
 10
-272.3
 20
33.8
 10
-271.3
 20
33.8
 42
1.0
 10
-271.3
 20
34.0
 10
-272.3
 20
34.0
 42
1.0
  0
LWPOLYLINE
  5
5D7
330
1F
100
AcDbEntity
  8
HOLES
 67
0
100
AcDbPolyline
 90
4
 70
1
 10
-275.8
 20
33.8
 10
-274.8
 20
33.8
 42
1.0
 10
-274.8
 20
34.0
 10
-275.8
 20
34.0
 42
1.0
  0
LWPOLYLINE
  5
5D8
330
1F
100
AcDbEntity
  8
HOLES
 67
0
100
AcDbPolyline
 90
4
 70
1
 10
-266.0
 20
33.8
 10
-267.0
 20
33.8
 42
-1.0
 10
-267.0
 20
34.0
 10
-266.0
 20
34.0
 42
-1.0
  0
LWPOLYLINE
  5
5D9
330
1F
100
AcDbEntity
  8
HOLES
 67
0
100
AcDbPolyline
 90
4
 70
1
 10
-267.7
 20
33.8
 10
-268.7
 20
33.8
 42
-1.0
 10
-268.7
 20
34.0
 10
-267.7
 20
34.0
 42
-1.0
  0
LWPOLYLINE
  5
5DA
330
1F
100
AcDbEntity
  8
HOLES
 67
0
100
AcDbPolyline
 90
4
 70
1
 10
-264.2
 20
33.8
 10
-265.2
 20
33.8
 42
-1.0
 10
-265.2
 20
34.0
 10
-264.2
 20
34.0
 42
-1.0
  0
LWPOLYLINE
  5
5DB
330
1F
100
AcDbEntity
  8
HOLES
 67
0
100
AcDbPolyline
 90
4
 70
1
 10
-270.5
 20
26.2
 10
-269.5
 20
26.2
 42
-1.0
 10
-269.5
 20
26.0
 10
-270.5
 20
26.0
 42
-1.0
  0
LWPOLYLINE
  5
5DC
330
1F
100
AcDbEntity
  8
HOLES
 67
0
100
AcDbPolyline
 90
4
 70
1
 10
-274.0
 20
26.2
 10
-273.0
 20
26.2
 42
-1.0
 10
-273.0
 20
26.0
 10
-274.0
 20
26.0
 42
-1.0
  0
LWPOLYLINE
  5
5DD
330
1F
100
AcDbEntity
  8
HOLES
 67
0
100
AcDbPolyline
 90
4
 70
1
 10
-272.3
 20
26.2
 10
-271.3
 20
26.2
 42
-1.0
 10
-271.3
 20
26.0
 10
-272.3
 20
26.0
 42
-1.0
  0
LWPOLYLINE
  5
5DE
330
1F
100
AcDbEntity
  8
HOLES
 67
0
100
AcDbPolyline
 90
4
 70
1
 10
-275.8
 20
26.2
 10
-274.8
 20
26.2
 42
-1.0
 10
-274.8
 20
26.0
 10
-275.8
 20
26.0
 42
-1.0
  0
LWPOLYLINE
  5
5DF
330
1F
100
AcDbEntity
  8
HOLES
 67
0
100
AcDbPolyline
 90
4
 70
1
 10
-266.0
 20
26.2
 10
-267.0
 20
26.2
 42
1.0
 10
-267.0
 20
26.0
 10
-266.0
 20
26.0
 42
1.0
  0
LWPOLYLINE
  5
5E0
330
1F
100
AcDbEntity
  8
HOLES
 67
0
100
AcDbPolyline
 90
4
 70
1
 10
-267.7
 20
26.2
 10
-268.7
 20
26.2
 42
1.0
 10
-268.7
 20
26.0
 10
-267.7
 20
26.0
 42
1.0
  0
LWPOLYLINE
  5
5E1
330
1F
100
AcDbEntity
  8
HOLES
 67
0
100
AcDbPolyline
 90
4
 70
1
 10
-264.2
 20
26.2
 10
-265.2
 20
26.2
 42
1.0
 10
-265.2
 20
26.0
 10
-264.2
 20
26.0
 42
1.0
  0
MTEXT
  5
5E3
330
1F
100
AcDbEntity
  8
GRAVIRANJE
 67
0
100
AcDbMText
 50
0.0
 40
4.0
 41
9.33333248532
 71
1
 72
1
 73
2
 10
-274.5
 20
24.0
 30
0.0
  7
standard
 44
1.0
  1
USB
  0
POINT
  5
5E4
330
1F
100
AcDbEntity
  8
0
 67
0
100
AcDbPoint
 10
-343.9
 20
179.9
  0
POINT
  5
5E5
330
1F
100
AcDbEntity
  8
0
 67
0
100
AcDbPoint
 10
-393.0
 20
181.5
  0
POINT
  5
5E6
330
1F
100
AcDbEntity
  8
0
 67
0
100
AcDbPoint
 10
-389.0
 20
165.0
  0
POINT
  5
5E7
330
1F
100
AcDbEntity
  8
0
 67
0
100
AcDbPoint
 10
-388.5
 20
152.5
  0
POINT
  5
5E8
330
1F
100
AcDbEntity
  8
0
 67
0
100
AcDbPoint
 10
-342.5
 20
140.1
  0
CIRCLE
  5
5E9
330
1F
100
AcDbEntity
  8
GRAVIRANJE
 67
0
100
AcDbCircle
 10
-384.1
 20
127.6
 40
1.4
  0
CIRCLE
  5
5EA
330
1F
100
AcDbEntity
  8
GRAVIRANJE
 67
0
100
AcDbCircle
 10
-341.9
 20
127.8
 40
1.4
  0
CIRCLE
  5
5EB
330
1F
100
AcDbEntity
  8
GRAVIRANJE
 67
0
100
AcDbCircle
 10
-342.5
 20
140.1
 40
1.4
  0
CIRCLE
  5
5EC
330
1F
100
AcDbEntity
  8
GRAVIRANJE
 67
0
100
AcDbCircle
 10
-388.5
 20
152.5
 40
1.4
  0
CIRCLE
  5
5ED
330
1F
100
AcDbEntity
  8
GRAVIRANJE
 67
0
100
AcDbCircle
 10
-389.0
 20
165.0
 40
1.4
  0
CIRCLE
  5
5EE
330
1F
100
AcDbEntity
  8
GRAVIRANJE
 67
0
100
AcDbCircle
 10
-343.9
 20
179.9
 40
1.4
  0
CIRCLE
  5
5EF
330
1F
100
AcDbEntity
  8
GRAVIRANJE
 67
0
100
AcDbCircle
 10
-393.0
 20
181.5
 40
1.4
  0
POINT
  5
5F0
330
1F
100
AcDbEntity
  8
0
 67
0
100
AcDbPoint
 10
-341.9
 20
127.8
  0
POINT
  5
5F1
330
1F
100
AcDbEntity
  8
0
 67
0
100
AcDbPoint
 10
-384.1
 20
127.6
  0
POINT
  5
5F2
330
1F
100
AcDbEntity
  8
0
 67
0
100
AcDbPoint
 10
-350.0
 20
380.0
  0
POINT
  5
5F3
330
1F
100
AcDbEntity
  8
0
 67
0
100
AcDbPoint
 10
-390.0
 20
380.0
  0
POINT
  5
5F4
330
1F
100
AcDbEntity
  8
0
 67
0
100
AcDbPoint
 10
-390.0
 20
340.0
  0
POINT
  5
5F5
330
1F
100
AcDbEntity
  8
0
 67
0
100
AcDbPoint
 10
-350.0
 20
340.0
  0
CIRCLE
  5
5F6
330
1F
100
AcDbEntity
  8
HOLES
 67
0
100
AcDbCircle
 10
-350.0
 20
380.0
 40
1.5
  0
CIRCLE
  5
5F7
330
1F
100
AcDbEntity
  8
HOLES
 67
0
100
AcDbCircle
 10
-390.0
 20
380.0
 40
1.5
  0
CIRCLE
  5
5F8
330
1F
100
AcDbEntity
  8
HOLES
 67
0
100
AcDbCircle
 10
-390.0
 20
340.0
 40
1.5
  0
CIRCLE
  5
5F9
330
1F
100
AcDbEntity
  8
HOLES
 67
0
100
AcDbCircle
 10
-350.0
 20
340.0
 40
1.5
  0
LINE
  5
5FA
330
1F
100
AcDbEntity
  8
GRAVIRANJE
 67
0
100
AcDbLine
 10
-375.0
 20
152.0
 11
-385.135479232
 21
152.0
  0
ARC
  5
5FB
330
1F
100
AcDbEntity
  8
GRAVIRANJE
 67
0
100
AcDbCircle
 10
-388.5
 20
152.5
 40
3.4014702704
100
AcDbArc
 50
26.1667943298
 51
351.547162722
  0
LINE
  5
5FC
330
1F
100
AcDbEntity
  8
GRAVIRANJE
 67
0
100
AcDbLine
 10
-385.447132496
 20
154.0
 11
-376.0
 21
154.0
  0
LINE
  5
5FD
330
1F
100
AcDbEntity
  8
GRAVIRANJE
 67
0
100
AcDbLine
 10
-376.0
 20
154.0
 11
-370.5
 21
159.5
  0
LINE
  5
5FE
330
1F
100
AcDbEntity
  8
GRAVIRANJE
 67
0
100
AcDbLine
 10
-370.5
 20
159.5
 11
-375.0
 21
164.0
  0
LINE
  5
5FF
330
1F
100
AcDbEntity
  8
GRAVIRANJE
 67
0
100
AcDbLine
 10
-375.0
 20
164.0
 11
-385.748846359
 21
164.0
  0
ARC
  5
600
330
1F
100
AcDbEntity
  8
GRAVIRANJE
 67
0
100
AcDbCircle
 10
-389.0
 20
165.0
 40
3.40147027034
100
AcDbArc
 50
17.0970141707
 51
342.902985829
  0
LINE
  5
601
330
1F
100
AcDbEntity
  8
GRAVIRANJE
 67
0
100
AcDbLine
 10
-385.748846359
 20
166.0
 11
-374.0
 21
166.0
  0
LINE
  5
602
330
1F
100
AcDbEntity
  8
GRAVIRANJE
 67
0
100
AcDbLine
 10
-374.0
 20
166.0
 11
-360.5
 21
152.5
  0
LINE
  5
603
330
1F
100
AcDbEntity
  8
GRAVIRANJE
 67
0
100
AcDbLine
 10
-360.5
 20
152.5
 11
-352.5
 21
160.5
  0
LINE
  5
604
330
1F
100
AcDbEntity
  8
GRAVIRANJE
 67
0
100
AcDbLine
 10
-352.5
 20
160.5
 11
-372.0
 21
180.0
  0
LINE
  5
605
330
1F
100
AcDbEntity
  8
GRAVIRANJE
 67
0
100
AcDbLine
 10
-372.0
 20
180.0
 11
-389.947132496
 21
180.0
  0
ARC
  5
606
330
1F
100
AcDbEntity
  8
GRAVIRANJE
 67
0
100
AcDbCircle
 10
-393.0
 20
181.5
 40
3.40147027034
100
AcDbArc
 50
26.166794323
 51
333.833205677
  0
LINE
  5
607
330
1F
100
AcDbEntity
  8
GRAVIRANJE
 67
0
100
AcDbLine
 10
-389.947132496
 20
183.0
 11
-369.0
 21
183.0
  0
LINE
  5
608
330
1F
100
AcDbEntity
  8
GRAVIRANJE
 67
0
100
AcDbLine
 10
-369.0
 20
183.0
 11
-361.0
 21
176.0
  0
LINE
  5
609
330
1F
100
AcDbEntity
  8
GRAVIRANJE
 67
0
100
AcDbLine
 10
-361.0
 20
176.0
 11
-360.5
 21
175.5
  0
LINE
  5
60A
330
1F
100
AcDbEntity
  8
GRAVIRANJE
 67
0
100
AcDbLine
 10
-360.5
 20
175.5
 11
-356.0
 21
180.0
  0
LINE
  5
60B
330
1F
100
AcDbEntity
  8
GRAVIRANJE
 67
0
100
AcDbLine
 10
-356.0
 20
180.0
 11
-347.3
 21
180.0
  0
ARC
  5
60C
330
1F
100
AcDbEntity
  8
GRAVIRANJE
 67
0
100
AcDbCircle
 10
-343.9
 20
179.9
 40
3.40147027031
100
AcDbArc
 50
213.95778886
 51
178.31531568
  0
LINE
  5
60D
330
1F
100
AcDbEntity
  8
GRAVIRANJE
 67
0
100
AcDbLine
 10
-346.721347196
 20
178.0
 11
-354.0
 21
178.0
  0
LINE
  5
60E
330
1F
100
AcDbEntity
  8
GRAVIRANJE
 67
0
100
AcDbLine
 10
-354.0
 20
178.0
 11
-355.0
 21
178.0
  0
LINE
  5
60F
330
1F
100
AcDbEntity
  8
GRAVIRANJE
 67
0
100
AcDbLine
 10
-355.0
 20
178.0
 11
-359.0
 21
174.0
  0
LINE
  5
610
330
1F
100
AcDbEntity
  8
GRAVIRANJE
 67
0
100
AcDbLine
 10
-359.0
 20
174.0
 11
-358.0
 21
173.0
  0
LINE
  5
611
330
1F
100
AcDbEntity
  8
GRAVIRANJE
 67
0
100
AcDbLine
 10
-358.0
 20
173.0
 11
-346.5
 21
161.5
  0
LINE
  5
612
330
1F
100
AcDbEntity
  8
GRAVIRANJE
 67
0
100
AcDbLine
 10
-346.5
 20
161.5
 11
-367.5
 21
140.5
  0
LINE
  5
613
330
1F
100
AcDbEntity
  8
GRAVIRANJE
 67
0
100
AcDbLine
 10
-367.5
 20
140.5
 11
-362.5
 21
135.5
  0
LINE
  5
614
330
1F
100
AcDbEntity
  8
GRAVIRANJE
 67
0
100
AcDbLine
 10
-362.5
 20
135.5
 11
-357.0
 21
141.0
  0
LINE
  5
615
330
1F
100
AcDbEntity
  8
GRAVIRANJE
 67
0
100
AcDbLine
 10
-357.0
 20
141.0
 11
-345.780243893
 21
141.0
  0
ARC
  5
616
330
1F
100
AcDbEntity
  8
GRAVIRANJE
 67
0
100
AcDbCircle
 10
-342.5
 20
140.099999999
 40
3.40147027031
100
AcDbArc
 50
198.868035932
 51
164.657321019
  0
LINE
  5
617
330
1F
100
AcDbEntity
  8
GRAVIRANJE
 67
0
100
AcDbLine
 10
-345.718695388
 20
139.0
 11
-356.0
 21
139.0
  0
LINE
  5
618
330
1F
100
AcDbEntity
  8
GRAVIRANJE
 67
0
100
AcDbLine
 10
-356.0
 20
139.0
 11
-361.0
 21
134.0
  0
LINE
  5
619
330
1F
100
AcDbEntity
  8
GRAVIRANJE
 67
0
100
AcDbLine
 10
-361.0
 20
134.0
 11
-356.0
 21
129.0
  0
LINE
  5
61A
330
1F
100
AcDbEntity
  8
GRAVIRANJE
 67
0
100
AcDbLine
 10
-356.0
 20
129.0
 11
-345.082766093
 21
129.0
  0
ARC
  5
61B
330
1F
100
AcDbEntity
  8
GRAVIRANJE
 67
0
100
AcDbCircle
 10
-341.9
 20
127.800000001
 40
3.4014702703
100
AcDbArc
 50
193.60296513
 51
159.342025322
  0
LINE
  5
61C
330
1F
100
AcDbEntity
  8
GRAVIRANJE
 67
0
100
AcDbLine
 10
-345.206055051
 20
127.0
 11
-357.0
 21
127.0
  0
LINE
  5
61D
330
1F
100
AcDbEntity
  8
GRAVIRANJE
 67
0
100
AcDbLine
 10
-357.0
 20
127.0
 11
-369.0
 21
139.0
  0
LINE
  5
61E
330
1F
100
AcDbEntity
  8
GRAVIRANJE
 67
0
100
AcDbLine
 10
-369.0
 20
139.0
 11
-380.712957385
 21
127.287042615
  0
ARC
  5
61F
330
1F
100
AcDbEntity
  8
GRAVIRANJE
 67
0
100
AcDbCircle
 10
-384.1
 20
127.6
 40
3.40147027049
100
AcDbArc
 50
310.148548385
 51
354.720949707
  0
LINE
  5
620
330
1F
100
AcDbEntity
  8
GRAVIRANJE
 67
0
100
AcDbLine
 10
-381.90682878
 20
125.0
 11
-346.633920151
 21
125.0
  0
ARC
  5
621
330
1F
100
AcDbEntity
  8
GRAVIRANJE
 67
0
100
AcDbCircle
 10
-341.9
 20
127.8
 40
5.49999999985
100
AcDbArc
 50
210.60329461
 51
44.8390027488
  0
LINE
  5
622
330
1F
100
AcDbEntity
  8
GRAVIRANJE
 67
0
100
AcDbLine
 10
-338.0
 20
131.678143886
 11
-338.0
 21
180.0
  0
ARC
  5
623
330
1F
100
AcDbEntity
  8
GRAVIRANJE
 67
0
100
AcDbCircle
 10
-343.1
 20
179.9
 40
5.10098029785
100
AcDbArc
 50
1.12330271301
 51
91.1233027151
  0
LINE
  5
624
330
1F
100
AcDbEntity
  8
GRAVIRANJE
 67
0
100
AcDbLine
 10
-343.2
 20
185.0
 11
-388.757359313
 21
185.0
  0
ARC
  5
625
330
1F
100
AcDbEntity
  8
GRAVIRANJE
 67
0
100
AcDbCircle
 10
-393.0
 20
181.5
 40
5.5000000001
100
AcDbArc
 50
39.5211963602
 51
236.944268851
  0
LINE
  5
626
330
1F
100
AcDbEntity
  8
GRAVIRANJE
 67
0
100
AcDbLine
 10
-396.0
 20
176.890227771
 11
-396.0
 21
129.999995816
  0
ARC
  5
627
330
1F
100
AcDbEntity
  8
GRAVIRANJE
 67
0
100
AcDbCircle
 10
-390.99999648
 20
130.00000352
 40
5.00000352022
100
AcDbArc
 50
180.000088284
 51
269.999999998
  0
LINE
  5
628
330
1F
100
AcDbEntity
  8
GRAVIRANJE
 67
0
100
AcDbLine
 10
-390.99999648
 20
125.0
 11
-386.29317122
 21
125.0
  0
ARC
  5
629
330
1F
100
AcDbEntity
  8
GRAVIRANJE
 67
0
100
AcDbCircle
 10
-384.1
 20
127.6
 40
3.40147027009
100
AcDbArc
 50
60.6789946964
 51
229.851451615
  0
LINE
  5
62A
330
1F
100
AcDbEntity
  8
GRAVIRANJE
 67
0
100
AcDbLine
 10
-382.434292765
 20
130.565707235
 11
-362.0
 21
151.0
  0
LINE
  5
62B
330
1F
100
AcDbEntity
  8
GRAVIRANJE
 67
0
100
AcDbLine
 10
-362.0
 20
151.0
 11
-369.0
 21
158.0
  0
LINE
  5
62C
330
1F
100
AcDbEntity
  8
GRAVIRANJE
 67
0
100
AcDbLine
 10
-369.0
 20
158.0
 11
-375.0
 21
152.0
  0
LINE
  5
62D
330
1F
100
AcDbEntity
  8
GRAVIRANJE
 67
0
100
AcDbLine
 10
-375.105888889
 20
110.20034
 11
-375.133
 21
110.393908889
  0
LINE
  5
62E
330
1F
100
AcDbEntity
  8
GRAVIRANJE
 67
0
100
AcDbLine
 10
-375.133
 20
110.394142222
 11
-375.157888889
 21
110.581095556
  0
LINE
  5
62F
330
1F
100
AcDbEntity
  8
GRAVIRANJE
 67
0
100
AcDbLine
 10
-375.157888889
 20
110.581406667
 11
-375.176555556
 21
110.761822222
  0
LWPOLYLINE
  5
630
330
1F
100
AcDbEntity
  8
GRAVIRANJE
 67
0
100
AcDbPolyline
 90
34
 70
1
 10
-345.303111111
 20
430.541126667
 10
-344.241555556
 20
430.714282222
 10
-343.548
 20
431.277051111
 10
-343.310222222
 20
432.034637778
 10
-343.223111111
 20
433.398288889
 10
-343.223111111
 20
448.333333333
 10
-345.581555556
 20
448.333333333
 10
-346.752
 20
448.290044444
 10
-347.531555556
 20
448.138533333
 10
-348.224
 20
447.727266667
 10
-348.808666667
 20
447.077933333
 10
-349.242666667
 20
446.168822222
 10
-349.435333333
 20
444.978355556
 10
-349.998888889
 20
444.978355556
 10
-349.76
 20
449.567111111
 10
-333.786222222
 20
449.567111111
 10
-333.569333333
 20
444.978355556
 10
-334.134
 20
444.978355556
 10
-334.305777778
 20
446.017311111
 10
-334.565777778
 20
446.709955556
 10
-335.085333333
 20
447.424244444
 10
-335.733777778
 20
447.943733333
 10
-336.600444444
 20
448.246755556
 10
-337.705777778
 20
448.333333333
 10
-340.452888889
 20
448.333333333
 10
-340.452888889
 20
433.398288889
 10
-340.367111111
 20
431.926408889
 10
-340.063111111
 20
431.14718
 10
-339.370666667
 20
430.69264
 10
-338.375333333
 20
430.541126667
 10
-337.705777778
 20
430.541126667
 10
-337.705777778
 20
430.0
 10
-345.993333333
 20
430.0
 10
-345.993333333
 20
430.541126667
  0
LWPOLYLINE
  5
631
330
1F
100
AcDbEntity
  8
GRAVIRANJE
 67
0
100
AcDbPolyline
 90
47
 70
1
 10
-324.696222222
 20
438.095244444
 10
-324.716222222
 20
439.935066667
 10
-324.782222222
 20
440.844155556
 10
-324.911111111
 20
441.212111111
 10
-325.126888889
 20
441.493488889
 10
-325.409777778
 20
441.645022222
 10
-325.755555556
 20
441.688311111
 10
-326.233333333
 20
441.623377778
 10
-326.771777778
 20
441.471844444
 10
-326.902888889
 20
441.991333333
 10
-322.921333333
 20
443.614733333
 10
-322.313555556
 20
443.614733333
 10
-322.313555556
 20
440.627711111
 10
-320.626888889
 20
442.857133333
 10
-318.893777778
 20
443.614733333
 10
-318.179333333
 20
443.484844444
 10
-317.596888889
 20
443.116888889
 10
-317.206
 20
442.597422222
 10
-317.077111111
 20
442.012977778
 10
-317.162888889
 20
441.493488889
 10
-317.444888889
 20
441.060622222
 10
-317.856666667
 20
440.757577778
 10
-318.331111111
 20
440.670977778
 10
-318.871777778
 20
440.779222222
 10
-319.479555556
 20
441.168822222
 10
-320.019111111
 20
441.5368
 10
-320.408888889
 20
441.666666667
 10
-320.668666667
 20
441.580088889
 10
-320.972666667
 20
441.363644444
 10
-321.621111111
 20
440.584422222
 10
-322.313555556
 20
439.4156
 10
-322.313555556
 20
433.095222222
 10
-322.249777778
 20
432.121206667
 10
-322.034
 20
431.428564444
 10
-321.773111111
 20
431.060611111
 10
-321.362444444
 20
430.779226667
 10
-320.797555556
 20
430.584411111
 10
-319.999333333
 20
430.519482222
 10
-319.999333333
 20
430.0
 10
-326.771777778
 20
430.0
 10
-326.771777778
 20
430.519482222
 10
-325.884444444
 20
430.606053333
 10
-325.257777778
 20
430.844153333
 10
-324.956222222
 20
431.125537778
 10
-324.759111111
 20
431.580077778
 10
-324.716222222
 20
432.03462
 10
-324.696222222
 20
432.965355556
  0
LWPOLYLINE
  5
632
330
1F
100
AcDbEntity
  8
GRAVIRANJE
 67
0
100
AcDbPolyline
 90
20
 70
1
 10
-310.194666667
 20
438.290044444
 10
-309.500888889
 20
440.086577778
 10
-308.461555556
 20
441.645022222
 10
-307.142444444
 20
442.748933333
 10
-305.627555556
 20
443.398266667
 10
-304.023333333
 20
443.614733333
 10
-301.319111111
 20
443.030311111
 10
-299.197333333
 20
441.320333333
 10
-298.050222222
 20
439.242422222
 10
-297.659333333
 20
436.861466667
 10
-297.877333333
 20
435.064933333
 10
-298.506
 20
433.2684
 10
-299.522222222
 20
431.666664444
 10
-300.842444444
 20
430.519482222
 10
-302.423555556
 20
429.826844444
 10
-304.176222222
 20
429.588755556
 10
-306.859555556
 20
430.194813333
 10
-308.917333333
 20
431.969693333
 10
-310.042666667
 20
434.112555556
 10
-310.410444444
 20
436.471844444
  0
LWPOLYLINE
  5
633
330
1F
100
AcDbEntity
  8
GRAVIRANJE
 67
0
100
AcDbPolyline
 90
48
 70
1
 10
-288.742444444
 20
440.649355556
 10
-288.806222222
 20
441.450222222
 10
-288.958222222
 20
441.948044444
 10
-289.196
 20
442.272733333
 10
-289.541777778
 20
442.510822222
 10
-290.104444444
 20
442.640688889
 10
-290.992888889
 20
442.683977778
 10
-290.992888889
 20
443.225111111
 10
-286.360888889
 20
443.225111111
 10
-286.360888889
 20
434.372311111
 10
-286.188
 20
432.835488889
 10
-285.712444444
 20
431.948051111
 10
-284.996666667
 20
431.515151111
 10
-284.153333333
 20
431.363637778
 10
-283.503777778
 20
431.471848889
 10
-282.746222222
 20
431.753251111
 10
-281.902666667
 20
432.316
 10
-280.885333333
 20
433.246755556
 10
-280.885333333
 20
440.735933333
 10
-280.992222222
 20
441.666666667
 10
-281.294888889
 20
442.251088889
 10
-281.924888889
 20
442.554111111
 10
-283.004888889
 20
442.683977778
 10
-283.004888889
 20
443.225111111
 10
-278.502666667
 20
443.225111111
 10
-278.502666667
 20
435.216466667
 10
-278.482888889
 20
433.354977778
 10
-278.394888889
 20
432.4026
 10
-278.264888889
 20
431.969693333
 10
-278.049111111
 20
431.688308889
 10
-277.789333333
 20
431.536793333
 10
-277.485333333
 20
431.493508889
 10
-277.009777778
 20
431.558435556
 10
-276.488888889
 20
431.731593333
 10
-276.296222222
 20
431.233766667
 10
-280.234666667
 20
429.588755556
 10
-280.885333333
 20
429.588755556
 10
-280.885333333
 20
432.4026
 10
-282.378444444
 20
430.887437778
 10
-283.481777778
 20
430.064942222
 10
-284.413111111
 20
429.718622222
 10
-285.364444444
 20
429.588755556
 10
-286.403777778
 20
429.761911111
 10
-287.291333333
 20
430.238097778
 10
-287.984888889
 20
430.974024444
 10
-288.438666667
 20
431.883124444
 10
-288.676444444
 20
433.116866667
 10
-288.742444444
 20
434.740266667
  0
LWPOLYLINE
  5
634
330
1F
100
AcDbEntity
  8
GRAVIRANJE
 67
0
100
AcDbPolyline
 90
27
 70
1
 10
-267.421111111
 20
446.774911111
 10
-267.508444444
 20
447.727266667
 10
-267.639111111
 20
448.160155556
 10
-267.854888889
 20
448.441555556
 10
-268.114666667
 20
448.571422222
 10
-268.418666667
 20
448.614733333
 10
-268.872222222
 20
448.571422222
 10
-269.436
 20
448.398266667
 10
-269.629111111
 20
448.896111111
 10
-265.667555556
 20
450.519466667
 10
-265.018444444
 20
450.519466667
 10
-265.018444444
 20
440.930733333
 10
-263.027777778
 20
442.943733333
 10
-260.884666667
 20
443.614733333
 10
-258.979777778
 20
443.160155556
 10
-257.334888889
 20
441.861466667
 10
-256.187555556
 20
439.805177778
 10
-255.82
 20
437.1212
 10
-256.403555556
 20
433.939377778
 10
-258.156222222
 20
431.450206667
 10
-260.279111111
 20
430.064942222
 10
-262.616
 20
429.588755556
 10
-263.785333333
 20
429.696977778
 10
-264.976666667
 20
430.02164
 10
-266.165333333
 20
430.541126667
 10
-267.400666667
 20
431.277051111
 10
-267.400666667
 20
444.956733333
  0
LWPOLYLINE
  5
635
330
1F
100
AcDbEntity
  8
GRAVIRANJE
 67
0
100
AcDbPolyline
 90
17
 70
1
 10
-260.647333333
 20
441.212111111
 10
-262.01
 20
441.558444444
 10
-262.789555556
 20
441.450222222
 10
-263.547111111
 20
441.168822222
 10
-264.197111111
 20
440.735933333
 10
-265.018444444
 20
440.021644444
 10
-265.018444444
 20
432.099564444
 10
-264.261111111
 20
431.471848889
 10
-263.502888889
 20
431.017308889
 10
-262.704222222
 20
430.735924444
 10
-261.880666667
 20
430.649355556
 10
-260.624888889
 20
431.017308889
 10
-259.433555556
 20
432.099564444
 10
-258.590666667
 20
433.852822222
 10
-258.308222222
 20
436.298688889
 10
-258.590666667
 20
438.528133333
 10
-259.433555556
 20
440.1948
  0
LWPOLYLINE
  5
636
330
1F
100
AcDbEntity
  8
GRAVIRANJE
 67
0
100
AcDbPolyline
 90
28
 70
1
 10
-246.989555556
 20
446.796533333
 10
-247.075555556
 20
447.727266667
 10
-247.205333333
 20
448.160155556
 10
-247.400222222
 20
448.441555556
 10
-247.638
 20
448.571422222
 10
-247.962888889
 20
448.614733333
 10
-248.396666667
 20
448.571422222
 10
-248.916444444
 20
448.398266667
 10
-249.154222222
 20
448.896111111
 10
-245.214666667
 20
450.519466667
 10
-244.564
 20
450.519466667
 10
-244.564
 20
432.987022222
 10
-244.523333333
 20
431.948051111
 10
-244.393333333
 20
431.341995556
 10
-244.153333333
 20
430.995666667
 10
-243.829555556
 20
430.735924444
 10
-243.31
 20
430.562768889
 10
-242.444444444
 20
430.519482222
 10
-242.444444444
 20
430.0
 10
-248.916444444
 20
430.0
 10
-248.916444444
 20
430.519482222
 10
-248.157777778
 20
430.562768889
 10
-247.683333333
 20
430.714282222
 10
-247.379333333
 20
430.952382222
 10
-247.163555556
 20
431.320353333
 10
-247.011555556
 20
431.948051111
 10
-246.966444444
 20
432.987022222
 10
-246.966444444
 20
444.978355556
  0
LWPOLYLINE
  5
637
330
1F
100
AcDbEntity
  8
GRAVIRANJE
 67
0
100
AcDbPolyline
 90
26
 70
1
 10
-233.396
 20
435.606044444
 10
-232.313777778
 20
433.614711111
 10
-230.733777778
 20
432.359311111
 10
-228.916888889
 20
431.948051111
 10
-227.703555556
 20
432.121206667
 10
-226.664222222
 20
432.662333333
 10
-225.776888889
 20
433.636355556
 10
-225.041333333
 20
435.108222222
 10
-224.608666667
 20
434.826844444
 10
-225.193333333
 20
432.922066667
 10
-226.362444444
 20
431.212124444
 10
-228.007555556
 20
430.0
 10
-230.020222222
 20
429.588755556
 10
-232.226666667
 20
430.064942222
 10
-234.089555556
 20
431.450206667
 10
-235.366888889
 20
433.614711111
 10
-235.778666667
 20
436.428577778
 10
-235.344888889
 20
439.458866667
 10
-234.045555556
 20
441.7316
 10
-232.076888889
 20
443.138511111
 10
-229.674444444
 20
443.614733333
 10
-227.659555556
 20
443.246755556
 10
-226.035555556
 20
442.164488889
 10
-224.955333333
 20
440.432911111
 10
-224.608666667
 20
438.246755556
 10
-233.744
 20
438.246755556
  0
LWPOLYLINE
  5
638
330
1F
100
AcDbEntity
  8
GRAVIRANJE
 67
0
100
AcDbPolyline
 90
11
 70
1
 10
-227.617777778
 20
439.069266667
 10
-227.725555556
 20
440.151511111
 10
-227.919333333
 20
440.8658
 10
-228.375333333
 20
441.580088889
 10
-229.002888889
 20
442.142844444
 10
-229.716222222
 20
442.489177778
 10
-230.495777778
 20
442.597422222
 10
-231.621111111
 20
442.359288889
 10
-232.638444444
 20
441.666666667
 10
-233.374
 20
440.541133333
 10
-233.744
 20
439.069266667
  0
LWPOLYLINE
  5
639
330
1F
100
AcDbEntity
  8
GRAVIRANJE
 67
0
100
AcDbPolyline
 90
102
 70
1
 10
-215.756
 20
439.826822222
 10
-215.840666667
 20
440.844155556
 10
-215.971777778
 20
441.255422222
 10
-216.167777778
 20
441.515155556
 10
-216.427555556
 20
441.645022222
 10
-216.751333333
 20
441.688311111
 10
-217.184
 20
441.623377778
 10
-217.726888889
 20
441.471844444
 10
-217.941555556
 20
441.991333333
 10
-213.959111111
 20
443.614733333
 10
-213.331333333
 20
443.614733333
 10
-213.331333333
 20
440.800866667
 10
-212.183111111
 20
441.926422222
 10
-211.622666667
 20
442.445888889
 10
-210.950888889
 20
442.943733333
 10
-210.236444444
 20
443.311688889
 10
-209.478888889
 20
443.528133333
 10
-208.741111111
 20
443.614733333
 10
-207.595111111
 20
443.419911111
 10
-206.599555556
 20
442.878777778
 10
-205.864222222
 20
441.991333333
 10
-205.410444444
 20
440.800866667
 10
-204.045333333
 20
442.229444444
 10
-202.896888889
 20
443.0736
 10
-201.859777778
 20
443.4632
 10
-200.799333333
 20
443.614733333
 10
-199.804
 20
443.4632
 10
-198.937555556
 20
443.0736
 10
-198.200888889
 20
442.359288889
 10
-197.639333333
 20
441.298688889
 10
-197.401555556
 20
440.216444444
 10
-197.313555556
 20
438.679644444
 10
-197.313555556
 20
432.987022222
 10
-197.271555556
 20
431.948051111
 10
-197.140666667
 20
431.277051111
 10
-196.922666667
 20
430.995666667
 10
-196.6
 20
430.735924444
 10
-196.080222222
 20
430.584411111
 10
-195.322888889
 20
430.519482222
 10
-195.322888889
 20
430.0
 10
-201.859777778
 20
430.0
 10
-201.859777778
 20
430.519482222
 10
-201.578888889
 20
430.519482222
 10
-200.821333333
 20
430.606053333
 10
-200.257555556
 20
430.844153333
 10
-199.956
 20
431.14718
 10
-199.782
 20
431.580077778
 10
-199.738
 20
432.05628
 10
-199.716
 20
432.987022222
 10
-199.716
 20
438.679644444
 10
-199.804
 20
440.043288889
 10
-200.105777778
 20
440.952377778
 10
-200.843333333
 20
441.645022222
 10
-201.902666667
 20
441.883111111
 10
-202.681111111
 20
441.774888889
 10
-203.439777778
 20
441.493488889
 10
-204.305111111
 20
440.952377778
 10
-205.299333333
 20
440.064933333
 10
-205.344444444
 20
439.913422222
 10
-205.299333333
 20
439.285711111
 10
-205.299333333
 20
432.987022222
 10
-205.280666667
 20
431.883124444
 10
-205.149555556
 20
431.298693333
 10
-204.932666667
 20
430.995666667
 10
-204.586888889
 20
430.735924444
 10
-204.022222222
 20
430.584411111
 10
-203.157777778
 20
430.519482222
 10
-203.157777778
 20
430.0
 10
-209.847777778
 20
430.0
 10
-209.847777778
 20
430.519482222
 10
-208.916222222
 20
430.584411111
 10
-208.332666667
 20
430.779226667
 10
-207.983777778
 20
431.103895556
 10
-207.767777778
 20
431.558435556
 10
-207.705111111
 20
432.03462
 10
-207.682
 20
432.987022222
 10
-207.682
 20
438.679644444
 10
-207.813111111
 20
440.064933333
 10
-208.158666667
 20
440.995666667
 10
-208.938222222
 20
441.688311111
 10
-209.932444444
 20
441.926422222
 10
-210.713111111
 20
441.818177778
 10
-211.492666667
 20
441.493488889
 10
-212.550888889
 20
440.822511111
 10
-213.331333333
 20
440.064933333
 10
-213.331333333
 20
432.987022222
 10
-213.287333333
 20
431.904766667
 10
-213.156444444
 20
431.298693333
 10
-212.918444444
 20
430.952382222
 10
-212.618
 20
430.714282222
 10
-212.076222222
 20
430.562768889
 10
-211.188888889
 20
430.519482222
 10
-211.188888889
 20
430.0
 10
-217.726888889
 20
430.0
 10
-217.726888889
 20
430.519482222
 10
-216.947333333
 20
430.562768889
 10
-216.448444444
 20
430.714282222
 10
-216.123777778
 20
430.974024444
 10
-215.907777778
 20
431.341995556
 10
-215.756
 20
431.969693333
 10
-215.711777778
 20
432.987022222
 10
-215.711777778
 20
438.030311111
  0
LWPOLYLINE
  5
63A
330
1F
100
AcDbEntity
  8
GRAVIRANJE
 67
0
100
AcDbPolyline
 90
60
 70
1
 10
-187.420666667
 20
435.757577778
 10
-186.165555556
 20
436.645022222
 10
-184.218888889
 20
437.619044444
 10
-181.296666667
 20
438.766244444
 10
-181.296666667
 20
439.285711111
 10
-181.468
 20
440.952377778
 10
-181.924444444
 20
441.991333333
 10
-182.703333333
 20
442.532466667
 10
-183.763111111
 20
442.727266667
 10
-184.564222222
 20
442.597422222
 10
-185.192222222
 20
442.229444444
 10
-185.604
 20
441.709955556
 10
-185.755333333
 20
441.103911111
 10
-185.712
 20
440.281377778
 10
-185.797333333
 20
439.675333333
 10
-186.057111111
 20
439.242422222
 10
-186.447555556
 20
438.982688889
 10
-186.945111111
 20
438.896111111
 10
-187.420666667
 20
438.982688889
 10
-187.810444444
 20
439.264066667
 10
-188.070444444
 20
439.696977778
 10
-188.158
 20
440.281377778
 10
-187.832666667
 20
441.471844444
 10
-186.880666667
 20
442.575755556
 10
-185.366222222
 20
443.354977778
 10
-183.330888889
 20
443.614733333
 10
-181.727777778
 20
443.4632
 10
-180.431333333
 20
443.008666667
 10
-179.693555556
 20
442.445888889
 10
-179.173333333
 20
441.623377778
 10
-178.980222222
 20
440.670977778
 10
-178.915777778
 20
439.069266667
 10
-178.915777778
 20
434.588755556
 10
-178.915777778
 20
433.0736
 10
-178.849777778
 20
432.272711111
 10
-178.763777778
 20
431.926408889
 10
-178.611777778
 20
431.709951111
 10
-178.438
 20
431.601737778
 10
-178.222666667
 20
431.558435556
 10
-178.006888889
 20
431.580077778
 10
-177.832444444
 20
431.666664444
 10
-177.378666667
 20
432.012977778
 10
-176.663555556
 20
432.705644444
 10
-176.663555556
 20
431.904766667
 10
-178.244222222
 20
430.281382222
 10
-179.737111111
 20
429.740266667
 10
-180.387333333
 20
429.870133333
 10
-180.862444444
 20
430.238097778
 10
-181.188888889
 20
430.887437778
 10
-181.296666667
 20
431.904766667
 10
-182.963111111
 20
430.670997778
 10
-183.850666667
 20
430.086566667
 10
-184.672
 20
429.826844444
 10
-185.516
 20
429.718622222
 10
-186.772888889
 20
429.956733333
 10
-187.768666667
 20
430.670997778
 10
-188.438222222
 20
431.753251111
 10
-188.656222222
 20
433.138511111
 10
-188.548222222
 20
434.025977778
 10
-188.222222222
 20
434.805177778
  0
LWPOLYLINE
  5
63B
330
1F
100
AcDbEntity
  8
GRAVIRANJE
 67
0
100
AcDbPolyline
 90
13
 70
1
 10
-186.079777778
 20
432.857133333
 10
-185.626
 20
432.077922222
 10
-184.954444444
 20
431.580077778
 10
-184.196444444
 20
431.406922222
 10
-182.919111111
 20
431.753251111
 10
-181.296666667
 20
432.835488889
 10
-181.296666667
 20
437.8788
 10
-183.093777778
 20
437.142844444
 10
-184.110444444
 20
436.645022222
 10
-185.106444444
 20
435.995666667
 10
-185.755333333
 20
435.324666667
 10
-186.123777778
 20
434.588755556
 10
-186.231555556
 20
433.809511111
  0
LWPOLYLINE
  5
63C
330
1F
100
AcDbEntity
  8
GRAVIRANJE
 67
0
100
AcDbPolyline
 90
63
 70
1
 10
-167.832444444
 20
446.774911111
 10
-167.898444444
 20
447.727266667
 10
-168.028444444
 20
448.160155556
 10
-168.222222222
 20
448.441555556
 10
-168.504
 20
448.593088889
 10
-168.828888889
 20
448.636377778
 10
-169.217555556
 20
448.571422222
 10
-169.737111111
 20
448.398266667
 10
-169.997111111
 20
448.896111111
 10
-166.056444444
 20
450.519466667
 10
-165.407777778
 20
450.519466667
 10
-165.407777778
 20
437.359311111
 10
-162.032
 20
440.432911111
 10
-161.188666667
 20
441.233755556
 10
-160.798888889
 20
441.666666667
 10
-160.713111111
 20
441.839822222
 10
-160.690888889
 20
442.012977778
 10
-160.753777778
 20
442.294377778
 10
-160.928888889
 20
442.510822222
 10
-161.230444444
 20
442.683977778
 10
-161.708444444
 20
442.748933333
 10
-161.708444444
 20
443.225111111
 10
-155.970888889
 20
443.225111111
 10
-155.970888889
 20
442.748933333
 10
-157.053111111
 20
442.640688889
 10
-157.940666667
 20
442.4026
 10
-158.764222222
 20
441.926422222
 10
-159.651555556
 20
441.212111111
 10
-163.049333333
 20
438.0736
 10
-159.651555556
 20
433.787866667
 10
-158.482222222
 20
432.337666667
 10
-157.746888889
 20
431.536793333
 10
-157.097111111
 20
430.995666667
 10
-156.533555556
 20
430.670997778
 10
-156.057777778
 20
430.562768889
 10
-155.300222222
 20
430.519482222
 10
-155.300222222
 20
430.0
 10
-161.708444444
 20
430.0
 10
-161.708444444
 20
430.519482222
 10
-161.252444444
 20
430.562768889
 10
-160.969555556
 20
430.69264
 10
-160.819777778
 20
430.865795556
 10
-160.776888889
 20
431.103895556
 10
-160.905777778
 20
431.536793333
 10
-161.340666667
 20
432.186151111
 10
-165.407777778
 20
437.359311111
 10
-165.407777778
 20
432.965355556
 10
-165.366
 20
431.904766667
 10
-165.214
 20
431.277051111
 10
-164.998222222
 20
430.93074
 10
-164.715333333
 20
430.714282222
 10
-164.174666667
 20
430.562768889
 10
-163.265333333
 20
430.519482222
 10
-163.265333333
 20
430.0
 10
-169.997111111
 20
430.0
 10
-169.997111111
 20
430.519482222
 10
-169.109555556
 20
430.584411111
 10
-168.482
 20
430.757584444
 10
-168.2
 20
430.974024444
 10
-168.005111111
 20
431.255408889
 10
-167.853333333
 20
431.904766667
 10
-167.790444444
 20
432.900444444
 10
-167.790444444
 20
444.935066667
  0
LWPOLYLINE
  5
63D
330
1F
100
AcDbEntity
  8
GRAVIRANJE
 67
0
100
AcDbPolyline
 90
26
 70
1
 10
-148.200666667
 20
439.458866667
 10
-146.901333333
 20
441.7316
 10
-144.932666667
 20
443.138511111
 10
-142.530222222
 20
443.614733333
 10
-140.515333333
 20
443.246755556
 10
-138.891333333
 20
442.164488889
 10
-137.811111111
 20
440.432911111
 10
-137.464444444
 20
438.246755556
 10
-146.599777778
 20
438.246755556
 10
-146.251777778
 20
435.606044444
 10
-145.169555556
 20
433.614711111
 10
-143.589555556
 20
432.359311111
 10
-141.772666667
 20
431.948051111
 10
-140.559333333
 20
432.121206667
 10
-139.52
 20
432.662333333
 10
-138.632666667
 20
433.636355556
 10
-137.897111111
 20
435.108222222
 10
-137.464444444
 20
434.826844444
 10
-138.049111111
 20
432.922066667
 10
-139.218222222
 20
431.212124444
 10
-140.863333333
 20
430.0
 10
-142.876
 20
429.588755556
 10
-145.082444444
 20
430.064942222
 10
-146.945333333
 20
431.450206667
 10
-148.222666667
 20
433.614711111
 10
-148.634444444
 20
436.428577778
  0
LWPOLYLINE
  5
63E
330
1F
100
AcDbEntity
  8
GRAVIRANJE
 67
0
100
AcDbPolyline
 90
11
 70
1
 10
-140.473555556
 20
439.069266667
 10
-140.581333333
 20
440.151511111
 10
-140.775111111
 20
440.8658
 10
-141.231111111
 20
441.580088889
 10
-141.858666667
 20
442.142844444
 10
-142.572
 20
442.489177778
 10
-143.351555556
 20
442.597422222
 10
-144.476888889
 20
442.359288889
 10
-145.494222222
 20
441.666666667
 10
-146.229777778
 20
440.541133333
 10
-146.599777778
 20
439.069266667
  0
LWPOLYLINE
  5
63F
330
1F
100
AcDbEntity
  8
GRAVIRANJE
 67
0
100
AcDbPolyline
 90
47
 70
1
 10
-128.677333333
 20
440.844155556
 10
-128.806222222
 20
441.212111111
 10
-129.022
 20
441.493488889
 10
-129.304888889
 20
441.645022222
 10
-129.650666667
 20
441.688311111
 10
-130.128444444
 20
441.623377778
 10
-130.666888889
 20
441.471844444
 10
-130.798
 20
441.991333333
 10
-126.816444444
 20
443.614733333
 10
-126.208666667
 20
443.614733333
 10
-126.208666667
 20
440.627711111
 10
-124.522
 20
442.857133333
 10
-122.788888889
 20
443.614733333
 10
-122.074444444
 20
443.484844444
 10
-121.492
 20
443.116888889
 10
-121.101111111
 20
442.597422222
 10
-120.972222222
 20
442.012977778
 10
-121.058
 20
441.493488889
 10
-121.34
 20
441.060622222
 10
-121.751777778
 20
440.757577778
 10
-122.226222222
 20
440.670977778
 10
-122.766888889
 20
440.779222222
 10
-123.374666667
 20
441.168822222
 10
-123.914222222
 20
441.5368
 10
-124.304
 20
441.666666667
 10
-124.563777778
 20
441.580088889
 10
-124.867777778
 20
441.363644444
 10
-125.516222222
 20
440.584422222
 10
-126.208666667
 20
439.4156
 10
-126.208666667
 20
433.095222222
 10
-126.144888889
 20
432.121206667
 10
-125.929111111
 20
431.428564444
 10
-125.668222222
 20
431.060611111
 10
-125.257555556
 20
430.779226667
 10
-124.692666667
 20
430.584411111
 10
-123.894444444
 20
430.519482222
 10
-123.894444444
 20
430.0
 10
-130.666888889
 20
430.0
 10
-130.666888889
 20
430.519482222
 10
-129.779555556
 20
430.606053333
 10
-129.152888889
 20
430.844153333
 10
-128.851333333
 20
431.125537778
 10
-128.654222222
 20
431.580077778
 10
-128.611333333
 20
432.03462
 10
-128.591333333
 20
432.965355556
 10
-128.591333333
 20
438.095244444
 10
-128.611333333
 20
439.935066667
  0
LWPOLYLINE
  5
640
330
1F
100
AcDbEntity
  8
GRAVIRANJE
 67
0
100
AcDbPolyline
 90
16
 70
1
 10
-113.852888889
 20
432.337666667
 10
-113.333111111
 20
432.683977778
 10
-112.704444444
 20
432.7922
 10
-112.098888889
 20
432.683977778
 10
-111.579111111
 20
432.337666667
 10
-111.232222222
 20
431.81818
 10
-111.102444444
 20
431.190482222
 10
-111.232222222
 20
430.584411111
 10
-111.579111111
 20
430.064942222
 10
-112.098888889
 20
429.718622222
 10
-112.704444444
 20
429.588755556
 10
-113.333111111
 20
429.718622222
 10
-113.852888889
 20
430.064942222
 10
-114.198444444
 20
430.584411111
 10
-114.306444444
 20
431.190482222
 10
-114.198444444
 20
431.81818
  0
LWPOLYLINE
  5
641
330
1F
100
AcDbEntity
  8
GRAVIRANJE
 67
0
100
AcDbPolyline
 90
50
 70
1
 10
-101.750444444
 20
447.294377778
 10
-101.966222222
 20
448.051933333
 10
-102.248
 20
448.441555556
 10
-102.701777778
 20
448.7446
 10
-103.416222222
 20
448.961044444
 10
-104.433555556
 20
449.025977778
 10
-104.433555556
 20
449.567111111
 10
-98.8931111111
 20
449.567111111
 10
-91.7926666667
 20
434.264066667
 10
-84.8228888889
 20
449.567111111
 10
-79.2824444444
 20
449.567111111
 10
-79.2824444444
 20
449.025977778
 10
-79.9542222222
 20
449.025977778
 10
-81.0342222222
 20
448.831155556
 10
-81.728
 20
448.2684
 10
-81.9668888889
 20
447.5108
 10
-82.0526666667
 20
446.168822222
 10
-82.0526666667
 20
433.398288889
 10
-81.9437777778
 20
431.926408889
 10
-81.642
 20
431.14718
 10
-80.9495555556
 20
430.69264
 10
-79.9542222222
 20
430.541126667
 10
-79.2824444444
 20
430.541126667
 10
-79.2824444444
 20
430.0
 10
-87.5953333333
 20
430.0
 10
-87.5953333333
 20
430.541126667
 10
-86.9017777778
 20
430.541126667
 10
-85.8393333333
 20
430.714282222
 10
-85.1477777778
 20
431.277051111
 10
-84.91
 20
432.034637778
 10
-84.8228888889
 20
433.398288889
 10
-84.8228888889
 20
446.450222222
 10
-92.3551111111
 20
430.0
 10
-92.832
 20
430.0
 10
-100.408222222
 20
446.450222222
 10
-100.408222222
 20
433.398288889
 10
-100.299111111
 20
431.926408889
 10
-100.019555556
 20
431.14718
 10
-99.326
 20
430.69264
 10
-98.3295555556
 20
430.541126667
 10
-97.6368888889
 20
430.541126667
 10
-97.6368888889
 20
430.0
 10
-104.433555556
 20
430.0
 10
-104.433555556
 20
430.541126667
 10
-103.741111111
 20
430.541126667
 10
-102.680666667
 20
430.714282222
 10
-101.988222222
 20
431.277051111
 10
-101.750444444
 20
432.034637778
 10
-101.663333333
 20
433.398288889
 10
-101.663333333
 20
446.168822222
  0
LWPOLYLINE
  5
642
330
1F
100
AcDbEntity
  8
GRAVIRANJE
 67
0
100
AcDbPolyline
 90
74
 70
1
 10
-68.7857777778
 20
432.640688889
 10
-67.7908888889
 20
433.787866667
 10
-63.1793333333
 20
439.632022222
 10
-67.0328888889
 20
445.259755556
 10
-68.4817777778
 20
447.164511111
 10
-69.6957777778
 20
448.2684
 10
-70.8844444444
 20
448.809533333
 10
-72.2275555556
 20
449.025977778
 10
-72.2275555556
 20
449.567111111
 10
-63.1793333333
 20
449.567111111
 10
-63.1793333333
 20
449.025977778
 10
-64.1526666667
 20
448.917755556
 10
-64.7586666667
 20
448.658022222
 10
-65.084
 20
448.311688889
 10
-65.192
 20
447.922066667
 10
-65.0184444444
 20
447.251088889
 10
-64.5011111111
 20
446.363644444
 10
-61.4902222222
 20
441.883111111
 10
-58.0066666667
 20
446.277066667
 10
-57.5286666667
 20
446.926422222
 10
-57.2711111111
 20
447.337644444
 10
-57.1608888889
 20
447.640711111
 10
-57.1417777778
 20
447.922066667
 10
-57.1835555556
 20
448.225111111
 10
-57.3135555556
 20
448.463222222
 10
-57.5513333333
 20
448.722933333
 10
-57.8551111111
 20
448.896111111
 10
-58.3748888889
 20
448.982688889
 10
-59.2177777778
 20
449.025977778
 10
-59.2177777778
 20
449.567111111
 10
-52.2922222222
 20
449.567111111
 10
-52.2922222222
 20
449.025977778
 10
-53.0282222222
 20
448.9394
 10
-53.6333333333
 20
448.766222222
 10
-54.3693333333
 20
448.376622222
 10
-55.0624444444
 20
447.878777778
 10
-55.842
 20
447.077911111
 10
-56.9017777778
 20
445.800866667
 10
-60.7768888889
 20
440.844155556
 10
-56.578
 20
434.567111111
 10
-55.0624444444
 20
432.445888889
 10
-53.9788888889
 20
431.298693333
 10
-53.0282222222
 20
430.757584444
 10
-51.8362222222
 20
430.541126667
 10
-51.8362222222
 20
430.0
 10
-60.2355555556
 20
430.0
 10
-60.2355555556
 20
430.541126667
 10
-59.5002222222
 20
430.584411111
 10
-59.0024444444
 20
430.714282222
 10
-58.72
 20
430.865795556
 10
-58.5042222222
 20
431.103895556
 10
-58.3522222222
 20
431.363637778
 10
-58.3082222222
 20
431.645022222
 10
-58.3308888889
 20
431.969693333
 10
-58.4386666667
 20
432.316
 10
-58.6764444444
 20
432.748911111
 10
-59.2177777778
 20
433.571444444
 10
-62.5522222222
 20
438.593066667
 10
-66.6437777778
 20
433.354977778
 10
-67.1633333333
 20
432.640688889
 10
-67.4211111111
 20
432.229444444
 10
-67.5311111111
 20
431.948051111
 10
-67.5504444444
 20
431.645022222
 10
-67.4651111111
 20
431.212124444
 10
-67.1633333333
 20
430.887437778
 10
-66.5995555556
 20
430.649355556
 10
-65.6682222222
 20
430.541126667
 10
-65.6682222222
 20
430.0
 10
-72.6157777778
 20
430.0
 10
-72.6157777778
 20
430.541126667
 10
-71.9237777778
 20
430.649355556
 10
-71.3406666667
 20
430.844153333
 10
-70.4726666667
 20
431.277051111
 10
-69.6511111111
 20
431.839822222
  0
LWPOLYLINE
  5
643
330
1F
100
AcDbEntity
  8
GRAVIRANJE
 67
0
100
AcDbPolyline
 90
6
 70
1
 10
-330.692333333
 20
120.027277778
 10
-329.710444444
 20
120.027277778
 10
-329.710444444
 20
111.209277778
 10
-324.874666667
 20
111.209277778
 10
-324.874666667
 20
110.0
 10
-330.692333333
 20
110.0
  0
LWPOLYLINE
  5
644
330
1F
100
AcDbEntity
  8
GRAVIRANJE
 67
0
100
AcDbPolyline
 90
31
 70
1
 10
-320.332111111
 20
116.449722222
 10
-321.541333333
 20
116.449722222
 10
-321.541333333
 20
117.390333333
 10
-320.332111111
 20
117.390333333
 10
-320.332111111
 20
119.542311111
 10
-319.418666667
 20
120.067133333
 10
-319.349555556
 20
120.067133333
 10
-319.349555556
 20
117.390333333
 10
-317.811888889
 20
117.390333333
 10
-317.811888889
 20
116.449722222
 10
-319.349555556
 20
116.449722222
 10
-319.349555556
 20
111.391955556
 10
-319.342333333
 20
111.3177
 10
-319.330888889
 20
111.253255556
 10
-319.312777778
 20
111.198766667
 10
-319.286
 20
111.154177778
 10
-319.253666667
 20
111.119533333
 10
-319.210111111
 20
111.094786667
 10
-319.157111111
 20
111.079922222
 10
-319.101111111
 20
111.074941111
 10
-318.017666667
 20
111.074941111
 10
-318.017666667
 20
110.0
 10
-319.286
 20
110.0
 10
-319.530777778
 20
110.021871111
 10
-319.749
 20
110.087483333
 10
-319.924888889
 20
110.196915556
 10
-320.070555556
 20
110.350088889
 10
-320.183888889
 20
110.547005556
 10
-320.265777778
 20
110.787662222
 10
-320.313666667
 20
111.072138889
 10
-320.332111111
 20
111.400355556
  0
LWPOLYLINE
  5
645
330
1F
100
AcDbEntity
  8
GRAVIRANJE
 67
0
100
AcDbPolyline
 90
4
 70
1
 10
-305.076777778
 20
111.881155556
 10
-305.076777778
 20
110.268725556
 10
-306.425888889
 20
110.268725556
 10
-306.425888889
 20
111.881155556
  0
LWPOLYLINE
  5
646
330
1F
100
AcDbEntity
  8
GRAVIRANJE
 67
0
100
AcDbPolyline
 90
57
 70
1
 10
-375.187222222
 20
112.147777778
 10
-375.187222222
 20
113.999566667
 10
-375.415666667
 20
113.934033333
 10
-375.633666667
 20
113.868733333
 10
-375.834777778
 20
113.803655556
 10
-376.021555556
 20
113.738666667
 10
-376.192777778
 20
113.674
 10
-376.351555556
 20
113.609466667
 10
-376.494777778
 20
113.5451
 10
-376.627444444
 20
113.480966667
 10
-376.745666667
 20
113.414966667
 10
-376.859
 20
113.345077778
 10
-376.959888889
 20
113.271288889
 10
-377.059555556
 20
113.193611111
 10
-377.147888889
 20
113.112044444
 10
-377.229555556
 20
113.0265
 10
-377.298
 20
112.937077778
 10
-377.364666667
 20
112.843755556
 10
-377.425666667
 20
112.746077778
 10
-377.475444444
 20
112.643488889
 10
-377.519
 20
112.536011111
 10
-377.552666667
 20
112.423622222
 10
-377.582555556
 20
112.306322222
 10
-377.601222222
 20
112.1842
 10
-377.612444444
 20
112.057188889
 10
-377.618666667
 20
111.925255556
 10
-377.612444444
 20
111.783911111
 10
-377.598777778
 20
111.654788889
 10
-377.576333333
 20
111.537966667
 10
-377.541111111
 20
111.433433333
 10
-377.500333333
 20
111.341122222
 10
-377.450555556
 20
111.261111111
 10
-377.387
 20
111.1934
 10
-377.321
 20
111.137911111
 10
-377.246333333
 20
111.091673333
 10
-377.166666667
 20
111.051588889
 10
-377.089666667
 20
111.017656667
 10
-377.009666667
 20
110.989871111
 10
-376.924444444
 20
110.968311111
 10
-376.841555556
 20
110.9529
 10
-376.754777778
 20
110.943637778
 10
-376.661
 20
110.9406
 10
-376.569444444
 20
110.947296667
 10
-376.481666667
 20
110.960138889
 10
-376.384555556
 20
110.979052222
 10
-376.291111111
 20
111.004113333
 10
-376.197777778
 20
111.035246667
 10
-376.104333333
 20
111.072451111
 10
-376.006333333
 20
111.1158
 10
-375.911666667
 20
111.165222222
 10
-375.815444444
 20
111.226477778
 10
-375.722
 20
111.305322222
 10
-375.624888889
 20
111.401833333
 10
-375.537777778
 20
111.515855556
 10
-375.448666667
 20
111.647477778
 10
-375.360888889
 20
111.796677778
 10
-375.272444444
 20
111.9634
  0
LWPOLYLINE
  5
647
330
1F
100
AcDbEntity
  8
GRAVIRANJE
 67
0
100
AcDbPolyline
 90
53
 70
1
 10
-359.369666667
 20
119.983155556
 10
-359.369666667
 20
116.372044444
 10
-359.219
 20
116.547722222
 10
-359.056222222
 20
116.699955556
 10
-358.894
 20
116.828766667
 10
-358.717777778
 20
116.934155556
 10
-358.541888889
 20
117.016111111
 10
-358.359777778
 20
117.074722222
 10
-358.166666667
 20
117.109822222
 10
-357.970555556
 20
117.121566667
 10
-357.752
 20
117.1078
 10
-357.539111111
 20
117.066544444
 10
-357.329222222
 20
116.997666667
 10
-357.117555556
 20
116.901388889
 10
-356.917666667
 20
116.777477778
 10
-356.715888889
 20
116.626088889
 10
-356.524111111
 20
116.447233333
 10
-356.328666667
 20
116.240822222
 10
-356.149333333
 20
116.008488889
 10
-355.998666667
 20
115.752033333
 10
-355.865333333
 20
115.471455556
 10
-355.758222222
 20
115.166655556
 10
-355.673
 20
114.837666667
 10
-355.612555556
 20
114.484455556
 10
-355.579555556
 20
114.107133333
 10
-355.569333333
 20
113.705588889
 10
-355.579555556
 20
113.343666667
 10
-355.607555556
 20
112.993588889
 10
-355.660222222
 20
112.6554
 10
-355.733333333
 20
112.329133333
 10
-355.830777778
 20
112.014766667
 10
-355.945111111
 20
111.712311111
 10
-356.077666667
 20
111.421833333
 10
-356.237666667
 20
111.1432
 10
-356.410777778
 20
110.886743333
 10
-356.597888889
 20
110.662742222
 10
-356.793111111
 20
110.471118889
 10
-357.011333333
 20
110.312028889
 10
-357.234
 20
110.185315556
 10
-357.472444444
 20
110.091141111
 10
-357.727111111
 20
110.029342222
 10
-357.991111111
 20
110.0
 10
-358.184111111
 20
110.008172222
 10
-358.367222222
 20
110.032767778
 10
-358.552777778
 20
110.073782222
 10
-358.725888889
 20
110.131225556
 10
-358.894
 20
110.20501
 10
-359.056222222
 20
110.295217778
 10
-359.219
 20
110.401847778
 10
-359.369666667
 20
110.524897778
 10
-359.369666667
 20
109.974782222
 10
-360.352222222
 20
109.974782222
 10
-360.352222222
 20
119.983155556
  0
LWPOLYLINE
  5
648
330
1F
100
AcDbEntity
  8
GRAVIRANJE
 67
0
100
AcDbPolyline
 90
16
 70
1
 10
-382.979666667
 20
109.976884444
 10
-382.979666667
 20
117.377722222
 10
-383.044
 20
117.377722222
 10
-385.529555556
 20
110.016811111
 10
-386.184333333
 20
110.016811111
 10
-388.954111111
 20
117.377722222
 10
-389.017555556
 20
117.377722222
 10
-389.017555556
 20
109.976884444
 10
-390.0
 20
109.976884444
 10
-390.0
 20
119.976922222
 10
-388.744888889
 20
119.976922222
 10
-385.909222222
 20
112.418633333
 10
-385.804666667
 20
112.418633333
 10
-383.250666667
 20
119.976922222
 10
-381.997888889
 20
119.976922222
 10
-381.997888889
 20
109.976884444
  0
LWPOLYLINE
  5
649
330
1F
100
AcDbEntity
  8
GRAVIRANJE
 67
0
100
AcDbPolyline
 90
65
 70
1
 10
-357.643666667
 20
115.975722222
 10
-357.779444444
 20
116.015111111
 10
-357.918888889
 20
116.038688889
 10
-358.062111111
 20
116.046633333
 10
-358.188555556
 20
116.036977778
 10
-358.306777778
 20
116.008188889
 10
-358.420777778
 20
115.960077778
 10
-358.530333333
 20
115.892833333
 10
-358.636777778
 20
115.806288889
 10
-358.736444444
 20
115.700588889
 10
-358.829888889
 20
115.575588889
 10
-358.919222222
 20
115.431444444
 10
-359.003555556
 20
115.275777778
 10
-359.078333333
 20
115.116533333
 10
-359.144555556
 20
114.953555556
 10
-359.208111111
 20
114.786911111
 10
-359.257666667
 20
114.616544444
 10
-359.301222222
 20
114.442588889
 10
-359.342555556
 20
114.2649
 10
-359.369666667
 20
114.083544444
 10
-359.369666667
 20
111.965111111
 10
-359.321111111
 20
111.857311111
 10
-359.267555556
 20
111.756522222
 10
-359.208111111
 20
111.662577778
 10
-359.146777778
 20
111.575633333
 10
-359.080777778
 20
111.4957
 10
-359.012333333
 20
111.422688889
 10
-358.937555556
 20
111.356622222
 10
-358.854777778
 20
111.297466667
 10
-358.773444444
 20
111.245311111
 10
-358.679777778
 20
111.2001
 10
-358.580111111
 20
111.161877778
 10
-358.474888889
 20
111.130588889
 10
-358.362222222
 20
111.10623
 10
-358.238333333
 20
111.088873333
 10
-358.111888889
 20
111.078443333
 10
-357.979888889
 20
111.074941111
 10
-357.831777778
 20
111.098368889
 10
-357.690333333
 20
111.142422222
 10
-357.556555556
 20
111.207177778
 10
-357.428888889
 20
111.292477778
 10
-357.308666667
 20
111.398488889
 10
-357.197888889
 20
111.525122222
 10
-357.092666667
 20
111.6723
 10
-356.991111111
 20
111.840188889
 10
-356.904
 20
112.025277778
 10
-356.829222222
 20
112.224133333
 10
-356.765777778
 20
112.4367
 10
-356.710888889
 20
112.662955556
 10
-356.669222222
 20
112.902988889
 10
-356.638111111
 20
113.1568
 10
-356.622555556
 20
113.424388889
 10
-356.615
 20
113.705588889
 10
-356.625666667
 20
114.025955556
 10
-356.642444444
 20
114.320388889
 10
-356.678555556
 20
114.588911111
 10
-356.724666667
 20
114.831511111
 10
-356.783444444
 20
115.0482
 10
-356.856
 20
115.238966667
 10
-356.942555556
 20
115.403811111
 10
-357.042777778
 20
115.542744444
 10
-357.156777778
 20
115.660811111
 10
-357.270444444
 20
115.763166667
 10
-357.390888889
 20
115.849788889
 10
-357.515444444
 20
115.920622222
  0
LWPOLYLINE
  5
64A
330
1F
100
AcDbEntity
  8
GRAVIRANJE
 67
0
100
AcDbPolyline
 90
4
 70
1
 10
-351.251111111
 20
117.142511111
 10
-351.251111111
 20
109.976884444
 10
-352.236111111
 20
109.976884444
 10
-352.236111111
 20
117.142511111
  0
LWPOLYLINE
  5
64B
330
1F
100
AcDbEntity
  8
GRAVIRANJE
 67
0
100
AcDbPolyline
 90
4
 70
1
 10
-352.301777778
 20
118.599611111
 10
-352.301777778
 20
119.808966667
 10
-351.251111111
 20
119.808966667
 10
-351.251111111
 20
118.599611111
  0
LWPOLYLINE
  5
64C
330
1F
100
AcDbEntity
  8
GRAVIRANJE
 67
0
100
AcDbPolyline
 90
12
 70
1
 10
-346.398888889
 20
117.142511111
 10
-344.598111111
 20
114.503455556
 10
-343.062666667
 20
117.142511111
 10
-341.811777778
 20
117.142511111
 10
-343.931888889
 20
113.506188889
 10
-341.525333333
 20
109.976884444
 10
-342.876222222
 20
109.976884444
 10
-344.862222222
 20
112.903611111
 10
-346.667888889
 20
109.976884444
 10
-347.918444444
 20
109.976884444
 10
-345.516555556
 20
113.861022222
 10
-347.755
 20
117.142511111
  0
LWPOLYLINE
  5
64D
330
1F
100
AcDbEntity
  8
GRAVIRANJE
 67
0
100
AcDbPolyline
 90
53
 70
1
 10
-314.305777778
 20
112.344855556
 10
-314.379333333
 20
112.669022222
 10
-314.432222222
 20
113.003777778
 10
-314.467666667
 20
113.349355556
 10
-314.478888889
 20
113.705588889
 10
-314.467666667
 20
114.0658
 10
-314.432222222
 20
114.410288889
 10
-314.369333333
 20
114.7392
 10
-314.289
 20
115.052477778
 10
-314.181333333
 20
115.350111111
 10
-314.052444444
 20
115.632177778
 10
-313.898555556
 20
115.898677778
 10
-313.721777778
 20
116.149444444
 10
-313.529333333
 20
116.377344444
 10
-313.336333333
 20
116.574722222
 10
-313.141444444
 20
116.741833333
 10
-312.937222222
 20
116.8785
 10
-312.736666667
 20
116.984822222
 10
-312.532444444
 20
117.060788889
 10
-312.327333333
 20
117.1064
 10
-312.115333333
 20
117.121566667
 10
-311.924777778
 20
117.109822222
 10
-311.738
 20
117.074722222
 10
-311.555888889
 20
117.016111111
 10
-311.383111111
 20
116.934155556
 10
-311.208666667
 20
116.828766667
 10
-311.046777778
 20
116.699955556
 10
-310.892444444
 20
116.547722222
 10
-310.744222222
 20
116.372044444
 10
-310.744222222
 20
119.983155556
 10
-309.759111111
 20
119.983155556
 10
-309.759111111
 20
109.974782222
 10
-310.744222222
 20
109.974782222
 10
-310.744222222
 20
110.524897778
 10
-310.892444444
 20
110.401847778
 10
-311.046777778
 20
110.295217778
 10
-311.208666667
 20
110.20501
 10
-311.374666667
 20
110.131225556
 10
-311.547444444
 20
110.073782222
 10
-311.726777778
 20
110.032767778
 10
-311.908555556
 20
110.008172222
 10
-312.097222222
 20
110.0
 10
-312.340111111
 20
110.029495556
 10
-312.568555556
 20
110.09192
 10
-312.794
 20
110.187108889
 10
-313.009444444
 20
110.31514
 10
-313.218
 20
110.4761
 10
-313.411
 20
110.669824444
 10
-313.601
 20
110.896394444
 10
-313.782777778
 20
111.155811111
 10
-313.942222222
 20
111.436933333
 10
-314.089111111
 20
111.728888889
 10
-314.203666667
 20
112.0315
  0
LWPOLYLINE
  5
64E
330
1F
100
AcDbEntity
  8
GRAVIRANJE
 67
0
100
AcDbPolyline
 90
65
 70
1
 10
-313.332
 20
112.68
 10
-313.273444444
 20
112.454744444
 10
-313.207444444
 20
112.242033333
 10
-313.122777778
 20
112.0417
 10
-313.031555556
 20
111.853888889
 10
-312.93
 20
111.682811111
 10
-312.825111111
 20
111.532755556
 10
-312.713666667
 20
111.403777778
 10
-312.595333333
 20
111.295911111
 10
-312.481444444
 20
111.209044444
 10
-312.356888889
 20
111.143277778
 10
-312.230222222
 20
111.098602222
 10
-312.100333333
 20
111.074941111
 10
-311.968333333
 20
111.078443333
 10
-311.845111111
 20
111.088873333
 10
-311.726777778
 20
111.10623
 10
-311.613444444
 20
111.130588889
 10
-311.512
 20
111.161877778
 10
-311.415444444
 20
111.2001
 10
-311.327
 20
111.245311111
 10
-311.244222222
 20
111.297466667
 10
-311.167888889
 20
111.356622222
 10
-311.092888889
 20
111.422688889
 10
-311.021888889
 20
111.4957
 10
-310.957777778
 20
111.575633333
 10
-310.898666667
 20
111.662577778
 10
-310.842555556
 20
111.756522222
 10
-310.787777778
 20
111.857311111
 10
-310.744222222
 20
111.965111111
 10
-310.744222222
 20
114.083544444
 10
-310.769444444
 20
114.2649
 10
-310.807666667
 20
114.442588889
 10
-310.851666667
 20
114.616544444
 10
-310.903555556
 20
114.786911111
 10
-310.957777778
 20
114.953555556
 10
-311.028111111
 20
115.116533333
 10
-311.099111111
 20
115.275777778
 10
-311.181333333
 20
115.431444444
 10
-311.269111111
 20
115.575588889
 10
-311.360666667
 20
115.700588889
 10
-311.455888889
 20
115.806288889
 10
-311.561111111
 20
115.892833333
 10
-311.667555556
 20
115.960077778
 10
-311.776555556
 20
116.008188889
 10
-311.897333333
 20
116.036977778
 10
-312.020666667
 20
116.046633333
 10
-312.153333333
 20
116.037288889
 10
-312.285888889
 20
116.009433333
 10
-312.417888889
 20
115.962877778
 10
-312.541222222
 20
115.897822222
 10
-312.659555556
 20
115.814066667
 10
-312.777777778
 20
115.7118
 10
-312.891111111
 20
115.590844444
 10
-313.000111111
 20
115.451366667
 10
-313.099777778
 20
115.293911111
 10
-313.185
 20
115.119022222
 10
-313.265
 20
114.926855556
 10
-313.323222222
 20
114.717333333
 10
-313.369333333
 20
114.490455556
 10
-313.400444444
 20
114.246211111
 10
-313.425333333
 20
113.984622222
 10
-313.43
 20
113.705588889
 10
-313.425333333
 20
113.430533333
 10
-313.404777778
 20
113.167922222
 10
-313.375555556
 20
112.9177
  0
LWPOLYLINE
  5
64F
330
1F
100
AcDbEntity
  8
GRAVIRANJE
 67
0
100
AcDbPolyline
 90
134
 70
0
 10
-375.176555556
 20
110.762133333
 10
-375.245444444
 20
110.679242222
 10
-375.317333333
 20
110.600553333
 10
-375.394555556
 20
110.526224444
 10
-375.473666667
 20
110.456096667
 10
-375.562666667
 20
110.390251111
 10
-375.649777778
 20
110.328685556
 10
-375.749444444
 20
110.271401111
 10
-375.845333333
 20
110.218316667
 10
-375.952444444
 20
110.170374444
 10
-376.054555556
 20
110.128345556
 10
-376.156666667
 20
110.092153333
 10
-376.261222222
 20
110.061954444
 10
-376.365888889
 20
110.037593333
 10
-376.468333333
 20
110.019146667
 10
-376.569444444
 20
110.006615556
 10
-376.671
 20
110.0
 10
-376.902666667
 20
110.007394444
 10
-377.114333333
 20
110.029495556
 10
-377.321
 20
110.066388889
 10
-377.509666667
 20
110.118068889
 10
-377.687111111
 20
110.184537778
 10
-377.849
 20
110.265716667
 10
-378.001
 20
110.361686667
 10
-378.135444444
 20
110.472361111
 10
-378.26
 20
110.598063333
 10
-378.369
 20
110.739014444
 10
-378.458333333
 20
110.895148889
 10
-378.532777778
 20
111.066535556
 10
-378.592777778
 20
111.2531
 10
-378.633555556
 20
111.454922222
 10
-378.658555556
 20
111.671988889
 10
-378.664777778
 20
111.904244444
 10
-378.658555556
 20
112.064033333
 10
-378.644777778
 20
112.222266667
 10
-378.611777778
 20
112.378866667
 10
-378.576333333
 20
112.533833333
 10
-378.521555556
 20
112.687233333
 10
-378.458333333
 20
112.839011111
 10
-378.383333333
 20
112.989144444
 10
-378.300444444
 20
113.137733333
 10
-378.204
 20
113.282811111
 10
-378.094333333
 20
113.422522222
 10
-377.978555556
 20
113.556933333
 10
-377.849
 20
113.685977778
 10
-377.707111111
 20
113.809655556
 10
-377.559777778
 20
113.927966667
 10
-377.397888889
 20
114.040966667
 10
-377.223333333
 20
114.148611111
 10
-377.036444444
 20
114.252366667
 10
-376.834111111
 20
114.3537
 10
-376.607111111
 20
114.452633333
 10
-376.363444444
 20
114.549144444
 10
-376.099333333
 20
114.643155556
 10
-375.815444444
 20
114.734766667
 10
-375.513111111
 20
114.823966667
 10
-375.187222222
 20
114.910744444
 10
-375.187222222
 20
115.093422222
 10
-375.196888889
 20
115.216166667
 10
-375.205888889
 20
115.334622222
 10
-375.223888889
 20
115.448722222
 10
-375.251333333
 20
115.558466667
 10
-375.286222222
 20
115.663855556
 10
-375.333777778
 20
115.765033333
 10
-375.383333333
 20
115.861777778
 10
-375.440555556
 20
115.954244444
 10
-375.510333333
 20
116.038844444
 10
-375.585666667
 20
116.112166667
 10
-375.669777778
 20
116.174277778
 10
-375.768444444
 20
116.225022222
 10
-375.872111111
 20
116.264566667
 10
-375.988555556
 20
116.292733333
 10
-376.108777778
 20
116.3097
 10
-376.245111111
 20
116.315311111
 10
-376.374555556
 20
116.310711111
 10
-376.490444444
 20
116.296866667
 10
-376.597555556
 20
116.273822222
 10
-376.702111111
 20
116.2416
 10
-376.793
 20
116.200122222
 10
-376.877666667
 20
116.149366667
 10
-376.949333333
 20
116.089511111
 10
-377.020888889
 20
116.020322222
 10
-377.078222222
 20
115.9428
 10
-377.134222222
 20
115.857577778
 10
-377.184
 20
115.764722222
 10
-377.229555556
 20
115.664244444
 10
-377.266222222
 20
115.556055556
 10
-377.298
 20
115.440322222
 10
-377.326333333
 20
115.316877778
 10
-377.354
 20
115.185811111
 10
-378.378333333
 20
115.185811111
 10
-378.344333333
 20
115.400233333
 10
-378.300444444
 20
115.603688889
 10
-378.235111111
 20
115.796088889
 10
-378.155444444
 20
115.9776
 10
-378.057666667
 20
116.148044444
 10
-377.939666667
 20
116.307522222
 10
-377.810444444
 20
116.456033333
 10
-377.659111111
 20
116.593477778
 10
-377.500333333
 20
116.717233333
 10
-377.334777778
 20
116.824566667
 10
-377.161
 20
116.915322222
 10
-376.991
 20
116.989566667
 10
-376.809222222
 20
117.047322222
 10
-376.627444444
 20
117.088566667
 10
-376.440555556
 20
117.113322222
 10
-376.245111111
 20
117.121566667
 10
-376.027111111
 20
117.112
 10
-375.815444444
 20
117.083355556
 10
-375.615
 20
117.035644444
 10
-375.423777778
 20
116.968788889
 10
-375.248777778
 20
116.882866667
 10
-375.080666667
 20
116.777866667
 10
-374.921333333
 20
116.6538
 10
-374.778111111
 20
116.510588889
 10
-374.642333333
 20
116.349088889
 10
-374.524333333
 20
116.170233333
 10
-374.430666667
 20
115.973855556
 10
-374.348444444
 20
115.759977778
 10
-374.287444444
 20
115.528733333
 10
-374.240777778
 20
115.279988889
 10
-374.215888889
 20
115.0138
 10
-374.205222222
 20
114.730177778
 10
-374.205222222
 20
111.496944444
 10
-374.205222222
 20
111.295366667
 10
-374.190888889
 20
111.097898889
 10
-374.171666667
 20
110.904566667
 10
-374.150444444
 20
110.715431111
 10
-374.116222222
 20
110.530346667
 10
-374.075777778
 20
110.349388889
 10
-374.028444444
 20
110.172632222
 10
-373.971111111
 20
110.0
 10
-375.074444444
 20
110.0
 10
-375.108444444
 20
110.200028889
  0
LWPOLYLINE
  5
650
330
1F
100
AcDbEntity
  8
GRAVIRANJE
 67
0
100
AcDbPolyline
 90
123
 70
1
 10
-367.970888889
 20
115.830411111
 10
-368.034111111
 20
115.887777778
 10
-368.106333333
 20
115.936266667
 10
-368.183555556
 20
115.975955556
 10
-368.263222222
 20
116.006855556
 10
-368.347555556
 20
116.028966667
 10
-368.438777778
 20
116.0422
 10
-368.538444444
 20
116.046633333
 10
-368.664222222
 20
116.037911111
 10
-368.78
 20
116.011766667
 10
-368.890888889
 20
115.968177778
 10
-368.998
 20
115.907233333
 10
-369.091333333
 20
115.828855556
 10
-369.175444444
 20
115.733044444
 10
-369.255777778
 20
115.6198
 10
-369.328333333
 20
115.4892
 10
-369.391444444
 20
115.345988889
 10
-369.443111111
 20
115.195144444
 10
-369.496111111
 20
115.036677778
 10
-369.542111111
 20
114.870588889
 10
-369.580111111
 20
114.696866667
 10
-369.608444444
 20
114.515433333
 10
-369.633111111
 20
114.326377778
 10
-369.655222222
 20
114.1297
 10
-369.655222222
 20
109.97058
 10
-370.638
 20
109.97058
 10
-370.638
 20
117.148811111
 10
-369.655222222
 20
117.148811111
 10
-369.655222222
 20
116.2985
 10
-369.514777778
 20
116.491444444
 10
-369.368444444
 20
116.658633333
 10
-369.220888889
 20
116.800044444
 10
-369.069
 20
116.915788889
 10
-368.912
 20
117.005833333
 10
-368.750111111
 20
117.070122222
 10
-368.582
 20
117.108655556
 10
-368.406444444
 20
117.121566667
 10
-368.263222222
 20
117.115811111
 10
-368.122555556
 20
117.098611111
 10
-367.988
 20
117.069888889
 10
-367.857222222
 20
117.029655556
 10
-367.736777778
 20
116.978055556
 10
-367.618111111
 20
116.914855556
 10
-367.508555556
 20
116.840211111
 10
-367.406444444
 20
116.754122222
 10
-367.307444444
 20
116.6619
 10
-367.217111111
 20
116.568888889
 10
-367.139333333
 20
116.475022222
 10
-367.064555556
 20
116.380455556
 10
-367.001666667
 20
116.285033333
 10
-366.942
 20
116.188833333
 10
-366.896444444
 20
116.091855556
 10
-366.852888889
 20
115.9941
 10
-366.678555556
 20
116.258333333
 10
-366.509777778
 20
116.4874
 10
-366.333
 20
116.681122222
 10
-366.151444444
 20
116.839666667
 10
-365.973111111
 20
116.963033333
 10
-365.793777778
 20
117.051055556
 10
-365.609777778
 20
117.1039
 10
-365.427
 20
117.121566667
 10
-365.279444444
 20
117.113477778
 10
-365.127555556
 20
117.0892
 10
-364.981777778
 20
117.0488
 10
-364.835444444
 20
116.992144444
 10
-364.686
 20
116.919366667
 10
-364.547222222
 20
116.8304
 10
-364.399666667
 20
116.725333333
 10
-364.260777778
 20
116.603988889
 10
-364.122555556
 20
116.459144444
 10
-364.013
 20
116.283244444
 10
-363.908
 20
116.076366667
 10
-363.831111111
 20
115.838511111
 10
-363.767666667
 20
115.5696
 10
-363.720888889
 20
115.269711111
 10
-363.692888889
 20
114.938844444
 10
-363.685444444
 20
114.576922222
 10
-363.685444444
 20
109.97058
 10
-364.670444444
 20
109.97058
 10
-364.670444444
 20
114.576922222
 10
-364.675444444
 20
114.793455556
 10
-364.686
 20
114.990444444
 10
-364.700333333
 20
115.168066667
 10
-364.727777778
 20
115.326222222
 10
-364.760777778
 20
115.464911111
 10
-364.800333333
 20
115.584077778
 10
-364.849777778
 20
115.683855556
 10
-364.902111111
 20
115.764177778
 10
-364.965666667
 20
115.830411111
 10
-365.027888889
 20
115.887777778
 10
-365.102666667
 20
115.936266667
 10
-365.179777778
 20
115.975955556
 10
-365.265111111
 20
116.006855556
 10
-365.355444444
 20
116.028966667
 10
-365.445666667
 20
116.0422
 10
-365.551555556
 20
116.046633333
 10
-365.680444444
 20
116.037911111
 10
-365.805
 20
116.011766667
 10
-365.917
 20
115.968177778
 10
-366.021666667
 20
115.907233333
 10
-366.121555556
 20
115.828855556
 10
-366.209666667
 20
115.733044444
 10
-366.291888889
 20
115.6198
 10
-366.362888889
 20
115.4892
 10
-366.432666667
 20
115.345988889
 10
-366.487444444
 20
115.195144444
 10
-366.539666667
 20
115.036677778
 10
-366.587
 20
114.870588889
 10
-366.624444444
 20
114.696866667
 10
-366.655555556
 20
114.515433333
 10
-366.684777778
 20
114.326377778
 10
-366.701555556
 20
114.1297
 10
-366.701555556
 20
109.97058
 10
-367.685666667
 20
109.97058
 10
-367.685666667
 20
114.576922222
 10
-367.690333333
 20
114.793455556
 10
-367.701555556
 20
114.990444444
 10
-367.720222222
 20
115.168066667
 10
-367.745222222
 20
115.326222222
 10
-367.772555556
 20
115.464911111
 10
-367.811222222
 20
115.584077778
 10
-367.857222222
 20
115.683855556
 10
-367.910777778
 20
115.764177778
  0
LWPOLYLINE
  5
651
330
1F
100
AcDbEntity
  8
GRAVIRANJE
 67
0
100
AcDbPolyline
 90
18
 70
1
 10
-303.029111111
 20
442.316022222
 10
-304.457111111
 20
442.662333333
 10
-305.237777778
 20
442.554111111
 10
-305.995333333
 20
442.2078
 10
-306.707555556
 20
441.580088889
 10
-307.250444444
 20
440.627711111
 10
-307.618222222
 20
439.307355556
 10
-307.726
 20
437.683977778
 10
-307.444222222
 20
435.0
 10
-306.578888889
 20
432.705644444
 10
-305.257555556
 20
431.14718
 10
-303.548666667
 20
430.627711111
 10
-302.271555556
 20
430.909097778
 10
-301.253111111
 20
431.774895556
 10
-300.562666667
 20
433.333333333
 10
-300.343555556
 20
435.735933333
 10
-300.712444444
 20
438.896111111
 10
-301.859777778
 20
441.277066667
  0
LWPOLYLINE
  5
652
330
1F
100
AcDbEntity
  8
IZREZ
 67
0
100
AcDbPolyline
 90
710
 70
1
 10
-4.0
 20
230.0
 10
-10.0
 20
230.0
 10
-10.0
 20
248.5
 10
-17.0
 20
248.5
 10
-17.0
 20
247.1
 10
-19.0
 20
247.1
 10
-19.0
 20
248.5
 10
-25.0
 20
248.5
 10
-25.0
 20
250.0
 10
-25.0
 20
251.5
 10
-19.0
 20
251.5
 10
-19.0
 20
252.9
 10
-17.0
 20
252.9
 10
-17.0
 20
251.5
 10
-10.0
 20
251.5
 10
-10.0
 20
270.0
 10
-4.0
 20
270.0
 10
-4.0
 20
280.0
 10
-10.0
 20
280.0
 10
-10.0
 20
370.0
 10
-4.0
 20
370.0
 10
-4.0
 20
380.0
 10
-10.0
 20
380.0
 10
-10.0
 20
398.5
 10
-17.0
 20
398.5
 10
-17.0
 20
397.1
 10
-19.0
 20
397.1
 10
-19.0
 20
398.5
 10
-25.0
 20
398.5
 10
-25.0
 20
400.0
 10
-25.0
 20
401.5
 10
-19.0
 20
401.5
 10
-19.0
 20
402.9
 10
-17.0
 20
402.9
 10
-17.0
 20
401.5
 10
-10.0
 20
401.5
 10
-10.0
 20
420.0
 10
-4.0
 20
420.0
 10
-4.0
 20
430.0
 10
-10.0
 20
430.0
 10
-9.9963548036
 20
442.245106093
 10
-9.9963548036
 20
445.643215798
 10
-9.9963548036
 20
449.041325503
 10
-9.9966894239
 20
452.438233576
 10
-10.0048316868
 20
455.807104154
 10
-10.0350961935
 20
459.096533044
 10
-10.1020727673
 20
462.254127721
 10
-10.2203512314
 20
465.227495662
 10
-10.4045214093
 20
467.964244341
 10
-10.6691731242
 20
470.411981235
 10
-11.0288961995
 20
472.51831382
 10
-11.497798419
 20
474.23258059
 10
-12.0766935973
 20
475.551859111
 10
-12.7517458903
 20
476.525834343
 10
-13.5083654746
 20
477.206898812
 10
-14.331962527
 20
477.647445041
 10
-15.207947224
 20
477.899865555
 10
-16.1217297425
 20
478.016552878
 10
-17.0587202589
 20
478.049899534
 10
-18.0044956869
 20
478.051699291
 10
-18.9507722958
 20
478.051699291
 10
-19.8970489047
 20
478.051699291
 10
-20.8433255136
 20
478.051699291
 10
-21.7896021225
 20
478.051699291
 10
-22.7358787314
 20
478.051699291
 10
-23.6821553404
 20
478.051699291
 10
-24.6284319493
 20
478.051699291
 10
-25.5746269841
 20
478.051699291
 10
-26.5164719773
 20
478.051699291
 10
-27.4435858886
 20
478.051699291
 10
-28.3451035973
 20
478.051699291
 10
-29.2101599831
 20
478.051699291
 10
-30.0278899253
 20
478.051699291
 10
-30.7874283036
 20
478.051699291
 10
-31.4779099973
 20
478.051699291
 10
-32.0885758707
 20
478.051710013
 10
-32.6167146788
 20
478.052556335
 10
-33.0731716189
 20
478.056434557
 10
-33.4700943856
 20
478.065672747
 10
-33.8196306736
 20
478.08259897
 10
-34.1339281778
 20
478.109541294
 10
-34.4251345928
 20
478.148827784
 10
-34.7053976133
 20
478.202786509
 10
-34.9868237384
 20
478.27373491
 10
-35.2764768234
 20
478.362690067
 10
-35.5715958254
 20
478.468135477
 10
-35.8682864984
 20
478.588262416
 10
-36.1626545962
 20
478.721262158
 10
-36.4508058728
 20
478.865325978
 10
-36.7288460821
 20
479.018645151
 10
-36.9928809779
 20
479.17941095
 10
-37.2390244842
 20
479.345816359
 10
-37.4652297024
 20
479.51643854
 10
-37.6736070895
 20
479.690723082
 10
-37.8668380703
 20
479.868234841
 10
-38.0476040697
 20
480.048538673
 10
-38.2185865126
 20
480.231199435
 10
-38.3824668238
 20
480.415781983
 10
-38.5419264281
 20
480.601851173
 10
-38.6996454415
 20
480.788972028
 10
-38.8576265525
 20
480.976795987
 10
-39.0160897702
 20
481.165201888
 10
-39.1749653414
 20
481.354105534
 10
-39.3341835132
 20
481.543422727
 10
-39.4936745328
 20
481.73306927
 10
-39.653368647
 20
481.922960966
 10
-39.8131961029
 20
482.113013616
 10
-39.9730871556
 20
482.303143032
 10
-40.132987016
 20
482.49328308
 10
-40.2928868764
 20
482.683423128
 10
-40.4527867369
 20
482.873563176
 10
-40.6126865973
 20
483.063703224
 10
-40.7725864577
 20
483.253843273
 10
-40.9324863181
 20
483.443983321
 10
-41.0923861786
 20
483.634123369
 10
-41.2522860385
 20
483.824263416
 10
-41.4121727651
 20
484.014387533
 10
-41.5719859086
 20
484.20442239
 10
-41.7316543665
 20
484.394281739
 10
-41.8911070361
 20
484.58387933
 10
-42.0502728147
 20
484.773128912
 10
-42.2090805996
 20
484.961944236
 10
-42.3674592882
 20
485.150239051
 10
-42.5253377778
 20
485.337927109
 10
-42.6830790141
 20
485.524868156
 10
-42.8428818159
 20
485.710693531
 10
-43.0074303045
 20
485.894974196
 10
-43.1794086042
 20
486.077281108
 10
-43.3615008392
 20
486.257185229
 10
-43.5563911338
 20
486.434257517
 10
-43.7667636123
 20
486.608068932
 10
-43.9953023989
 20
486.778190434
 10
-44.2438157593
 20
486.944008463
 10
-44.5097598017
 20
487.103992579
 10
-44.7892413934
 20
487.256328093
 10
-45.078366991
 20
487.39920023
 10
-45.373243051
 20
487.530794216
 10
-45.6699760297
 20
487.649295275
 10
-45.9646723838
 20
487.752888632
 10
-46.2534385698
 20
487.839759513
 10
-46.5503019913
 20
487.908555007
 10
-46.9741297721
 20
487.960624167
 10
-47.6818004617
 20
487.998295692
 10
-48.8302456955
 20
488.023899646
 10
-50.576397109
 20
488.039766095
 10
-53.0771863377
 20
488.048225103
 10
-56.4895450169
 20
488.051606737
 10
-60.9704047821
 20
488.052241061
 10
-348.116803884
 20
488.052243291
 10
-354.397226227
 20
488.052243291
 10
-359.491972442
 20
488.052131408
 10
-363.438870378
 20
488.050465396
 10
-366.392811049
 20
488.044930393
 10
-368.510724691
 20
488.033196332
 10
-369.949541538
 20
488.012933148
 10
-370.866191827
 20
487.981810777
 10
-371.417605794
 20
487.937499152
 10
-371.760713676
 20
487.877668209
 10
-372.046451833
 20
487.800142362
 10
-372.338502564
 20
487.704994826
 10
-372.634602347
 20
487.593998438
 10
-372.930860442
 20
487.468967972
 10
-373.223386107
 20
487.331718204
 10
-373.508288603
 20
487.184063908
 10
-373.781677188
 20
487.02781986
 10
-374.039661122
 20
486.864800834
 10
-374.278535432
 20
486.696782445
 10
-374.497959487
 20
486.52483108
 10
-374.700518499
 20
486.34939634
 10
-374.888895213
 20
486.170907265
 10
-375.06577237
 20
485.989792896
 10
-375.233832715
 20
485.806482273
 10
-375.395758991
 20
485.621404436
 10
-375.554233941
 20
485.434988425
 10
-375.711882936
 20
485.24765614
 10
-375.870011786
 20
485.059665226
 10
-376.02860674
 20
484.871109074
 10
-376.187596676
 20
484.682073934
 10
-376.34691047
 20
484.492646056
 10
-376.506476998
 20
484.30291169
 10
-376.666225139
 20
484.112957086
 10
-376.826083769
 20
483.922868493
 10
-376.98598282
 20
483.732730882
 10
-377.145883881
 20
483.542590834
 10
-377.305784941
 20
483.352450786
 10
-377.465686002
 20
483.162310738
 10
-377.625587063
 20
482.97217069
 10
-377.785488124
 20
482.782030642
 10
-377.945389184
 20
482.591890593
 10
-378.105290245
 20
482.401750545
 10
-378.265190613
 20
482.211611349
 10
-378.425061516
 20
482.021508383
 10
-378.584837032
 20
481.831522705
 10
-378.744448684
 20
481.641738515
 10
-378.903827998
 20
481.452240009
 10
-379.062906498
 20
481.263111385
 10
-379.221615708
 20
481.074436841
 10
-379.379887154
 20
480.886300575
 10
-379.537670283
 20
480.698789072
 10
-379.69594343
 20
480.512120253
 10
-379.857253528
 20
480.326712408
 10
-380.024279431
 20
480.143000681
 10
-380.199699992
 20
479.961420217
 10
-380.386194063
 20
479.782406158
 10
-380.586440498
 20
479.606393649
 10
-380.80311815
 20
479.433817832
 10
-381.038880234
 20
479.265119211
 10
-381.294152567
 20
479.101203791
 10
-381.565440191
 20
478.943796986
 10
-381.848849499
 20
478.794707519
 10
-382.140486887
 20
478.655744117
 10
-382.436458751
 20
478.528715505
 10
-382.732871486
 20
478.415430408
 10
-383.025831486
 20
478.317697551
 10
-383.311478559
 20
478.237316989
 10
-383.590793035
 20
478.174832435
 10
-383.874619185
 20
478.128227461
 10
-384.175001981
 20
478.095174
 10
-384.503986396
 20
478.073343986
 10
-384.873617402
 20
478.060409352
 10
-385.295939969
 20
478.054042031
 10
-385.782999072
 20
478.051913957
 10
-386.346817855
 20
478.051699291
 10
-386.993276167
 20
478.051699291
 10
-387.713715219
 20
478.051699291
 10
-388.497373266
 20
478.051699291
 10
-389.333488564
 20
478.051699291
 10
-390.211299367
 20
478.051699291
 10
-391.120043929
 20
478.051699291
 10
-392.048960507
 20
478.051699291
 10
-392.987290908
 20
478.051699291
 10
-393.926820502
 20
478.051699291
 10
-394.866350097
 20
478.051699291
 10
-395.805879692
 20
478.051699291
 10
-396.745409287
 20
478.051699291
 10
-397.684938881
 20
478.051699291
 10
-398.624468476
 20
478.051699291
 10
-399.563998071
 20
478.051699291
 10
-400.503526761
 20
478.051696502
 10
-401.44008225
 20
478.042525036
 10
-402.361107616
 20
477.985462212
 10
-403.252117064
 20
477.835837134
 10
-404.098624797
 20
477.548978903
 10
-404.886145016
 20
477.080216623
 10
-405.600191926
 20
476.384879395
 10
-406.22627973
 20
475.418296323
 10
-406.749922661
 20
474.135796605
 10
-407.161737977
 20
472.508445999
 10
-407.471647396
 20
470.566840824
 10
-407.694136715
 20
468.355651978
 10
-407.843691731
 20
465.919550357
 10
-407.934798241
 20
463.303206859
 10
-407.981942041
 20
460.551292382
 10
-407.999608929
 20
457.708477823
 10
-408.002284701
 20
454.81943408
 10
-408.002284804
 20
451.92213918
 10
-408.002284804
 20
449.024843964
 10
-408.002284804
 20
446.127548748
 10
-408.002284804
 20
443.230253531
 10
-408.0
 20
430.0
 10
-414.0
 20
430.0
 10
-414.0
 20
420.0
 10
-408.0
 20
420.0
 10
-408.0
 20
401.5
 10
-401.0
 20
401.5
 10
-401.0
 20
402.9
 10
-399.0
 20
402.9
 10
-399.0
 20
401.5
 10
-393.0
 20
401.5
 10
-393.0
 20
400.0
 10
-393.0
 20
398.5
 10
-399.0
 20
398.5
 10
-399.0
 20
397.1
 10
-401.0
 20
397.1
 10
-401.0
 20
398.5
 10
-408.0
 20
398.5
 10
-408.0
 20
380.0
 10
-414.0
 20
380.0
 10
-414.0
 20
370.0
 10
-408.0
 20
370.0
 10
-408.0
 20
280.0
 10
-414.0
 20
280.0
 10
-414.0
 20
270.0
 10
-408.0
 20
270.0
 10
-408.0
 20
251.5
 10
-401.0
 20
251.5
 10
-401.0
 20
252.9
 10
-399.0
 20
252.9
 10
-399.0
 20
251.5
 10
-393.0
 20
251.5
 10
-393.0
 20
250.0
 10
-393.0
 20
248.5
 10
-399.0
 20
248.5
 10
-399.0
 20
247.1
 10
-401.0
 20
247.1
 10
-401.0
 20
248.5
 10
-408.0
 20
248.5
 10
-408.0
 20
230.0
 10
-414.0
 20
230.0
 10
-414.0
 20
220.0
 10
-408.0
 20
220.0
 10
-408.0
 20
130.0
 10
-414.0
 20
130.0
 10
-414.0
 20
120.0
 10
-408.0
 20
120.0
 10
-408.0
 20
101.5
 10
-401.0
 20
101.5
 10
-401.0
 20
102.9
 10
-399.0
 20
102.9
 10
-399.0
 20
101.5
 10
-393.0
 20
101.5
 10
-393.0
 20
100.0
 10
-393.0
 20
98.5
 10
-399.0
 20
98.5
 10
-399.0
 20
97.1
 10
-401.0
 20
97.1
 10
-401.0
 20
98.5
 10
-408.0
 20
98.5
 10
-408.0
 20
80.0
 10
-414.0
 20
80.0
 10
-414.0
 20
70.0
 10
-408.0
 20
70.0
 10
-408.002313804
 20
38.1201419353
 10
-408.002313804
 20
36.6338226465
 10
-408.002313804
 20
35.2392542584
 10
-408.002313804
 20
33.95848981
 10
-408.002313804
 20
32.8135823407
 10
-408.002313804
 20
31.8265755685
 10
-408.002313804
 20
31.009222264
 10
-408.002313804
 20
30.3433142051
 10
-408.002313804
 20
29.8052206788
 10
-408.002313804
 20
29.3713109723
 10
-408.002313804
 20
29.0179543725
 10
-408.002313804
 20
28.7215201664
 10
-408.002313804
 20
28.4583776412
 10
-408.002313804
 20
28.2048964854
 10
-408.002313804
 20
27.9405124427
 10
-408.002313804
 20
27.6551123189
 10
-408.002313804
 20
27.3408077455
 10
-408.002313804
 20
26.989710354
 10
-408.002313804
 20
26.5939317761
 10
-408.002313804
 20
26.1455836432
 10
-408.002313804
 20
25.6367775869
 10
-408.002313804
 20
25.0596252386
 10
-408.002313804
 20
24.5061587561
 10
-408.002313804
 20
24.0141308374
 10
-408.002313804
 20
23.5769676631
 10
-408.002313804
 20
23.1880954131
 10
-408.002313804
 20
22.8409402679
 10
-408.002313804
 20
22.5289284077
 10
-408.002313804
 20
22.2454860128
 10
-408.002313804
 20
21.9840392634
 10
-408.002313804
 20
21.7379916413
 10
-408.002313804
 20
21.4997401305
 10
-408.002313804
 20
21.2602975414
 10
-408.002313804
 20
21.0105760388
 10
-408.002313804
 20
20.7414877876
 10
-408.002313804
 20
20.4439449525
 10
-408.002313804
 20
20.1088596983
 10
-408.002313804
 20
19.7271441898
 10
-408.002313804
 20
19.2897105918
 10
-408.002313804
 20
18.7886889325
 10
-408.002313804
 20
18.226573562
 10
-408.002313804
 20
17.6110971078
 10
-408.002313804
 20
16.950032641
 10
-408.002313804
 20
16.251153233
 10
-408.002313804
 20
15.522231955
 10
-408.002313804
 20
14.7710418783
 10
-408.002313804
 20
14.0053560741
 10
-408.002313804
 20
13.2329444167
 10
-408.002313804
 20
12.4596946779
 10
-408.002313804
 20
11.6864449391
 10
-408.002313804
 20
10.9131952004
 10
-408.002313804
 20
10.1399454616
 10
-408.002313804
 20
9.36669572284
 10
-408.002313804
 20
8.59344598408
 10
-408.002313804
 20
7.82019624531
 10
-408.002313804
 20
7.04694650654
 10
-408.002034723
 20
6.27393153975
 10
-407.995168294
 20
5.50645806769
 10
-407.969585915
 20
4.75472907002
 10
-407.912921692
 20
4.0291471459
 10
-407.812809728
 20
3.34011489448
 10
-407.65688413
 20
2.69803491491
 10
-407.432779001
 20
2.11330980634
 10
-407.128128446
 20
1.59634216793
 10
-406.730566571
 20
1.15753459883
 10
-406.230651907
 20
0.80482957272
 10
-405.635157424
 20
0.532529445327
 10
-404.956443807
 20
0.330235998718
 10
-404.206876954
 20
0.18754663374
 10
-403.398822757
 20
0.0940587512406
 10
-402.544647114
 20
0.0393697520674
 10
-401.656715919
 20
0.0130770370676
 10
-400.747395068
 20
0.00477800708864
 10
-399.829009766
 20
0.00410429128661
 10
-398.909823598
 20
0.00410429128661
 10
-397.99063743
 20
0.00410429128661
 10
-397.071451262
 20
0.00410429128661
 10
-396.152265093
 20
0.00410429128661
 10
-395.233078925
 20
0.00410429128661
 10
-394.313892757
 20
0.00410429128661
 10
-393.394706588
 20
0.00410429128661
 10
-392.47552042
 20
0.00410429128661
 10
-391.556713672
 20
0.00410429128661
 10
-390.643377912
 20
0.00410429128661
 10
-389.743794318
 20
0.00410429128661
 10
-388.866304369
 20
0.00410429128661
 10
-388.019249542
 20
0.00410429128661
 10
-387.210971314
 20
0.00410429128661
 10
-386.449811165
 20
0.00410429128661
 10
-385.744110572
 20
0.00410429128661
 10
-385.10221096
 20
0.00410429989287
 10
-384.529616268
 20
0.00457653393842
 10
-384.021363715
 20
0.00773505686347
 10
-383.570077713
 20
0.0161954657349
 10
-383.168382675
 20
0.0325733576196
 10
-382.808903013
 20
0.0594843295844
 10
-382.484263139
 20
0.0995439786963
 10
-382.187087467
 20
0.155367902022
 10
-381.910000409
 20
0.229571696629
 10
-381.645724586
 20
0.324727970881
 10
-381.390681343
 20
0.441790308593
 10
-381.146028973
 20
0.579638811578
 10
-380.913235613
 20
0.737017953889
 10
-380.693769404
 20
0.912672209579
 10
-380.489098484
 20
1.1053460527
 10
-380.300690991
 20
1.31378395731
 10
-380.130015065
 20
1.53673039746
 10
-379.978538845
 20
1.7729298472
 10
-379.847424483
 20
2.02107283056
 10
-379.735451123
 20
2.27942971212
 10
-379.64028034
 20
2.54607381243
 10
-379.559567285
 20
2.81907731947
 10
-379.49096711
 20
3.09651242123
 10
-379.432134966
 20
3.37645130567
 10
-379.380726004
 20
3.65696616078
 10
-379.334395376
 20
3.93612917454
 10
-379.290799836
 20
4.21201430856
 10
-379.248179824
 20
4.48334128341
 10
-379.206225052
 20
4.75043321801
 10
-379.164846339
 20
5.01385785328
 10
-379.123954504
 20
5.27418293012
 10
-379.083460367
 20
5.53197618942
 10
-379.043274747
 20
5.78780537209
 10
-379.003308462
 20
6.04223821903
 10
-378.963472334
 20
6.29584247114
 10
-378.923679528
 20
6.54917092475
 10
-378.883888164
 20
6.80249020051
 10
-378.844096799
 20
7.05580947627
 10
-378.804305435
 20
7.30912875203
 10
-378.76451407
 20
7.56244802779
 10
-378.724722706
 20
7.81576730356
 10
-378.684931342
 20
8.06908657932
 10
-378.645139977
 20
8.32240585508
 10
-378.605348613
 20
8.57572513084
 10
-378.565545715
 20
8.8291178285
 10
-378.525660861
 20
9.08303227852
 10
-378.485604878
 20
9.33803616491
 10
-378.445288587
 20
9.59469722213
 10
-378.404622808
 20
9.85358318463
 10
-378.363518362
 20
10.1152617868
 10
-378.321886068
 20
10.3803007632
 10
-378.279636747
 20
10.6492678483
 10
-378.236671342
 20
10.9227198472
 10
-378.192109499
 20
11.2003491877
 10
-378.143736824
 20
11.4803723895
 10
-378.089208474
 20
11.7608616522
 10
-378.026179605
 20
12.0398891754
 10
-377.952305374
 20
12.3155271587
 10
-377.865240939
 20
12.5858478017
 10
-377.762641455
 20
12.8489233039
 10
-377.64216208
 20
13.102825865
 10
-377.501654003
 20
13.3456622476
 10
-377.341174361
 20
13.5759281527
 10
-377.162169608
 20
13.7923642359
 10
-376.966107874
 20
13.9937149751
 10
-376.754457291
 20
14.1787248484
 10
-376.52868599
 20
14.3461383335
 10
-376.290262103
 20
14.4946999086
 10
-376.040653762
 20
14.6231540515
 10
-375.781325672
 20
14.7302453421
 10
-375.488356505
 20
14.8154735432
 10
-375.051438681
 20
14.8809082327
 10
-374.341906021
 20
14.9291651197
 10
-373.231092347
 20
14.962859913
 10
-371.59033148
 20
14.9846083218
 10
-369.290957242
 20
14.9970260549
 10
-366.204303454
 20
15.0027288214
 10
-362.201703937
 20
15.0043323303
 10
-357.157973682
 20
15.004417036
 10
-66.8912593743
 20
15.0046276153
 10
-60.793818365
 20
15.0046333726
 10
-55.7500880053
 20
15.0045583811
 10
-51.7474883605
 20
15.0029625796
 10
-48.6608344194
 20
14.9972657515
 10
-46.3614600029
 20
14.9848524326
 10
-44.7206989319
 20
14.9631071587
 10
-43.6098850273
 20
14.9294144656
 10
-42.9003521102
 20
14.8811588891
 10
-42.4634340012
 20
14.815724965
 10
-42.1704645215
 20
14.7304972291
 10
-41.9111360911
 20
14.6234063136
 10
-41.661527385
 20
14.4949525035
 10
-41.4231031138
 20
14.346391219
 10
-41.1973314136
 20
14.1789779823
 10
-40.9856804202
 20
13.9939683152
 10
-40.7896182698
 20
13.79261774
 10
-40.6106130984
 20
13.5761817786
 10
-40.4501330421
 20
13.3459159532
 10
-40.3096245571
 20
13.1030796075
 10
-40.1891447768
 20
12.8491769933
 10
-40.0865448702
 20
12.586101227
 10
-39.9994799726
 20
12.3157799814
 10
-39.9256052196
 20
12.0401409296
 10
-39.8625757464
 20
11.7611117443
 10
-39.8080466885
 20
11.4806200986
 10
-39.7596731814
 20
11.2005936653
 10
-39.7151103603
 20
10.9229601173
 10
-39.6721438114
 20
10.6495028224
 10
-39.6298931882
 20
10.3805293943
 10
-39.5882594525
 20
10.1154831588
 10
-39.5471534447
 20
9.85379651387
 10
-39.5064860054
 20
9.59490185749
 10
-39.466167975
 20
9.33823158756
 10
-39.426110194
 20
9.08321810204
 10
-39.3862235028
 20
8.82929379885
 10
-39.34641875
 20
8.57589112636
 10
-39.3066255277
 20
8.32256185864
 10
-39.2668323053
 20
8.06923259093
 10
-39.227039083
 20
7.81590332321
 10
-39.1872458606
 20
7.56257405549
 10
-39.1474526383
 20
7.30924478778
 10
-39.1076594159
 20
7.05591552006
 10
-39.0678661936
 20
6.80258625234
 10
-39.0280729712
 20
6.54925698463
 10
-38.9882783076
 20
6.29591854131
 10
-38.9484403318
 20
6.04230436694
 10
-38.9084722313
 20
5.78786180036
 10
-38.8682848466
 20
5.53202323952
 10
-38.8277890182
 20
5.27422108235
 10
-38.7868955865
 20
5.0138877268
 10
-38.7455153921
 20
4.75045557079
 10
-38.7035592754
 20
4.48335701227
 10
-38.6609380768
 20
4.21202444918
 10
-38.6173415257
 20
3.93613487415
 10
-38.5710100554
 20
3.65696849966
 10
-38.5196004047
 20
3.37645122517
 10
-38.4607677089
 20
3.09651072359
 10
-38.3921671034
 20
2.81907466785
 10
-38.3114537237
 20
2.54607073086
 10
-38.216282705
 20
2.27942658554
 10
-38.104309183
 20
2.02106990479
 10
-37.9731947165
 20
1.77292722919
 10
-37.821718438
 20
1.53672809491
 10
-37.6510424954
 20
1.31378196319
 10
-37.4626350248
 20
1.10534435611
 10
-37.2579641623
 20
0.912670795715
 10
-37.0384980438
 20
0.737016804089
 10
-36.8057048055
 20
0.579637903294
 10
-36.5610525833
 20
0.441789615398
 10
-36.3060095133
 20
0.324727462467
 10
-36.0417347399
 20
0.229571339089
 10
-35.7646635332
 20
0.155367662153
 10
-35.4675426488
 20
0.099543827351
 10
-35.1430209039
 20
0.0594842417645
 10
-34.7837471158
 20
0.0325733124743
 10
-34.3823701017
 20
0.0161954465611
 10
-33.931538679
 20
0.00773505110593
 10
-33.4239016648
 20
0.00457653318956
 10
-32.8521078765
 20
0.00410429989286
 10
-32.2112114448
 20
0.00410429128661
 10
-31.5067007121
 20
0.00410429128661
 10
-30.746892698
 20
0.00410429128661
 10
-29.940104473
 20
0.00410429128661
 10
-29.0946531081
 20
0.00410429128661
 10
-28.218855674
 20
0.00410429128661
 10
-27.3210292416
 20
0.00410429128661
 10
-26.4094908816
 20
0.00410429128661
 10
-25.4924975414
 20
0.00410429128661
 10
-24.5751258913
 20
0.00410429128661
 10
-23.6577542412
 20
0.00410429128661
 10
-22.7403825912
 20
0.00410429128661
 10
-21.8230109411
 20
0.00410429128661
 10
-20.905639291
 20
0.00410429128661
 10
-19.9882676409
 20
0.00410429128661
 10
-19.0708959908
 20
0.00410429128661
 10
-18.1535243408
 20
0.00410429128661
 10
-17.2369519768
 20
0.00477800708863
 10
-16.3294261688
 20
0.0130770370676
 10
-15.4432477932
 20
0.0393697520673
 10
-14.5907583344
 20
0.0940587512404
 10
-13.7842992766
 20
0.18754663374
 10
-13.0362121043
 20
0.330235998717
 10
-12.3588383017
 20
0.532529445327
 10
-11.7645193533
 20
0.80482957272
 10
-11.2655915456
 20
1.15753459883
 10
-10.8688144765
 20
1.59634216793
 10
-10.5647653168
 20
2.11330980634
 10
-10.3411025822
 20
2.69803491491
 10
-10.1854847884
 20
3.34011489448
 10
-10.0855704509
 20
4.0291471459
 10
-10.0290180855
 20
4.75472907002
 10
-10.0034862078
 20
5.50645806768
 10
-9.9966333334
 20
6.27393153974
 10
-9.9963548036
 20
7.04694650654
 10
-9.9963548036
 20
7.82019624531
 10
-9.9963548036
 20
8.59344598408
 10
-9.9963548036
 20
9.36669572284
 10
-9.9963548036
 20
10.1399454616
 10
-9.9963548036
 20
10.9131952004
 10
-9.9963548036
 20
11.6864449391
 10
-9.9963548036
 20
12.4596946779
 10
-9.9963548036
 20
13.2329444167
 10
-9.9963548036
 20
14.0053560741
 10
-9.9963548036
 20
14.7710418783
 10
-9.9963548036
 20
15.522231955
 10
-9.9963548036
 20
16.251153233
 10
-9.9963548036
 20
16.950032641
 10
-9.9963548036
 20
17.6110971078
 10
-9.9963548036
 20
18.226573562
 10
-9.9963548036
 20
18.7886889325
 10
-9.9963548036
 20
19.2897105918
 10
-9.9963548036
 20
19.7271441898
 10
-9.9963548036
 20
20.1088596983
 10
-9.9963548036
 20
20.4439449525
 10
-9.9963548036
 20
20.7414877876
 10
-9.9963548036
 20
21.0105760388
 10
-9.9963548036
 20
21.2602975414
 10
-9.9963548036
 20
21.4997401305
 10
-9.9963548036
 20
21.7379916413
 10
-9.9963548036
 20
21.9840392634
 10
-9.9963548036
 20
22.2454860128
 10
-9.9963548036
 20
22.5289284077
 10
-9.9963548036
 20
22.8409402679
 10
-9.9963548036
 20
23.1880954131
 10
-9.9963548036
 20
23.5769676631
 10
-9.9963548036
 20
24.0141308374
 10
-9.9963548036
 20
24.506158756
 10
-9.9963548036
 20
25.0596252386
 10
-9.9963548036
 20
25.4064115748
 10
-9.9963548036
 20
25.7286303015
 10
-9.9963548036
 20
26.0278664259
 10
-9.9963548036
 20
26.305704955
 10
-9.9963548036
 20
26.5637308958
 10
-9.9963548036
 20
26.8035292555
 10
-9.9963548036
 20
27.026685041
 10
-9.9963548036
 20
27.2347832595
 10
-9.9963548036
 20
27.429408918
 10
-9.9963548036
 20
27.6121470235
 10
-9.9963548036
 20
27.7845825832
 10
-9.9963548036
 20
27.948300604
 10
-9.9963548036
 20
28.1048860931
 10
-9.9963548036
 20
28.2559322947
 10
-9.9963548036
 20
28.4040291603
 10
-9.9963548036
 20
28.5537023949
 10
-9.9963548036
 20
28.7097001092
 10
-9.9963548036
 20
28.8767704139
 10
-9.9963548036
 20
29.0596614199
 10
-9.9963548036
 20
29.2631212377
 10
-9.9963548036
 20
29.4918979782
 10
-9.9963548036
 20
29.750739752
 10
-9.9963548036
 20
30.0443946699
 10
-9.9963548036
 20
30.3776108426
 10
-9.9963548036
 20
30.7551363808
 10
-9.9963548036
 20
31.1817193953
 10
-9.9963548036
 20
31.6621079968
 10
-9.9963548036
 20
32.2009118238
 10
-9.9963548036
 20
32.7995556551
 10
-9.9963548036
 20
33.4562794096
 10
-9.9963548036
 20
34.1691845341
 10
-9.9963548036
 20
34.9363724753
 10
-9.9963548036
 20
35.75594468
 10
-9.9963548036
 20
36.6260025949
 10
-9.9963548036
 20
37.5446476668
 10
-9.9963548036
 20
38.5099813424
 10
-9.9963548036
 20
39.5201050685
 10
-9.9963548036
 20
40.5731202918
 10
-9.9963548036
 20
41.6671284591
 10
-9.9963548036
 20
42.8002310172
 10
-9.9963548036
 20
43.9705294128
 10
-9.9963548036
 20
45.1771489364
 10
-9.9963548036
 20
46.4281261114
 10
-9.9963548036
 20
47.736085798
 10
-9.9963548036
 20
49.1136907764
 10
-9.9963548036
 20
50.5736038271
 10
-9.9963548036
 20
52.1284877303
 10
-10.0
 20
70.0
 10
-4.0
 20
70.0
 10
-4.0
 20
80.0
 10
-10.0
 20
80.0
 10
-10.0
 20
98.5
 10
-17.0
 20
98.5
 10
-17.0
 20
97.1
 10
-19.0
 20
97.1
 10
-19.0
 20
98.5
 10
-25.0
 20
98.5
 10
-25.0
 20
100.0
 10
-25.0
 20
101.5
 10
-19.0
 20
101.5
 10
-19.0
 20
102.9
 10
-17.0
 20
102.9
 10
-17.0
 20
101.5
 10
-10.0
 20
101.5
 10
-10.0
 20
120.0
 10
-4.0
 20
120.0
 10
-4.0
 20
130.0
 10
-10.0
 20
130.0
 10
-10.0
 20
220.0
 10
-4.0
 20
220.0
  0
LWPOLYLINE
  5
653
330
1F
100
AcDbEntity
  8
IZREZ
 67
0
100
AcDbPolyline
 90
464
 70
1
 10
-266.583480335
 20
125.160487877
 10
-269.722201071
 20
125.38796093
 10
-272.524118836
 20
125.643497305
 10
-275.044695199
 20
125.922475796
 10
-277.339391726
 20
126.220275197
 10
-279.463669984
 20
126.532274302
 10
-281.47299154
 20
126.853851906
 10
-283.42281796
 20
127.180386804
 10
-285.361240883
 20
127.507871871
 10
-287.299660249
 20
127.835357235
 10
-289.238079616
 20
128.162842598
 10
-291.176498982
 20
128.490327962
 10
-293.114918349
 20
128.817813325
 10
-295.053337715
 20
129.145298689
 10
-296.991757082
 20
129.472784052
 10
-298.930176448
 20
129.800269416
 10
-300.868114004
 20
130.127674822
 10
-302.794465384
 20
130.453157474
 10
-304.687752631
 20
130.773153053
 10
-306.526065778
 20
131.084025546
 10
-308.287494855
 20
131.382138943
 10
-309.950129897
 20
131.663857229
 10
-311.492060934
 20
131.925544393
 10
-312.891377999
 20
132.163564424
 10
-314.126176542
 20
132.37428276
 10
-315.183891242
 20
132.556568546
 10
-316.080456597
 20
132.716931296
 10
-316.83722429
 20
132.863332787
 10
-317.475546008
 20
133.003734795
 10
-318.016773434
 20
133.146099097
 10
-318.482258253
 20
133.298387473
 10
-318.893352149
 20
133.468561697
 10
-319.271406808
 20
133.664583549
 10
-319.636497675
 20
133.893801243
 10
-319.994185551
 20
134.156584974
 10
-320.34081744
 20
134.448875334
 10
-320.672593408
 20
134.766542274
 10
-320.985713516
 20
135.105455744
 10
-321.27637783
 20
135.461485693
 10
-321.540786412
 20
135.830502071
 10
-321.775139328
 20
136.208374829
 10
-321.975657616
 20
136.590969595
 10
-322.140989736
 20
136.973651852
 10
-322.274440114
 20
137.350827768
 10
-322.379840051
 20
137.716794956
 10
-322.461020848
 20
138.065851025
 10
-322.521813806
 20
138.392293589
 10
-322.566050226
 20
138.690420257
 10
-322.597561408
 20
138.954528642
 10
-322.620178655
 20
139.178916355
 10
-322.637411068
 20
139.358973966
 10
-322.650646067
 20
139.497289165
 10
-322.660412986
 20
139.59936044
 10
-322.667238742
 20
139.670694465
 10
-322.671650254
 20
139.716797913
 10
-322.67417444
 20
139.743177458
 10
-322.675338218
 20
139.755339773
 10
-322.675668508
 20
139.758791532
 10
-322.675795114
 20
139.760113729
 10
-322.679949261
 20
139.803492045
 10
-322.6968223
 20
139.979683236
 10
-322.735382681
 20
140.382337407
 10
-322.804598855
 20
141.105104663
 10
-322.913439271
 20
142.241635108
 10
-323.070872379
 20
143.885578847
 10
-323.285866629
 20
146.130585984
 10
-323.567390471
 20
149.070306624
 10
-323.919928129
 20
152.767932876
 10
-324.33002693
 20
157.16482487
 10
-324.779749972
 20
162.171884737
 10
-325.251160357
 20
167.700014613
 10
-325.726321185
 20
173.66011663
 10
-326.187295556
 20
179.963092922
 10
-326.61614657
 20
186.519845623
 10
-326.994937327
 20
193.241276866
 10
-327.306614108
 20
200.039191414
 10
-327.548338785
 20
206.83992268
 10
-327.728751879
 20
213.581535505
 10
-327.856821837
 20
220.202429882
 10
-327.94151711
 20
226.641005807
 10
-327.991806149
 20
232.835663273
 10
-328.016657402
 20
238.724802275
 10
-328.025039321
 20
244.246822806
 10
-328.025911682
 20
249.340236775
 10
-328.025150703
 20
253.983352162
 10
-328.021008307
 20
258.252875147
 10
-328.010578588
 20
262.240454706
 10
-327.990955642
 20
266.037739814
 10
-327.959233562
 20
269.736379446
 10
-327.912506443
 20
273.428022577
 10
-327.847868381
 20
277.204318181
 10
-327.762413469
 20
281.156915234
 10
-327.653837689
 20
285.363515851
 10
-327.525155874
 20
289.778574326
 10
-327.38215587
 20
294.292288946
 10
-327.230649489
 20
298.794302721
 10
-327.076448541
 20
303.174258662
 10
-326.925364837
 20
307.32179978
 10
-326.783210188
 20
311.126569086
 10
-326.655796404
 20
314.478209589
 10
-326.548883125
 20
317.267483905
 10
-326.46495865
 20
319.455358189
 10
-326.401357881
 20
321.113391405
 10
-326.354962595
 20
322.322866683
 10
-326.322654567
 20
323.165067152
 10
-326.301315573
 20
323.72127594
 10
-326.287827389
 20
324.072776178
 10
-326.279071792
 20
324.300850994
 10
-326.271930557
 20
324.486783517
 10
-326.263689778
 20
324.701186926
 10
-326.253762659
 20
324.958539784
 10
-326.24225945
 20
325.25492566
 10
-326.229290803
 20
325.586417452
 10
-326.214967371
 20
325.949088057
 10
-326.199399805
 20
326.339010376
 10
-326.182698759
 20
326.752257305
 10
-326.164974885
 20
327.184901742
 10
-326.146341456
 20
327.632984706
 10
-326.126974664
 20
328.091781671
 10
-326.107115131
 20
328.555784198
 10
-326.087006402
 20
329.01944829
 10
-326.06689202
 20
329.477229953
 10
-326.04701553
 20
329.923585191
 10
-326.027620475
 20
330.352970007
 10
-326.008950401
 20
330.759840405
 10
-325.991248827
 20
331.138653
 10
-325.974680084
 20
331.485813969
 10
-325.959153549
 20
331.804006296
 10
-325.944527389
 20
332.097173729
 10
-325.930659772
 20
332.369260019
 10
-325.917408864
 20
332.624208913
 10
-325.904632833
 20
332.865964161
 10
-325.892189846
 20
333.098469511
 10
-325.879938069
 20
333.325668712
 10
-325.867727702
 20
333.551505068
 10
-325.855312113
 20
333.779916489
 10
-325.842380149
 20
334.014837284
 10
-325.828619485
 20
334.260201699
 10
-325.813717796
 20
334.519943982
 10
-325.797362756
 20
334.797998378
 10
-325.779242041
 20
335.098299132
 10
-325.759043325
 20
335.424780491
 10
-325.736455802
 20
335.781355858
 10
-325.711379836
 20
336.169038801
 10
-325.684141615
 20
336.582995479
 10
-325.655118517
 20
337.01768913
 10
-325.624687917
 20
337.467582994
 10
-325.593227192
 20
337.92714031
 10
-325.561113717
 20
338.390824316
 10
-325.52872487
 20
338.853098252
 10
-325.496438027
 20
339.308425356
 10
-325.464497285
 20
339.753141993
 10
-325.43221727
 20
340.196647577
 10
-325.398516798
 20
340.653904369
 10
-325.362313218
 20
341.139895184
 10
-325.322523883
 20
341.669602839
 10
-325.278066144
 20
342.25801015
 10
-325.227857352
 20
342.920099933
 10
-325.170814858
 20
343.670855004
 10
-325.105878417
 20
344.524955638
 10
-325.032858665
 20
345.485320874
 10
-324.952697547
 20
346.539591484
 10
-324.866412615
 20
347.674387169
 10
-324.775021421
 20
348.876327629
 10
-324.679541517
 20
350.132032566
 10
-324.580990456
 20
351.428121678
 10
-324.48038579
 20
352.751214668
 10
-324.378745071
 20
354.087931236
 10
-324.276925342
 20
355.42700169
 10
-324.175105612
 20
356.766072158
 10
-324.073285882
 20
358.105142626
 10
-323.971466152
 20
359.444213094
 10
-323.869646422
 20
360.783283562
 10
-323.767826692
 20
362.12235403
 10
-323.666006962
 20
363.461424498
 10
-323.564187232
 20
364.800494966
 10
-323.462395662
 20
366.139165946
 10
-323.361149012
 20
367.470106594
 10
-323.261377821
 20
368.780116073
 10
-323.1640257
 20
370.055808167
 10
-323.070036256
 20
371.283796666
 10
-322.980353097
 20
372.450695354
 10
-322.895919831
 20
373.543118019
 10
-322.817680068
 20
374.547678448
 10
-322.746574172
 20
375.451003644
 10
-322.681971527
 20
376.246122906
 10
-322.619149878
 20
376.942740375
 10
-322.552729293
 20
377.553240466
 10
-322.477329838
 20
378.090007592
 10
-322.387571578
 20
378.565426169
 10
-322.278074581
 20
378.991880612
 10
-322.143458912
 20
379.381755336
 10
-321.978344637
 20
379.747434755
 10
-321.77794257
 20
380.100284511
 10
-321.543014465
 20
380.442097361
 10
-321.277363501
 20
380.769420972
 10
-320.984824006
 20
381.078749288
 10
-320.669230311
 20
381.366576252
 10
-320.334416746
 20
381.629395806
 10
-319.984217641
 20
381.863701895
 10
-319.622467326
 20
382.06598846
 10
-319.252334885
 20
382.232788888
 10
-318.829110621
 20
382.363475217
 10
-318.228890461
 20
382.462114792
 10
-317.320340371
 20
382.533215468
 10
-315.97212632
 20
382.581285102
 10
-314.052914273
 20
382.610831548
 10
-311.431370197
 20
382.626362662
 10
-307.976160058
 20
382.6323863
 10
-303.555949823
 20
382.633410316
 10
-298.070433218
 20
382.633411291
 10
-291.591855107
 20
382.633411291
 10
-284.252094554
 20
382.633411291
 10
-276.183087588
 20
382.633411291
 10
-267.516770237
 20
382.633411291
 10
-258.385078531
 20
382.633411291
 10
-248.919948497
 20
382.633411291
 10
-239.253316165
 20
382.633411291
 10
-229.51479459
 20
382.633411291
 10
-219.773049586
 20
382.633411291
 10
-210.031304583
 20
382.633411291
 10
-200.289559579
 20
382.633411291
 10
-190.547814575
 20
382.633411291
 10
-180.806069572
 20
382.633411291
 10
-171.064324568
 20
382.633411291
 10
-161.322579564
 20
382.633411291
 10
-151.580838129
 20
382.633411291
 10
-141.864876988
 20
382.633411291
 10
-132.288048385
 20
382.633411291
 10
-122.982288351
 20
382.633411291
 10
-114.079532914
 20
382.633411291
 10
-105.711718102
 20
382.633411291
 10
-98.0107799451
 20
382.633411291
 10
-91.108654471
 20
382.633411291
 10
-85.1372777086
 20
382.633411291
 10
-80.2172781948
 20
382.633217678
 10
-76.3222541036
 20
382.630119303
 10
-73.3229812542
 20
382.619644438
 10
-71.0881256133
 20
382.597285227
 10
-69.4863531475
 20
382.558533815
 10
-68.3863298236
 20
382.498882346
 10
-67.656721608
 20
382.413822964
 10
-67.1661944675
 20
382.298847816
 10
-66.78364835
 20
382.149462916
 10
-66.4177723604
 20
381.963533308
 10
-66.0616356807
 20
381.743926768
 10
-65.7190732091
 20
381.494149353
 10
-65.3939198439
 20
381.21770712
 10
-65.0900104835
 20
380.918106127
 10
-64.811180026
 20
380.598852429
 10
-64.5612633699
 20
380.263452085
 10
-64.3440954133
 20
379.915411149
 10
-64.162723768
 20
379.556865277
 10
-64.0143775069
 20
379.179821989
 10
-63.8936778162
 20
378.771749344
 10
-63.7952335809
 20
378.320093989
 10
-63.7136536858
 20
377.812302573
 10
-63.643547016
 20
377.235821742
 10
-63.5795224564
 20
376.578098144
 10
-63.5161888919
 20
375.826578428
 10
-63.4482140746
 20
374.968951454
 10
-63.3728206215
 20
374.003418324
 10
-63.2907129197
 20
372.942506223
 10
-63.2028451905
 20
371.799770301
 10
-63.1101716553
 20
370.588765709
 10
-63.0136465356
 20
369.323047598
 10
-62.9142240527
 20
368.016171119
 10
-62.812858428
 20
366.681691424
 10
-62.710503883
 20
365.333163663
 10
-62.6079723284
 20
363.982121399
 10
-62.5054407661
 20
362.631079027
 10
-62.4029092038
 20
361.280036655
 10
-62.3003776416
 20
359.928994283
 10
-62.1978460793
 20
358.577951911
 10
-62.095314517
 20
357.226909538
 10
-61.9927829547
 20
355.875867166
 10
-61.8902513925
 20
354.524824794
 10
-61.7877476393
 20
353.174148894
 10
-61.6858207958
 20
351.831075592
 10
-61.5854829323
 20
350.508942095
 10
-61.4877622124
 20
349.22129769
 10
-61.3936867995
 20
347.981691661
 10
-61.3042848573
 20
346.803673294
 10
-61.2205845492
 20
345.700791877
 10
-61.1436140388
 20
344.686596693
 10
-61.0744007691
 20
343.774627206
 10
-61.0134743901
 20
342.971637137
 10
-60.9599982892
 20
342.265755781
 10
-60.9129035242
 20
341.641945394
 10
-60.8711211528
 20
341.085168233
 10
-60.8335822327
 20
340.580386554
 10
-60.7992178217
 20
340.112562613
 10
-60.7669589775
 20
339.666658667
 10
-60.7357367579
 20
339.227636972
 10
-60.7045669957
 20
338.781677081
 10
-60.6733134428
 20
338.327133936
 10
-60.6423279408
 20
337.869371019
 10
-60.6119681847
 20
337.413835869
 10
-60.5825918697
 20
336.965976023
 10
-60.554556691
 20
336.53123902
 10
-60.5282203436
 20
336.115072397
 10
-60.5039405229
 20
335.722923692
 10
-60.4820721535
 20
335.360201848
 10
-60.4627391643
 20
335.029097774
 10
-60.4456641936
 20
334.726211937
 10
-60.4305297582
 20
334.447585873
 10
-60.4170183753
 20
334.189261116
 10
-60.4048125617
 20
333.947279203
 10
-60.3935948344
 20
333.717681667
 10
-60.3830477105
 20
333.496510044
 10
-60.372853707
 20
333.279805869
 10
-60.3627143289
 20
333.063609426
 10
-60.3524427442
 20
332.843953629
 10
-60.3418928052
 20
332.616868713
 10
-60.3309184227
 20
332.378384905
 10
-60.3193735079
 20
332.124532434
 10
-60.3071119717
 20
331.851341528
 10
-60.2939877252
 20
331.554842418
 10
-60.2798546793
 20
331.23106533
 10
-60.2645725402
 20
330.876188019
 10
-60.2481677265
 20
330.490632209
 10
-60.2308543707
 20
330.079598226
 10
-60.2128566191
 20
329.648541317
 10
-60.1943986181
 20
329.202916729
 10
-60.1757045142
 20
328.748179709
 10
-60.1569984536
 20
328.289785504
 10
-60.1385045828
 20
327.833189362
 10
-60.1204470473
 20
327.383846518
 10
-60.103033417
 20
326.946949932
 10
-60.0864118003
 20
326.526751741
 10
-60.0707169782
 20
326.127293201
 10
-60.0560837314
 20
325.752615568
 10
-60.0426468408
 20
325.406760097
 10
-60.0305410873
 20
325.093768045
 10
-60.0199012516
 20
324.817680668
 10
-60.0108621146
 20
324.582539222
 10
-60.0034303322
 20
324.389025494
 10
-59.9958269698
 20
324.191002651
 10
-59.9849628563
 20
323.907979138
 10
-59.9677186313
 20
323.458671826
 10
-59.9409749342
 20
322.761797587
 10
-59.9016124047
 20
321.736073289
 10
-59.8465116822
 20
320.300215806
 10
-59.7725534063
 20
318.372942007
 10
-59.6766301295
 20
315.873224283
 10
-59.5581599523
 20
312.7742053
 10
-59.422195806
 20
309.169888755
 10
-59.2745530519
 20
305.17063164
 10
-59.1210470511
 20
300.886790942
 10
-58.9674931646
 20
296.428723652
 10
-58.8197067535
 20
291.906786759
 10
-58.6835031789
 20
287.431337252
 10
-58.5646978019
 20
283.11273212
 10
-58.4684110836
 20
279.04523931
 10
-58.3943169616
 20
275.19702324
 10
-58.3395210834
 20
271.476784614
 10
-58.3011139931
 20
267.792874456
 10
-58.276186235
 20
264.053643793
 10
-58.2618283533
 20
260.167443648
 10
-58.2551308925
 20
256.042625047
 10
-58.2531843967
 20
251.587539015
 10
-58.2531746095
 20
246.711764718
 10
-58.2569267528
 20
241.384734012
 10
-58.2729002495
 20
235.661464832
 10
-58.3100647312
 20
229.603557184
 10
-58.3773898296
 20
223.272611076
 10
-58.4838451764
 20
216.730226512
 10
-58.6384004032
 20
210.038003498
 10
-58.8500251416
 20
203.25754204
 10
-59.1276890233
 20
196.450442143
 10
-59.4765717745
 20
189.682177012
 10
-59.8839933054
 20
183.036472175
 10
-60.3320174471
 20
176.602424756
 10
-60.8027073034
 20
170.46913262
 10
-61.2781259779
 20
164.725693634
 10
-61.7403365741
 20
159.461205665
 10
-62.1714021956
 20
154.764766579
 10
-62.5533859461
 20
150.725474243
 10
-62.8690211614
 20
147.427827131
 10
-63.1146483012
 20
144.862946397
 10
-63.2992802957
 20
142.934989828
 10
-63.4324130799
 20
141.544800646
 10
-63.5235425885
 20
140.593222072
 10
-63.5821647565
 20
139.981097328
 10
-63.6177755186
 20
139.609269637
 10
-63.6398708097
 20
139.37858222
 10
-63.6579453387
 20
139.189900988
 10
-63.6802104417
 20
138.96784386
 10
-63.7111640238
 20
138.70575502
 10
-63.7546362496
 20
138.409336858
 10
-63.8144572836
 20
138.084291761
 10
-63.8944572902
 20
137.736322119
 10
-63.9984664339
 20
137.371130319
 10
-64.1303148792
 20
136.994418751
 10
-64.2938327906
 20
136.611889803
 10
-64.4924309511
 20
136.229159436
 10
-64.7250500448
 20
135.850922384
 10
-64.9879282551
 20
135.481316436
 10
-65.2772662157
 20
135.124471643
 10
-65.5892645603
 20
134.784518053
 10
-65.9201239226
 20
134.465585718
 10
-66.2660449363
 20
134.171804687
 10
-66.6232282351
 20
133.90730501
 10
-66.9879594857
 20
133.676175855
 10
-67.3648260919
 20
133.47851515
 10
-67.7735670731
 20
133.30713635
 10
-68.2355339256
 20
133.154077678
 10
-68.7720781455
 20
133.011377358
 10
-69.4045512292
 20
132.871073611
 10
-70.1543046729
 20
132.725204661
 10
-71.0426899729
 20
132.565808729
 10
-72.0910586256
 20
132.38492404
 10
-73.3162627376
 20
132.175795043
 10
-74.7071622781
 20
131.939170521
 10
-76.2418696548
 20
131.678680536
 10
-77.8984750864
 20
131.397961101
 10
-79.6550687918
 20
131.100648228
 10
-81.4897409899
 20
130.79037793
 10
-83.3805818996
 20
130.470786219
 10
-85.3056817398
 20
130.145509107
 10
-87.2434341412
 20
129.818132254
 10
-89.1818404011
 20
129.49064689
 10
-91.1202466609
 20
129.163161527
 10
-93.0586529208
 20
128.835676163
 10
-94.9970591807
 20
128.5081908
 10
-96.9354654406
 20
128.180705436
 10
-98.8738717005
 20
127.853220073
 10
-100.81227796
 20
127.525734709
 10
-102.750684276
 20
127.19824935
 10
-104.698847526
 20
126.871576962
 10
-106.703480924
 20
126.549609802
 10
-108.82004622
 20
126.236969075
 10
-111.104005168
 20
125.938275986
 10
-113.610819518
 20
125.658151742
 10
-116.395951023
 20
125.401217548
 10
-119.514861434
 20
125.172094609
 10
-123.023012504
 20
124.975404132
 10
-126.971872737
 20
124.815434594
 10
-131.353159846
 20
124.691495897
 10
-136.112595263
 20
124.599065419
 10
-141.194717236
 20
124.533521956
 10
-146.544064013
 20
124.490244302
 10
-152.105173842
 20
124.464611251
 10
-157.822584972
 20
124.452001598
 10
-163.640835651
 20
124.447794137
 10
-169.504519685
 20
124.447372291
 10
-175.373266532
 20
124.447372291
 10
-181.242013379
 20
124.447372291
 10
-187.110760225
 20
124.447372291
 10
-192.979507072
 20
124.447372291
 10
-198.848253918
 20
124.447372291
 10
-204.717000765
 20
124.447372291
 10
-210.585747612
 20
124.447372291
 10
-216.454494458
 20
124.447372291
 10
-222.319125065
 20
124.447715267
 10
-228.14128114
 20
124.451597334
 10
-233.865623178
 20
124.463629528
 10
-239.436689614
 20
124.488433053
 10
-244.79901888
 20
124.530629116
 10
-249.897149409
 20
124.594838922
 10
-254.675619635
 20
124.685683677
 10
-259.07896799
 20
124.807784586
 10
-263.052495063
 20
124.96569935
 10
-263.052495063
 20
124.96569935
  0
LWPOLYLINE
  5
654
330
1F
100
AcDbEntity
  8
HOLES
 67
0
100
AcDbPolyline
 90
5
 70
1
 10
-298.0
 20
80.0
 10
-308.0
 20
80.0
 10
-308.0
 20
74.0
 10
-298.0
 20
74.0
 10
-298.0
 20
74.0
  0
LWPOLYLINE
  5
655
330
1F
100
AcDbEntity
  8
HOLES
 67
0
100
AcDbPolyline
 90
5
 70
1
 10
-348.0
 20
80.0
 10
-358.0
 20
80.0
 10
-358.0
 20
74.0
 10
-348.0
 20
74.0
 10
-348.0
 20
74.0
  0
CIRCLE
  5
656
330
1F
100
AcDbEntity
  8
HOLES
 67
0
100
AcDbCircle
 10
-328.0
 20
77.0
 40
1.5
  0
LWPOLYLINE
  5
657
330
1F
100
AcDbEntity
  8
HOLES
 67
0
100
AcDbPolyline
 90
5
 70
1
 10
-60.0
 20
80.0
 10
-70.0
 20
80.0
 10
-70.0
 20
74.0
 10
-60.0
 20
74.0
 10
-60.0
 20
74.0
  0
LWPOLYLINE
  5
658
330
1F
100
AcDbEntity
  8
HOLES
 67
0
100
AcDbPolyline
 90
5
 70
1
 10
-110.0
 20
80.0
 10
-120.0
 20
80.0
 10
-120.0
 20
74.0
 10
-110.0
 20
74.0
 10
-110.0
 20
74.0
  0
CIRCLE
  5
659
330
1F
100
AcDbEntity
  8
HOLES
 67
0
100
AcDbCircle
 10
-90.0
 20
77.0
 40
1.5
  0
CIRCLE
  5
65A
330
1F
100
AcDbEntity
  8
HOLES
 67
0
100
AcDbCircle
 10
-385.0
 20
439.7
 40
1.5
  0
CIRCLE
  5
65B
330
1F
100
AcDbEntity
  8
HOLES
 67
0
100
AcDbCircle
 10
-385.0
 20
414.3
 40
1.5
  0
CIRCLE
  5
65C
330
1F
100
AcDbEntity
  8
HOLES
 67
0
100
AcDbCircle
 10
-385.0
 20
427.0
 40
8.0
  0
POINT
  5
65D
330
1F
100
AcDbEntity
  8
0
 67
0
100
AcDbPoint
 10
-385.0
 20
427.0
  0
CIRCLE
  5
65E
330
1F
100
AcDbEntity
  8
HOLES
 67
0
100
AcDbCircle
 10
-32.0
 20
439.7
 40
1.5
  0
CIRCLE
  5
65F
330
1F
100
AcDbEntity
  8
HOLES
 67
0
100
AcDbCircle
 10
-32.0
 20
414.3
 40
1.5
  0
CIRCLE
  5
660
330
1F
100
AcDbEntity
  8
HOLES
 67
0
100
AcDbCircle
 10
-32.0
 20
427.0
 40
8.0
  0
POINT
  5
661
330
1F
100
AcDbEntity
  8
0
 67
0
100
AcDbPoint
 10
-32.0
 20
427.0
  0
ENDSEC
  0
SECTION
  2
OBJECTS
  0
DICTIONARY
  5
C
330
0
100
AcDbDictionary
281
1
  3
ACAD_COLOR
350
4FB
  3
ACAD_GROUP
350
4FC
  3
ACAD_LAYOUT
350
4FD
  3
ACAD_MATERIAL
350
4FE
  3
ACAD_MLEADERSTYLE
350
4FF
  3
ACAD_MLINESTYLE
350
500
  3
ACAD_PLOTSETTINGS
350
501
  3
ACAD_PLOTSTYLENAME
350
503
  3
ACAD_SCALELIST
350
504
  3
ACAD_TABLESTYLE
350
505
  3
ACAD_VISUALSTYLE
350
506
  0
DICTIONARY
  5
4FB
330
C
100
AcDbDictionary
281
1
  0
DICTIONARY
  5
4FC
330
C
100
AcDbDictionary
281
1
  0
DICTIONARY
  5
4FD
330
C
100
AcDbDictionary
281
1
  3
Model
350
507
  3
Layout1
350
508
  0
DICTIONARY
  5
4FE
330
C
100
AcDbDictionary
281
1
  0
DICTIONARY
  5
4FF
330
C
100
AcDbDictionary
281
1
  0
DICTIONARY
  5
500
330
C
100
AcDbDictionary
281
1
  0
DICTIONARY
  5
501
330
C
100
AcDbDictionary
281
1
  0
ACDBPLACEHOLDER
  5
502
330
503
  0
ACDBDICTIONARYWDFLT
  5
503
330
C
100
AcDbDictionary
281
1
  3
Normal
350
502
100
AcDbDictionaryWithDefault
340
502
  0
DICTIONARY
  5
504
330
C
100
AcDbDictionary
281
1
  0
DICTIONARY
  5
505
330
C
100
AcDbDictionary
281
1
  0
DICTIONARY
  5
506
330
C
100
AcDbDictionary
281
1
  0
LAYOUT
  5
507
330
4FD
100
AcDbPlotSettings
  1

  2
DWFx ePlot (XPS Compatible).pc3
  4
ANSI_A_(8.50_x_11.00_Inches)
  6

 40
5.8
 41
17.8
 42
5.8
 43
17.8
 44
215.9
 45
279.4
 46
0.0
 47
0.0
 48
0.0
 49
0.0
140
0.0
141
0.0
142
1.0
143
14.53
 70
11952
 72
0
 73
1
 74
0
  7

 75
0
147
0.069
148
114.98
149
300.29
100
AcDbLayout
  1
Model
 70
1
 71
0
 10
0.0
 20
0.0
 11
12.0
 21
9.0
 12
0.0
 22
0.0
 32
0.0
 14
0.0
 24
0.0
 34
0.0
 15
0.0
 25
0.0
 35
0.0
146
0.0
 13
0.0
 23
0.0
 33
0.0
 16
1.0
 26
0.0
 36
0.0
 17
0.0
 27
1.0
 37
0.0
 76
0
330
1F
  0
LAYOUT
  5
508
330
4FD
100
AcDbPlotSettings
  1

  2
DWFx ePlot (XPS Compatible).pc3
  4
ANSI_A_(8.50_x_11.00_Inches)
  6

 40
5.8
 41
17.8
 42
5.8
 43
17.8
 44
215.9
 45
279.4
 46
0.0
 47
0.0
 48
0.0
 49
0.0
140
0.0
141
0.0
142
1.0
143
1.0
 70
688
 72
0
 73
1
 74
5
  7
acad.ctb
 75
16
147
1.0
148
0.0
149
0.0
100
AcDbLayout
  1
Layout1
 70
1
 71
1
 10
-0.7
 20
-0.23
 11
10.3
 21
8.27
 12
0.0
 22
0.0
 32
0.0
 14
0.63
 24
0.8
 34
0.0
 15
9.0
 25
7.2
 35
0.0
146
0.0
 13
0.0
 23
0.0
 33
0.0
 16
1.0
 26
0.0
 36
0.0
 17
0.0
 27
1.0
 37
0.0
 76
0
330
58
  0
ENDSEC
  0
EOF
