999
dxfrw 0.5.13
0
SECTION
2
HEADER
9
$ACADVER
1
AC1021
9
$HANDSEED
5
20000
9
$DWGCODEPAGE
3
ANSI_1250
9
$INSBASE
10
0
20
0
30
0
9
$EXTMIN
10
-445
20
-31
30
0
9
$EXTMAX
10
441
20
745.548973169
30
0
9
$LIMMIN
10
0
20
0
9
$LIMMAX
10
420
20
297
9
$ORTHOMODE
70
0
9
$LTSCALE
40
1
9
$TEXTSTYLE
7
STANDARD
9
$CLAYER
8
HOLES
9
$DIMASZ
40
3.5
9
$DIMLFAC
40
1
9
$DIMSCALE
40
1
9
$DIMEXO
40
1
9
$DIMEXE
40
1
9
$DIMTXT
40
3.5
9
$DIMTSZ
40
0
9
$DIMAUNIT
70
0
9
$DIMADEC
70
0
9
$DIMLUNIT
70
2
9
$DIMSTYLE
2
AM_ISO
9
$DIMGAP
40
1.5
9
$DIMTIH
70
0
9
$LUNITS
70
2
9
$LUPREC
70
2
9
$AUNITS
70
0
9
$AUPREC
70
0
9
$SPLINESEGS
70
8
9
$GRIDMODE
70
1
9
$SNAPSTYLE
70
0
9
$PINSBASE
10
0
20
0
30
0
9
$PLIMMIN
10
0
20
0
9
$PLIMMAX
10
0
20
0
9
$INSUNITS
70
4
9
$PSVPSCALE
40
1
0
ENDSEC
0
SECTION
2
CLASSES
0
ENDSEC
0
SECTION
2
TABLES
0
TABLE
2
VPORT
5
8
330
0
100
AcDbSymbolTable
70
1
0
VPORT
5
31
330
2
100
AcDbSymbolTableRecord
100
AcDbViewportTableRecord
2
*ACTIVE
70
0
10
0
20
0
11
1
21
1
12
473.417103394
22
379.216761392
13
0
23
0
14
10
24
10
15
10
25
10
16
0
26
0
36
1
17
0
27
0
37
0
40
800.702907015
41
2.36953242836
42
50
43
0
44
0
50
0
51
0
71
0
72
100
73
1
74
3
75
0
76
1
77
0
78
0
281
0
65
1
110
0
120
0
130
0
111
1
121
0
131
0
112
0
122
1
132
0
79
0
146
0
348
10020
60
7
61
5
292
1
282
1
141
0
142
0
63
250
421
3358443
0
ENDTAB
0
TABLE
2
LTYPE
5
5
330
0
100
AcDbSymbolTable
70
4
0
LTYPE
5
14
330
5
100
AcDbSymbolTableRecord
100
AcDbLinetypeTableRecord
2
ByBlock
70
0
3

72
65
73
0
40
0
0
LTYPE
5
15
330
5
100
AcDbSymbolTableRecord
100
AcDbLinetypeTableRecord
2
ByLayer
70
0
3

72
65
73
0
40
0
0
LTYPE
5
16
330
5
100
AcDbSymbolTableRecord
100
AcDbLinetypeTableRecord
2
Continuous
70
0
3
Solid line
72
65
73
0
40
0
0
LTYPE
5
32
330
5
100
AcDbSymbolTableRecord
100
AcDbLinetypeTableRecord
2
DOT
70
0
3
Dot . . . . . . . . . . . . . . . . . . . . . .
72
65
73
2
40
6.35
49
0
74
0
49
-6.35
74
0
0
LTYPE
5
33
330
5
100
AcDbSymbolTableRecord
100
AcDbLinetypeTableRecord
2
DOT2
70
0
3
Dot (.5x) .....................................
72
65
73
2
40
3.175
49
0
74
0
49
-3.175
74
0
0
LTYPE
5
34
330
5
100
AcDbSymbolTableRecord
100
AcDbLinetypeTableRecord
2
DOTX2
70
0
3
Dot (2x) .  .  .  .  .  .  .  .  .  .  .  .  .
72
65
73
2
40
12.7
49
0
74
0
49
-12.7
74
0
0
LTYPE
5
35
330
5
100
AcDbSymbolTableRecord
100
AcDbLinetypeTableRecord
2
DASHED
70
0
3
Dot . . . . . . . . . . . . . . . . . . . . . .
72
65
73
2
40
19.05
49
12.7
74
0
49
-6.35
74
0
0
LTYPE
5
36
330
5
100
AcDbSymbolTableRecord
100
AcDbLinetypeTableRecord
2
DASHED2
70
0
3
Dashed (.5x) _ _ _ _ _ _ _ _ _ _ _ _ _ _ _ _ _
72
65
73
2
40
9.525
49
6.35
74
0
49
-3.175
74
0
0
LTYPE
5
37
330
5
100
AcDbSymbolTableRecord
100
AcDbLinetypeTableRecord
2
DASHEDX2
70
0
3
Dashed (2x) ____  ____  ____  ____  ____  ___
72
65
73
2
40
38.1
49
25.4
74
0
49
-12.7
74
0
0
LTYPE
5
38
330
5
100
AcDbSymbolTableRecord
100
AcDbLinetypeTableRecord
2
DASHDOT
70
0
3
Dash dot __ . __ . __ . __ . __ . __ . __ . __
72
65
73
4
40
25.4
49
12.7
74
0
49
-6.35
74
0
49
0
74
0
49
-6.35
74
0
0
LTYPE
5
39
330
5
100
AcDbSymbolTableRecord
100
AcDbLinetypeTableRecord
2
DASHDOT2
70
0
3
Dash dot (.5x) _._._._._._._._._._._._._._._.
72
65
73
4
40
12.7
49
6.35
74
0
49
-3.175
74
0
49
0
74
0
49
-3.175
74
0
0
LTYPE
5
3A
330
5
100
AcDbSymbolTableRecord
100
AcDbLinetypeTableRecord
2
DASHDOTX2
70
0
3
Dash dot (2x) ____  .  ____  .  ____  .  ___
72
65
73
4
40
50.8
49
25.4
74
0
49
-12.7
74
0
49
0
74
0
49
-12.7
74
0
0
LTYPE
5
3B
330
5
100
AcDbSymbolTableRecord
100
AcDbLinetypeTableRecord
2
DIVIDE
70
0
3
Divide ____ . . ____ . . ____ . . ____ . . ____
72
65
73
6
40
31.75
49
12.7
74
0
49
-6.35
74
0
49
0
74
0
49
-6.35
74
0
49
0
74
0
49
-6.35
74
0
0
LTYPE
5
3C
330
5
100
AcDbSymbolTableRecord
100
AcDbLinetypeTableRecord
2
DIVIDE2
70
0
3
Divide (.5x) __..__..__..__..__..__..__..__.._
72
65
73
6
40
15.875
49
6.35
74
0
49
-3.175
74
0
49
0
74
0
49
-3.175
74
0
49
0
74
0
49
-3.175
74
0
0
LTYPE
5
3D
330
5
100
AcDbSymbolTableRecord
100
AcDbLinetypeTableRecord
2
DIVIDEX2
70
0
3
Divide (2x) ________  .  .  ________  .  .  _
72
65
73
6
40
63.5
49
25.4
74
0
49
-12.7
74
0
49
0
74
0
49
-12.7
74
0
49
0
74
0
49
-12.7
74
0
0
LTYPE
5
3E
330
5
100
AcDbSymbolTableRecord
100
AcDbLinetypeTableRecord
2
BORDER
70
0
3
Border __ __ . __ __ . __ __ . __ __ . __ __ .
72
65
73
6
40
44.45
49
12.7
74
0
49
-6.35
74
0
49
12.7
74
0
49
-6.35
74
0
49
0
74
0
49
-6.35
74
0
0
LTYPE
5
3F
330
5
100
AcDbSymbolTableRecord
100
AcDbLinetypeTableRecord
2
BORDER2
70
0
3
Border (.5x) __.__.__.__.__.__.__.__.__.__.__.
72
65
73
6
40
22.225
49
6.35
74
0
49
-3.175
74
0
49
6.35
74
0
49
-3.175
74
0
49
0
74
0
49
-3.175
74
0
0
LTYPE
5
40
330
5
100
AcDbSymbolTableRecord
100
AcDbLinetypeTableRecord
2
BORDERX2
70
0
3
Border (2x) ____  ____  .  ____  ____  .  ___
72
65
73
6
40
88.9
49
25.4
74
0
49
-12.7
74
0
49
25.4
74
0
49
-12.7
74
0
49
0
74
0
49
-12.7
74
0
0
LTYPE
5
41
330
5
100
AcDbSymbolTableRecord
100
AcDbLinetypeTableRecord
2
CENTER
70
0
3
Center ____ _ ____ _ ____ _ ____ _ ____ _ ____
72
65
73
4
40
50.8
49
31.75
74
0
49
-6.35
74
0
49
6.35
74
0
49
-6.35
74
0
0
LTYPE
5
42
330
5
100
AcDbSymbolTableRecord
100
AcDbLinetypeTableRecord
2
CENTER2
70
0
3
Center (.5x) ___ _ ___ _ ___ _ ___ _ ___ _ ___
72
65
73
4
40
28.575
49
19.05
74
0
49
-3.175
74
0
49
3.175
74
0
49
-3.175
74
0
0
LTYPE
5
43
330
5
100
AcDbSymbolTableRecord
100
AcDbLinetypeTableRecord
2
CENTERX2
70
0
3
Center (2x) ________  __  ________  __  _____
72
65
73
4
40
101.6
49
63.5
74
0
49
-12.7
74
0
49
12.7
74
0
49
-12.7
74
0
0
ENDTAB
0
TABLE
2
LAYER
5
2
330
0
100
AcDbSymbolTable
70
1
0
LAYER
5
10
330
2
100
AcDbSymbolTableRecord
100
AcDbLayerTableRecord
2
0
70
0
62
2
6
CONTINUOUS
370
-3
390
F
0
LAYER
5
44
330
2
100
AcDbSymbolTableRecord
100
AcDbLayerTableRecord
2
AM_0
70
0
62
7
6
CONTINUOUS
370
-3
390
F
0
LAYER
5
45
330
2
100
AcDbSymbolTableRecord
100
AcDbLayerTableRecord
2
ELEKTRONIKA
70
0
62
149
6
CONTINUOUS
370
-3
390
F
0
LAYER
5
46
330
2
100
AcDbSymbolTableRecord
100
AcDbLayerTableRecord
2
GRAVIRANJE
70
1
62
3
6
CONTINUOUS
370
-3
390
F
0
LAYER
5
47
330
2
100
AcDbSymbolTableRecord
100
AcDbLayerTableRecord
2
HOLES
70
0
62
160
6
CONTINUOUS
370
-3
390
F
0
LAYER
5
48
330
2
100
AcDbSymbolTableRecord
100
AcDbLayerTableRecord
2
IZREZ
70
0
62
7
6
CONTINUOUS
370
-3
390
F
0
LAYER
5
49
330
2
100
AcDbSymbolTableRecord
100
AcDbLayerTableRecord
2
PLOŠČE
70
0
62
1
6
CONTINUOUS
370
-3
390
F
0
LAYER
5
4A
330
2
100
AcDbSymbolTableRecord
100
AcDbLayerTableRecord
2
PRVI_IZREZ
70
0
62
6
6
CONTINUOUS
370
-3
390
F
0
ENDTAB
0
TABLE
2
STYLE
5
3
330
0
100
AcDbSymbolTable
70
3
0
STYLE
5
4B
330
2
100
AcDbSymbolTableRecord
100
AcDbTextStyleTableRecord
2
standard
70
0
40
0
41
1
50
0
71
0
42
1
3
standard
4

0
ENDTAB
0
TABLE
2
VIEW
5
6
330
0
100
AcDbSymbolTable
70
0
0
ENDTAB
0
TABLE
2
UCS
5
7
330
0
100
AcDbSymbolTable
70
0
0
ENDTAB
0
TABLE
2
APPID
5
9
330
0
100
AcDbSymbolTable
70
1
0
APPID
5
12
330
9
100
AcDbSymbolTableRecord
100
AcDbRegAppTableRecord
2
ACAD
70
0
0
APPID
5
4C
330
9
100
AcDbSymbolTableRecord
100
AcDbRegAppTableRecord
2
LibreCad
70
0
0
ENDTAB
0
TABLE
2
DIMSTYLE
5
A
330
0
100
AcDbSymbolTable
70
1
100
AcDbDimStyleTable
71
1
0
DIMSTYLE
105
4D
330
A
100
AcDbSymbolTableRecord
100
AcDbDimStyleTableRecord
2
Standard
70
0
40
1
41
3.5
42
1
43
0.38
44
1
45
0
46
0
47
0
48
0
140
3.5
141
0.09
142
0
143
25.4
144
1
145
0
146
1
147
1.5
148
0
71
0
72
0
73
0
74
1
75
0
76
0
77
0
78
0
79
0
170
0
171
2
172
0
173
0
174
0
175
0
176
0
177
0
178
0
179
0
271
4
272
4
273
2
274
2
275
0
276
0
277
2
278
46
279
0
280
0
281
0
282
0
283
1
284
0
285
0
286
0
288
0
289
3
340
Standard
341

371
-2
372
-2
0
ENDTAB
0
TABLE
2
BLOCK_RECORD
5
1
330
0
100
AcDbSymbolTable
70
2
0
BLOCK_RECORD
5
1F
330
1
100
AcDbSymbolTableRecord
100
AcDbBlockTableRecord
2
*Model_Space
70
0
280
1
281
0
0
BLOCK_RECORD
5
1E
330
1
100
AcDbSymbolTableRecord
100
AcDbBlockTableRecord
2
*Paper_Space
70
0
280
1
281
0
0
BLOCK_RECORD
5
4E
330
1
100
AcDbSymbolTableRecord
100
AcDbBlockTableRecord
2
*D8
70
0
280
1
281
0
0
BLOCK_RECORD
5
51
330
1
100
AcDbSymbolTableRecord
100
AcDbBlockTableRecord
2
*D10
70
0
280
1
281
0
0
BLOCK_RECORD
5
54
330
1
100
AcDbSymbolTableRecord
100
AcDbBlockTableRecord
2
*D16
70
0
280
1
281
0
0
BLOCK_RECORD
5
57
330
1
100
AcDbSymbolTableRecord
100
AcDbBlockTableRecord
2
*D14
70
0
280
1
281
0
0
BLOCK_RECORD
5
5A
330
1
100
AcDbSymbolTableRecord
100
AcDbBlockTableRecord
2
*D4
70
0
280
1
281
0
0
BLOCK_RECORD
5
5D
330
1
100
AcDbSymbolTableRecord
100
AcDbBlockTableRecord
2
*D12
70
0
280
1
281
0
0
BLOCK_RECORD
5
60
330
1
100
AcDbSymbolTableRecord
100
AcDbBlockTableRecord
2
*D18
70
0
280
1
281
0
0
BLOCK_RECORD
5
63
330
1
100
AcDbSymbolTableRecord
100
AcDbBlockTableRecord
2
*D17
70
0
280
1
281
0
0
BLOCK_RECORD
5
66
330
1
100
AcDbSymbolTableRecord
100
AcDbBlockTableRecord
2
*D3
70
0
280
1
281
0
0
BLOCK_RECORD
5
69
330
1
100
AcDbSymbolTableRecord
100
AcDbBlockTableRecord
2
*D9
70
0
280
1
281
0
0
BLOCK_RECORD
5
6C
330
1
100
AcDbSymbolTableRecord
100
AcDbBlockTableRecord
2
*D15
70
0
280
1
281
0
0
BLOCK_RECORD
5
6F
330
1
100
AcDbSymbolTableRecord
100
AcDbBlockTableRecord
2
*D6
70
0
280
1
281
0
0
BLOCK_RECORD
5
72
330
1
100
AcDbSymbolTableRecord
100
AcDbBlockTableRecord
2
*D2
70
0
280
1
281
0
0
BLOCK_RECORD
5
75
330
1
100
AcDbSymbolTableRecord
100
AcDbBlockTableRecord
2
*D5
70
0
280
1
281
0
0
BLOCK_RECORD
5
78
330
1
100
AcDbSymbolTableRecord
100
AcDbBlockTableRecord
2
*D1
70
0
280
1
281
0
0
BLOCK_RECORD
5
7B
330
1
100
AcDbSymbolTableRecord
100
AcDbBlockTableRecord
2
*D7
70
0
280
1
281
0
0
BLOCK_RECORD
5
7E
330
1
100
AcDbSymbolTableRecord
100
AcDbBlockTableRecord
2
*D11
70
0
280
1
281
0
0
BLOCK_RECORD
5
81
330
1
100
AcDbSymbolTableRecord
100
AcDbBlockTableRecord
2
*D13
70
0
280
1
281
0
0
BLOCK_RECORD
5
84
330
1
100
AcDbSymbolTableRecord
100
AcDbBlockTableRecord
2
GENAXEH
70
0
280
1
281
0
0
ENDTAB
0
ENDSEC
0
SECTION
2
BLOCKS
0
BLOCK
5
20
330
1F
100
AcDbEntity
8
0
100
AcDbBlockBegin
2
*Model_Space
70
0
10
0
20
0
30
0
3
*Model_Space
1

0
ENDBLK
5
21
330
1F
100
AcDbEntity
8
0
100
AcDbBlockEnd
0
BLOCK
5
1C
330
1B
100
AcDbEntity
8
0
100
AcDbBlockBegin
2
*Paper_Space
70
0
10
0
20
0
30
0
3
*Paper_Space
1

0
ENDBLK
5
1D
330
1F
100
AcDbEntity
8
0
100
AcDbBlockEnd
0
BLOCK
5
4F
330
4E
100
AcDbEntity
8
0
100
AcDbBlockBegin
2
*D8
70
1
10
0
20
0
3
*D8
1

0
LINE
5
87
100
AcDbEntity
8
0
6
CONTINUOUS
62
7
370
0
100
AcDbLine
10
-9
20
82
11
-9
21
82
0
LINE
5
88
100
AcDbEntity
8
0
6
CONTINUOUS
62
7
370
0
100
AcDbLine
10
-407
20
82
11
-407
21
82
0
LINE
5
89
100
AcDbEntity
8
0
6
CONTINUOUS
62
7
370
0
100
AcDbLine
10
-10
20
82
11
-408
21
82
0
SOLID
5
8A
100
AcDbEntity
8
0
6
CONTINUOUS
62
7
370
0
100
AcDbTrace
10
-10
20
82
30
0
11
-13.5
21
81.4172014791
31
0
12
-13.5
22
82.5827985209
32
0
13
-13.5
23
82.5827985209
33
0
0
SOLID
5
8B
100
AcDbEntity
8
0
6
CONTINUOUS
62
7
370
0
100
AcDbTrace
10
-408
20
82
30
0
11
-404.5
21
82.5827985209
31
0
12
-404.5
22
81.4172014791
32
0
13
-404.5
23
81.4172014791
33
0
0
MTEXT
5
8C
100
AcDbEntity
8
0
6
CONTINUOUS
62
7
370
0
100
AcDbMText
10
-209
20
85.25
30
0
40
3.5
41
13.6111111111
71
5
72
1
1
398.00
7
standard
210
0
220
0
230
1
50
360
73
2
44
1
0
ENDBLK
5
50
330
4E
100
AcDbEntity
8
0
100
AcDbBlockEnd
0
BLOCK
5
52
330
51
100
AcDbEntity
8
0
100
AcDbBlockBegin
2
*D10
70
1
10
0
20
0
3
*D10
1

0
LINE
5
8D
100
AcDbEntity
8
0
6
CONTINUOUS
62
7
370
0
100
AcDbLine
10
409
20
10
11
431
21
10
0
LINE
5
8E
100
AcDbEntity
8
0
6
CONTINUOUS
62
7
370
0
100
AcDbLine
10
409
20
209
11
431
21
209
0
LINE
5
8F
100
AcDbEntity
8
0
6
CONTINUOUS
62
7
370
0
100
AcDbLine
10
430
20
10
11
430
21
209
0
SOLID
5
90
100
AcDbEntity
8
0
6
CONTINUOUS
62
7
370
0
100
AcDbTrace
10
430
20
10
30
0
11
429.417201479
21
13.5
31
0
12
430.582798521
22
13.5
32
0
13
430.582798521
23
13.5
33
0
0
SOLID
5
91
100
AcDbEntity
8
0
6
CONTINUOUS
62
7
370
0
100
AcDbTrace
10
430
20
209
30
0
11
430.582798521
21
205.5
31
0
12
429.417201479
22
205.5
32
0
13
429.417201479
23
205.5
33
0
0
MTEXT
5
92
100
AcDbEntity
8
0
6
CONTINUOUS
62
7
370
0
100
AcDbMText
10
426.75
20
109.5
30
0
40
3.5
41
12.8333333333
71
5
72
1
1
199.00
7
standard
210
0
220
0
230
1
50
90
73
2
44
1
0
ENDBLK
5
53
330
51
100
AcDbEntity
8
0
100
AcDbBlockEnd
0
BLOCK
5
55
330
54
100
AcDbEntity
8
0
100
AcDbBlockBegin
2
*D16
70
1
10
0
20
0
3
*D16
1

0
LINE
5
93
100
AcDbEntity
8
0
6
CONTINUOUS
62
7
370
0
100
AcDbLine
10
-112
20
724
11
-112
21
716
0
LINE
5
94
100
AcDbEntity
8
0
6
CONTINUOUS
62
7
370
0
100
AcDbLine
10
-192
20
724
11
-192
21
716
0
LINE
5
95
100
AcDbEntity
8
0
6
CONTINUOUS
62
7
370
0
100
AcDbLine
10
-112
20
717
11
-192
21
717
0
SOLID
5
96
100
AcDbEntity
8
0
6
CONTINUOUS
62
7
370
0
100
AcDbTrace
10
-112
20
717
30
0
11
-115.5
21
716.417201479
31
0
12
-115.5
22
717.582798521
32
0
13
-115.5
23
717.582798521
33
0
0
SOLID
5
97
100
AcDbEntity
8
0
6
CONTINUOUS
62
7
370
0
100
AcDbTrace
10
-192
20
717
30
0
11
-188.5
21
717.582798521
31
0
12
-188.5
22
716.417201479
32
0
13
-188.5
23
716.417201479
33
0
0
MTEXT
5
98
100
AcDbEntity
8
0
6
CONTINUOUS
62
7
370
0
100
AcDbMText
10
-152
20
720.25
30
0
40
3.5
41
10.8888888889
71
5
72
1
1
80.00
7
standard
210
0
220
0
230
1
50
360
73
2
44
1
0
ENDBLK
5
56
330
54
100
AcDbEntity
8
0
100
AcDbBlockEnd
0
BLOCK
5
58
330
57
100
AcDbEntity
8
0
100
AcDbBlockBegin
2
*D14
70
1
10
0
20
0
3
*D14
1

0
LINE
5
99
100
AcDbEntity
8
0
6
CONTINUOUS
62
7
370
0
100
AcDbLine
10
10
20
9
11
10
21
-31
0
LINE
5
9A
100
AcDbEntity
8
0
6
CONTINUOUS
62
7
370
0
100
AcDbLine
10
320
20
9
11
320
21
-31
0
LINE
5
9B
100
AcDbEntity
8
0
6
CONTINUOUS
62
7
370
0
100
AcDbLine
10
10
20
-30
11
320
21
-30
0
SOLID
5
9C
100
AcDbEntity
8
0
6
CONTINUOUS
62
7
370
0
100
AcDbTrace
10
10
20
-30
30
0
11
13.5
21
-29.4172014791
31
0
12
13.5
22
-30.5827985209
32
0
13
13.5
23
-30.5827985209
33
0
0
SOLID
5
9D
100
AcDbEntity
8
0
6
CONTINUOUS
62
7
370
0
100
AcDbTrace
10
320
20
-30
30
0
11
316.5
21
-30.5827985209
31
0
12
316.5
22
-29.4172014791
32
0
13
316.5
23
-29.4172014791
33
0
0
MTEXT
5
9E
100
AcDbEntity
8
0
6
CONTINUOUS
62
7
370
0
100
AcDbMText
10
165
20
-26.75
30
0
40
3.5
41
12.8333333333
71
5
72
1
1
310.00
7
standard
210
0
220
0
230
1
50
0
73
2
44
1
0
ENDBLK
5
59
330
57
100
AcDbEntity
8
0
100
AcDbBlockEnd
0
BLOCK
5
5B
330
5A
100
AcDbEntity
8
0
100
AcDbBlockBegin
2
*D4
70
1
10
0
20
0
3
*D4
1

0
LINE
5
9F
100
AcDbEntity
8
0
6
CONTINUOUS
62
7
370
0
100
AcDbLine
10
-379
20
10
11
-379
21
10
0
LINE
5
A0
100
AcDbEntity
8
0
6
CONTINUOUS
62
7
370
0
100
AcDbLine
10
-379
20
407
11
-379
21
407
0
LINE
5
A1
100
AcDbEntity
8
0
6
CONTINUOUS
62
7
370
0
100
AcDbLine
10
-380
20
10
11
-380
21
407
0
SOLID
5
A2
100
AcDbEntity
8
0
6
CONTINUOUS
62
7
370
0
100
AcDbTrace
10
-380
20
10
30
0
11
-380.582798521
21
13.5
31
0
12
-379.417201479
22
13.5
32
0
13
-379.417201479
23
13.5
33
0
0
SOLID
5
A3
100
AcDbEntity
8
0
6
CONTINUOUS
62
7
370
0
100
AcDbTrace
10
-380
20
407
30
0
11
-379.417201479
21
403.5
31
0
12
-380.582798521
22
403.5
32
0
13
-380.582798521
23
403.5
33
0
0
MTEXT
5
A4
100
AcDbEntity
8
0
6
CONTINUOUS
62
7
370
0
100
AcDbMText
10
-376.75
20
208.5
30
0
40
3.5
41
13.6111111111
71
5
72
1
1
397.00
7
standard
210
0
220
0
230
1
50
90
73
2
44
1
0
ENDBLK
5
5C
330
5A
100
AcDbEntity
8
0
100
AcDbBlockEnd
0
BLOCK
5
5E
330
5D
100
AcDbEntity
8
0
100
AcDbBlockBegin
2
*D12
70
1
10
0
20
0
3
*D12
1

0
LINE
5
A5
100
AcDbEntity
8
0
6
CONTINUOUS
62
7
370
0
100
AcDbLine
10
10
20
9
11
10
21
-11
0
LINE
5
A6
100
AcDbEntity
8
0
6
CONTINUOUS
62
7
370
0
100
AcDbLine
10
90
20
9
11
90
21
-11
0
LINE
5
A7
100
AcDbEntity
8
0
6
CONTINUOUS
62
7
370
0
100
AcDbLine
10
10
20
-10
11
90
21
-10
0
SOLID
5
A8
100
AcDbEntity
8
0
6
CONTINUOUS
62
7
370
0
100
AcDbTrace
10
10
20
-10
30
0
11
13.5
21
-9.41720147912
31
0
12
13.5
22
-10.5827985209
32
0
13
13.5
23
-10.5827985209
33
0
0
SOLID
5
A9
100
AcDbEntity
8
0
6
CONTINUOUS
62
7
370
0
100
AcDbTrace
10
90
20
-10
30
0
11
86.5
21
-10.5827985209
31
0
12
86.5
22
-9.41720147912
32
0
13
86.5
23
-9.41720147912
33
0
0
MTEXT
5
AA
100
AcDbEntity
8
0
6
CONTINUOUS
62
7
370
0
100
AcDbMText
10
50
20
-6.75
30
0
40
3.5
41
10.8888888889
71
5
72
1
1
80.00
7
standard
210
0
220
0
230
1
50
0
73
2
44
1
0
ENDBLK
5
5F
330
5D
100
AcDbEntity
8
0
100
AcDbBlockEnd
0
BLOCK
5
61
330
60
100
AcDbEntity
8
0
100
AcDbBlockBegin
2
*D18
70
1
10
0
20
0
3
*D18
1

0
LINE
5
AB
100
AcDbEntity
8
0
6
CONTINUOUS
62
7
370
0
100
AcDbLine
10
-274
20
386
11
-279.775
21
386
0
LINE
5
AC
100
AcDbEntity
8
0
6
CONTINUOUS
62
7
370
0
100
AcDbLine
10
-274
20
407
11
-279.775
21
407
0
LINE
5
AD
100
AcDbEntity
8
0
6
CONTINUOUS
62
7
370
0
100
AcDbLine
10
-278.775
20
386
11
-278.775
21
407
0
SOLID
5
AE
100
AcDbEntity
8
0
6
CONTINUOUS
62
7
370
0
100
AcDbTrace
10
-278.775
20
386
30
0
11
-279.357798521
21
389.5
31
0
12
-278.192201479
22
389.5
32
0
13
-278.192201479
23
389.5
33
0
0
SOLID
5
AF
100
AcDbEntity
8
0
6
CONTINUOUS
62
7
370
0
100
AcDbTrace
10
-278.775
20
407
30
0
11
-278.192201479
21
403.5
31
0
12
-279.357798521
22
403.5
32
0
13
-279.357798521
23
403.5
33
0
0
MTEXT
5
B0
100
AcDbEntity
8
0
6
CONTINUOUS
62
7
370
0
100
AcDbMText
10
-282.025
20
396.5
30
0
40
3.5
41
10.1111111111
71
5
72
1
1
21.00
7
standard
210
0
220
0
230
1
50
90
73
2
44
1
0
ENDBLK
5
62
330
60
100
AcDbEntity
8
0
100
AcDbBlockEnd
0
BLOCK
5
64
330
63
100
AcDbEntity
8
0
100
AcDbBlockBegin
2
*D17
70
1
10
0
20
0
3
*D17
1

0
LINE
5
B1
100
AcDbEntity
8
0
6
CONTINUOUS
62
7
370
0
100
AcDbLine
10
-272.999974273
20
724.992826943
11
-284.848726529
21
724.907832987
0
LINE
5
B2
100
AcDbEntity
8
0
6
CONTINUOUS
62
7
370
0
100
AcDbLine
10
-273.147378511
20
745.542009206
11
-284.996130767
21
745.45701525
0
LINE
5
B3
100
AcDbEntity
8
0
6
CONTINUOUS
62
7
370
0
100
AcDbLine
10
-283.848752256
20
724.915006044
11
-283.996156494
21
745.464188307
0
SOLID
5
B4
100
AcDbEntity
8
0
6
CONTINUOUS
62
7
370
0
100
AcDbTrace
10
-283.848752256
20
724.915006044
30
0
11
-284.456641481
21
728.410735554
31
0
12
-283.291074426
22
728.419096447
32
0
13
-283.291074426
23
728.419096447
33
0
0
SOLID
5
B5
100
AcDbEntity
8
0
6
CONTINUOUS
62
7
370
0
100
AcDbTrace
10
-283.996156494
20
745.464188307
30
0
11
-283.388267268
21
741.968458797
31
0
12
-284.553834323
22
741.960097903
32
0
13
-284.553834323
23
741.960097903
33
0
0
MTEXT
5
B6
100
AcDbEntity
8
0
6
CONTINUOUS
62
7
370
0
100
AcDbMText
10
-280.672537986
20
735.212909609
30
0
40
3.5
41
10.8888888889
71
5
72
1
1
20.55
7
standard
210
0
220
0
230
1
50
270.410989389
73
2
44
1
0
ENDBLK
5
65
330
63
100
AcDbEntity
8
0
100
AcDbBlockEnd
0
BLOCK
5
67
330
66
100
AcDbEntity
8
0
100
AcDbBlockBegin
2
*D3
70
1
10
0
20
0
3
*D3
1

0
LINE
5
B7
100
AcDbEntity
8
0
6
CONTINUOUS
62
7
370
0
100
AcDbLine
10
-10
20
9
11
-10
21
-31
0
LINE
5
B8
100
AcDbEntity
8
0
6
CONTINUOUS
62
7
370
0
100
AcDbLine
10
-368
20
9
11
-368
21
-31
0
LINE
5
B9
100
AcDbEntity
8
0
6
CONTINUOUS
62
7
370
0
100
AcDbLine
10
-10
20
-30
11
-368
21
-30
0
SOLID
5
BA
100
AcDbEntity
8
0
6
CONTINUOUS
62
7
370
0
100
AcDbTrace
10
-10
20
-30
30
0
11
-13.5
21
-30.5827985209
31
0
12
-13.5
22
-29.4172014791
32
0
13
-13.5
23
-29.4172014791
33
0
0
SOLID
5
BB
100
AcDbEntity
8
0
6
CONTINUOUS
62
7
370
0
100
AcDbTrace
10
-368
20
-30
30
0
11
-364.5
21
-29.4172014791
31
0
12
-364.5
22
-30.5827985209
32
0
13
-364.5
23
-30.5827985209
33
0
0
MTEXT
5
BC
100
AcDbEntity
8
0
6
CONTINUOUS
62
7
370
0
100
AcDbMText
10
-189
20
-26.75
30
0
40
3.5
41
13.6111111111
71
5
72
1
1
358.00
7
standard
210
0
220
0
230
1
50
360
73
2
44
1
0
ENDBLK
5
68
330
66
100
AcDbEntity
8
0
100
AcDbBlockEnd
0
BLOCK
5
6A
330
69
100
AcDbEntity
8
0
100
AcDbBlockBegin
2
*D9
70
1
10
0
20
0
3
*D9
1

0
LINE
5
BD
100
AcDbEntity
8
0
6
CONTINUOUS
62
7
370
0
100
AcDbLine
10
409
20
10
11
421
21
10
0
LINE
5
BE
100
AcDbEntity
8
0
6
CONTINUOUS
62
7
370
0
100
AcDbLine
10
409
20
69
11
421
21
69
0
LINE
5
BF
100
AcDbEntity
8
0
6
CONTINUOUS
62
7
370
0
100
AcDbLine
10
420
20
10
11
420
21
69
0
SOLID
5
C0
100
AcDbEntity
8
0
6
CONTINUOUS
62
7
370
0
100
AcDbTrace
10
420
20
10
30
0
11
419.417201479
21
13.5
31
0
12
420.582798521
22
13.5
32
0
13
420.582798521
23
13.5
33
0
0
SOLID
5
C1
100
AcDbEntity
8
0
6
CONTINUOUS
62
7
370
0
100
AcDbTrace
10
420
20
69
30
0
11
420.582798521
21
65.5
31
0
12
419.417201479
22
65.5
32
0
13
419.417201479
23
65.5
33
0
0
MTEXT
5
C2
100
AcDbEntity
8
0
6
CONTINUOUS
62
7
370
0
100
AcDbMText
10
416.75
20
39.5
30
0
40
3.5
41
10.8888888889
71
5
72
1
1
59.00
7
standard
210
0
220
0
230
1
50
90
73
2
44
1
0
ENDBLK
5
6B
330
69
100
AcDbEntity
8
0
100
AcDbBlockEnd
0
BLOCK
5
6D
330
6C
100
AcDbEntity
8
0
100
AcDbBlockBegin
2
*D15
70
1
10
0
20
0
3
*D15
1

0
LINE
5
C3
100
AcDbEntity
8
0
6
CONTINUOUS
62
7
370
0
100
AcDbLine
10
-272
20
724
11
-272
21
699
0
LINE
5
C4
100
AcDbEntity
8
0
6
CONTINUOUS
62
7
370
0
100
AcDbLine
10
-112
20
724
11
-112
21
699
0
LINE
5
C5
100
AcDbEntity
8
0
6
CONTINUOUS
62
7
370
0
100
AcDbLine
10
-272
20
700
11
-112
21
700
0
SOLID
5
C6
100
AcDbEntity
8
0
6
CONTINUOUS
62
7
370
0
100
AcDbTrace
10
-272
20
700
30
0
11
-268.5
21
700.582798521
31
0
12
-268.5
22
699.417201479
32
0
13
-268.5
23
699.417201479
33
0
0
SOLID
5
C7
100
AcDbEntity
8
0
6
CONTINUOUS
62
7
370
0
100
AcDbTrace
10
-112
20
700
30
0
11
-115.5
21
699.417201479
31
0
12
-115.5
22
700.582798521
32
0
13
-115.5
23
700.582798521
33
0
0
MTEXT
5
C8
100
AcDbEntity
8
0
6
CONTINUOUS
62
7
370
0
100
AcDbMText
10
-192
20
703.25
30
0
40
3.5
41
12.8333333333
71
5
72
1
1
160.00
7
standard
210
0
220
0
230
1
50
0
73
2
44
1
0
ENDBLK
5
6E
330
6C
100
AcDbEntity
8
0
100
AcDbBlockEnd
0
BLOCK
5
70
330
6F
100
AcDbEntity
8
0
100
AcDbBlockBegin
2
*D6
70
1
10
0
20
0
3
*D6
1

0
LINE
5
C9
100
AcDbEntity
8
0
6
CONTINUOUS
62
7
370
0
100
AcDbLine
10
-409
20
10
11
-431
21
10
0
LINE
5
CA
100
AcDbEntity
8
0
6
CONTINUOUS
62
7
370
0
100
AcDbLine
10
-409
20
209
11
-431
21
209
0
LINE
5
CB
100
AcDbEntity
8
0
6
CONTINUOUS
62
7
370
0
100
AcDbLine
10
-430
20
10
11
-430
21
209
0
SOLID
5
CC
100
AcDbEntity
8
0
6
CONTINUOUS
62
7
370
0
100
AcDbTrace
10
-430
20
10
30
0
11
-430.582798521
21
13.5
31
0
12
-429.417201479
22
13.5
32
0
13
-429.417201479
23
13.5
33
0
0
SOLID
5
CD
100
AcDbEntity
8
0
6
CONTINUOUS
62
7
370
0
100
AcDbTrace
10
-430
20
209
30
0
11
-429.417201479
21
205.5
31
0
12
-430.582798521
22
205.5
32
0
13
-430.582798521
23
205.5
33
0
0
MTEXT
5
CE
100
AcDbEntity
8
0
6
CONTINUOUS
62
7
370
0
100
AcDbMText
10
-433.25
20
109.5
30
0
40
3.5
41
12.8333333333
71
5
72
1
1
199.00
7
standard
210
0
220
0
230
1
50
90
73
2
44
1
0
ENDBLK
5
71
330
6F
100
AcDbEntity
8
0
100
AcDbBlockEnd
0
BLOCK
5
73
330
72
100
AcDbEntity
8
0
100
AcDbBlockBegin
2
*D2
70
1
10
0
20
0
3
*D2
1

0
LINE
5
CF
100
AcDbEntity
8
0
6
CONTINUOUS
62
7
370
0
100
AcDbLine
10
-10
20
9
11
-10
21
-21
0
LINE
5
D0
100
AcDbEntity
8
0
6
CONTINUOUS
62
7
370
0
100
AcDbLine
10
-210
20
9
11
-210
21
-21
0
LINE
5
D1
100
AcDbEntity
8
0
6
CONTINUOUS
62
7
370
0
100
AcDbLine
10
-10
20
-20
11
-210
21
-20
0
SOLID
5
D2
100
AcDbEntity
8
0
6
CONTINUOUS
62
7
370
0
100
AcDbTrace
10
-10
20
-20
30
0
11
-13.5
21
-20.5827985209
31
0
12
-13.5
22
-19.4172014791
32
0
13
-13.5
23
-19.4172014791
33
0
0
SOLID
5
D3
100
AcDbEntity
8
0
6
CONTINUOUS
62
7
370
0
100
AcDbTrace
10
-210
20
-20
30
0
11
-206.5
21
-19.4172014791
31
0
12
-206.5
22
-20.5827985209
32
0
13
-206.5
23
-20.5827985209
33
0
0
MTEXT
5
D4
100
AcDbEntity
8
0
6
CONTINUOUS
62
7
370
0
100
AcDbMText
10
-110
20
-16.75
30
0
40
3.5
41
13.6111111111
71
5
72
1
1
200.00
7
standard
210
0
220
0
230
1
50
360
73
2
44
1
0
ENDBLK
5
74
330
72
100
AcDbEntity
8
0
100
AcDbBlockEnd
0
BLOCK
5
76
330
75
100
AcDbEntity
8
0
100
AcDbBlockBegin
2
*D5
70
1
10
0
20
0
3
*D5
1

0
LINE
5
D5
100
AcDbEntity
8
0
6
CONTINUOUS
62
7
370
0
100
AcDbLine
10
-409
20
10
11
-421
21
10
0
LINE
5
D6
100
AcDbEntity
8
0
6
CONTINUOUS
62
7
370
0
100
AcDbLine
10
-409
20
52
11
-421
21
52
0
LINE
5
D7
100
AcDbEntity
8
0
6
CONTINUOUS
62
7
370
0
100
AcDbLine
10
-420
20
10
11
-420
21
52
0
SOLID
5
D8
100
AcDbEntity
8
0
6
CONTINUOUS
62
7
370
0
100
AcDbTrace
10
-420
20
10
30
0
11
-420.582798521
21
13.5
31
0
12
-419.417201479
22
13.5
32
0
13
-419.417201479
23
13.5
33
0
0
SOLID
5
D9
100
AcDbEntity
8
0
6
CONTINUOUS
62
7
370
0
100
AcDbTrace
10
-420
20
52
30
0
11
-419.417201479
21
48.5
31
0
12
-420.582798521
22
48.5
32
0
13
-420.582798521
23
48.5
33
0
0
MTEXT
5
DA
100
AcDbEntity
8
0
6
CONTINUOUS
62
7
370
0
100
AcDbMText
10
-423.25
20
31
30
0
40
3.5
41
11.2777777778
71
5
72
1
1
42.00
7
standard
210
0
220
0
230
1
50
90
73
2
44
1
0
ENDBLK
5
77
330
75
100
AcDbEntity
8
0
100
AcDbBlockEnd
0
BLOCK
5
79
330
78
100
AcDbEntity
8
0
100
AcDbBlockBegin
2
*D1
70
1
10
0
20
0
3
*D1
1

0
LINE
5
DB
100
AcDbEntity
8
0
6
CONTINUOUS
62
7
370
0
100
AcDbLine
10
-10
20
9
11
-10
21
-11
0
LINE
5
DC
100
AcDbEntity
8
0
6
CONTINUOUS
62
7
370
0
100
AcDbLine
10
-50
20
9
11
-50
21
-11
0
LINE
5
DD
100
AcDbEntity
8
0
6
CONTINUOUS
62
7
370
0
100
AcDbLine
10
-10
20
-10
11
-50
21
-10
0
SOLID
5
DE
100
AcDbEntity
8
0
6
CONTINUOUS
62
7
370
0
100
AcDbTrace
10
-10
20
-10
30
0
11
-13.5
21
-10.5827985209
31
0
12
-13.5
22
-9.41720147912
32
0
13
-13.5
23
-9.41720147912
33
0
0
SOLID
5
DF
100
AcDbEntity
8
0
6
CONTINUOUS
62
7
370
0
100
AcDbTrace
10
-50
20
-10
30
0
11
-46.5
21
-9.41720147912
31
0
12
-46.5
22
-10.5827985209
32
0
13
-46.5
23
-10.5827985209
33
0
0
MTEXT
5
E0
100
AcDbEntity
8
0
6
CONTINUOUS
62
7
370
0
100
AcDbMText
10
-30
20
-6.75
30
0
40
3.5
41
11.2777777778
71
5
72
1
1
40.00
7
standard
210
0
220
0
230
1
50
360
73
2
44
1
0
ENDBLK
5
7A
330
78
100
AcDbEntity
8
0
100
AcDbBlockEnd
0
BLOCK
5
7C
330
7B
100
AcDbEntity
8
0
100
AcDbBlockBegin
2
*D7
70
1
10
0
20
0
3
*D7
1

0
LINE
5
E1
100
AcDbEntity
8
0
6
CONTINUOUS
62
7
370
0
100
AcDbLine
10
-409
20
10
11
-441
21
10
0
LINE
5
E2
100
AcDbEntity
8
0
6
CONTINUOUS
62
7
370
0
100
AcDbLine
10
-409
20
365
11
-441
21
365
0
LINE
5
E3
100
AcDbEntity
8
0
6
CONTINUOUS
62
7
370
0
100
AcDbLine
10
-440
20
10
11
-440
21
365
0
SOLID
5
E4
100
AcDbEntity
8
0
6
CONTINUOUS
62
7
370
0
100
AcDbTrace
10
-440
20
10
30
0
11
-440.582798521
21
13.5
31
0
12
-439.417201479
22
13.5
32
0
13
-439.417201479
23
13.5
33
0
0
SOLID
5
E5
100
AcDbEntity
8
0
6
CONTINUOUS
62
7
370
0
100
AcDbTrace
10
-440
20
365
30
0
11
-439.417201479
21
361.5
31
0
12
-440.582798521
22
361.5
32
0
13
-440.582798521
23
361.5
33
0
0
MTEXT
5
E6
100
AcDbEntity
8
0
6
CONTINUOUS
62
7
370
0
100
AcDbMText
10
-443.25
20
187.5
30
0
40
3.5
41
13.6111111111
71
5
72
1
1
355.00
7
standard
210
0
220
0
230
1
50
90
73
2
44
1
0
ENDBLK
5
7D
330
7B
100
AcDbEntity
8
0
100
AcDbBlockEnd
0
BLOCK
5
7F
330
7E
100
AcDbEntity
8
0
100
AcDbBlockBegin
2
*D11
70
1
10
0
20
0
3
*D11
1

0
LINE
5
E7
100
AcDbEntity
8
0
6
CONTINUOUS
62
7
370
0
100
AcDbLine
10
409
20
10
11
441
21
10
0
LINE
5
E8
100
AcDbEntity
8
0
6
CONTINUOUS
62
7
370
0
100
AcDbLine
10
409
20
349
11
441
21
349
0
LINE
5
E9
100
AcDbEntity
8
0
6
CONTINUOUS
62
7
370
0
100
AcDbLine
10
440
20
10
11
440
21
349
0
SOLID
5
EA
100
AcDbEntity
8
0
6
CONTINUOUS
62
7
370
0
100
AcDbTrace
10
440
20
10
30
0
11
439.417201479
21
13.5
31
0
12
440.582798521
22
13.5
32
0
13
440.582798521
23
13.5
33
0
0
SOLID
5
EB
100
AcDbEntity
8
0
6
CONTINUOUS
62
7
370
0
100
AcDbTrace
10
440
20
349
30
0
11
440.582798521
21
345.5
31
0
12
439.417201479
22
345.5
32
0
13
439.417201479
23
345.5
33
0
0
MTEXT
5
EC
100
AcDbEntity
8
0
6
CONTINUOUS
62
7
370
0
100
AcDbMText
10
436.75
20
179.5
30
0
40
3.5
41
13.6111111111
71
5
72
1
1
339.00
7
standard
210
0
220
0
230
1
50
90
73
2
44
1
0
ENDBLK
5
80
330
7E
100
AcDbEntity
8
0
100
AcDbBlockEnd
0
BLOCK
5
82
330
81
100
AcDbEntity
8
0
100
AcDbBlockBegin
2
*D13
70
1
10
0
20
0
3
*D13
1

0
LINE
5
ED
100
AcDbEntity
8
0
6
CONTINUOUS
62
7
370
0
100
AcDbLine
10
10
20
9
11
10
21
-21
0
LINE
5
EE
100
AcDbEntity
8
0
6
CONTINUOUS
62
7
370
0
100
AcDbLine
10
200
20
9
11
200
21
-21
0
LINE
5
EF
100
AcDbEntity
8
0
6
CONTINUOUS
62
7
370
0
100
AcDbLine
10
10
20
-20
11
200
21
-20
0
SOLID
5
F0
100
AcDbEntity
8
0
6
CONTINUOUS
62
7
370
0
100
AcDbTrace
10
10
20
-20
30
0
11
13.5
21
-19.4172014791
31
0
12
13.5
22
-20.5827985209
32
0
13
13.5
23
-20.5827985209
33
0
0
SOLID
5
F1
100
AcDbEntity
8
0
6
CONTINUOUS
62
7
370
0
100
AcDbTrace
10
200
20
-20
30
0
11
196.5
21
-20.5827985209
31
0
12
196.5
22
-19.4172014791
32
0
13
196.5
23
-19.4172014791
33
0
0
MTEXT
5
F2
100
AcDbEntity
8
0
6
CONTINUOUS
62
7
370
0
100
AcDbMText
10
105
20
-16.75
30
0
40
3.5
41
12.8333333333
71
5
72
1
1
190.00
7
standard
210
0
220
0
230
1
50
0
73
2
44
1
0
ENDBLK
5
83
330
81
100
AcDbEntity
8
0
100
AcDbBlockEnd
0
BLOCK
5
85
330
84
100
AcDbEntity
8
0
100
AcDbBlockBegin
2
GENAXEH
70
0
10
0
20
0
3
GENAXEH
1

0
LINE
5
F3
100
AcDbEntity
8
0
6
ByLayer
62
256
370
-1
100
AcDbLine
10
-1
20
0
11
1
21
0
0
ENDBLK
5
86
330
84
100
AcDbEntity
8
0
100
AcDbBlockEnd
0
ENDSEC
0
SECTION
2
ENTITIES
0
TEXT
5
F4
100
AcDbEntity
8
GRAVIRANJE
6
ByLayer
62
256
370
-1
100
AcDbText
10
-33.6397053795
20
62.0109240252
30
0
40
2.5
1
1-*-6
50
90
41
1
51
0
7
standard
71
0
210
0
220
0
230
1
100
AcDbText
0
TEXT
5
F5
100
AcDbEntity
8
GRAVIRANJE
6
ByLayer
62
256
370
-1
100
AcDbText
10
-352.99508375
20
64.2818650776
30
0
40
5
1
X-min.
50
360
41
1
51
0
7
standard
71
0
210
0
220
0
230
1
100
AcDbText
0
TEXT
5
F6
100
AcDbEntity
8
GRAVIRANJE
6
ByLayer
62
256
370
-1
100
AcDbText
10
-67.7270935386
20
59.9108441273
30
0
40
5
1
X-max.
50
360
41
1
51
0
7
standard
71
0
210
0
220
0
230
1
100
AcDbText
0
TEXT
5
F7
100
AcDbEntity
8
GRAVIRANJE
6
ByLayer
62
256
370
-1
100
AcDbText
10
-353.409659297
20
74.3449276921
30
0
40
5
1
Y-min.
50
360
41
1
51
0
7
standard
71
0
210
0
220
0
230
1
100
AcDbText
0
TEXT
5
F8
100
AcDbEntity
8
GRAVIRANJE
6
ByLayer
62
256
370
-1
100
AcDbText
10
-353.24479679
20
353.982340696
30
0
40
5
1
Y-max.
50
360
41
1
51
0
7
standard
71
0
210
0
220
0
230
1
100
AcDbText
0
TEXT
5
F9
100
AcDbEntity
8
GRAVIRANJE
6
ByLayer
62
256
370
-1
100
AcDbText
10
-241.235745847
20
349.683683456
30
0
40
5
1
Z-min.
50
360
41
1
51
0
7
standard
71
0
210
0
220
0
230
1
100
AcDbText
0
TEXT
5
FA
100
AcDbEntity
8
GRAVIRANJE
6
ByLayer
62
256
370
-1
100
AcDbText
10
-36.8019872187
20
426.559089023
30
0
40
2.5
1
2-*-6
50
270
41
1
51
0
7
standard
71
0
210
0
220
0
230
1
100
AcDbText
0
TEXT
5
FB
100
AcDbEntity
8
GRAVIRANJE
6
CONTINUOUS
62
256
370
-1
100
AcDbText
10
-164.751023722
20
443.410275383
30
0
40
2.5
1
EXTRUDER 1
50
270
41
1
51
0
7
standard
71
0
210
0
220
0
230
1
100
AcDbText
0
TEXT
5
FC
100
AcDbEntity
8
GRAVIRANJE
6
CONTINUOUS
62
256
370
-1
100
AcDbText
10
-175.751022042
20
443.410275383
30
0
40
2.5
1
Z AXIS
50
270
41
1
51
0
7
standard
71
0
210
0
220
0
230
1
100
AcDbText
0
TEXT
5
FD
100
AcDbEntity
8
GRAVIRANJE
6
CONTINUOUS
62
256
370
-1
100
AcDbText
10
-186.751022902
20
443.778455045
30
0
40
2.5
1
Y AXIS
50
270
41
1
51
0
7
standard
71
0
210
0
220
0
230
1
100
AcDbText
0
TEXT
5
FE
100
AcDbEntity
8
GRAVIRANJE
6
CONTINUOUS
62
256
370
-1
100
AcDbText
10
-197.751023762
20
443.410275383
30
0
40
2.5
1
X AXIS
50
270
41
1
51
0
7
standard
71
0
210
0
220
0
230
1
100
AcDbText
0
TEXT
5
FF
100
AcDbEntity
8
GRAVIRANJE
6
CONTINUOUS
62
256
370
-1
100
AcDbText
10
-212.337517427
20
452.798856777
30
0
40
2.5
1
FAN
50
270
41
1
51
0
7
standard
71
0
210
0
220
0
230
1
100
AcDbText
0
TEXT
5
100
100
AcDbEntity
8
GRAVIRANJE
6
CONTINUOUS
62
256
370
-1
100
AcDbText
10
-224.337516287
20
452.798856777
30
0
40
2.5
1
HEAD 2
50
270
41
1
51
0
7
standard
71
0
210
0
220
0
230
1
100
AcDbText
0
TEXT
5
101
100
AcDbEntity
8
GRAVIRANJE
6
CONTINUOUS
62
256
370
-1
100
AcDbText
10
-236.337515147
20
453.074991524
30
0
40
2.5
1
HEAD 1
50
270
41
1
51
0
7
standard
71
0
210
0
220
0
230
1
100
AcDbText
0
TEXT
5
102
100
AcDbEntity
8
GRAVIRANJE
6
CONTINUOUS
62
256
370
-1
100
AcDbText
10
-248.337516547
20
453.259081355
30
0
40
2.5
1
BED
50
270
41
1
51
0
7
standard
71
0
210
0
220
0
230
1
100
AcDbText
0
TEXT
5
103
100
AcDbEntity
8
GRAVIRANJE
6
CONTINUOUS
62
256
370
-1
100
AcDbText
10
-260.337515407
20
453.16703644
30
0
40
2.5
1
POWER
50
270
41
1
51
0
7
standard
71
0
210
0
220
0
230
1
100
AcDbText
0
CIRCLE
5
104
100
AcDbEntity
8
HOLES
6
ByLayer
62
256
370
-1
100
AcDbCircle
10
-322.044844229
20
666.126015421
40
1.5
0
CIRCLE
5
105
100
AcDbEntity
8
HOLES
6
ByLayer
62
256
370
-1
100
AcDbCircle
10
-322.044844229
20
706.126015421
40
1.5
0
CIRCLE
5
106
100
AcDbEntity
8
HOLES
6
ByLayer
62
256
370
-1
100
AcDbCircle
10
-282.044844229
20
706.126015421
40
1.5
0
CIRCLE
5
107
100
AcDbEntity
8
HOLES
6
ByLayer
62
256
370
-1
100
AcDbCircle
10
-282.044844229
20
666.126015421
40
1.5
0
CIRCLE
5
108
100
AcDbEntity
8
HOLES
6
ByLayer
62
256
370
-1
100
AcDbCircle
10
-322.044844229
20
612.961639441
40
1.5
0
CIRCLE
5
109
100
AcDbEntity
8
HOLES
6
ByLayer
62
256
370
-1
100
AcDbCircle
10
-322.044844229
20
652.961639441
40
1.5
0
CIRCLE
5
10A
100
AcDbEntity
8
HOLES
6
ByLayer
62
256
370
-1
100
AcDbCircle
10
-282.044844229
20
652.961639441
40
1.5
0
CIRCLE
5
10B
100
AcDbEntity
8
HOLES
6
ByLayer
62
256
370
-1
100
AcDbCircle
10
-282.044844229
20
612.961639441
40
1.5
0
CIRCLE
5
10C
100
AcDbEntity
8
HOLES
6
ByLayer
62
256
370
-1
100
AcDbCircle
10
-322.044844229
20
559.496581501
40
1.5
0
CIRCLE
5
10D
100
AcDbEntity
8
HOLES
6
ByLayer
62
256
370
-1
100
AcDbCircle
10
-322.044844229
20
599.496581501
40
1.5
0
CIRCLE
5
10E
100
AcDbEntity
8
HOLES
6
ByLayer
62
256
370
-1
100
AcDbCircle
10
-282.044844229
20
599.496581501
40
1.5
0
CIRCLE
5
10F
100
AcDbEntity
8
HOLES
6
ByLayer
62
256
370
-1
100
AcDbCircle
10
-282.044844229
20
559.496581501
40
1.5
0
CIRCLE
5
110
100
AcDbEntity
8
HOLES
6
ByLayer
62
256
370
-1
100
AcDbCircle
10
-265.680498512
20
665.538487386
40
1.5
0
CIRCLE
5
111
100
AcDbEntity
8
HOLES
6
ByLayer
62
256
370
-1
100
AcDbCircle
10
-265.680498512
20
705.538487386
40
1.5
0
CIRCLE
5
112
100
AcDbEntity
8
HOLES
6
ByLayer
62
256
370
-1
100
AcDbCircle
10
-225.680498512
20
705.538487386
40
1.5
0
CIRCLE
5
113
100
AcDbEntity
8
HOLES
6
ByLayer
62
256
370
-1
100
AcDbCircle
10
-225.680498512
20
665.538487386
40
1.5
0
CIRCLE
5
114
100
AcDbEntity
8
HOLES
6
ByLayer
62
256
370
-1
100
AcDbCircle
10
-160.250073156
20
474.435378307
40
1.75
0
CIRCLE
5
115
100
AcDbEntity
8
HOLES
6
ByLayer
62
256
370
-1
100
AcDbCircle
10
-244.750073156
20
626.935378307
40
1.75
0
LINE
5
116
100
AcDbEntity
8
GRAVIRANJE
6
ByLayer
62
256
370
-1
100
AcDbLine
10
-343.02676033
20
715.891034687
11
-343.02676033
21
483.288620202
0
CIRCLE
5
117
100
AcDbEntity
8
HOLES
6
ByLayer
62
256
370
-1
100
AcDbCircle
10
-343.02676033
20
559.496581501
40
1.5
0
CIRCLE
5
118
100
AcDbEntity
8
HOLES
6
ByLayer
62
256
370
-1
100
AcDbCircle
10
-334.712211363
20
559.496581501
40
1.5
0
CIRCLE
5
119
100
AcDbEntity
8
HOLES
6
ByLayer
62
256
370
-1
100
AcDbCircle
10
-343.02676033
20
599.496581501
40
1.5
0
CIRCLE
5
11A
100
AcDbEntity
8
HOLES
6
ByLayer
62
256
370
-1
100
AcDbCircle
10
-334.712211363
20
599.496581501
40
1.5
0
CIRCLE
5
11B
100
AcDbEntity
8
HOLES
6
ByLayer
62
256
370
-1
100
AcDbCircle
10
-343.02676033
20
612.961639441
40
1.5
0
CIRCLE
5
11C
100
AcDbEntity
8
HOLES
6
ByLayer
62
256
370
-1
100
AcDbCircle
10
-334.712211363
20
612.961639441
40
1.5
0
CIRCLE
5
11D
100
AcDbEntity
8
HOLES
6
ByLayer
62
256
370
-1
100
AcDbCircle
10
-343.02676033
20
652.961639441
40
1.5
0
CIRCLE
5
11E
100
AcDbEntity
8
HOLES
6
ByLayer
62
256
370
-1
100
AcDbCircle
10
-334.712211363
20
652.961639441
40
1.5
0
CIRCLE
5
11F
100
AcDbEntity
8
HOLES
6
ByLayer
62
256
370
-1
100
AcDbCircle
10
-343.02676033
20
666.126015421
40
1.5
0
CIRCLE
5
120
100
AcDbEntity
8
HOLES
6
ByLayer
62
256
370
-1
100
AcDbCircle
10
-334.712211363
20
666.126015421
40
1.5
0
CIRCLE
5
121
100
AcDbEntity
8
HOLES
6
ByLayer
62
256
370
-1
100
AcDbCircle
10
-343.02676033
20
715.891034687
40
1.5
0
CIRCLE
5
122
100
AcDbEntity
8
HOLES
6
ByLayer
62
256
370
-1
100
AcDbCircle
10
-334.712211363
20
715.891034687
40
1.5
0
CIRCLE
5
123
100
AcDbEntity
8
HOLES
6
ByLayer
62
256
370
-1
100
AcDbCircle
10
-328.968126936
20
731.868338362
40
1.5
0
CIRCLE
5
124
100
AcDbEntity
8
HOLES
6
ByLayer
62
256
370
-1
100
AcDbCircle
10
-328.968126936
20
740.182887329
40
1.5
0
CIRCLE
5
125
100
AcDbEntity
8
HOLES
6
ByLayer
62
256
370
-1
100
AcDbCircle
10
-297.539286752
20
731.868338362
40
1.5
0
CIRCLE
5
126
100
AcDbEntity
8
HOLES
6
ByLayer
62
256
370
-1
100
AcDbCircle
10
-297.539286752
20
740.182887329
40
1.5
0
CIRCLE
5
127
100
AcDbEntity
8
HOLES
6
ByLayer
62
256
370
-1
100
AcDbCircle
10
-244.824780062
20
731.868338362
40
1.5
0
CIRCLE
5
128
100
AcDbEntity
8
HOLES
6
ByLayer
62
256
370
-1
100
AcDbCircle
10
-244.824780062
20
740.182887329
40
1.5
0
CIRCLE
5
129
100
AcDbEntity
8
HOLES
6
ByLayer
62
256
370
-1
100
AcDbCircle
10
-152.645863032
20
731.868338362
40
1.5
0
CIRCLE
5
12A
100
AcDbEntity
8
HOLES
6
ByLayer
62
256
370
-1
100
AcDbCircle
10
-152.645863032
20
740.182887329
40
1.5
0
CIRCLE
5
12B
100
AcDbEntity
8
HOLES
6
ByLayer
62
256
370
-1
100
AcDbCircle
10
-62.1995447348
20
731.868338362
40
1.5
0
CIRCLE
5
12C
100
AcDbEntity
8
HOLES
6
ByLayer
62
256
370
-1
100
AcDbCircle
10
-62.1995447348
20
740.182887329
40
1.5
0
CIRCLE
5
12D
100
AcDbEntity
8
HOLES
6
ByLayer
62
256
370
-1
100
AcDbCircle
10
-173.682033864
20
640.898378973
40
1.5
0
CIRCLE
5
12E
100
AcDbEntity
8
HOLES
6
ByLayer
62
256
370
-1
100
AcDbCircle
10
-173.682033864
20
649.21292794
40
1.5
0
CIRCLE
5
12F
100
AcDbEntity
8
HOLES
6
ByLayer
62
256
370
-1
100
AcDbCircle
10
-219.502306095
20
640.898378973
40
1.5
0
CIRCLE
5
130
100
AcDbEntity
8
HOLES
6
ByLayer
62
256
370
-1
100
AcDbCircle
10
-219.502306095
20
649.21292794
40
1.5
0
CIRCLE
5
131
100
AcDbEntity
8
HOLES
6
ByLayer
62
256
370
-1
100
AcDbCircle
10
-249.098239032
20
640.898378973
40
1.5
0
CIRCLE
5
132
100
AcDbEntity
8
HOLES
6
ByLayer
62
256
370
-1
100
AcDbCircle
10
-249.098239032
20
649.21292794
40
1.5
0
CIRCLE
5
133
100
AcDbEntity
8
HOLES
6
ByLayer
62
256
370
-1
100
AcDbCircle
10
-258.561224879
20
631.452124617
40
1.5
0
CIRCLE
5
134
100
AcDbEntity
8
HOLES
6
ByLayer
62
256
370
-1
100
AcDbCircle
10
-266.875760827
20
631.466838556
40
1.5
0
CIRCLE
5
135
100
AcDbEntity
8
HOLES
6
ByLayer
62
256
370
-1
100
AcDbCircle
10
-258.561224879
20
559.496581501
40
1.5
0
CIRCLE
5
136
100
AcDbEntity
8
HOLES
6
ByLayer
62
256
370
-1
100
AcDbCircle
10
-266.875760827
20
559.51129544
40
1.5
0
CIRCLE
5
137
100
AcDbEntity
8
HOLES
6
ByLayer
62
256
370
-1
100
AcDbCircle
10
-258.561224879
20
487.541038384
40
1.5
0
CIRCLE
5
138
100
AcDbEntity
8
HOLES
6
ByLayer
62
256
370
-1
100
AcDbCircle
10
-266.875760827
20
487.555752323
40
1.5
0
LINE
5
139
100
AcDbEntity
8
GRAVIRANJE
6
ByLayer
62
256
370
-1
100
AcDbLine
10
-163.259832766
20
683.765526666
11
-51.8162287181
21
683.765526666
0
CIRCLE
5
13A
100
AcDbEntity
8
HOLES
6
ByLayer
62
256
370
-1
100
AcDbCircle
10
-52.4072401464
20
679.239518031
40
1.5
0
CIRCLE
5
13B
100
AcDbEntity
8
HOLES
6
ByLayer
62
256
370
-1
100
AcDbCircle
10
-52.4072401464
20
687.554066998
40
1.5
0
CIRCLE
5
13C
100
AcDbEntity
8
HOLES
6
ByLayer
62
256
370
-1
100
AcDbCircle
10
-107.538030742
20
679.239518031
40
1.5
0
CIRCLE
5
13D
100
AcDbEntity
8
HOLES
6
ByLayer
62
256
370
-1
100
AcDbCircle
10
-107.538030742
20
687.554066998
40
1.5
0
CIRCLE
5
13E
100
AcDbEntity
8
HOLES
6
ByLayer
62
256
370
-1
100
AcDbCircle
10
-149.295557413
20
679.239518031
40
1.5
0
CIRCLE
5
13F
100
AcDbEntity
8
HOLES
6
ByLayer
62
256
370
-1
100
AcDbCircle
10
-149.295557413
20
687.554066998
40
1.5
0
LINE
5
140
100
AcDbEntity
8
GRAVIRANJE
6
ByLayer
62
256
370
-1
100
AcDbLine
10
-347.569933856
20
731.868338362
11
-236.610314018
21
731.868338362
0
LINE
5
141
100
AcDbEntity
8
GRAVIRANJE
6
ByLayer
62
256
370
-1
100
AcDbLine
10
-227.984110449
20
731.868338362
11
-80.8013516553
21
731.868338362
0
CIRCLE
5
142
100
AcDbEntity
8
HOLES
6
ByLayer
62
256
370
-1
100
AcDbCircle
10
-116.314968099
20
478.267381006
40
2
0
CIRCLE
5
143
100
AcDbEntity
8
HOLES
6
ByLayer
62
256
370
-1
100
AcDbCircle
10
-66.314968099
20
478.267381006
40
2
0
CIRCLE
5
144
100
AcDbEntity
8
HOLES
6
ByLayer
62
256
370
-1
100
AcDbCircle
10
-66.314968099
20
628.267381006
40
2
0
CIRCLE
5
145
100
AcDbEntity
8
HOLES
6
ByLayer
62
256
370
-1
100
AcDbCircle
10
-116.314968099
20
630.267381006
40
2
0
CIRCLE
5
146
100
AcDbEntity
8
HOLES
6
ByLayer
62
256
370
-1
100
AcDbCircle
10
-322.044844229
20
506.031523561
40
1.5
0
CIRCLE
5
147
100
AcDbEntity
8
HOLES
6
ByLayer
62
256
370
-1
100
AcDbCircle
10
-322.044844229
20
546.031523561
40
1.5
0
CIRCLE
5
148
100
AcDbEntity
8
HOLES
6
ByLayer
62
256
370
-1
100
AcDbCircle
10
-282.044844229
20
546.031523561
40
1.5
0
CIRCLE
5
149
100
AcDbEntity
8
HOLES
6
ByLayer
62
256
370
-1
100
AcDbCircle
10
-282.044844229
20
506.031523561
40
1.5
0
CIRCLE
5
14A
100
AcDbEntity
8
HOLES
6
ByLayer
62
256
370
-1
100
AcDbCircle
10
-343.02676033
20
506.031523561
40
1.5
0
CIRCLE
5
14B
100
AcDbEntity
8
HOLES
6
ByLayer
62
256
370
-1
100
AcDbCircle
10
-334.712211363
20
506.031523561
40
1.5
0
TEXT
5
14C
100
AcDbEntity
8
GRAVIRANJE
6
ByLayer
62
256
370
-1
100
AcDbText
10
-48.3922353629
20
647.174066625
30
0
40
4
1
PoPower24-400
50
180
41
1
51
0
7
standard
71
0
210
0
220
0
230
1
100
AcDbText
0
TEXT
5
14D
100
AcDbEntity
8
GRAVIRANJE
6
ByLayer
62
256
370
-1
100
AcDbText
10
-301.303514325
20
503.988014346
30
0
40
4
1
PoStep25-32
50
90
41
1
51
0
7
standard
71
0
210
0
220
0
230
1
100
AcDbText
0
TEXT
5
14E
100
AcDbEntity
8
GRAVIRANJE
6
ByLayer
62
256
370
-1
100
AcDbText
10
-172.32734042
20
616.842063926
30
0
40
4
1
PoPower24-100
50
180
41
1
51
0
7
standard
71
0
210
0
220
0
230
1
100
AcDbText
0
TEXT
5
14F
100
AcDbEntity
8
GRAVIRANJE
6
ByLayer
62
256
370
-1
100
AcDbText
10
-244.939168608
20
663.494978171
30
0
40
4
1
PoStep25-32
50
90
41
1
51
0
7
standard
71
0
210
0
220
0
230
1
100
AcDbText
0
TEXT
5
150
100
AcDbEntity
8
GRAVIRANJE
6
ByLayer
62
256
370
-1
100
AcDbText
10
-301.303514325
20
557.453072286
30
0
40
4
1
PoStep25-32
50
90
41
1
51
0
7
standard
71
0
210
0
220
0
230
1
100
AcDbText
0
TEXT
5
151
100
AcDbEntity
8
GRAVIRANJE
6
ByLayer
62
256
370
-1
100
AcDbText
10
-301.303514325
20
610.918130226
30
0
40
4
1
PoStep25-32
50
90
41
1
51
0
7
standard
71
0
210
0
220
0
230
1
100
AcDbText
0
TEXT
5
152
100
AcDbEntity
8
GRAVIRANJE
6
ByLayer
62
256
370
-1
100
AcDbText
10
-301.303514325
20
664.082506207
30
0
40
4
1
PoStep25-32
50
90
41
1
51
0
7
standard
71
0
210
0
220
0
230
1
100
AcDbText
0
TEXT
5
153
100
AcDbEntity
8
GRAVIRANJE
6
ByLayer
62
256
370
-1
100
AcDbText
10
-210.238859532
20
447.479689537
30
0
40
3
1
-
50
270
41
1
51
0
7
standard
71
0
210
0
220
0
230
1
100
AcDbText
0
TEXT
5
154
100
AcDbEntity
8
GRAVIRANJE
6
ByLayer
62
256
370
-1
100
AcDbText
10
-215.238859532
20
448.429212048
30
0
40
3
1
+
50
270
41
1
51
0
7
standard
71
0
210
0
220
0
230
1
100
AcDbText
0
TEXT
5
155
100
AcDbEntity
8
GRAVIRANJE
6
ByLayer
62
256
370
-1
100
AcDbText
10
-222.238858392
20
447.479689537
30
0
40
3
1
-
50
270
41
1
51
0
7
standard
71
0
210
0
220
0
230
1
100
AcDbText
0
TEXT
5
156
100
AcDbEntity
8
GRAVIRANJE
6
ByLayer
62
256
370
-1
100
AcDbText
10
-227.238858392
20
448.429212048
30
0
40
3
1
+
50
270
41
1
51
0
7
standard
71
0
210
0
220
0
230
1
100
AcDbText
0
TEXT
5
157
100
AcDbEntity
8
GRAVIRANJE
6
ByLayer
62
256
370
-1
100
AcDbText
10
-234.238857252
20
447.479689537
30
0
40
3
1
-
50
270
41
1
51
0
7
standard
71
0
210
0
220
0
230
1
100
AcDbText
0
TEXT
5
158
100
AcDbEntity
8
GRAVIRANJE
6
ByLayer
62
256
370
-1
100
AcDbText
10
-239.238857252
20
448.429212048
30
0
40
3
1
+
50
270
41
1
51
0
7
standard
71
0
210
0
220
0
230
1
100
AcDbText
0
TEXT
5
159
100
AcDbEntity
8
GRAVIRANJE
6
ByLayer
62
256
370
-1
100
AcDbText
10
-246.238858652
20
447.379689737
30
0
40
3
1
-
50
270
41
1
51
0
7
standard
71
0
210
0
220
0
230
1
100
AcDbText
0
TEXT
5
15A
100
AcDbEntity
8
GRAVIRANJE
6
ByLayer
62
256
370
-1
100
AcDbText
10
-251.238858652
20
448.329212248
30
0
40
3
1
+
50
270
41
1
51
0
7
standard
71
0
210
0
220
0
230
1
100
AcDbText
0
TEXT
5
15B
100
AcDbEntity
8
GRAVIRANJE
6
ByLayer
62
256
370
-1
100
AcDbText
10
-258.238857512
20
448.329212248
30
0
40
3
1
+
50
270
41
1
51
0
7
standard
71
0
210
0
220
0
230
1
100
AcDbText
0
TEXT
5
15C
100
AcDbEntity
8
GRAVIRANJE
6
ByLayer
62
256
370
-1
100
AcDbText
10
-263.238857512
20
447.379689737
30
0
40
3
1
-
50
270
41
1
51
0
7
standard
71
0
210
0
220
0
230
1
100
AcDbText
0
LWPOLYLINE
5
15D
100
AcDbEntity
8
HOLES
6
ByLayer
62
256
370
-1
100
AcDbPolyline
90
4
70
0
43
0
10
-239.797212234
20
745.548973169
10
-239.797212234
20
738.004065947
42
1
10
-224.797212234
20
738.004065947
10
-224.797212234
20
745.548973169
0
LWPOLYLINE
5
15E
100
AcDbEntity
8
GRAVIRANJE
6
ByLayer
62
256
370
-1
100
AcDbPolyline
90
8
70
1
43
0
10
-329.044844229
20
550.031523561
10
-329.044844229
20
502.031523561
42
0.414213562373
10
-328.044844229
20
501.031523561
10
-278.044844229
20
501.031523561
42
0.414213562373
10
-277.044844229
20
502.031523561
10
-277.044844229
20
550.031523561
42
0.414213562373
10
-278.044844229
20
551.031523561
10
-328.044844229
20
551.031523561
42
0.414213562373
0
LWPOLYLINE
5
15F
100
AcDbEntity
8
GRAVIRANJE
6
ByLayer
62
256
370
-1
100
AcDbPolyline
90
4
70
0
43
0
10
-263.062514384
20
471.659521039
10
-263.062514384
20
645.424387608
10
-163.780504071
20
645.424387608
10
-163.780504071
20
683.765526666
0
LWPOLYLINE
5
160
100
AcDbEntity
8
GRAVIRANJE
6
ByLayer
62
256
370
-1
100
AcDbPolyline
90
4
70
1
43
0
10
-33.814968099
20
661.767381006
10
-148.814968099
20
661.767381006
10
-148.814968099
20
444.767381006
10
-33.814968099
20
444.767381006
0
LWPOLYLINE
5
161
100
AcDbEntity
8
GRAVIRANJE
6
ByLayer
62
256
370
-1
100
AcDbPolyline
90
4
70
1
43
0
10
-153.250073156
20
471.435378307
10
-251.250073156
20
471.435378307
10
-251.250073156
20
631.435378307
10
-153.250073156
20
631.435378307
0
LWPOLYLINE
5
162
100
AcDbEntity
8
GRAVIRANJE
6
ByLayer
62
256
370
-1
100
AcDbPolyline
90
8
70
1
43
0
10
-272.680498512
20
709.538487386
10
-272.680498512
20
661.538487386
42
0.414213562373
10
-271.680498512
20
660.538487386
10
-221.680498512
20
660.538487386
42
0.414213562373
10
-220.680498512
20
661.538487386
10
-220.680498512
20
709.538487386
42
0.414213562373
10
-221.680498512
20
710.538487386
10
-271.680498512
20
710.538487386
42
0.414213562373
0
LWPOLYLINE
5
163
100
AcDbEntity
8
GRAVIRANJE
6
ByLayer
62
256
370
-1
100
AcDbPolyline
90
8
70
1
43
0
10
-329.044844229
20
603.496581501
10
-329.044844229
20
555.496581501
42
0.414213562373
10
-328.044844229
20
554.496581501
10
-278.044844229
20
554.496581501
42
0.414213562373
10
-277.044844229
20
555.496581501
10
-277.044844229
20
603.496581501
42
0.414213562373
10
-278.044844229
20
604.496581501
10
-328.044844229
20
604.496581501
42
0.414213562373
0
LWPOLYLINE
5
164
100
AcDbEntity
8
GRAVIRANJE
6
ByLayer
62
256
370
-1
100
AcDbPolyline
90
8
70
1
43
0
10
-329.044844229
20
656.961639441
10
-329.044844229
20
608.961639441
42
0.414213562373
10
-328.044844229
20
607.961639441
10
-278.044844229
20
607.961639441
42
0.414213562373
10
-277.044844229
20
608.961639441
10
-277.044844229
20
656.961639441
42
0.414213562373
10
-278.044844229
20
657.961639441
10
-328.044844229
20
657.961639441
42
0.414213562373
0
LWPOLYLINE
5
165
100
AcDbEntity
8
GRAVIRANJE
6
ByLayer
62
256
370
-1
100
AcDbPolyline
90
8
70
1
43
0
10
-329.044844229
20
710.126015421
10
-329.044844229
20
662.126015421
42
0.414213562373
10
-328.044844229
20
661.126015421
10
-278.044844229
20
661.126015421
42
0.414213562373
10
-277.044844229
20
662.126015421
10
-277.044844229
20
710.126015421
42
0.414213562373
10
-278.044844229
20
711.126015421
10
-328.044844229
20
711.126015421
42
0.414213562373
0
LWPOLYLINE
5
166
100
AcDbEntity
8
IZREZ
6
ByLayer
62
256
370
-1
100
AcDbPolyline
90
13
70
0
43
0
10
-355.42912319
20
606.836296539
10
-355.431290658
20
672.822617516
10
-361.732001773
20
673.097129825
10
-361.732001773
20
682.626628586
10
-355.431290658
20
682.901140895
10
-355.424352286
20
700.697779886
10
-355.424352286
20
699.668010416
10
-355.424352286
20
698.638240946
10
-355.424352286
20
697.608471476
10
-355.424352286
20
696.578702006
10
-355.424352286
20
695.548932536
10
-355.424352286
20
694.519163066
10
-355.424352286
20
693.489393596
0
LWPOLYLINE
5
167
100
AcDbEntity
8
IZREZ
6
ByLayer
62
256
370
-1
100
AcDbPolyline
90
308
70
0
43
0
10
-340.549830286
20
740.074708169
10
-340.560613716
20
739.672205485
10
-340.588268978
20
739.270366649
10
-340.632802934
20
738.869770456
10
-340.694222445
20
738.470995697
10
-340.772534373
20
738.074621164
10
-340.867745581
20
737.681225651
10
-340.979862929
20
737.29138795
10
-341.10889328
20
736.905686853
10
-341.254843496
20
736.524701153
10
-341.417720437
20
736.149009643
10
-341.597530967
20
735.779191115
10
-341.794281947
20
735.415824362
10
-342.007980239
20
735.059488176
10
-342.238632704
20
734.71076135
10
-342.486246205
20
734.370222677
10
-342.750827603
20
734.038450948
10
-343.03238376
20
733.716024957
10
-343.330921538
20
733.403523496
10
-343.933100184
20
732.849387689
10
-344.574223294
20
732.353010296
10
-345.245847655
20
731.918771932
10
-345.943904356
20
731.546666458
10
-346.664324486
20
731.236687735
10
-347.403039136
20
730.988829624
10
-348.155979395
20
730.803085984
10
-348.919076353
20
730.679450676
10
-349.6882611
20
730.617917561
10
-350.459464725
20
730.6184805
10
-351.228618319
20
730.681133353
10
-351.99165297
20
730.805869981
10
-352.744499769
20
730.992684244
10
-353.483089806
20
731.241570004
10
-354.20335417
20
731.552521119
10
-354.90122395
20
731.925531452
10
-355.572630238
20
732.360594862
10
-356.213504121
20
732.857705211
10
-356.516952564
20
732.862526164
10
-356.81011141
20
732.850502893
10
-357.103270255
20
732.838479623
10
-357.396429101
20
732.826456352
10
-357.689587946
20
732.814433082
10
-357.982746791
20
732.802409812
10
-358.275905637
20
732.790386541
10
-358.569064482
20
732.778363271
10
-358.862223327
20
732.76634
10
-359.155382173
20
732.75431673
10
-359.448541018
20
732.74229346
10
-359.741699863
20
732.730270189
10
-360.034858709
20
732.718246919
10
-360.328017554
20
732.706223648
10
-360.621176399
20
732.694200378
10
-360.914335245
20
732.682177107
10
-361.20749409
20
732.670153837
10
-361.500652935
20
732.658130567
10
-361.514341286
20
732.149551668
10
-361.514341286
20
731.616651677
10
-361.514341286
20
731.083751686
10
-361.514341286
20
730.550851695
10
-361.514341286
20
730.017951704
10
-361.514341286
20
729.485051713
10
-361.514341286
20
728.952151722
10
-361.514341286
20
728.419251731
10
-361.514341286
20
727.88635174
10
-361.514341286
20
727.353451749
10
-361.514341286
20
726.820551759
10
-361.514341286
20
726.287651768
10
-361.514341286
20
725.754751777
10
-361.514341286
20
725.221851786
10
-361.514341286
20
724.688951795
10
-361.514341286
20
724.156051804
10
-361.514341286
20
723.623151813
10
-361.514341286
20
723.090251822
10
-361.197346179
20
723.044055235
10
-360.859305752
20
723.030170907
10
-360.521265326
20
723.016286579
10
-360.1832249
20
723.002402251
10
-359.845184474
20
722.988517923
10
-359.507144048
20
722.974633596
10
-359.169103622
20
722.960749268
10
-358.831063196
20
722.94686494
10
-358.49302277
20
722.932980612
10
-358.154982343
20
722.919096284
10
-357.816941917
20
722.905211956
10
-357.478901491
20
722.891327628
10
-357.140861065
20
722.877443301
10
-356.802820639
20
722.863558973
10
-356.464780213
20
722.849674645
10
-356.126739787
20
722.835790317
10
-355.78869936
20
722.821905989
10
-355.450658934
20
722.808021661
10
-355.424352286
20
721.857364326
10
-355.424352286
20
720.827654415
10
-355.424352286
20
719.797944505
10
-355.424352286
20
718.768234595
10
-355.424352286
20
717.738524684
10
-355.424352286
20
716.708814774
10
-355.424352286
20
715.679104863
10
-355.424352286
20
714.649394953
10
-355.424352286
20
713.619685043
10
-355.424352286
20
712.589975132
10
-355.424352286
20
711.560265222
10
-355.424352286
20
710.530555312
10
-355.424352286
20
709.500845401
10
-355.424352286
20
708.471135491
10
-355.424352286
20
707.44142558
10
-355.424352286
20
706.41171567
10
-355.424352286
20
705.38200576
10
-355.424352286
20
704.352295849
10
-355.071206063
20
704.256136169
10
-354.681684263
20
704.256136169
10
-354.292162462
20
704.256136169
10
-353.902640662
20
704.256136169
10
-353.513118862
20
704.256136169
10
-353.123597062
20
704.256136169
10
-352.734075262
20
704.256136169
10
-352.344553461
20
704.256136169
10
-351.955031661
20
704.256136169
10
-351.565509861
20
704.256136169
10
-351.175988061
20
704.256136169
10
-350.78646626
20
704.256136169
10
-350.39694446
20
704.256136169
10
-350.00742266
20
704.256136169
10
-349.61790086
20
704.256136169
10
-349.22837906
20
704.256136169
10
-348.838857259
20
704.256136169
10
-348.449335459
20
704.256136169
10
-348.406897286
20
704.325353274
10
-348.406897286
20
704.403033605
10
-348.406897286
20
704.480713937
10
-348.406897286
20
704.558394268
10
-348.406897286
20
704.6360746
10
-348.406897286
20
704.713754931
10
-348.406897286
20
704.791435263
10
-348.406897286
20
704.869115594
10
-348.406897286
20
704.946795926
10
-348.406897286
20
705.024476257
10
-348.406897286
20
705.102156589
10
-348.406897286
20
705.17983692
10
-348.406897286
20
705.257517252
10
-348.406897286
20
705.335197583
10
-348.406897286
20
705.412877915
10
-348.406897286
20
705.490558247
10
-348.406897286
20
705.568238578
10
-348.406897286
20
705.64591891
10
-348.29998963
20
705.655591169
10
-348.177877329
20
705.655591169
10
-348.055765028
20
705.655591169
10
-347.933652726
20
705.655591169
10
-347.811540425
20
705.655591169
10
-347.689428124
20
705.655591169
10
-347.567315823
20
705.655591169
10
-347.445203522
20
705.655591169
10
-347.323091221
20
705.655591169
10
-347.20097892
20
705.655591169
10
-347.078866619
20
705.655591169
10
-346.956754318
20
705.655591169
10
-346.834642017
20
705.655591169
10
-346.712529716
20
705.655591169
10
-346.590417415
20
705.655591169
10
-346.468305114
20
705.655591169
10
-346.346192812
20
705.655591169
10
-346.224080511
20
705.655591169
10
-346.206975286
20
705.588792129
10
-346.206975286
20
705.511111797
10
-346.206975286
20
705.433431466
10
-346.206975286
20
705.355751134
10
-346.206975286
20
705.278070803
10
-346.206975286
20
705.200390471
10
-346.206975286
20
705.12271014
10
-346.206975286
20
705.045029808
10
-346.206975286
20
704.967349477
10
-346.206975286
20
704.889669145
10
-346.206975286
20
704.811988814
10
-346.206975286
20
704.734308482
10
-346.206975286
20
704.65662815
10
-346.206975286
20
704.578947819
10
-346.206975286
20
704.501267487
10
-346.206975286
20
704.423587156
10
-346.206975286
20
704.345906824
10
-346.206975286
20
704.268226493
10
-346.139333715
20
704.256136169
10
-346.059223651
20
704.256136169
10
-345.979113587
20
704.256136169
10
-345.899003523
20
704.256136169
10
-345.818893459
20
704.256136169
10
-345.738783395
20
704.256136169
10
-345.658673331
20
704.256136169
10
-345.578563267
20
704.256136169
10
-345.498453203
20
704.256136169
10
-345.418343139
20
704.256136169
10
-345.338233076
20
704.256136169
10
-345.258123012
20
704.256136169
10
-345.178012948
20
704.256136169
10
-345.097902884
20
704.256136169
10
-345.01779282
20
704.256136169
10
-344.937682756
20
704.256136169
10
-344.857572692
20
704.256136169
10
-344.777462628
20
704.256136169
10
-344.763747286
20
704.127275539
10
-344.763747286
20
703.971795812
10
-344.763747286
20
703.816316086
10
-344.763747286
20
703.660836359
10
-344.763747286
20
703.505356632
10
-344.763747286
20
703.349876905
10
-344.763747286
20
703.194397179
10
-344.763747286
20
703.038917452
10
-344.763747286
20
702.883437725
10
-344.763747286
20
702.727957998
10
-344.763747286
20
702.572478271
10
-344.763747286
20
702.416998545
10
-344.763747286
20
702.261518818
10
-344.763747286
20
702.106039091
10
-344.763747286
20
701.950559364
10
-344.763747286
20
701.795079638
10
-344.763747286
20
701.639599911
10
-344.763747286
20
701.484120184
10
-344.828895159
20
701.455081169
10
-344.909005223
20
701.455081169
10
-344.989115287
20
701.455081169
10
-345.069225351
20
701.455081169
10
-345.149335415
20
701.455081169
10
-345.229445479
20
701.455081169
10
-345.309555543
20
701.455081169
10
-345.389665607
20
701.455081169
10
-345.469775671
20
701.455081169
10
-345.549885735
20
701.455081169
10
-345.629995799
20
701.455081169
10
-345.710105862
20
701.455081169
10
-345.790215926
20
701.455081169
10
-345.87032599
20
701.455081169
10
-345.950436054
20
701.455081169
10
-346.030546118
20
701.455081169
10
-346.110656182
20
701.455081169
10
-346.190766246
20
701.455081169
10
-346.206975286
20
701.393085715
10
-346.206975286
20
701.315364586
10
-346.206975286
20
701.237643456
10
-346.206975286
20
701.159922327
10
-346.206975286
20
701.082201197
10
-346.206975286
20
701.004480067
10
-346.206975286
20
700.926758938
10
-346.206975286
20
700.849037808
10
-346.206975286
20
700.771316679
10
-346.206975286
20
700.693595549
10
-346.206975286
20
700.615874419
10
-346.206975286
20
700.53815329
10
-346.206975286
20
700.46043216
10
-346.206975286
20
700.382711031
10
-346.206975286
20
700.304989901
10
-346.206975286
20
700.227268771
10
-346.206975286
20
700.149547642
10
-346.206975286
20
700.071826512
10
-346.302479459
20
700.054891169
10
-346.424591761
20
700.054891169
10
-346.546704062
20
700.054891169
10
-346.668816363
20
700.054891169
10
-346.790928664
20
700.054891169
10
-346.913040965
20
700.054891169
10
-347.035153266
20
700.054891169
10
-347.157265567
20
700.054891169
10
-347.279377868
20
700.054891169
10
-347.401490169
20
700.054891169
10
-347.52360247
20
700.054891169
10
-347.645714771
20
700.054891169
10
-347.767827072
20
700.054891169
10
-347.889939373
20
700.054891169
10
-348.012051675
20
700.054891169
10
-348.134163976
20
700.054891169
10
-348.256276277
20
700.054891169
10
-348.378388578
20
700.054891169
10
-348.406897286
20
700.114467288
10
-348.406897286
20
700.192188417
10
-348.406897286
20
700.269909547
10
-348.406897286
20
700.347630676
10
-348.406897286
20
700.425351806
10
-348.406897286
20
700.503072935
10
-348.406897286
20
700.580794065
10
-348.406897286
20
700.658515195
10
-348.406897286
20
700.736236324
10
-348.406897286
20
700.813957454
10
-348.406897286
20
700.891678583
10
-348.406897286
20
700.969399713
10
-348.406897286
20
701.047120843
10
-348.406897286
20
701.124841972
10
-348.406897286
20
701.202563102
10
-348.406897286
20
701.280284231
10
-348.406897286
20
701.358005361
10
-348.406897286
20
701.435726491
10
-348.699417548
20
701.455081169
10
-349.088939349
20
701.455081169
10
-349.478461149
20
701.455081169
10
-349.867982949
20
701.455081169
10
-350.257504749
20
701.455081169
10
-350.64702655
20
701.455081169
10
-351.03654835
20
701.455081169
10
-351.42607015
20
701.455081169
10
-351.81559195
20
701.455081169
10
-352.20511375
20
701.455081169
10
-352.594635551
20
701.455081169
10
-352.984157351
20
701.455081169
10
-353.373679151
20
701.455081169
10
-353.763200951
20
701.455081169
10
-354.152722751
20
701.455081169
10
-354.542244552
20
701.455081169
10
-354.931766352
20
701.455081169
10
-355.321288152
20
701.455081169
10
-355.424352286
20
700.697779886
0
LWPOLYLINE
5
168
100
AcDbEntity
8
HOLES
6
ByLayer
62
256
370
-1
100
AcDbPolyline
90
117
70
1
43
0
10
-207.758150286
20
704.207855169
10
-207.758150286
20
704.207855169
10
-207.873502934
20
704.212234259
10
-207.986485322
20
704.225158753
10
-208.09677806
20
704.246309486
10
-208.204061755
20
704.275367291
10
-208.308017014
20
704.312013004
10
-208.408324445
20
704.355927458
10
-208.504664657
20
704.406791488
10
-208.596718255
20
704.464285929
10
-208.684165849
20
704.528091614
10
-208.766688045
20
704.59788938
10
-208.843965452
20
704.673360059
10
-208.915678677
20
704.754184487
10
-208.981508328
20
704.840043498
10
-209.041135012
20
704.930617926
10
-209.094239337
20
705.025588606
10
-209.140501911
20
705.124636372
10
-209.179603342
20
705.227442059
10
-209.211224236
20
705.333686501
10
-209.235045203
20
705.443050533
10
-209.250746849
20
705.555214989
10
-209.258009782
20
705.669860704
10
-209.258469537
20
705.698872427
10
-209.258498363
20
705.706145888
10
-209.258500286
20
705.711990138
10
-209.258500286
20
705.722244044
10
-209.258500286
20
705.763259669
10
-209.258500286
20
705.927322169
10
-209.258500286
20
706.583572169
10
-209.258500286
20
709.208572169
10
-209.258500286
20
711.833572169
10
-209.258500286
20
712.489822169
10
-209.258500286
20
712.653884669
10
-209.258500286
20
712.694900294
10
-209.258500286
20
712.7051542
10
-209.258498363
20
712.710998445
10
-209.258469537
20
712.718271866
10
-209.258009782
20
712.747283076
10
-209.250746849
20
712.861921255
10
-209.235045203
20
712.974070054
10
-209.211224236
20
713.08341118
10
-209.179603342
20
713.189626337
10
-209.140501911
20
713.292397231
10
-209.094239337
20
713.391405567
10
-209.041135012
20
713.48633305
10
-208.981508328
20
713.576861385
10
-208.915678677
20
713.662672278
10
-208.843965452
20
713.743447434
10
-208.766688045
20
713.818868557
10
-208.684165849
20
713.888617353
10
-208.596718255
20
713.952375528
10
-208.504664657
20
714.009824786
10
-208.408324445
20
714.060646833
10
-208.308017014
20
714.104523374
10
-208.204061755
20
714.141136114
10
-208.09677806
20
714.170166758
10
-207.986485322
20
714.191297012
10
-207.873502934
20
714.20420858
10
-207.758150286
20
714.208583169
10
-207.642706163
20
714.20420858
10
-207.529654316
20
714.191297012
10
-207.419312361
20
714.170166758
10
-207.311997912
20
714.141136114
10
-207.208028582
20
714.104523374
10
-207.107721988
20
714.060646833
10
-207.011395742
20
714.009824786
10
-206.91936746
20
713.952375528
10
-206.831954756
20
713.888617353
10
-206.749475244
20
713.818868557
10
-206.672246538
20
713.743447434
10
-206.600586254
20
713.662672278
10
-206.534812005
20
713.576861385
10
-206.475241406
20
713.48633305
10
-206.422192071
20
713.391405567
10
-206.375981614
20
713.292397231
10
-206.336927651
20
713.189626337
10
-206.305347795
20
713.08341118
10
-206.281559661
20
712.974070054
10
-206.265880864
20
712.861921255
10
-206.258629017
20
712.747283076
10
-206.258169986
20
712.718271866
10
-206.258141206
20
712.710998445
10
-206.258139286
20
712.7051542
10
-206.258139286
20
712.694900294
10
-206.258139286
20
712.653884669
10
-206.258139286
20
712.489822169
10
-206.258139286
20
711.833572169
10
-206.258139286
20
709.208572169
10
-206.258139286
20
706.583572169
10
-206.258139286
20
705.927322169
10
-206.258139286
20
705.763259669
10
-206.258139286
20
705.722244044
10
-206.258139286
20
705.711990138
10
-206.258141206
20
705.706145888
10
-206.258169986
20
705.698872427
10
-206.258629017
20
705.669860704
10
-206.265880864
20
705.555214989
10
-206.281559661
20
705.443050533
10
-206.305347795
20
705.333686501
10
-206.336927651
20
705.227442059
10
-206.375981614
20
705.124636372
10
-206.422192071
20
705.025588606
10
-206.475241406
20
704.930617926
10
-206.534812005
20
704.840043498
10
-206.600586254
20
704.754184487
10
-206.672246538
20
704.673360059
10
-206.749475244
20
704.59788938
10
-206.831954756
20
704.528091614
10
-206.91936746
20
704.464285929
10
-207.011395742
20
704.406791488
10
-207.107721988
20
704.355927458
10
-207.208028582
20
704.312013004
10
-207.311997912
20
704.275367291
10
-207.419312361
20
704.246309486
10
-207.529654316
20
704.225158753
10
-207.642706163
20
704.212234259
0
LWPOLYLINE
5
169
100
AcDbEntity
8
HOLES
6
ByLayer
62
256
370
-1
100
AcDbPolyline
90
705
70
1
43
0
10
-203.208192286
20
728.208696169
10
-203.208192286
20
728.208696169
10
-203.207682207
20
728.314884393
10
-203.20616691
20
728.42083219
10
-203.203650929
20
728.526535024
10
-203.200138799
20
728.63198836
10
-203.195635054
20
728.737187664
10
-203.190144229
20
728.842128399
10
-203.183670858
20
728.946806031
10
-203.176219475
20
729.051216024
10
-203.167794615
20
729.155353844
10
-203.158400812
20
729.259214955
10
-203.1480426
20
729.362794822
10
-203.136724515
20
729.46608891
10
-203.124451089
20
729.569092684
10
-203.111226858
20
729.671801608
10
-203.097056356
20
729.774211148
10
-203.081944117
20
729.876316768
10
-203.065894676
20
729.978113934
10
-203.048912567
20
730.079598109
10
-203.031002324
20
730.180764759
10
-203.012168482
20
730.281609349
10
-202.992415575
20
730.382127344
10
-202.971748137
20
730.482314208
10
-202.950170704
20
730.582165406
10
-202.927687808
20
730.681676403
10
-202.904303986
20
730.780842664
10
-202.88002377
20
730.879659654
10
-202.854851695
20
730.978122838
10
-202.828792297
20
731.07622768
10
-202.801850108
20
731.173969646
10
-202.774029664
20
731.271344199
10
-202.745335499
20
731.368346806
10
-202.715772146
20
731.46497293
10
-202.685344142
20
731.561218037
10
-202.654056019
20
731.657077592
10
-202.621912313
20
731.752547059
10
-202.588917557
20
731.847621903
10
-202.555076286
20
731.94229759
10
-202.520393035
20
732.036569583
10
-202.484872337
20
732.130433348
10
-202.448518728
20
732.22388435
10
-202.411336741
20
732.316918053
10
-202.373330911
20
732.409529923
10
-202.334505772
20
732.501715424
10
-202.294865859
20
732.593470021
10
-202.254415706
20
732.684789178
10
-202.213159847
20
732.775668362
10
-202.171102817
20
732.866103036
10
-202.12824915
20
732.956088665
10
-202.08460338
20
733.045620715
10
-202.040170042
20
733.134694649
10
-201.994953671
20
733.223305934
10
-201.9489588
20
733.311450033
10
-201.902189964
20
733.399122412
10
-201.854651697
20
733.486318536
10
-201.806348534
20
733.573033869
10
-201.757285009
20
733.659263876
10
-201.707465656
20
733.745004022
10
-201.65689501
20
733.830249772
10
-201.605577605
20
733.914996591
10
-201.553517976
20
733.999239943
10
-201.500720657
20
734.082975293
10
-201.447190182
20
734.166198107
10
-201.392931085
20
734.248903849
10
-201.337947902
20
734.331087984
10
-201.282245165
20
734.412745977
10
-201.225827411
20
734.493873292
10
-201.168699173
20
734.574465395
10
-201.110864985
20
734.65451775
10
-201.052329382
20
734.734025823
10
-200.993096898
20
734.812985077
10
-200.933172068
20
734.891390978
10
-200.872559425
20
734.969238991
10
-200.811263505
20
735.046524581
10
-200.749288842
20
735.123243212
10
-200.68663997
20
735.199390349
10
-200.623321423
20
735.274961458
10
-200.559337736
20
735.349952002
10
-200.494693443
20
735.424357447
10
-200.429393079
20
735.498173258
10
-200.363441177
20
735.571394899
10
-200.296842273
20
735.644017836
10
-200.2296009
20
735.716037532
10
-200.161721594
20
735.787449454
10
-200.093208887
20
735.858249066
10
-200.024067316
20
735.928431832
10
-199.954301414
20
735.997993218
10
-199.883915715
20
736.066928689
10
-199.812914753
20
736.135233708
10
-199.741303065
20
736.202903742
10
-199.669085182
20
736.269934255
10
-199.596265641
20
736.336320711
10
-199.522848975
20
736.402058576
10
-199.448839719
20
736.467143315
10
-199.374242406
20
736.531570392
10
-199.299061572
20
736.595335272
10
-199.223301751
20
736.658433421
10
-199.146967477
20
736.720860302
10
-199.070063285
20
736.78261138
10
-198.992593709
20
736.843682122
10
-198.914563282
20
736.904067991
10
-198.835976541
20
736.963764452
10
-198.756838018
20
737.02276697
10
-198.677152249
20
737.08107101
10
-198.596923768
20
737.138672037
10
-198.516157108
20
737.195565516
10
-198.434856805
20
737.251746911
10
-198.353027394
20
737.307211688
10
-198.270673407
20
737.36195531
10
-198.18779938
20
737.415973244
10
-198.104409846
20
737.469260954
10
-198.020509341
20
737.521813904
10
-197.936102399
20
737.57362756
10
-197.851193554
20
737.624697386
10
-197.76578734
20
737.675018848
10
-197.679888292
20
737.72458741
10
-197.593500945
20
737.773398536
10
-197.506629832
20
737.821447693
10
-197.419279487
20
737.868730344
10
-197.331454446
20
737.915241955
10
-197.243159243
20
737.96097799
10
-197.154398412
20
738.005933914
10
-197.065176487
20
738.050105192
10
-196.975498002
20
738.093487289
10
-196.885367493
20
738.13607567
10
-196.794789494
20
738.1778658
10
-196.703768538
20
738.218853143
10
-196.612309161
20
738.259033164
10
-196.520415896
20
738.298401328
10
-196.428093278
20
738.3369531
10
-196.335345841
20
738.374683946
10
-196.24217812
20
738.411589328
10
-196.148594649
20
738.447664714
10
-196.054599963
20
738.482905566
10
-195.960198595
20
738.517307351
10
-195.865395081
20
738.550865533
10
-195.770193954
20
738.583575577
10
-195.674599749
20
738.615432947
10
-195.578617001
20
738.646433109
10
-195.482250243
20
738.676571528
10
-195.38550401
20
738.705843668
10
-195.288382836
20
738.734244994
10
-195.190891256
20
738.761770971
10
-195.093033805
20
738.788417063
10
-194.994815016
20
738.814178737
10
-194.896239423
20
738.839051456
10
-194.797311562
20
738.863030685
10
-194.698035967
20
738.886111889
10
-194.598417171
20
738.908290534
10
-194.49845971
20
738.929562083
10
-194.398168118
20
738.949922002
10
-194.297546928
20
738.969365756
10
-194.196600677
20
738.987888809
10
-194.095333897
20
739.005486627
10
-193.993751123
20
739.022154674
10
-193.891856889
20
739.037888414
10
-193.789655731
20
739.052683314
10
-193.687152182
20
739.066534837
10
-193.584350776
20
739.079438448
10
-193.481256049
20
739.091389613
10
-193.377872534
20
739.102383796
10
-193.274204766
20
739.112416463
10
-193.170257279
20
739.121483077
10
-193.066034607
20
739.129579104
10
-192.961541286
20
739.136700008
10
-192.856781848
20
739.142841255
10
-192.751760829
20
739.147998309
10
-192.646482763
20
739.152166636
10
-192.540952185
20
739.155341699
10
-192.435173628
20
739.157518964
10
-192.329151627
20
739.158693896
10
-192.222914772
20
739.158862015
10
-192.116806177
20
739.158022203
10
-192.010939534
20
739.156178545
10
-191.905319378
20
739.153335577
10
-191.799950244
20
739.149497834
10
-191.694836667
20
739.144669852
10
-191.589983183
20
739.138856165
10
-191.485394328
20
739.132061309
10
-191.381074636
20
739.124289819
10
-191.277028643
20
739.11554623
10
-191.173260885
20
739.105835078
10
-191.069775896
20
739.095160896
10
-190.966578212
20
739.083528221
10
-190.863672369
20
739.070941588
10
-190.761062901
20
739.057405531
10
-190.658754345
20
739.042924587
10
-190.556751235
20
739.027503289
10
-190.455058106
20
739.011146174
10
-190.353679495
20
738.993857776
10
-190.252619937
20
738.975642631
10
-190.151883966
20
738.956505274
10
-190.051476118
20
738.936450239
10
-189.951400929
20
738.915482062
10
-189.851662934
20
738.893605279
10
-189.752266669
20
738.870824424
10
-189.653216668
20
738.847144032
10
-189.554517467
20
738.822568639
10
-189.456173601
20
738.79710278
10
-189.358189606
20
738.77075099
10
-189.260570017
20
738.743517804
10
-189.16331937
20
738.715407757
10
-189.066442199
20
738.686425384
10
-188.96994304
20
738.656575222
10
-188.873826429
20
738.625861803
10
-188.778096901
20
738.594289665
10
-188.682758991
20
738.561863342
10
-188.587817234
20
738.528587369
10
-188.493276167
20
738.494466281
10
-188.399140324
20
738.459504613
10
-188.30541424
20
738.423706902
10
-188.212102451
20
738.387077681
10
-188.119209493
20
738.349621486
10
-188.0267399
20
738.311342852
10
-187.934698208
20
738.272246314
10
-187.843088953
20
738.232336408
10
-187.751916669
20
738.191617668
10
-187.661185893
20
738.15009463
10
-187.570901159
20
738.107771829
10
-187.481067003
20
738.0646538
10
-187.39168796
20
738.020745078
10
-187.302768565
20
737.976050199
10
-187.214313355
20
737.930573697
10
-187.126326863
20
737.884320107
10
-187.038813627
20
737.837293965
10
-186.95177818
20
737.789499807
10
-186.865225058
20
737.740942166
10
-186.779158797
20
737.691625578
10
-186.693583932
20
737.641554579
10
-186.608504999
20
737.590733704
10
-186.523926532
20
737.539167487
10
-186.439853067
20
737.486860464
10
-186.35628914
20
737.43381717
10
-186.273239286
20
737.38004214
10
-186.190708039
20
737.32553991
10
-186.108699936
20
737.270315014
10
-186.027219512
20
737.214371988
10
-185.946271302
20
737.157715366
10
-185.865859842
20
737.100349684
10
-185.785989667
20
737.042279478
10
-185.706665312
20
736.983509282
10
-185.627891312
20
736.924043631
10
-185.549672204
20
736.86388706
10
-185.472012522
20
736.803044105
10
-185.394916801
20
736.741519302
10
-185.318389578
20
736.679317184
10
-185.242435387
20
736.616442287
10
-185.167058763
20
736.552899147
10
-185.092264243
20
736.488692298
10
-185.018056361
20
736.423826275
10
-184.944439654
20
736.358305615
10
-184.871418655
20
736.292134851
10
-184.798997901
20
736.22531852
10
-184.727181926
20
736.157861156
10
-184.655975267
20
736.089767294
10
-184.585382459
20
736.021041469
10
-184.515408036
20
735.951688218
10
-184.446056535
20
735.881712074
10
-184.37733249
20
735.811117573
10
-184.309240438
20
735.73990925
10
-184.241784913
20
735.668091641
10
-184.17497045
20
735.59566928
10
-184.108801586
20
735.522646703
10
-184.043282855
20
735.449028444
10
-183.978418793
20
735.374819039
10
-183.914213935
20
735.300023024
10
-183.850672816
20
735.224644933
10
-183.787799973
20
735.148689301
10
-183.725599939
20
735.072160663
10
-183.664077251
20
734.995063556
10
-183.603236444
20
734.917402513
10
-183.543082053
20
734.83918207
10
-183.483618614
20
734.760406762
10
-183.424850662
20
734.681081125
10
-183.366782732
20
734.601209693
10
-183.30941936
20
734.520797001
10
-183.252765081
20
734.439847586
10
-183.196824431
20
734.358365981
10
-183.141601944
20
734.276356722
10
-183.087102156
20
734.193824345
10
-183.033329603
20
734.110773384
10
-182.980288819
20
734.027208374
10
-182.927984341
20
733.943133851
10
-182.876420703
20
733.85855435
10
-182.825602441
20
733.773474406
10
-182.775534091
20
733.687898555
10
-182.726220187
20
733.60183133
10
-182.677665265
20
733.515277268
10
-182.62987386
20
733.428240903
10
-182.582850508
20
733.340726772
10
-182.536599744
20
733.252739408
10
-182.491126103
20
733.164283347
10
-182.446434121
20
733.075363124
10
-182.402528333
20
732.985983275
10
-182.359413275
20
732.896148334
10
-182.317093481
20
732.805862837
10
-182.275573488
20
732.715131319
10
-182.23485783
20
732.623958315
10
-182.194951042
20
732.53234836
10
-182.155857661
20
732.440305989
10
-182.117582222
20
732.347835738
10
-182.08012926
20
732.254942141
10
-182.043503309
20
732.161629734
10
-182.007708907
20
732.067903052
10
-181.972750587
20
731.97376663
10
-181.938632886
20
731.879225003
10
-181.905360339
20
731.784282707
10
-181.87293748
20
731.688944276
10
-181.841368846
20
731.593214246
10
-181.810658972
20
731.497097151
10
-181.780812393
20
731.400597528
10
-181.751833644
20
731.30371991
10
-181.723727261
20
731.206468834
10
-181.696497779
20
731.108848835
10
-181.670149734
20
731.010864447
10
-181.644687661
20
730.912520205
10
-181.620116095
20
730.813820646
10
-181.596439572
20
730.714770304
10
-181.573662626
20
730.615373714
10
-181.551789794
20
730.515635411
10
-181.530825611
20
730.41555993
10
-181.510774611
20
730.315151808
10
-181.491641331
20
730.214415578
10
-181.473430306
20
730.113355776
10
-181.45614607
20
730.011976938
10
-181.439793161
20
729.910283597
10
-181.424376112
20
729.80828029
10
-181.409899459
20
729.705971552
10
-181.396367737
20
729.603361917
10
-181.383785483
20
729.500455922
10
-181.372157231
20
729.3972581
10
-181.361487516
20
729.293772987
10
-181.351780874
20
729.190005119
10
-181.343041841
20
729.085959031
10
-181.335274951
20
728.981639257
10
-181.32848474
20
728.877050332
10
-181.322675743
20
728.772196793
10
-181.317852497
20
728.667083174
10
-181.314019535
20
728.56171401
10
-181.311181394
20
728.456093837
10
-181.309342608
20
728.350227189
10
-181.308507714
20
728.244118602
10
-181.308456379
20
728.217554184
10
-181.308453402
20
728.210910769
10
-181.308453274
20
728.209249771
10
-181.308453286
20
728.208268846
10
-181.308453286
20
728.206987108
10
-181.308453286
20
728.201860155
10
-181.308453286
20
728.181352343
10
-181.308453286
20
728.099321093
10
-181.308453286
20
727.771196093
10
-181.308453286
20
726.458696093
10
-181.308453286
20
721.208696093
10
-181.308957442
20
721.102514191
10
-181.310466885
20
720.996572498
10
-181.312977081
20
720.890875551
10
-181.316483497
20
720.785427888
10
-181.320981597
20
720.680234046
10
-181.326466848
20
720.575298562
10
-181.332934715
20
720.470625974
10
-181.340380663
20
720.366220819
10
-181.348800159
20
720.262087634
10
-181.358188668
20
720.158230956
10
-181.368541656
20
720.054655323
10
-181.379854588
20
719.951365272
10
-181.39212293
20
719.848365341
10
-181.405342148
20
719.745660066
10
-181.419507708
20
719.643253985
10
-181.434615074
20
719.541151635
10
-181.450659713
20
719.439357554
10
-181.467637091
20
719.337876278
10
-181.485542673
20
719.236712346
10
-181.504371924
20
719.135870294
10
-181.524120311
20
719.03535466
10
-181.544783299
20
718.935169981
10
-181.566356354
20
718.835320794
10
-181.588834941
20
718.735811637
10
-181.612214526
20
718.636647047
10
-181.636490575
20
718.537831561
10
-181.661658553
20
718.439369716
10
-181.687713926
20
718.34126605
10
-181.71465216
20
718.243525101
10
-181.742468721
20
718.146151404
10
-181.771159073
20
718.049149499
10
-181.800718684
20
717.952523921
10
-181.831143017
20
717.856279209
10
-181.86242754
20
717.760419899
10
-181.894567718
20
717.664950529
10
-181.927559015
20
717.569875636
10
-181.961396899
20
717.475199758
10
-181.996076835
20
717.380927431
10
-182.031594288
20
717.287063194
10
-182.067944724
20
717.193611583
10
-182.105123609
20
717.100577135
10
-182.143126408
20
717.007964389
10
-182.181948588
20
716.915777881
10
-182.221585613
20
716.824022148
10
-182.262032949
20
716.732701728
10
-182.303286062
20
716.641821159
10
-182.345340419
20
716.551384976
10
-182.388191483
20
716.461397719
10
-182.431834722
20
716.371863923
10
-182.4762656
20
716.282788127
10
-182.521479584
20
716.194174868
10
-182.567472139
20
716.106028682
10
-182.61423873
20
716.018354108
10
-182.661774824
20
715.931155682
10
-182.710075886
20
715.844437942
10
-182.759137382
20
715.758205425
10
-182.808954777
20
715.672462669
10
-182.859523537
20
715.58721421
10
-182.910839128
20
715.502464586
10
-182.962897015
20
715.418218335
10
-183.015692664
20
715.334479993
10
-183.069221541
20
715.251254098
10
-183.123479112
20
715.168545187
10
-183.178460841
20
715.086357798
10
-183.234162195
20
715.004696467
10
-183.29057864
20
714.923565733
10
-183.34770564
20
714.842970132
10
-183.405538662
20
714.762914201
10
-183.464073172
20
714.683402479
10
-183.523304635
20
714.604439502
10
-183.583228516
20
714.526029807
10
-183.643840282
20
714.448177933
10
-183.705135398
20
714.370888415
10
-183.767109329
20
714.294165792
10
-183.829757542
20
714.218014601
10
-183.893075502
20
714.142439378
10
-183.957058675
20
714.067444663
10
-184.021702526
20
713.99303499
10
-184.087002521
20
713.919214899
10
-184.152954126
20
713.845988926
10
-184.219552806
20
713.773361608
10
-184.286794027
20
713.701337484
10
-184.354673255
20
713.629921089
10
-184.423185955
20
713.559116962
10
-184.492327593
20
713.48892964
10
-184.562093635
20
713.419363659
10
-184.632479547
20
713.350423558
10
-184.703480793
20
713.282113874
10
-184.77509284
20
713.214439143
10
-184.847311153
20
713.147403904
10
-184.920131199
20
713.081012693
10
-184.993548442
20
713.015270048
10
-185.067558349
20
712.950180507
10
-185.142156384
20
712.885748605
10
-185.217338015
20
712.821978881
10
-185.293098705
20
712.758875873
10
-185.369433922
20
712.696444116
10
-185.44633913
20
712.634688149
10
-185.523809796
20
712.573612509
10
-185.601841385
20
712.513221733
10
-185.680429362
20
712.453520359
10
-185.759569194
20
712.394512924
10
-185.839256346
20
712.336203964
10
-185.919486283
20
712.278598018
10
-186.000254472
20
712.221699623
10
-186.081556378
20
712.165513315
10
-186.163387467
20
712.110043633
10
-186.245743204
20
712.055295113
10
-186.328619055
20
712.001272294
10
-186.412010485
20
711.947979711
10
-186.495912961
20
711.895421903
10
-186.580321949
20
711.843603406
10
-186.665232912
20
711.792528759
10
-186.750641318
20
711.742202498
10
-186.836542632
20
711.69262916
10
-186.92293232
20
711.643813284
10
-187.009805847
20
711.595759406
10
-187.09715868
20
711.548472063
10
-187.184986282
20
711.501955793
10
-187.273284122
20
711.456215133
10
-187.362047663
20
711.411254621
10
-187.451272372
20
711.367078794
10
-187.540953714
20
711.323692188
10
-187.631087155
20
711.281099342
10
-187.721668161
20
711.239304792
10
-187.812692197
20
711.198313076
10
-187.90415473
20
711.158128732
10
-187.996051224
20
711.118756296
10
-188.088377145
20
711.080200305
10
-188.181127959
20
711.042465298
10
-188.274299132
20
711.005555812
10
-188.36788613
20
710.969476382
10
-188.461884417
20
710.934231548
10
-188.55628946
20
710.899825847
10
-188.651096725
20
710.866263814
10
-188.746301676
20
710.833549989
10
-188.84189978
20
710.801688908
10
-188.937886503
20
710.770685108
10
-189.034257309
20
710.740543127
10
-189.131007665
20
710.711267502
10
-189.228133036
20
710.682862771
10
-189.325628889
20
710.65533347
10
-189.423490688
20
710.628684137
10
-189.521713899
20
710.60291931
10
-189.620293989
20
710.578043525
10
-189.719226422
20
710.554061319
10
-189.818506664
20
710.530977231
10
-189.918130182
20
710.508795798
10
-190.01809244
20
710.487521556
10
-190.118388904
20
710.467159043
10
-190.219015041
20
710.447712796
10
-190.319966315
20
710.429187354
10
-190.421238192
20
710.411587252
10
-190.522826139
20
710.394917028
10
-190.62472562
20
710.37918122
10
-190.726932102
20
710.364384364
10
-190.829441049
20
710.350530999
10
-190.932247928
20
710.337625661
10
-191.035348204
20
710.325672888
10
-191.138737344
20
710.314677217
10
-191.242410812
20
710.304643185
10
-191.346364074
20
710.29557533
10
-191.450592597
20
710.287478188
10
-191.555091845
20
710.280356298
10
-191.659857284
20
710.274214197
10
-191.764884381
20
710.269056421
10
-191.8701686
20
710.264887508
10
-191.975705407
20
710.261711996
10
-192.081490268
20
710.259534421
10
-192.187518649
20
710.258359321
10
-192.293759628
20
710.258191178
10
-192.39986767
20
710.259031111
10
-192.505733709
20
710.260875031
10
-192.611353212
20
710.263718402
10
-192.716721644
20
710.267556685
10
-192.821834471
20
710.272385344
10
-192.926687157
20
710.278199842
10
-193.03127517
20
710.28499564
10
-193.135593974
20
710.292768202
10
-193.239639035
20
710.30151299
10
-193.343405819
20
710.311225467
10
-193.446889791
20
710.321901096
10
-193.550086418
20
710.333535339
10
-193.652991164
20
710.346123659
10
-193.755599495
20
710.35966152
10
-193.857906877
20
710.374144382
10
-193.959908776
20
710.38956771
10
-194.061600657
20
710.405926966
10
-194.162977986
20
710.423217613
10
-194.264036228
20
710.441435113
10
-194.36477085
20
710.460574929
10
-194.465177316
20
710.480632524
10
-194.565251092
20
710.501603361
10
-194.664987644
20
710.523482901
10
-194.764382438
20
710.546266609
10
-194.863430939
20
710.569949945
10
-194.962128613
20
710.594528375
10
-195.060470926
20
710.619997359
10
-195.158453343
20
710.646352361
10
-195.256071329
20
710.673588843
10
-195.353320351
20
710.701702269
10
-195.450195874
20
710.7306881
10
-195.546693363
20
710.7605418
10
-195.642808285
20
710.79125883
10
-195.738536104
20
710.822834655
10
-195.833872288
20
710.855264737
10
-195.9288123
20
710.888544537
10
-196.023351607
20
710.92266952
10
-196.117485675
20
710.957635148
10
-196.211209968
20
710.993436883
10
-196.304519954
20
711.030070188
10
-196.397411096
20
711.067530525
10
-196.489878862
20
711.105813359
10
-196.581918716
20
711.14491415
10
-196.673526125
20
711.184828363
10
-196.764696553
20
711.225551459
10
-196.855425467
20
711.267078901
10
-196.945708332
20
711.309406153
10
-197.035540614
20
711.352528676
10
-197.124917778
20
711.396441934
10
-197.21383529
20
711.441141389
10
-197.302288615
20
711.486622504
10
-197.39027322
20
711.532880741
10
-197.47778457
20
711.579911564
10
-197.564818131
20
711.627710434
10
-197.651369367
20
711.676272815
10
-197.737433746
20
711.72559417
10
-197.823006731
20
711.77566996
10
-197.90808379
20
711.82649565
10
-197.992660388
20
711.878066701
10
-198.07673199
20
711.930378576
10
-198.160294061
20
711.983426738
10
-198.243342069
20
712.037206649
10
-198.325871477
20
712.091713773
10
-198.407877753
20
712.146943572
10
-198.489356361
20
712.202891508
10
-198.570302767
20
712.259553045
10
-198.650712437
20
712.316923645
10
-198.730580836
20
712.374998771
10
-198.80990343
20
712.433773886
10
-198.888675685
20
712.493244451
10
-198.966893066
20
712.553405931
10
-199.044551039
20
712.614253787
10
-199.121645069
20
712.675783482
10
-199.198170623
20
712.737990479
10
-199.274123165
20
712.800870242
10
-199.349498162
20
712.864418231
10
-199.424291079
20
712.928629911
10
-199.498497381
20
712.993500743
10
-199.572112535
20
713.059026192
10
-199.645132006
20
713.125201718
10
-199.717551259
20
713.192022785
10
-199.789365761
20
713.259484856
10
-199.860570976
20
713.327583393
10
-199.931162371
20
713.39631386
10
-200.001135411
20
713.465671718
10
-200.070485562
20
713.53565243
10
-200.139208289
20
713.60625146
10
-200.207299058
20
713.677464269
10
-200.274753335
20
713.749286321
10
-200.341566585
20
713.821713079
10
-200.407734274
20
713.894740004
10
-200.473251867
20
713.96836256
10
-200.53811483
20
714.04257621
10
-200.60231863
20
714.117376415
10
-200.66585873
20
714.192758639
10
-200.728730598
20
714.268718345
10
-200.790929698
20
714.345250995
10
-200.852451497
20
714.422352052
10
-200.91329146
20
714.500016978
10
-200.973445052
20
714.578241237
10
-201.032907739
20
714.657020291
10
-201.091674988
20
714.736349602
10
-201.149742262
20
714.816224634
10
-201.207105029
20
714.896640849
10
-201.263758753
20
714.97759371
10
-201.319698901
20
715.059078679
10
-201.374920938
20
715.14109122
10
-201.429420329
20
715.223626794
10
-201.483192541
20
715.306680865
10
-201.536233039
20
715.390248896
10
-201.588537288
20
715.474326348
10
-201.640100754
20
715.558908685
10
-201.690918903
20
715.64399137
10
-201.7409872
20
715.729569864
10
-201.790301112
20
715.815639632
10
-201.838856103
20
715.902196135
10
-201.886647639
20
715.989234836
10
-201.933671186
20
716.076751199
10
-201.97992221
20
716.164740685
10
-202.025396176
20
716.253198757
10
-202.07008855
20
716.342120879
10
-202.113994797
20
716.431502512
10
-202.157110384
20
716.521339119
10
-202.199430775
20
716.611626164
10
-202.240951436
20
716.702359109
10
-202.281667834
20
716.793533416
10
-202.321575433
20
716.885144549
10
-202.360669699
20
716.977187969
10
-202.398946098
20
717.06965914
10
-202.436400095
20
717.162553525
10
-202.473027157
20
717.255866585
10
-202.508822749
20
717.349593785
10
-202.543782336
20
717.443730586
10
-202.577901383
20
717.538272451
10
-202.611175358
20
717.633214843
10
-202.643599725
20
717.728553225
10
-202.67516995
20
717.824283059
10
-202.705881498
20
717.920399808
10
-202.735729835
20
718.016898934
10
-202.764710428
20
718.113775902
10
-202.79281874
20
718.211026172
10
-202.820050239
20
718.308645208
10
-202.84640039
20
718.406628472
10
-202.871864658
20
718.504971428
10
-202.896438508
20
718.603669538
10
-202.920117408
20
718.702718264
10
-202.942896821
20
718.80211307
10
-202.964772215
20
718.901849418
10
-202.985739054
20
719.00192277
10
-203.005792804
20
719.10232859
10
-203.024928931
20
719.20306234
10
-203.0431429
20
719.304119483
10
-203.060430177
20
719.405495482
10
-203.076786228
20
719.507185799
10
-203.092206518
20
719.609185896
10
-203.106686513
20
719.711491238
10
-203.120221679
20
719.814097285
10
-203.132807481
20
719.916999502
10
-203.144439384
20
720.020193351
10
-203.155112855
20
720.123674294
10
-203.164823359
20
720.227437794
10
-203.173566362
20
720.331479314
10
-203.181337329
20
720.435794317
10
-203.188131726
20
720.540378265
10
-203.193945019
20
720.645226621
10
-203.198772673
20
720.750334848
10
-203.202610154
20
720.855698408
10
-203.205452927
20
720.961312764
10
-203.207296458
20
721.067173379
10
-203.208136213
20
721.173275715
10
-203.20818878
20
721.199838537
10
-203.208192067
20
721.20648155
10
-203.208192273
20
721.208142447
10
-203.208192286
20
721.209123339
10
-203.208192286
20
721.210405077
10
-203.208192286
20
721.21553203
10
-203.208192286
20
721.236039843
10
-203.208192286
20
721.318071094
10
-203.208192286
20
721.646196097
10
-203.208192286
20
722.958696112
0
LWPOLYLINE
5
16A
100
AcDbEntity
8
HOLES
6
ByLayer
62
256
370
-1
100
AcDbPolyline
90
257
70
1
43
0
10
-272.345666286
20
718.809207169
10
-272.345666286
20
718.809207169
10
-272.497985033
20
718.811116767
10
-272.649351143
20
718.816849103
10
-272.79971834
20
718.826357877
10
-272.949040348
20
718.839596791
10
-273.097270891
20
718.856519545
10
-273.244363695
20
718.877079841
10
-273.390272483
20
718.901231379
10
-273.53495098
20
718.928927862
10
-273.67835291
20
718.96012299
10
-273.820431997
20
718.994770464
10
-273.961141967
20
719.032823985
10
-274.100436542
20
719.074237255
10
-274.238269449
20
719.118963974
10
-274.37459441
20
719.166957844
10
-274.509365151
20
719.218172566
10
-274.642535396
20
719.272561841
10
-274.774058868
20
719.330079369
10
-274.903889294
20
719.390678853
10
-275.031980396
20
719.454313993
10
-275.158285899
20
719.520938491
10
-275.282759528
20
719.590506047
10
-275.405355008
20
719.662970362
10
-275.526026061
20
719.738285139
10
-275.644726413
20
719.816404077
10
-275.761409789
20
719.897280878
10
-275.876029911
20
719.980869243
10
-275.988540506
20
720.067122874
10
-276.098895297
20
720.155995471
10
-276.207048009
20
720.247440735
10
-276.312952366
20
720.341412368
10
-276.416562092
20
720.43786407
10
-276.517830911
20
720.536749544
10
-276.616712549
20
720.638022489
10
-276.713160729
20
720.741636607
10
-276.807129177
20
720.8475456
10
-276.898571615
20
720.955703168
10
-276.987441769
20
721.066063012
10
-277.073693363
20
721.178578833
10
-277.157280122
20
721.293204334
10
-277.238155769
20
721.409893214
10
-277.316274029
20
721.528599175
10
-277.391588627
20
721.649275918
10
-277.464053286
20
721.771877144
10
-277.533621732
20
721.896356554
10
-277.600247688
20
722.022667849
10
-277.663884879
20
722.150764731
10
-277.72448703
20
722.280600901
10
-277.782007864
20
722.412130059
10
-277.836401107
20
722.545305908
10
-277.887620482
20
722.680082147
10
-277.935619713
20
722.816412478
10
-277.980352526
20
722.954250602
10
-278.021772645
20
723.093550221
10
-278.059833793
20
723.234265035
10
-278.094489696
20
723.376348745
10
-278.125694077
20
723.519755054
10
-278.153400662
20
723.664437661
10
-278.177563174
20
723.810350267
10
-278.198135337
20
723.957446575
10
-278.215070877
20
724.105680285
10
-278.228323518
20
724.255005098
10
-278.237846983
20
724.405374716
10
-278.243594998
20
724.556742839
10
-278.245521286
20
724.709063169
10
-278.243594998
20
724.861318072
10
-278.237846983
20
725.012624855
10
-278.228323518
20
725.162937131
10
-278.215070877
20
725.312208512
10
-278.198135337
20
725.460392608
10
-278.177563174
20
725.607443034
10
-278.153400662
20
725.753313399
10
-278.125694077
20
725.897957317
10
-278.094489696
20
726.041328399
10
-278.059833793
20
726.183380258
10
-278.021772645
20
726.324066505
10
-277.980352526
20
726.463340752
10
-277.935619713
20
726.601156611
10
-277.887620482
20
726.737467694
10
-277.836401107
20
726.872227614
10
-277.782007864
20
727.005389981
10
-277.72448703
20
727.136908409
10
-277.663884879
20
727.266736509
10
-277.600247688
20
727.394827892
10
-277.533621732
20
727.521136172
10
-277.464053286
20
727.645614959
10
-277.391588627
20
727.768217867
10
-277.316274029
20
727.888898506
10
-277.238155769
20
728.007610489
10
-277.157280122
20
728.124307428
10
-277.073693363
20
728.238942935
10
-276.987441769
20
728.351470621
10
-276.898571615
20
728.461844099
10
-276.807129177
20
728.570016981
10
-276.713160729
20
728.675942879
10
-276.616712549
20
728.779575404
10
-276.517830911
20
728.880868169
10
-276.416562092
20
728.979774785
10
-276.312952366
20
729.076248865
10
-276.207048009
20
729.17024402
10
-276.098895297
20
729.261713863
10
-275.988540506
20
729.350612005
10
-275.876029911
20
729.436892059
10
-275.761409789
20
729.520507636
10
-275.644726413
20
729.601412348
10
-275.526026061
20
729.679559808
10
-275.405355008
20
729.754903627
10
-275.282759528
20
729.827397417
10
-275.158285899
20
729.896994791
10
-275.031980396
20
729.96364936
10
-274.903889294
20
730.027314735
10
-274.774058868
20
730.08794453
10
-274.642535396
20
730.145492356
10
-274.509365151
20
730.199911825
10
-274.37459441
20
730.25115655
10
-274.238269449
20
730.299180141
10
-274.100436542
20
730.343936211
10
-273.961141967
20
730.385378372
10
-273.820431997
20
730.423460236
10
-273.67835291
20
730.458135415
10
-273.53495098
20
730.48935752
10
-273.390272483
20
730.517080165
10
-273.244363695
20
730.54125696
10
-273.097270891
20
730.561841518
10
-272.949040348
20
730.578787451
10
-272.79971834
20
730.592048371
10
-272.649351143
20
730.601577889
10
-272.497985033
20
730.607329617
10
-272.345666286
20
730.609257169
10
-272.193395159
20
730.607329617
10
-272.042074165
20
730.601577889
10
-271.891749635
20
730.592048371
10
-271.742467902
20
730.578787451
10
-271.594275297
20
730.561841518
10
-271.447218153
20
730.54125696
10
-271.3013428
20
730.517080165
10
-271.156695571
20
730.48935752
10
-271.013322798
20
730.458135415
10
-270.871270812
20
730.423460236
10
-270.730585944
20
730.385378372
10
-270.591314528
20
730.343936211
10
-270.453502894
20
730.299180141
10
-270.317197374
20
730.25115655
10
-270.182444301
20
730.199911825
10
-270.049290005
20
730.145492356
10
-269.917780819
20
730.08794453
10
-269.787963074
20
730.027314735
10
-269.659883103
20
729.96364936
10
-269.533587236
20
729.896994791
10
-269.409121806
20
729.827397417
10
-269.286533145
20
729.754903627
10
-269.165867583
20
729.679559808
10
-269.047171454
20
729.601412348
10
-268.930491089
20
729.520507636
10
-268.815872819
20
729.436892059
10
-268.703362977
20
729.350612005
10
-268.593007893
20
729.261713863
10
-268.484853901
20
729.17024402
10
-268.378947331
20
729.076248865
10
-268.275334515
20
728.979774785
10
-268.174061786
20
728.880868169
10
-268.075175475
20
728.779575404
10
-267.978721914
20
728.675942879
10
-267.884747434
20
728.570016981
10
-267.793298367
20
728.461844099
10
-267.704421045
20
728.351470621
10
-267.6181618
20
728.238942935
10
-267.534566964
20
728.124307428
10
-267.453682868
20
728.007610489
10
-267.375555845
20
727.888898506
10
-267.300232225
20
727.768217867
10
-267.227758341
20
727.645614959
10
-267.158180524
20
727.521136172
10
-267.091545107
20
727.394827892
10
-267.02789842
20
727.266736509
10
-266.967286797
20
727.136908409
10
-266.909756568
20
727.005389981
10
-266.855354065
20
726.872227614
10
-266.80412562
20
726.737467694
10
-266.756117565
20
726.601156611
10
-266.711376232
20
726.463340752
10
-266.669947952
20
726.324066505
10
-266.631879058
20
726.183380258
10
-266.59721588
20
726.041328399
10
-266.566004751
20
725.897957317
10
-266.538292003
20
725.753313399
10
-266.514123967
20
725.607443034
10
-266.493546974
20
725.460392608
10
-266.476607358
20
725.312208512
10
-266.463351449
20
725.162937131
10
-266.45382558
20
725.012624855
10
-266.448076082
20
724.861318072
10
-266.446149286
20
724.709063169
10
-266.448076082
20
724.556759773
10
-266.45382558
20
724.405408047
10
-266.463351449
20
724.255054289
10
-266.476607358
20
724.105744797
10
-266.493546974
20
723.957525871
10
-266.514123967
20
723.810443809
10
-266.538292003
20
723.664544911
10
-266.566004751
20
723.519875475
10
-266.59721588
20
723.376481801
10
-266.631879058
20
723.234410186
10
-266.669947952
20
723.09370693
10
-266.711376232
20
722.954418333
10
-266.756117565
20
722.816590691
10
-266.80412562
20
722.680270306
10
-266.855354065
20
722.545503475
10
-266.909756568
20
722.412336497
10
-266.967286797
20
722.280815671
10
-267.02789842
20
722.150987297
10
-267.091545107
20
722.022897672
10
-267.158180524
20
721.896593097
10
-267.227758341
20
721.772119869
10
-267.300232225
20
721.649524288
10
-267.375555845
20
721.528852652
10
-267.453682868
20
721.410151261
10
-267.534566964
20
721.293466413
10
-267.6181618
20
721.178844407
10
-267.704421045
20
721.066331542
10
-267.793298367
20
720.955974117
10
-267.884747434
20
720.847818431
10
-267.978721914
20
720.741910782
10
-268.075175475
20
720.63829747
10
-268.174061786
20
720.537024794
10
-268.275334515
20
720.438139052
10
-268.378947331
20
720.341686543
10
-268.484853901
20
720.247713566
10
-268.593007893
20
720.15626642
10
-268.703362977
20
720.067391404
10
-268.815872819
20
719.981134817
10
-268.930491089
20
719.897542957
10
-269.047171454
20
719.816662124
10
-269.165867583
20
719.738538616
10
-269.286533145
20
719.663218733
10
-269.409121806
20
719.590748772
10
-269.533587236
20
719.521175034
10
-269.659883103
20
719.454543816
10
-269.787963074
20
719.390901419
10
-269.917780819
20
719.33029414
10
-270.049290005
20
719.272768278
10
-270.182444301
20
719.218370133
10
-270.317197374
20
719.167146003
10
-270.453502894
20
719.119142188
10
-270.591314528
20
719.074404985
10
-270.730585944
20
719.032980695
10
-270.871270812
20
718.994915615
10
-271.013322798
20
718.960256045
10
-271.156695571
20
718.929048284
10
-271.3013428
20
718.90133863
10
-271.447218153
20
718.877173383
10
-271.594275297
20
718.85659884
10
-271.742467902
20
718.839661302
10
-271.891749635
20
718.826407067
10
-272.042074165
20
718.816882434
10
-272.193395159
20
718.811133702
0
LWPOLYLINE
5
16B
100
AcDbEntity
8
HOLES
6
ByLayer
62
256
370
-1
100
AcDbPolyline
90
65
70
1
43
0
10
-254.2023529
20
723.290977166
10
-254.062944012
20
723.311928738
10
-253.928298764
20
723.346011258
10
-253.799099302
20
723.392540097
10
-253.676027767
20
723.450830627
10
-253.559766303
20
723.52019822
10
-253.450997055
20
723.599958248
10
-253.350402164
20
723.689426082
10
-253.258663775
20
723.787917095
10
-253.176464031
20
723.894746658
10
-253.104485075
20
724.009230144
10
-253.043409051
20
724.130682923
10
-252.993918102
20
724.258420369
10
-252.956694372
20
724.391757852
10
-252.932420004
20
724.530010745
10
-252.921777141
20
724.67249442
10
-252.925352
20
724.816714799
10
-252.942895884
20
724.957261933
10
-252.973730201
20
725.093209607
10
-253.017172808
20
725.223876074
10
-253.072541563
20
725.348579583
10
-253.139154321
20
725.466638386
10
-253.216328938
20
725.577370733
10
-253.303383273
20
725.680094876
10
-253.399635181
20
725.774129066
10
-253.504402518
20
725.858791553
10
-253.617003142
20
725.933400588
10
-253.736754909
20
725.997274422
10
-253.862975676
20
726.049731307
10
-253.994983299
20
726.090089492
10
-254.132095635
20
726.117667229
10
-254.27363054
20
726.131782769
10
-254.418025062
20
726.131782769
10
-254.559515084
20
726.117667229
10
-254.696603206
20
726.090089492
10
-254.828604797
20
726.049731307
10
-254.954835223
20
725.997274422
10
-255.074609853
20
725.933400588
10
-255.187244054
20
725.858791553
10
-255.292053194
20
725.774129066
10
-255.388352641
20
725.680094876
10
-255.475457762
20
725.577370733
10
-255.552683925
20
725.466638386
10
-255.619346497
20
725.348579583
10
-255.674760847
20
725.223876074
10
-255.718242341
20
725.093209607
10
-255.749106348
20
724.957261933
10
-255.766668236
20
724.816714799
10
-255.770246937
20
724.67249442
10
-255.759592847
20
724.530010745
10
-255.73529432
20
724.391757852
10
-255.69803599
20
724.258420369
10
-255.648502489
20
724.130682923
10
-255.587378449
20
724.009230144
10
-255.515348502
20
723.894746658
10
-255.433097282
20
723.787917095
10
-255.341309419
20
723.689426082
10
-255.240669546
20
723.599958248
10
-255.131862297
20
723.52019822
10
-255.015572302
20
723.450830627
10
-254.892484195
20
723.392540097
10
-254.763282607
20
723.346011258
10
-254.628652172
20
723.311928738
10
-254.489277521
20
723.290977166
10
-254.345843286
20
723.283841169
0
LWPOLYLINE
5
16C
100
AcDbEntity
8
HOLES
6
ByLayer
62
256
370
-1
100
AcDbPolyline
90
65
70
1
43
0
10
-290.202228626
20
723.290977166
10
-290.062823288
20
723.311928738
10
-289.928180533
20
723.346011258
10
-289.798982624
20
723.392540097
10
-289.675911823
20
723.450830627
10
-289.559650393
20
723.52019822
10
-289.450880595
20
723.599958248
10
-289.350284692
20
723.689426082
10
-289.258544947
20
723.787917095
10
-289.176343621
20
723.894746658
10
-289.104362977
20
724.009230144
10
-289.043285276
20
724.130682923
10
-288.993792782
20
724.258420369
10
-288.956567757
20
724.391757852
10
-288.932292462
20
724.530010745
10
-288.92164916
20
724.67249442
10
-288.925224171
20
724.816714799
10
-288.942768752
20
724.957261933
10
-288.973604195
20
725.093209607
10
-289.017048237
20
725.223876074
10
-289.072418617
20
725.348579583
10
-289.139033072
20
725.466638386
10
-289.21620934
20
725.577370733
10
-289.303265158
20
725.680094876
10
-289.399518265
20
725.774129066
10
-289.504286398
20
725.858791553
10
-289.616887295
20
725.933400588
10
-289.736638693
20
725.997274422
10
-289.862858331
20
726.049731307
10
-289.994863946
20
726.090089492
10
-290.131973275
20
726.117667229
10
-290.273504057
20
726.131782769
10
-290.417896229
20
726.131782769
10
-290.559387008
20
726.117667229
10
-290.696476385
20
726.090089492
10
-290.828479651
20
726.049731307
10
-290.954712098
20
725.997274422
10
-291.074489015
20
725.933400588
10
-291.187125694
20
725.858791553
10
-291.291937426
20
725.774129066
10
-291.388239501
20
725.680094876
10
-291.47534721
20
725.577370733
10
-291.552575844
20
725.466638386
10
-291.619240693
20
725.348579583
10
-291.674657049
20
725.223876074
10
-291.718140202
20
725.093209607
10
-291.749005443
20
724.957261933
10
-291.766568062
20
724.816714799
10
-291.770146917
20
724.67249442
10
-291.759492375
20
724.530010745
10
-291.735192856
20
724.391757852
10
-291.69793307
20
724.258420369
10
-291.648397727
20
724.130682923
10
-291.587271536
20
724.009230144
10
-291.515239206
20
723.894746658
10
-291.432985446
20
723.787917095
10
-291.341194965
20
723.689426082
10
-291.240552473
20
723.599958248
10
-291.131742679
20
723.52019822
10
-291.015450292
20
723.450830627
10
-290.892360021
20
723.392540097
10
-290.763156576
20
723.346011258
10
-290.628524666
20
723.311928738
10
-290.489148999
20
723.290977166
10
-290.345714286
20
723.283841169
0
LWPOLYLINE
5
16D
100
AcDbEntity
8
HOLES
6
ByLayer
62
256
370
-1
100
AcDbPolyline
90
257
70
1
43
0
10
-112.171092286
20
718.809207169
10
-112.171092286
20
718.809207169
10
-112.323412351
20
718.811116767
10
-112.474779697
20
718.816849103
10
-112.625148051
20
718.826357877
10
-112.774471138
20
718.839596791
10
-112.922702685
20
718.856519545
10
-113.069796418
20
718.877079841
10
-113.215706064
20
718.901231379
10
-113.360385349
20
718.928927862
10
-113.503787999
20
718.96012299
10
-113.64586774
20
718.994770464
10
-113.7865783
20
719.032823985
10
-113.925873403
20
719.074237255
10
-114.063706778
20
719.118963974
10
-114.200032149
20
719.166957844
10
-114.334803243
20
719.218172566
10
-114.467973786
20
719.272561841
10
-114.599497506
20
719.330079369
10
-114.729328127
20
719.390678853
10
-114.857419377
20
719.454313993
10
-114.983724982
20
719.520938491
10
-115.108198667
20
719.590506047
10
-115.23079416
20
719.662970362
10
-115.351465187
20
719.738285139
10
-115.470165474
20
719.816404077
10
-115.586848747
20
719.897280878
10
-115.701468733
20
719.980869243
10
-115.813979157
20
720.067122874
10
-115.924333747
20
720.155995471
10
-116.032486229
20
720.247440735
10
-116.138390328
20
720.341412368
10
-116.241999772
20
720.43786407
10
-116.343268286
20
720.536749544
10
-116.442149597
20
720.638022489
10
-116.538597432
20
720.741636607
10
-116.632565516
20
720.8475456
10
-116.724007575
20
720.955703168
10
-116.812877337
20
721.066063012
10
-116.899128527
20
721.178578833
10
-116.982714873
20
721.293204334
10
-117.063590099
20
721.409893214
10
-117.141707932
20
721.528599175
10
-117.2170221
20
721.649275918
10
-117.289486327
20
721.771877144
10
-117.359054341
20
721.896356554
10
-117.425679867
20
722.022667849
10
-117.489316633
20
722.150764731
10
-117.549918364
20
722.280600901
10
-117.607438786
20
722.412130059
10
-117.661831627
20
722.545305908
10
-117.713050611
20
722.680082147
10
-117.761049467
20
722.816412478
10
-117.805781919
20
722.954250602
10
-117.847201695
20
723.093550221
10
-117.88526252
20
723.234265035
10
-117.919918121
20
723.376348745
10
-117.951122224
20
723.519755054
10
-117.978828555
20
723.664437661
10
-118.002990842
20
723.810350267
10
-118.02356281
20
723.957446575
10
-118.040498185
20
724.105680285
10
-118.053750694
20
724.255005098
10
-118.063274063
20
724.405374716
10
-118.069022018
20
724.556742839
10
-118.070948286
20
724.709063169
10
-118.069021754
20
724.861318072
10
-118.063273024
20
725.012624855
10
-118.053748394
20
725.162937131
10
-118.040494164
20
725.312208512
10
-118.023556632
20
725.460392608
10
-118.002982096
20
725.607443034
10
-117.978816857
20
725.753313399
10
-117.951107212
20
725.897957317
10
-117.919899461
20
726.041328399
10
-117.885239902
20
726.183380258
10
-117.847174834
20
726.324066505
10
-117.805750555
20
726.463340752
10
-117.761013366
20
726.601156611
10
-117.713009564
20
726.737467694
10
-117.661785448
20
726.872227614
10
-117.607387318
20
727.005389981
10
-117.549861471
20
727.136908409
10
-117.489254207
20
727.266736509
10
-117.425611825
20
727.394827892
10
-117.358980623
20
727.521136172
10
-117.2894069
20
727.645614959
10
-117.216936955
20
727.768217867
10
-117.141617087
20
727.888898506
10
-117.063493595
20
728.007610489
10
-116.982612777
20
728.124307428
10
-116.899020932
20
728.238942935
10
-116.81276436
20
728.351470621
10
-116.723889358
20
728.461844099
10
-116.632442226
20
728.570016981
10
-116.538469263
20
728.675942879
10
-116.442016766
20
728.779575404
10
-116.343131036
20
728.880868169
10
-116.241858371
20
728.979774785
10
-116.13824507
20
729.076248865
10
-116.032337431
20
729.17024402
10
-115.924181754
20
729.261713863
10
-115.813824336
20
729.350612005
10
-115.701311478
20
729.436892059
10
-115.586689478
20
729.520507636
10
-115.470004634
20
729.601412348
10
-115.351303246
20
729.679559808
10
-115.230631612
20
729.754903627
10
-115.108036031
20
729.827397417
10
-114.983562801
20
729.896994791
10
-114.857258223
20
729.96364936
10
-114.729168594
20
730.027314735
10
-114.599340213
20
730.08794453
10
-114.46781938
20
730.145492356
10
-114.334652393
20
730.199911825
10
-114.19988555
20
730.25115655
10
-114.063565151
20
730.299180141
10
-113.925737494
20
730.343936211
10
-113.786448878
20
730.385378372
10
-113.645745603
20
730.423460236
10
-113.503673966
20
730.458135415
10
-113.360280267
20
730.48935752
10
-113.215610804
20
730.517080165
10
-113.069711877
20
730.54125696
10
-112.922629783
20
730.561841518
10
-112.774410823
20
730.578787451
10
-112.625101294
20
730.592048371
10
-112.474747496
20
730.601577889
10
-112.323395727
20
730.607329617
10
-112.171092286
20
730.609257169
10
-112.018821225
20
730.607329617
10
-111.867500336
20
730.601577889
10
-111.717175948
20
730.592048371
10
-111.567894392
20
730.578787451
10
-111.419702
20
730.561841518
10
-111.272645101
20
730.54125696
10
-111.126770026
20
730.517080165
10
-110.982123105
20
730.48935752
10
-110.838750669
20
730.458135415
10
-110.696699048
20
730.423460236
10
-110.556014574
20
730.385378372
10
-110.416743576
20
730.343936211
10
-110.278932384
20
730.299180141
10
-110.142627331
20
730.25115655
10
-110.007874745
20
730.199911825
10
-109.874720958
20
730.145492356
10
-109.7432123
20
730.08794453
10
-109.613395102
20
730.027314735
10
-109.485315693
20
729.96364936
10
-109.359020405
20
729.896994791
10
-109.234555568
20
729.827397417
10
-109.111967513
20
729.754903627
10
-108.99130257
20
729.679559808
10
-108.872607069
20
729.601412348
10
-108.755927342
20
729.520507636
10
-108.641309718
20
729.436892059
10
-108.528800529
20
729.350612005
10
-108.418446104
20
729.261713863
10
-108.310292774
20
729.17024402
10
-108.20438687
20
729.076248865
10
-108.100774722
20
728.979774785
10
-107.999502661
20
728.880868169
10
-107.900617017
20
728.779575404
10
-107.804164121
20
728.675942879
10
-107.710190304
20
728.570016981
10
-107.618741894
20
728.461844099
10
-107.529865225
20
728.351470621
10
-107.443606625
20
728.238942935
10
-107.360012425
20
728.124307428
10
-107.279128956
20
728.007610489
10
-107.201002549
20
727.888898506
10
-107.125679533
20
727.768217867
10
-107.05320624
20
727.645614959
10
-106.983628999
20
727.521136172
10
-106.916994142
20
727.394827892
10
-106.853347999
20
727.266736509
10
-106.792736901
20
727.136908409
10
-106.735207177
20
727.005389981
10
-106.680805159
20
726.872227614
10
-106.629577176
20
726.737467694
10
-106.58156956
20
726.601156611
10
-106.536828642
20
726.463340752
10
-106.49540075
20
726.324066505
10
-106.457332217
20
726.183380258
10
-106.422669372
20
726.041328399
10
-106.391458546
20
725.897957317
10
-106.36374607
20
725.753313399
10
-106.339578274
20
725.607443034
10
-106.319001488
20
725.460392608
10
-106.302062043
20
725.312208512
10
-106.28880627
20
725.162937131
10
-106.2792805
20
725.012624855
10
-106.273531061
20
724.861318072
10
-106.271604286
20
724.709063169
10
-106.273531061
20
724.556759773
10
-106.2792805
20
724.405408047
10
-106.28880627
20
724.255054289
10
-106.302062043
20
724.105744797
10
-106.319001488
20
723.957525871
10
-106.339578274
20
723.810443809
10
-106.36374607
20
723.664544911
10
-106.391458546
20
723.519875475
10
-106.422669372
20
723.376481801
10
-106.457332217
20
723.234410186
10
-106.49540075
20
723.09370693
10
-106.536828642
20
722.954418333
10
-106.58156956
20
722.816590691
10
-106.629577176
20
722.680270306
10
-106.680805159
20
722.545503475
10
-106.735207177
20
722.412336497
10
-106.792736901
20
722.280815671
10
-106.853347999
20
722.150987297
10
-106.916994142
20
722.022897672
10
-106.983628999
20
721.896593097
10
-107.05320624
20
721.772119869
10
-107.125679533
20
721.649524288
10
-107.201002549
20
721.528852652
10
-107.279128956
20
721.410151261
10
-107.360012425
20
721.293466413
10
-107.443606625
20
721.178844407
10
-107.529865225
20
721.066331542
10
-107.618741894
20
720.955974117
10
-107.710190304
20
720.847818431
10
-107.804164121
20
720.741910782
10
-107.900617017
20
720.63829747
10
-107.999502661
20
720.537024794
10
-108.100774722
20
720.438139052
10
-108.20438687
20
720.341686543
10
-108.310292774
20
720.247713566
10
-108.418446104
20
720.15626642
10
-108.528800529
20
720.067391404
10
-108.641309718
20
719.981134817
10
-108.755927342
20
719.897542957
10
-108.872607069
20
719.816662124
10
-108.99130257
20
719.738538616
10
-109.111967513
20
719.663218733
10
-109.234555568
20
719.590748772
10
-109.359020405
20
719.521175034
10
-109.485315693
20
719.454543816
10
-109.613395102
20
719.390901419
10
-109.7432123
20
719.33029414
10
-109.874720958
20
719.272768278
10
-110.007874745
20
719.218370133
10
-110.142627331
20
719.167146003
10
-110.278932384
20
719.119142188
10
-110.416743576
20
719.074404985
10
-110.556014574
20
719.032980695
10
-110.696699048
20
718.994915615
10
-110.838750669
20
718.960256045
10
-110.982123105
20
718.929048284
10
-111.126770026
20
718.90133863
10
-111.272645101
20
718.877173383
10
-111.419702
20
718.85659884
10
-111.567894392
20
718.839661302
10
-111.717175948
20
718.826407067
10
-111.867500336
20
718.816882434
10
-112.018821225
20
718.811133702
0
LWPOLYLINE
5
16E
100
AcDbEntity
8
HOLES
6
ByLayer
62
256
370
-1
100
AcDbPolyline
90
65
70
1
43
0
10
-94.0274736154
20
723.290977166
10
-93.8880682459
20
723.311928738
10
-93.753425443
20
723.346011258
10
-93.6242274718
20
723.392540097
10
-93.5011565972
20
723.450830627
10
-93.3848950843
20
723.52019822
10
-93.2761251981
20
723.599958248
10
-93.1755292038
20
723.689426082
10
-93.0837893664
20
723.787917095
10
-93.0015879508
20
723.894746658
10
-92.9296072223
20
724.009230144
10
-92.8685294457
20
724.130682923
10
-92.8190368863
20
724.258420369
10
-92.781811809
20
724.391757852
10
-92.7575364788
20
724.530010745
10
-92.7468931609
20
724.67249442
10
-92.7504681768
20
724.816714799
10
-92.7680127839
20
724.957261933
10
-92.7988482708
20
725.093209607
10
-92.8422923723
20
725.223876074
10
-92.8976628234
20
725.348579583
10
-92.9642773591
20
725.466638386
10
-93.0414537143
20
725.577370733
10
-93.1285096239
20
725.680094876
10
-93.2247628229
20
725.774129066
10
-93.3295310463
20
725.858791553
10
-93.4421320289
20
725.933400588
10
-93.5618835058
20
725.997274422
10
-93.6881032119
20
726.049731307
10
-93.8201088821
20
726.090089492
10
-93.9572182514
20
726.117667229
10
-94.0987490547
20
726.131782769
10
-94.2431412293
20
726.131782769
10
-94.3846320076
20
726.117667229
10
-94.5217213846
20
726.090089492
10
-94.653724651
20
726.049731307
10
-94.7799570975
20
725.997274422
10
-94.899734015
20
725.933400588
10
-95.0123706943
20
725.858791553
10
-95.117182426
20
725.774129066
10
-95.213484501
20
725.680094876
10
-95.3005922101
20
725.577370733
10
-95.3778208439
20
725.466638386
10
-95.4444856934
20
725.348579583
10
-95.4999020491
20
725.223876074
10
-95.5433852021
20
725.093209607
10
-95.5742504429
20
724.957261933
10
-95.5918130623
20
724.816714799
10
-95.5953919174
20
724.67249442
10
-95.5847373746
20
724.530010745
10
-95.5604378558
20
724.391757852
10
-95.5231780703
20
724.258420369
10
-95.4736427273
20
724.130682923
10
-95.412516536
20
724.009230144
10
-95.3404842057
20
723.894746658
10
-95.2582304456
20
723.787917095
10
-95.1664399649
20
723.689426082
10
-95.0657974729
20
723.599958248
10
-94.9569876788
20
723.52019822
10
-94.8406952917
20
723.450830627
10
-94.7176050211
20
723.392540097
10
-94.5884015759
20
723.346011258
10
-94.4537696656
20
723.311928738
10
-94.3143939993
20
723.290977166
10
-94.1709592863
20
723.283841169
0
LWPOLYLINE
5
16F
100
AcDbEntity
8
HOLES
6
ByLayer
62
256
370
-1
100
AcDbPolyline
90
65
70
1
43
0
10
-130.027708759
20
723.290977166
10
-129.888292821
20
723.311928738
10
-129.753633679
20
723.346011258
10
-129.624414543
20
723.392540097
10
-129.501318621
20
723.450830627
10
-129.385029124
20
723.52019822
10
-129.276229258
20
723.599958248
10
-129.175602234
20
723.689426082
10
-129.083831261
20
723.787917095
10
-129.001599546
20
723.894746658
10
-128.9295903
20
724.009230144
10
-128.86848673
20
724.130682923
10
-128.818972046
20
724.258420369
10
-128.781729457
20
724.391757852
10
-128.757442172
20
724.530010745
10
-128.746793398
20
724.67249442
10
-128.75037027
20
724.816714799
10
-128.767923701
20
724.957261933
10
-128.798774039
20
725.093209607
10
-128.842238077
20
725.223876074
10
-128.897632605
20
725.348579583
10
-128.964274414
20
725.466638386
10
-129.041480295
20
725.577370733
10
-129.128567041
20
725.680094876
10
-129.224851441
20
725.774129066
10
-129.329650286
20
725.858791553
10
-129.442280369
20
725.933400588
10
-129.56205848
20
725.997274422
10
-129.688301409
20
726.049731307
10
-129.820325949
20
726.090089492
10
-129.957448891
20
726.117667229
10
-130.098987025
20
726.131782769
10
-130.243349723
20
726.131782769
10
-130.384784606
20
726.117667229
10
-130.521824581
20
726.090089492
10
-130.653784543
20
726.049731307
10
-130.779979383
20
725.997274422
10
-130.899723997
20
725.933400588
10
-131.012333278
20
725.858791553
10
-131.11712212
20
725.774129066
10
-131.213405415
20
725.680094876
10
-131.300498059
20
725.577370733
10
-131.377714944
20
725.466638386
10
-131.444370964
20
725.348579583
10
-131.499781013
20
725.223876074
10
-131.543259984
20
725.093209607
10
-131.574122772
20
724.957261933
10
-131.591684269
20
724.816714799
10
-131.595262938
20
724.67249442
10
-131.584609001
20
724.530010745
10
-131.56031122
20
724.391757852
10
-131.523054702
20
724.258420369
10
-131.473524554
20
724.130682923
10
-131.412405881
20
724.009230144
10
-131.34038379
20
723.894746658
10
-131.258143388
20
723.787917095
10
-131.16636978
20
723.689426082
10
-131.065748073
20
723.599958248
10
-130.956963374
20
723.52019822
10
-130.840700788
20
723.450830627
10
-130.717645422
20
723.392540097
10
-130.588482383
20
723.346011258
10
-130.453896776
20
723.311928738
10
-130.314573709
20
723.290977166
10
-130.171198286
20
723.283841169
0
LWPOLYLINE
5
170
100
AcDbEntity
8
HOLES
6
ByLayer
62
256
370
-1
100
AcDbPolyline
90
117
70
1
43
0
10
-207.758150286
20
735.207482169
10
-207.758150286
20
735.207482169
10
-207.873502934
20
735.211861259
10
-207.986485322
20
735.224785753
10
-208.09677806
20
735.245936486
10
-208.204061755
20
735.274994291
10
-208.308017014
20
735.311640004
10
-208.408324445
20
735.355554458
10
-208.504664657
20
735.406418488
10
-208.596718255
20
735.463912929
10
-208.684165849
20
735.527718614
10
-208.766688045
20
735.59751638
10
-208.843965452
20
735.672987059
10
-208.915678677
20
735.753811487
10
-208.981508328
20
735.839670498
10
-209.041135012
20
735.930244926
10
-209.094239337
20
736.025215606
10
-209.140501911
20
736.124263372
10
-209.179603342
20
736.227069059
10
-209.211224236
20
736.333313501
10
-209.235045203
20
736.442677533
10
-209.250746849
20
736.554841989
10
-209.258009782
20
736.669487704
10
-209.258469537
20
736.698499427
10
-209.258498363
20
736.705772888
10
-209.258500286
20
736.711617138
10
-209.258500286
20
736.721871044
10
-209.258500286
20
736.762886669
10
-209.258500286
20
736.926949169
10
-209.258500286
20
737.583199169
10
-209.258500286
20
740.208199169
10
-209.258500286
20
742.833199169
10
-209.258500286
20
743.489449169
10
-209.258500286
20
743.653511669
10
-209.258500286
20
743.694527294
10
-209.258500286
20
743.7047812
10
-209.258498363
20
743.710625445
10
-209.258469537
20
743.717898866
10
-209.258009782
20
743.746910076
10
-209.250746849
20
743.861548255
10
-209.235045203
20
743.973697054
10
-209.211224236
20
744.08303818
10
-209.179603342
20
744.189253337
10
-209.140501911
20
744.292024231
10
-209.094239337
20
744.391032567
10
-209.041135012
20
744.48596005
10
-208.981508328
20
744.576488385
10
-208.915678677
20
744.662299278
10
-208.843965452
20
744.743074434
10
-208.766688045
20
744.818495557
10
-208.684165849
20
744.888244353
10
-208.596718255
20
744.952002528
10
-208.504664657
20
745.009451786
10
-208.408324445
20
745.060273833
10
-208.308017014
20
745.104150374
10
-208.204061755
20
745.140763114
10
-208.09677806
20
745.169793758
10
-207.986485322
20
745.190924012
10
-207.873502934
20
745.20383558
10
-207.758150286
20
745.208210169
10
-207.642706163
20
745.20383558
10
-207.529654316
20
745.190924012
10
-207.419312361
20
745.169793758
10
-207.311997912
20
745.140763114
10
-207.208028582
20
745.104150374
10
-207.107721988
20
745.060273833
10
-207.011395742
20
745.009451786
10
-206.91936746
20
744.952002528
10
-206.831954756
20
744.888244353
10
-206.749475244
20
744.818495557
10
-206.672246538
20
744.743074434
10
-206.600586254
20
744.662299278
10
-206.534812005
20
744.576488385
10
-206.475241406
20
744.48596005
10
-206.422192071
20
744.391032567
10
-206.375981614
20
744.292024231
10
-206.336927651
20
744.189253337
10
-206.305347795
20
744.08303818
10
-206.281559661
20
743.973697054
10
-206.265880864
20
743.861548255
10
-206.258629017
20
743.746910076
10
-206.258169986
20
743.717898866
10
-206.258141206
20
743.710625445
10
-206.258139286
20
743.7047812
10
-206.258139286
20
743.694527294
10
-206.258139286
20
743.653511669
10
-206.258139286
20
743.489449169
10
-206.258139286
20
742.833199169
10
-206.258139286
20
740.208199169
10
-206.258139286
20
737.583199169
10
-206.258139286
20
736.926949169
10
-206.258139286
20
736.762886669
10
-206.258139286
20
736.721871044
10
-206.258139286
20
736.711617138
10
-206.258141206
20
736.705772888
10
-206.258169986
20
736.698499427
10
-206.258629017
20
736.669487704
10
-206.265880864
20
736.554841989
10
-206.281559661
20
736.442677533
10
-206.305347795
20
736.333313501
10
-206.336927651
20
736.227069059
10
-206.375981614
20
736.124263372
10
-206.422192071
20
736.025215606
10
-206.475241406
20
735.930244926
10
-206.534812005
20
735.839670498
10
-206.600586254
20
735.753811487
10
-206.672246538
20
735.672987059
10
-206.749475244
20
735.59751638
10
-206.831954756
20
735.527718614
10
-206.91936746
20
735.463912929
10
-207.011395742
20
735.406418488
10
-207.107721988
20
735.355554458
10
-207.208028582
20
735.311640004
10
-207.311997912
20
735.274994291
10
-207.419312361
20
735.245936486
10
-207.529654316
20
735.224785753
10
-207.642706163
20
735.211861259
0
LWPOLYLINE
5
171
100
AcDbEntity
8
HOLES
6
ByLayer
62
256
370
-1
100
AcDbPolyline
90
117
70
1
43
0
10
-176.758156286
20
704.207855169
10
-176.758156286
20
704.207855169
10
-176.873508934
20
704.212234259
10
-176.986491322
20
704.225158753
10
-177.09678406
20
704.246309486
10
-177.204067755
20
704.275367291
10
-177.308023014
20
704.312013004
10
-177.408330445
20
704.355927458
10
-177.504670657
20
704.406791488
10
-177.596724255
20
704.464285929
10
-177.684171849
20
704.528091614
10
-177.766694045
20
704.59788938
10
-177.843971452
20
704.673360059
10
-177.915684677
20
704.754184487
10
-177.981514328
20
704.840043498
10
-178.041141012
20
704.930617926
10
-178.094245337
20
705.025588606
10
-178.140507911
20
705.124636372
10
-178.179609342
20
705.227442059
10
-178.211230236
20
705.333686501
10
-178.235051203
20
705.443050533
10
-178.250752849
20
705.555214989
10
-178.258015782
20
705.669860704
10
-178.258475537
20
705.698872427
10
-178.258504363
20
705.706145888
10
-178.258506286
20
705.711990138
10
-178.258506286
20
705.722244044
10
-178.258506286
20
705.763259669
10
-178.258506286
20
705.927322169
10
-178.258506286
20
706.583572169
10
-178.258506286
20
709.208572169
10
-178.258506286
20
711.833572169
10
-178.258506286
20
712.489822169
10
-178.258506286
20
712.653884669
10
-178.258506286
20
712.694900294
10
-178.258506286
20
712.7051542
10
-178.258504363
20
712.710998445
10
-178.258475537
20
712.718271866
10
-178.258015782
20
712.747283076
10
-178.250752849
20
712.861921255
10
-178.235051203
20
712.974070054
10
-178.211230236
20
713.08341118
10
-178.179609342
20
713.189626337
10
-178.140507911
20
713.292397231
10
-178.094245337
20
713.391405567
10
-178.041141012
20
713.48633305
10
-177.981514328
20
713.576861385
10
-177.915684677
20
713.662672278
10
-177.843971452
20
713.743447434
10
-177.766694045
20
713.818868557
10
-177.684171849
20
713.888617353
10
-177.596724255
20
713.952375528
10
-177.504670657
20
714.009824786
10
-177.408330445
20
714.060646833
10
-177.308023014
20
714.104523374
10
-177.204067755
20
714.141136114
10
-177.09678406
20
714.170166758
10
-176.986491322
20
714.191297012
10
-176.873508934
20
714.20420858
10
-176.758156286
20
714.208583169
10
-176.642712163
20
714.20420858
10
-176.529660316
20
714.191297012
10
-176.419318361
20
714.170166758
10
-176.312003912
20
714.141136114
10
-176.208034582
20
714.104523374
10
-176.107727988
20
714.060646833
10
-176.011401742
20
714.009824786
10
-175.91937346
20
713.952375528
10
-175.831960756
20
713.888617353
10
-175.749481244
20
713.818868557
10
-175.672252538
20
713.743447434
10
-175.600592254
20
713.662672278
10
-175.534818005
20
713.576861385
10
-175.475247406
20
713.48633305
10
-175.422198071
20
713.391405567
10
-175.375987614
20
713.292397231
10
-175.336933651
20
713.189626337
10
-175.305353795
20
713.08341118
10
-175.281565661
20
712.974070054
10
-175.265886864
20
712.861921255
10
-175.258635017
20
712.747283076
10
-175.258175986
20
712.718271866
10
-175.258147206
20
712.710998445
10
-175.258145286
20
712.7051542
10
-175.258145286
20
712.694900294
10
-175.258145286
20
712.653884669
10
-175.258145286
20
712.489822169
10
-175.258145286
20
711.833572169
10
-175.258145286
20
709.208572169
10
-175.258145286
20
706.583572169
10
-175.258145286
20
705.927322169
10
-175.258145286
20
705.763259669
10
-175.258145286
20
705.722244044
10
-175.258145286
20
705.711990138
10
-175.258147206
20
705.706145888
10
-175.258175986
20
705.698872427
10
-175.258635017
20
705.669860704
10
-175.265886864
20
705.555214989
10
-175.281565661
20
705.443050533
10
-175.305353795
20
705.333686501
10
-175.336933651
20
705.227442059
10
-175.375987614
20
705.124636372
10
-175.422198071
20
705.025588606
10
-175.475247406
20
704.930617926
10
-175.534818005
20
704.840043498
10
-175.600592254
20
704.754184487
10
-175.672252538
20
704.673360059
10
-175.749481244
20
704.59788938
10
-175.831960756
20
704.528091614
10
-175.91937346
20
704.464285929
10
-176.011401742
20
704.406791488
10
-176.107727988
20
704.355927458
10
-176.208034582
20
704.312013004
10
-176.312003912
20
704.275367291
10
-176.419318361
20
704.246309486
10
-176.529660316
20
704.225158753
10
-176.642712163
20
704.212234259
0
LWPOLYLINE
5
172
100
AcDbEntity
8
HOLES
6
ByLayer
62
256
370
-1
100
AcDbPolyline
90
117
70
1
43
0
10
-176.758156286
20
735.207482169
10
-176.758156286
20
735.207482169
10
-176.873508934
20
735.211861259
10
-176.986491322
20
735.224785753
10
-177.09678406
20
735.245936486
10
-177.204067755
20
735.274994291
10
-177.308023014
20
735.311640004
10
-177.408330445
20
735.355554458
10
-177.504670657
20
735.406418488
10
-177.596724255
20
735.463912929
10
-177.684171849
20
735.527718614
10
-177.766694045
20
735.59751638
10
-177.843971452
20
735.672987059
10
-177.915684677
20
735.753811487
10
-177.981514328
20
735.839670498
10
-178.041141012
20
735.930244926
10
-178.094245337
20
736.025215606
10
-178.140507911
20
736.124263372
10
-178.179609342
20
736.227069059
10
-178.211230236
20
736.333313501
10
-178.235051203
20
736.442677533
10
-178.250752849
20
736.554841989
10
-178.258015782
20
736.669487704
10
-178.258475537
20
736.698499427
10
-178.258504363
20
736.705772888
10
-178.258506286
20
736.711617138
10
-178.258506286
20
736.721871044
10
-178.258506286
20
736.762886669
10
-178.258506286
20
736.926949169
10
-178.258506286
20
737.583199169
10
-178.258506286
20
740.208199169
10
-178.258506286
20
742.833199169
10
-178.258506286
20
743.489449169
10
-178.258506286
20
743.653511669
10
-178.258506286
20
743.694527294
10
-178.258506286
20
743.7047812
10
-178.258504363
20
743.710625445
10
-178.258475537
20
743.717898866
10
-178.258015782
20
743.746910076
10
-178.250752849
20
743.861548255
10
-178.235051203
20
743.973697054
10
-178.211230236
20
744.08303818
10
-178.179609342
20
744.189253337
10
-178.140507911
20
744.292024231
10
-178.094245337
20
744.391032567
10
-178.041141012
20
744.48596005
10
-177.981514328
20
744.576488385
10
-177.915684677
20
744.662299278
10
-177.843971452
20
744.743074434
10
-177.766694045
20
744.818495557
10
-177.684171849
20
744.888244353
10
-177.596724255
20
744.952002528
10
-177.504670657
20
745.009451786
10
-177.408330445
20
745.060273833
10
-177.308023014
20
745.104150374
10
-177.204067755
20
745.140763114
10
-177.09678406
20
745.169793758
10
-176.986491322
20
745.190924012
10
-176.873508934
20
745.20383558
10
-176.758156286
20
745.208210169
10
-176.642712163
20
745.20383558
10
-176.529660316
20
745.190924012
10
-176.419318361
20
745.169793758
10
-176.312003912
20
745.140763114
10
-176.208034582
20
745.104150374
10
-176.107727988
20
745.060273833
10
-176.011401742
20
745.009451786
10
-175.91937346
20
744.952002528
10
-175.831960756
20
744.888244353
10
-175.749481244
20
744.818495557
10
-175.672252538
20
744.743074434
10
-175.600592254
20
744.662299278
10
-175.534818005
20
744.576488385
10
-175.475247406
20
744.48596005
10
-175.422198071
20
744.391032567
10
-175.375987614
20
744.292024231
10
-175.336933651
20
744.189253337
10
-175.305353795
20
744.08303818
10
-175.281565661
20
743.973697054
10
-175.265886864
20
743.861548255
10
-175.258635017
20
743.746910076
10
-175.258175986
20
743.717898866
10
-175.258147206
20
743.710625445
10
-175.258145286
20
743.7047812
10
-175.258145286
20
743.694527294
10
-175.258145286
20
743.653511669
10
-175.258145286
20
743.489449169
10
-175.258145286
20
742.833199169
10
-175.258145286
20
740.208199169
10
-175.258145286
20
737.583199169
10
-175.258145286
20
736.926949169
10
-175.258145286
20
736.762886669
10
-175.258145286
20
736.721871044
10
-175.258145286
20
736.711617138
10
-175.258147206
20
736.705772888
10
-175.258175986
20
736.698499427
10
-175.258635017
20
736.669487704
10
-175.265886864
20
736.554841989
10
-175.281565661
20
736.442677533
10
-175.305353795
20
736.333313501
10
-175.336933651
20
736.227069059
10
-175.375987614
20
736.124263372
10
-175.422198071
20
736.025215606
10
-175.475247406
20
735.930244926
10
-175.534818005
20
735.839670498
10
-175.600592254
20
735.753811487
10
-175.672252538
20
735.672987059
10
-175.749481244
20
735.59751638
10
-175.831960756
20
735.527718614
10
-175.91937346
20
735.463912929
10
-176.011401742
20
735.406418488
10
-176.107727988
20
735.355554458
10
-176.208034582
20
735.311640004
10
-176.312003912
20
735.274994291
10
-176.419318361
20
735.245936486
10
-176.529660316
20
735.224785753
10
-176.642712163
20
735.211861259
0
LWPOLYLINE
5
173
100
AcDbEntity
8
GRAVIRANJE
6
ByLayer
62
256
370
-1
100
AcDbPolyline
90
8
70
1
43
0
10
-264.020390434
20
444.122968028
10
-264.020390434
20
449.322968028
10
-264.020390434
20
451.322968028
10
-254.020390434
20
451.322968028
10
-254.020390434
20
449.322968028
10
-254.020390434
20
444.122968028
10
-254.020390434
20
443.322968028
10
-264.020390434
20
443.322968028
0
LWPOLYLINE
5
174
100
AcDbEntity
8
GRAVIRANJE
6
ByLayer
62
256
370
-1
100
AcDbPolyline
90
8
70
1
43
0
10
-240.020390174
20
444.222967828
10
-240.020390174
20
449.422967828
10
-240.020390174
20
451.422967828
10
-230.020390174
20
451.422967828
10
-230.020390174
20
449.422967828
10
-230.020390174
20
444.222967828
10
-230.020390174
20
443.422967828
10
-240.020390174
20
443.422967828
0
LWPOLYLINE
5
175
100
AcDbEntity
8
GRAVIRANJE
6
ByLayer
62
256
370
-1
100
AcDbPolyline
90
8
70
1
43
0
10
-228.020391314
20
444.222967828
10
-228.020391314
20
449.422967828
10
-228.020391314
20
451.422967828
10
-218.020391314
20
451.422967828
10
-218.020391314
20
449.422967828
10
-218.020391314
20
444.222967828
10
-218.020391314
20
443.422967828
10
-228.020391314
20
443.422967828
0
LWPOLYLINE
5
176
100
AcDbEntity
8
GRAVIRANJE
6
ByLayer
62
256
370
-1
100
AcDbPolyline
90
8
70
1
43
0
10
-252.020391574
20
444.122968028
10
-252.020391574
20
449.322968028
10
-252.020391574
20
451.322968028
10
-242.020391574
20
451.322968028
10
-242.020391574
20
449.322968028
10
-242.020391574
20
444.122968028
10
-242.020391574
20
443.322968028
10
-252.020391574
20
443.322968028
0
LWPOLYLINE
5
177
100
AcDbEntity
8
GRAVIRANJE
6
ByLayer
62
256
370
-1
100
AcDbPolyline
90
8
70
1
43
0
10
-216.020392454
20
444.222967828
10
-216.020392454
20
449.422967828
10
-216.020392454
20
451.422967828
10
-206.020392454
20
451.422967828
10
-206.020392454
20
449.422967828
10
-206.020392454
20
444.222967828
10
-206.020392454
20
443.422967828
10
-216.020392454
20
443.422967828
0
POINT
5
178
100
AcDbEntity
8
0
6
ByLayer
62
256
370
-1
100
AcDbPoint
10
-210
20
10
0
POINT
5
179
100
AcDbEntity
8
0
6
ByLayer
62
256
370
-1
100
AcDbPoint
10
-50
20
10
0
POINT
5
17A
100
AcDbEntity
8
0
6
ByLayer
62
256
370
-1
100
AcDbPoint
10
-368
20
10
0
DIMENSION
5
17B
100
AcDbEntity
8
0
6
ByLayer
62
256
370
-1
100
AcDbDimension
2
*D1
10
-50
20
-10
30
0
11
-30
21
-6.75
31
0
70
33
71
5
3
Standard
53
0
210
0
220
0
230
1
100
AcDbAlignedDimension
13
-10
23
10
33
0
14
-50
24
10
34
0
0
DIMENSION
5
17C
100
AcDbEntity
8
0
6
ByLayer
62
256
370
-1
100
AcDbDimension
2
*D2
10
-210
20
-20
30
0
11
-110
21
-16.75
31
0
70
33
71
5
3
Standard
53
0
210
0
220
0
230
1
100
AcDbAlignedDimension
13
-10
23
10
33
0
14
-210
24
10
34
0
0
DIMENSION
5
17D
100
AcDbEntity
8
0
6
ByLayer
62
256
370
-1
100
AcDbDimension
2
*D3
10
-368
20
-30
30
0
11
-189
21
-26.75
31
0
70
33
71
5
3
Standard
53
0
210
0
220
0
230
1
100
AcDbAlignedDimension
13
-10
23
10
33
0
14
-368
24
10
34
0
0
DIMENSION
5
17E
100
AcDbEntity
8
0
6
ByLayer
62
256
370
-1
100
AcDbDimension
2
*D4
10
-380
20
407
30
0
11
-376.75
21
208.5
31
0
70
33
71
5
3
Standard
53
0
210
0
220
0
230
1
100
AcDbAlignedDimension
13
-380
23
10
33
0
14
-380
24
407
34
0
0
POINT
5
17F
100
AcDbEntity
8
0
6
ByLayer
62
256
370
-1
100
AcDbPoint
10
-210
20
407
0
POINT
5
180
100
AcDbEntity
8
0
6
ByLayer
62
256
370
-1
100
AcDbPoint
10
-50
20
407
0
POINT
5
181
100
AcDbEntity
8
0
6
ByLayer
62
256
370
-1
100
AcDbPoint
10
-368
20
407
0
POINT
5
182
100
AcDbEntity
8
0
6
ByLayer
62
256
370
-1
100
AcDbPoint
10
10
20
209
0
POINT
5
183
100
AcDbEntity
8
0
6
ByLayer
62
256
370
-1
100
AcDbPoint
10
10
20
349
0
POINT
5
184
100
AcDbEntity
8
0
6
ByLayer
62
256
370
-1
100
AcDbPoint
10
10
20
69
0
POINT
5
185
100
AcDbEntity
8
0
6
ByLayer
62
256
370
-1
100
AcDbPoint
10
408
20
209
0
POINT
5
186
100
AcDbEntity
8
0
6
ByLayer
62
256
370
-1
100
AcDbPoint
10
408
20
349
0
POINT
5
187
100
AcDbEntity
8
0
6
ByLayer
62
256
370
-1
100
AcDbPoint
10
408
20
69
0
POINT
5
188
100
AcDbEntity
8
0
6
ByLayer
62
256
370
-1
100
AcDbPoint
10
-408
20
10
0
POINT
5
189
100
AcDbEntity
8
0
6
ByLayer
62
256
370
-1
100
AcDbPoint
10
-10
20
365
0
POINT
5
18A
100
AcDbEntity
8
0
6
ByLayer
62
256
370
-1
100
AcDbPoint
10
-10
20
209
0
POINT
5
18B
100
AcDbEntity
8
0
6
ByLayer
62
256
370
-1
100
AcDbPoint
10
-10
20
52
0
POINT
5
18C
100
AcDbEntity
8
0
6
ByLayer
62
256
370
-1
100
AcDbPoint
10
-408
20
365
0
POINT
5
18D
100
AcDbEntity
8
0
6
ByLayer
62
256
370
-1
100
AcDbPoint
10
-408
20
209
0
POINT
5
18E
100
AcDbEntity
8
0
6
ByLayer
62
256
370
-1
100
AcDbPoint
10
-408
20
52
0
DIMENSION
5
18F
100
AcDbEntity
8
0
6
ByLayer
62
256
370
-1
100
AcDbDimension
2
*D5
10
-420
20
52
30
0
11
-423.25
21
31
31
0
70
33
71
5
3
Standard
53
0
210
0
220
0
230
1
100
AcDbAlignedDimension
13
-408
23
10
33
0
14
-408
24
52
34
0
0
DIMENSION
5
190
100
AcDbEntity
8
0
6
ByLayer
62
256
370
-1
100
AcDbDimension
2
*D6
10
-430
20
209
30
0
11
-433.25
21
109.5
31
0
70
33
71
5
3
Standard
53
0
210
0
220
0
230
1
100
AcDbAlignedDimension
13
-408
23
10
33
0
14
-408
24
209
34
0
0
DIMENSION
5
191
100
AcDbEntity
8
0
6
ByLayer
62
256
370
-1
100
AcDbDimension
2
*D7
10
-440
20
365
30
0
11
-443.25
21
187.5
31
0
70
33
71
5
3
Standard
53
0
210
0
220
0
230
1
100
AcDbAlignedDimension
13
-408
23
10
33
0
14
-408
24
365
34
0
0
POINT
5
192
100
AcDbEntity
8
0
6
ByLayer
62
256
370
-1
100
AcDbPoint
10
-10
20
407
0
POINT
5
193
100
AcDbEntity
8
0
6
ByLayer
62
256
370
-1
100
AcDbPoint
10
-408
20
407
0
POINT
5
194
100
AcDbEntity
8
0
6
ByLayer
62
256
370
-1
100
AcDbPoint
10
-10
20
10
0
POINT
5
195
100
AcDbEntity
8
0
6
ByLayer
62
256
370
-1
100
AcDbPoint
10
408
20
10
0
POINT
5
196
100
AcDbEntity
8
0
6
ByLayer
62
256
370
-1
100
AcDbPoint
10
10
20
407
0
POINT
5
197
100
AcDbEntity
8
0
6
ByLayer
62
256
370
-1
100
AcDbPoint
10
408
20
407
0
POINT
5
198
100
AcDbEntity
8
0
6
ByLayer
62
256
370
-1
100
AcDbPoint
10
10
20
10
0
CIRCLE
5
199
100
AcDbEntity
8
HOLES
6
ByLayer
62
256
370
-1
100
AcDbCircle
10
-309.442244472
20
49.5634443642
40
1.5
0
CIRCLE
5
19A
100
AcDbEntity
8
HOLES
6
ByLayer
62
256
370
-1
100
AcDbCircle
10
-299.442244472
20
49.5634443642
40
2
0
CIRCLE
5
19B
100
AcDbEntity
8
HOLES
6
ByLayer
62
256
370
-1
100
AcDbCircle
10
-289.442244472
20
49.5634443642
40
1.5
0
CIRCLE
5
19C
100
AcDbEntity
8
HOLES
6
ByLayer
62
256
370
-1
100
AcDbCircle
10
-73.4670044716
20
49.5634443642
40
1.5
0
CIRCLE
5
19D
100
AcDbEntity
8
HOLES
6
ByLayer
62
256
370
-1
100
AcDbCircle
10
-83.4670044716
20
49.5634443642
40
2
0
CIRCLE
5
19E
100
AcDbEntity
8
HOLES
6
ByLayer
62
256
370
-1
100
AcDbCircle
10
-93.4670044716
20
49.5634443642
40
1.5
0
CIRCLE
5
19F
100
AcDbEntity
8
HOLES
6
ByLayer
62
256
370
-1
100
AcDbCircle
10
-191.455710972
20
285.567230864
40
2
0
CIRCLE
5
1A0
100
AcDbEntity
8
HOLES
6
ByLayer
62
256
370
-1
100
AcDbCircle
10
-201.455710972
20
285.567230864
40
1.5
0
CIRCLE
5
1A1
100
AcDbEntity
8
HOLES
6
ByLayer
62
256
370
-1
100
AcDbCircle
10
-181.455710972
20
285.567230864
40
1.5
0
CIRCLE
5
1A2
100
AcDbEntity
8
HOLES
6
CONTINUOUS
62
256
370
-1
100
AcDbCircle
10
-201.454624472
20
49.5634443642
40
1.5
0
CIRCLE
5
1A3
100
AcDbEntity
8
HOLES
6
CONTINUOUS
62
256
370
-1
100
AcDbCircle
10
-191.454624472
20
49.5634443642
40
2
0
CIRCLE
5
1A4
100
AcDbEntity
8
HOLES
6
CONTINUOUS
62
256
370
-1
100
AcDbCircle
10
-181.454624472
20
49.5634443642
40
1.5
0
SPLINE
5
1A5
100
AcDbEntity
8
IZREZ
6
ByLayer
62
256
370
-1
100
AcDbSpline
210
0
220
0
230
1
70
11
71
3
72
29
73
25
74
0
42
1e-007
43
1e-007
40
0
40
0
40
0
40
0
40
0.0454545454545
40
0.0909090909091
40
0.136363636364
40
0.181818181818
40
0.227272727273
40
0.272727272727
40
0.318181818182
40
0.363636363636
40
0.409090909091
40
0.454545454545
40
0.5
40
0.545454545455
40
0.590909090909
40
0.636363636364
40
0.681818181818
40
0.727272727273
40
0.772727272727
40
0.818181818182
40
0.863636363636
40
0.909090909091
40
0.954545454545
40
1
40
1
40
1
40
1
10
-322.331177017
20
33.7109341791
30
0
10
-236.220821351
20
33.7109341791
30
0
10
-150.110465684
20
33.7109341791
30
0
10
-64.0001100175
20
33.7109341791
30
0
10
-60.7002260175
20
33.7109341791
30
0
10
-58.0004040175
20
36.4125061791
30
0
10
-58.0004040175
20
39.7127281791
30
0
10
-58.0004040175
20
125.796042179
30
0
10
-58.0004040175
20
211.879356179
30
0
10
-58.0004040175
20
297.962670179
30
0
10
-58.0004040175
20
301.262892179
30
0
10
-60.7016370175
20
303.962715179
30
0
10
-64.0015210175
20
303.962715179
30
0
10
-150.111876684
20
303.962715179
30
0
10
-236.222232351
20
303.962715179
30
0
10
-322.332588017
20
303.962715179
30
0
10
-325.632838017
20
303.962715179
30
0
10
-328.332632017
20
301.261142179
30
0
10
-328.332632017
20
297.961626179
30
0
10
-328.332632017
20
211.878076846
30
0
10
-328.332632017
20
125.794527512
30
0
10
-328.332632017
20
39.7109781791
30
0
10
-328.332632017
20
36.4110951791
30
0
10
-325.631060017
20
33.7109341791
30
0
10
-322.331177017
20
33.7109341791
30
0
0
CIRCLE
5
1A6
100
AcDbEntity
8
HOLES
6
ByLayer
62
256
370
-1
100
AcDbCircle
10
-333.332632017
20
64.7109781791
40
1.5
0
CIRCLE
5
1A7
100
AcDbEntity
8
HOLES
6
ByLayer
62
256
370
-1
100
AcDbCircle
10
-297.331177017
20
28.7109341791
40
1.5
0
CIRCLE
5
1A8
100
AcDbEntity
8
HOLES
6
ByLayer
62
256
370
-1
100
AcDbCircle
10
-333.332632017
20
272.961626179
40
1.5
0
CIRCLE
5
1A9
100
AcDbEntity
8
HOLES
6
ByLayer
62
256
370
-1
100
AcDbCircle
10
-297.332588017
20
308.962715179
40
1.5
0
CIRCLE
5
1AA
100
AcDbEntity
8
HOLES
6
ByLayer
62
256
370
-1
100
AcDbCircle
10
-89.0001100175
20
28.7109341791
40
1.5
0
CIRCLE
5
1AB
100
AcDbEntity
8
HOLES
6
ByLayer
62
256
370
-1
100
AcDbCircle
10
-53.0004040175
20
64.7127281791
40
1.5
0
CIRCLE
5
1AC
100
AcDbEntity
8
HOLES
6
ByLayer
62
256
370
-1
100
AcDbCircle
10
-53.0004040175
20
272.962670179
40
1.5
0
CIRCLE
5
1AD
100
AcDbEntity
8
HOLES
6
ByLayer
62
256
370
-1
100
AcDbCircle
10
-89.0015210175
20
308.962715179
40
1.5
0
CIRCLE
5
1AE
100
AcDbEntity
8
HOLES
6
ByLayer
62
256
370
-1
100
AcDbCircle
10
-333.332632017
20
168.836302179
40
1.5
0
CIRCLE
5
1AF
100
AcDbEntity
8
HOLES
6
ByLayer
62
256
370
-1
100
AcDbCircle
10
-193.167054517
20
308.962715179
40
1.5
0
CIRCLE
5
1B0
100
AcDbEntity
8
HOLES
6
ByLayer
62
256
370
-1
100
AcDbCircle
10
-53.0004040175
20
168.837699179
40
1.5
0
CIRCLE
5
1B1
100
AcDbEntity
8
HOLES
6
ByLayer
62
256
370
-1
100
AcDbCircle
10
-193.165643517
20
28.7109341791
40
1.5
0
LWPOLYLINE
5
1B2
100
AcDbEntity
8
PRVI_IZREZ
6
ByLayer
62
256
370
-1
100
AcDbPolyline
90
8
70
1
43
0
10
-76.4546244716
20
292.563444364
10
-306.454624472
20
292.563444364
42
0.414213562373
10
-316.454624472
20
282.563444364
10
-316.454624472
20
52.5634443642
42
0.414213562373
10
-306.454624472
20
42.5634443642
10
-76.4546244716
20
42.5634443642
42
0.414213562373
10
-66.4546244716
20
52.5634443642
10
-66.4546244716
20
282.563444364
42
0.414213562373
0
LINE
5
1B3
100
AcDbEntity
8
IZREZ
6
ByLayer
62
256
370
-1
100
AcDbLine
10
-347.515630187
20
307.640477016
11
-347.437348851
21
307.632204724
0
LINE
5
1B4
100
AcDbEntity
8
IZREZ
6
ByLayer
62
256
370
-1
100
AcDbLine
10
-347.437348851
20
307.632204724
11
-347.365826554
21
307.619632747
0
LINE
5
1B5
100
AcDbEntity
8
IZREZ
6
ByLayer
62
256
370
-1
100
AcDbLine
10
-347.365826554
20
307.619632747
11
-347.302477881
21
307.601861214
0
LINE
5
1B6
100
AcDbEntity
8
IZREZ
6
ByLayer
62
256
370
-1
100
AcDbLine
10
-347.302477881
20
307.601861214
11
-347.248717422
21
307.577990249
0
LINE
5
1B7
100
AcDbEntity
8
IZREZ
6
ByLayer
62
256
370
-1
100
AcDbLine
10
-347.248717422
20
307.577990249
11
-347.205764822
21
307.547243988
0
DIMENSION
5
1B8
100
AcDbEntity
8
0
6
ByLayer
62
256
370
-1
100
AcDbDimension
2
*D8
10
-408
20
82
30
0
11
-209
21
85.25
31
0
70
33
71
5
3
Standard
53
0
210
0
220
0
230
1
100
AcDbAlignedDimension
13
-10
23
82
33
0
14
-408
24
82
34
0
0
LWPOLYLINE
5
1B9
100
AcDbEntity
8
IZREZ
6
ByLayer
62
256
370
-1
100
AcDbPolyline
90
228
70
1
43
0
10
-50
20
25
10
-48.4
20
25
10
-48.4
20
19
10
-47.1
20
19
10
-47.1
20
17
10
-48.4
20
17
10
-48.4
20
10
10
-30
20
10
42
0.414213562373
10
-10
20
30
10
-10
20
50.4
10
-17
20
50.4
10
-17
20
49.1
10
-19
20
49.1
10
-19
20
50.4
10
-25
20
50.4
10
-25
20
52
10
-25
20
53.6
10
-19
20
53.6
10
-19
20
54.9
10
-17
20
54.9
10
-17
20
53.6
10
-10
20
53.6
10
-10
20
72
10
-4
20
72
10
-4
20
82
10
-10
20
82
10
-10
20
179
10
-4
20
179
10
-4
20
189
10
-10
20
189
10
-10
20
207.4
10
-17
20
207.4
10
-17
20
206.1
10
-19
20
206.1
10
-19
20
207.4
10
-25
20
207.4
10
-25
20
209
10
-25
20
210.6
10
-19
20
210.6
10
-19
20
211.9
10
-17
20
211.9
10
-17
20
210.6
10
-10
20
210.6
10
-10
20
229
10
-4
20
229
10
-4
20
239
10
-10
20
239
10
-10
20
335
10
-4
20
335
10
-4
20
345
10
-10
20
345
10
-10
20
363.4
10
-17
20
363.4
10
-17
20
362.1
10
-19
20
362.1
10
-19
20
363.4
10
-25
20
363.4
10
-25
20
365
10
-25
20
366.6
10
-19
20
366.6
10
-19
20
367.9
10
-17
20
367.9
10
-17
20
366.6
10
-10
20
366.6
10
-10
20
387
42
0.414213562373
10
-30
20
407
10
-48.4
20
407
10
-48.4
20
400
10
-47.1
20
400
10
-47.1
20
398
10
-48.4
20
398
10
-48.4
20
392
10
-50
20
392
10
-51.6
20
392
10
-51.6
20
398
10
-52.9
20
398
10
-52.9
20
400
10
-51.6
20
400
10
-51.6
20
407
10
-70
20
407
10
-70
20
413
10
-80
20
413
10
-80
20
407
10
-180
20
407
10
-180
20
413
10
-190
20
413
10
-190
20
407
10
-208.4
20
407
10
-208.4
20
400
10
-207.1
20
400
10
-207.1
20
398
10
-208.4
20
398
10
-208.4
20
392
10
-210
20
392
10
-211.6
20
392
10
-211.6
20
398
10
-212.9
20
398
10
-212.9
20
400
10
-211.6
20
400
10
-211.6
20
407
10
-230
20
407
10
-230
20
413
10
-240
20
413
10
-240
20
407
10
-338
20
407
10
-338
20
413
10
-348
20
413
10
-348
20
407
10
-366.4
20
407
10
-366.4
20
400
10
-365.1
20
400
10
-365.1
20
398
10
-366.4
20
398
10
-366.4
20
392
10
-368
20
392
10
-369.6
20
392
10
-369.6
20
398
10
-370.9
20
398
10
-370.9
20
400
10
-369.6
20
400
10
-369.6
20
407
10
-388
20
407
42
0.414213562373
10
-408
20
387
10
-408
20
366.6
10
-401
20
366.6
10
-401
20
367.9
10
-399
20
367.9
10
-399
20
366.6
10
-393
20
366.6
10
-393
20
365
10
-393
20
363.4
10
-399
20
363.4
10
-399
20
362.1
10
-401
20
362.1
10
-401
20
363.4
10
-408
20
363.4
10
-408
20
345
10
-414
20
345
10
-414
20
335
10
-408
20
335
10
-408
20
239
10
-414
20
239
10
-414
20
229
10
-408
20
229
10
-408
20
210.6
10
-401
20
210.6
10
-401
20
211.9
10
-399
20
211.9
10
-399
20
210.6
10
-393
20
210.6
10
-393
20
209
10
-393
20
207.4
10
-399
20
207.4
10
-399
20
206.1
10
-401
20
206.1
10
-401
20
207.4
10
-408
20
207.4
10
-408
20
189
10
-414
20
189
10
-414
20
179
10
-408
20
179
10
-408
20
82
10
-414
20
82
10
-414
20
72
10
-408
20
72
10
-408
20
53.6
10
-401
20
53.6
10
-401
20
54.9
10
-399
20
54.9
10
-399
20
53.6
10
-393
20
53.6
10
-393
20
52
10
-393
20
50.4
10
-399
20
50.4
10
-399
20
49.1
10
-401
20
49.1
10
-401
20
50.4
10
-408
20
50.4
10
-408
20
30
42
0.414213562373
10
-388
20
10
10
-369.6
20
10
10
-369.6
20
17
10
-370.9
20
17
10
-370.9
20
19
10
-369.6
20
19
10
-369.6
20
25
10
-368
20
25
10
-366.4
20
25
10
-366.4
20
19
10
-365.1
20
19
10
-365.1
20
17
10
-366.4
20
17
10
-366.4
20
10
10
-348
20
10
10
-348
20
4
10
-338
20
4
10
-338
20
10
10
-240
20
10
10
-240
20
4
10
-230
20
4
10
-230
20
10
10
-211.6
20
10
10
-211.6
20
17
10
-212.9
20
17
10
-212.9
20
19
10
-211.6
20
19
10
-211.6
20
25
10
-210
20
25
10
-208.4
20
25
10
-208.4
20
19
10
-207.1
20
19
10
-207.1
20
17
10
-208.4
20
17
10
-208.4
20
10
10
-190
20
10
10
-190
20
4
10
-180
20
4
10
-180
20
10
10
-80
20
10
10
-80
20
4
10
-70
20
4
10
-70
20
10
10
-51.6
20
10
10
-51.6
20
17
10
-52.9
20
17
10
-52.9
20
19
10
-51.6
20
19
10
-51.6
20
25
0
DIMENSION
5
1BA
100
AcDbEntity
8
0
6
ByLayer
62
256
370
-1
100
AcDbDimension
2
*D9
10
420
20
69
30
0
11
416.75
21
39.5
31
0
70
33
71
5
3
Standard
53
0
210
0
220
0
230
1
100
AcDbAlignedDimension
13
408
23
10
33
0
14
408
24
69
34
0
0
DIMENSION
5
1BB
100
AcDbEntity
8
0
6
ByLayer
62
256
370
-1
100
AcDbDimension
2
*D10
10
430
20
209
30
0
11
426.75
21
109.5
31
0
70
33
71
5
3
Standard
53
0
210
0
220
0
230
1
100
AcDbAlignedDimension
13
408
23
10
33
0
14
408
24
209
34
0
0
DIMENSION
5
1BC
100
AcDbEntity
8
0
6
ByLayer
62
256
370
-1
100
AcDbDimension
2
*D11
10
440
20
349
30
0
11
436.75
21
179.5
31
0
70
33
71
5
3
Standard
53
0
210
0
220
0
230
1
100
AcDbAlignedDimension
13
408
23
10
33
0
14
408
24
349
34
0
0
POINT
5
1BD
100
AcDbEntity
8
0
6
ByLayer
62
256
370
-1
100
AcDbPoint
10
90
20
10
0
POINT
5
1BE
100
AcDbEntity
8
0
6
ByLayer
62
256
370
-1
100
AcDbPoint
10
200
20
10
0
POINT
5
1BF
100
AcDbEntity
8
0
6
ByLayer
62
256
370
-1
100
AcDbPoint
10
320
20
10
0
DIMENSION
5
1C0
100
AcDbEntity
8
0
6
ByLayer
62
256
370
-1
100
AcDbDimension
2
*D12
10
90
20
-10
30
0
11
50
21
-6.75
31
0
70
33
71
5
3
Standard
53
0
210
0
220
0
230
1
100
AcDbAlignedDimension
13
10
23
10
33
0
14
90
24
10
34
0
0
DIMENSION
5
1C1
100
AcDbEntity
8
0
6
ByLayer
62
256
370
-1
100
AcDbDimension
2
*D13
10
200
20
-20
30
0
11
105
21
-16.75
31
0
70
33
71
5
3
Standard
53
0
210
0
220
0
230
1
100
AcDbAlignedDimension
13
10
23
10
33
0
14
200
24
10
34
0
0
DIMENSION
5
1C2
100
AcDbEntity
8
0
6
ByLayer
62
256
370
-1
100
AcDbDimension
2
*D14
10
320
20
-30
30
0
11
165
21
-26.75
31
0
70
33
71
5
3
Standard
53
0
210
0
220
0
230
1
100
AcDbAlignedDimension
13
10
23
10
33
0
14
320
24
10
34
0
0
POINT
5
1C3
100
AcDbEntity
8
0
6
ByLayer
62
256
370
-1
100
AcDbPoint
10
90
20
407
0
POINT
5
1C4
100
AcDbEntity
8
0
6
ByLayer
62
256
370
-1
100
AcDbPoint
10
200
20
407
0
POINT
5
1C5
100
AcDbEntity
8
0
6
ByLayer
62
256
370
-1
100
AcDbPoint
10
320
20
407
0
LWPOLYLINE
5
1C6
100
AcDbEntity
8
IZREZ
6
ByLayer
62
256
370
-1
100
AcDbPolyline
90
260
70
1
43
0
10
300
20
10
10
300
20
4
10
290
20
4
10
290
20
10
10
230
20
10
10
230
20
4
10
220
20
4
10
220
20
10
10
201.6
20
10
10
201.6
20
17
10
202.9
20
17
10
202.9
20
19
10
201.6
20
19
10
201.6
20
25
10
200
20
25
10
198.4
20
25
10
198.4
20
19
10
197.1
20
19
10
197.1
20
17
10
198.4
20
17
10
198.4
20
10
10
180
20
10
10
180
20
4
10
170
20
4
10
170
20
10
10
120
20
10
10
120
20
4
10
110
20
4
10
110
20
10
10
91.6
20
10
10
91.6
20
17
10
92.9
20
17
10
92.9
20
19
10
91.6
20
19
10
91.6
20
25
10
90
20
25
10
88.4
20
25
10
88.4
20
19
10
87.1
20
19
10
87.1
20
17
10
88.4
20
17
10
88.4
20
10
10
70
20
10
10
70
20
4
10
60
20
4
10
60
20
10
10
30
20
10
42
0.414213562373
10
10
20
30
10
10
20
39
10
4
20
39
10
4
20
49
10
10
20
49
10
10
20
67.4
10
17
20
67.4
10
17
20
66.1
10
19
20
66.1
10
19
20
67.4
10
25
20
67.4
10
25
20
69
10
25
20
70.6
10
19
20
70.6
10
19
20
71.9
10
17
20
71.9
10
17
20
70.6
10
10
20
70.6
10
10
20
89
10
4
20
89
10
4
20
99
10
10
20
99
10
10
20
179
10
4
20
179
10
4
20
189
10
10
20
189
10
10
20
207.4
10
17
20
207.4
10
17
20
206.1
10
19
20
206.1
10
19
20
207.4
10
25
20
207.4
10
25
20
209
10
25
20
210.6
10
19
20
210.6
10
19
20
211.9
10
17
20
211.9
10
17
20
210.6
10
10
20
210.6
10
10
20
229
10
4
20
229
10
4
20
239
10
10
20
239
10
10
20
319
10
4
20
319
10
4
20
329
10
10
20
329
10
10
20
347.4
10
17
20
347.4
10
17
20
346.1
10
19
20
346.1
10
19
20
347.4
10
25
20
347.4
10
25
20
349
10
25
20
350.6
10
19
20
350.6
10
19
20
351.9
10
17
20
351.9
10
17
20
350.6
10
10
20
350.6
10
10
20
369
10
4
20
369
10
4
20
379
10
10
20
379
10
10
20
387
42
0.414213562373
10
30
20
407
10
60
20
407
10
60
20
413
10
70
20
413
10
70
20
407
10
88.4
20
407
10
88.4
20
400
10
87.1
20
400
10
87.1
20
398
10
88.4
20
398
10
88.4
20
392
10
90
20
392
10
91.6
20
392
10
91.6
20
398
10
92.9
20
398
10
92.9
20
400
10
91.6
20
400
10
91.6
20
407
10
110
20
407
10
110
20
413
10
120
20
413
10
120
20
407
10
170
20
407
10
170
20
413
10
180
20
413
10
180
20
407
10
198.4
20
407
10
198.4
20
400
10
197.1
20
400
10
197.1
20
398
10
198.4
20
398
10
198.4
20
392
10
200
20
392
10
201.6
20
392
10
201.6
20
398
10
202.9
20
398
10
202.9
20
400
10
201.6
20
400
10
201.6
20
407
10
220
20
407
10
220
20
413
10
230
20
413
10
230
20
407
10
290
20
407
10
290
20
413
10
300
20
413
10
300
20
407
10
318.4
20
407
10
318.4
20
400
10
317.1
20
400
10
317.1
20
398
10
318.4
20
398
10
318.4
20
392
10
320
20
392
10
321.6
20
392
10
321.6
20
398
10
322.9
20
398
10
322.9
20
400
10
321.6
20
400
10
321.6
20
407
10
340
20
407
10
340
20
413
10
350
20
413
10
350
20
407
10
388
20
407
42
0.414213562373
10
408
20
387
10
408
20
379
10
414
20
379
10
414
20
369
10
408
20
369
10
408
20
350.6
10
401
20
350.6
10
401
20
351.9
10
399
20
351.9
10
399
20
350.6
10
393
20
350.6
10
393
20
349
10
393
20
347.4
10
399
20
347.4
10
399
20
346.1
10
401
20
346.1
10
401
20
347.4
10
408
20
347.4
10
408
20
329
10
414
20
329
10
414
20
319
10
408
20
319
10
408
20
239
10
414
20
239
10
414
20
229
10
408
20
229
10
408
20
210.6
10
401
20
210.6
10
401
20
211.9
10
399
20
211.9
10
399
20
210.6
10
393
20
210.6
10
393
20
209
10
393
20
207.4
10
399
20
207.4
10
399
20
206.1
10
401
20
206.1
10
401
20
207.4
10
408
20
207.4
10
408
20
189
10
414
20
189
10
414
20
179
10
408
20
179
10
408
20
99
10
414
20
99
10
414
20
89
10
408
20
89
10
408
20
70.6
10
401
20
70.6
10
401
20
71.9
10
399
20
71.9
10
399
20
70.6
10
393
20
70.6
10
393
20
69
10
393
20
67.4
10
399
20
67.4
10
399
20
66.1
10
401
20
66.1
10
401
20
67.4
10
408
20
67.4
10
408
20
49
10
414
20
49
10
414
20
39
10
408
20
39
10
408
20
30
42
0.414213562373
10
388
20
10
10
350
20
10
10
350
20
4
10
340
20
4
10
340
20
10
10
321.6
20
10
10
321.6
20
17
10
322.9
20
17
10
322.9
20
19
10
321.6
20
19
10
321.6
20
25
10
320
20
25
10
318.4
20
25
10
318.4
20
19
10
317.1
20
19
10
317.1
20
17
10
318.4
20
17
10
318.4
20
10
0
POINT
5
1C7
100
AcDbEntity
8
0
6
ByLayer
62
256
370
-1
100
AcDbPoint
10
-112
20
725
0
POINT
5
1C8
100
AcDbEntity
8
0
6
ByLayer
62
256
370
-1
100
AcDbPoint
10
-272
20
725
0
DIMENSION
5
1C9
100
AcDbEntity
8
0
6
ByLayer
62
256
370
-1
100
AcDbDimension
2
*D15
10
-112
20
700
30
0
11
-192
21
703.25
31
0
70
33
71
5
3
Standard
53
0
210
0
220
0
230
1
100
AcDbAlignedDimension
13
-272
23
725
33
0
14
-112
24
725
34
0
0
DIMENSION
5
1CA
100
AcDbEntity
8
0
6
ByLayer
62
256
370
-1
100
AcDbDimension
2
*D16
10
-192
20
717
30
0
11
-152
21
720.25
31
0
70
33
71
5
3
Standard
53
0
210
0
220
0
230
1
100
AcDbAlignedDimension
13
-112
23
725
33
0
14
-192
24
725
34
0
0
DIMENSION
5
1CB
100
AcDbEntity
8
0
6
ByLayer
62
256
370
-1
100
AcDbDimension
2
*D17
10
-283.996156494
20
745.464188307
30
0
11
-280.672537986
21
735.212909609
31
0
70
33
71
5
3
Standard
53
0
210
0
220
0
230
1
100
AcDbAlignedDimension
13
-272
23
725
33
0
14
-272.147404238
24
745.549182263
34
0
0
POINT
5
1CC
100
AcDbEntity
8
0
6
ByLayer
62
256
370
-1
100
AcDbPoint
10
-273
20
386
0
POINT
5
1CD
100
AcDbEntity
8
0
6
ByLayer
62
256
370
-1
100
AcDbPoint
10
-113
20
386
0
POINT
5
1CE
100
AcDbEntity
8
0
6
ByLayer
62
256
370
-1
100
AcDbPoint
10
-193
20
386
0
DIMENSION
5
1CF
100
AcDbEntity
8
0
6
ByLayer
62
256
370
-1
100
AcDbDimension
2
*D18
10
-278.775
20
407
30
0
11
-282.025
21
396.5
31
0
70
33
71
5
3
Standard
53
0
210
0
220
0
230
1
100
AcDbAlignedDimension
13
-273
23
386
33
0
14
-273
24
407
34
0
0
CIRCLE
5
1D0
100
AcDbEntity
8
HOLES
6
ByLayer
62
256
370
-1
100
AcDbCircle
10
-273
20
386
40
6.05
0
CIRCLE
5
1D1
100
AcDbEntity
8
HOLES
6
ByLayer
62
256
370
-1
100
AcDbCircle
10
-113
20
386
40
6.05
0
CIRCLE
5
1D2
100
AcDbEntity
8
HOLES
6
ByLayer
62
256
370
-1
100
AcDbCircle
10
-258
20
386
40
1.6
0
CIRCLE
5
1D3
100
AcDbEntity
8
HOLES
6
ByLayer
62
256
370
-1
100
AcDbCircle
10
-288
20
386
40
1.6
0
CIRCLE
5
1D4
100
AcDbEntity
8
HOLES
6
ByLayer
62
256
370
-1
100
AcDbCircle
10
-98
20
386
40
1.6
0
CIRCLE
5
1D5
100
AcDbEntity
8
HOLES
6
ByLayer
62
256
370
-1
100
AcDbCircle
10
-128
20
386
40
1.6
0
LWPOLYLINE
5
1D6
100
AcDbEntity
8
HOLES
6
ByLayer
62
256
370
-1
100
AcDbPolyline
90
4
70
1
43
0
10
-209.6
20
382
42
1
10
-206.4
20
382
10
-206.4
20
390
42
1
10
-209.6
20
390
0
LWPOLYLINE
5
1D7
100
AcDbEntity
8
HOLES
6
ByLayer
62
256
370
-1
100
AcDbPolyline
90
4
70
1
43
0
10
-187.95
20
390
10
-187.95
20
382
42
-1
10
-198.05
20
382
10
-198.05
20
390
42
-1
0
LWPOLYLINE
5
1D8
100
AcDbEntity
8
HOLES
6
ByLayer
62
256
370
-1
100
AcDbPolyline
90
4
70
1
43
0
10
-179.6
20
382
42
1
10
-176.4
20
382
10
-176.4
20
390
42
1
10
-179.6
20
390
0
POINT
5
1D9
100
AcDbEntity
8
0
6
ByLayer
62
256
370
-1
100
AcDbPoint
10
273
20
386
0
POINT
5
1DA
100
AcDbEntity
8
0
6
ByLayer
62
256
370
-1
100
AcDbPoint
10
113
20
386
0
POINT
5
1DB
100
AcDbEntity
8
0
6
ByLayer
62
256
370
-1
100
AcDbPoint
10
193
20
386
0
CIRCLE
5
1DC
100
AcDbEntity
8
HOLES
6
ByLayer
62
256
370
-1
100
AcDbCircle
10
113
20
386
40
6.05
0
CIRCLE
5
1DD
100
AcDbEntity
8
HOLES
6
ByLayer
62
256
370
-1
100
AcDbCircle
10
128
20
386
40
1.6
0
CIRCLE
5
1DE
100
AcDbEntity
8
HOLES
6
ByLayer
62
256
370
-1
100
AcDbCircle
10
98
20
386
40
1.6
0
CIRCLE
5
1DF
100
AcDbEntity
8
HOLES
6
ByLayer
62
256
370
-1
100
AcDbCircle
10
273
20
386
40
6.05
0
CIRCLE
5
1E0
100
AcDbEntity
8
HOLES
6
ByLayer
62
256
370
-1
100
AcDbCircle
10
288
20
386
40
1.6
0
CIRCLE
5
1E1
100
AcDbEntity
8
HOLES
6
ByLayer
62
256
370
-1
100
AcDbCircle
10
258
20
386
40
1.6
0
CIRCLE
5
1E2
100
AcDbEntity
8
HOLES
6
ByLayer
62
256
370
-1
100
AcDbCircle
10
208.5
20
401.5
40
1.6
0
CIRCLE
5
1E3
100
AcDbEntity
8
HOLES
6
ByLayer
62
256
370
-1
100
AcDbCircle
10
177.5
20
401.5
40
1.6
0
CIRCLE
5
1E4
100
AcDbEntity
8
HOLES
6
ByLayer
62
256
370
-1
100
AcDbCircle
10
177.5
20
370.5
40
1.6
0
CIRCLE
5
1E5
100
AcDbEntity
8
HOLES
6
ByLayer
62
256
370
-1
100
AcDbCircle
10
208.5
20
370.5
40
1.6
0
ENDSEC
0
SECTION
2
OBJECTS
0
DICTIONARY
5
C
330
0
100
AcDbDictionary
281
1
3
ACAD_GROUP
350
D
0
DICTIONARY
5
D
330
C
100
AcDbDictionary
281
1
0
ENDSEC
0
EOF
