999
dxfrw 0.5.13
0
SECTION
2
HEADER
9
$ACADVER
1
AC1021
9
$HANDSEED
5
20000
9
$DWGCODEPAGE
3
ANSI_1250
9
$INSBASE
10
0
20
0
30
0
9
$EXTMIN
10
-455
20
-41
30
0
9
$EXTMAX
10
441
20
455
30
0
9
$LIMMIN
10
0
20
0
9
$LIMMAX
10
420
20
297
9
$ORTHOMODE
70
0
9
$LTSCALE
40
1
9
$TEXTSTYLE
7
STANDARD
9
$CLAYER
8
0
9
$DIMASZ
40
3.5
9
$DIMLFAC
40
1
9
$DIMSCALE
40
1
9
$DIMEXO
40
1
9
$DIMEXE
40
1
9
$DIMTXT
40
3.5
9
$DIMTSZ
40
0
9
$DIMAUNIT
70
0
9
$DIMADEC
70
0
9
$DIMLUNIT
70
2
9
$DIMSTYLE
2
AM_ISO
9
$DIMGAP
40
1.5
9
$DIMTIH
70
0
9
$LUNITS
70
2
9
$LUPREC
70
2
9
$AUNITS
70
0
9
$AUPREC
70
0
9
$SPLINESEGS
70
8
9
$GRIDMODE
70
1
9
$SNAPSTYLE
70
0
9
$PINSBASE
10
0
20
0
30
0
9
$PLIMMIN
10
0
20
0
9
$PLIMMAX
10
0
20
0
9
$INSUNITS
70
4
9
$PSVPSCALE
40
1
0
ENDSEC
0
SECTION
2
CLASSES
0
ENDSEC
0
SECTION
2
TABLES
0
TABLE
2
VPORT
5
8
330
0
100
AcDbSymbolTable
70
1
0
VPORT
5
31
330
2
100
AcDbSymbolTableRecord
100
AcDbViewportTableRecord
2
*ACTIVE
70
0
10
0
20
0
11
1
21
1
12
240.286158631
22
231.415241058
13
0
23
0
14
10
24
10
15
10
25
10
16
0
26
0
36
1
17
0
27
0
37
0
40
511.427682737
41
1.90497737557
42
50
43
0
44
0
50
0
51
0
71
0
72
100
73
1
74
3
75
0
76
1
77
0
78
0
281
0
65
1
110
0
120
0
130
0
111
1
121
0
131
0
112
0
122
1
132
0
79
0
146
0
348
10020
60
7
61
5
292
1
282
1
141
0
142
0
63
250
421
3358443
0
ENDTAB
0
TABLE
2
LTYPE
5
5
330
0
100
AcDbSymbolTable
70
4
0
LTYPE
5
14
330
5
100
AcDbSymbolTableRecord
100
AcDbLinetypeTableRecord
2
ByBlock
70
0
3

72
65
73
0
40
0
0
LTYPE
5
15
330
5
100
AcDbSymbolTableRecord
100
AcDbLinetypeTableRecord
2
ByLayer
70
0
3

72
65
73
0
40
0
0
LTYPE
5
16
330
5
100
AcDbSymbolTableRecord
100
AcDbLinetypeTableRecord
2
Continuous
70
0
3
Solid line
72
65
73
0
40
0
0
LTYPE
5
32
330
5
100
AcDbSymbolTableRecord
100
AcDbLinetypeTableRecord
2
DOT
70
0
3
Dot . . . . . . . . . . . . . . . . . . . . . .
72
65
73
2
40
6.35
49
0
74
0
49
-6.35
74
0
0
LTYPE
5
33
330
5
100
AcDbSymbolTableRecord
100
AcDbLinetypeTableRecord
2
DOT2
70
0
3
Dot (.5x) .....................................
72
65
73
2
40
3.175
49
0
74
0
49
-3.175
74
0
0
LTYPE
5
34
330
5
100
AcDbSymbolTableRecord
100
AcDbLinetypeTableRecord
2
DOTX2
70
0
3
Dot (2x) .  .  .  .  .  .  .  .  .  .  .  .  .
72
65
73
2
40
12.7
49
0
74
0
49
-12.7
74
0
0
LTYPE
5
35
330
5
100
AcDbSymbolTableRecord
100
AcDbLinetypeTableRecord
2
DASHED
70
0
3
Dot . . . . . . . . . . . . . . . . . . . . . .
72
65
73
2
40
19.05
49
12.7
74
0
49
-6.35
74
0
0
LTYPE
5
36
330
5
100
AcDbSymbolTableRecord
100
AcDbLinetypeTableRecord
2
DASHED2
70
0
3
Dashed (.5x) _ _ _ _ _ _ _ _ _ _ _ _ _ _ _ _ _
72
65
73
2
40
9.525
49
6.35
74
0
49
-3.175
74
0
0
LTYPE
5
37
330
5
100
AcDbSymbolTableRecord
100
AcDbLinetypeTableRecord
2
DASHEDX2
70
0
3
Dashed (2x) ____  ____  ____  ____  ____  ___
72
65
73
2
40
38.1
49
25.4
74
0
49
-12.7
74
0
0
LTYPE
5
38
330
5
100
AcDbSymbolTableRecord
100
AcDbLinetypeTableRecord
2
DASHDOT
70
0
3
Dash dot __ . __ . __ . __ . __ . __ . __ . __
72
65
73
4
40
25.4
49
12.7
74
0
49
-6.35
74
0
49
0
74
0
49
-6.35
74
0
0
LTYPE
5
39
330
5
100
AcDbSymbolTableRecord
100
AcDbLinetypeTableRecord
2
DASHDOT2
70
0
3
Dash dot (.5x) _._._._._._._._._._._._._._._.
72
65
73
4
40
12.7
49
6.35
74
0
49
-3.175
74
0
49
0
74
0
49
-3.175
74
0
0
LTYPE
5
3A
330
5
100
AcDbSymbolTableRecord
100
AcDbLinetypeTableRecord
2
DASHDOTX2
70
0
3
Dash dot (2x) ____  .  ____  .  ____  .  ___
72
65
73
4
40
50.8
49
25.4
74
0
49
-12.7
74
0
49
0
74
0
49
-12.7
74
0
0
LTYPE
5
3B
330
5
100
AcDbSymbolTableRecord
100
AcDbLinetypeTableRecord
2
DIVIDE
70
0
3
Divide ____ . . ____ . . ____ . . ____ . . ____
72
65
73
6
40
31.75
49
12.7
74
0
49
-6.35
74
0
49
0
74
0
49
-6.35
74
0
49
0
74
0
49
-6.35
74
0
0
LTYPE
5
3C
330
5
100
AcDbSymbolTableRecord
100
AcDbLinetypeTableRecord
2
DIVIDE2
70
0
3
Divide (.5x) __..__..__..__..__..__..__..__.._
72
65
73
6
40
15.875
49
6.35
74
0
49
-3.175
74
0
49
0
74
0
49
-3.175
74
0
49
0
74
0
49
-3.175
74
0
0
LTYPE
5
3D
330
5
100
AcDbSymbolTableRecord
100
AcDbLinetypeTableRecord
2
DIVIDEX2
70
0
3
Divide (2x) ________  .  .  ________  .  .  _
72
65
73
6
40
63.5
49
25.4
74
0
49
-12.7
74
0
49
0
74
0
49
-12.7
74
0
49
0
74
0
49
-12.7
74
0
0
LTYPE
5
3E
330
5
100
AcDbSymbolTableRecord
100
AcDbLinetypeTableRecord
2
BORDER
70
0
3
Border __ __ . __ __ . __ __ . __ __ . __ __ .
72
65
73
6
40
44.45
49
12.7
74
0
49
-6.35
74
0
49
12.7
74
0
49
-6.35
74
0
49
0
74
0
49
-6.35
74
0
0
LTYPE
5
3F
330
5
100
AcDbSymbolTableRecord
100
AcDbLinetypeTableRecord
2
BORDER2
70
0
3
Border (.5x) __.__.__.__.__.__.__.__.__.__.__.
72
65
73
6
40
22.225
49
6.35
74
0
49
-3.175
74
0
49
6.35
74
0
49
-3.175
74
0
49
0
74
0
49
-3.175
74
0
0
LTYPE
5
40
330
5
100
AcDbSymbolTableRecord
100
AcDbLinetypeTableRecord
2
BORDERX2
70
0
3
Border (2x) ____  ____  .  ____  ____  .  ___
72
65
73
6
40
88.9
49
25.4
74
0
49
-12.7
74
0
49
25.4
74
0
49
-12.7
74
0
49
0
74
0
49
-12.7
74
0
0
LTYPE
5
41
330
5
100
AcDbSymbolTableRecord
100
AcDbLinetypeTableRecord
2
CENTER
70
0
3
Center ____ _ ____ _ ____ _ ____ _ ____ _ ____
72
65
73
4
40
50.8
49
31.75
74
0
49
-6.35
74
0
49
6.35
74
0
49
-6.35
74
0
0
LTYPE
5
42
330
5
100
AcDbSymbolTableRecord
100
AcDbLinetypeTableRecord
2
CENTER2
70
0
3
Center (.5x) ___ _ ___ _ ___ _ ___ _ ___ _ ___
72
65
73
4
40
28.575
49
19.05
74
0
49
-3.175
74
0
49
3.175
74
0
49
-3.175
74
0
0
LTYPE
5
43
330
5
100
AcDbSymbolTableRecord
100
AcDbLinetypeTableRecord
2
CENTERX2
70
0
3
Center (2x) ________  __  ________  __  _____
72
65
73
4
40
101.6
49
63.5
74
0
49
-12.7
74
0
49
12.7
74
0
49
-12.7
74
0
0
ENDTAB
0
TABLE
2
LAYER
5
2
330
0
100
AcDbSymbolTable
70
1
0
LAYER
5
10
330
2
100
AcDbSymbolTableRecord
100
AcDbLayerTableRecord
2
0
70
0
62
2
6
CONTINUOUS
370
-3
390
F
0
LAYER
5
44
330
2
100
AcDbSymbolTableRecord
100
AcDbLayerTableRecord
2
AM_0
70
0
62
7
6
CONTINUOUS
370
-3
390
F
0
LAYER
5
45
330
2
100
AcDbSymbolTableRecord
100
AcDbLayerTableRecord
2
ELEKTRONIKA
70
0
62
149
6
CONTINUOUS
370
-3
390
F
0
LAYER
5
46
330
2
100
AcDbSymbolTableRecord
100
AcDbLayerTableRecord
2
GRAVIRANJE
70
0
62
3
6
CONTINUOUS
370
-3
390
F
0
LAYER
5
47
330
2
100
AcDbSymbolTableRecord
100
AcDbLayerTableRecord
2
HOLES
70
0
62
160
6
CONTINUOUS
370
-3
390
F
0
LAYER
5
48
330
2
100
AcDbSymbolTableRecord
100
AcDbLayerTableRecord
2
IZREZ
70
0
62
7
6
CONTINUOUS
370
-3
390
F
0
LAYER
5
49
330
2
100
AcDbSymbolTableRecord
100
AcDbLayerTableRecord
2
PLOŠČE
70
0
62
1
6
CONTINUOUS
370
-3
390
F
0
LAYER
5
4A
330
2
100
AcDbSymbolTableRecord
100
AcDbLayerTableRecord
2
PRVI_IZREZ
70
0
62
6
6
CONTINUOUS
370
-3
390
F
0
ENDTAB
0
TABLE
2
STYLE
5
3
330
0
100
AcDbSymbolTable
70
3
0
STYLE
5
4B
330
2
100
AcDbSymbolTableRecord
100
AcDbTextStyleTableRecord
2
standard
70
0
40
0
41
1
50
0
71
0
42
1
3
standard
4

0
STYLE
5
4C
330
2
100
AcDbSymbolTableRecord
100
AcDbTextStyleTableRecord
2
STANDARD
70
0
40
0
41
1
50
0
71
0
42
1
3
STANDARD
4

0
ENDTAB
0
TABLE
2
VIEW
5
6
330
0
100
AcDbSymbolTable
70
0
0
ENDTAB
0
TABLE
2
UCS
5
7
330
0
100
AcDbSymbolTable
70
0
0
ENDTAB
0
TABLE
2
APPID
5
9
330
0
100
AcDbSymbolTable
70
1
0
APPID
5
12
330
9
100
AcDbSymbolTableRecord
100
AcDbRegAppTableRecord
2
ACAD
70
0
0
APPID
5
4D
330
9
100
AcDbSymbolTableRecord
100
AcDbRegAppTableRecord
2
LibreCad
70
0
0
ENDTAB
0
TABLE
2
DIMSTYLE
5
A
330
0
100
AcDbSymbolTable
70
1
100
AcDbDimStyleTable
71
1
0
DIMSTYLE
105
4E
330
A
100
AcDbSymbolTableRecord
100
AcDbDimStyleTableRecord
2
Standard
70
0
40
1
41
3.5
42
1
43
0.38
44
1
45
0
46
0
47
0
48
0
140
3.5
141
0.09
142
0
143
25.4
144
1
145
0
146
1
147
1.5
148
0
71
0
72
0
73
0
74
1
75
0
76
0
77
0
78
0
79
0
170
0
171
2
172
0
173
0
174
0
175
0
176
0
177
0
178
0
179
0
271
4
272
4
273
2
274
2
275
0
276
0
277
2
278
46
279
0
280
0
281
0
282
0
283
1
284
0
285
0
286
0
288
0
289
3
340
Standard
341

371
-2
372
-2
0
ENDTAB
0
TABLE
2
BLOCK_RECORD
5
1
330
0
100
AcDbSymbolTable
70
2
0
BLOCK_RECORD
5
1F
330
1
100
AcDbSymbolTableRecord
100
AcDbBlockTableRecord
2
*Model_Space
70
0
280
1
281
0
0
BLOCK_RECORD
5
1E
330
1
100
AcDbSymbolTableRecord
100
AcDbBlockTableRecord
2
*Paper_Space
70
0
280
1
281
0
0
BLOCK_RECORD
5
4F
330
1
100
AcDbSymbolTableRecord
100
AcDbBlockTableRecord
2
*D12
70
0
280
1
281
0
0
BLOCK_RECORD
5
52
330
1
100
AcDbSymbolTableRecord
100
AcDbBlockTableRecord
2
*D6
70
0
280
1
281
0
0
BLOCK_RECORD
5
55
330
1
100
AcDbSymbolTableRecord
100
AcDbBlockTableRecord
2
*D25
70
0
280
1
281
0
0
BLOCK_RECORD
5
58
330
1
100
AcDbSymbolTableRecord
100
AcDbBlockTableRecord
2
*D10
70
0
280
1
281
0
0
BLOCK_RECORD
5
5B
330
1
100
AcDbSymbolTableRecord
100
AcDbBlockTableRecord
2
*D42
70
0
280
1
281
0
0
BLOCK_RECORD
5
5E
330
1
100
AcDbSymbolTableRecord
100
AcDbBlockTableRecord
2
*D14
70
0
280
1
281
0
0
BLOCK_RECORD
5
61
330
1
100
AcDbSymbolTableRecord
100
AcDbBlockTableRecord
2
*D11
70
0
280
1
281
0
0
BLOCK_RECORD
5
64
330
1
100
AcDbSymbolTableRecord
100
AcDbBlockTableRecord
2
*D17
70
0
280
1
281
0
0
BLOCK_RECORD
5
67
330
1
100
AcDbSymbolTableRecord
100
AcDbBlockTableRecord
2
*D24
70
0
280
1
281
0
0
BLOCK_RECORD
5
6A
330
1
100
AcDbSymbolTableRecord
100
AcDbBlockTableRecord
2
*D43
70
0
280
1
281
0
0
BLOCK_RECORD
5
6D
330
1
100
AcDbSymbolTableRecord
100
AcDbBlockTableRecord
2
*D28
70
0
280
1
281
0
0
BLOCK_RECORD
5
70
330
1
100
AcDbSymbolTableRecord
100
AcDbBlockTableRecord
2
*D34
70
0
280
1
281
0
0
BLOCK_RECORD
5
73
330
1
100
AcDbSymbolTableRecord
100
AcDbBlockTableRecord
2
*D32
70
0
280
1
281
0
0
BLOCK_RECORD
5
76
330
1
100
AcDbSymbolTableRecord
100
AcDbBlockTableRecord
2
*D3
70
0
280
1
281
0
0
BLOCK_RECORD
5
79
330
1
100
AcDbSymbolTableRecord
100
AcDbBlockTableRecord
2
*D21
70
0
280
1
281
0
0
BLOCK_RECORD
5
7C
330
1
100
AcDbSymbolTableRecord
100
AcDbBlockTableRecord
2
*D15
70
0
280
1
281
0
0
BLOCK_RECORD
5
7F
330
1
100
AcDbSymbolTableRecord
100
AcDbBlockTableRecord
2
*D27
70
0
280
1
281
0
0
BLOCK_RECORD
5
82
330
1
100
AcDbSymbolTableRecord
100
AcDbBlockTableRecord
2
*D20
70
0
280
1
281
0
0
BLOCK_RECORD
5
85
330
1
100
AcDbSymbolTableRecord
100
AcDbBlockTableRecord
2
*D38
70
0
280
1
281
0
0
BLOCK_RECORD
5
88
330
1
100
AcDbSymbolTableRecord
100
AcDbBlockTableRecord
2
*D9
70
0
280
1
281
0
0
BLOCK_RECORD
5
8B
330
1
100
AcDbSymbolTableRecord
100
AcDbBlockTableRecord
2
*D29
70
0
280
1
281
0
0
BLOCK_RECORD
5
8E
330
1
100
AcDbSymbolTableRecord
100
AcDbBlockTableRecord
2
*D8
70
0
280
1
281
0
0
BLOCK_RECORD
5
91
330
1
100
AcDbSymbolTableRecord
100
AcDbBlockTableRecord
2
*D19
70
0
280
1
281
0
0
BLOCK_RECORD
5
94
330
1
100
AcDbSymbolTableRecord
100
AcDbBlockTableRecord
2
*D41
70
0
280
1
281
0
0
BLOCK_RECORD
5
97
330
1
100
AcDbSymbolTableRecord
100
AcDbBlockTableRecord
2
*D13
70
0
280
1
281
0
0
BLOCK_RECORD
5
9A
330
1
100
AcDbSymbolTableRecord
100
AcDbBlockTableRecord
2
*D31
70
0
280
1
281
0
0
BLOCK_RECORD
5
9D
330
1
100
AcDbSymbolTableRecord
100
AcDbBlockTableRecord
2
*D30
70
0
280
1
281
0
0
BLOCK_RECORD
5
A0
330
1
100
AcDbSymbolTableRecord
100
AcDbBlockTableRecord
2
*D37
70
0
280
1
281
0
0
BLOCK_RECORD
5
A3
330
1
100
AcDbSymbolTableRecord
100
AcDbBlockTableRecord
2
*D40
70
0
280
1
281
0
0
BLOCK_RECORD
5
A6
330
1
100
AcDbSymbolTableRecord
100
AcDbBlockTableRecord
2
*D7
70
0
280
1
281
0
0
BLOCK_RECORD
5
A9
330
1
100
AcDbSymbolTableRecord
100
AcDbBlockTableRecord
2
*D39
70
0
280
1
281
0
0
BLOCK_RECORD
5
AC
330
1
100
AcDbSymbolTableRecord
100
AcDbBlockTableRecord
2
*D36
70
0
280
1
281
0
0
BLOCK_RECORD
5
AF
330
1
100
AcDbSymbolTableRecord
100
AcDbBlockTableRecord
2
*D4
70
0
280
1
281
0
0
BLOCK_RECORD
5
B2
330
1
100
AcDbSymbolTableRecord
100
AcDbBlockTableRecord
2
*D35
70
0
280
1
281
0
0
BLOCK_RECORD
5
B5
330
1
100
AcDbSymbolTableRecord
100
AcDbBlockTableRecord
2
*D26
70
0
280
1
281
0
0
BLOCK_RECORD
5
B8
330
1
100
AcDbSymbolTableRecord
100
AcDbBlockTableRecord
2
*D18
70
0
280
1
281
0
0
BLOCK_RECORD
5
BB
330
1
100
AcDbSymbolTableRecord
100
AcDbBlockTableRecord
2
*D2
70
0
280
1
281
0
0
BLOCK_RECORD
5
BE
330
1
100
AcDbSymbolTableRecord
100
AcDbBlockTableRecord
2
*D1
70
0
280
1
281
0
0
BLOCK_RECORD
5
C1
330
1
100
AcDbSymbolTableRecord
100
AcDbBlockTableRecord
2
*D5
70
0
280
1
281
0
0
BLOCK_RECORD
5
C4
330
1
100
AcDbSymbolTableRecord
100
AcDbBlockTableRecord
2
*D23
70
0
280
1
281
0
0
BLOCK_RECORD
5
C7
330
1
100
AcDbSymbolTableRecord
100
AcDbBlockTableRecord
2
*D16
70
0
280
1
281
0
0
BLOCK_RECORD
5
CA
330
1
100
AcDbSymbolTableRecord
100
AcDbBlockTableRecord
2
*D22
70
0
280
1
281
0
0
BLOCK_RECORD
5
CD
330
1
100
AcDbSymbolTableRecord
100
AcDbBlockTableRecord
2
*D33
70
0
280
1
281
0
0
BLOCK_RECORD
5
D0
330
1
100
AcDbSymbolTableRecord
100
AcDbBlockTableRecord
2
GENAXEH
70
0
280
1
281
0
0
ENDTAB
0
ENDSEC
0
SECTION
2
BLOCKS
0
BLOCK
5
20
330
1F
100
AcDbEntity
8
0
100
AcDbBlockBegin
2
*Model_Space
70
0
10
0
20
0
30
0
3
*Model_Space
1

0
ENDBLK
5
21
330
1F
100
AcDbEntity
8
0
100
AcDbBlockEnd
0
BLOCK
5
1C
330
1B
100
AcDbEntity
8
0
100
AcDbBlockBegin
2
*Paper_Space
70
0
10
0
20
0
30
0
3
*Paper_Space
1

0
ENDBLK
5
1D
330
1F
100
AcDbEntity
8
0
100
AcDbBlockEnd
0
BLOCK
5
50
330
4F
100
AcDbEntity
8
0
100
AcDbBlockBegin
2
*D12
70
1
10
0
20
0
3
*D12
1

0
LINE
5
D3
100
AcDbEntity
8
0
6
CONTINUOUS
62
7
370
0
100
AcDbLine
10
-274
20
386
11
-279.775
21
386
0
LINE
5
D4
100
AcDbEntity
8
0
6
CONTINUOUS
62
7
370
0
100
AcDbLine
10
-274
20
407
11
-279.775
21
407
0
LINE
5
D5
100
AcDbEntity
8
0
6
CONTINUOUS
62
7
370
0
100
AcDbLine
10
-278.775
20
386
11
-278.775
21
407
0
SOLID
5
D6
100
AcDbEntity
8
0
6
CONTINUOUS
62
7
370
0
100
AcDbTrace
10
-278.775
20
386
30
0
11
-279.357798521
21
389.5
31
0
12
-278.192201479
22
389.5
32
0
13
-278.192201479
23
389.5
33
0
0
SOLID
5
D7
100
AcDbEntity
8
0
6
CONTINUOUS
62
7
370
0
100
AcDbTrace
10
-278.775
20
407
30
0
11
-278.192201479
21
403.5
31
0
12
-279.357798521
22
403.5
32
0
13
-279.357798521
23
403.5
33
0
0
MTEXT
5
D8
100
AcDbEntity
8
0
6
CONTINUOUS
62
7
370
0
100
AcDbMText
10
-282.025
20
396.5
30
0
40
3.5
41
10.1111111111
71
5
72
1
1
21.00
7
standard
210
0
220
0
230
1
50
90
73
2
44
1
0
ENDBLK
5
51
330
4F
100
AcDbEntity
8
0
100
AcDbBlockEnd
0
BLOCK
5
53
330
52
100
AcDbEntity
8
0
100
AcDbBlockBegin
2
*D6
70
1
10
0
20
0
3
*D6
1

0
LINE
5
D9
100
AcDbEntity
8
0
6
CONTINUOUS
62
7
370
0
100
AcDbLine
10
-409
20
10
11
-441
21
10
0
LINE
5
DA
100
AcDbEntity
8
0
6
CONTINUOUS
62
7
370
0
100
AcDbLine
10
-409
20
365
11
-441
21
365
0
LINE
5
DB
100
AcDbEntity
8
0
6
CONTINUOUS
62
7
370
0
100
AcDbLine
10
-440
20
10
11
-440
21
365
0
SOLID
5
DC
100
AcDbEntity
8
0
6
CONTINUOUS
62
7
370
0
100
AcDbTrace
10
-440
20
10
30
0
11
-440.582798521
21
13.5
31
0
12
-439.417201479
22
13.5
32
0
13
-439.417201479
23
13.5
33
0
0
SOLID
5
DD
100
AcDbEntity
8
0
6
CONTINUOUS
62
7
370
0
100
AcDbTrace
10
-440
20
365
30
0
11
-439.417201479
21
361.5
31
0
12
-440.582798521
22
361.5
32
0
13
-440.582798521
23
361.5
33
0
0
MTEXT
5
DE
100
AcDbEntity
8
0
6
CONTINUOUS
62
7
370
0
100
AcDbMText
10
-443.25
20
187.5
30
0
40
3.5
41
13.6111111111
71
5
72
1
1
355.00
7
standard
210
0
220
0
230
1
50
90
73
2
44
1
0
ENDBLK
5
54
330
52
100
AcDbEntity
8
0
100
AcDbBlockEnd
0
BLOCK
5
56
330
55
100
AcDbEntity
8
0
100
AcDbBlockBegin
2
*D25
70
1
10
0
20
0
3
*D25
1

0
LINE
5
DF
100
AcDbEntity
8
0
6
CONTINUOUS
62
7
370
0
100
AcDbLine
10
113
20
385
11
113
21
359
0
LINE
5
E0
100
AcDbEntity
8
0
6
CONTINUOUS
62
7
370
0
100
AcDbLine
10
193
20
385
11
193
21
359
0
LINE
5
E1
100
AcDbEntity
8
0
6
CONTINUOUS
62
7
370
0
100
AcDbLine
10
113
20
360
11
193
21
360
0
SOLID
5
E2
100
AcDbEntity
8
0
6
CONTINUOUS
62
7
370
0
100
AcDbTrace
10
113
20
360
30
0
11
116.5
21
360.582798521
31
0
12
116.5
22
359.417201479
32
0
13
116.5
23
359.417201479
33
0
0
SOLID
5
E3
100
AcDbEntity
8
0
6
CONTINUOUS
62
7
370
0
100
AcDbTrace
10
193
20
360
30
0
11
189.5
21
359.417201479
31
0
12
189.5
22
360.582798521
32
0
13
189.5
23
360.582798521
33
0
0
MTEXT
5
E4
100
AcDbEntity
8
0
6
CONTINUOUS
62
7
370
0
100
AcDbMText
10
153
20
363.25
30
0
40
3.5
41
10.8888888889
71
5
72
1
1
80.00
7
standard
210
0
220
0
230
1
50
0
73
2
44
1
0
ENDBLK
5
57
330
55
100
AcDbEntity
8
0
100
AcDbBlockEnd
0
BLOCK
5
59
330
58
100
AcDbEntity
8
0
100
AcDbBlockBegin
2
*D10
70
1
10
0
20
0
3
*D10
1

0
LINE
5
E5
100
AcDbEntity
8
0
6
CONTINUOUS
62
7
370
0
100
AcDbLine
10
409
20
10
11
441
21
10
0
LINE
5
E6
100
AcDbEntity
8
0
6
CONTINUOUS
62
7
370
0
100
AcDbLine
10
409
20
349
11
441
21
349
0
LINE
5
E7
100
AcDbEntity
8
0
6
CONTINUOUS
62
7
370
0
100
AcDbLine
10
440
20
10
11
440
21
349
0
SOLID
5
E8
100
AcDbEntity
8
0
6
CONTINUOUS
62
7
370
0
100
AcDbTrace
10
440
20
10
30
0
11
439.417201479
21
13.5
31
0
12
440.582798521
22
13.5
32
0
13
440.582798521
23
13.5
33
0
0
SOLID
5
E9
100
AcDbEntity
8
0
6
CONTINUOUS
62
7
370
0
100
AcDbTrace
10
440
20
349
30
0
11
440.582798521
21
345.5
31
0
12
439.417201479
22
345.5
32
0
13
439.417201479
23
345.5
33
0
0
MTEXT
5
EA
100
AcDbEntity
8
0
6
CONTINUOUS
62
7
370
0
100
AcDbMText
10
436.75
20
179.5
30
0
40
3.5
41
13.6111111111
71
5
72
1
1
339.00
7
standard
210
0
220
0
230
1
50
90
73
2
44
1
0
ENDBLK
5
5A
330
58
100
AcDbEntity
8
0
100
AcDbBlockEnd
0
BLOCK
5
5C
330
5B
100
AcDbEntity
8
0
100
AcDbBlockBegin
2
*D42
70
1
10
0
20
0
3
*D42
1

0
LINE
5
EB
100
AcDbEntity
8
0
6
CONTINUOUS
62
7
370
0
100
AcDbLine
10
-250
20
407
11
-250
21
313
0
SOLID
5
EC
100
AcDbEntity
8
0
6
CONTINUOUS
62
7
370
0
100
AcDbTrace
10
-250
20
407
30
0
11
-249.417201479
21
403.5
31
0
12
-250.582798521
22
403.5
32
0
13
-250.582798521
23
403.5
33
0
0
SOLID
5
ED
100
AcDbEntity
8
0
6
CONTINUOUS
62
7
370
0
100
AcDbTrace
10
-250
20
313
30
0
11
-250.582798521
21
316.5
31
0
12
-249.417201479
22
316.5
32
0
13
-249.417201479
23
316.5
33
0
0
MTEXT
5
EE
100
AcDbEntity
8
0
6
CONTINUOUS
62
7
370
0
100
AcDbMText
10
-253.25
20
360
30
0
40
3.5
41
11.2777777778
71
5
72
1
1
94.00
7
standard
210
0
220
0
230
1
50
90
73
2
44
1
0
LINE
5
EF
100
AcDbEntity
8
0
6
CONTINUOUS
62
7
370
0
100
AcDbLine
10
-240
20
407
11
-251
21
407
0
LINE
5
F0
100
AcDbEntity
8
0
6
CONTINUOUS
62
7
370
0
100
AcDbLine
10
-240
20
313
11
-251
21
313
0
ENDBLK
5
5D
330
5B
100
AcDbEntity
8
0
100
AcDbBlockEnd
0
BLOCK
5
5F
330
5E
100
AcDbEntity
8
0
100
AcDbBlockBegin
2
*D14
70
1
10
0
20
0
3
*D14
1

0
LINE
5
F1
100
AcDbEntity
8
0
6
CONTINUOUS
62
7
370
0
100
AcDbLine
10
408
20
48
11
408
21
43
0
LINE
5
F2
100
AcDbEntity
8
0
6
CONTINUOUS
62
7
370
0
100
AcDbLine
10
10
20
48
11
10
21
43
0
LINE
5
F3
100
AcDbEntity
8
0
6
CONTINUOUS
62
7
370
0
100
AcDbLine
10
408
20
44
11
10
21
44
0
SOLID
5
F4
100
AcDbEntity
8
0
6
CONTINUOUS
62
7
370
0
100
AcDbTrace
10
408
20
44
30
0
11
404.5
21
43.4172014791
31
0
12
404.5
22
44.5827985209
32
0
13
404.5
23
44.5827985209
33
0
0
SOLID
5
F5
100
AcDbEntity
8
0
6
CONTINUOUS
62
7
370
0
100
AcDbTrace
10
10
20
44
30
0
11
13.5
21
44.5827985209
31
0
12
13.5
22
43.4172014791
32
0
13
13.5
23
43.4172014791
33
0
0
MTEXT
5
F6
100
AcDbEntity
8
0
6
CONTINUOUS
62
7
370
0
100
AcDbMText
10
209
20
47.25
30
0
40
3.5
41
13.6111111111
71
5
72
1
1
398.00
7
standard
210
0
220
0
230
1
50
360
73
2
44
1
0
ENDBLK
5
60
330
5E
100
AcDbEntity
8
0
100
AcDbBlockEnd
0
BLOCK
5
62
330
61
100
AcDbEntity
8
0
100
AcDbBlockBegin
2
*D11
70
1
10
0
20
0
3
*D11
1

0
LINE
5
F7
100
AcDbEntity
8
0
6
CONTINUOUS
62
7
370
0
100
AcDbLine
10
10
20
9
11
10
21
-11
0
LINE
5
F8
100
AcDbEntity
8
0
6
CONTINUOUS
62
7
370
0
100
AcDbLine
10
90
20
9
11
90
21
-11
0
LINE
5
F9
100
AcDbEntity
8
0
6
CONTINUOUS
62
7
370
0
100
AcDbLine
10
10
20
-10
11
90
21
-10
0
SOLID
5
FA
100
AcDbEntity
8
0
6
CONTINUOUS
62
7
370
0
100
AcDbTrace
10
10
20
-10
30
0
11
13.5
21
-9.41720147912
31
0
12
13.5
22
-10.5827985209
32
0
13
13.5
23
-10.5827985209
33
0
0
SOLID
5
FB
100
AcDbEntity
8
0
6
CONTINUOUS
62
7
370
0
100
AcDbTrace
10
90
20
-10
30
0
11
86.5
21
-10.5827985209
31
0
12
86.5
22
-9.41720147912
32
0
13
86.5
23
-9.41720147912
33
0
0
MTEXT
5
FC
100
AcDbEntity
8
0
6
CONTINUOUS
62
7
370
0
100
AcDbMText
10
50
20
-6.75
30
0
40
3.5
41
10.8888888889
71
5
72
1
1
80.00
7
standard
210
0
220
0
230
1
50
0
73
2
44
1
0
ENDBLK
5
63
330
61
100
AcDbEntity
8
0
100
AcDbBlockEnd
0
BLOCK
5
65
330
64
100
AcDbEntity
8
0
100
AcDbBlockBegin
2
*D17
70
1
10
0
20
0
3
*D17
1

0
LINE
5
FD
100
AcDbEntity
8
0
6
CONTINUOUS
62
7
370
0
100
AcDbLine
10
-10
20
9
11
-10
21
-41
0
LINE
5
FE
100
AcDbEntity
8
0
6
CONTINUOUS
62
7
370
0
100
AcDbLine
10
-408
20
9
11
-408
21
-41
0
LINE
5
FF
100
AcDbEntity
8
0
6
CONTINUOUS
62
7
370
0
100
AcDbLine
10
-10
20
-40
11
-408
21
-40
0
SOLID
5
100
100
AcDbEntity
8
0
6
CONTINUOUS
62
7
370
0
100
AcDbTrace
10
-10
20
-40
30
0
11
-13.5
21
-40.5827985209
31
0
12
-13.5
22
-39.4172014791
32
0
13
-13.5
23
-39.4172014791
33
0
0
SOLID
5
101
100
AcDbEntity
8
0
6
CONTINUOUS
62
7
370
0
100
AcDbTrace
10
-408
20
-40
30
0
11
-404.5
21
-39.4172014791
31
0
12
-404.5
22
-40.5827985209
32
0
13
-404.5
23
-40.5827985209
33
0
0
MTEXT
5
102
100
AcDbEntity
8
0
6
CONTINUOUS
62
7
370
0
100
AcDbMText
10
-209
20
-36.75
30
0
40
3.5
41
13.6111111111
71
5
72
1
1
398.00
7
standard
210
0
220
0
230
1
50
360
73
2
44
1
0
ENDBLK
5
66
330
64
100
AcDbEntity
8
0
100
AcDbBlockEnd
0
BLOCK
5
68
330
67
100
AcDbEntity
8
0
100
AcDbBlockBegin
2
*D24
70
1
10
0
20
0
3
*D24
1

0
LINE
5
103
100
AcDbEntity
8
0
6
CONTINUOUS
62
7
370
0
100
AcDbLine
10
90
20
408
11
90
21
421
0
LINE
5
104
100
AcDbEntity
8
0
6
CONTINUOUS
62
7
370
0
100
AcDbLine
10
193
20
408
11
193
21
421
0
LINE
5
105
100
AcDbEntity
8
0
6
CONTINUOUS
62
7
370
0
100
AcDbLine
10
90
20
420
11
193
21
420
0
SOLID
5
106
100
AcDbEntity
8
0
6
CONTINUOUS
62
7
370
0
100
AcDbTrace
10
90
20
420
30
0
11
93.5
21
420.582798521
31
0
12
93.5
22
419.417201479
32
0
13
93.5
23
419.417201479
33
0
0
SOLID
5
107
100
AcDbEntity
8
0
6
CONTINUOUS
62
7
370
0
100
AcDbTrace
10
193
20
420
30
0
11
189.5
21
419.417201479
31
0
12
189.5
22
420.582798521
32
0
13
189.5
23
420.582798521
33
0
0
MTEXT
5
108
100
AcDbEntity
8
0
6
CONTINUOUS
62
7
370
0
100
AcDbMText
10
141.5
20
423.25
30
0
40
3.5
41
12.8333333333
71
5
72
1
1
103.00
7
standard
210
0
220
0
230
1
50
0
73
2
44
1
0
ENDBLK
5
69
330
67
100
AcDbEntity
8
0
100
AcDbBlockEnd
0
BLOCK
5
6B
330
6A
100
AcDbEntity
8
0
100
AcDbBlockBegin
2
*D43
70
1
10
0
20
0
3
*D43
1

0
LINE
5
109
100
AcDbEntity
8
0
6
CONTINUOUS
62
7
370
0
100
AcDbLine
10
-250
20
10
11
-250
21
62
0
SOLID
5
10A
100
AcDbEntity
8
0
6
CONTINUOUS
62
7
370
0
100
AcDbTrace
10
-250
20
10
30
0
11
-250.582798521
21
13.5
31
0
12
-249.417201479
22
13.5
32
0
13
-249.417201479
23
13.5
33
0
0
SOLID
5
10B
100
AcDbEntity
8
0
6
CONTINUOUS
62
7
370
0
100
AcDbTrace
10
-250
20
62
30
0
11
-249.417201479
21
58.5
31
0
12
-250.582798521
22
58.5
32
0
13
-250.582798521
23
58.5
33
0
0
MTEXT
5
10C
100
AcDbEntity
8
0
6
CONTINUOUS
62
7
370
0
100
AcDbMText
10
-253.25
20
36
30
0
40
3.5
41
10.8888888889
71
5
72
1
1
52.00
7
standard
210
0
220
0
230
1
50
90
73
2
44
1
0
LINE
5
10D
100
AcDbEntity
8
0
6
CONTINUOUS
62
7
370
0
100
AcDbLine
10
-240
20
10
11
-251
21
10
0
LINE
5
10E
100
AcDbEntity
8
0
6
CONTINUOUS
62
7
370
0
100
AcDbLine
10
-240
20
62
11
-251
21
62
0
ENDBLK
5
6C
330
6A
100
AcDbEntity
8
0
100
AcDbBlockEnd
0
BLOCK
5
6E
330
6D
100
AcDbEntity
8
0
100
AcDbBlockBegin
2
*D28
70
1
10
0
20
0
3
*D28
1

0
LINE
5
10F
100
AcDbEntity
8
0
6
CONTINUOUS
62
7
370
0
100
AcDbLine
10
-193
20
385
11
-193
21
369
0
LINE
5
110
100
AcDbEntity
8
0
6
CONTINUOUS
62
7
370
0
100
AcDbLine
10
-113
20
385
11
-113
21
369
0
LINE
5
111
100
AcDbEntity
8
0
6
CONTINUOUS
62
7
370
0
100
AcDbLine
10
-193
20
370
11
-113
21
370
0
SOLID
5
112
100
AcDbEntity
8
0
6
CONTINUOUS
62
7
370
0
100
AcDbTrace
10
-193
20
370
30
0
11
-189.5
21
370.582798521
31
0
12
-189.5
22
369.417201479
32
0
13
-189.5
23
369.417201479
33
0
0
SOLID
5
113
100
AcDbEntity
8
0
6
CONTINUOUS
62
7
370
0
100
AcDbTrace
10
-113
20
370
30
0
11
-116.5
21
369.417201479
31
0
12
-116.5
22
370.582798521
32
0
13
-116.5
23
370.582798521
33
0
0
MTEXT
5
114
100
AcDbEntity
8
0
6
CONTINUOUS
62
7
370
0
100
AcDbMText
10
-153
20
373.25
30
0
40
3.5
41
10.8888888889
71
5
72
1
1
80.00
7
standard
210
0
220
0
230
1
50
0
73
2
44
1
0
ENDBLK
5
6F
330
6D
100
AcDbEntity
8
0
100
AcDbBlockEnd
0
BLOCK
5
71
330
70
100
AcDbEntity
8
0
100
AcDbBlockBegin
2
*D34
70
1
10
0
20
0
3
*D34
1

0
LINE
5
115
100
AcDbEntity
8
0
6
CONTINUOUS
62
7
370
0
100
AcDbLine
10
-205.4
20
382
11
-205.4
21
382
0
LINE
5
116
100
AcDbEntity
8
0
6
CONTINUOUS
62
7
370
0
100
AcDbLine
10
-197.05
20
382
11
-197.05
21
382
0
LINE
5
117
100
AcDbEntity
8
0
6
CONTINUOUS
62
7
370
0
100
AcDbLine
10
-213.4
20
382
11
-191.05
21
382
0
SOLID
5
118
100
AcDbEntity
8
0
6
CONTINUOUS
62
7
370
0
100
AcDbTrace
10
-206.4
20
382
30
0
11
-209.9
21
381.417201479
31
0
12
-209.9
22
382.582798521
32
0
13
-209.9
23
382.582798521
33
0
0
SOLID
5
119
100
AcDbEntity
8
0
6
CONTINUOUS
62
7
370
0
100
AcDbTrace
10
-198.05
20
382
30
0
11
-194.55
21
382.582798521
31
0
12
-194.55
22
381.417201479
32
0
13
-194.55
23
381.417201479
33
0
0
MTEXT
5
11A
100
AcDbEntity
8
0
6
CONTINUOUS
62
7
370
0
100
AcDbMText
10
-202.225
20
385.25
30
0
40
3.5
41
8.16666666667
71
5
72
1
1
8.35
7
standard
210
0
220
0
230
1
50
0
73
2
44
1
0
ENDBLK
5
72
330
70
100
AcDbEntity
8
0
100
AcDbBlockEnd
0
BLOCK
5
74
330
73
100
AcDbEntity
8
0
100
AcDbBlockBegin
2
*D32
70
1
10
0
20
0
3
*D32
1

0
LINE
5
11B
100
AcDbEntity
8
0
6
CONTINUOUS
62
7
370
0
100
AcDbLine
10
338
20
408
11
338
21
441
0
LINE
5
11C
100
AcDbEntity
8
0
6
CONTINUOUS
62
7
370
0
100
AcDbLine
10
10
20
408
11
10
21
441
0
LINE
5
11D
100
AcDbEntity
8
0
6
CONTINUOUS
62
7
370
0
100
AcDbLine
10
338
20
440
11
10
21
440
0
SOLID
5
11E
100
AcDbEntity
8
0
6
CONTINUOUS
62
7
370
0
100
AcDbTrace
10
338
20
440
30
0
11
334.5
21
439.417201479
31
0
12
334.5
22
440.582798521
32
0
13
334.5
23
440.582798521
33
0
0
SOLID
5
11F
100
AcDbEntity
8
0
6
CONTINUOUS
62
7
370
0
100
AcDbTrace
10
10
20
440
30
0
11
13.5
21
440.582798521
31
0
12
13.5
22
439.417201479
32
0
13
13.5
23
439.417201479
33
0
0
MTEXT
5
120
100
AcDbEntity
8
0
6
CONTINUOUS
62
7
370
0
100
AcDbMText
10
174
20
443.25
30
0
40
3.5
41
13.6111111111
71
5
72
1
1
328.00
7
standard
210
0
220
0
230
1
50
360
73
2
44
1
0
ENDBLK
5
75
330
73
100
AcDbEntity
8
0
100
AcDbBlockEnd
0
BLOCK
5
77
330
76
100
AcDbEntity
8
0
100
AcDbBlockBegin
2
*D3
70
1
10
0
20
0
3
*D3
1

0
LINE
5
121
100
AcDbEntity
8
0
6
CONTINUOUS
62
7
370
0
100
AcDbLine
10
-379
20
10
11
-379
21
10
0
LINE
5
122
100
AcDbEntity
8
0
6
CONTINUOUS
62
7
370
0
100
AcDbLine
10
-379
20
407
11
-379
21
407
0
LINE
5
123
100
AcDbEntity
8
0
6
CONTINUOUS
62
7
370
0
100
AcDbLine
10
-380
20
10
11
-380
21
407
0
SOLID
5
124
100
AcDbEntity
8
0
6
CONTINUOUS
62
7
370
0
100
AcDbTrace
10
-380
20
10
30
0
11
-380.582798521
21
13.5
31
0
12
-379.417201479
22
13.5
32
0
13
-379.417201479
23
13.5
33
0
0
SOLID
5
125
100
AcDbEntity
8
0
6
CONTINUOUS
62
7
370
0
100
AcDbTrace
10
-380
20
407
30
0
11
-379.417201479
21
403.5
31
0
12
-380.582798521
22
403.5
32
0
13
-380.582798521
23
403.5
33
0
0
MTEXT
5
126
100
AcDbEntity
8
0
6
CONTINUOUS
62
7
370
0
100
AcDbMText
10
-376.75
20
208.5
30
0
40
3.5
41
13.6111111111
71
5
72
1
1
397.00
7
standard
210
0
220
0
230
1
50
90
73
2
44
1
0
ENDBLK
5
78
330
76
100
AcDbEntity
8
0
100
AcDbBlockEnd
0
BLOCK
5
7A
330
79
100
AcDbEntity
8
0
100
AcDbBlockBegin
2
*D21
70
1
10
0
20
0
3
*D21
1

0
LINE
5
127
100
AcDbEntity
8
0
6
CONTINUOUS
62
7
370
0
100
AcDbLine
10
408
20
9
11
408
21
-11
0
LINE
5
128
100
AcDbEntity
8
0
6
CONTINUOUS
62
7
370
0
100
AcDbLine
10
328
20
9
11
328
21
-11
0
LINE
5
129
100
AcDbEntity
8
0
6
CONTINUOUS
62
7
370
0
100
AcDbLine
10
408
20
-10
11
328
21
-10
0
SOLID
5
12A
100
AcDbEntity
8
0
6
CONTINUOUS
62
7
370
0
100
AcDbTrace
10
408
20
-10
30
0
11
404.5
21
-10.5827985209
31
0
12
404.5
22
-9.41720147912
32
0
13
404.5
23
-9.41720147912
33
0
0
SOLID
5
12B
100
AcDbEntity
8
0
6
CONTINUOUS
62
7
370
0
100
AcDbTrace
10
328
20
-10
30
0
11
331.5
21
-9.41720147912
31
0
12
331.5
22
-10.5827985209
32
0
13
331.5
23
-10.5827985209
33
0
0
MTEXT
5
12C
100
AcDbEntity
8
0
6
CONTINUOUS
62
7
370
0
100
AcDbMText
10
368
20
-6.75
30
0
40
3.5
41
10.8888888889
71
5
72
1
1
80.00
7
standard
210
0
220
0
230
1
50
360
73
2
44
1
0
ENDBLK
5
7B
330
79
100
AcDbEntity
8
0
100
AcDbBlockEnd
0
BLOCK
5
7D
330
7C
100
AcDbEntity
8
0
100
AcDbBlockBegin
2
*D15
70
1
10
0
20
0
3
*D15
1

0
LINE
5
12D
100
AcDbEntity
8
0
6
CONTINUOUS
62
7
370
0
100
AcDbLine
10
10
20
408
11
10
21
421
0
LINE
5
12E
100
AcDbEntity
8
0
6
CONTINUOUS
62
7
370
0
100
AcDbLine
10
90
20
408
11
90
21
421
0
LINE
5
12F
100
AcDbEntity
8
0
6
CONTINUOUS
62
7
370
0
100
AcDbLine
10
10
20
420
11
90
21
420
0
SOLID
5
130
100
AcDbEntity
8
0
6
CONTINUOUS
62
7
370
0
100
AcDbTrace
10
10
20
420
30
0
11
13.5
21
420.582798521
31
0
12
13.5
22
419.417201479
32
0
13
13.5
23
419.417201479
33
0
0
SOLID
5
131
100
AcDbEntity
8
0
6
CONTINUOUS
62
7
370
0
100
AcDbTrace
10
90
20
420
30
0
11
86.5
21
419.417201479
31
0
12
86.5
22
420.582798521
32
0
13
86.5
23
420.582798521
33
0
0
MTEXT
5
132
100
AcDbEntity
8
0
6
CONTINUOUS
62
7
370
0
100
AcDbMText
10
50
20
423.25
30
0
40
3.5
41
10.8888888889
71
5
72
1
1
80.00
7
standard
210
0
220
0
230
1
50
0
73
2
44
1
0
ENDBLK
5
7E
330
7C
100
AcDbEntity
8
0
100
AcDbBlockEnd
0
BLOCK
5
80
330
7F
100
AcDbEntity
8
0
100
AcDbBlockBegin
2
*D27
70
1
10
0
20
0
3
*D27
1

0
LINE
5
133
100
AcDbEntity
8
0
6
CONTINUOUS
62
7
370
0
100
AcDbLine
10
-273
20
385
11
-273
21
369
0
LINE
5
134
100
AcDbEntity
8
0
6
CONTINUOUS
62
7
370
0
100
AcDbLine
10
-193
20
385
11
-193
21
369
0
LINE
5
135
100
AcDbEntity
8
0
6
CONTINUOUS
62
7
370
0
100
AcDbLine
10
-273
20
370
11
-193
21
370
0
SOLID
5
136
100
AcDbEntity
8
0
6
CONTINUOUS
62
7
370
0
100
AcDbTrace
10
-273
20
370
30
0
11
-269.5
21
370.582798521
31
0
12
-269.5
22
369.417201479
32
0
13
-269.5
23
369.417201479
33
0
0
SOLID
5
137
100
AcDbEntity
8
0
6
CONTINUOUS
62
7
370
0
100
AcDbTrace
10
-193
20
370
30
0
11
-196.5
21
369.417201479
31
0
12
-196.5
22
370.582798521
32
0
13
-196.5
23
370.582798521
33
0
0
MTEXT
5
138
100
AcDbEntity
8
0
6
CONTINUOUS
62
7
370
0
100
AcDbMText
10
-233
20
373.25
30
0
40
3.5
41
10.8888888889
71
5
72
1
1
80.00
7
standard
210
0
220
0
230
1
50
0
73
2
44
1
0
ENDBLK
5
81
330
7F
100
AcDbEntity
8
0
100
AcDbBlockEnd
0
BLOCK
5
83
330
82
100
AcDbEntity
8
0
100
AcDbBlockBegin
2
*D20
70
1
10
0
20
0
3
*D20
1

0
LINE
5
139
100
AcDbEntity
8
0
6
CONTINUOUS
62
7
370
0
100
AcDbLine
10
10
20
408
11
10
21
451
0
LINE
5
13A
100
AcDbEntity
8
0
6
CONTINUOUS
62
7
370
0
100
AcDbLine
10
408
20
408
11
408
21
451
0
LINE
5
13B
100
AcDbEntity
8
0
6
CONTINUOUS
62
7
370
0
100
AcDbLine
10
10
20
450
11
408
21
450
0
SOLID
5
13C
100
AcDbEntity
8
0
6
CONTINUOUS
62
7
370
0
100
AcDbTrace
10
10
20
450
30
0
11
13.5
21
450.582798521
31
0
12
13.5
22
449.417201479
32
0
13
13.5
23
449.417201479
33
0
0
SOLID
5
13D
100
AcDbEntity
8
0
6
CONTINUOUS
62
7
370
0
100
AcDbTrace
10
408
20
450
30
0
11
404.5
21
449.417201479
31
0
12
404.5
22
450.582798521
32
0
13
404.5
23
450.582798521
33
0
0
MTEXT
5
13E
100
AcDbEntity
8
0
6
CONTINUOUS
62
7
370
0
100
AcDbMText
10
209
20
453.25
30
0
40
3.5
41
13.6111111111
71
5
72
1
1
398.00
7
standard
210
0
220
0
230
1
50
0
73
2
44
1
0
ENDBLK
5
84
330
82
100
AcDbEntity
8
0
100
AcDbBlockEnd
0
BLOCK
5
86
330
85
100
AcDbEntity
8
0
100
AcDbBlockBegin
2
*D38
70
1
10
0
20
0
3
*D38
1

0
LINE
5
13F
100
AcDbEntity
8
0
6
CONTINUOUS
62
7
370
0
100
AcDbLine
10
228
20
9
11
228
21
-21
0
LINE
5
140
100
AcDbEntity
8
0
6
CONTINUOUS
62
7
370
0
100
AcDbLine
10
10
20
9
11
10
21
-21
0
LINE
5
141
100
AcDbEntity
8
0
6
CONTINUOUS
62
7
370
0
100
AcDbLine
10
228
20
-20
11
10
21
-20
0
SOLID
5
142
100
AcDbEntity
8
0
6
CONTINUOUS
62
7
370
0
100
AcDbTrace
10
228
20
-20
30
0
11
224.5
21
-20.5827985209
31
0
12
224.5
22
-19.4172014791
32
0
13
224.5
23
-19.4172014791
33
0
0
SOLID
5
143
100
AcDbEntity
8
0
6
CONTINUOUS
62
7
370
0
100
AcDbTrace
10
10
20
-20
30
0
11
13.5
21
-19.4172014791
31
0
12
13.5
22
-20.5827985209
32
0
13
13.5
23
-20.5827985209
33
0
0
MTEXT
5
144
100
AcDbEntity
8
0
6
CONTINUOUS
62
7
370
0
100
AcDbMText
10
119
20
-16.75
30
0
40
3.5
41
12.8333333333
71
5
72
1
1
218.00
7
standard
210
0
220
0
230
1
50
360
73
2
44
1
0
ENDBLK
5
87
330
85
100
AcDbEntity
8
0
100
AcDbBlockEnd
0
BLOCK
5
89
330
88
100
AcDbEntity
8
0
100
AcDbBlockBegin
2
*D9
70
1
10
0
20
0
3
*D9
1

0
LINE
5
145
100
AcDbEntity
8
0
6
CONTINUOUS
62
7
370
0
100
AcDbLine
10
409
20
10
11
431
21
10
0
LINE
5
146
100
AcDbEntity
8
0
6
CONTINUOUS
62
7
370
0
100
AcDbLine
10
409
20
209
11
431
21
209
0
LINE
5
147
100
AcDbEntity
8
0
6
CONTINUOUS
62
7
370
0
100
AcDbLine
10
430
20
10
11
430
21
209
0
SOLID
5
148
100
AcDbEntity
8
0
6
CONTINUOUS
62
7
370
0
100
AcDbTrace
10
430
20
10
30
0
11
429.417201479
21
13.5
31
0
12
430.582798521
22
13.5
32
0
13
430.582798521
23
13.5
33
0
0
SOLID
5
149
100
AcDbEntity
8
0
6
CONTINUOUS
62
7
370
0
100
AcDbTrace
10
430
20
209
30
0
11
430.582798521
21
205.5
31
0
12
429.417201479
22
205.5
32
0
13
429.417201479
23
205.5
33
0
0
MTEXT
5
14A
100
AcDbEntity
8
0
6
CONTINUOUS
62
7
370
0
100
AcDbMText
10
426.75
20
109.5
30
0
40
3.5
41
12.8333333333
71
5
72
1
1
199.00
7
standard
210
0
220
0
230
1
50
90
73
2
44
1
0
ENDBLK
5
8A
330
88
100
AcDbEntity
8
0
100
AcDbBlockEnd
0
BLOCK
5
8C
330
8B
100
AcDbEntity
8
0
100
AcDbBlockBegin
2
*D29
70
1
10
0
20
0
3
*D29
1

0
LINE
5
14B
100
AcDbEntity
8
0
6
CONTINUOUS
62
7
370
0
100
AcDbLine
10
-192
20
386
11
-192
21
386
0
LINE
5
14C
100
AcDbEntity
8
0
6
CONTINUOUS
62
7
370
0
100
AcDbLine
10
-192
20
407
11
-192
21
407
0
LINE
5
14D
100
AcDbEntity
8
0
6
CONTINUOUS
62
7
370
0
100
AcDbLine
10
-193
20
386
11
-193
21
407
0
SOLID
5
14E
100
AcDbEntity
8
0
6
CONTINUOUS
62
7
370
0
100
AcDbTrace
10
-193
20
386
30
0
11
-193.582798521
21
389.5
31
0
12
-192.417201479
22
389.5
32
0
13
-192.417201479
23
389.5
33
0
0
SOLID
5
14F
100
AcDbEntity
8
0
6
CONTINUOUS
62
7
370
0
100
AcDbTrace
10
-193
20
407
30
0
11
-192.417201479
21
403.5
31
0
12
-193.582798521
22
403.5
32
0
13
-193.582798521
23
403.5
33
0
0
MTEXT
5
150
100
AcDbEntity
8
0
6
CONTINUOUS
62
7
370
0
100
AcDbMText
10
-196.25
20
396.5
30
0
40
3.5
41
10.1111111111
71
5
72
1
1
21.00
7
standard
210
0
220
0
230
1
50
90
73
2
44
1
0
ENDBLK
5
8D
330
8B
100
AcDbEntity
8
0
100
AcDbBlockEnd
0
BLOCK
5
8F
330
8E
100
AcDbEntity
8
0
100
AcDbBlockBegin
2
*D8
70
1
10
0
20
0
3
*D8
1

0
LINE
5
151
100
AcDbEntity
8
0
6
CONTINUOUS
62
7
370
0
100
AcDbLine
10
409
20
10
11
421
21
10
0
LINE
5
152
100
AcDbEntity
8
0
6
CONTINUOUS
62
7
370
0
100
AcDbLine
10
409
20
69
11
421
21
69
0
LINE
5
153
100
AcDbEntity
8
0
6
CONTINUOUS
62
7
370
0
100
AcDbLine
10
420
20
10
11
420
21
69
0
SOLID
5
154
100
AcDbEntity
8
0
6
CONTINUOUS
62
7
370
0
100
AcDbTrace
10
420
20
10
30
0
11
419.417201479
21
13.5
31
0
12
420.582798521
22
13.5
32
0
13
420.582798521
23
13.5
33
0
0
SOLID
5
155
100
AcDbEntity
8
0
6
CONTINUOUS
62
7
370
0
100
AcDbTrace
10
420
20
69
30
0
11
420.582798521
21
65.5
31
0
12
419.417201479
22
65.5
32
0
13
419.417201479
23
65.5
33
0
0
MTEXT
5
156
100
AcDbEntity
8
0
6
CONTINUOUS
62
7
370
0
100
AcDbMText
10
416.75
20
39.5
30
0
40
3.5
41
10.8888888889
71
5
72
1
1
59.00
7
standard
210
0
220
0
230
1
50
90
73
2
44
1
0
ENDBLK
5
90
330
8E
100
AcDbEntity
8
0
100
AcDbBlockEnd
0
BLOCK
5
92
330
91
100
AcDbEntity
8
0
100
AcDbBlockBegin
2
*D19
70
1
10
0
20
0
3
*D19
1

0
LINE
5
157
100
AcDbEntity
8
0
6
CONTINUOUS
62
7
370
0
100
AcDbLine
10
-409
20
365
11
-421
21
365
0
LINE
5
158
100
AcDbEntity
8
0
6
CONTINUOUS
62
7
370
0
100
AcDbLine
10
-409
20
407
11
-421
21
407
0
LINE
5
159
100
AcDbEntity
8
0
6
CONTINUOUS
62
7
370
0
100
AcDbLine
10
-420
20
365
11
-420
21
407
0
SOLID
5
15A
100
AcDbEntity
8
0
6
CONTINUOUS
62
7
370
0
100
AcDbTrace
10
-420
20
365
30
0
11
-420.582798521
21
368.5
31
0
12
-419.417201479
22
368.5
32
0
13
-419.417201479
23
368.5
33
0
0
SOLID
5
15B
100
AcDbEntity
8
0
6
CONTINUOUS
62
7
370
0
100
AcDbTrace
10
-420
20
407
30
0
11
-419.417201479
21
403.5
31
0
12
-420.582798521
22
403.5
32
0
13
-420.582798521
23
403.5
33
0
0
MTEXT
5
15C
100
AcDbEntity
8
0
6
CONTINUOUS
62
7
370
0
100
AcDbMText
10
-423.25
20
386
30
0
40
3.5
41
11.2777777778
71
5
72
1
1
42.00
7
standard
210
0
220
0
230
1
50
90
73
2
44
1
0
ENDBLK
5
93
330
91
100
AcDbEntity
8
0
100
AcDbBlockEnd
0
BLOCK
5
95
330
94
100
AcDbEntity
8
0
100
AcDbBlockBegin
2
*D41
70
1
10
0
20
0
3
*D41
1

0
LINE
5
15D
100
AcDbEntity
8
0
6
CONTINUOUS
62
7
370
0
100
AcDbLine
10
131
20
351
11
131
21
355
0
LINE
5
15E
100
AcDbEntity
8
0
6
CONTINUOUS
62
7
370
0
100
AcDbLine
10
159
20
351
11
159
21
355
0
LINE
5
15F
100
AcDbEntity
8
0
6
CONTINUOUS
62
7
370
0
100
AcDbLine
10
131
20
354
11
159
21
354
0
SOLID
5
160
100
AcDbEntity
8
0
6
CONTINUOUS
62
7
370
0
100
AcDbTrace
10
131
20
354
30
0
11
134.5
21
354.582798521
31
0
12
134.5
22
353.417201479
32
0
13
134.5
23
353.417201479
33
0
0
SOLID
5
161
100
AcDbEntity
8
0
6
CONTINUOUS
62
7
370
0
100
AcDbTrace
10
159
20
354
30
0
11
155.5
21
353.417201479
31
0
12
155.5
22
354.582798521
32
0
13
155.5
23
354.582798521
33
0
0
MTEXT
5
162
100
AcDbEntity
8
0
6
CONTINUOUS
62
7
370
0
100
AcDbMText
10
145
20
357.25
30
0
40
3.5
41
10.8888888889
71
5
72
1
1
28.00
7
standard
210
0
220
0
230
1
50
0
73
2
44
1
0
ENDBLK
5
96
330
94
100
AcDbEntity
8
0
100
AcDbBlockEnd
0
BLOCK
5
98
330
97
100
AcDbEntity
8
0
100
AcDbBlockBegin
2
*D13
70
1
10
0
20
0
3
*D13
1

0
LINE
5
163
100
AcDbEntity
8
0
6
CONTINUOUS
62
7
370
0
100
AcDbLine
10
-10
20
9
11
-10
21
-20.85
0
LINE
5
164
100
AcDbEntity
8
0
6
CONTINUOUS
62
7
370
0
100
AcDbLine
10
-209
20
9
11
-209
21
-20.85
0
LINE
5
165
100
AcDbEntity
8
0
6
CONTINUOUS
62
7
370
0
100
AcDbLine
10
-10
20
-19.85
11
-209
21
-19.85
0
SOLID
5
166
100
AcDbEntity
8
0
6
CONTINUOUS
62
7
370
0
100
AcDbTrace
10
-10
20
-19.85
30
0
11
-13.5
21
-20.4327985209
31
0
12
-13.5
22
-19.2672014791
32
0
13
-13.5
23
-19.2672014791
33
0
0
SOLID
5
167
100
AcDbEntity
8
0
6
CONTINUOUS
62
7
370
0
100
AcDbTrace
10
-209
20
-19.85
30
0
11
-205.5
21
-19.2672014791
31
0
12
-205.5
22
-20.4327985209
32
0
13
-205.5
23
-20.4327985209
33
0
0
MTEXT
5
168
100
AcDbEntity
8
0
6
CONTINUOUS
62
7
370
0
100
AcDbMText
10
-109.5
20
-16.6
30
0
40
3.5
41
12.8333333333
71
5
72
1
1
199.00
7
standard
210
0
220
0
230
1
50
360
73
2
44
1
0
ENDBLK
5
99
330
97
100
AcDbEntity
8
0
100
AcDbBlockEnd
0
BLOCK
5
9B
330
9A
100
AcDbEntity
8
0
100
AcDbBlockBegin
2
*D31
70
1
10
0
20
0
3
*D31
1

0
LINE
5
169
100
AcDbEntity
8
0
6
CONTINUOUS
62
7
370
0
100
AcDbLine
10
408
20
408
11
408
21
431
0
LINE
5
16A
100
AcDbEntity
8
0
6
CONTINUOUS
62
7
370
0
100
AcDbLine
10
338
20
408
11
338
21
431
0
LINE
5
16B
100
AcDbEntity
8
0
6
CONTINUOUS
62
7
370
0
100
AcDbLine
10
408
20
430
11
338
21
430
0
SOLID
5
16C
100
AcDbEntity
8
0
6
CONTINUOUS
62
7
370
0
100
AcDbTrace
10
408
20
430
30
0
11
404.5
21
429.417201479
31
0
12
404.5
22
430.582798521
32
0
13
404.5
23
430.582798521
33
0
0
SOLID
5
16D
100
AcDbEntity
8
0
6
CONTINUOUS
62
7
370
0
100
AcDbTrace
10
338
20
430
30
0
11
341.5
21
430.582798521
31
0
12
341.5
22
429.417201479
32
0
13
341.5
23
429.417201479
33
0
0
MTEXT
5
16E
100
AcDbEntity
8
0
6
CONTINUOUS
62
7
370
0
100
AcDbMText
10
373
20
433.25
30
0
40
3.5
41
10.8888888889
71
5
72
1
1
70.00
7
standard
210
0
220
0
230
1
50
360
73
2
44
1
0
ENDBLK
5
9C
330
9A
100
AcDbEntity
8
0
100
AcDbBlockEnd
0
BLOCK
5
9E
330
9D
100
AcDbEntity
8
0
100
AcDbBlockBegin
2
*D30
70
1
10
0
20
0
3
*D30
1

0
LINE
5
16F
100
AcDbEntity
8
0
6
CONTINUOUS
62
7
370
0
100
AcDbLine
10
-10
20
408
11
-10
21
421
0
LINE
5
170
100
AcDbEntity
8
0
6
CONTINUOUS
62
7
370
0
100
AcDbLine
10
-193
20
408
11
-193
21
421
0
LINE
5
171
100
AcDbEntity
8
0
6
CONTINUOUS
62
7
370
0
100
AcDbLine
10
-10
20
420
11
-193
21
420
0
SOLID
5
172
100
AcDbEntity
8
0
6
CONTINUOUS
62
7
370
0
100
AcDbTrace
10
-10
20
420
30
0
11
-13.5
21
419.417201479
31
0
12
-13.5
22
420.582798521
32
0
13
-13.5
23
420.582798521
33
0
0
SOLID
5
173
100
AcDbEntity
8
0
6
CONTINUOUS
62
7
370
0
100
AcDbTrace
10
-193
20
420
30
0
11
-189.5
21
420.582798521
31
0
12
-189.5
22
419.417201479
32
0
13
-189.5
23
419.417201479
33
0
0
MTEXT
5
174
100
AcDbEntity
8
0
6
CONTINUOUS
62
7
370
0
100
AcDbMText
10
-101.5
20
423.25
30
0
40
3.5
41
12.8333333333
71
5
72
1
1
183.00
7
standard
210
0
220
0
230
1
50
360
73
2
44
1
0
ENDBLK
5
9F
330
9D
100
AcDbEntity
8
0
100
AcDbBlockEnd
0
BLOCK
5
A1
330
A0
100
AcDbEntity
8
0
100
AcDbBlockBegin
2
*D37
70
1
10
0
20
0
3
*D37
1

0
LINE
5
175
100
AcDbEntity
8
0
6
CONTINUOUS
62
7
370
0
100
AcDbLine
10
-198.05
20
389
11
-198.05
21
381
0
LINE
5
176
100
AcDbEntity
8
0
6
CONTINUOUS
62
7
370
0
100
AcDbLine
10
-187.95
20
389
11
-187.95
21
381
0
LINE
5
177
100
AcDbEntity
8
0
6
CONTINUOUS
62
7
370
0
100
AcDbLine
10
-198.05
20
382
11
-187.95
21
382
0
SOLID
5
178
100
AcDbEntity
8
0
6
CONTINUOUS
62
7
370
0
100
AcDbTrace
10
-198.05
20
382
30
0
11
-194.55
21
382.582798521
31
0
12
-194.55
22
381.417201479
32
0
13
-194.55
23
381.417201479
33
0
0
SOLID
5
179
100
AcDbEntity
8
0
6
CONTINUOUS
62
7
370
0
100
AcDbTrace
10
-187.95
20
382
30
0
11
-191.45
21
381.417201479
31
0
12
-191.45
22
382.582798521
32
0
13
-191.45
23
382.582798521
33
0
0
MTEXT
5
17A
100
AcDbEntity
8
0
6
CONTINUOUS
62
7
370
0
100
AcDbMText
10
-193
20
385.25
30
0
40
3.5
41
9.33333333333
71
5
72
1
1
10.10
7
standard
210
0
220
0
230
1
50
0
73
2
44
1
0
ENDBLK
5
A2
330
A0
100
AcDbEntity
8
0
100
AcDbBlockEnd
0
BLOCK
5
A4
330
A3
100
AcDbEntity
8
0
100
AcDbBlockBegin
2
*D40
70
1
10
0
20
0
3
*D40
1

0
LINE
5
17B
100
AcDbEntity
8
0
6
CONTINUOUS
62
7
370
0
100
AcDbLine
10
229
20
10
11
229
21
10
0
LINE
5
17C
100
AcDbEntity
8
0
6
CONTINUOUS
62
7
370
0
100
AcDbLine
10
139
20
10
11
139
21
10
0
LINE
5
17D
100
AcDbEntity
8
0
6
CONTINUOUS
62
7
370
0
100
AcDbLine
10
228
20
10
11
138
21
10
0
SOLID
5
17E
100
AcDbEntity
8
0
6
CONTINUOUS
62
7
370
0
100
AcDbTrace
10
228
20
10
30
0
11
224.5
21
9.41720147912
31
0
12
224.5
22
10.5827985209
32
0
13
224.5
23
10.5827985209
33
0
0
SOLID
5
17F
100
AcDbEntity
8
0
6
CONTINUOUS
62
7
370
0
100
AcDbTrace
10
138
20
10
30
0
11
141.5
21
10.5827985209
31
0
12
141.5
22
9.41720147912
32
0
13
141.5
23
9.41720147912
33
0
0
MTEXT
5
180
100
AcDbEntity
8
0
6
CONTINUOUS
62
7
370
0
100
AcDbMText
10
183
20
13.25
30
0
40
3.5
41
10.8888888889
71
5
72
1
1
90.00
7
standard
210
0
220
0
230
1
50
360
73
2
44
1
0
ENDBLK
5
A5
330
A3
100
AcDbEntity
8
0
100
AcDbBlockEnd
0
BLOCK
5
A7
330
A6
100
AcDbEntity
8
0
100
AcDbBlockBegin
2
*D7
70
1
10
0
20
0
3
*D7
1

0
LINE
5
181
100
AcDbEntity
8
0
6
CONTINUOUS
62
7
370
0
100
AcDbLine
10
-9
20
82
11
-9
21
82
0
LINE
5
182
100
AcDbEntity
8
0
6
CONTINUOUS
62
7
370
0
100
AcDbLine
10
-407
20
82
11
-407
21
82
0
LINE
5
183
100
AcDbEntity
8
0
6
CONTINUOUS
62
7
370
0
100
AcDbLine
10
-10
20
82
11
-408
21
82
0
SOLID
5
184
100
AcDbEntity
8
0
6
CONTINUOUS
62
7
370
0
100
AcDbTrace
10
-10
20
82
30
0
11
-13.5
21
81.4172014791
31
0
12
-13.5
22
82.5827985209
32
0
13
-13.5
23
82.5827985209
33
0
0
SOLID
5
185
100
AcDbEntity
8
0
6
CONTINUOUS
62
7
370
0
100
AcDbTrace
10
-408
20
82
30
0
11
-404.5
21
82.5827985209
31
0
12
-404.5
22
81.4172014791
32
0
13
-404.5
23
81.4172014791
33
0
0
MTEXT
5
186
100
AcDbEntity
8
0
6
CONTINUOUS
62
7
370
0
100
AcDbMText
10
-209
20
85.25
30
0
40
3.5
41
13.6111111111
71
5
72
1
1
398.00
7
standard
210
0
220
0
230
1
50
360
73
2
44
1
0
ENDBLK
5
A8
330
A6
100
AcDbEntity
8
0
100
AcDbBlockEnd
0
BLOCK
5
AA
330
A9
100
AcDbEntity
8
0
100
AcDbBlockBegin
2
*D39
70
1
10
0
20
0
3
*D39
1

0
LINE
5
187
100
AcDbEntity
8
0
6
CONTINUOUS
62
7
370
0
100
AcDbLine
10
229
20
10
11
229
21
10
0
LINE
5
188
100
AcDbEntity
8
0
6
CONTINUOUS
62
7
370
0
100
AcDbLine
10
294
20
10
11
294
21
10
0
LINE
5
189
100
AcDbEntity
8
0
6
CONTINUOUS
62
7
370
0
100
AcDbLine
10
228
20
10
11
293
21
10
0
SOLID
5
18A
100
AcDbEntity
8
0
6
CONTINUOUS
62
7
370
0
100
AcDbTrace
10
228
20
10
30
0
11
231.5
21
10.5827985209
31
0
12
231.5
22
9.41720147912
32
0
13
231.5
23
9.41720147912
33
0
0
SOLID
5
18B
100
AcDbEntity
8
0
6
CONTINUOUS
62
7
370
0
100
AcDbTrace
10
293
20
10
30
0
11
289.5
21
9.41720147912
31
0
12
289.5
22
10.5827985209
32
0
13
289.5
23
10.5827985209
33
0
0
MTEXT
5
18C
100
AcDbEntity
8
0
6
CONTINUOUS
62
7
370
0
100
AcDbMText
10
260.5
20
13.25
30
0
40
3.5
41
10.8888888889
71
5
72
1
1
65.00
7
standard
210
0
220
0
230
1
50
0
73
2
44
1
0
ENDBLK
5
AB
330
A9
100
AcDbEntity
8
0
100
AcDbBlockEnd
0
BLOCK
5
AD
330
AC
100
AcDbEntity
8
0
100
AcDbBlockBegin
2
*D36
70
1
10
0
20
0
3
*D36
1

0
LINE
5
18D
100
AcDbEntity
8
0
6
CONTINUOUS
62
7
370
0
100
AcDbLine
10
-205.4
20
390
11
-205.4
21
390
0
LINE
5
18E
100
AcDbEntity
8
0
6
CONTINUOUS
62
7
370
0
100
AcDbLine
10
-175.4
20
390
11
-175.4
21
390
0
LINE
5
18F
100
AcDbEntity
8
0
6
CONTINUOUS
62
7
370
0
100
AcDbLine
10
-206.4
20
390
11
-176.4
21
390
0
SOLID
5
190
100
AcDbEntity
8
0
6
CONTINUOUS
62
7
370
0
100
AcDbTrace
10
-206.4
20
390
30
0
11
-202.9
21
390.582798521
31
0
12
-202.9
22
389.417201479
32
0
13
-202.9
23
389.417201479
33
0
0
SOLID
5
191
100
AcDbEntity
8
0
6
CONTINUOUS
62
7
370
0
100
AcDbTrace
10
-176.4
20
390
30
0
11
-179.9
21
389.417201479
31
0
12
-179.9
22
390.582798521
32
0
13
-179.9
23
390.582798521
33
0
0
MTEXT
5
192
100
AcDbEntity
8
0
6
CONTINUOUS
62
7
370
0
100
AcDbMText
10
-191.4
20
393.25
30
0
40
3.5
41
10.8888888889
71
5
72
1
1
30.00
7
standard
210
0
220
0
230
1
50
0
73
2
44
1
0
ENDBLK
5
AE
330
AC
100
AcDbEntity
8
0
100
AcDbBlockEnd
0
BLOCK
5
B0
330
AF
100
AcDbEntity
8
0
100
AcDbBlockBegin
2
*D4
70
1
10
0
20
0
3
*D4
1

0
LINE
5
193
100
AcDbEntity
8
0
6
CONTINUOUS
62
7
370
0
100
AcDbLine
10
-409
20
10
11
-421
21
10
0
LINE
5
194
100
AcDbEntity
8
0
6
CONTINUOUS
62
7
370
0
100
AcDbLine
10
-409
20
52
11
-421
21
52
0
LINE
5
195
100
AcDbEntity
8
0
6
CONTINUOUS
62
7
370
0
100
AcDbLine
10
-420
20
10
11
-420
21
52
0
SOLID
5
196
100
AcDbEntity
8
0
6
CONTINUOUS
62
7
370
0
100
AcDbTrace
10
-420
20
10
30
0
11
-420.582798521
21
13.5
31
0
12
-419.417201479
22
13.5
32
0
13
-419.417201479
23
13.5
33
0
0
SOLID
5
197
100
AcDbEntity
8
0
6
CONTINUOUS
62
7
370
0
100
AcDbTrace
10
-420
20
52
30
0
11
-419.417201479
21
48.5
31
0
12
-420.582798521
22
48.5
32
0
13
-420.582798521
23
48.5
33
0
0
MTEXT
5
198
100
AcDbEntity
8
0
6
CONTINUOUS
62
7
370
0
100
AcDbMText
10
-423.25
20
31
30
0
40
3.5
41
11.2777777778
71
5
72
1
1
42.00
7
standard
210
0
220
0
230
1
50
90
73
2
44
1
0
ENDBLK
5
B1
330
AF
100
AcDbEntity
8
0
100
AcDbBlockEnd
0
BLOCK
5
B3
330
B2
100
AcDbEntity
8
0
100
AcDbBlockBegin
2
*D35
70
1
10
0
20
0
3
*D35
1

0
LINE
5
199
100
AcDbEntity
8
0
6
CONTINUOUS
62
7
370
0
100
AcDbLine
10
-209.6
20
381
11
-209.6
21
375
0
LINE
5
19A
100
AcDbEntity
8
0
6
CONTINUOUS
62
7
370
0
100
AcDbLine
10
-206.4
20
381
11
-206.4
21
375
0
LINE
5
19B
100
AcDbEntity
8
0
6
CONTINUOUS
62
7
370
0
100
AcDbLine
10
-216.6
20
376
11
-199.4
21
376
0
SOLID
5
19C
100
AcDbEntity
8
0
6
CONTINUOUS
62
7
370
0
100
AcDbTrace
10
-209.6
20
376
30
0
11
-213.1
21
375.417201479
31
0
12
-213.1
22
376.582798521
32
0
13
-213.1
23
376.582798521
33
0
0
SOLID
5
19D
100
AcDbEntity
8
0
6
CONTINUOUS
62
7
370
0
100
AcDbTrace
10
-206.4
20
376
30
0
11
-202.9
21
376.582798521
31
0
12
-202.9
22
375.417201479
32
0
13
-202.9
23
375.417201479
33
0
0
MTEXT
5
19E
100
AcDbEntity
8
0
6
CONTINUOUS
62
7
370
0
100
AcDbMText
10
-200.816666667
20
379.25
30
0
40
3.5
41
8.16666666667
71
5
72
1
1
3.20
7
standard
210
0
220
0
230
1
50
0
73
2
44
1
0
ENDBLK
5
B4
330
B2
100
AcDbEntity
8
0
100
AcDbBlockEnd
0
BLOCK
5
B6
330
B5
100
AcDbEntity
8
0
100
AcDbBlockBegin
2
*D26
70
1
10
0
20
0
3
*D26
1

0
LINE
5
19F
100
AcDbEntity
8
0
6
CONTINUOUS
62
7
370
0
100
AcDbLine
10
273
20
385
11
273
21
359
0
LINE
5
1A0
100
AcDbEntity
8
0
6
CONTINUOUS
62
7
370
0
100
AcDbLine
10
193
20
385
11
193
21
359
0
LINE
5
1A1
100
AcDbEntity
8
0
6
CONTINUOUS
62
7
370
0
100
AcDbLine
10
273
20
360
11
193
21
360
0
SOLID
5
1A2
100
AcDbEntity
8
0
6
CONTINUOUS
62
7
370
0
100
AcDbTrace
10
273
20
360
30
0
11
269.5
21
359.417201479
31
0
12
269.5
22
360.582798521
32
0
13
269.5
23
360.582798521
33
0
0
SOLID
5
1A3
100
AcDbEntity
8
0
6
CONTINUOUS
62
7
370
0
100
AcDbTrace
10
193
20
360
30
0
11
196.5
21
360.582798521
31
0
12
196.5
22
359.417201479
32
0
13
196.5
23
359.417201479
33
0
0
MTEXT
5
1A4
100
AcDbEntity
8
0
6
CONTINUOUS
62
7
370
0
100
AcDbMText
10
233
20
363.25
30
0
40
3.5
41
10.8888888889
71
5
72
1
1
80.00
7
standard
210
0
220
0
230
1
50
360
73
2
44
1
0
ENDBLK
5
B7
330
B5
100
AcDbEntity
8
0
100
AcDbBlockEnd
0
BLOCK
5
B9
330
B8
100
AcDbEntity
8
0
100
AcDbBlockBegin
2
*D18
70
1
10
0
20
0
3
*D18
1

0
LINE
5
1A5
100
AcDbEntity
8
0
6
CONTINUOUS
62
7
370
0
100
AcDbLine
10
-409
20
10
11
-451
21
10
0
LINE
5
1A6
100
AcDbEntity
8
0
6
CONTINUOUS
62
7
370
0
100
AcDbLine
10
-409
20
407
11
-451
21
407
0
LINE
5
1A7
100
AcDbEntity
8
0
6
CONTINUOUS
62
7
370
0
100
AcDbLine
10
-450
20
10
11
-450
21
407
0
SOLID
5
1A8
100
AcDbEntity
8
0
6
CONTINUOUS
62
7
370
0
100
AcDbTrace
10
-450
20
10
30
0
11
-450.582798521
21
13.5
31
0
12
-449.417201479
22
13.5
32
0
13
-449.417201479
23
13.5
33
0
0
SOLID
5
1A9
100
AcDbEntity
8
0
6
CONTINUOUS
62
7
370
0
100
AcDbTrace
10
-450
20
407
30
0
11
-449.417201479
21
403.5
31
0
12
-450.582798521
22
403.5
32
0
13
-450.582798521
23
403.5
33
0
0
MTEXT
5
1AA
100
AcDbEntity
8
0
6
CONTINUOUS
62
7
370
0
100
AcDbMText
10
-453.25
20
208.5
30
0
40
3.5
41
13.6111111111
71
5
72
1
1
397.00
7
standard
210
0
220
0
230
1
50
90
73
2
44
1
0
ENDBLK
5
BA
330
B8
100
AcDbEntity
8
0
100
AcDbBlockEnd
0
BLOCK
5
BC
330
BB
100
AcDbEntity
8
0
100
AcDbBlockBegin
2
*D2
70
1
10
0
20
0
3
*D2
1

0
LINE
5
1AB
100
AcDbEntity
8
0
6
CONTINUOUS
62
7
370
0
100
AcDbLine
10
-10
20
9
11
-10
21
-31
0
LINE
5
1AC
100
AcDbEntity
8
0
6
CONTINUOUS
62
7
370
0
100
AcDbLine
10
-368
20
9
11
-368
21
-31
0
LINE
5
1AD
100
AcDbEntity
8
0
6
CONTINUOUS
62
7
370
0
100
AcDbLine
10
-10
20
-30
11
-368
21
-30
0
SOLID
5
1AE
100
AcDbEntity
8
0
6
CONTINUOUS
62
7
370
0
100
AcDbTrace
10
-10
20
-30
30
0
11
-13.5
21
-30.5827985209
31
0
12
-13.5
22
-29.4172014791
32
0
13
-13.5
23
-29.4172014791
33
0
0
SOLID
5
1AF
100
AcDbEntity
8
0
6
CONTINUOUS
62
7
370
0
100
AcDbTrace
10
-368
20
-30
30
0
11
-364.5
21
-29.4172014791
31
0
12
-364.5
22
-30.5827985209
32
0
13
-364.5
23
-30.5827985209
33
0
0
MTEXT
5
1B0
100
AcDbEntity
8
0
6
CONTINUOUS
62
7
370
0
100
AcDbMText
10
-189
20
-26.75
30
0
40
3.5
41
13.6111111111
71
5
72
1
1
358.00
7
standard
210
0
220
0
230
1
50
360
73
2
44
1
0
ENDBLK
5
BD
330
BB
100
AcDbEntity
8
0
100
AcDbBlockEnd
0
BLOCK
5
BF
330
BE
100
AcDbEntity
8
0
100
AcDbBlockBegin
2
*D1
70
1
10
0
20
0
3
*D1
1

0
LINE
5
1B1
100
AcDbEntity
8
0
6
CONTINUOUS
62
7
370
0
100
AcDbLine
10
-10
20
9
11
-10
21
-11
0
LINE
5
1B2
100
AcDbEntity
8
0
6
CONTINUOUS
62
7
370
0
100
AcDbLine
10
-50
20
9
11
-50
21
-11
0
LINE
5
1B3
100
AcDbEntity
8
0
6
CONTINUOUS
62
7
370
0
100
AcDbLine
10
-10
20
-10
11
-50
21
-10
0
SOLID
5
1B4
100
AcDbEntity
8
0
6
CONTINUOUS
62
7
370
0
100
AcDbTrace
10
-10
20
-10
30
0
11
-13.5
21
-10.5827985209
31
0
12
-13.5
22
-9.41720147912
32
0
13
-13.5
23
-9.41720147912
33
0
0
SOLID
5
1B5
100
AcDbEntity
8
0
6
CONTINUOUS
62
7
370
0
100
AcDbTrace
10
-50
20
-10
30
0
11
-46.5
21
-9.41720147912
31
0
12
-46.5
22
-10.5827985209
32
0
13
-46.5
23
-10.5827985209
33
0
0
MTEXT
5
1B6
100
AcDbEntity
8
0
6
CONTINUOUS
62
7
370
0
100
AcDbMText
10
-30
20
-6.75
30
0
40
3.5
41
11.2777777778
71
5
72
1
1
40.00
7
standard
210
0
220
0
230
1
50
360
73
2
44
1
0
ENDBLK
5
C0
330
BE
100
AcDbEntity
8
0
100
AcDbBlockEnd
0
BLOCK
5
C2
330
C1
100
AcDbEntity
8
0
100
AcDbBlockBegin
2
*D5
70
1
10
0
20
0
3
*D5
1

0
LINE
5
1B7
100
AcDbEntity
8
0
6
CONTINUOUS
62
7
370
0
100
AcDbLine
10
-409
20
10
11
-431
21
10
0
LINE
5
1B8
100
AcDbEntity
8
0
6
CONTINUOUS
62
7
370
0
100
AcDbLine
10
-409
20
209
11
-431
21
209
0
LINE
5
1B9
100
AcDbEntity
8
0
6
CONTINUOUS
62
7
370
0
100
AcDbLine
10
-430
20
10
11
-430
21
209
0
SOLID
5
1BA
100
AcDbEntity
8
0
6
CONTINUOUS
62
7
370
0
100
AcDbTrace
10
-430
20
10
30
0
11
-430.582798521
21
13.5
31
0
12
-429.417201479
22
13.5
32
0
13
-429.417201479
23
13.5
33
0
0
SOLID
5
1BB
100
AcDbEntity
8
0
6
CONTINUOUS
62
7
370
0
100
AcDbTrace
10
-430
20
209
30
0
11
-429.417201479
21
205.5
31
0
12
-430.582798521
22
205.5
32
0
13
-430.582798521
23
205.5
33
0
0
MTEXT
5
1BC
100
AcDbEntity
8
0
6
CONTINUOUS
62
7
370
0
100
AcDbMText
10
-433.25
20
109.5
30
0
40
3.5
41
12.8333333333
71
5
72
1
1
199.00
7
standard
210
0
220
0
230
1
50
90
73
2
44
1
0
ENDBLK
5
C3
330
C1
100
AcDbEntity
8
0
100
AcDbBlockEnd
0
BLOCK
5
C5
330
C4
100
AcDbEntity
8
0
100
AcDbBlockBegin
2
*D23
70
1
10
0
20
0
3
*D23
1

0
LINE
5
1BD
100
AcDbEntity
8
0
6
CONTINUOUS
62
7
370
0
100
AcDbLine
10
194
20
407
11
194
21
407
0
LINE
5
1BE
100
AcDbEntity
8
0
6
CONTINUOUS
62
7
370
0
100
AcDbLine
10
194
20
386
11
194
21
386
0
LINE
5
1BF
100
AcDbEntity
8
0
6
CONTINUOUS
62
7
370
0
100
AcDbLine
10
193
20
407
11
193
21
386
0
SOLID
5
1C0
100
AcDbEntity
8
0
6
CONTINUOUS
62
7
370
0
100
AcDbTrace
10
193
20
407
30
0
11
193.582798521
21
403.5
31
0
12
192.417201479
22
403.5
32
0
13
192.417201479
23
403.5
33
0
0
SOLID
5
1C1
100
AcDbEntity
8
0
6
CONTINUOUS
62
7
370
0
100
AcDbTrace
10
193
20
386
30
0
11
192.417201479
21
389.5
31
0
12
193.582798521
22
389.5
32
0
13
193.582798521
23
389.5
33
0
0
MTEXT
5
1C2
100
AcDbEntity
8
0
6
CONTINUOUS
62
7
370
0
100
AcDbMText
10
189.75
20
396.5
30
0
40
3.5
41
10.1111111111
71
5
72
1
1
21.00
7
standard
210
0
220
0
230
1
50
90
73
2
44
1
0
ENDBLK
5
C6
330
C4
100
AcDbEntity
8
0
100
AcDbBlockEnd
0
BLOCK
5
C8
330
C7
100
AcDbEntity
8
0
100
AcDbBlockBegin
2
*D16
70
1
10
0
20
0
3
*D16
1

0
LINE
5
1C3
100
AcDbEntity
8
0
6
CONTINUOUS
62
7
370
0
100
AcDbLine
10
409
20
407
11
431
21
407
0
LINE
5
1C4
100
AcDbEntity
8
0
6
CONTINUOUS
62
7
370
0
100
AcDbLine
10
409
20
349
11
431
21
349
0
LINE
5
1C5
100
AcDbEntity
8
0
6
CONTINUOUS
62
7
370
0
100
AcDbLine
10
430
20
407
11
430
21
349
0
SOLID
5
1C6
100
AcDbEntity
8
0
6
CONTINUOUS
62
7
370
0
100
AcDbTrace
10
430
20
407
30
0
11
430.582798521
21
403.5
31
0
12
429.417201479
22
403.5
32
0
13
429.417201479
23
403.5
33
0
0
SOLID
5
1C7
100
AcDbEntity
8
0
6
CONTINUOUS
62
7
370
0
100
AcDbTrace
10
430
20
349
30
0
11
429.417201479
21
352.5
31
0
12
430.582798521
22
352.5
32
0
13
430.582798521
23
352.5
33
0
0
MTEXT
5
1C8
100
AcDbEntity
8
0
6
CONTINUOUS
62
7
370
0
100
AcDbMText
10
426.75
20
378
30
0
40
3.5
41
10.8888888889
71
5
72
1
1
58.00
7
standard
210
0
220
0
230
1
50
90
73
2
44
1
0
ENDBLK
5
C9
330
C7
100
AcDbEntity
8
0
100
AcDbBlockEnd
0
BLOCK
5
CB
330
CA
100
AcDbEntity
8
0
100
AcDbBlockBegin
2
*D22
70
1
10
0
20
0
3
*D22
1

0
LINE
5
1C9
100
AcDbEntity
8
0
6
CONTINUOUS
62
7
370
0
100
AcDbLine
10
10
20
408
11
10
21
431
0
LINE
5
1CA
100
AcDbEntity
8
0
6
CONTINUOUS
62
7
370
0
100
AcDbLine
10
258
20
408
11
258
21
431
0
LINE
5
1CB
100
AcDbEntity
8
0
6
CONTINUOUS
62
7
370
0
100
AcDbLine
10
10
20
430
11
258
21
430
0
SOLID
5
1CC
100
AcDbEntity
8
0
6
CONTINUOUS
62
7
370
0
100
AcDbTrace
10
10
20
430
30
0
11
13.5
21
430.582798521
31
0
12
13.5
22
429.417201479
32
0
13
13.5
23
429.417201479
33
0
0
SOLID
5
1CD
100
AcDbEntity
8
0
6
CONTINUOUS
62
7
370
0
100
AcDbTrace
10
258
20
430
30
0
11
254.5
21
429.417201479
31
0
12
254.5
22
430.582798521
32
0
13
254.5
23
430.582798521
33
0
0
MTEXT
5
1CE
100
AcDbEntity
8
0
6
CONTINUOUS
62
7
370
0
100
AcDbMText
10
134
20
433.25
30
0
40
3.5
41
14
71
5
72
1
1
248.00
7
standard
210
0
220
0
230
1
50
0
73
2
44
1
0
ENDBLK
5
CC
330
CA
100
AcDbEntity
8
0
100
AcDbBlockEnd
0
BLOCK
5
CE
330
CD
100
AcDbEntity
8
0
100
AcDbBlockBegin
2
*D33
70
1
10
0
20
0
3
*D33
1

0
LINE
5
1CF
100
AcDbEntity
8
0
6
CONTINUOUS
62
7
370
0
100
AcDbLine
10
408
20
406
11
408
21
389
0
LINE
5
1D0
100
AcDbEntity
8
0
6
CONTINUOUS
62
7
370
0
100
AcDbLine
10
311
20
406
11
311
21
389
0
LINE
5
1D1
100
AcDbEntity
8
0
6
CONTINUOUS
62
7
370
0
100
AcDbLine
10
408
20
390
11
311
21
390
0
SOLID
5
1D2
100
AcDbEntity
8
0
6
CONTINUOUS
62
7
370
0
100
AcDbTrace
10
408
20
390
30
0
11
404.5
21
389.417201479
31
0
12
404.5
22
390.582798521
32
0
13
404.5
23
390.582798521
33
0
0
SOLID
5
1D3
100
AcDbEntity
8
0
6
CONTINUOUS
62
7
370
0
100
AcDbTrace
10
311
20
390
30
0
11
314.5
21
390.582798521
31
0
12
314.5
22
389.417201479
32
0
13
314.5
23
389.417201479
33
0
0
MTEXT
5
1D4
100
AcDbEntity
8
0
6
CONTINUOUS
62
7
370
0
100
AcDbMText
10
359.5
20
393.25
30
0
40
3.5
41
10.8888888889
71
5
72
1
1
97.00
7
standard
210
0
220
0
230
1
50
360
73
2
44
1
0
ENDBLK
5
CF
330
CD
100
AcDbEntity
8
0
100
AcDbBlockEnd
0
BLOCK
5
D1
330
D0
100
AcDbEntity
8
0
100
AcDbBlockBegin
2
GENAXEH
70
0
10
0
20
0
3
GENAXEH
1

0
LINE
5
1D5
100
AcDbEntity
8
0
6
ByLayer
62
256
370
-1
100
AcDbLine
10
-1
20
0
11
1
21
0
0
ENDBLK
5
D2
330
D0
100
AcDbEntity
8
0
100
AcDbBlockEnd
0
ENDSEC
0
SECTION
2
ENTITIES
0
TEXT
5
1D6
100
AcDbEntity
8
GRAVIRANJE
6
ByLayer
62
256
370
-1
100
AcDbText
10
-352.99508375
20
64.2818650776
30
0
40
5
1
X-min.
50
360
41
1
51
0
7
standard
71
0
210
0
220
0
230
1
100
AcDbText
0
TEXT
5
1D7
100
AcDbEntity
8
GRAVIRANJE
6
ByLayer
62
256
370
-1
100
AcDbText
10
-353.409659297
20
74.3449276921
30
0
40
5
1
Y-min.
50
360
41
1
51
0
7
standard
71
0
210
0
220
0
230
1
100
AcDbText
0
POINT
5
1D8
100
AcDbEntity
8
0
6
ByLayer
62
256
370
-1
100
AcDbPoint
10
-50
20
10
0
POINT
5
1D9
100
AcDbEntity
8
0
6
ByLayer
62
256
370
-1
100
AcDbPoint
10
-368
20
10
0
DIMENSION
5
1DA
100
AcDbEntity
8
0
6
ByLayer
62
256
370
-1
100
AcDbDimension
2
*D1
10
-50
20
-10
30
0
11
-30
21
-6.75
31
0
70
33
71
5
72
0
3
Standard
53
0
210
0
220
0
230
1
100
AcDbAlignedDimension
13
-10
23
10
33
0
14
-50
24
10
34
0
0
DIMENSION
5
1DB
100
AcDbEntity
8
0
6
ByLayer
62
256
370
-1
100
AcDbDimension
2
*D2
10
-368
20
-30
30
0
11
-189
21
-26.75
31
0
70
33
71
5
72
0
3
Standard
53
0
210
0
220
0
230
1
100
AcDbAlignedDimension
13
-10
23
10
33
0
14
-368
24
10
34
0
0
DIMENSION
5
1DC
100
AcDbEntity
8
0
6
ByLayer
62
256
370
-1
100
AcDbDimension
2
*D3
10
-380
20
407
30
0
11
-376.75
21
208.5
31
0
70
33
71
5
72
0
3
Standard
53
0
210
0
220
0
230
1
100
AcDbAlignedDimension
13
-380
23
10
33
0
14
-380
24
407
34
0
0
POINT
5
1DD
100
AcDbEntity
8
0
6
ByLayer
62
256
370
-1
100
AcDbPoint
10
-50
20
407
0
POINT
5
1DE
100
AcDbEntity
8
0
6
ByLayer
62
256
370
-1
100
AcDbPoint
10
-368
20
407
0
POINT
5
1DF
100
AcDbEntity
8
0
6
ByLayer
62
256
370
-1
100
AcDbPoint
10
10
20
209
0
POINT
5
1E0
100
AcDbEntity
8
0
6
ByLayer
62
256
370
-1
100
AcDbPoint
10
10
20
349
0
POINT
5
1E1
100
AcDbEntity
8
0
6
ByLayer
62
256
370
-1
100
AcDbPoint
10
10
20
69
0
POINT
5
1E2
100
AcDbEntity
8
0
6
ByLayer
62
256
370
-1
100
AcDbPoint
10
408
20
209
0
POINT
5
1E3
100
AcDbEntity
8
0
6
ByLayer
62
256
370
-1
100
AcDbPoint
10
408
20
349
0
POINT
5
1E4
100
AcDbEntity
8
0
6
ByLayer
62
256
370
-1
100
AcDbPoint
10
408
20
69
0
POINT
5
1E5
100
AcDbEntity
8
0
6
ByLayer
62
256
370
-1
100
AcDbPoint
10
-408
20
10
0
POINT
5
1E6
100
AcDbEntity
8
0
6
ByLayer
62
256
370
-1
100
AcDbPoint
10
-10
20
365
0
POINT
5
1E7
100
AcDbEntity
8
0
6
ByLayer
62
256
370
-1
100
AcDbPoint
10
-10
20
209
0
POINT
5
1E8
100
AcDbEntity
8
0
6
ByLayer
62
256
370
-1
100
AcDbPoint
10
-10
20
52
0
POINT
5
1E9
100
AcDbEntity
8
0
6
ByLayer
62
256
370
-1
100
AcDbPoint
10
-408
20
365
0
POINT
5
1EA
100
AcDbEntity
8
0
6
ByLayer
62
256
370
-1
100
AcDbPoint
10
-408
20
209
0
POINT
5
1EB
100
AcDbEntity
8
0
6
ByLayer
62
256
370
-1
100
AcDbPoint
10
-408
20
52
0
DIMENSION
5
1EC
100
AcDbEntity
8
0
6
ByLayer
62
256
370
-1
100
AcDbDimension
2
*D4
10
-420
20
52
30
0
11
-423.25
21
31
31
0
70
33
71
5
72
0
3
Standard
53
0
210
0
220
0
230
1
100
AcDbAlignedDimension
13
-408
23
10
33
0
14
-408
24
52
34
0
0
DIMENSION
5
1ED
100
AcDbEntity
8
0
6
ByLayer
62
256
370
-1
100
AcDbDimension
2
*D5
10
-430
20
209
30
0
11
-433.25
21
109.5
31
0
70
33
71
5
72
0
3
Standard
53
0
210
0
220
0
230
1
100
AcDbAlignedDimension
13
-408
23
10
33
0
14
-408
24
209
34
0
0
DIMENSION
5
1EE
100
AcDbEntity
8
0
6
ByLayer
62
256
370
-1
100
AcDbDimension
2
*D6
10
-440
20
365
30
0
11
-443.25
21
187.5
31
0
70
33
71
5
72
0
3
Standard
53
0
210
0
220
0
230
1
100
AcDbAlignedDimension
13
-408
23
10
33
0
14
-408
24
365
34
0
0
POINT
5
1EF
100
AcDbEntity
8
0
6
ByLayer
62
256
370
-1
100
AcDbPoint
10
-10
20
407
0
POINT
5
1F0
100
AcDbEntity
8
0
6
ByLayer
62
256
370
-1
100
AcDbPoint
10
-408
20
407
0
POINT
5
1F1
100
AcDbEntity
8
0
6
ByLayer
62
256
370
-1
100
AcDbPoint
10
-10
20
10
0
POINT
5
1F2
100
AcDbEntity
8
0
6
ByLayer
62
256
370
-1
100
AcDbPoint
10
408
20
10
0
POINT
5
1F3
100
AcDbEntity
8
0
6
ByLayer
62
256
370
-1
100
AcDbPoint
10
10
20
407
0
POINT
5
1F4
100
AcDbEntity
8
0
6
ByLayer
62
256
370
-1
100
AcDbPoint
10
408
20
407
0
POINT
5
1F5
100
AcDbEntity
8
0
6
ByLayer
62
256
370
-1
100
AcDbPoint
10
10
20
10
0
DIMENSION
5
1F6
100
AcDbEntity
8
0
6
ByLayer
62
256
370
-1
100
AcDbDimension
2
*D7
10
-408
20
82
30
0
11
-209
21
85.25
31
0
70
33
71
5
72
0
3
Standard
53
0
210
0
220
0
230
1
100
AcDbAlignedDimension
13
-10
23
82
33
0
14
-408
24
82
34
0
0
DIMENSION
5
1F7
100
AcDbEntity
8
0
6
ByLayer
62
256
370
-1
100
AcDbDimension
2
*D8
10
420
20
69
30
0
11
416.75
21
39.5
31
0
70
33
71
5
72
0
3
Standard
53
0
210
0
220
0
230
1
100
AcDbAlignedDimension
13
408
23
10
33
0
14
408
24
69
34
0
0
DIMENSION
5
1F8
100
AcDbEntity
8
0
6
ByLayer
62
256
370
-1
100
AcDbDimension
2
*D9
10
430
20
209
30
0
11
426.75
21
109.5
31
0
70
33
71
5
72
0
3
Standard
53
0
210
0
220
0
230
1
100
AcDbAlignedDimension
13
408
23
10
33
0
14
408
24
209
34
0
0
DIMENSION
5
1F9
100
AcDbEntity
8
0
6
ByLayer
62
256
370
-1
100
AcDbDimension
2
*D10
10
440
20
349
30
0
11
436.75
21
179.5
31
0
70
33
71
5
72
0
3
Standard
53
0
210
0
220
0
230
1
100
AcDbAlignedDimension
13
408
23
10
33
0
14
408
24
349
34
0
0
POINT
5
1FA
100
AcDbEntity
8
0
6
ByLayer
62
256
370
-1
100
AcDbPoint
10
90
20
10
0
DIMENSION
5
1FB
100
AcDbEntity
8
0
6
ByLayer
62
256
370
-1
100
AcDbDimension
2
*D11
10
90
20
-10
30
0
11
50
21
-6.75
31
0
70
33
71
5
72
0
3
Standard
53
0
210
0
220
0
230
1
100
AcDbAlignedDimension
13
10
23
10
33
0
14
90
24
10
34
0
0
POINT
5
1FC
100
AcDbEntity
8
0
6
ByLayer
62
256
370
-1
100
AcDbPoint
10
90
20
407
0
POINT
5
1FD
100
AcDbEntity
8
0
6
ByLayer
62
256
370
-1
100
AcDbPoint
10
-273
20
386
0
POINT
5
1FE
100
AcDbEntity
8
0
6
ByLayer
62
256
370
-1
100
AcDbPoint
10
-113
20
386
0
POINT
5
1FF
100
AcDbEntity
8
0
6
ByLayer
62
256
370
-1
100
AcDbPoint
10
-193
20
386
0
DIMENSION
5
200
100
AcDbEntity
8
0
6
ByLayer
62
256
370
-1
100
AcDbDimension
2
*D12
10
-278.775
20
407
30
0
11
-282.025
21
396.5
31
0
70
33
71
5
72
0
3
Standard
53
0
210
0
220
0
230
1
100
AcDbAlignedDimension
13
-273
23
386
33
0
14
-273
24
407
34
0
0
CIRCLE
5
201
100
AcDbEntity
8
HOLES
6
ByLayer
62
256
370
-1
100
AcDbCircle
10
-258
20
386
40
1.6
0
CIRCLE
5
202
100
AcDbEntity
8
HOLES
6
ByLayer
62
256
370
-1
100
AcDbCircle
10
-288
20
386
40
1.6
0
CIRCLE
5
203
100
AcDbEntity
8
HOLES
6
ByLayer
62
256
370
-1
100
AcDbCircle
10
-98
20
386
40
1.6
0
CIRCLE
5
204
100
AcDbEntity
8
HOLES
6
ByLayer
62
256
370
-1
100
AcDbCircle
10
-128
20
386
40
1.6
0
LWPOLYLINE
5
205
100
AcDbEntity
8
HOLES
6
ByLayer
62
256
370
-1
100
AcDbPolyline
90
4
70
1
43
0
10
-209.6
20
382
42
1
10
-206.4
20
382
10
-206.4
20
390
42
1
10
-209.6
20
390
0
LWPOLYLINE
5
206
100
AcDbEntity
8
HOLES
6
ByLayer
62
256
370
-1
100
AcDbPolyline
90
4
70
1
43
0
10
-187.95
20
390
10
-187.95
20
382
42
-1
10
-198.05
20
382
10
-198.05
20
390
42
-1
0
LWPOLYLINE
5
207
100
AcDbEntity
8
HOLES
6
ByLayer
62
256
370
-1
100
AcDbPolyline
90
4
70
1
43
0
10
-179.6
20
382
42
1
10
-176.4
20
382
10
-176.4
20
390
42
1
10
-179.6
20
390
0
POINT
5
208
100
AcDbEntity
8
0
6
ByLayer
62
256
370
-1
100
AcDbPoint
10
273
20
386
0
POINT
5
209
100
AcDbEntity
8
0
6
ByLayer
62
256
370
-1
100
AcDbPoint
10
113
20
386
0
POINT
5
20A
100
AcDbEntity
8
0
6
ByLayer
62
256
370
-1
100
AcDbPoint
10
193
20
386
0
CIRCLE
5
20B
100
AcDbEntity
8
HOLES
6
ByLayer
62
256
370
-1
100
AcDbCircle
10
128
20
386
40
1.6
0
CIRCLE
5
20C
100
AcDbEntity
8
HOLES
6
ByLayer
62
256
370
-1
100
AcDbCircle
10
98
20
386
40
1.6
0
CIRCLE
5
20D
100
AcDbEntity
8
HOLES
6
ByLayer
62
256
370
-1
100
AcDbCircle
10
288
20
386
40
1.6
0
CIRCLE
5
20E
100
AcDbEntity
8
HOLES
6
ByLayer
62
256
370
-1
100
AcDbCircle
10
258
20
386
40
1.6
0
CIRCLE
5
20F
100
AcDbEntity
8
HOLES
6
ByLayer
62
256
370
-1
100
AcDbCircle
10
208.5
20
401.5
40
1.6
0
CIRCLE
5
210
100
AcDbEntity
8
HOLES
6
ByLayer
62
256
370
-1
100
AcDbCircle
10
177.5
20
401.5
40
1.6
0
CIRCLE
5
211
100
AcDbEntity
8
HOLES
6
ByLayer
62
256
370
-1
100
AcDbCircle
10
177.5
20
370.5
40
1.6
0
CIRCLE
5
212
100
AcDbEntity
8
HOLES
6
ByLayer
62
256
370
-1
100
AcDbCircle
10
208.5
20
370.5
40
1.6
0
POINT
5
213
100
AcDbEntity
8
0
6
ByLayer
62
256
370
-1
100
AcDbPoint
10
-209
20
10
0
POINT
5
214
100
AcDbEntity
8
0
6
ByLayer
62
256
370
-1
100
AcDbPoint
10
-209
20
407
0
DIMENSION
5
215
100
AcDbEntity
8
0
6
ByLayer
62
256
370
-1
100
AcDbDimension
2
*D13
10
-209
20
-19.85
30
0
11
-109.5
21
-16.6
31
0
70
33
71
5
72
0
3
Standard
53
0
210
0
220
0
230
1
100
AcDbAlignedDimension
13
-10
23
10
33
0
14
-209
24
10
34
0
0
DIMENSION
5
216
100
AcDbEntity
8
0
6
ByLayer
62
256
370
-1
100
AcDbDimension
2
*D14
10
10
20
44
30
0
11
209
21
47.25
31
0
70
33
71
5
3
Standard
53
0
210
0
220
0
230
1
100
AcDbAlignedDimension
13
408
23
49
33
0
14
10
24
49
34
0
0
DIMENSION
5
217
100
AcDbEntity
8
0
6
ByLayer
62
256
370
-1
100
AcDbDimension
2
*D15
10
90
20
420
30
0
11
50
21
423.25
31
0
70
33
71
5
3
Standard
53
0
210
0
220
0
230
1
100
AcDbAlignedDimension
13
10
23
407
33
0
14
90
24
407
34
0
0
DIMENSION
5
218
100
AcDbEntity
8
0
6
ByLayer
62
256
370
-1
100
AcDbDimension
2
*D16
10
430
20
349
30
0
11
426.75
21
378
31
0
70
33
71
5
3
Standard
53
0
210
0
220
0
230
1
100
AcDbAlignedDimension
13
408
23
407
33
0
14
408
24
349
34
0
0
DIMENSION
5
219
100
AcDbEntity
8
0
6
ByLayer
62
256
370
-1
100
AcDbDimension
2
*D17
10
-408
20
-40
30
0
11
-209
21
-36.75
31
0
70
33
71
5
3
Standard
53
0
210
0
220
0
230
1
100
AcDbAlignedDimension
13
-10
23
10
33
0
14
-408
24
10
34
0
0
DIMENSION
5
21A
100
AcDbEntity
8
0
6
ByLayer
62
256
370
-1
100
AcDbDimension
2
*D18
10
-450
20
407
30
0
11
-453.25
21
208.5
31
0
70
33
71
5
3
Standard
53
0
210
0
220
0
230
1
100
AcDbAlignedDimension
13
-408
23
10
33
0
14
-408
24
407
34
0
0
DIMENSION
5
21B
100
AcDbEntity
8
0
6
ByLayer
62
256
370
-1
100
AcDbDimension
2
*D19
10
-420
20
407
30
0
11
-423.25
21
386
31
0
70
33
71
5
3
Standard
53
0
210
0
220
0
230
1
100
AcDbAlignedDimension
13
-408
23
365
33
0
14
-408
24
407
34
0
0
DIMENSION
5
21C
100
AcDbEntity
8
0
6
ByLayer
62
256
370
-1
100
AcDbDimension
2
*D20
10
408
20
450
30
0
11
209
21
453.25
31
0
70
33
71
5
3
Standard
53
0
210
0
220
0
230
1
100
AcDbAlignedDimension
13
10
23
407
33
0
14
408
24
407
34
0
0
SPLINE
5
21D
100
AcDbEntity
8
IZREZ
6
ByLayer
62
256
370
-1
100
AcDbSpline
210
0
220
0
230
1
70
11
71
3
72
29
73
25
74
0
42
1e-007
43
1e-007
40
0
40
0
40
0
40
0
40
0.0454545454545
40
0.0909090909091
40
0.136363636364
40
0.181818181818
40
0.227272727273
40
0.272727272727
40
0.318181818182
40
0.363636363636
40
0.409090909091
40
0.454545454545
40
0.5
40
0.545454545455
40
0.590909090909
40
0.636363636364
40
0.681818181818
40
0.727272727273
40
0.772727272727
40
0.818181818182
40
0.863636363636
40
0.909090909091
40
0.954545454545
40
1
40
1
40
1
40
1
10
-322.331177017
20
53.7109341791
30
0
10
-236.220821351
20
53.7109341791
30
0
10
-150.110465684
20
53.7109341791
30
0
10
-64.0001100175
20
53.7109341791
30
0
10
-60.7002260175
20
53.7109341791
30
0
10
-58.0004040175
20
56.4125061791
30
0
10
-58.0004040175
20
59.7127281791
30
0
10
-58.0004040175
20
145.796042179
30
0
10
-58.0004040175
20
231.879356179
30
0
10
-58.0004040175
20
317.962670179
30
0
10
-58.0004040175
20
321.262892179
30
0
10
-60.7016370175
20
323.962715179
30
0
10
-64.0015210175
20
323.962715179
30
0
10
-150.111876684
20
323.962715179
30
0
10
-236.222232351
20
323.962715179
30
0
10
-322.332588017
20
323.962715179
30
0
10
-325.632838017
20
323.962715179
30
0
10
-328.332632017
20
321.261142179
30
0
10
-328.332632017
20
317.961626179
30
0
10
-328.332632017
20
231.878076846
30
0
10
-328.332632017
20
145.794527512
30
0
10
-328.332632017
20
59.7109781791
30
0
10
-328.332632017
20
56.4110951791
30
0
10
-325.631060017
20
53.7109341791
30
0
10
-322.331177017
20
53.7109341791
30
0
0
CIRCLE
5
21E
100
AcDbEntity
8
HOLES
6
ByLayer
62
256
370
-1
100
AcDbCircle
10
-333.332632017
20
84.7109781791
40
1.5
0
CIRCLE
5
21F
100
AcDbEntity
8
HOLES
6
ByLayer
62
256
370
-1
100
AcDbCircle
10
-297.331177017
20
48.7109341791
40
1.5
0
CIRCLE
5
220
100
AcDbEntity
8
HOLES
6
ByLayer
62
256
370
-1
100
AcDbCircle
10
-333.332632017
20
292.961626179
40
1.5
0
CIRCLE
5
221
100
AcDbEntity
8
HOLES
6
ByLayer
62
256
370
-1
100
AcDbCircle
10
-297.332588017
20
328.962715179
40
1.5
0
CIRCLE
5
222
100
AcDbEntity
8
HOLES
6
ByLayer
62
256
370
-1
100
AcDbCircle
10
-89.0001100175
20
48.7109341791
40
1.5
0
CIRCLE
5
223
100
AcDbEntity
8
HOLES
6
ByLayer
62
256
370
-1
100
AcDbCircle
10
-53.0004040175
20
84.7127281791
40
1.5
0
CIRCLE
5
224
100
AcDbEntity
8
HOLES
6
ByLayer
62
256
370
-1
100
AcDbCircle
10
-53.0004040175
20
292.962670179
40
1.5
0
CIRCLE
5
225
100
AcDbEntity
8
HOLES
6
ByLayer
62
256
370
-1
100
AcDbCircle
10
-89.0015210175
20
328.962715179
40
1.5
0
CIRCLE
5
226
100
AcDbEntity
8
HOLES
6
ByLayer
62
256
370
-1
100
AcDbCircle
10
-333.332632017
20
188.836302179
40
1.5
0
CIRCLE
5
227
100
AcDbEntity
8
HOLES
6
ByLayer
62
256
370
-1
100
AcDbCircle
10
-193.167054517
20
328.962715179
40
1.5
0
CIRCLE
5
228
100
AcDbEntity
8
HOLES
6
ByLayer
62
256
370
-1
100
AcDbCircle
10
-53.0004040175
20
188.837699179
40
1.5
0
CIRCLE
5
229
100
AcDbEntity
8
HOLES
6
ByLayer
62
256
370
-1
100
AcDbCircle
10
-193.165643517
20
48.7109341791
40
1.5
0
TEXT
5
22A
100
AcDbEntity
8
GRAVIRANJE
6
ByLayer
62
256
370
-1
100
AcDbText
10
-353.24479679
20
313.982340696
30
0
40
5
1
Y-max.
50
360
41
1
51
0
7
standard
71
0
210
0
220
0
230
1
100
AcDbText
0
TEXT
5
22B
100
AcDbEntity
8
GRAVIRANJE
6
ByLayer
62
256
370
-1
100
AcDbText
10
-241.235745847
20
329.683683456
30
0
40
5
1
Z-min.
50
360
41
1
51
0
7
standard
71
0
210
0
220
0
230
1
100
AcDbText
0
CIRCLE
5
22C
100
AcDbEntity
8
HOLES
6
ByLayer
62
256
370
-1
100
AcDbCircle
10
-273
20
386
40
6
0
CIRCLE
5
22D
100
AcDbEntity
8
HOLES
6
ByLayer
62
256
370
-1
100
AcDbCircle
10
-113
20
386
40
6
0
CIRCLE
5
22E
100
AcDbEntity
8
HOLES
6
ByLayer
62
256
370
-1
100
AcDbCircle
10
273
20
386
40
6
0
POINT
5
22F
100
AcDbEntity
8
0
6
ByLayer
62
256
370
-1
100
AcDbPoint
10
328
20
10
0
DIMENSION
5
230
100
AcDbEntity
8
0
6
ByLayer
62
256
370
-1
100
AcDbDimension
2
*D21
10
328
20
-10
30
0
11
368
21
-6.75
31
0
70
33
71
5
72
0
3
Standard
53
0
210
0
220
0
230
1
100
AcDbAlignedDimension
13
408
23
10
33
0
14
328
24
10
34
0
0
POINT
5
231
100
AcDbEntity
8
0
6
ByLayer
62
256
370
-1
100
AcDbPoint
10
258
20
407
0
DIMENSION
5
232
100
AcDbEntity
8
0
6
ByLayer
62
256
370
-1
100
AcDbDimension
2
*D22
10
258
20
430
30
0
11
134
21
433.25
31
0
70
33
71
5
72
0
3
Standard
53
0
210
0
220
0
230
1
100
AcDbAlignedDimension
13
10
23
407
33
0
14
258
24
407
34
0
0
CIRCLE
5
233
100
AcDbEntity
8
HOLES
6
ByLayer
62
256
370
-1
100
AcDbCircle
10
113
20
386
40
6
0
POINT
5
234
100
AcDbEntity
8
0
6
ByLayer
62
256
370
-1
100
AcDbPoint
10
193
20
407
0
DIMENSION
5
235
100
AcDbEntity
8
0
6
ByLayer
62
256
370
-1
100
AcDbDimension
2
*D23
10
193
20
386
30
0
11
189.75
21
396.5
31
0
70
33
71
5
72
0
3
Standard
53
0
210
0
220
0
230
1
100
AcDbAlignedDimension
13
193
23
407
33
0
14
193
24
386
34
0
0
DIMENSION
5
236
100
AcDbEntity
8
0
6
ByLayer
62
256
370
-1
100
AcDbDimension
2
*D24
10
193
20
420
30
0
11
141.5
21
423.25
31
0
70
33
71
5
72
0
3
Standard
53
0
210
0
220
0
230
1
100
AcDbAlignedDimension
13
90
23
407
33
0
14
193
24
407
34
0
0
DIMENSION
5
237
100
AcDbEntity
8
0
6
ByLayer
62
256
370
-1
100
AcDbDimension
2
*D25
10
193
20
360
30
0
11
153
21
363.25
31
0
70
33
71
5
72
0
3
Standard
53
0
210
0
220
0
230
1
100
AcDbAlignedDimension
13
113
23
386
33
0
14
193
24
386
34
0
0
DIMENSION
5
238
100
AcDbEntity
8
0
6
ByLayer
62
256
370
-1
100
AcDbDimension
2
*D26
10
193
20
360
30
0
11
233
21
363.25
31
0
70
33
71
5
72
0
3
Standard
53
0
210
0
220
0
230
1
100
AcDbAlignedDimension
13
273
23
386
33
0
14
193
24
386
34
0
0
DIMENSION
5
239
100
AcDbEntity
8
0
6
ByLayer
62
256
370
-1
100
AcDbDimension
2
*D27
10
-193
20
370
30
0
11
-233
21
373.25
31
0
70
33
71
5
72
0
3
Standard
53
0
210
0
220
0
230
1
100
AcDbAlignedDimension
13
-273
23
386
33
0
14
-193
24
386
34
0
0
DIMENSION
5
23A
100
AcDbEntity
8
0
6
ByLayer
62
256
370
-1
100
AcDbDimension
2
*D28
10
-113
20
370
30
0
11
-153
21
373.25
31
0
70
33
71
5
72
0
3
Standard
53
0
210
0
220
0
230
1
100
AcDbAlignedDimension
13
-193
23
386
33
0
14
-113
24
386
34
0
0
DIMENSION
5
23B
100
AcDbEntity
8
0
6
ByLayer
62
256
370
-1
100
AcDbDimension
2
*D29
10
-193
20
407
30
0
11
-196.25
21
396.5
31
0
70
33
71
5
72
0
3
Standard
53
0
210
0
220
0
230
1
100
AcDbAlignedDimension
13
-193
23
386
33
0
14
-193
24
407
34
0
0
DIMENSION
5
23C
100
AcDbEntity
8
0
6
ByLayer
62
256
370
-1
100
AcDbDimension
2
*D30
10
-193
20
420
30
0
11
-101.5
21
423.25
31
0
70
33
71
5
72
0
3
Standard
53
0
210
0
220
0
230
1
100
AcDbAlignedDimension
13
-10
23
407
33
0
14
-193
24
407
34
0
0
POINT
5
23D
100
AcDbEntity
8
0
6
ByLayer
62
256
370
-1
100
AcDbPoint
10
311
20
407
0
POINT
5
23E
100
AcDbEntity
8
0
6
ByLayer
62
256
370
-1
100
AcDbPoint
10
338
20
407
0
DIMENSION
5
23F
100
AcDbEntity
8
0
6
ByLayer
62
256
370
-1
100
AcDbDimension
2
*D31
10
338
20
430
30
0
11
373
21
433.25
31
0
70
33
71
5
72
0
3
Standard
53
0
210
0
220
0
230
1
100
AcDbAlignedDimension
13
408
23
407
33
0
14
338
24
407
34
0
0
DIMENSION
5
240
100
AcDbEntity
8
0
6
ByLayer
62
256
370
-1
100
AcDbDimension
2
*D32
10
10
20
440
30
0
11
174
21
443.25
31
0
70
33
71
5
72
0
3
Standard
53
0
210
0
220
0
230
1
100
AcDbAlignedDimension
13
338
23
407
33
0
14
10
24
407
34
0
0
DIMENSION
5
241
100
AcDbEntity
8
0
6
ByLayer
62
256
370
-1
100
AcDbDimension
2
*D33
10
311
20
390
30
0
11
359.5
21
393.25
31
0
70
33
71
5
72
0
3
Standard
53
0
210
0
220
0
230
1
100
AcDbAlignedDimension
13
408
23
407
33
0
14
311
24
407
34
0
0
LWPOLYLINE
5
242
100
AcDbEntity
8
IZREZ
6
ByLayer
62
256
370
-1
100
AcDbPolyline
90
228
70
1
43
0
10
-229
20
10
10
-229
20
4
10
-239
20
4
10
-239
20
10
10
-338
20
10
10
-338
20
4
10
-348
20
4
10
-348
20
10
10
-366.5
20
10
10
-366.5
20
17
10
-365.1
20
17
10
-365.1
20
19
10
-366.5
20
19
10
-366.5
20
25
10
-368
20
25
10
-369.5
20
25
10
-369.5
20
19
10
-370.9
20
19
10
-370.9
20
17
10
-369.5
20
17
10
-369.5
20
10
10
-388
20
10
42
-0.414213562373
10
-408
20
30
10
-408
20
50.5
10
-401
20
50.5
10
-401
20
49.1
10
-399
20
49.1
10
-399
20
50.5
10
-393
20
50.5
10
-393
20
52
10
-393
20
53.5
10
-399
20
53.5
10
-399
20
54.9
10
-401
20
54.9
10
-401
20
53.5
10
-408
20
53.5
10
-408
20
72
10
-414
20
72
10
-414
20
82
10
-408
20
82
10
-408
20
179
10
-414
20
179
10
-414
20
189
10
-408
20
189
10
-408
20
207.5
10
-401
20
207.5
10
-401
20
206.1
10
-399
20
206.1
10
-399
20
207.5
10
-393
20
207.5
10
-393
20
209
10
-393
20
210.5
10
-399
20
210.5
10
-399
20
211.9
10
-401
20
211.9
10
-401
20
210.5
10
-408
20
210.5
10
-408
20
229
10
-414
20
229
10
-414
20
239
10
-408
20
239
10
-408
20
335
10
-414
20
335
10
-414
20
345
10
-408
20
345
10
-408
20
363.5
10
-401
20
363.5
10
-401
20
362.1
10
-399
20
362.1
10
-399
20
363.5
10
-393
20
363.5
10
-393
20
365
10
-393
20
366.5
10
-399
20
366.5
10
-399
20
367.9
10
-401
20
367.9
10
-401
20
366.5
10
-408
20
366.5
10
-408
20
387
42
-0.414213562373
10
-388
20
407
10
-369.5
20
407
10
-369.5
20
400
10
-370.9
20
400
10
-370.9
20
398
10
-369.5
20
398
10
-369.5
20
392
10
-368
20
392
10
-366.5
20
392
10
-366.5
20
398
10
-365.1
20
398
10
-365.1
20
400
10
-366.5
20
400
10
-366.5
20
407
10
-348
20
407
10
-348
20
413
10
-338
20
413
10
-338
20
407
10
-239
20
407
10
-239
20
413
10
-229
20
413
10
-229
20
407
10
-210.5
20
407
10
-210.5
20
400
10
-211.9
20
400
10
-211.9
20
398
10
-210.5
20
398
10
-210.5
20
393
10
-209
20
393
10
-207.5
20
393
10
-207.5
20
398
10
-206.1
20
398
10
-206.1
20
400
10
-207.5
20
400
10
-207.5
20
407
10
-189
20
407
10
-189
20
413
10
-179
20
413
10
-179
20
407
10
-80
20
407
10
-80
20
413
10
-70
20
413
10
-70
20
407
10
-51.5
20
407
10
-51.5
20
400
10
-52.9
20
400
10
-52.9
20
398
10
-51.5
20
398
10
-51.5
20
392
10
-50
20
392
10
-48.5
20
392
10
-48.5
20
398
10
-47.1
20
398
10
-47.1
20
400
10
-48.5
20
400
10
-48.5
20
407
10
-30
20
407
42
-0.414213562373
10
-10
20
387
10
-10
20
366.5
10
-17
20
366.5
10
-17
20
367.9
10
-19
20
367.9
10
-19
20
366.5
10
-25
20
366.5
10
-25
20
365
10
-25
20
363.5
10
-19
20
363.5
10
-19
20
362.1
10
-17
20
362.1
10
-17
20
363.5
10
-10
20
363.5
10
-10
20
345
10
-4
20
345
10
-4
20
335
10
-10
20
335
10
-10
20
239
10
-4
20
239
10
-4
20
229
10
-10
20
229
10
-10
20
210.5
10
-17
20
210.5
10
-17
20
211.9
10
-19
20
211.9
10
-19
20
210.5
10
-25
20
210.5
10
-25
20
209
10
-25
20
207.5
10
-19
20
207.5
10
-19
20
206.1
10
-17
20
206.1
10
-17
20
207.5
10
-10
20
207.5
10
-10
20
189
10
-4
20
189
10
-4
20
179
10
-10
20
179
10
-10
20
82
10
-4
20
82
10
-4
20
72
10
-10
20
72
10
-10
20
53.5
10
-17
20
53.5
10
-17
20
54.9
10
-19
20
54.9
10
-19
20
53.5
10
-25
20
53.5
10
-25
20
52
10
-25
20
50.5
10
-19
20
50.5
10
-19
20
49.1
10
-17
20
49.1
10
-17
20
50.5
10
-10
20
50.5
10
-10
20
30
42
-0.414213562373
10
-30
20
10
10
-48.5
20
10
10
-48.5
20
17
10
-47.1
20
17
10
-47.1
20
19
10
-48.5
20
19
10
-48.5
20
25
10
-50
20
25
10
-51.5
20
25
10
-51.5
20
19
10
-52.9
20
19
10
-52.9
20
17
10
-51.5
20
17
10
-51.5
20
10
10
-70
20
10
10
-70
20
4
10
-80
20
4
10
-80
20
10
10
-179
20
10
10
-179
20
4
10
-189
20
4
10
-189
20
10
10
-207.5
20
10
10
-207.5
20
17
10
-206.1
20
17
10
-206.1
20
19
10
-207.5
20
19
10
-207.5
20
25
10
-209
20
25
10
-210.5
20
25
10
-210.5
20
19
10
-211.9
20
19
10
-211.9
20
17
10
-210.5
20
17
10
-210.5
20
10
0
LINE
5
243
100
AcDbEntity
8
IZREZ
6
ByLayer
62
256
370
-1
100
AcDbLine
10
358
20
407
11
358
21
413
0
LINE
5
244
100
AcDbEntity
8
IZREZ
6
ByLayer
62
256
370
-1
100
AcDbLine
10
358
20
413
11
368
21
413
0
LINE
5
245
100
AcDbEntity
8
IZREZ
6
ByLayer
62
256
370
-1
100
AcDbLine
10
368
20
413
11
368
21
407
0
LINE
5
246
100
AcDbEntity
8
IZREZ
6
ByLayer
62
256
370
-1
100
AcDbLine
10
368
20
407
11
388
21
407
0
ARC
5
247
100
AcDbEntity
8
IZREZ
6
ByLayer
62
256
370
-1
100
AcDbCircle
10
408
20
407
40
20
100
AcDbArc
50
180
51
270
0
LINE
5
248
100
AcDbEntity
8
IZREZ
6
ByLayer
62
256
370
-1
100
AcDbLine
10
408
20
387
11
408
21
379
0
LINE
5
249
100
AcDbEntity
8
IZREZ
6
ByLayer
62
256
370
-1
100
AcDbLine
10
408
20
379
11
414
21
379
0
LINE
5
24A
100
AcDbEntity
8
IZREZ
6
ByLayer
62
256
370
-1
100
AcDbLine
10
414
20
379
11
414
21
369
0
LINE
5
24B
100
AcDbEntity
8
IZREZ
6
ByLayer
62
256
370
-1
100
AcDbLine
10
414
20
369
11
408
21
369
0
LINE
5
24C
100
AcDbEntity
8
IZREZ
6
ByLayer
62
256
370
-1
100
AcDbLine
10
408
20
369
11
408
21
350.5
0
LINE
5
24D
100
AcDbEntity
8
IZREZ
6
ByLayer
62
256
370
-1
100
AcDbLine
10
408
20
350.5
11
401
21
350.5
0
LINE
5
24E
100
AcDbEntity
8
IZREZ
6
ByLayer
62
256
370
-1
100
AcDbLine
10
401
20
350.5
11
401
21
351.9
0
LINE
5
24F
100
AcDbEntity
8
IZREZ
6
ByLayer
62
256
370
-1
100
AcDbLine
10
401
20
351.9
11
399
21
351.9
0
LINE
5
250
100
AcDbEntity
8
IZREZ
6
ByLayer
62
256
370
-1
100
AcDbLine
10
399
20
351.9
11
399
21
350.5
0
LINE
5
251
100
AcDbEntity
8
IZREZ
6
ByLayer
62
256
370
-1
100
AcDbLine
10
399
20
350.5
11
393
21
350.5
0
LINE
5
252
100
AcDbEntity
8
IZREZ
6
ByLayer
62
256
370
-1
100
AcDbLine
10
393
20
350.5
11
393
21
349
0
LINE
5
253
100
AcDbEntity
8
IZREZ
6
ByLayer
62
256
370
-1
100
AcDbLine
10
393
20
349
11
393
21
347.5
0
LINE
5
254
100
AcDbEntity
8
IZREZ
6
ByLayer
62
256
370
-1
100
AcDbLine
10
393
20
347.5
11
399
21
347.5
0
LINE
5
255
100
AcDbEntity
8
IZREZ
6
ByLayer
62
256
370
-1
100
AcDbLine
10
399
20
347.5
11
399
21
346.1
0
LINE
5
256
100
AcDbEntity
8
IZREZ
6
ByLayer
62
256
370
-1
100
AcDbLine
10
399
20
346.1
11
401
21
346.1
0
LINE
5
257
100
AcDbEntity
8
IZREZ
6
ByLayer
62
256
370
-1
100
AcDbLine
10
401
20
346.1
11
401
21
347.5
0
LINE
5
258
100
AcDbEntity
8
IZREZ
6
ByLayer
62
256
370
-1
100
AcDbLine
10
401
20
347.5
11
408
21
347.5
0
LINE
5
259
100
AcDbEntity
8
IZREZ
6
ByLayer
62
256
370
-1
100
AcDbLine
10
408
20
347.5
11
408
21
329
0
LINE
5
25A
100
AcDbEntity
8
IZREZ
6
ByLayer
62
256
370
-1
100
AcDbLine
10
408
20
329
11
414
21
329
0
LINE
5
25B
100
AcDbEntity
8
IZREZ
6
ByLayer
62
256
370
-1
100
AcDbLine
10
414
20
329
11
414
21
319
0
LINE
5
25C
100
AcDbEntity
8
IZREZ
6
ByLayer
62
256
370
-1
100
AcDbLine
10
414
20
319
11
408
21
319
0
LINE
5
25D
100
AcDbEntity
8
IZREZ
6
ByLayer
62
256
370
-1
100
AcDbLine
10
408
20
319
11
408
21
239
0
LINE
5
25E
100
AcDbEntity
8
IZREZ
6
ByLayer
62
256
370
-1
100
AcDbLine
10
408
20
239
11
414
21
239
0
LINE
5
25F
100
AcDbEntity
8
IZREZ
6
ByLayer
62
256
370
-1
100
AcDbLine
10
414
20
239
11
414
21
229
0
LINE
5
260
100
AcDbEntity
8
IZREZ
6
ByLayer
62
256
370
-1
100
AcDbLine
10
414
20
229
11
408
21
229
0
LINE
5
261
100
AcDbEntity
8
IZREZ
6
ByLayer
62
256
370
-1
100
AcDbLine
10
408
20
229
11
408
21
210.5
0
LINE
5
262
100
AcDbEntity
8
IZREZ
6
ByLayer
62
256
370
-1
100
AcDbLine
10
408
20
210.5
11
401
21
210.5
0
LINE
5
263
100
AcDbEntity
8
IZREZ
6
ByLayer
62
256
370
-1
100
AcDbLine
10
401
20
210.5
11
401
21
211.9
0
LINE
5
264
100
AcDbEntity
8
IZREZ
6
ByLayer
62
256
370
-1
100
AcDbLine
10
401
20
211.9
11
399
21
211.9
0
LINE
5
265
100
AcDbEntity
8
IZREZ
6
ByLayer
62
256
370
-1
100
AcDbLine
10
399
20
211.9
11
399
21
210.5
0
LINE
5
266
100
AcDbEntity
8
IZREZ
6
ByLayer
62
256
370
-1
100
AcDbLine
10
399
20
210.5
11
393
21
210.5
0
LINE
5
267
100
AcDbEntity
8
IZREZ
6
ByLayer
62
256
370
-1
100
AcDbLine
10
393
20
210.5
11
393
21
209
0
LINE
5
268
100
AcDbEntity
8
IZREZ
6
ByLayer
62
256
370
-1
100
AcDbLine
10
393
20
209
11
393
21
207.5
0
LINE
5
269
100
AcDbEntity
8
IZREZ
6
ByLayer
62
256
370
-1
100
AcDbLine
10
393
20
207.5
11
399
21
207.5
0
LINE
5
26A
100
AcDbEntity
8
IZREZ
6
ByLayer
62
256
370
-1
100
AcDbLine
10
399
20
207.5
11
399
21
206.1
0
LINE
5
26B
100
AcDbEntity
8
IZREZ
6
ByLayer
62
256
370
-1
100
AcDbLine
10
399
20
206.1
11
401
21
206.1
0
LINE
5
26C
100
AcDbEntity
8
IZREZ
6
ByLayer
62
256
370
-1
100
AcDbLine
10
401
20
206.1
11
401
21
207.5
0
LINE
5
26D
100
AcDbEntity
8
IZREZ
6
ByLayer
62
256
370
-1
100
AcDbLine
10
401
20
207.5
11
408
21
207.5
0
LINE
5
26E
100
AcDbEntity
8
IZREZ
6
ByLayer
62
256
370
-1
100
AcDbLine
10
408
20
207.5
11
408
21
189
0
LINE
5
26F
100
AcDbEntity
8
IZREZ
6
ByLayer
62
256
370
-1
100
AcDbLine
10
408
20
189
11
414
21
189
0
LINE
5
270
100
AcDbEntity
8
IZREZ
6
ByLayer
62
256
370
-1
100
AcDbLine
10
414
20
189
11
414
21
179
0
LINE
5
271
100
AcDbEntity
8
IZREZ
6
ByLayer
62
256
370
-1
100
AcDbLine
10
414
20
179
11
408
21
179
0
LINE
5
272
100
AcDbEntity
8
IZREZ
6
ByLayer
62
256
370
-1
100
AcDbLine
10
408
20
179
11
408
21
99
0
LINE
5
273
100
AcDbEntity
8
IZREZ
6
ByLayer
62
256
370
-1
100
AcDbLine
10
408
20
99
11
414
21
99
0
LINE
5
274
100
AcDbEntity
8
IZREZ
6
ByLayer
62
256
370
-1
100
AcDbLine
10
414
20
99
11
414
21
89
0
LINE
5
275
100
AcDbEntity
8
IZREZ
6
ByLayer
62
256
370
-1
100
AcDbLine
10
414
20
89
11
408
21
89
0
LINE
5
276
100
AcDbEntity
8
IZREZ
6
ByLayer
62
256
370
-1
100
AcDbLine
10
408
20
89
11
408
21
70.5
0
LINE
5
277
100
AcDbEntity
8
IZREZ
6
ByLayer
62
256
370
-1
100
AcDbLine
10
408
20
70.5
11
401
21
70.5
0
LINE
5
278
100
AcDbEntity
8
IZREZ
6
ByLayer
62
256
370
-1
100
AcDbLine
10
401
20
70.5
11
401
21
71.9
0
LINE
5
279
100
AcDbEntity
8
IZREZ
6
ByLayer
62
256
370
-1
100
AcDbLine
10
401
20
71.9
11
399
21
71.9
0
LINE
5
27A
100
AcDbEntity
8
IZREZ
6
ByLayer
62
256
370
-1
100
AcDbLine
10
399
20
71.9
11
399
21
70.5
0
LINE
5
27B
100
AcDbEntity
8
IZREZ
6
ByLayer
62
256
370
-1
100
AcDbLine
10
399
20
70.5
11
393
21
70.5
0
LINE
5
27C
100
AcDbEntity
8
IZREZ
6
ByLayer
62
256
370
-1
100
AcDbLine
10
393
20
70.5
11
393
21
69
0
LINE
5
27D
100
AcDbEntity
8
IZREZ
6
ByLayer
62
256
370
-1
100
AcDbLine
10
393
20
69
11
393
21
67.5
0
LINE
5
27E
100
AcDbEntity
8
IZREZ
6
ByLayer
62
256
370
-1
100
AcDbLine
10
393
20
67.5
11
399
21
67.5
0
LINE
5
27F
100
AcDbEntity
8
IZREZ
6
ByLayer
62
256
370
-1
100
AcDbLine
10
399
20
67.5
11
399
21
66.1
0
LINE
5
280
100
AcDbEntity
8
IZREZ
6
ByLayer
62
256
370
-1
100
AcDbLine
10
399
20
66.1
11
401
21
66.1
0
LINE
5
281
100
AcDbEntity
8
IZREZ
6
ByLayer
62
256
370
-1
100
AcDbLine
10
401
20
66.1
11
401
21
67.5
0
LINE
5
282
100
AcDbEntity
8
IZREZ
6
ByLayer
62
256
370
-1
100
AcDbLine
10
401
20
67.5
11
408
21
67.5
0
LINE
5
283
100
AcDbEntity
8
IZREZ
6
ByLayer
62
256
370
-1
100
AcDbLine
10
408
20
67.5
11
408
21
49
0
LINE
5
284
100
AcDbEntity
8
IZREZ
6
ByLayer
62
256
370
-1
100
AcDbLine
10
408
20
49
11
414
21
49
0
LINE
5
285
100
AcDbEntity
8
IZREZ
6
ByLayer
62
256
370
-1
100
AcDbLine
10
414
20
49
11
414
21
39
0
LINE
5
286
100
AcDbEntity
8
IZREZ
6
ByLayer
62
256
370
-1
100
AcDbLine
10
414
20
39
11
408
21
39
0
LINE
5
287
100
AcDbEntity
8
IZREZ
6
ByLayer
62
256
370
-1
100
AcDbLine
10
408
20
39
11
408
21
30
0
ARC
5
288
100
AcDbEntity
8
IZREZ
6
ByLayer
62
256
370
-1
100
AcDbCircle
10
408
20
10
40
20
100
AcDbArc
50
90
51
180
0
LINE
5
289
100
AcDbEntity
8
IZREZ
6
ByLayer
62
256
370
-1
100
AcDbLine
10
388
20
10
11
358
21
10
0
LINE
5
28A
100
AcDbEntity
8
IZREZ
6
ByLayer
62
256
370
-1
100
AcDbLine
10
358
20
10
11
358
21
4
0
LINE
5
28B
100
AcDbEntity
8
IZREZ
6
ByLayer
62
256
370
-1
100
AcDbLine
10
358
20
4
11
348
21
4
0
LINE
5
28C
100
AcDbEntity
8
IZREZ
6
ByLayer
62
256
370
-1
100
AcDbLine
10
348
20
4
11
348
21
10
0
LINE
5
28D
100
AcDbEntity
8
IZREZ
6
ByLayer
62
256
370
-1
100
AcDbLine
10
348
20
10
11
329.5
21
10
0
LINE
5
28E
100
AcDbEntity
8
IZREZ
6
ByLayer
62
256
370
-1
100
AcDbLine
10
329.5
20
10
11
329.5
21
17
0
LINE
5
28F
100
AcDbEntity
8
IZREZ
6
ByLayer
62
256
370
-1
100
AcDbLine
10
329.5
20
17
11
330.9
21
17
0
LINE
5
290
100
AcDbEntity
8
IZREZ
6
ByLayer
62
256
370
-1
100
AcDbLine
10
330.9
20
17
11
330.9
21
19
0
LINE
5
291
100
AcDbEntity
8
IZREZ
6
ByLayer
62
256
370
-1
100
AcDbLine
10
330.9
20
19
11
329.5
21
19
0
LINE
5
292
100
AcDbEntity
8
IZREZ
6
ByLayer
62
256
370
-1
100
AcDbLine
10
329.5
20
19
11
329.5
21
25
0
LINE
5
293
100
AcDbEntity
8
IZREZ
6
ByLayer
62
256
370
-1
100
AcDbLine
10
329.5
20
25
11
328
21
25
0
LINE
5
294
100
AcDbEntity
8
IZREZ
6
ByLayer
62
256
370
-1
100
AcDbLine
10
328
20
25
11
326.5
21
25
0
LINE
5
295
100
AcDbEntity
8
IZREZ
6
ByLayer
62
256
370
-1
100
AcDbLine
10
326.5
20
25
11
326.5
21
19
0
LINE
5
296
100
AcDbEntity
8
IZREZ
6
ByLayer
62
256
370
-1
100
AcDbLine
10
326.5
20
19
11
325.1
21
19
0
LINE
5
297
100
AcDbEntity
8
IZREZ
6
ByLayer
62
256
370
-1
100
AcDbLine
10
325.1
20
19
11
325.1
21
17
0
LINE
5
298
100
AcDbEntity
8
IZREZ
6
ByLayer
62
256
370
-1
100
AcDbLine
10
325.1
20
17
11
326.5
21
17
0
LINE
5
299
100
AcDbEntity
8
IZREZ
6
ByLayer
62
256
370
-1
100
AcDbLine
10
326.5
20
17
11
326.5
21
10
0
LINE
5
29A
100
AcDbEntity
8
IZREZ
6
ByLayer
62
256
370
-1
100
AcDbLine
10
326.5
20
10
11
308
21
10
0
LINE
5
29B
100
AcDbEntity
8
IZREZ
6
ByLayer
62
256
370
-1
100
AcDbLine
10
308
20
10
11
308
21
4
0
LINE
5
29C
100
AcDbEntity
8
IZREZ
6
ByLayer
62
256
370
-1
100
AcDbLine
10
308
20
4
11
298
21
4
0
LINE
5
29D
100
AcDbEntity
8
IZREZ
6
ByLayer
62
256
370
-1
100
AcDbLine
10
298
20
4
11
298
21
10
0
LINE
5
29E
100
AcDbEntity
8
IZREZ
6
ByLayer
62
256
370
-1
100
AcDbLine
10
120
20
10
11
120
21
4
0
LINE
5
29F
100
AcDbEntity
8
IZREZ
6
ByLayer
62
256
370
-1
100
AcDbLine
10
120
20
4
11
110
21
4
0
LINE
5
2A0
100
AcDbEntity
8
IZREZ
6
ByLayer
62
256
370
-1
100
AcDbLine
10
110
20
4
11
110
21
10
0
LINE
5
2A1
100
AcDbEntity
8
IZREZ
6
ByLayer
62
256
370
-1
100
AcDbLine
10
110
20
10
11
91.5
21
10
0
LINE
5
2A2
100
AcDbEntity
8
IZREZ
6
ByLayer
62
256
370
-1
100
AcDbLine
10
91.5
20
10
11
91.5
21
17
0
LINE
5
2A3
100
AcDbEntity
8
IZREZ
6
ByLayer
62
256
370
-1
100
AcDbLine
10
91.5
20
17
11
92.9
21
17
0
LINE
5
2A4
100
AcDbEntity
8
IZREZ
6
ByLayer
62
256
370
-1
100
AcDbLine
10
92.9
20
17
11
92.9
21
19
0
LINE
5
2A5
100
AcDbEntity
8
IZREZ
6
ByLayer
62
256
370
-1
100
AcDbLine
10
92.9
20
19
11
91.5
21
19
0
LINE
5
2A6
100
AcDbEntity
8
IZREZ
6
ByLayer
62
256
370
-1
100
AcDbLine
10
91.5
20
19
11
91.5
21
25
0
LINE
5
2A7
100
AcDbEntity
8
IZREZ
6
ByLayer
62
256
370
-1
100
AcDbLine
10
91.5
20
25
11
90
21
25
0
LINE
5
2A8
100
AcDbEntity
8
IZREZ
6
ByLayer
62
256
370
-1
100
AcDbLine
10
90
20
25
11
88.5
21
25
0
LINE
5
2A9
100
AcDbEntity
8
IZREZ
6
ByLayer
62
256
370
-1
100
AcDbLine
10
88.5
20
25
11
88.5
21
19
0
LINE
5
2AA
100
AcDbEntity
8
IZREZ
6
ByLayer
62
256
370
-1
100
AcDbLine
10
88.5
20
19
11
87.1
21
19
0
LINE
5
2AB
100
AcDbEntity
8
IZREZ
6
ByLayer
62
256
370
-1
100
AcDbLine
10
87.1
20
19
11
87.1
21
17
0
LINE
5
2AC
100
AcDbEntity
8
IZREZ
6
ByLayer
62
256
370
-1
100
AcDbLine
10
87.1
20
17
11
88.5
21
17
0
LINE
5
2AD
100
AcDbEntity
8
IZREZ
6
ByLayer
62
256
370
-1
100
AcDbLine
10
88.5
20
17
11
88.5
21
10
0
LINE
5
2AE
100
AcDbEntity
8
IZREZ
6
ByLayer
62
256
370
-1
100
AcDbLine
10
88.5
20
10
11
70
21
10
0
LINE
5
2AF
100
AcDbEntity
8
IZREZ
6
ByLayer
62
256
370
-1
100
AcDbLine
10
70
20
10
11
70
21
4
0
LINE
5
2B0
100
AcDbEntity
8
IZREZ
6
ByLayer
62
256
370
-1
100
AcDbLine
10
70
20
4
11
60
21
4
0
LINE
5
2B1
100
AcDbEntity
8
IZREZ
6
ByLayer
62
256
370
-1
100
AcDbLine
10
60
20
4
11
60
21
10
0
LINE
5
2B2
100
AcDbEntity
8
IZREZ
6
ByLayer
62
256
370
-1
100
AcDbLine
10
60
20
10
11
30
21
10
0
ARC
5
2B3
100
AcDbEntity
8
IZREZ
6
ByLayer
62
256
370
-1
100
AcDbCircle
10
10
20
10
40
20
100
AcDbArc
50
9.29739496005e-012
51
90
0
LINE
5
2B4
100
AcDbEntity
8
IZREZ
6
ByLayer
62
256
370
-1
100
AcDbLine
10
10
20
30
11
10
21
39
0
LINE
5
2B5
100
AcDbEntity
8
IZREZ
6
ByLayer
62
256
370
-1
100
AcDbLine
10
10
20
39
11
4
21
39
0
LINE
5
2B6
100
AcDbEntity
8
IZREZ
6
ByLayer
62
256
370
-1
100
AcDbLine
10
4
20
39
11
4
21
49
0
LINE
5
2B7
100
AcDbEntity
8
IZREZ
6
ByLayer
62
256
370
-1
100
AcDbLine
10
4
20
49
11
10
21
49
0
LINE
5
2B8
100
AcDbEntity
8
IZREZ
6
ByLayer
62
256
370
-1
100
AcDbLine
10
10
20
49
11
10
21
67.5
0
LINE
5
2B9
100
AcDbEntity
8
IZREZ
6
ByLayer
62
256
370
-1
100
AcDbLine
10
10
20
67.5
11
17
21
67.5
0
LINE
5
2BA
100
AcDbEntity
8
IZREZ
6
ByLayer
62
256
370
-1
100
AcDbLine
10
17
20
67.5
11
17
21
66.1
0
LINE
5
2BB
100
AcDbEntity
8
IZREZ
6
ByLayer
62
256
370
-1
100
AcDbLine
10
17
20
66.1
11
19
21
66.1
0
LINE
5
2BC
100
AcDbEntity
8
IZREZ
6
ByLayer
62
256
370
-1
100
AcDbLine
10
19
20
66.1
11
19
21
67.5
0
LINE
5
2BD
100
AcDbEntity
8
IZREZ
6
ByLayer
62
256
370
-1
100
AcDbLine
10
19
20
67.5
11
25
21
67.5
0
LINE
5
2BE
100
AcDbEntity
8
IZREZ
6
ByLayer
62
256
370
-1
100
AcDbLine
10
25
20
67.5
11
25
21
69
0
LINE
5
2BF
100
AcDbEntity
8
IZREZ
6
ByLayer
62
256
370
-1
100
AcDbLine
10
25
20
69
11
25
21
70.5
0
LINE
5
2C0
100
AcDbEntity
8
IZREZ
6
ByLayer
62
256
370
-1
100
AcDbLine
10
25
20
70.5
11
19
21
70.5
0
LINE
5
2C1
100
AcDbEntity
8
IZREZ
6
ByLayer
62
256
370
-1
100
AcDbLine
10
19
20
70.5
11
19
21
71.9
0
LINE
5
2C2
100
AcDbEntity
8
IZREZ
6
ByLayer
62
256
370
-1
100
AcDbLine
10
19
20
71.9
11
17
21
71.9
0
LINE
5
2C3
100
AcDbEntity
8
IZREZ
6
ByLayer
62
256
370
-1
100
AcDbLine
10
17
20
71.9
11
17
21
70.5
0
LINE
5
2C4
100
AcDbEntity
8
IZREZ
6
ByLayer
62
256
370
-1
100
AcDbLine
10
17
20
70.5
11
10
21
70.5
0
LINE
5
2C5
100
AcDbEntity
8
IZREZ
6
ByLayer
62
256
370
-1
100
AcDbLine
10
10
20
70.5
11
10
21
89
0
LINE
5
2C6
100
AcDbEntity
8
IZREZ
6
ByLayer
62
256
370
-1
100
AcDbLine
10
10
20
89
11
4
21
89
0
LINE
5
2C7
100
AcDbEntity
8
IZREZ
6
ByLayer
62
256
370
-1
100
AcDbLine
10
4
20
89
11
4
21
99
0
LINE
5
2C8
100
AcDbEntity
8
IZREZ
6
ByLayer
62
256
370
-1
100
AcDbLine
10
4
20
99
11
10
21
99
0
LINE
5
2C9
100
AcDbEntity
8
IZREZ
6
ByLayer
62
256
370
-1
100
AcDbLine
10
10
20
99
11
10
21
179
0
LINE
5
2CA
100
AcDbEntity
8
IZREZ
6
ByLayer
62
256
370
-1
100
AcDbLine
10
10
20
179
11
4
21
179
0
LINE
5
2CB
100
AcDbEntity
8
IZREZ
6
ByLayer
62
256
370
-1
100
AcDbLine
10
4
20
179
11
4
21
189
0
LINE
5
2CC
100
AcDbEntity
8
IZREZ
6
ByLayer
62
256
370
-1
100
AcDbLine
10
4
20
189
11
10
21
189
0
LINE
5
2CD
100
AcDbEntity
8
IZREZ
6
ByLayer
62
256
370
-1
100
AcDbLine
10
10
20
189
11
10
21
207.5
0
LINE
5
2CE
100
AcDbEntity
8
IZREZ
6
ByLayer
62
256
370
-1
100
AcDbLine
10
10
20
207.5
11
17
21
207.5
0
LINE
5
2CF
100
AcDbEntity
8
IZREZ
6
ByLayer
62
256
370
-1
100
AcDbLine
10
17
20
207.5
11
17
21
206.1
0
LINE
5
2D0
100
AcDbEntity
8
IZREZ
6
ByLayer
62
256
370
-1
100
AcDbLine
10
17
20
206.1
11
19
21
206.1
0
LINE
5
2D1
100
AcDbEntity
8
IZREZ
6
ByLayer
62
256
370
-1
100
AcDbLine
10
19
20
206.1
11
19
21
207.5
0
LINE
5
2D2
100
AcDbEntity
8
IZREZ
6
ByLayer
62
256
370
-1
100
AcDbLine
10
19
20
207.5
11
25
21
207.5
0
LINE
5
2D3
100
AcDbEntity
8
IZREZ
6
ByLayer
62
256
370
-1
100
AcDbLine
10
25
20
207.5
11
25
21
209
0
LINE
5
2D4
100
AcDbEntity
8
IZREZ
6
ByLayer
62
256
370
-1
100
AcDbLine
10
25
20
209
11
25
21
210.5
0
LINE
5
2D5
100
AcDbEntity
8
IZREZ
6
ByLayer
62
256
370
-1
100
AcDbLine
10
25
20
210.5
11
19
21
210.5
0
LINE
5
2D6
100
AcDbEntity
8
IZREZ
6
ByLayer
62
256
370
-1
100
AcDbLine
10
19
20
210.5
11
19
21
211.9
0
LINE
5
2D7
100
AcDbEntity
8
IZREZ
6
ByLayer
62
256
370
-1
100
AcDbLine
10
19
20
211.9
11
17
21
211.9
0
LINE
5
2D8
100
AcDbEntity
8
IZREZ
6
ByLayer
62
256
370
-1
100
AcDbLine
10
17
20
211.9
11
17
21
210.5
0
LINE
5
2D9
100
AcDbEntity
8
IZREZ
6
ByLayer
62
256
370
-1
100
AcDbLine
10
17
20
210.5
11
10
21
210.5
0
LINE
5
2DA
100
AcDbEntity
8
IZREZ
6
ByLayer
62
256
370
-1
100
AcDbLine
10
10
20
210.5
11
10
21
229
0
LINE
5
2DB
100
AcDbEntity
8
IZREZ
6
ByLayer
62
256
370
-1
100
AcDbLine
10
10
20
229
11
4
21
229
0
LINE
5
2DC
100
AcDbEntity
8
IZREZ
6
ByLayer
62
256
370
-1
100
AcDbLine
10
4
20
229
11
4
21
239
0
LINE
5
2DD
100
AcDbEntity
8
IZREZ
6
ByLayer
62
256
370
-1
100
AcDbLine
10
4
20
239
11
10
21
239
0
LINE
5
2DE
100
AcDbEntity
8
IZREZ
6
ByLayer
62
256
370
-1
100
AcDbLine
10
10
20
239
11
10
21
319
0
LINE
5
2DF
100
AcDbEntity
8
IZREZ
6
ByLayer
62
256
370
-1
100
AcDbLine
10
10
20
319
11
4
21
319
0
LINE
5
2E0
100
AcDbEntity
8
IZREZ
6
ByLayer
62
256
370
-1
100
AcDbLine
10
4
20
319
11
4
21
329
0
LINE
5
2E1
100
AcDbEntity
8
IZREZ
6
ByLayer
62
256
370
-1
100
AcDbLine
10
4
20
329
11
10
21
329
0
LINE
5
2E2
100
AcDbEntity
8
IZREZ
6
ByLayer
62
256
370
-1
100
AcDbLine
10
10
20
329
11
10
21
347.5
0
LINE
5
2E3
100
AcDbEntity
8
IZREZ
6
ByLayer
62
256
370
-1
100
AcDbLine
10
10
20
347.5
11
17
21
347.5
0
LINE
5
2E4
100
AcDbEntity
8
IZREZ
6
ByLayer
62
256
370
-1
100
AcDbLine
10
17
20
347.5
11
17
21
346.1
0
LINE
5
2E5
100
AcDbEntity
8
IZREZ
6
ByLayer
62
256
370
-1
100
AcDbLine
10
17
20
346.1
11
19
21
346.1
0
LINE
5
2E6
100
AcDbEntity
8
IZREZ
6
ByLayer
62
256
370
-1
100
AcDbLine
10
19
20
346.1
11
19
21
347.5
0
LINE
5
2E7
100
AcDbEntity
8
IZREZ
6
ByLayer
62
256
370
-1
100
AcDbLine
10
19
20
347.5
11
25
21
347.5
0
LINE
5
2E8
100
AcDbEntity
8
IZREZ
6
ByLayer
62
256
370
-1
100
AcDbLine
10
25
20
347.5
11
25
21
349
0
LINE
5
2E9
100
AcDbEntity
8
IZREZ
6
ByLayer
62
256
370
-1
100
AcDbLine
10
25
20
349
11
25
21
350.5
0
LINE
5
2EA
100
AcDbEntity
8
IZREZ
6
ByLayer
62
256
370
-1
100
AcDbLine
10
25
20
350.5
11
19
21
350.5
0
LINE
5
2EB
100
AcDbEntity
8
IZREZ
6
ByLayer
62
256
370
-1
100
AcDbLine
10
19
20
350.5
11
19
21
351.9
0
LINE
5
2EC
100
AcDbEntity
8
IZREZ
6
ByLayer
62
256
370
-1
100
AcDbLine
10
19
20
351.9
11
17
21
351.9
0
LINE
5
2ED
100
AcDbEntity
8
IZREZ
6
ByLayer
62
256
370
-1
100
AcDbLine
10
17
20
351.9
11
17
21
350.5
0
LINE
5
2EE
100
AcDbEntity
8
IZREZ
6
ByLayer
62
256
370
-1
100
AcDbLine
10
17
20
350.5
11
10
21
350.5
0
LINE
5
2EF
100
AcDbEntity
8
IZREZ
6
ByLayer
62
256
370
-1
100
AcDbLine
10
10
20
350.5
11
10
21
369
0
LINE
5
2F0
100
AcDbEntity
8
IZREZ
6
ByLayer
62
256
370
-1
100
AcDbLine
10
10
20
369
11
4
21
369
0
LINE
5
2F1
100
AcDbEntity
8
IZREZ
6
ByLayer
62
256
370
-1
100
AcDbLine
10
4
20
369
11
4
21
379
0
LINE
5
2F2
100
AcDbEntity
8
IZREZ
6
ByLayer
62
256
370
-1
100
AcDbLine
10
4
20
379
11
10
21
379
0
LINE
5
2F3
100
AcDbEntity
8
IZREZ
6
ByLayer
62
256
370
-1
100
AcDbLine
10
10
20
379
11
10
21
387
0
ARC
5
2F4
100
AcDbEntity
8
IZREZ
6
ByLayer
62
256
370
-1
100
AcDbCircle
10
10
20
407
40
20
100
AcDbArc
50
270
51
0
0
LINE
5
2F5
100
AcDbEntity
8
IZREZ
6
ByLayer
62
256
370
-1
100
AcDbLine
10
30
20
407
11
60
21
407
0
LINE
5
2F6
100
AcDbEntity
8
IZREZ
6
ByLayer
62
256
370
-1
100
AcDbLine
10
60
20
407
11
60
21
413
0
LINE
5
2F7
100
AcDbEntity
8
IZREZ
6
ByLayer
62
256
370
-1
100
AcDbLine
10
60
20
413
11
70
21
413
0
LINE
5
2F8
100
AcDbEntity
8
IZREZ
6
ByLayer
62
256
370
-1
100
AcDbLine
10
70
20
413
11
70
21
407
0
LINE
5
2F9
100
AcDbEntity
8
IZREZ
6
ByLayer
62
256
370
-1
100
AcDbLine
10
70
20
407
11
88.5
21
407
0
LINE
5
2FA
100
AcDbEntity
8
IZREZ
6
ByLayer
62
256
370
-1
100
AcDbLine
10
88.5
20
407
11
88.5
21
400
0
LINE
5
2FB
100
AcDbEntity
8
IZREZ
6
ByLayer
62
256
370
-1
100
AcDbLine
10
88.5
20
400
11
87.1
21
400
0
LINE
5
2FC
100
AcDbEntity
8
IZREZ
6
ByLayer
62
256
370
-1
100
AcDbLine
10
87.1
20
400
11
87.1
21
398
0
LINE
5
2FD
100
AcDbEntity
8
IZREZ
6
ByLayer
62
256
370
-1
100
AcDbLine
10
87.1
20
398
11
88.5
21
398
0
LINE
5
2FE
100
AcDbEntity
8
IZREZ
6
ByLayer
62
256
370
-1
100
AcDbLine
10
88.5
20
398
11
88.5
21
392
0
LINE
5
2FF
100
AcDbEntity
8
IZREZ
6
ByLayer
62
256
370
-1
100
AcDbLine
10
88.5
20
392
11
90
21
392
0
LINE
5
300
100
AcDbEntity
8
IZREZ
6
ByLayer
62
256
370
-1
100
AcDbLine
10
90
20
392
11
91.5
21
392
0
LINE
5
301
100
AcDbEntity
8
IZREZ
6
ByLayer
62
256
370
-1
100
AcDbLine
10
91.5
20
392
11
91.5
21
398
0
LINE
5
302
100
AcDbEntity
8
IZREZ
6
ByLayer
62
256
370
-1
100
AcDbLine
10
91.5
20
398
11
92.9
21
398
0
LINE
5
303
100
AcDbEntity
8
IZREZ
6
ByLayer
62
256
370
-1
100
AcDbLine
10
92.9
20
398
11
92.9
21
400
0
LINE
5
304
100
AcDbEntity
8
IZREZ
6
ByLayer
62
256
370
-1
100
AcDbLine
10
92.9
20
400
11
91.5
21
400
0
LINE
5
305
100
AcDbEntity
8
IZREZ
6
ByLayer
62
256
370
-1
100
AcDbLine
10
91.5
20
400
11
91.5
21
407
0
LINE
5
306
100
AcDbEntity
8
IZREZ
6
ByLayer
62
256
370
-1
100
AcDbLine
10
91.5
20
407
11
110
21
407
0
LINE
5
307
100
AcDbEntity
8
IZREZ
6
ByLayer
62
256
370
-1
100
AcDbLine
10
110
20
407
11
110
21
413
0
LINE
5
308
100
AcDbEntity
8
IZREZ
6
ByLayer
62
256
370
-1
100
AcDbLine
10
110
20
413
11
120
21
413
0
LINE
5
309
100
AcDbEntity
8
IZREZ
6
ByLayer
62
256
370
-1
100
AcDbLine
10
120
20
413
11
120
21
407
0
LINE
5
30A
100
AcDbEntity
8
IZREZ
6
ByLayer
62
256
370
-1
100
AcDbLine
10
163
20
407
11
163
21
413
0
LINE
5
30B
100
AcDbEntity
8
IZREZ
6
ByLayer
62
256
370
-1
100
AcDbLine
10
163
20
413
11
173
21
413
0
LINE
5
30C
100
AcDbEntity
8
IZREZ
6
ByLayer
62
256
370
-1
100
AcDbLine
10
173
20
413
11
173
21
407
0
LINE
5
30D
100
AcDbEntity
8
IZREZ
6
ByLayer
62
256
370
-1
100
AcDbLine
10
173
20
407
11
191.5
21
407
0
LINE
5
30E
100
AcDbEntity
8
IZREZ
6
ByLayer
62
256
370
-1
100
AcDbLine
10
191.5
20
407
11
191.5
21
400
0
LINE
5
30F
100
AcDbEntity
8
IZREZ
6
ByLayer
62
256
370
-1
100
AcDbLine
10
191.5
20
400
11
190.1
21
400
0
LINE
5
310
100
AcDbEntity
8
IZREZ
6
ByLayer
62
256
370
-1
100
AcDbLine
10
190.1
20
400
11
190.1
21
398
0
LINE
5
311
100
AcDbEntity
8
IZREZ
6
ByLayer
62
256
370
-1
100
AcDbLine
10
190.1
20
398
11
191.5
21
398
0
LINE
5
312
100
AcDbEntity
8
IZREZ
6
ByLayer
62
256
370
-1
100
AcDbLine
10
191.5
20
398
11
191.5
21
396.897247359
0
LINE
5
313
100
AcDbEntity
8
IZREZ
6
ByLayer
62
256
370
-1
100
AcDbLine
10
194.5
20
396.897247359
11
194.5
21
398
0
LINE
5
314
100
AcDbEntity
8
IZREZ
6
ByLayer
62
256
370
-1
100
AcDbLine
10
194.5
20
398
11
195.9
21
398
0
LINE
5
315
100
AcDbEntity
8
IZREZ
6
ByLayer
62
256
370
-1
100
AcDbLine
10
195.9
20
398
11
195.9
21
400
0
LINE
5
316
100
AcDbEntity
8
IZREZ
6
ByLayer
62
256
370
-1
100
AcDbLine
10
195.9
20
400
11
194.5
21
400
0
LINE
5
317
100
AcDbEntity
8
IZREZ
6
ByLayer
62
256
370
-1
100
AcDbLine
10
194.5
20
400
11
194.5
21
407
0
LINE
5
318
100
AcDbEntity
8
IZREZ
6
ByLayer
62
256
370
-1
100
AcDbLine
10
194.5
20
407
11
213
21
407
0
LINE
5
319
100
AcDbEntity
8
IZREZ
6
ByLayer
62
256
370
-1
100
AcDbLine
10
213
20
407
11
213
21
413
0
LINE
5
31A
100
AcDbEntity
8
IZREZ
6
ByLayer
62
256
370
-1
100
AcDbLine
10
213
20
413
11
223
21
413
0
LINE
5
31B
100
AcDbEntity
8
IZREZ
6
ByLayer
62
256
370
-1
100
AcDbLine
10
223
20
413
11
223
21
407
0
LINE
5
31C
100
AcDbEntity
8
IZREZ
6
ByLayer
62
256
370
-1
100
AcDbLine
10
223
20
407
11
256.5
21
407
0
LINE
5
31D
100
AcDbEntity
8
IZREZ
6
ByLayer
62
256
370
-1
100
AcDbLine
10
256.5
20
407
11
256.5
21
400
0
LINE
5
31E
100
AcDbEntity
8
IZREZ
6
ByLayer
62
256
370
-1
100
AcDbLine
10
256.5
20
400
11
255.1
21
400
0
LINE
5
31F
100
AcDbEntity
8
IZREZ
6
ByLayer
62
256
370
-1
100
AcDbLine
10
255.1
20
400
11
255.1
21
398
0
LINE
5
320
100
AcDbEntity
8
IZREZ
6
ByLayer
62
256
370
-1
100
AcDbLine
10
255.1
20
398
11
256.5
21
398
0
LINE
5
321
100
AcDbEntity
8
IZREZ
6
ByLayer
62
256
370
-1
100
AcDbLine
10
256.5
20
398
11
256.5
21
392
0
LINE
5
322
100
AcDbEntity
8
IZREZ
6
ByLayer
62
256
370
-1
100
AcDbLine
10
256.5
20
392
11
258
21
392
0
LINE
5
323
100
AcDbEntity
8
IZREZ
6
ByLayer
62
256
370
-1
100
AcDbLine
10
258
20
392
11
259.5
21
392
0
LINE
5
324
100
AcDbEntity
8
IZREZ
6
ByLayer
62
256
370
-1
100
AcDbLine
10
259.5
20
392
11
259.5
21
398
0
LINE
5
325
100
AcDbEntity
8
IZREZ
6
ByLayer
62
256
370
-1
100
AcDbLine
10
259.5
20
398
11
260.9
21
398
0
LINE
5
326
100
AcDbEntity
8
IZREZ
6
ByLayer
62
256
370
-1
100
AcDbLine
10
260.9
20
398
11
260.9
21
400
0
LINE
5
327
100
AcDbEntity
8
IZREZ
6
ByLayer
62
256
370
-1
100
AcDbLine
10
260.9
20
400
11
259.5
21
400
0
LINE
5
328
100
AcDbEntity
8
IZREZ
6
ByLayer
62
256
370
-1
100
AcDbLine
10
259.5
20
400
11
259.5
21
407
0
LINE
5
329
100
AcDbEntity
8
IZREZ
6
ByLayer
62
256
370
-1
100
AcDbLine
10
259.5
20
407
11
278
21
407
0
LINE
5
32A
100
AcDbEntity
8
IZREZ
6
ByLayer
62
256
370
-1
100
AcDbLine
10
278
20
407
11
278
21
413
0
LINE
5
32B
100
AcDbEntity
8
IZREZ
6
ByLayer
62
256
370
-1
100
AcDbLine
10
278
20
413
11
288
21
413
0
LINE
5
32C
100
AcDbEntity
8
IZREZ
6
ByLayer
62
256
370
-1
100
AcDbLine
10
288
20
413
11
288
21
407
0
LINE
5
32D
100
AcDbEntity
8
IZREZ
6
ByLayer
62
256
370
-1
100
AcDbLine
10
288
20
407
11
302
21
407
0
LINE
5
32E
100
AcDbEntity
8
IZREZ
6
ByLayer
62
256
370
-1
100
AcDbLine
10
302
20
407
11
302
21
394
0
LINE
5
32F
100
AcDbEntity
8
IZREZ
6
ByLayer
62
256
370
-1
100
AcDbLine
10
302
20
394
11
320
21
394
0
LINE
5
330
100
AcDbEntity
8
IZREZ
6
ByLayer
62
256
370
-1
100
AcDbLine
10
320
20
394
11
320
21
407
0
LINE
5
331
100
AcDbEntity
8
IZREZ
6
ByLayer
62
256
370
-1
100
AcDbLine
10
320
20
407
11
326.5
21
407
0
LINE
5
332
100
AcDbEntity
8
IZREZ
6
ByLayer
62
256
370
-1
100
AcDbLine
10
326.5
20
407
11
336.5
21
407
0
LINE
5
333
100
AcDbEntity
8
IZREZ
6
ByLayer
62
256
370
-1
100
AcDbLine
10
336.5
20
407
11
336.5
21
400
0
LINE
5
334
100
AcDbEntity
8
IZREZ
6
ByLayer
62
256
370
-1
100
AcDbLine
10
336.5
20
400
11
335.1
21
400
0
LINE
5
335
100
AcDbEntity
8
IZREZ
6
ByLayer
62
256
370
-1
100
AcDbLine
10
335.1
20
400
11
335.1
21
398
0
LINE
5
336
100
AcDbEntity
8
IZREZ
6
ByLayer
62
256
370
-1
100
AcDbLine
10
335.1
20
398
11
336.5
21
398
0
LINE
5
337
100
AcDbEntity
8
IZREZ
6
ByLayer
62
256
370
-1
100
AcDbLine
10
336.5
20
398
11
336.5
21
392
0
LINE
5
338
100
AcDbEntity
8
IZREZ
6
ByLayer
62
256
370
-1
100
AcDbLine
10
336.5
20
392
11
338
21
392
0
LINE
5
339
100
AcDbEntity
8
IZREZ
6
ByLayer
62
256
370
-1
100
AcDbLine
10
338
20
392
11
339.5
21
392
0
LINE
5
33A
100
AcDbEntity
8
IZREZ
6
ByLayer
62
256
370
-1
100
AcDbLine
10
339.5
20
392
11
339.5
21
398
0
LINE
5
33B
100
AcDbEntity
8
IZREZ
6
ByLayer
62
256
370
-1
100
AcDbLine
10
339.5
20
398
11
340.9
21
398
0
LINE
5
33C
100
AcDbEntity
8
IZREZ
6
ByLayer
62
256
370
-1
100
AcDbLine
10
340.9
20
398
11
340.9
21
400
0
LINE
5
33D
100
AcDbEntity
8
IZREZ
6
ByLayer
62
256
370
-1
100
AcDbLine
10
340.9
20
400
11
339.5
21
400
0
LINE
5
33E
100
AcDbEntity
8
IZREZ
6
ByLayer
62
256
370
-1
100
AcDbLine
10
339.5
20
400
11
339.5
21
407
0
LINE
5
33F
100
AcDbEntity
8
IZREZ
6
ByLayer
62
256
370
-1
100
AcDbLine
10
339.5
20
407
11
358
21
407
0
LINE
5
340
100
AcDbEntity
8
IZREZ
6
ByLayer
62
256
370
-1
100
AcDbLine
10
358
20
407
11
339.5
21
407
0
DIMENSION
5
341
100
AcDbEntity
8
0
6
ByLayer
62
256
370
-1
100
AcDbDimension
2
*D34
10
-198.05
20
382
30
0
11
-202.225
21
385.25
31
0
70
33
71
5
3
Standard
53
0
210
0
220
0
230
1
100
AcDbAlignedDimension
13
-206.4
23
382
33
0
14
-198.05
24
382
34
0
0
DIMENSION
5
342
100
AcDbEntity
8
0
6
ByLayer
62
256
370
-1
100
AcDbDimension
2
*D35
10
-206.4
20
376
30
0
11
-208
21
379.25
31
0
70
33
71
5
3
Standard
53
0
210
0
220
0
230
1
100
AcDbAlignedDimension
13
-209.6
23
382
33
0
14
-206.4
24
382
34
0
0
DIMENSION
5
343
100
AcDbEntity
8
0
6
ByLayer
62
256
370
-1
100
AcDbDimension
2
*D36
10
-176.4
20
390
30
0
11
-191.4
21
393.25
31
0
70
33
71
5
3
Standard
53
0
210
0
220
0
230
1
100
AcDbAlignedDimension
13
-206.4
23
390
33
0
14
-176.4
24
390
34
0
0
DIMENSION
5
344
100
AcDbEntity
8
0
6
ByLayer
62
256
370
-1
100
AcDbDimension
2
*D37
10
-187.95
20
382
30
0
11
-193
21
385.25
31
0
70
33
71
5
3
Standard
53
0
210
0
220
0
230
1
100
AcDbAlignedDimension
13
-198.05
23
390
33
0
14
-187.95
24
390
34
0
0
POINT
5
345
100
AcDbEntity
8
0
6
ByLayer
62
256
370
-1
100
AcDbPoint
10
303
20
70
0
CIRCLE
5
346
100
AcDbEntity
8
HOLES
6
ByLayer
62
256
370
-1
100
AcDbCircle
10
303
20
70
40
1.6
0
CIRCLE
5
347
100
AcDbEntity
8
HOLES
6
ByLayer
62
256
370
-1
100
AcDbCircle
10
388
20
70
40
1.6
0
CIRCLE
5
348
100
AcDbEntity
8
HOLES
6
ByLayer
62
256
370
-1
100
AcDbCircle
10
303
20
196
40
1.6
0
CIRCLE
5
349
100
AcDbEntity
8
HOLES
6
ByLayer
62
256
370
-1
100
AcDbCircle
10
388
20
196
40
1.6
0
LINE
5
34A
100
AcDbEntity
8
GRAVIRANJE
6
ByLayer
62
256
370
-1
100
AcDbLine
10
293
20
60
11
398
21
60
0
LINE
5
34B
100
AcDbEntity
8
GRAVIRANJE
6
ByLayer
62
256
370
-1
100
AcDbLine
10
398
20
60
11
398
21
266
0
LINE
5
34C
100
AcDbEntity
8
GRAVIRANJE
6
ByLayer
62
256
370
-1
100
AcDbLine
10
398
20
266
11
293
21
266
0
LINE
5
34D
100
AcDbEntity
8
GRAVIRANJE
6
ByLayer
62
256
370
-1
100
AcDbLine
10
293
20
266
11
293
21
60
0
MTEXT
5
34E
100
AcDbEntity
8
GRAVIRANJE
6
ByLayer
62
256
370
-1
100
AcDbMText
10
313
20
80
30
0
40
5
41
28.74999894
71
1
72
1
1
24V PSU
7
standard
210
0
220
0
230
1
50
0
73
2
44
1
0
LINE
5
34F
100
AcDbEntity
8
IZREZ
6
ByLayer
62
256
370
-1
100
AcDbLine
10
293
20
10
11
293
21
40
0
LINE
5
350
100
AcDbEntity
8
IZREZ
6
ByLayer
62
256
370
-1
100
AcDbLine
10
293
20
10
11
298
21
10
0
POINT
5
351
100
AcDbEntity
8
0
6
ByLayer
62
256
370
-1
100
AcDbPoint
10
228
20
10
0
DIMENSION
5
352
100
AcDbEntity
8
0
6
ByLayer
62
256
370
-1
100
AcDbDimension
2
*D38
10
10
20
-20
30
0
11
119
21
-16.75
31
0
70
33
71
5
72
0
3
Standard
53
0
210
0
220
0
230
1
100
AcDbAlignedDimension
13
228
23
10
33
0
14
10
24
10
34
0
0
DIMENSION
5
353
100
AcDbEntity
8
0
6
ByLayer
62
256
370
-1
100
AcDbDimension
2
*D39
10
293
20
10
30
0
11
260.5
21
13.25
31
0
70
33
71
5
72
0
3
Standard
53
0
210
0
220
0
230
1
100
AcDbAlignedDimension
13
228
23
10
33
0
14
293
24
10
34
0
0
LINE
5
354
100
AcDbEntity
8
IZREZ
6
ByLayer
62
256
370
-1
100
AcDbLine
10
138
20
40
11
138
21
10
0
LINE
5
355
100
AcDbEntity
8
IZREZ
6
ByLayer
62
256
370
-1
100
AcDbLine
10
293
20
40
11
138
21
40
0
LINE
5
356
100
AcDbEntity
8
IZREZ
6
ByLayer
62
256
370
-1
100
AcDbLine
10
138
20
10
11
120
21
10
0
DIMENSION
5
357
100
AcDbEntity
8
0
6
ByLayer
62
256
370
-1
100
AcDbDimension
2
*D40
10
138
20
10
30
0
11
183
21
13.25
31
0
70
33
71
5
72
0
3
Standard
53
0
210
0
220
0
230
1
100
AcDbAlignedDimension
13
228
23
10
33
0
14
138
24
10
34
0
0
CIRCLE
5
358
100
AcDbEntity
8
HOLES
6
ByLayer
62
256
370
-1
100
AcDbCircle
10
230
20
180
40
1.5
0
CIRCLE
5
359
100
AcDbEntity
8
HOLES
6
ByLayer
62
256
370
-1
100
AcDbCircle
10
230
20
122
40
1.5
0
CIRCLE
5
35A
100
AcDbEntity
8
GRAVIRANJE
6
ByLayer
62
256
370
-1
100
AcDbCircle
10
230
20
122
40
2.5
0
CIRCLE
5
35B
100
AcDbEntity
8
HOLES
6
ByLayer
62
256
370
-1
100
AcDbCircle
10
181
20
180
40
1.5
0
CIRCLE
5
35C
100
AcDbEntity
8
GRAVIRANJE
6
ByLayer
62
256
370
-1
100
AcDbCircle
10
181
20
180
40
2.5
0
CIRCLE
5
35D
100
AcDbEntity
8
HOLES
6
ByLayer
62
256
370
-1
100
AcDbCircle
10
181
20
122
40
1.5
0
CIRCLE
5
35E
100
AcDbEntity
8
GRAVIRANJE
6
ByLayer
62
256
370
-1
100
AcDbCircle
10
181
20
122
40
2.5
0
CIRCLE
5
35F
100
AcDbEntity
8
GRAVIRANJE
6
ByLayer
62
256
370
-1
100
AcDbCircle
10
230
20
180
40
2.5
0
LINE
5
360
100
AcDbEntity
8
GRAVIRANJE
6
ByLayer
62
256
370
-1
100
AcDbLine
10
230
20
183
11
181
21
183
0
LINE
5
361
100
AcDbEntity
8
GRAVIRANJE
6
ByLayer
62
256
370
-1
100
AcDbLine
10
230
20
98
11
181
21
98
0
LINE
5
362
100
AcDbEntity
8
GRAVIRANJE
6
ByLayer
62
256
370
-1
100
AcDbLine
10
178
20
180
11
178
21
101
0
LINE
5
363
100
AcDbEntity
8
GRAVIRANJE
6
ByLayer
62
256
370
-1
100
AcDbLine
10
233
20
101
11
233
21
180
0
ARC
5
364
100
AcDbEntity
8
GRAVIRANJE
6
ByLayer
62
256
370
-1
100
AcDbCircle
10
230
20
180
40
3
100
AcDbArc
50
360
51
90
0
ARC
5
365
100
AcDbEntity
8
GRAVIRANJE
6
ByLayer
62
256
370
-1
100
AcDbCircle
10
181
20
180
40
3
100
AcDbArc
50
90
51
180
0
ARC
5
366
100
AcDbEntity
8
GRAVIRANJE
6
ByLayer
62
256
370
-1
100
AcDbCircle
10
181
20
101
40
3
100
AcDbArc
50
180.000060921
51
270
0
ARC
5
367
100
AcDbEntity
8
GRAVIRANJE
6
ByLayer
62
256
370
-1
100
AcDbCircle
10
230
20
101
40
3
100
AcDbArc
50
270
51
360
0
POINT
5
368
100
AcDbEntity
8
0
6
ByLayer
62
256
370
-1
100
AcDbPoint
10
270
20
270
0
POINT
5
369
100
AcDbEntity
8
0
6
ByLayer
62
256
370
-1
100
AcDbPoint
10
230
20
270
0
POINT
5
36A
100
AcDbEntity
8
0
6
ByLayer
62
256
370
-1
100
AcDbPoint
10
230
20
230
0
POINT
5
36B
100
AcDbEntity
8
0
6
ByLayer
62
256
370
-1
100
AcDbPoint
10
270
20
230
0
CIRCLE
5
36C
100
AcDbEntity
8
HOLES
6
ByLayer
62
256
370
-1
100
AcDbCircle
10
270
20
270
40
1.5
0
CIRCLE
5
36D
100
AcDbEntity
8
HOLES
6
ByLayer
62
256
370
-1
100
AcDbCircle
10
230
20
270
40
1.5
0
CIRCLE
5
36E
100
AcDbEntity
8
HOLES
6
ByLayer
62
256
370
-1
100
AcDbCircle
10
230
20
230
40
1.5
0
CIRCLE
5
36F
100
AcDbEntity
8
HOLES
6
ByLayer
62
256
370
-1
100
AcDbCircle
10
270
20
230
40
1.5
0
ARC
5
370
100
AcDbEntity
8
GRAVIRANJE
6
ByLayer
62
256
370
-1
100
AcDbCircle
10
270
20
270
40
5
100
AcDbArc
50
0
51
90
0
LINE
5
371
100
AcDbEntity
8
GRAVIRANJE
6
ByLayer
62
256
370
-1
100
AcDbLine
10
230
20
275
11
270
21
275
0
ARC
5
372
100
AcDbEntity
8
GRAVIRANJE
6
ByLayer
62
256
370
-1
100
AcDbCircle
10
230
20
270
40
5
100
AcDbArc
50
90
51
180
0
LINE
5
373
100
AcDbEntity
8
GRAVIRANJE
6
ByLayer
62
256
370
-1
100
AcDbLine
10
225
20
230
11
225
21
270
0
ARC
5
374
100
AcDbEntity
8
GRAVIRANJE
6
ByLayer
62
256
370
-1
100
AcDbCircle
10
230
20
230
40
5
100
AcDbArc
50
180
51
270
0
LINE
5
375
100
AcDbEntity
8
GRAVIRANJE
6
ByLayer
62
256
370
-1
100
AcDbLine
10
270
20
225
11
230
21
225
0
LINE
5
376
100
AcDbEntity
8
GRAVIRANJE
6
ByLayer
62
256
370
-1
100
AcDbLine
10
275
20
270
11
275
21
230
0
ARC
5
377
100
AcDbEntity
8
GRAVIRANJE
6
ByLayer
62
256
370
-1
100
AcDbCircle
10
270
20
230
40
5
100
AcDbArc
50
270
51
0
0
POINT
5
378
100
AcDbEntity
8
0
6
ByLayer
62
256
370
-1
100
AcDbPoint
10
190
20
270
0
POINT
5
379
100
AcDbEntity
8
0
6
ByLayer
62
256
370
-1
100
AcDbPoint
10
150
20
270
0
POINT
5
37A
100
AcDbEntity
8
0
6
ByLayer
62
256
370
-1
100
AcDbPoint
10
150
20
230
0
POINT
5
37B
100
AcDbEntity
8
0
6
ByLayer
62
256
370
-1
100
AcDbPoint
10
190
20
230
0
CIRCLE
5
37C
100
AcDbEntity
8
HOLES
6
ByLayer
62
256
370
-1
100
AcDbCircle
10
190
20
270
40
1.5
0
CIRCLE
5
37D
100
AcDbEntity
8
HOLES
6
ByLayer
62
256
370
-1
100
AcDbCircle
10
150
20
270
40
1.5
0
CIRCLE
5
37E
100
AcDbEntity
8
HOLES
6
ByLayer
62
256
370
-1
100
AcDbCircle
10
150
20
230
40
1.5
0
CIRCLE
5
37F
100
AcDbEntity
8
HOLES
6
ByLayer
62
256
370
-1
100
AcDbCircle
10
190
20
230
40
1.5
0
ARC
5
380
100
AcDbEntity
8
GRAVIRANJE
6
ByLayer
62
256
370
-1
100
AcDbCircle
10
190
20
270
40
5
100
AcDbArc
50
0
51
90
0
LINE
5
381
100
AcDbEntity
8
GRAVIRANJE
6
ByLayer
62
256
370
-1
100
AcDbLine
10
150
20
275
11
190
21
275
0
ARC
5
382
100
AcDbEntity
8
GRAVIRANJE
6
ByLayer
62
256
370
-1
100
AcDbCircle
10
150
20
270
40
5
100
AcDbArc
50
90
51
180
0
LINE
5
383
100
AcDbEntity
8
GRAVIRANJE
6
ByLayer
62
256
370
-1
100
AcDbLine
10
145
20
230
11
145
21
270
0
ARC
5
384
100
AcDbEntity
8
GRAVIRANJE
6
ByLayer
62
256
370
-1
100
AcDbCircle
10
150
20
230
40
5
100
AcDbArc
50
180
51
270
0
LINE
5
385
100
AcDbEntity
8
GRAVIRANJE
6
ByLayer
62
256
370
-1
100
AcDbLine
10
190
20
225
11
150
21
225
0
LINE
5
386
100
AcDbEntity
8
GRAVIRANJE
6
ByLayer
62
256
370
-1
100
AcDbLine
10
195
20
270
11
195
21
230
0
ARC
5
387
100
AcDbEntity
8
GRAVIRANJE
6
ByLayer
62
256
370
-1
100
AcDbCircle
10
190
20
230
40
5
100
AcDbArc
50
270
51
0
0
CIRCLE
5
388
100
AcDbEntity
8
HOLES
6
ByLayer
62
256
370
-1
100
AcDbCircle
10
127
20
250
40
1.6
0
CIRCLE
5
389
100
AcDbEntity
8
HOLES
6
ByLayer
62
256
370
-1
100
AcDbCircle
10
133
20
250
40
1.6
0
CIRCLE
5
38A
100
AcDbEntity
8
HOLES
6
ByLayer
62
256
370
-1
100
AcDbCircle
10
127
20
200
40
1.6
0
CIRCLE
5
38B
100
AcDbEntity
8
HOLES
6
ByLayer
62
256
370
-1
100
AcDbCircle
10
133
20
200
40
1.6
0
CIRCLE
5
38C
100
AcDbEntity
8
HOLES
6
ByLayer
62
256
370
-1
100
AcDbCircle
10
127
20
150
40
1.6
0
CIRCLE
5
38D
100
AcDbEntity
8
HOLES
6
ByLayer
62
256
370
-1
100
AcDbCircle
10
133
20
150
40
1.6
0
CIRCLE
5
38E
100
AcDbEntity
8
HOLES
6
ByLayer
62
256
370
-1
100
AcDbCircle
10
127
20
100
40
1.6
0
CIRCLE
5
38F
100
AcDbEntity
8
HOLES
6
ByLayer
62
256
370
-1
100
AcDbCircle
10
133
20
100
40
1.6
0
CIRCLE
5
390
100
AcDbEntity
8
HOLES
6
ByLayer
62
256
370
-1
100
AcDbCircle
10
200
20
297
40
1.6
0
CIRCLE
5
391
100
AcDbEntity
8
HOLES
6
ByLayer
62
256
370
-1
100
AcDbCircle
10
200
20
303
40
1.6
0
CIRCLE
5
392
100
AcDbEntity
8
HOLES
6
ByLayer
62
256
370
-1
100
AcDbCircle
10
150
20
297
40
1.6
0
CIRCLE
5
393
100
AcDbEntity
8
HOLES
6
ByLayer
62
256
370
-1
100
AcDbCircle
10
150
20
303
40
1.6
0
CIRCLE
5
394
100
AcDbEntity
8
HOLES
6
ByLayer
62
256
370
-1
100
AcDbCircle
10
382.121320344
20
377.878679656
40
1.6
0
CIRCLE
5
395
100
AcDbEntity
8
HOLES
6
ByLayer
62
256
370
-1
100
AcDbCircle
10
377.878679656
20
382.121320344
40
1.6
0
CIRCLE
5
396
100
AcDbEntity
8
HOLES
6
ByLayer
62
256
370
-1
100
AcDbCircle
10
352.121320344
20
347.878679656
40
1.6
0
CIRCLE
5
397
100
AcDbEntity
8
HOLES
6
ByLayer
62
256
370
-1
100
AcDbCircle
10
347.878679656
20
352.121320344
40
1.6
0
CIRCLE
5
398
100
AcDbEntity
8
HOLES
6
ByLayer
62
256
370
-1
100
AcDbCircle
10
322.121320344
20
317.878679656
40
1.6
0
CIRCLE
5
399
100
AcDbEntity
8
HOLES
6
ByLayer
62
256
370
-1
100
AcDbCircle
10
317.878679656
20
322.121320344
40
1.6
0
CIRCLE
5
39A
100
AcDbEntity
8
HOLES
6
ByLayer
62
256
370
-1
100
AcDbCircle
10
250
20
297
40
1.6
0
CIRCLE
5
39B
100
AcDbEntity
8
HOLES
6
ByLayer
62
256
370
-1
100
AcDbCircle
10
250
20
303
40
1.6
0
CIRCLE
5
39C
100
AcDbEntity
8
HOLES
6
ByLayer
62
256
370
-1
100
AcDbCircle
10
300
20
297
40
1.6
0
CIRCLE
5
39D
100
AcDbEntity
8
HOLES
6
ByLayer
62
256
370
-1
100
AcDbCircle
10
300
20
303
40
1.6
0
CIRCLE
5
39E
100
AcDbEntity
8
HOLES
6
ByLayer
62
256
370
-1
100
AcDbCircle
10
42.1213203436
20
382.121320344
40
1.6
0
CIRCLE
5
39F
100
AcDbEntity
8
HOLES
6
ByLayer
62
256
370
-1
100
AcDbCircle
10
37.8786796564
20
377.878679656
40
1.6
0
CIRCLE
5
3A0
100
AcDbEntity
8
HOLES
6
ByLayer
62
256
370
-1
100
AcDbCircle
10
62.1213203436
20
362.121320344
40
1.6
0
CIRCLE
5
3A1
100
AcDbEntity
8
HOLES
6
ByLayer
62
256
370
-1
100
AcDbCircle
10
57.8786796564
20
357.878679656
40
1.6
0
CIRCLE
5
3A2
100
AcDbEntity
8
HOLES
6
ByLayer
62
256
370
-1
100
AcDbCircle
10
92.1213203436
20
332.121320344
40
1.6
0
CIRCLE
5
3A3
100
AcDbEntity
8
HOLES
6
ByLayer
62
256
370
-1
100
AcDbCircle
10
87.8786796564
20
327.878679656
40
1.6
0
CIRCLE
5
3A4
100
AcDbEntity
8
HOLES
6
ByLayer
62
256
370
-1
100
AcDbCircle
10
122.121320344
20
302.121320344
40
1.6
0
CIRCLE
5
3A5
100
AcDbEntity
8
HOLES
6
ByLayer
62
256
370
-1
100
AcDbCircle
10
117.878679656
20
297.878679656
40
1.6
0
CIRCLE
5
3A6
100
AcDbEntity
8
HOLES
6
ByLayer
62
256
370
-1
100
AcDbCircle
10
160
20
67
40
1.6
0
CIRCLE
5
3A7
100
AcDbEntity
8
HOLES
6
ByLayer
62
256
370
-1
100
AcDbCircle
10
160
20
73
40
1.6
0
CIRCLE
5
3A8
100
AcDbEntity
8
HOLES
6
ByLayer
62
256
370
-1
100
AcDbCircle
10
200
20
67
40
1.6
0
CIRCLE
5
3A9
100
AcDbEntity
8
HOLES
6
ByLayer
62
256
370
-1
100
AcDbCircle
10
200
20
73
40
1.6
0
CIRCLE
5
3AA
100
AcDbEntity
8
HOLES
6
ByLayer
62
256
370
-1
100
AcDbCircle
10
250
20
67
40
1.6
0
CIRCLE
5
3AB
100
AcDbEntity
8
HOLES
6
ByLayer
62
256
370
-1
100
AcDbCircle
10
250
20
73
40
1.6
0
CIRCLE
5
3AC
100
AcDbEntity
8
HOLES
6
ByLayer
62
256
370
-1
100
AcDbCircle
10
42.1213203436
20
37.8786796564
40
1.6
0
CIRCLE
5
3AD
100
AcDbEntity
8
HOLES
6
ByLayer
62
256
370
-1
100
AcDbCircle
10
37.8786796564
20
42.1213203436
40
1.6
0
CIRCLE
5
3AE
100
AcDbEntity
8
HOLES
6
ByLayer
62
256
370
-1
100
AcDbCircle
10
72.1213203436
20
67.8786796564
40
1.6
0
CIRCLE
5
3AF
100
AcDbEntity
8
HOLES
6
ByLayer
62
256
370
-1
100
AcDbCircle
10
67.8786796564
20
72.1213203436
40
1.6
0
CIRCLE
5
3B0
100
AcDbEntity
8
HOLES
6
ByLayer
62
256
370
-1
100
AcDbCircle
10
102.121320344
20
97.8786796564
40
1.6
0
CIRCLE
5
3B1
100
AcDbEntity
8
HOLES
6
ByLayer
62
256
370
-1
100
AcDbCircle
10
97.8786796564
20
102.121320344
40
1.6
0
CIRCLE
5
3B2
100
AcDbEntity
8
HOLES
6
ByLayer
62
256
370
-1
100
AcDbCircle
10
385.121320344
20
35.1213203436
40
1.6
0
CIRCLE
5
3B3
100
AcDbEntity
8
HOLES
6
ByLayer
62
256
370
-1
100
AcDbCircle
10
380.878679656
20
30.8786796564
40
1.6
0
ARC
5
3B4
100
AcDbEntity
8
HOLES
6
ByLayer
62
256
370
-1
100
AcDbCircle
10
193
20
386
40
11
100
AcDbArc
50
97.8375
51
82.1625
0
LINE
5
3B5
100
AcDbEntity
8
GRAVIRANJE
6
ByLayer
62
256
370
-1
100
AcDbLine
10
380
20
380
11
320
21
320
0
LINE
5
3B6
100
AcDbEntity
8
GRAVIRANJE
6
ByLayer
62
256
370
-1
100
AcDbLine
10
300
20
300
11
150
21
300
0
LINE
5
3B7
100
AcDbEntity
8
GRAVIRANJE
6
ByLayer
62
256
370
-1
100
AcDbLine
10
120
20
300
11
40
21
380
0
LINE
5
3B8
100
AcDbEntity
8
GRAVIRANJE
6
ByLayer
62
256
370
-1
100
AcDbLine
10
130
20
250
11
130
21
100
0
LINE
5
3B9
100
AcDbEntity
8
GRAVIRANJE
6
ByLayer
62
256
370
-1
100
AcDbLine
10
160
20
70
11
250
21
70
0
LINE
5
3BA
100
AcDbEntity
8
GRAVIRANJE
6
ByLayer
62
256
370
-1
100
AcDbLine
10
310
20
40
11
350
21
40
0
LINE
5
3BB
100
AcDbEntity
8
GRAVIRANJE
6
ByLayer
62
256
370
-1
100
AcDbLine
10
350
20
40
11
362
21
40
0
LINE
5
3BC
100
AcDbEntity
8
GRAVIRANJE
6
ByLayer
62
256
370
-1
100
AcDbLine
10
383
20
33
11
376
21
40
0
LINE
5
3BD
100
AcDbEntity
8
GRAVIRANJE
6
ByLayer
62
256
370
-1
100
AcDbLine
10
376
20
40
11
362
21
40
0
CIRCLE
5
3BE
100
AcDbEntity
8
HOLES
6
ByLayer
62
256
370
-1
100
AcDbCircle
10
282.121320344
20
62.1213203436
40
1.6
0
CIRCLE
5
3BF
100
AcDbEntity
8
HOLES
6
ByLayer
62
256
370
-1
100
AcDbCircle
10
277.878679656
20
57.8786796564
40
1.6
0
LINE
5
3C0
100
AcDbEntity
8
GRAVIRANJE
6
ByLayer
62
256
370
-1
100
AcDbLine
10
280
20
60
11
270
21
70
0
LINE
5
3C1
100
AcDbEntity
8
GRAVIRANJE
6
ByLayer
62
256
370
-1
100
AcDbLine
10
270
20
70
11
250
21
70
0
LINE
5
3C2
100
AcDbEntity
8
GRAVIRANJE
6
ByLayer
62
256
370
-1
100
AcDbLine
10
280
20
60
11
300
21
40
0
LINE
5
3C3
100
AcDbEntity
8
GRAVIRANJE
6
ByLayer
62
256
370
-1
100
AcDbLine
10
300
20
40
11
310
21
40
0
CIRCLE
5
3C4
100
AcDbEntity
8
HOLES
6
ByLayer
62
256
370
-1
100
AcDbCircle
10
300
20
37
40
1.6
0
CIRCLE
5
3C5
100
AcDbEntity
8
HOLES
6
ByLayer
62
256
370
-1
100
AcDbCircle
10
300
20
43
40
1.6
0
CIRCLE
5
3C6
100
AcDbEntity
8
HOLES
6
ByLayer
62
256
370
-1
100
AcDbCircle
10
370
20
37
40
1.6
0
CIRCLE
5
3C7
100
AcDbEntity
8
HOLES
6
ByLayer
62
256
370
-1
100
AcDbCircle
10
370
20
43
40
1.6
0
CIRCLE
5
3C8
100
AcDbEntity
8
HOLES
6
ByLayer
62
256
370
-1
100
AcDbCircle
10
325
20
37
40
1.6
0
CIRCLE
5
3C9
100
AcDbEntity
8
HOLES
6
ByLayer
62
256
370
-1
100
AcDbCircle
10
325
20
43
40
1.6
0
CIRCLE
5
3CA
100
AcDbEntity
8
HOLES
6
ByLayer
62
256
370
-1
100
AcDbCircle
10
348
20
37
40
1.6
0
CIRCLE
5
3CB
100
AcDbEntity
8
HOLES
6
ByLayer
62
256
370
-1
100
AcDbCircle
10
348
20
43
40
1.6
0
LINE
5
3CC
100
AcDbEntity
8
GRAVIRANJE
6
ByLayer
62
256
370
-1
100
AcDbLine
10
40
20
40
11
100
21
100
0
LINE
5
3CD
100
AcDbEntity
8
IZREZ
6
ByLayer
62
256
370
-1
100
AcDbLine
10
140
20
407
11
140
21
404
0
LINE
5
3CE
100
AcDbEntity
8
IZREZ
6
ByLayer
62
256
370
-1
100
AcDbLine
10
150
20
407
11
150
21
404
0
ARC
5
3CF
100
AcDbEntity
8
IZREZ
6
ByLayer
62
256
370
-1
100
AcDbCircle
10
145
20
404
40
5
100
AcDbArc
50
180
51
0
0
LINE
5
3D0
100
AcDbEntity
8
IZREZ
6
ByLayer
62
256
370
-1
100
AcDbLine
10
150
20
407
11
163
21
407
0
LINE
5
3D1
100
AcDbEntity
8
IZREZ
6
ByLayer
62
256
370
-1
100
AcDbLine
10
140
20
407
11
120
21
407
0
CIRCLE
5
3D2
100
AcDbEntity
8
HOLES
6
ByLayer
62
256
370
-1
100
AcDbCircle
10
142
20
390
40
1.6
0
CIRCLE
5
3D3
100
AcDbEntity
8
HOLES
6
ByLayer
62
256
370
-1
100
AcDbCircle
10
148
20
390
40
1.6
0
CIRCLE
5
3D4
100
AcDbEntity
8
HOLES
6
ByLayer
62
256
370
-1
100
AcDbCircle
10
142
20
310
40
1.6
0
CIRCLE
5
3D5
100
AcDbEntity
8
HOLES
6
ByLayer
62
256
370
-1
100
AcDbCircle
10
148
20
310
40
1.6
0
CIRCLE
5
3D6
100
AcDbEntity
8
HOLES
6
ByLayer
62
256
370
-1
100
AcDbCircle
10
142
20
350
40
1.6
0
CIRCLE
5
3D7
100
AcDbEntity
8
HOLES
6
ByLayer
62
256
370
-1
100
AcDbCircle
10
148
20
350
40
1.6
0
LINE
5
3D8
100
AcDbEntity
8
GRAVIRANJE
6
ByLayer
62
256
370
-1
100
AcDbLine
10
145
20
390
11
145
21
310
0
CIRCLE
5
3D9
100
AcDbEntity
8
HOLES
6
ByLayer
62
256
370
-1
100
AcDbCircle
10
159
20
350
40
1.6
0
CIRCLE
5
3DA
100
AcDbEntity
8
HOLES
6
ByLayer
62
256
370
-1
100
AcDbCircle
10
131
20
350
40
1.6
0
DIMENSION
5
3DB
100
AcDbEntity
8
0
6
ByLayer
62
256
370
-1
100
AcDbDimension
2
*D41
10
159
20
354
30
0
11
145
21
357.25
31
0
70
33
71
5
72
0
3
Standard
53
0
210
0
220
0
230
1
100
AcDbAlignedDimension
13
131
23
350
33
0
14
159
24
350
34
0
0
MTEXT
5
3DC
100
AcDbEntity
8
0
6
ByLayer
62
256
370
-1
100
AcDbMText
10
148
20
346
30
0
40
5
41
31.6666666667
71
1
72
1
1
MAX31855
7
STANDARD
210
0
220
0
230
1
50
0
73
2
44
1
0
CIRCLE
5
3DD
100
AcDbEntity
8
HOLES
6
ByLayer
62
256
370
-1
100
AcDbCircle
10
207
20
250
40
1.6
0
CIRCLE
5
3DE
100
AcDbEntity
8
HOLES
6
ByLayer
62
256
370
-1
100
AcDbCircle
10
213
20
250
40
1.6
0
CIRCLE
5
3DF
100
AcDbEntity
8
HOLES
6
ByLayer
62
256
370
-1
100
AcDbCircle
10
207
20
200
40
1.6
0
CIRCLE
5
3E0
100
AcDbEntity
8
HOLES
6
ByLayer
62
256
370
-1
100
AcDbCircle
10
213
20
200
40
1.6
0
CIRCLE
5
3E1
100
AcDbEntity
8
HOLES
6
ByLayer
62
256
370
-1
100
AcDbCircle
10
220
20
297
40
1.6
0
CIRCLE
5
3E2
100
AcDbEntity
8
HOLES
6
ByLayer
62
256
370
-1
100
AcDbCircle
10
220
20
303
40
1.6
0
CIRCLE
5
3E3
100
AcDbEntity
8
HOLES
6
ByLayer
62
256
370
-1
100
AcDbCircle
10
207
20
290
40
1.6
0
CIRCLE
5
3E4
100
AcDbEntity
8
HOLES
6
ByLayer
62
256
370
-1
100
AcDbCircle
10
213
20
290
40
1.6
0
LINE
5
3E5
100
AcDbEntity
8
GRAVIRANJE
6
ByLayer
62
256
370
-1
100
AcDbLine
10
210
20
290
11
210
21
200
0
CIRCLE
5
3E6
100
AcDbEntity
8
HOLES
6
ByLayer
62
256
370
-1
100
AcDbCircle
10
64.3
20
183.9
40
1.6
0
LINE
5
3E7
100
AcDbEntity
8
GRAVIRANJE
6
ByLayer
62
256
370
-1
100
AcDbLine
10
98.2
20
151.9
11
106.2
21
151.9
0
LINE
5
3E8
100
AcDbEntity
8
GRAVIRANJE
6
ByLayer
62
256
370
-1
100
AcDbLine
10
106.2
20
151.9
11
110.2
21
155.9
0
LINE
5
3E9
100
AcDbEntity
8
GRAVIRANJE
6
ByLayer
62
256
370
-1
100
AcDbLine
10
94.7
20
148.4
11
98.2
21
151.9
0
LINE
5
3EA
100
AcDbEntity
8
GRAVIRANJE
6
ByLayer
62
256
370
-1
100
AcDbLine
10
56.7
20
150.9
11
57.2
21
150.9
0
LINE
5
3EB
100
AcDbEntity
8
GRAVIRANJE
6
ByLayer
62
256
370
-1
100
AcDbLine
10
59.7
20
148.4
11
94.7
21
148.4
0
LINE
5
3EC
100
AcDbEntity
8
GRAVIRANJE
6
ByLayer
62
256
370
-1
100
AcDbLine
10
57.2
20
150.9
11
59.7
21
148.4
0
CIRCLE
5
3ED
100
AcDbEntity
8
HOLES
6
ByLayer
62
256
370
-1
100
AcDbCircle
10
59.2
20
153.45
40
1.6
0
LINE
5
3EE
100
AcDbEntity
8
GRAVIRANJE
6
ByLayer
62
256
370
-1
100
AcDbLine
10
110
20
250
11
56.66
21
250
0
CIRCLE
5
3EF
100
AcDbEntity
8
HOLES
6
ByLayer
62
256
370
-1
100
AcDbCircle
10
59.2
20
236.03
40
1.6
0
CIRCLE
5
3F0
100
AcDbEntity
8
HOLES
6
ByLayer
62
256
370
-1
100
AcDbCircle
10
107.46
20
234.76
40
1.6
0
CIRCLE
5
3F1
100
AcDbEntity
8
HOLES
6
ByLayer
62
256
370
-1
100
AcDbCircle
10
59.2
20
153.48
40
1.6
0
LINE
5
3F2
100
AcDbEntity
8
GRAVIRANJE
6
ByLayer
62
256
370
-1
100
AcDbLine
10
56.7
20
150.9
11
56.66
21
150.9
0
LINE
5
3F3
100
AcDbEntity
8
GRAVIRANJE
6
ByLayer
62
256
370
-1
100
AcDbLine
10
56.66
20
150.9
11
56.66
21
250
0
LINE
5
3F4
100
AcDbEntity
8
GRAVIRANJE
6
ByLayer
62
256
370
-1
100
AcDbLine
10
110
20
250
11
110.2
21
155.9
0
CIRCLE
5
3F5
100
AcDbEntity
8
HOLES
6
ByLayer
62
256
370
-1
100
AcDbCircle
10
107.46
20
159.83
40
1.6
0
MTEXT
5
3F6
100
AcDbEntity
8
GRAVIRANJE
6
ByLayer
62
256
370
-1
100
AcDbMText
10
92.2
20
223.9
30
0
40
4
41
24.4444444444
71
1
72
1
1
Arduino\PMega2560
7
standard
210
0
220
0
230
1
50
180
73
2
44
1
0
MTEXT
5
3F7
100
AcDbEntity
8
GRAVIRANJE
6
ByLayer
62
256
370
-1
100
AcDbMText
10
223
20
166
30
0
40
4
41
37.2222242794
71
1
72
1
1
Raspberry PI+
7
standard
210
0
220
0
230
1
50
180
73
2
44
1
0
CIRCLE
5
3F8
100
AcDbEntity
8
HOLES
6
ByLayer
62
256
370
-1
100
AcDbCircle
10
260
20
150
40
1
0
CIRCLE
5
3F9
100
AcDbEntity
8
HOLES
6
ByLayer
62
256
370
-1
100
AcDbCircle
10
276.25
20
150
40
1
0
CIRCLE
5
3FA
100
AcDbEntity
8
HOLES
6
ByLayer
62
256
370
-1
100
AcDbCircle
10
260
20
114.3
40
1
0
CIRCLE
5
3FB
100
AcDbEntity
8
HOLES
6
ByLayer
62
256
370
-1
100
AcDbCircle
10
276.25
20
114.3
40
1
0
LINE
5
3FC
100
AcDbEntity
8
GRAVIRANJE
6
ByLayer
62
256
370
-1
100
AcDbLine
10
258
20
152
11
279
21
152
0
LINE
5
3FD
100
AcDbEntity
8
GRAVIRANJE
6
ByLayer
62
256
370
-1
100
AcDbLine
10
279
20
152
11
279
21
92
0
LINE
5
3FE
100
AcDbEntity
8
GRAVIRANJE
6
ByLayer
62
256
370
-1
100
AcDbLine
10
279
20
92
11
258
21
92
0
LINE
5
3FF
100
AcDbEntity
8
GRAVIRANJE
6
ByLayer
62
256
370
-1
100
AcDbLine
10
258
20
92
11
258
21
152
0
CIRCLE
5
400
100
AcDbEntity
8
HOLES
6
ByLayer
62
256
370
-1
100
AcDbCircle
10
267
20
170
40
1.6
0
CIRCLE
5
401
100
AcDbEntity
8
HOLES
6
ByLayer
62
256
370
-1
100
AcDbCircle
10
273
20
170
40
1.6
0
CIRCLE
5
402
100
AcDbEntity
8
HOLES
6
ByLayer
62
256
370
-1
100
AcDbCircle
10
207
20
220
40
1.6
0
CIRCLE
5
403
100
AcDbEntity
8
HOLES
6
ByLayer
62
256
370
-1
100
AcDbCircle
10
213
20
220
40
1.6
0
CIRCLE
5
404
100
AcDbEntity
8
HOLES
6
ByLayer
62
256
370
-1
100
AcDbCircle
10
230
20
197
40
1.6
0
CIRCLE
5
405
100
AcDbEntity
8
HOLES
6
ByLayer
62
256
370
-1
100
AcDbCircle
10
230
20
203
40
1.6
0
CIRCLE
5
406
100
AcDbEntity
8
HOLES
6
ByLayer
62
256
370
-1
100
AcDbCircle
10
250
20
197
40
1.6
0
CIRCLE
5
407
100
AcDbEntity
8
HOLES
6
ByLayer
62
256
370
-1
100
AcDbCircle
10
250
20
203
40
1.6
0
CIRCLE
5
408
100
AcDbEntity
8
HOLES
6
ByLayer
62
256
370
-1
100
AcDbCircle
10
222.121320344
20
212.121320344
40
1.6
0
CIRCLE
5
409
100
AcDbEntity
8
HOLES
6
ByLayer
62
256
370
-1
100
AcDbCircle
10
217.878679656
20
207.878679656
40
1.6
0
CIRCLE
5
40A
100
AcDbEntity
8
HOLES
6
ByLayer
62
256
370
-1
100
AcDbCircle
10
272.121320344
20
192.121320344
40
1.6
0
CIRCLE
5
40B
100
AcDbEntity
8
HOLES
6
ByLayer
62
256
370
-1
100
AcDbCircle
10
267.878679656
20
187.878679656
40
1.6
0
CIRCLE
5
40C
100
AcDbEntity
8
GRAVIRANJE
6
ByLayer
62
256
370
-1
100
AcDbCircle
10
260
20
150
40
1.5
0
CIRCLE
5
40D
100
AcDbEntity
8
GRAVIRANJE
6
ByLayer
62
256
370
-1
100
AcDbCircle
10
276.25
20
150
40
1.5
0
CIRCLE
5
40E
100
AcDbEntity
8
GRAVIRANJE
6
ByLayer
62
256
370
-1
100
AcDbCircle
10
276.25
20
114.3
40
1.5
0
CIRCLE
5
40F
100
AcDbEntity
8
GRAVIRANJE
6
ByLayer
62
256
370
-1
100
AcDbCircle
10
260
20
114.3
40
1.5
0
MTEXT
5
410
100
AcDbEntity
8
GRAVIRANJE
6
ByLayer
62
256
370
-1
100
AcDbMText
10
270
20
140
30
0
40
4
41
37.5555547075
71
1
72
1
1
+5V USB PWR
7
standard
210
0
220
0
230
1
50
270
73
2
44
1
0
TEXT
5
411
100
AcDbEntity
8
GRAVIRANJE
6
ByLayer
62
256
370
-1
100
AcDbText
10
-47.7270935386
20
59.9108441273
30
0
40
5
1
X-max.
50
360
41
1
51
0
7
standard
71
0
210
0
220
0
230
1
100
AcDbText
0
DIMENSION
5
412
100
AcDbEntity
8
0
6
ByLayer
62
256
370
-1
100
AcDbDimension
2
*D42
10
-250
20
313
30
0
11
-253.25
21
360
31
0
70
32
71
5
3
Standard
53
0
210
0
220
0
230
1
100
AcDbAlignedDimension
13
-239
23
407
33
0
14
-239
24
313
34
0
50
90
100
AcDbRotatedDimension
0
DIMENSION
5
413
100
AcDbEntity
8
0
6
ByLayer
62
256
370
-1
100
AcDbDimension
2
*D43
10
-250
20
62
30
0
11
-253.25
21
36
31
0
70
32
71
5
3
Standard
53
0
210
0
220
0
230
1
100
AcDbAlignedDimension
13
-239
23
10
33
0
14
-239
24
62
34
0
50
90
100
AcDbRotatedDimension
0
POINT
5
414
100
AcDbEntity
8
0
6
ByLayer
62
256
370
-1
100
AcDbPoint
10
70
20
320
0
POINT
5
415
100
AcDbEntity
8
0
6
ByLayer
62
256
370
-1
100
AcDbPoint
10
30
20
320
0
POINT
5
416
100
AcDbEntity
8
0
6
ByLayer
62
256
370
-1
100
AcDbPoint
10
30
20
280
0
POINT
5
417
100
AcDbEntity
8
0
6
ByLayer
62
256
370
-1
100
AcDbPoint
10
70
20
280
0
CIRCLE
5
418
100
AcDbEntity
8
HOLES
6
ByLayer
62
256
370
-1
100
AcDbCircle
10
70
20
320
40
1.5
0
CIRCLE
5
419
100
AcDbEntity
8
HOLES
6
ByLayer
62
256
370
-1
100
AcDbCircle
10
30
20
320
40
1.5
0
CIRCLE
5
41A
100
AcDbEntity
8
HOLES
6
ByLayer
62
256
370
-1
100
AcDbCircle
10
30
20
280
40
1.5
0
CIRCLE
5
41B
100
AcDbEntity
8
HOLES
6
ByLayer
62
256
370
-1
100
AcDbCircle
10
70
20
280
40
1.5
0
ARC
5
41C
100
AcDbEntity
8
GRAVIRANJE
6
ByLayer
62
256
370
-1
100
AcDbCircle
10
70
20
320
40
5
100
AcDbArc
50
0
51
90
0
LINE
5
41D
100
AcDbEntity
8
GRAVIRANJE
6
ByLayer
62
256
370
-1
100
AcDbLine
10
30
20
325
11
70
21
325
0
ARC
5
41E
100
AcDbEntity
8
GRAVIRANJE
6
ByLayer
62
256
370
-1
100
AcDbCircle
10
30
20
320
40
5
100
AcDbArc
50
90
51
180
0
LINE
5
41F
100
AcDbEntity
8
GRAVIRANJE
6
ByLayer
62
256
370
-1
100
AcDbLine
10
25
20
280
11
25
21
320
0
ARC
5
420
100
AcDbEntity
8
GRAVIRANJE
6
ByLayer
62
256
370
-1
100
AcDbCircle
10
30
20
280
40
5
100
AcDbArc
50
180
51
270
0
LINE
5
421
100
AcDbEntity
8
GRAVIRANJE
6
ByLayer
62
256
370
-1
100
AcDbLine
10
70
20
275
11
30
21
275
0
LINE
5
422
100
AcDbEntity
8
GRAVIRANJE
6
ByLayer
62
256
370
-1
100
AcDbLine
10
75
20
320
11
75
21
280
0
ARC
5
423
100
AcDbEntity
8
GRAVIRANJE
6
ByLayer
62
256
370
-1
100
AcDbCircle
10
70
20
280
40
5
100
AcDbArc
50
270
51
0
0
POINT
5
424
100
AcDbEntity
8
0
6
ByLayer
62
256
370
-1
100
AcDbPoint
10
-350
20
90
0
POINT
5
425
100
AcDbEntity
8
0
6
ByLayer
62
256
370
-1
100
AcDbPoint
10
-390
20
90
0
POINT
5
426
100
AcDbEntity
8
0
6
ByLayer
62
256
370
-1
100
AcDbPoint
10
-390
20
50
0
POINT
5
427
100
AcDbEntity
8
0
6
ByLayer
62
256
370
-1
100
AcDbPoint
10
-350
20
50
0
CIRCLE
5
428
100
AcDbEntity
8
HOLES
6
ByLayer
62
256
370
-1
100
AcDbCircle
10
-350
20
90
40
1.5
0
CIRCLE
5
429
100
AcDbEntity
8
HOLES
6
ByLayer
62
256
370
-1
100
AcDbCircle
10
-390
20
90
40
1.5
0
CIRCLE
5
42A
100
AcDbEntity
8
HOLES
6
ByLayer
62
256
370
-1
100
AcDbCircle
10
-390
20
50
40
1.5
0
CIRCLE
5
42B
100
AcDbEntity
8
HOLES
6
ByLayer
62
256
370
-1
100
AcDbCircle
10
-350
20
50
40
1.5
0
POINT
5
42C
100
AcDbEntity
8
0
6
ByLayer
62
256
370
-1
100
AcDbPoint
10
-350
20
390
0
POINT
5
42D
100
AcDbEntity
8
0
6
ByLayer
62
256
370
-1
100
AcDbPoint
10
-390
20
390
0
POINT
5
42E
100
AcDbEntity
8
0
6
ByLayer
62
256
370
-1
100
AcDbPoint
10
-390
20
350
0
POINT
5
42F
100
AcDbEntity
8
0
6
ByLayer
62
256
370
-1
100
AcDbPoint
10
-350
20
350
0
CIRCLE
5
430
100
AcDbEntity
8
HOLES
6
ByLayer
62
256
370
-1
100
AcDbCircle
10
-350
20
390
40
1.5
0
CIRCLE
5
431
100
AcDbEntity
8
HOLES
6
ByLayer
62
256
370
-1
100
AcDbCircle
10
-390
20
390
40
1.5
0
CIRCLE
5
432
100
AcDbEntity
8
HOLES
6
ByLayer
62
256
370
-1
100
AcDbCircle
10
-390
20
350
40
1.5
0
CIRCLE
5
433
100
AcDbEntity
8
HOLES
6
ByLayer
62
256
370
-1
100
AcDbCircle
10
-350
20
350
40
1.5
0
CIRCLE
5
434
100
AcDbEntity
8
HOLES
6
ByLayer
62
256
370
-1
100
AcDbCircle
10
-373
20
300
40
1.6
0
CIRCLE
5
435
100
AcDbEntity
8
HOLES
6
ByLayer
62
256
370
-1
100
AcDbCircle
10
-367
20
300
40
1.6
0
CIRCLE
5
436
100
AcDbEntity
8
HOLES
6
ByLayer
62
256
370
-1
100
AcDbCircle
10
-373
20
200
40
1.6
0
CIRCLE
5
437
100
AcDbEntity
8
HOLES
6
ByLayer
62
256
370
-1
100
AcDbCircle
10
-367
20
200
40
1.6
0
CIRCLE
5
438
100
AcDbEntity
8
HOLES
6
ByLayer
62
256
370
-1
100
AcDbCircle
10
-373
20
150
40
1.6
0
CIRCLE
5
439
100
AcDbEntity
8
HOLES
6
ByLayer
62
256
370
-1
100
AcDbCircle
10
-367
20
150
40
1.6
0
CIRCLE
5
43A
100
AcDbEntity
8
HOLES
6
ByLayer
62
256
370
-1
100
AcDbCircle
10
-373
20
250
40
1.6
0
CIRCLE
5
43B
100
AcDbEntity
8
HOLES
6
ByLayer
62
256
370
-1
100
AcDbCircle
10
-367
20
250
40
1.6
0
CIRCLE
5
43C
100
AcDbEntity
8
HOLES
6
ByLayer
62
256
370
-1
100
AcDbCircle
10
-300
20
27
40
1.6
0
CIRCLE
5
43D
100
AcDbEntity
8
HOLES
6
ByLayer
62
256
370
-1
100
AcDbCircle
10
-300
20
33
40
1.6
0
CIRCLE
5
43E
100
AcDbEntity
8
HOLES
6
ByLayer
62
256
370
-1
100
AcDbCircle
10
-200
20
27
40
1.6
0
CIRCLE
5
43F
100
AcDbEntity
8
HOLES
6
ByLayer
62
256
370
-1
100
AcDbCircle
10
-200
20
33
40
1.6
0
CIRCLE
5
440
100
AcDbEntity
8
HOLES
6
ByLayer
62
256
370
-1
100
AcDbCircle
10
-100
20
27
40
1.6
0
CIRCLE
5
441
100
AcDbEntity
8
HOLES
6
ByLayer
62
256
370
-1
100
AcDbCircle
10
-100
20
33
40
1.6
0
CIRCLE
5
442
100
AcDbEntity
8
HOLES
6
ByLayer
62
256
370
-1
100
AcDbCircle
10
-150
20
27
40
1.6
0
CIRCLE
5
443
100
AcDbEntity
8
HOLES
6
ByLayer
62
256
370
-1
100
AcDbCircle
10
-150
20
33
40
1.6
0
CIRCLE
5
444
100
AcDbEntity
8
HOLES
6
ByLayer
62
256
370
-1
100
AcDbCircle
10
-250
20
27
40
1.6
0
CIRCLE
5
445
100
AcDbEntity
8
HOLES
6
ByLayer
62
256
370
-1
100
AcDbCircle
10
-250
20
33
40
1.6
0
CIRCLE
5
446
100
AcDbEntity
8
HOLES
6
ByLayer
62
256
370
-1
100
AcDbCircle
10
-350
20
27
40
1.6
0
CIRCLE
5
447
100
AcDbEntity
8
HOLES
6
ByLayer
62
256
370
-1
100
AcDbCircle
10
-350
20
33
40
1.6
0
CIRCLE
5
448
100
AcDbEntity
8
HOLES
6
ByLayer
62
256
370
-1
100
AcDbCircle
10
-50
20
27
40
1.6
0
CIRCLE
5
449
100
AcDbEntity
8
HOLES
6
ByLayer
62
256
370
-1
100
AcDbCircle
10
-50
20
33
40
1.6
0
ENDSEC
0
SECTION
2
OBJECTS
0
DICTIONARY
5
C
330
0
100
AcDbDictionary
281
1
3
ACAD_GROUP
350
D
0
DICTIONARY
5
D
330
C
100
AcDbDictionary
281
1
0
ENDSEC
0
EOF
