999
dxfrw 0.5.13
0
SECTION
2
HEADER
9
$ACADVER
1
AC1021
9
$HANDSEED
5
20000
9
$DWGCODEPAGE
3
ANSI_1252
9
$INSBASE
10
0
20
0
30
0
9
$EXTMIN
10
-155
20
-58
30
0
9
$EXTMAX
10
545
20
430
30
0
9
$LIMMIN
10
0
20
0
9
$LIMMAX
10
420
20
297
9
$ORTHOMODE
70
0
9
$LTSCALE
40
1
9
$TEXTSTYLE
7
STANDARD
9
$CLAYER
8
IZREZ
9
$DIMASZ
40
2.5
9
$DIMLFAC
40
1
9
$DIMSCALE
40
1
9
$DIMEXO
40
0.625
9
$DIMEXE
40
1.25
9
$DIMTXT
40
2.5
9
$DIMTSZ
40
0
9
$DIMAUNIT
70
0
9
$DIMADEC
70
0
9
$DIMLUNIT
70
2
9
$DIMSTYLE
2
STANDARD
9
$DIMGAP
40
0.625
9
$DIMTIH
70
0
9
$LUNITS
70
2
9
$LUPREC
70
4
9
$AUNITS
70
0
9
$AUPREC
70
2
9
$SPLINESEGS
70
8
9
$GRIDMODE
70
1
9
$SNAPSTYLE
70
0
9
$PINSBASE
10
0
20
0
30
0
9
$PLIMMIN
10
0
20
0
9
$PLIMMAX
10
210
20
297
9
$INSUNITS
70
4
9
$PSVPSCALE
40
1
0
ENDSEC
0
SECTION
2
CLASSES
0
ENDSEC
0
SECTION
2
TABLES
0
TABLE
2
VPORT
5
8
330
0
100
AcDbSymbolTable
70
1
0
VPORT
5
31
330
2
100
AcDbSymbolTableRecord
100
AcDbViewportTableRecord
2
*ACTIVE
70
0
10
0
20
0
11
1
21
1
12
400.360759494
22
218.905063291
13
0
23
0
14
10
24
10
15
10
25
10
16
0
26
0
36
1
17
0
27
0
37
0
40
503.443037975
41
2.40337423313
42
50
43
0
44
0
50
0
51
0
71
0
72
100
73
1
74
3
75
0
76
1
77
0
78
0
281
0
65
1
110
0
120
0
130
0
111
1
121
0
131
0
112
0
122
1
132
0
79
0
146
0
348
10020
60
7
61
5
292
1
282
1
141
0
142
0
63
250
421
3358443
0
ENDTAB
0
TABLE
2
LTYPE
5
5
330
0
100
AcDbSymbolTable
70
4
0
LTYPE
5
14
330
5
100
AcDbSymbolTableRecord
100
AcDbLinetypeTableRecord
2
ByBlock
70
0
3

72
65
73
0
40
0
0
LTYPE
5
15
330
5
100
AcDbSymbolTableRecord
100
AcDbLinetypeTableRecord
2
ByLayer
70
0
3

72
65
73
0
40
0
0
LTYPE
5
16
330
5
100
AcDbSymbolTableRecord
100
AcDbLinetypeTableRecord
2
Continuous
70
0
3
Solid line
72
65
73
0
40
0
0
LTYPE
5
32
330
5
100
AcDbSymbolTableRecord
100
AcDbLinetypeTableRecord
2
DOT
70
0
3
Dot . . . . . . . . . . . . . . . . . . . . . .
72
65
73
2
40
6.35
49
0
74
0
49
-6.35
74
0
0
LTYPE
5
33
330
5
100
AcDbSymbolTableRecord
100
AcDbLinetypeTableRecord
2
DOT2
70
0
3
Dot (.5x) .....................................
72
65
73
2
40
3.175
49
0
74
0
49
-3.175
74
0
0
LTYPE
5
34
330
5
100
AcDbSymbolTableRecord
100
AcDbLinetypeTableRecord
2
DOTX2
70
0
3
Dot (2x) .  .  .  .  .  .  .  .  .  .  .  .  .
72
65
73
2
40
12.7
49
0
74
0
49
-12.7
74
0
0
LTYPE
5
35
330
5
100
AcDbSymbolTableRecord
100
AcDbLinetypeTableRecord
2
DASHED
70
0
3
Dot . . . . . . . . . . . . . . . . . . . . . .
72
65
73
2
40
19.05
49
12.7
74
0
49
-6.35
74
0
0
LTYPE
5
36
330
5
100
AcDbSymbolTableRecord
100
AcDbLinetypeTableRecord
2
DASHED2
70
0
3
Dashed (.5x) _ _ _ _ _ _ _ _ _ _ _ _ _ _ _ _ _
72
65
73
2
40
9.525
49
6.35
74
0
49
-3.175
74
0
0
LTYPE
5
37
330
5
100
AcDbSymbolTableRecord
100
AcDbLinetypeTableRecord
2
DASHEDX2
70
0
3
Dashed (2x) ____  ____  ____  ____  ____  ___
72
65
73
2
40
38.1
49
25.4
74
0
49
-12.7
74
0
0
LTYPE
5
38
330
5
100
AcDbSymbolTableRecord
100
AcDbLinetypeTableRecord
2
DASHDOT
70
0
3
Dash dot __ . __ . __ . __ . __ . __ . __ . __
72
65
73
4
40
25.4
49
12.7
74
0
49
-6.35
74
0
49
0
74
0
49
-6.35
74
0
0
LTYPE
5
39
330
5
100
AcDbSymbolTableRecord
100
AcDbLinetypeTableRecord
2
DASHDOT2
70
0
3
Dash dot (.5x) _._._._._._._._._._._._._._._.
72
65
73
4
40
12.7
49
6.35
74
0
49
-3.175
74
0
49
0
74
0
49
-3.175
74
0
0
LTYPE
5
3A
330
5
100
AcDbSymbolTableRecord
100
AcDbLinetypeTableRecord
2
DASHDOTX2
70
0
3
Dash dot (2x) ____  .  ____  .  ____  .  ___
72
65
73
4
40
50.8
49
25.4
74
0
49
-12.7
74
0
49
0
74
0
49
-12.7
74
0
0
LTYPE
5
3B
330
5
100
AcDbSymbolTableRecord
100
AcDbLinetypeTableRecord
2
DIVIDE
70
0
3
Divide ____ . . ____ . . ____ . . ____ . . ____
72
65
73
6
40
31.75
49
12.7
74
0
49
-6.35
74
0
49
0
74
0
49
-6.35
74
0
49
0
74
0
49
-6.35
74
0
0
LTYPE
5
3C
330
5
100
AcDbSymbolTableRecord
100
AcDbLinetypeTableRecord
2
DIVIDE2
70
0
3
Divide (.5x) __..__..__..__..__..__..__..__.._
72
65
73
6
40
15.875
49
6.35
74
0
49
-3.175
74
0
49
0
74
0
49
-3.175
74
0
49
0
74
0
49
-3.175
74
0
0
LTYPE
5
3D
330
5
100
AcDbSymbolTableRecord
100
AcDbLinetypeTableRecord
2
DIVIDEX2
70
0
3
Divide (2x) ________  .  .  ________  .  .  _
72
65
73
6
40
63.5
49
25.4
74
0
49
-12.7
74
0
49
0
74
0
49
-12.7
74
0
49
0
74
0
49
-12.7
74
0
0
LTYPE
5
3E
330
5
100
AcDbSymbolTableRecord
100
AcDbLinetypeTableRecord
2
BORDER
70
0
3
Border __ __ . __ __ . __ __ . __ __ . __ __ .
72
65
73
6
40
44.45
49
12.7
74
0
49
-6.35
74
0
49
12.7
74
0
49
-6.35
74
0
49
0
74
0
49
-6.35
74
0
0
LTYPE
5
3F
330
5
100
AcDbSymbolTableRecord
100
AcDbLinetypeTableRecord
2
BORDER2
70
0
3
Border (.5x) __.__.__.__.__.__.__.__.__.__.__.
72
65
73
6
40
22.225
49
6.35
74
0
49
-3.175
74
0
49
6.35
74
0
49
-3.175
74
0
49
0
74
0
49
-3.175
74
0
0
LTYPE
5
40
330
5
100
AcDbSymbolTableRecord
100
AcDbLinetypeTableRecord
2
BORDERX2
70
0
3
Border (2x) ____  ____  .  ____  ____  .  ___
72
65
73
6
40
88.9
49
25.4
74
0
49
-12.7
74
0
49
25.4
74
0
49
-12.7
74
0
49
0
74
0
49
-12.7
74
0
0
LTYPE
5
41
330
5
100
AcDbSymbolTableRecord
100
AcDbLinetypeTableRecord
2
CENTER
70
0
3
Center ____ _ ____ _ ____ _ ____ _ ____ _ ____
72
65
73
4
40
50.8
49
31.75
74
0
49
-6.35
74
0
49
6.35
74
0
49
-6.35
74
0
0
LTYPE
5
42
330
5
100
AcDbSymbolTableRecord
100
AcDbLinetypeTableRecord
2
CENTER2
70
0
3
Center (.5x) ___ _ ___ _ ___ _ ___ _ ___ _ ___
72
65
73
4
40
28.575
49
19.05
74
0
49
-3.175
74
0
49
3.175
74
0
49
-3.175
74
0
0
LTYPE
5
43
330
5
100
AcDbSymbolTableRecord
100
AcDbLinetypeTableRecord
2
CENTERX2
70
0
3
Center (2x) ________  __  ________  __  _____
72
65
73
4
40
101.6
49
63.5
74
0
49
-12.7
74
0
49
12.7
74
0
49
-12.7
74
0
0
ENDTAB
0
TABLE
2
LAYER
5
2
330
0
100
AcDbSymbolTable
70
1
0
LAYER
5
10
330
2
100
AcDbSymbolTableRecord
100
AcDbLayerTableRecord
2
0
70
0
62
2
6
CONTINUOUS
370
0
390
F
0
LAYER
5
44
330
2
100
AcDbSymbolTableRecord
100
AcDbLayerTableRecord
2
GRAVIRANJE
70
0
62
3
6
CONTINUOUS
370
0
390
F
0
LAYER
5
45
330
2
100
AcDbSymbolTableRecord
100
AcDbLayerTableRecord
2
GRAVIRANJE2
70
0
62
96
420
32768
6
CONTINUOUS
370
0
390
F
0
LAYER
5
46
330
2
100
AcDbSymbolTableRecord
100
AcDbLayerTableRecord
2
HOLES
70
0
62
5
6
CONTINUOUS
370
0
390
F
0
LAYER
5
47
330
2
100
AcDbSymbolTableRecord
100
AcDbLayerTableRecord
2
IZREZ
70
0
62
7
6
CONTINUOUS
370
0
390
F
0
ENDTAB
0
TABLE
2
STYLE
5
3
330
0
100
AcDbSymbolTable
70
3
0
STYLE
5
48
330
2
100
AcDbSymbolTableRecord
100
AcDbTextStyleTableRecord
2
standard
70
0
40
0
41
1
50
0
71
0
42
1
3
standard
4

0
ENDTAB
0
TABLE
2
VIEW
5
6
330
0
100
AcDbSymbolTable
70
0
0
ENDTAB
0
TABLE
2
UCS
5
7
330
0
100
AcDbSymbolTable
70
0
0
ENDTAB
0
TABLE
2
APPID
5
9
330
0
100
AcDbSymbolTable
70
1
0
APPID
5
12
330
9
100
AcDbSymbolTableRecord
100
AcDbRegAppTableRecord
2
ACAD
70
0
0
APPID
5
49
330
9
100
AcDbSymbolTableRecord
100
AcDbRegAppTableRecord
2
LibreCad
70
0
0
ENDTAB
0
TABLE
2
DIMSTYLE
5
A
330
0
100
AcDbSymbolTable
70
1
100
AcDbDimStyleTable
71
1
0
DIMSTYLE
105
4A
330
A
100
AcDbSymbolTableRecord
100
AcDbDimStyleTableRecord
2
Standard
70
0
40
1
41
2.5
42
0.625
43
0.38
44
1.25
45
0
46
0
47
0
48
0
140
2.5
141
0.09
142
0
143
25.4
144
1
145
0
146
1
147
0.625
148
0
71
0
72
0
73
0
74
1
75
0
76
0
77
0
78
0
79
0
170
0
171
2
172
0
173
0
174
0
175
0
176
0
177
0
178
0
179
0
271
4
272
4
273
2
274
2
275
0
276
0
277
2
278
46
279
0
280
0
281
0
282
0
283
1
284
0
285
0
286
0
288
0
289
3
340
Standard
341

371
-2
372
-2
0
ENDTAB
0
TABLE
2
BLOCK_RECORD
5
1
330
0
100
AcDbSymbolTable
70
2
0
BLOCK_RECORD
5
1F
330
1
100
AcDbSymbolTableRecord
100
AcDbBlockTableRecord
2
*Model_Space
70
0
280
1
281
0
0
BLOCK_RECORD
5
1E
330
1
100
AcDbSymbolTableRecord
100
AcDbBlockTableRecord
2
*Paper_Space
70
0
280
1
281
0
0
BLOCK_RECORD
5
4B
330
1
100
AcDbSymbolTableRecord
100
AcDbBlockTableRecord
2
*D1
70
0
280
1
281
0
0
BLOCK_RECORD
5
4E
330
1
100
AcDbSymbolTableRecord
100
AcDbBlockTableRecord
2
*D3
70
0
280
1
281
0
0
BLOCK_RECORD
5
51
330
1
100
AcDbSymbolTableRecord
100
AcDbBlockTableRecord
2
*D13
70
0
280
1
281
0
0
BLOCK_RECORD
5
54
330
1
100
AcDbSymbolTableRecord
100
AcDbBlockTableRecord
2
*D20
70
0
280
1
281
0
0
BLOCK_RECORD
5
57
330
1
100
AcDbSymbolTableRecord
100
AcDbBlockTableRecord
2
*D9
70
0
280
1
281
0
0
BLOCK_RECORD
5
5A
330
1
100
AcDbSymbolTableRecord
100
AcDbBlockTableRecord
2
*D7
70
0
280
1
281
0
0
BLOCK_RECORD
5
5D
330
1
100
AcDbSymbolTableRecord
100
AcDbBlockTableRecord
2
*D19
70
0
280
1
281
0
0
BLOCK_RECORD
5
60
330
1
100
AcDbSymbolTableRecord
100
AcDbBlockTableRecord
2
*D5
70
0
280
1
281
0
0
BLOCK_RECORD
5
63
330
1
100
AcDbSymbolTableRecord
100
AcDbBlockTableRecord
2
*D21
70
0
280
1
281
0
0
BLOCK_RECORD
5
66
330
1
100
AcDbSymbolTableRecord
100
AcDbBlockTableRecord
2
*D8
70
0
280
1
281
0
0
BLOCK_RECORD
5
69
330
1
100
AcDbSymbolTableRecord
100
AcDbBlockTableRecord
2
*D4
70
0
280
1
281
0
0
BLOCK_RECORD
5
6C
330
1
100
AcDbSymbolTableRecord
100
AcDbBlockTableRecord
2
*D14
70
0
280
1
281
0
0
BLOCK_RECORD
5
6F
330
1
100
AcDbSymbolTableRecord
100
AcDbBlockTableRecord
2
*D16
70
0
280
1
281
0
0
BLOCK_RECORD
5
72
330
1
100
AcDbSymbolTableRecord
100
AcDbBlockTableRecord
2
*D17
70
0
280
1
281
0
0
BLOCK_RECORD
5
75
330
1
100
AcDbSymbolTableRecord
100
AcDbBlockTableRecord
2
*D2
70
0
280
1
281
0
0
BLOCK_RECORD
5
78
330
1
100
AcDbSymbolTableRecord
100
AcDbBlockTableRecord
2
*D18
70
0
280
1
281
0
0
BLOCK_RECORD
5
7B
330
1
100
AcDbSymbolTableRecord
100
AcDbBlockTableRecord
2
*D11
70
0
280
1
281
0
0
BLOCK_RECORD
5
7E
330
1
100
AcDbSymbolTableRecord
100
AcDbBlockTableRecord
2
*D6
70
0
280
1
281
0
0
BLOCK_RECORD
5
81
330
1
100
AcDbSymbolTableRecord
100
AcDbBlockTableRecord
2
*D15
70
0
280
1
281
0
0
BLOCK_RECORD
5
84
330
1
100
AcDbSymbolTableRecord
100
AcDbBlockTableRecord
2
*D12
70
0
280
1
281
0
0
BLOCK_RECORD
5
87
330
1
100
AcDbSymbolTableRecord
100
AcDbBlockTableRecord
2
*D10
70
0
280
1
281
0
0
ENDTAB
0
ENDSEC
0
SECTION
2
BLOCKS
0
BLOCK
5
20
330
1F
100
AcDbEntity
8
0
100
AcDbBlockBegin
2
*Model_Space
70
0
10
0
20
0
30
0
3
*Model_Space
1

0
ENDBLK
5
21
330
1F
100
AcDbEntity
8
0
100
AcDbBlockEnd
0
BLOCK
5
1C
330
1B
100
AcDbEntity
8
0
100
AcDbBlockBegin
2
*Paper_Space
70
0
10
0
20
0
30
0
3
*Paper_Space
1

0
ENDBLK
5
1D
330
1F
100
AcDbEntity
8
0
100
AcDbBlockEnd
0
BLOCK
5
4C
330
4B
100
AcDbEntity
8
0
100
AcDbBlockBegin
2
*D1
70
1
10
0
20
0
3
*D1
1

0
LINE
5
8A
100
AcDbEntity
8
0
6
CONTINUOUS
62
7
370
0
100
AcDbLine
10
-71
20
30
11
-29
21
30
0
SOLID
5
8B
100
AcDbEntity
8
0
6
CONTINUOUS
62
7
370
0
100
AcDbTrace
10
-71
20
30
30
0
11
-68.5
21
30.4162846578
31
0
12
-68.5
22
29.5837153422
32
0
13
-68.5
23
29.5837153422
33
0
0
SOLID
5
8C
100
AcDbEntity
8
0
6
CONTINUOUS
62
7
370
0
100
AcDbTrace
10
-29
20
30
30
0
11
-31.5
21
29.5837153422
31
0
12
-31.5
22
30.4162846578
32
0
13
-31.5
23
30.4162846578
33
0
0
MTEXT
5
8D
100
AcDbEntity
8
0
6
CONTINUOUS
62
7
370
0
100
AcDbMText
10
-50
20
31.875
30
0
40
2.5
41
11.9444444444
71
5
72
1
1
42.0000
7
standard
210
0
220
0
230
1
50
0
73
2
44
1
0
LINE
5
8E
100
AcDbEntity
8
0
6
CONTINUOUS
62
7
370
0
100
AcDbLine
10
-71
20
19.625
11
-71
21
31.25
0
LINE
5
8F
100
AcDbEntity
8
0
6
CONTINUOUS
62
7
370
0
100
AcDbLine
10
-29
20
19.625
11
-29
21
31.25
0
ENDBLK
5
4D
330
4B
100
AcDbEntity
8
0
100
AcDbBlockEnd
0
BLOCK
5
4F
330
4E
100
AcDbEntity
8
0
100
AcDbBlockBegin
2
*D3
70
1
10
0
20
0
3
*D3
1

0
LINE
5
90
100
AcDbEntity
8
GRAVIRANJE
6
CONTINUOUS
62
7
370
0
100
AcDbLine
10
-80.1
20
54
11
-19.9
21
54
0
SOLID
5
91
100
AcDbEntity
8
GRAVIRANJE
6
CONTINUOUS
62
7
370
0
100
AcDbTrace
10
-80.1
20
54
30
0
11
-77.6
21
54.4162846578
31
0
12
-77.6
22
53.5837153422
32
0
13
-77.6
23
53.5837153422
33
0
0
SOLID
5
92
100
AcDbEntity
8
GRAVIRANJE
6
CONTINUOUS
62
7
370
0
100
AcDbTrace
10
-19.9
20
54
30
0
11
-22.4
21
53.5837153422
31
0
12
-22.4
22
54.4162846578
32
0
13
-22.4
23
54.4162846578
33
0
0
MTEXT
5
93
100
AcDbEntity
8
GRAVIRANJE
6
CONTINUOUS
62
7
370
0
100
AcDbMText
10
-50
20
55.875
30
0
40
2.5
41
11.6666666667
71
5
72
1
1
60.2000
7
standard
210
0
220
0
230
1
50
0
73
2
44
1
0
LINE
5
94
100
AcDbEntity
8
GRAVIRANJE
6
CONTINUOUS
62
7
370
0
100
AcDbLine
10
-80.1
20
66.275
11
-80.1
21
52.75
0
LINE
5
95
100
AcDbEntity
8
GRAVIRANJE
6
CONTINUOUS
62
7
370
0
100
AcDbLine
10
-19.9
20
66.275
11
-19.9
21
52.75
0
ENDBLK
5
50
330
4E
100
AcDbEntity
8
0
100
AcDbBlockEnd
0
BLOCK
5
52
330
51
100
AcDbEntity
8
0
100
AcDbBlockBegin
2
*D13
70
1
10
0
20
0
3
*D13
1

0
LINE
5
96
100
AcDbEntity
8
0
6
CONTINUOUS
62
7
370
0
100
AcDbLine
10
-20
20
100.625
11
-20
21
105.25
0
LINE
5
97
100
AcDbEntity
8
0
6
CONTINUOUS
62
7
370
0
100
AcDbLine
10
-26
20
100.625
11
-26
21
105.25
0
LINE
5
98
100
AcDbEntity
8
0
6
CONTINUOUS
62
7
370
0
100
AcDbLine
10
-15
20
104
11
-31
21
104
0
SOLID
5
99
100
AcDbEntity
8
0
6
CONTINUOUS
62
7
370
0
100
AcDbTrace
10
-20
20
104
30
0
11
-17.5
21
104.416284658
31
0
12
-17.5
22
103.583715342
32
0
13
-17.5
23
103.583715342
33
0
0
SOLID
5
9A
100
AcDbEntity
8
0
6
CONTINUOUS
62
7
370
0
100
AcDbTrace
10
-26
20
104
30
0
11
-28.5
21
103.583715342
31
0
12
-28.5
22
104.416284658
32
0
13
-28.5
23
104.416284658
33
0
0
MTEXT
5
9B
100
AcDbEntity
8
0
6
CONTINUOUS
62
7
370
0
100
AcDbMText
10
-14.5138888889
20
105.875
30
0
40
2.5
41
9.72222222222
71
5
72
1
1
6.0000
7
standard
210
0
220
0
230
1
50
360
73
2
44
1
0
ENDBLK
5
53
330
51
100
AcDbEntity
8
0
100
AcDbBlockEnd
0
BLOCK
5
55
330
54
100
AcDbEntity
8
0
100
AcDbBlockBegin
2
*D20
70
1
10
0
20
0
3
*D20
1

0
LINE
5
9C
100
AcDbEntity
8
0
6
CONTINUOUS
62
7
370
0
100
AcDbLine
10
95
20
180.625
11
95
21
336.25
0
LINE
5
9D
100
AcDbEntity
8
0
6
CONTINUOUS
62
7
370
0
100
AcDbLine
10
105
20
180.625
11
105
21
336.25
0
LINE
5
9E
100
AcDbEntity
8
0
6
CONTINUOUS
62
7
370
0
100
AcDbLine
10
95
20
335
11
105
21
335
0
SOLID
5
9F
100
AcDbEntity
8
0
6
CONTINUOUS
62
7
370
0
100
AcDbTrace
10
95
20
335
30
0
11
97.5
21
335.416284658
31
0
12
97.5
22
334.583715342
32
0
13
97.5
23
334.583715342
33
0
0
SOLID
5
A0
100
AcDbEntity
8
0
6
CONTINUOUS
62
7
370
0
100
AcDbTrace
10
105
20
335
30
0
11
102.5
21
334.583715342
31
0
12
102.5
22
335.416284658
32
0
13
102.5
23
335.416284658
33
0
0
MTEXT
5
A1
100
AcDbEntity
8
0
6
CONTINUOUS
62
7
370
0
100
AcDbMText
10
111.180555556
20
336.875
30
0
40
2.5
41
11.1111111111
71
5
72
1
1
10.0000
7
standard
210
0
220
0
230
1
50
0
73
2
44
1
0
ENDBLK
5
56
330
54
100
AcDbEntity
8
0
100
AcDbBlockEnd
0
BLOCK
5
58
330
57
100
AcDbEntity
8
0
100
AcDbBlockBegin
2
*D9
70
1
10
0
20
0
3
*D9
1

0
LINE
5
A2
100
AcDbEntity
8
GRAVIRANJE
6
CONTINUOUS
62
7
370
0
100
AcDbLine
10
160
20
100
11
160
21
109.6
0
SOLID
5
A3
100
AcDbEntity
8
GRAVIRANJE
6
CONTINUOUS
62
7
370
0
100
AcDbTrace
10
160
20
100
30
0
11
159.583715342
21
102.5
31
0
12
160.416284658
22
102.5
32
0
13
160.416284658
23
102.5
33
0
0
SOLID
5
A4
100
AcDbEntity
8
GRAVIRANJE
6
CONTINUOUS
62
7
370
0
100
AcDbTrace
10
160
20
109.6
30
0
11
160.416284658
21
107.1
31
0
12
159.583715342
22
107.1
32
0
13
159.583715342
23
107.1
33
0
0
MTEXT
5
A5
100
AcDbEntity
8
GRAVIRANJE
6
CONTINUOUS
62
7
370
0
100
AcDbMText
10
158.125
20
115.086111111
30
0
40
2.5
41
9.72222222222
71
5
72
1
1
9.6000
7
standard
210
0
220
0
230
1
50
90
73
2
44
1
0
LINE
5
A6
100
AcDbEntity
8
GRAVIRANJE
6
CONTINUOUS
62
7
370
0
100
AcDbLine
10
167.375
20
100
11
158.75
21
100
0
LINE
5
A7
100
AcDbEntity
8
GRAVIRANJE
6
CONTINUOUS
62
7
370
0
100
AcDbLine
10
167.375
20
109.6
11
158.75
21
109.6
0
ENDBLK
5
59
330
57
100
AcDbEntity
8
0
100
AcDbBlockEnd
0
BLOCK
5
5B
330
5A
100
AcDbEntity
8
0
100
AcDbBlockBegin
2
*D7
70
1
10
0
20
0
3
*D7
1

0
LINE
5
A8
100
AcDbEntity
8
IZREZ
6
CONTINUOUS
62
7
370
0
100
AcDbLine
10
85
20
92.3074175964
11
85
21
107.692582404
0
SOLID
5
A9
100
AcDbEntity
8
IZREZ
6
CONTINUOUS
62
7
370
0
100
AcDbTrace
10
85
20
97.3074175964
30
0
11
85.4162846578
21
94.8074175964
31
0
12
84.5837153422
22
94.8074175964
32
0
13
84.5837153422
23
94.8074175964
33
0
0
SOLID
5
AA
100
AcDbEntity
8
IZREZ
6
CONTINUOUS
62
7
370
0
100
AcDbTrace
10
85
20
102.692582404
30
0
11
84.5837153422
21
105.192582404
31
0
12
85.4162846578
22
105.192582404
32
0
13
85.4162846578
23
105.192582404
33
0
0
MTEXT
5
AB
100
AcDbEntity
8
IZREZ
6
CONTINUOUS
62
7
370
0
100
AcDbMText
10
83.125
20
108.178693515
30
0
40
2.5
41
9.72222222222
71
5
72
1
1
5.3852
7
standard
210
0
220
0
230
1
50
90
73
2
44
1
0
LINE
5
AC
100
AcDbEntity
8
IZREZ
6
CONTINUOUS
62
7
370
0
100
AcDbLine
10
92.375
20
97.3074175964
11
83.75
21
97.3074175964
0
LINE
5
AD
100
AcDbEntity
8
IZREZ
6
CONTINUOUS
62
7
370
0
100
AcDbLine
10
92.375
20
102.692582404
11
83.75
21
102.692582404
0
ENDBLK
5
5C
330
5A
100
AcDbEntity
8
0
100
AcDbBlockEnd
0
BLOCK
5
5E
330
5D
100
AcDbEntity
8
0
100
AcDbBlockBegin
2
*D19
70
1
10
0
20
0
3
*D19
1

0
LINE
5
AE
100
AcDbEntity
8
0
6
CONTINUOUS
62
7
370
0
100
AcDbLine
10
193
20
220.625
11
193
21
341.25
0
LINE
5
AF
100
AcDbEntity
8
0
6
CONTINUOUS
62
7
370
0
100
AcDbLine
10
207
20
220.625
11
207
21
341.25
0
LINE
5
B0
100
AcDbEntity
8
0
6
CONTINUOUS
62
7
370
0
100
AcDbLine
10
193
20
340
11
207
21
340
0
SOLID
5
B1
100
AcDbEntity
8
0
6
CONTINUOUS
62
7
370
0
100
AcDbTrace
10
193
20
340
30
0
11
195.5
21
340.416284658
31
0
12
195.5
22
339.583715342
32
0
13
195.5
23
339.583715342
33
0
0
SOLID
5
B2
100
AcDbEntity
8
0
6
CONTINUOUS
62
7
370
0
100
AcDbTrace
10
207
20
340
30
0
11
204.5
21
339.583715342
31
0
12
204.5
22
340.416284658
32
0
13
204.5
23
340.416284658
33
0
0
MTEXT
5
B3
100
AcDbEntity
8
0
6
CONTINUOUS
62
7
370
0
100
AcDbMText
10
200
20
341.875
30
0
40
2.5
41
11.3888888889
71
5
72
1
1
14.0000
7
standard
210
0
220
0
230
1
50
0
73
2
44
1
0
ENDBLK
5
5F
330
5D
100
AcDbEntity
8
0
100
AcDbBlockEnd
0
BLOCK
5
61
330
60
100
AcDbEntity
8
0
100
AcDbBlockBegin
2
*D5
70
1
10
0
20
0
3
*D5
1

0
LINE
5
B4
100
AcDbEntity
8
IZREZ
6
CONTINUOUS
62
7
370
0
100
AcDbLine
10
95.5
20
80
11
104.5
21
80
0
SOLID
5
B5
100
AcDbEntity
8
IZREZ
6
CONTINUOUS
62
7
370
0
100
AcDbTrace
10
95.5
20
80
30
0
11
98
21
80.4162846578
31
0
12
98
22
79.5837153422
32
0
13
98
23
79.5837153422
33
0
0
SOLID
5
B6
100
AcDbEntity
8
IZREZ
6
CONTINUOUS
62
7
370
0
100
AcDbTrace
10
104.5
20
80
30
0
11
102
21
79.5837153422
31
0
12
102
22
80.4162846578
32
0
13
102
23
80.4162846578
33
0
0
MTEXT
5
B7
100
AcDbEntity
8
IZREZ
6
CONTINUOUS
62
7
370
0
100
AcDbMText
10
109.986111111
20
81.875
30
0
40
2.5
41
9.72222222222
71
5
72
1
1
9.0000
7
standard
210
0
220
0
230
1
50
0
73
2
44
1
0
LINE
5
B8
100
AcDbEntity
8
IZREZ
6
CONTINUOUS
62
7
370
0
100
AcDbLine
10
95.5
20
93.375
11
95.5
21
78.75
0
LINE
5
B9
100
AcDbEntity
8
IZREZ
6
CONTINUOUS
62
7
370
0
100
AcDbLine
10
104.5
20
93.375
11
104.5
21
78.75
0
ENDBLK
5
62
330
60
100
AcDbEntity
8
0
100
AcDbBlockEnd
0
BLOCK
5
64
330
63
100
AcDbEntity
8
0
100
AcDbBlockBegin
2
*D21
70
1
10
0
20
0
3
*D21
1

0
LINE
5
BA
100
AcDbEntity
8
0
6
CONTINUOUS
62
7
370
0
100
AcDbLine
10
196
20
222.625
11
196
21
336.25
0
LINE
5
BB
100
AcDbEntity
8
0
6
CONTINUOUS
62
7
370
0
100
AcDbLine
10
204
20
222.625
11
204
21
336.25
0
LINE
5
BC
100
AcDbEntity
8
0
6
CONTINUOUS
62
7
370
0
100
AcDbLine
10
196
20
335
11
204
21
335
0
SOLID
5
BD
100
AcDbEntity
8
0
6
CONTINUOUS
62
7
370
0
100
AcDbTrace
10
196
20
335
30
0
11
198.5
21
335.416284658
31
0
12
198.5
22
334.583715342
32
0
13
198.5
23
334.583715342
33
0
0
SOLID
5
BE
100
AcDbEntity
8
0
6
CONTINUOUS
62
7
370
0
100
AcDbTrace
10
204
20
335
30
0
11
201.5
21
334.583715342
31
0
12
201.5
22
335.416284658
32
0
13
201.5
23
335.416284658
33
0
0
MTEXT
5
BF
100
AcDbEntity
8
0
6
CONTINUOUS
62
7
370
0
100
AcDbMText
10
209.486111111
20
336.875
30
0
40
2.5
41
9.72222222222
71
5
72
1
1
8.0000
7
standard
210
0
220
0
230
1
50
0
73
2
44
1
0
ENDBLK
5
65
330
63
100
AcDbEntity
8
0
100
AcDbBlockEnd
0
BLOCK
5
67
330
66
100
AcDbEntity
8
0
100
AcDbBlockBegin
2
*D8
70
1
10
0
20
0
3
*D8
1

0
LINE
5
C0
100
AcDbEntity
8
GRAVIRANJE
6
CONTINUOUS
62
7
370
0
100
AcDbLine
10
210
20
100
11
210
21
119
0
SOLID
5
C1
100
AcDbEntity
8
GRAVIRANJE
6
CONTINUOUS
62
7
370
0
100
AcDbTrace
10
210
20
100
30
0
11
209.583715342
21
102.5
31
0
12
210.416284658
22
102.5
32
0
13
210.416284658
23
102.5
33
0
0
SOLID
5
C2
100
AcDbEntity
8
GRAVIRANJE
6
CONTINUOUS
62
7
370
0
100
AcDbTrace
10
210
20
119
30
0
11
210.416284658
21
116.5
31
0
12
209.583715342
22
116.5
32
0
13
209.583715342
23
116.5
33
0
0
MTEXT
5
C3
100
AcDbEntity
8
GRAVIRANJE
6
CONTINUOUS
62
7
370
0
100
AcDbMText
10
208.125
20
109.5
30
0
40
2.5
41
11.1111111111
71
5
72
1
1
19.0000
7
standard
210
0
220
0
230
1
50
90
73
2
44
1
0
LINE
5
C4
100
AcDbEntity
8
GRAVIRANJE
6
CONTINUOUS
62
7
370
0
100
AcDbLine
10
202.625
20
100
11
211.25
21
100
0
LINE
5
C5
100
AcDbEntity
8
GRAVIRANJE
6
CONTINUOUS
62
7
370
0
100
AcDbLine
10
202.625
20
119
11
211.25
21
119
0
ENDBLK
5
68
330
66
100
AcDbEntity
8
0
100
AcDbBlockEnd
0
BLOCK
5
6A
330
69
100
AcDbEntity
8
0
100
AcDbBlockBegin
2
*D4
70
1
10
0
20
0
3
*D4
1

0
LINE
5
C6
100
AcDbEntity
8
GRAVIRANJE
6
CONTINUOUS
62
7
370
0
100
AcDbLine
10
-69.9
20
58
11
-30.1
21
58
0
SOLID
5
C7
100
AcDbEntity
8
GRAVIRANJE
6
CONTINUOUS
62
7
370
0
100
AcDbTrace
10
-69.9
20
58
30
0
11
-67.4
21
58.4162846578
31
0
12
-67.4
22
57.5837153422
32
0
13
-67.4
23
57.5837153422
33
0
0
SOLID
5
C8
100
AcDbEntity
8
GRAVIRANJE
6
CONTINUOUS
62
7
370
0
100
AcDbTrace
10
-30.1
20
58
30
0
11
-32.6
21
57.5837153422
31
0
12
-32.6
22
58.4162846578
32
0
13
-32.6
23
58.4162846578
33
0
0
MTEXT
5
C9
100
AcDbEntity
8
GRAVIRANJE
6
CONTINUOUS
62
7
370
0
100
AcDbMText
10
-50
20
59.875
30
0
40
2.5
41
11.6666666667
71
5
72
1
1
39.8000
7
standard
210
0
220
0
230
1
50
0
73
2
44
1
0
LINE
5
CA
100
AcDbEntity
8
GRAVIRANJE
6
CONTINUOUS
62
7
370
0
100
AcDbLine
10
-69.9
20
66.275
11
-69.9
21
56.75
0
LINE
5
CB
100
AcDbEntity
8
GRAVIRANJE
6
CONTINUOUS
62
7
370
0
100
AcDbLine
10
-30.1
20
66.275
11
-30.1
21
56.75
0
ENDBLK
5
6B
330
69
100
AcDbEntity
8
0
100
AcDbBlockEnd
0
BLOCK
5
6D
330
6C
100
AcDbEntity
8
0
100
AcDbBlockBegin
2
*D14
70
1
10
0
20
0
3
*D14
1

0
LINE
5
CC
100
AcDbEntity
8
0
6
CONTINUOUS
62
7
370
0
100
AcDbLine
10
25
20
92.1
11
25
21
107.9
0
SOLID
5
CD
100
AcDbEntity
8
0
6
CONTINUOUS
62
7
370
0
100
AcDbTrace
10
25
20
97.1
30
0
11
25.4162846578
21
94.6
31
0
12
24.5837153422
22
94.6
32
0
13
24.5837153422
23
94.6
33
0
0
SOLID
5
CE
100
AcDbEntity
8
0
6
CONTINUOUS
62
7
370
0
100
AcDbTrace
10
25
20
102.9
30
0
11
24.5837153422
21
105.4
31
0
12
25.4162846578
22
105.4
32
0
13
25.4162846578
23
105.4
33
0
0
MTEXT
5
CF
100
AcDbEntity
8
0
6
CONTINUOUS
62
7
370
0
100
AcDbMText
10
23.125
20
108.386111111
30
0
40
2.5
41
9.72222222222
71
5
72
1
1
5.8000
7
standard
210
0
220
0
230
1
50
90
73
2
44
1
0
LINE
5
D0
100
AcDbEntity
8
0
6
CONTINUOUS
62
7
370
0
100
AcDbLine
10
13.625
20
97.1
11
26.25
21
97.1
0
LINE
5
D1
100
AcDbEntity
8
0
6
CONTINUOUS
62
7
370
0
100
AcDbLine
10
13.625
20
102.9
11
26.25
21
102.9
0
ENDBLK
5
6E
330
6C
100
AcDbEntity
8
0
100
AcDbBlockEnd
0
BLOCK
5
70
330
6F
100
AcDbEntity
8
0
100
AcDbBlockBegin
2
*D16
70
1
10
0
20
0
3
*D16
1

0
LINE
5
D2
100
AcDbEntity
8
GRAVIRANJE
6
CONTINUOUS
62
7
370
0
100
AcDbLine
10
-58
20
85
11
-42
21
85
0
SOLID
5
D3
100
AcDbEntity
8
GRAVIRANJE
6
CONTINUOUS
62
7
370
0
100
AcDbTrace
10
-53
20
85
30
0
11
-55.5
21
84.5837153422
31
0
12
-55.5
22
85.4162846578
32
0
13
-55.5
23
85.4162846578
33
0
0
SOLID
5
D4
100
AcDbEntity
8
GRAVIRANJE
6
CONTINUOUS
62
7
370
0
100
AcDbTrace
10
-47
20
85
30
0
11
-44.5
21
85.4162846578
31
0
12
-44.5
22
84.5837153422
32
0
13
-44.5
23
84.5837153422
33
0
0
MTEXT
5
D5
100
AcDbEntity
8
GRAVIRANJE
6
CONTINUOUS
62
7
370
0
100
AcDbMText
10
-41.5138888889
20
86.875
30
0
40
2.5
41
9.72222222222
71
5
72
1
1
6.0000
7
standard
210
0
220
0
230
1
50
0
73
2
44
1
0
LINE
5
D6
100
AcDbEntity
8
GRAVIRANJE
6
CONTINUOUS
62
7
370
0
100
AcDbLine
10
-53
20
89.275
11
-53
21
83.75
0
LINE
5
D7
100
AcDbEntity
8
GRAVIRANJE
6
CONTINUOUS
62
7
370
0
100
AcDbLine
10
-47
20
89.275
11
-47
21
83.75
0
ENDBLK
5
71
330
6F
100
AcDbEntity
8
0
100
AcDbBlockEnd
0
BLOCK
5
73
330
72
100
AcDbEntity
8
0
100
AcDbBlockBegin
2
*D17
70
1
10
0
20
0
3
*D17
1

0
LINE
5
D8
100
AcDbEntity
8
GRAVIRANJE
6
CONTINUOUS
62
7
370
0
100
AcDbLine
10
-80
20
77.125
11
-70
21
77.125
0
SOLID
5
D9
100
AcDbEntity
8
GRAVIRANJE
6
CONTINUOUS
62
7
370
0
100
AcDbTrace
10
-80
20
77.125
30
0
11
-77.5
21
77.5412846578
31
0
12
-77.5
22
76.7087153422
32
0
13
-77.5
23
76.7087153422
33
0
0
SOLID
5
DA
100
AcDbEntity
8
GRAVIRANJE
6
CONTINUOUS
62
7
370
0
100
AcDbTrace
10
-70
20
77.125
30
0
11
-72.5
21
76.7087153422
31
0
12
-72.5
22
77.5412846578
32
0
13
-72.5
23
77.5412846578
33
0
0
MTEXT
5
DB
100
AcDbEntity
8
GRAVIRANJE
6
CONTINUOUS
62
7
370
0
100
AcDbMText
10
-63.8194444444
20
79
30
0
40
2.5
41
11.1111111111
71
5
72
1
1
10.0000
7
standard
210
0
220
0
230
1
50
0
73
2
44
1
0
LINE
5
DC
100
AcDbEntity
8
GRAVIRANJE
6
CONTINUOUS
62
7
370
0
100
AcDbLine
10
-80
20
74.925
11
-80
21
78.375
0
LINE
5
DD
100
AcDbEntity
8
GRAVIRANJE
6
CONTINUOUS
62
7
370
0
100
AcDbLine
10
-70
20
74.825
11
-70
21
78.375
0
ENDBLK
5
74
330
72
100
AcDbEntity
8
0
100
AcDbBlockEnd
0
BLOCK
5
76
330
75
100
AcDbEntity
8
0
100
AcDbBlockBegin
2
*D2
70
1
10
0
20
0
3
*D2
1

0
LINE
5
DE
100
AcDbEntity
8
GRAVIRANJE
6
CONTINUOUS
62
7
370
0
100
AcDbLine
10
-65
20
0.625
11
-65
21
1.25
0
LINE
5
DF
100
AcDbEntity
8
GRAVIRANJE
6
CONTINUOUS
62
7
370
0
100
AcDbLine
10
-35
20
0.625
11
-35
21
1.25
0
LINE
5
E0
100
AcDbEntity
8
GRAVIRANJE
6
CONTINUOUS
62
7
370
0
100
AcDbLine
10
-65
20
2.84217094304e-016
11
-35
21
2.84217094304e-016
0
SOLID
5
E1
100
AcDbEntity
8
GRAVIRANJE
6
CONTINUOUS
62
7
370
0
100
AcDbTrace
10
-65
20
2.84217094304e-016
30
0
11
-62.5
21
0.416284657773
31
0
12
-62.5
22
-0.416284657773
32
0
13
-62.5
23
-0.416284657773
33
0
0
SOLID
5
E2
100
AcDbEntity
8
GRAVIRANJE
6
CONTINUOUS
62
7
370
0
100
AcDbTrace
10
-35
20
2.84217094304e-016
30
0
11
-37.5
21
-0.416284657773
31
0
12
-37.5
22
0.416284657773
32
0
13
-37.5
23
0.416284657773
33
0
0
MTEXT
5
E3
100
AcDbEntity
8
GRAVIRANJE
6
CONTINUOUS
62
7
370
0
100
AcDbMText
10
-50
20
1.875
30
0
40
2.5
41
11.6666666667
71
5
72
1
1
30.0000
7
standard
210
0
220
0
230
1
50
0
73
2
44
1
0
ENDBLK
5
77
330
75
100
AcDbEntity
8
0
100
AcDbBlockEnd
0
BLOCK
5
79
330
78
100
AcDbEntity
8
0
100
AcDbBlockBegin
2
*D18
70
1
10
0
20
0
3
*D18
1

0
LINE
5
E4
100
AcDbEntity
8
0
6
CONTINUOUS
62
7
370
0
100
AcDbLine
10
91
20
220.625
11
91
21
341.25
0
LINE
5
E5
100
AcDbEntity
8
0
6
CONTINUOUS
62
7
370
0
100
AcDbLine
10
109
20
220.625
11
109
21
341.25
0
LINE
5
E6
100
AcDbEntity
8
0
6
CONTINUOUS
62
7
370
0
100
AcDbLine
10
91
20
340
11
109
21
340
0
SOLID
5
E7
100
AcDbEntity
8
0
6
CONTINUOUS
62
7
370
0
100
AcDbTrace
10
91
20
340
30
0
11
93.5
21
340.416284658
31
0
12
93.5
22
339.583715342
32
0
13
93.5
23
339.583715342
33
0
0
SOLID
5
E8
100
AcDbEntity
8
0
6
CONTINUOUS
62
7
370
0
100
AcDbTrace
10
109
20
340
30
0
11
106.5
21
339.583715342
31
0
12
106.5
22
340.416284658
32
0
13
106.5
23
340.416284658
33
0
0
MTEXT
5
E9
100
AcDbEntity
8
0
6
CONTINUOUS
62
7
370
0
100
AcDbMText
10
100
20
341.875
30
0
40
2.5
41
11.1111111111
71
5
72
1
1
18.0000
7
standard
210
0
220
0
230
1
50
0
73
2
44
1
0
ENDBLK
5
7A
330
78
100
AcDbEntity
8
0
100
AcDbBlockEnd
0
BLOCK
5
7C
330
7B
100
AcDbEntity
8
0
100
AcDbBlockBegin
2
*D11
70
1
10
0
20
0
3
*D11
1

0
LINE
5
EA
100
AcDbEntity
8
0
6
CONTINUOUS
62
7
370
0
100
AcDbLine
10
-13
20
96.375
11
-13
21
91.75
0
LINE
5
EB
100
AcDbEntity
8
0
6
CONTINUOUS
62
7
370
0
100
AcDbLine
10
-26
20
96.375
11
-26
21
91.75
0
LINE
5
EC
100
AcDbEntity
8
0
6
CONTINUOUS
62
7
370
0
100
AcDbLine
10
-13
20
93
11
-26
21
93
0
SOLID
5
ED
100
AcDbEntity
8
0
6
CONTINUOUS
62
7
370
0
100
AcDbTrace
10
-13
20
93
30
0
11
-15.5
21
92.5837153422
31
0
12
-15.5
22
93.4162846578
32
0
13
-15.5
23
93.4162846578
33
0
0
SOLID
5
EE
100
AcDbEntity
8
0
6
CONTINUOUS
62
7
370
0
100
AcDbTrace
10
-26
20
93
30
0
11
-23.5
21
93.4162846578
31
0
12
-23.5
22
92.5837153422
32
0
13
-23.5
23
92.5837153422
33
0
0
MTEXT
5
EF
100
AcDbEntity
8
0
6
CONTINUOUS
62
7
370
0
100
AcDbMText
10
-19.5
20
94.875
30
0
40
2.5
41
11.1111111111
71
5
72
1
1
13.0000
7
standard
210
0
220
0
230
1
50
360
73
2
44
1
0
ENDBLK
5
7D
330
7B
100
AcDbEntity
8
0
100
AcDbBlockEnd
0
BLOCK
5
7F
330
7E
100
AcDbEntity
8
0
100
AcDbBlockBegin
2
*D6
70
1
10
0
20
0
3
*D6
1

0
LINE
5
F0
100
AcDbEntity
8
IZREZ
6
CONTINUOUS
62
7
370
0
100
AcDbLine
10
120
20
106.873863542
11
120
21
93.1261364576
0
SOLID
5
F1
100
AcDbEntity
8
IZREZ
6
CONTINUOUS
62
7
370
0
100
AcDbTrace
10
120
20
106.873863542
30
0
11
120.416284658
21
104.373863542
31
0
12
119.583715342
22
104.373863542
32
0
13
119.583715342
23
104.373863542
33
0
0
SOLID
5
F2
100
AcDbEntity
8
IZREZ
6
CONTINUOUS
62
7
370
0
100
AcDbTrace
10
120
20
93.1261364576
30
0
11
119.583715342
21
95.6261364576
31
0
12
120.416284658
22
95.6261364576
32
0
13
120.416284658
23
95.6261364576
33
0
0
MTEXT
5
F3
100
AcDbEntity
8
IZREZ
6
CONTINUOUS
62
7
370
0
100
AcDbMText
10
118.125
20
100
30
0
40
2.5
41
11.3888888889
71
5
72
1
1
13.7477
7
standard
210
0
220
0
230
1
50
90
73
2
44
1
0
LINE
5
F4
100
AcDbEntity
8
IZREZ
6
CONTINUOUS
62
7
370
0
100
AcDbLine
10
103.625
20
106.873863542
11
121.25
21
106.873863542
0
LINE
5
F5
100
AcDbEntity
8
IZREZ
6
CONTINUOUS
62
7
370
0
100
AcDbLine
10
103.625
20
93.1261364576
11
121.25
21
93.1261364576
0
ENDBLK
5
80
330
7E
100
AcDbEntity
8
0
100
AcDbBlockEnd
0
BLOCK
5
82
330
81
100
AcDbEntity
8
0
100
AcDbBlockBegin
2
*D15
70
1
10
0
20
0
3
*D15
1

0
LINE
5
F6
100
AcDbEntity
8
0
6
CONTINUOUS
62
7
370
0
100
AcDbLine
10
37.3
20
-0.625
11
37.3
21
-21.25
0
LINE
5
F7
100
AcDbEntity
8
0
6
CONTINUOUS
62
7
370
0
100
AcDbLine
10
62.7
20
-0.625
11
62.7
21
-21.25
0
LINE
5
F8
100
AcDbEntity
8
0
6
CONTINUOUS
62
7
370
0
100
AcDbLine
10
37.3
20
-20
11
62.7
21
-20
0
SOLID
5
F9
100
AcDbEntity
8
0
6
CONTINUOUS
62
7
370
0
100
AcDbTrace
10
37.3
20
-20
30
0
11
39.8
21
-19.5837153422
31
0
12
39.8
22
-20.4162846578
32
0
13
39.8
23
-20.4162846578
33
0
0
SOLID
5
FA
100
AcDbEntity
8
0
6
CONTINUOUS
62
7
370
0
100
AcDbTrace
10
62.7
20
-20
30
0
11
60.2
21
-20.4162846578
31
0
12
60.2
22
-19.5837153422
32
0
13
60.2
23
-19.5837153422
33
0
0
MTEXT
5
FB
100
AcDbEntity
8
0
6
CONTINUOUS
62
7
370
0
100
AcDbMText
10
50
20
-18.125
30
0
40
2.5
41
11.9444444444
71
5
72
1
1
25.4000
7
standard
210
0
220
0
230
1
50
0
73
2
44
1
0
ENDBLK
5
83
330
81
100
AcDbEntity
8
0
100
AcDbBlockEnd
0
BLOCK
5
85
330
84
100
AcDbEntity
8
0
100
AcDbBlockBegin
2
*D12
70
1
10
0
20
0
3
*D12
1

0
LINE
5
FC
100
AcDbEntity
8
0
6
CONTINUOUS
62
7
370
0
100
AcDbLine
10
-26
20
103.625
11
-26
21
109.25
0
LINE
5
FD
100
AcDbEntity
8
0
6
CONTINUOUS
62
7
370
0
100
AcDbLine
10
-5
20
103.625
11
-5
21
109.25
0
LINE
5
FE
100
AcDbEntity
8
0
6
CONTINUOUS
62
7
370
0
100
AcDbLine
10
-26
20
108
11
-5
21
108
0
SOLID
5
FF
100
AcDbEntity
8
0
6
CONTINUOUS
62
7
370
0
100
AcDbTrace
10
-26
20
108
30
0
11
-23.5
21
108.416284658
31
0
12
-23.5
22
107.583715342
32
0
13
-23.5
23
107.583715342
33
0
0
SOLID
5
100
100
AcDbEntity
8
0
6
CONTINUOUS
62
7
370
0
100
AcDbTrace
10
-5
20
108
30
0
11
-7.5
21
107.583715342
31
0
12
-7.5
22
108.416284658
32
0
13
-7.5
23
108.416284658
33
0
0
MTEXT
5
101
100
AcDbEntity
8
0
6
CONTINUOUS
62
7
370
0
100
AcDbMText
10
-15.5
20
109.875
30
0
40
2.5
41
11.1111111111
71
5
72
1
1
21.0000
7
standard
210
0
220
0
230
1
50
0
73
2
44
1
0
ENDBLK
5
86
330
84
100
AcDbEntity
8
0
100
AcDbBlockEnd
0
BLOCK
5
88
330
87
100
AcDbEntity
8
0
100
AcDbBlockBegin
2
*D10
70
1
10
0
20
0
3
*D10
1

0
LINE
5
102
100
AcDbEntity
8
GRAVIRANJE
6
CONTINUOUS
62
7
370
0
100
AcDbLine
10
-56.51
20
66
11
-43.49
21
66
0
SOLID
5
103
100
AcDbEntity
8
GRAVIRANJE
6
CONTINUOUS
62
7
370
0
100
AcDbTrace
10
-51.51
20
66
30
0
11
-54.01
21
65.5837153422
31
0
12
-54.01
22
66.4162846578
32
0
13
-54.01
23
66.4162846578
33
0
0
SOLID
5
104
100
AcDbEntity
8
GRAVIRANJE
6
CONTINUOUS
62
7
370
0
100
AcDbTrace
10
-48.49
20
66
30
0
11
-45.99
21
66.4162846578
31
0
12
-45.99
22
65.5837153422
32
0
13
-45.99
23
65.5837153422
33
0
0
MTEXT
5
105
100
AcDbEntity
8
GRAVIRANJE
6
CONTINUOUS
62
7
370
0
100
AcDbMText
10
-43.0038888889
20
67.875
30
0
40
2.5
41
9.72222222222
71
5
72
1
1
3.0200
7
standard
210
0
220
0
230
1
50
0
73
2
44
1
0
LINE
5
106
100
AcDbEntity
8
GRAVIRANJE
6
CONTINUOUS
62
7
370
0
100
AcDbLine
10
-51.51
20
69.375
11
-51.51
21
64.75
0
LINE
5
107
100
AcDbEntity
8
GRAVIRANJE
6
CONTINUOUS
62
7
370
0
100
AcDbLine
10
-48.49
20
69.375
11
-48.49
21
64.75
0
ENDBLK
5
89
330
87
100
AcDbEntity
8
0
100
AcDbBlockEnd
0
ENDSEC
0
SECTION
2
ENTITIES
0
POINT
5
108
100
AcDbEntity
8
0
6
ByLayer
62
256
370
-1
100
AcDbPoint
10
50
20
50
0
POINT
5
109
100
AcDbEntity
8
0
6
ByLayer
62
256
370
-1
100
AcDbPoint
10
0
20
50
0
POINT
5
10A
100
AcDbEntity
8
0
6
ByLayer
62
256
370
-1
100
AcDbPoint
10
50
20
0
0
POINT
5
10B
100
AcDbEntity
8
0
6
ByLayer
62
256
370
-1
100
AcDbPoint
10
25
20
0
0
POINT
5
10C
100
AcDbEntity
8
0
6
ByLayer
62
256
370
-1
100
AcDbPoint
10
25
20
50
0
POINT
5
10D
100
AcDbEntity
8
0
6
ByLayer
62
256
370
-1
100
AcDbPoint
10
-50
20
0
0
POINT
5
10E
100
AcDbEntity
8
0
6
ByLayer
62
256
370
-1
100
AcDbPoint
10
-29
20
21
0
POINT
5
10F
100
AcDbEntity
8
0
6
ByLayer
62
256
370
-1
100
AcDbPoint
10
-71
20
21
0
POINT
5
110
100
AcDbEntity
8
0
6
ByLayer
62
256
370
-1
100
AcDbPoint
10
-29
20
-21
0
POINT
5
111
100
AcDbEntity
8
0
6
ByLayer
62
256
370
-1
100
AcDbPoint
10
-71
20
-21
0
POINT
5
112
100
AcDbEntity
8
0
6
ByLayer
62
256
370
-1
100
AcDbPoint
10
-34.5
20
15.5
0
POINT
5
113
100
AcDbEntity
8
0
6
ByLayer
62
256
370
-1
100
AcDbPoint
10
-65.5
20
15.5
0
POINT
5
114
100
AcDbEntity
8
0
6
ByLayer
62
256
370
-1
100
AcDbPoint
10
-34.5
20
-15.5
0
POINT
5
115
100
AcDbEntity
8
0
6
ByLayer
62
256
370
-1
100
AcDbPoint
10
-65.5
20
-15.5
0
POINT
5
116
100
AcDbEntity
8
0
6
ByLayer
62
256
370
-1
100
AcDbPoint
10
-31
20
19
0
POINT
5
117
100
AcDbEntity
8
0
6
ByLayer
62
256
370
-1
100
AcDbPoint
10
-69
20
19
0
POINT
5
118
100
AcDbEntity
8
0
6
ByLayer
62
256
370
-1
100
AcDbPoint
10
-69
20
-19
0
POINT
5
119
100
AcDbEntity
8
0
6
ByLayer
62
256
370
-1
100
AcDbPoint
10
-31
20
-19
0
POINT
5
11A
100
AcDbEntity
8
0
6
ByLayer
62
256
370
-1
100
AcDbPoint
10
-31
20
19
0
POINT
5
11B
100
AcDbEntity
8
0
6
ByLayer
62
256
370
-1
100
AcDbPoint
10
-69
20
19
0
POINT
5
11C
100
AcDbEntity
8
0
6
ByLayer
62
256
370
-1
100
AcDbPoint
10
-69
20
-19
0
POINT
5
11D
100
AcDbEntity
8
0
6
ByLayer
62
256
370
-1
100
AcDbPoint
10
-31
20
-19
0
LWPOLYLINE
5
11E
100
AcDbEntity
8
IZREZ
6
ByLayer
62
256
370
-1
100
AcDbPolyline
90
43
70
1
43
0
10
-50
20
15
10
-46.1177143235
20
14.4888873943
10
-42.5
20
12.9903810568
10
-39.3933982822
20
10.6066017178
10
-37.0096189432
20
7.5
10
-35.5111126057
20
3.88228567654
10
-35
20
-1.69547535733e-015
10
-35.5111126057
20
-3.88228567654
10
-37.0096189432
20
-7.5
10
-38.75
20
-9.76810875159
10
-38.75
20
-19
10
-38.4820508076
20
-20
10
-37.75
20
-20.7320508076
10
-36.75
20
-21
10
-31
20
-21
10
-30
20
-20.7320508076
10
-29.2679491924
20
-20
10
-29
20
-19
10
-29
20
19
10
-29.2679491924
20
20
10
-30
20
20.7320508076
10
-31
20
21
10
-69
20
21
10
-70
20
20.7320508076
10
-70.7320508076
20
20
10
-71
20
19
10
-71
20
-19
10
-70.7320508076
20
-20
10
-70
20
-20.7320508076
10
-69
20
-21
10
-63.25
20
-21
10
-62.25
20
-20.7320508076
10
-61.5179491924
20
-20
10
-61.25
20
-19
10
-61.25
20
-9.76810875159
10
-62.9903810568
20
-7.5
10
-64.4888873943
20
-3.88228567654
10
-65
20
3.41111687507e-015
10
-64.4888873943
20
3.88228567654
10
-62.9903810568
20
7.5
10
-60.6066017178
20
10.6066017178
10
-57.5
20
12.9903810568
10
-53.8822856765
20
14.4888873943
0
POINT
5
11F
100
AcDbEntity
8
0
6
ByLayer
62
256
370
-1
100
AcDbPoint
10
0
20
100
0
POINT
5
120
100
AcDbEntity
8
0
6
ByLayer
62
256
370
-1
100
AcDbPoint
10
100
20
0
0
POINT
5
121
100
AcDbEntity
8
0
6
ByLayer
62
256
370
-1
100
AcDbPoint
10
-100
20
0
0
POINT
5
122
100
AcDbEntity
8
0
6
ByLayer
62
256
370
-1
100
AcDbPoint
10
-25
20
50
0
POINT
5
123
100
AcDbEntity
8
0
6
ByLayer
62
256
370
-1
100
AcDbPoint
10
100
20
100
0
DIMENSION
5
124
100
AcDbEntity
8
0
6
ByLayer
62
256
370
-1
100
AcDbDimension
2
*D1
10
-29
20
30
30
0
11
-50
21
31.875
31
0
70
32
71
5
3
Standard
53
0
210
0
220
0
230
1
100
AcDbAlignedDimension
13
-71
23
19
33
0
14
-29
24
19
34
0
100
AcDbRotatedDimension
0
DIMENSION
5
125
100
AcDbEntity
8
GRAVIRANJE
6
ByLayer
62
256
370
-1
100
AcDbDimension
2
*D2
10
-35
20
2.84217094304e-016
30
0
11
-50
21
1.875
31
0
70
33
71
5
3
Standard
53
0
210
0
220
0
230
1
100
AcDbAlignedDimension
13
-65
23
0
33
0
14
-35
24
0
34
0
0
POINT
5
126
100
AcDbEntity
8
0
6
ByLayer
62
256
370
-1
100
AcDbPoint
10
-20
20
100
0
POINT
5
127
100
AcDbEntity
8
0
6
ByLayer
62
256
370
-1
100
AcDbPoint
10
20
20
100
0
POINT
5
128
100
AcDbEntity
8
0
6
ByLayer
62
256
370
-1
100
AcDbPoint
10
0
20
120
0
POINT
5
129
100
AcDbEntity
8
0
6
ByLayer
62
256
370
-1
100
AcDbPoint
10
0
20
80
0
POINT
5
12A
100
AcDbEntity
8
0
6
ByLayer
62
256
370
-1
100
AcDbPoint
10
20
20
80
0
POINT
5
12B
100
AcDbEntity
8
0
6
ByLayer
62
256
370
-1
100
AcDbPoint
10
-20
20
80
0
POINT
5
12C
100
AcDbEntity
8
0
6
ByLayer
62
256
370
-1
100
AcDbPoint
10
-20
20
120
0
POINT
5
12D
100
AcDbEntity
8
0
6
ByLayer
62
256
370
-1
100
AcDbPoint
10
20
20
120
0
POINT
5
12E
100
AcDbEntity
8
0
6
ByLayer
62
256
370
-1
100
AcDbPoint
10
-50
20
70
0
DIMENSION
5
12F
100
AcDbEntity
8
GRAVIRANJE
6
ByLayer
62
256
370
-1
100
AcDbDimension
2
*D3
10
-19.9
20
54
30
0
11
-50
21
55.875
31
0
70
32
71
5
3
Standard
53
0
210
0
220
0
230
1
100
AcDbAlignedDimension
13
-80.1
23
66.9
33
0
14
-19.9
24
66.9
34
0
100
AcDbRotatedDimension
0
DIMENSION
5
130
100
AcDbEntity
8
GRAVIRANJE
6
ByLayer
62
256
370
-1
100
AcDbDimension
2
*D4
10
-30.1
20
58
30
0
11
-50
21
59.875
31
0
70
32
71
5
3
Standard
53
0
210
0
220
0
230
1
100
AcDbAlignedDimension
13
-69.9
23
66.9
33
0
14
-30.1
24
66.9
34
0
100
AcDbRotatedDimension
0
POINT
5
131
100
AcDbEntity
8
0
6
ByLayer
62
256
370
-1
100
AcDbPoint
10
-25
20
70
0
POINT
5
132
100
AcDbEntity
8
0
6
ByLayer
62
256
370
-1
100
AcDbPoint
10
-75
20
70
0
POINT
5
133
100
AcDbEntity
8
0
6
ByLayer
62
256
370
-1
100
AcDbPoint
10
-50
20
95
0
POINT
5
134
100
AcDbEntity
8
0
6
ByLayer
62
256
370
-1
100
AcDbPoint
10
-50
20
45
0
LWPOLYLINE
5
135
100
AcDbEntity
8
IZREZ
6
ByLayer
62
256
370
-1
100
AcDbPolyline
90
4
70
0
43
0
10
-30
20
70
10
-30
20
76
10
-20
20
76
10
-20
20
70
0
LWPOLYLINE
5
136
100
AcDbEntity
8
IZREZ
6
ByLayer
62
256
370
-1
100
AcDbPolyline
90
4
70
0
43
0
10
-50
20
50
10
-44
20
50
10
-44
20
40
10
-50
20
40
0
LWPOLYLINE
5
137
100
AcDbEntity
8
IZREZ
6
ByLayer
62
256
370
-1
100
AcDbPolyline
90
17
70
1
43
0
10
-120.732050808
20
-20
10
-120
20
-20.7320508076
10
-119
20
-21
10
-113.25
20
-21
10
-81
20
-21
10
-80
20
-20.7320508076
10
-79.2679491924
20
-20
10
-79
20
-19
10
-79
20
19
10
-79.2679491924
20
20
10
-80
20
20.7320508076
10
-81
20
21
10
-119
20
21
10
-120
20
20.7320508076
10
-120.732050808
20
20
10
-121
20
19
10
-121
20
-19
0
TEXT
5
138
100
AcDbEntity
8
GRAVIRANJE
6
ByLayer
62
256
370
-1
100
AcDbText
10
-110
20
18
30
0
40
2
1
2x
50
0
41
1
51
0
7
standard
71
0
210
0
220
0
230
1
100
AcDbText
0
TEXT
5
139
100
AcDbEntity
8
GRAVIRANJE
6
ByLayer
62
256
370
-1
100
AcDbText
10
-60
20
18
30
0
40
2
1
14x
50
0
41
1
51
0
7
standard
71
0
210
0
220
0
230
1
100
AcDbText
0
LWPOLYLINE
5
13A
100
AcDbEntity
8
IZREZ
6
ByLayer
62
256
370
-1
100
AcDbPolyline
90
4
70
0
43
0
10
-80
20
70
10
-80
20
76
10
-70
20
76
10
-70
20
70
0
LWPOLYLINE
5
13B
100
AcDbEntity
8
IZREZ
6
ByLayer
62
256
370
-1
100
AcDbPolyline
90
4
70
0
43
0
10
-50
20
100
10
-44
20
100
10
-44
20
90
10
-50
20
90
0
LWPOLYLINE
5
13C
100
AcDbEntity
8
IZREZ
6
ByLayer
62
256
370
-1
100
AcDbPolyline
90
4
70
0
43
0
10
-30
20
70
10
-30
20
64
10
-20
20
64
10
-20
20
70
0
LWPOLYLINE
5
13D
100
AcDbEntity
8
IZREZ
6
ByLayer
62
256
370
-1
100
AcDbPolyline
90
4
70
0
43
0
10
-80
20
70
10
-80
20
64
10
-70
20
64
10
-70
20
70
0
LWPOLYLINE
5
13E
100
AcDbEntity
8
IZREZ
6
ByLayer
62
256
370
-1
100
AcDbPolyline
90
4
70
0
43
0
10
-50
20
50
10
-56
20
50
10
-56
20
40
10
-50
20
40
0
LWPOLYLINE
5
13F
100
AcDbEntity
8
IZREZ
6
ByLayer
62
256
370
-1
100
AcDbPolyline
90
4
70
0
43
0
10
-50
20
100
10
-56
20
100
10
-56
20
90
10
-50
20
90
0
CIRCLE
5
140
100
AcDbEntity
8
IZREZ
6
ByLayer
62
256
370
-1
100
AcDbCircle
10
100
20
100
40
7.5
0
LINE
5
141
100
AcDbEntity
8
IZREZ
6
ByLayer
62
256
370
-1
100
AcDbLine
10
90
20
100
11
110
21
100
0
LINE
5
142
100
AcDbEntity
8
IZREZ
6
ByLayer
62
256
370
-1
100
AcDbLine
10
110
20
106
11
90
21
106
0
LINE
5
143
100
AcDbEntity
8
IZREZ
6
ByLayer
62
256
370
-1
100
AcDbLine
10
110
20
94
11
90
21
94
0
DIMENSION
5
144
100
AcDbEntity
8
IZREZ
6
ByLayer
62
256
370
-1
100
AcDbDimension
2
*D5
10
105
20
80
30
0
11
100
21
81.875
31
0
70
32
71
5
72
0
3
Standard
53
0
210
0
220
0
230
1
100
AcDbAlignedDimension
13
95.5
23
94
33
0
14
104.5
24
94
34
0
100
AcDbRotatedDimension
0
LINE
5
145
100
AcDbEntity
8
IZREZ
6
ByLayer
62
256
370
-1
100
AcDbLine
10
110
20
88
11
90
21
88
0
LINE
5
146
100
AcDbEntity
8
IZREZ
6
ByLayer
62
256
370
-1
100
AcDbLine
10
110
20
112
11
90
21
112
0
LINE
5
147
100
AcDbEntity
8
IZREZ
6
ByLayer
62
256
370
-1
100
AcDbLine
10
103
20
110
11
103
21
90
0
LINE
5
148
100
AcDbEntity
8
IZREZ
6
ByLayer
62
256
370
-1
100
AcDbLine
10
97
20
110
11
97
21
90
0
LINE
5
149
100
AcDbEntity
8
IZREZ
6
ByLayer
62
256
370
-1
100
AcDbLine
10
109
20
110
11
109
21
90
0
DIMENSION
5
14A
100
AcDbEntity
8
IZREZ
6
ByLayer
62
256
370
-1
100
AcDbDimension
2
*D6
10
120
20
93.1261364576
30
0
11
118.125
21
100
31
0
70
32
71
5
72
0
3
Standard
53
0
210
0
220
0
230
1
100
AcDbAlignedDimension
13
103
23
106.873863542
33
0
14
103
24
93.1261364576
34
0
50
90
100
AcDbRotatedDimension
0
LINE
5
14B
100
AcDbEntity
8
IZREZ
6
ByLayer
62
256
370
-1
100
AcDbLine
10
93
20
110
11
93
21
90
0
DIMENSION
5
14C
100
AcDbEntity
8
IZREZ
6
ByLayer
62
256
370
-1
100
AcDbDimension
2
*D7
10
85
20
102.692582404
30
0
11
83.125
21
100
31
0
70
32
71
5
72
0
3
Standard
53
0
210
0
220
0
230
1
100
AcDbAlignedDimension
13
93
23
97.3074175964
33
0
14
93
24
102.692582404
34
0
50
90
100
AcDbRotatedDimension
0
LINE
5
14D
100
AcDbEntity
8
IZREZ
6
ByLayer
62
256
370
-1
100
AcDbLine
10
47.411809549
20
-9.65925826289
11
47.411809549
21
-9.65925826289
0
LWPOLYLINE
5
14E
100
AcDbEntity
8
IZREZ
6
ByLayer
62
256
370
-1
100
AcDbPolyline
90
20
70
1
43
0
10
55
20
-8.66025403784
10
64.85
20
-3.72390923627
10
66.4239092363
20
-2.15
10
67
20
7.13437555561e-015
10
66.4239092363
20
2.15
10
64.85
20
3.72390923627
10
55
20
8.66025403784
10
52.588190451
20
9.65925826289
10
50
20
10
10
47.411809549
20
9.65925826289
10
45
20
8.66025403784
10
35.15
20
3.72390923627
10
33.5760907637
20
2.15
10
33
20
0
10
33.5760907637
20
-2.15
10
35.15
20
-3.72390923627
10
45
20
-8.66025403784
10
47.411809549
20
-9.65925826289
10
50
20
-10
10
52.588190451
20
-9.65925826289
0
POINT
5
14F
100
AcDbEntity
8
0
6
ByLayer
62
256
370
-1
100
AcDbPoint
10
100
20
0
0
LWPOLYLINE
5
150
100
AcDbEntity
8
HOLES
6
ByLayer
62
256
370
-1
100
AcDbPolyline
90
6
70
1
43
0
10
107.5
20
12
10
100
20
12
10
92.5
20
12
10
92.5
20
-12
10
100
20
-12
10
107.5
20
-12
0
CIRCLE
5
151
100
AcDbEntity
8
HOLES
6
ByLayer
62
256
370
-1
100
AcDbCircle
10
110
20
10
40
1.6
0
CIRCLE
5
152
100
AcDbEntity
8
HOLES
6
ByLayer
62
256
370
-1
100
AcDbCircle
10
110
20
-10
40
1.6
0
CIRCLE
5
153
100
AcDbEntity
8
HOLES
6
ByLayer
62
256
370
-1
100
AcDbCircle
10
90
20
-10
40
1.6
0
CIRCLE
5
154
100
AcDbEntity
8
HOLES
6
ByLayer
62
256
370
-1
100
AcDbCircle
10
90
20
10
40
1.6
0
POINT
5
155
100
AcDbEntity
8
0
6
ByLayer
62
256
370
-1
100
AcDbPoint
10
130
20
0
0
LWPOLYLINE
5
156
100
AcDbEntity
8
HOLES
6
ByLayer
62
256
370
-1
100
AcDbPolyline
90
6
70
1
43
0
10
137.5
20
12
10
130
20
12
10
122.5
20
12
10
122.5
20
-12
10
130
20
-12
10
137.5
20
-12
0
CIRCLE
5
157
100
AcDbEntity
8
HOLES
6
ByLayer
62
256
370
-1
100
AcDbCircle
10
140
20
10
40
1.6
0
CIRCLE
5
158
100
AcDbEntity
8
HOLES
6
ByLayer
62
256
370
-1
100
AcDbCircle
10
140
20
-10
40
1.6
0
CIRCLE
5
159
100
AcDbEntity
8
HOLES
6
ByLayer
62
256
370
-1
100
AcDbCircle
10
120
20
-10
40
1.6
0
CIRCLE
5
15A
100
AcDbEntity
8
HOLES
6
ByLayer
62
256
370
-1
100
AcDbCircle
10
120
20
10
40
1.6
0
POINT
5
15B
100
AcDbEntity
8
0
6
ByLayer
62
256
370
-1
100
AcDbPoint
10
100
20
40
0
POINT
5
15C
100
AcDbEntity
8
0
6
ByLayer
62
256
370
-1
100
AcDbPoint
10
130
20
40
0
CIRCLE
5
15D
100
AcDbEntity
8
HOLES
6
ByLayer
62
256
370
-1
100
AcDbCircle
10
110
20
50
40
1.6
0
CIRCLE
5
15E
100
AcDbEntity
8
HOLES
6
ByLayer
62
256
370
-1
100
AcDbCircle
10
110
20
30
40
1.6
0
CIRCLE
5
15F
100
AcDbEntity
8
HOLES
6
ByLayer
62
256
370
-1
100
AcDbCircle
10
90
20
30
40
1.6
0
CIRCLE
5
160
100
AcDbEntity
8
HOLES
6
ByLayer
62
256
370
-1
100
AcDbCircle
10
90
20
50
40
1.6
0
CIRCLE
5
161
100
AcDbEntity
8
HOLES
6
ByLayer
62
256
370
-1
100
AcDbCircle
10
140
20
50
40
1.6
0
CIRCLE
5
162
100
AcDbEntity
8
HOLES
6
ByLayer
62
256
370
-1
100
AcDbCircle
10
140
20
30
40
1.6
0
CIRCLE
5
163
100
AcDbEntity
8
HOLES
6
ByLayer
62
256
370
-1
100
AcDbCircle
10
120
20
30
40
1.6
0
CIRCLE
5
164
100
AcDbEntity
8
HOLES
6
ByLayer
62
256
370
-1
100
AcDbCircle
10
120
20
50
40
1.6
0
LWPOLYLINE
5
165
100
AcDbEntity
8
HOLES
6
ByLayer
62
256
370
-1
100
AcDbPolyline
90
6
70
1
43
0
10
104.5
20
52
10
100
20
52
10
95.5
20
52
10
95.5
20
28
10
100
20
28
10
104.5
20
28
0
LWPOLYLINE
5
166
100
AcDbEntity
8
HOLES
6
ByLayer
62
256
370
-1
100
AcDbPolyline
90
6
70
1
43
0
10
134.5
20
52
10
130
20
52
10
125.5
20
52
10
125.5
20
28
10
130
20
28
10
134.5
20
28
0
LWPOLYLINE
5
167
100
AcDbEntity
8
IZREZ
6
ByLayer
62
256
370
-1
100
AcDbPolyline
90
4
70
0
43
0
10
130
20
15
10
150
20
15
10
150
20
-15
10
130
20
-15
0
LWPOLYLINE
5
168
100
AcDbEntity
8
IZREZ
6
ByLayer
62
256
370
-1
100
AcDbPolyline
90
4
70
0
43
0
10
130
20
55
10
150
20
55
10
150
20
25
10
130
20
25
0
LWPOLYLINE
5
169
100
AcDbEntity
8
IZREZ
6
ByLayer
62
256
370
-1
100
AcDbPolyline
90
4
70
0
43
0
10
130
20
15
10
117
20
15
10
117
20
-15
10
130
20
-15
0
LWPOLYLINE
5
16A
100
AcDbEntity
8
IZREZ
6
ByLayer
62
256
370
-1
100
AcDbPolyline
90
10
70
1
43
0
10
100
20
-15
10
80
20
-15
10
80
20
-4
10
87
20
-4
10
87
20
4
10
80
20
4
10
80
20
15
10
100
20
15
10
113
20
15
10
113
20
-15
0
LWPOLYLINE
5
16B
100
AcDbEntity
8
IZREZ
6
ByLayer
62
256
370
-1
100
AcDbPolyline
90
4
70
0
43
0
10
130
20
55
10
117
20
55
10
117
20
25
10
130
20
25
0
LWPOLYLINE
5
16C
100
AcDbEntity
8
IZREZ
6
ByLayer
62
256
370
-1
100
AcDbPolyline
90
4
70
0
43
0
10
100
20
55
10
87
20
55
10
87
20
25
10
100
20
25
0
LWPOLYLINE
5
16D
100
AcDbEntity
8
IZREZ
6
ByLayer
62
256
370
-1
100
AcDbPolyline
90
4
70
0
43
0
10
100
20
55
10
113
20
55
10
113
20
25
10
100
20
25
0
CIRCLE
5
16E
100
AcDbEntity
8
HOLES
6
ByLayer
62
256
370
-1
100
AcDbCircle
10
83.5
20
-10
40
1.6
0
CIRCLE
5
16F
100
AcDbEntity
8
HOLES
6
ByLayer
62
256
370
-1
100
AcDbCircle
10
83.5
20
10
40
1.6
0
CIRCLE
5
170
100
AcDbEntity
8
HOLES
6
ByLayer
62
256
370
-1
100
AcDbCircle
10
146.5
20
-10
40
1.6
0
CIRCLE
5
171
100
AcDbEntity
8
HOLES
6
ByLayer
62
256
370
-1
100
AcDbCircle
10
146.5
20
10
40
1.6
0
CIRCLE
5
172
100
AcDbEntity
8
HOLES
6
ByLayer
62
256
370
-1
100
AcDbCircle
10
146.5
20
30
40
1.6
0
CIRCLE
5
173
100
AcDbEntity
8
HOLES
6
ByLayer
62
256
370
-1
100
AcDbCircle
10
146.5
20
50
40
1.6
0
LINE
5
174
100
AcDbEntity
8
IZREZ
6
ByLayer
62
256
370
-1
100
AcDbLine
10
80
20
55
11
80
21
25
0
LINE
5
175
100
AcDbEntity
8
IZREZ
6
ByLayer
62
256
370
-1
100
AcDbLine
10
80
20
25
11
73
21
25
0
LINE
5
176
100
AcDbEntity
8
IZREZ
6
ByLayer
62
256
370
-1
100
AcDbLine
10
73
20
25
11
73
21
55
0
LINE
5
177
100
AcDbEntity
8
IZREZ
6
ByLayer
62
256
370
-1
100
AcDbLine
10
73
20
55
11
80
21
55
0
CIRCLE
5
178
100
AcDbEntity
8
HOLES
6
ByLayer
62
256
370
-1
100
AcDbCircle
10
76.5
20
30
40
1.6
0
CIRCLE
5
179
100
AcDbEntity
8
HOLES
6
ByLayer
62
256
370
-1
100
AcDbCircle
10
76.5
20
50
40
1.6
0
POINT
5
17A
100
AcDbEntity
8
0
6
ByLayer
62
256
370
-1
100
AcDbPoint
10
200
20
0
0
POINT
5
17B
100
AcDbEntity
8
0
6
ByLayer
62
256
370
-1
100
AcDbPoint
10
200
20
50
0
LWPOLYLINE
5
17C
100
AcDbEntity
8
HOLES
6
ByLayer
62
256
370
-1
100
AcDbPolyline
90
26
70
1
43
0
10
187.925927171
20
53.2352380638
10
187.5
20
50
10
187.5
20
3.17469574934e-014
10
187.925927171
20
-3.23523806378
10
189.174682453
20
-6.25
10
191.161165235
20
-8.83883476483
10
193.75
20
-10.8253175473
10
196.764761936
20
-12.0740728286
10
200
20
-12.5
10
203.235238064
20
-12.0740728286
10
206.25
20
-10.8253175473
10
208.838834765
20
-8.83883476483
10
210.825317547
20
-6.25
10
212.074072829
20
-3.23523806378
10
212.5
20
-3.17469574934e-014
10
212.5
20
50
10
212.074072829
20
53.2352380638
10
210.825317547
20
56.25
10
208.838834765
20
58.8388347648
10
206.25
20
60.8253175473
10
203.235238064
20
62.0740728286
10
200
20
62.5
10
196.764761936
20
62.0740728286
10
193.75
20
60.8253175473
10
191.161165235
20
58.8388347648
10
189.174682453
20
56.25
0
LWPOLYLINE
5
17D
100
AcDbEntity
8
HOLES
6
ByLayer
62
256
370
-1
100
AcDbPolyline
90
14
70
1
43
0
10
184.5
20
67.1
10
185.3
20
66.8856406461
10
185.885640646
20
66.3
10
186.1
20
65.5
10
186.1
20
30
10
185.885640646
20
29.2
10
185.3
20
28.6143593539
10
184.5
20
28.4
10
183.7
20
28.6143593539
10
183.114359354
20
29.2
10
182.9
20
30
10
182.9
20
65.5
10
183.114359354
20
66.3
10
183.7
20
66.8856406461
0
LWPOLYLINE
5
17E
100
AcDbEntity
8
HOLES
6
ByLayer
62
256
370
-1
100
AcDbPolyline
90
14
70
1
43
0
10
186.1
20
20
10
185.885640646
20
20.8
10
185.3
20
21.3856406461
10
184.5
20
21.6
10
183.7
20
21.3856406461
10
183.114359354
20
20.8
10
182.9
20
20
10
182.9
20
-15.5
10
183.114359354
20
-16.3
10
183.7
20
-16.8856406461
10
184.5
20
-17.1
10
185.3
20
-16.8856406461
10
185.885640646
20
-16.3
10
186.1
20
-15.5
0
LWPOLYLINE
5
17F
100
AcDbEntity
8
HOLES
6
ByLayer
62
256
370
-1
100
AcDbPolyline
90
14
70
1
43
0
10
215.5
20
67.1
10
214.7
20
66.8856406461
10
214.114359354
20
66.3
10
213.9
20
65.5
10
213.9
20
30
10
214.114359354
20
29.2
10
214.7
20
28.6143593539
10
215.5
20
28.4
10
216.3
20
28.6143593539
10
216.885640646
20
29.2
10
217.1
20
30
10
217.1
20
65.5
10
216.885640646
20
66.3
10
216.3
20
66.8856406461
0
LWPOLYLINE
5
180
100
AcDbEntity
8
HOLES
6
ByLayer
62
256
370
-1
100
AcDbPolyline
90
14
70
1
43
0
10
213.9
20
20
10
214.114359354
20
20.8
10
214.7
20
21.3856406461
10
215.5
20
21.6
10
216.3
20
21.3856406461
10
216.885640646
20
20.8
10
217.1
20
20
10
217.1
20
-15.5
10
216.885640646
20
-16.3
10
216.3
20
-16.8856406461
10
215.5
20
-17.1
10
214.7
20
-16.8856406461
10
214.114359354
20
-16.3
10
213.9
20
-15.5
0
LWPOLYLINE
5
181
100
AcDbEntity
8
HOLES
6
ByLayer
62
256
370
-1
100
AcDbPolyline
90
14
70
1
43
0
10
228.4
20
101.6
10
228.614359354
20
102.4
10
229.2
20
102.985640646
10
230
20
103.2
10
265.5
20
103.2
10
266.3
20
102.985640646
10
266.885640646
20
102.4
10
267.1
20
101.6
10
266.885640646
20
100.8
10
266.3
20
100.214359354
10
265.5
20
100
10
230
20
100
10
229.2
20
100.214359354
10
228.614359354
20
100.8
0
LWPOLYLINE
5
182
100
AcDbEntity
8
HOLES
6
ByLayer
62
256
370
-1
100
AcDbPolyline
90
14
70
1
43
0
10
168.700961894
20
100.75
10
169.25
20
101.299038106
10
170
20
101.5
10
200
20
101.5
10
200.75
20
101.299038106
10
201.299038106
20
100.75
10
201.5
20
100
10
201.299038106
20
99.25
10
200.75
20
98.7009618943
10
200
20
98.5
10
170
20
98.5
10
169.25
20
98.7009618943
10
168.700961894
20
99.25
10
168.5
20
100
0
LWPOLYLINE
5
183
100
AcDbEntity
8
HOLES
6
ByLayer
62
256
370
-1
100
AcDbPolyline
90
14
70
1
43
0
10
168.700961894
20
110.35
10
169.25
20
110.899038106
10
170
20
111.1
10
200
20
111.1
10
200.75
20
110.899038106
10
201.299038106
20
110.35
10
201.5
20
109.6
10
201.299038106
20
108.85
10
200.75
20
108.300961894
10
200
20
108.1
10
170
20
108.1
10
169.25
20
108.300961894
10
168.700961894
20
108.85
10
168.5
20
109.6
0
LWPOLYLINE
5
184
100
AcDbEntity
8
HOLES
6
ByLayer
62
256
370
-1
100
AcDbPolyline
90
14
70
1
43
0
10
168.700961894
20
119.75
10
169.25
20
120.299038106
10
170
20
120.5
10
200
20
120.5
10
200.75
20
120.299038106
10
201.299038106
20
119.75
10
201.5
20
119
10
201.299038106
20
118.25
10
200.75
20
117.700961894
10
200
20
117.5
10
170
20
117.5
10
169.25
20
117.700961894
10
168.700961894
20
118.25
10
168.5
20
119
0
DIMENSION
5
185
100
AcDbEntity
8
GRAVIRANJE
6
ByLayer
62
256
370
-1
100
AcDbDimension
2
*D8
10
210
20
119
30
0
11
208.125
21
109.5
31
0
70
32
71
5
3
Standard
53
0
210
0
220
0
230
1
100
AcDbAlignedDimension
13
202
23
100
33
0
14
202
24
119
34
0
50
90
100
AcDbRotatedDimension
0
DIMENSION
5
186
100
AcDbEntity
8
GRAVIRANJE
6
ByLayer
62
256
370
-1
100
AcDbDimension
2
*D9
10
160
20
110
30
0
11
158.125
21
104.8
31
0
70
32
71
5
3
Standard
53
0
210
0
220
0
230
1
100
AcDbAlignedDimension
13
168
23
100
33
0
14
168
24
109.6
34
0
50
90
100
AcDbRotatedDimension
0
LWPOLYLINE
5
187
100
AcDbEntity
8
HOLES
6
ByLayer
62
256
370
-1
100
AcDbPolyline
90
26
70
1
43
0
10
210.625184089
20
52.8470094961
10
209.526279442
20
55.5
10
207.778174593
20
57.7781745931
10
205.5
20
59.5262794416
10
202.847009496
20
60.6251840892
10
200
20
61
10
197.152990504
20
60.6251840892
10
194.5
20
59.5262794416
10
192.221825407
20
57.7781745931
10
190.473720558
20
55.5
10
189.374815911
20
52.8470094961
10
189
20
50
10
189
20
-1.40796662523e-014
10
189.374815911
20
-2.84700949613
10
190.473720558
20
-5.5
10
192.221825407
20
-7.77817459305
10
194.5
20
-9.52627944163
10
197.152990504
20
-10.6251840892
10
200
20
-11
10
202.847009496
20
-10.6251840892
10
205.5
20
-9.52627944163
10
207.778174593
20
-7.77817459305
10
209.526279442
20
-5.5
10
210.625184089
20
-2.84700949613
10
211
20
-1.25155961983e-014
10
211
20
50
0
CIRCLE
5
188
100
AcDbEntity
8
HOLES
6
ByLayer
62
256
370
-1
100
AcDbCircle
10
50
20
0
40
5.5
0
LWPOLYLINE
5
189
100
AcDbEntity
8
HOLES
6
ByLayer
62
256
370
-1
100
AcDbPolyline
90
5
70
1
43
0
10
-20
20
73
10
-30
20
73
10
-30
20
67
10
-20
20
67
10
-20
20
67
0
LWPOLYLINE
5
18A
100
AcDbEntity
8
HOLES
6
ByLayer
62
256
370
-1
100
AcDbPolyline
90
5
70
1
43
0
10
-70
20
73
10
-80
20
73
10
-80
20
67
10
-70
20
67
10
-70
20
67
0
LWPOLYLINE
5
18B
100
AcDbEntity
8
HOLES
6
ByLayer
62
256
370
-1
100
AcDbPolyline
90
5
70
1
43
0
10
-53
20
100
10
-53
20
90
10
-47
20
90
10
-47
20
100
10
-47
20
100
0
LWPOLYLINE
5
18C
100
AcDbEntity
8
HOLES
6
ByLayer
62
256
370
-1
100
AcDbPolyline
90
5
70
1
43
0
10
-53
20
50
10
-53
20
40
10
-47
20
40
10
-47
20
50
10
-47
20
50
0
LWPOLYLINE
5
18D
100
AcDbEntity
8
IZREZ
6
ByLayer
62
256
370
-1
100
AcDbPolyline
90
13
70
0
43
0
10
1.5
20
80
10
1.5
20
87
10
2.9
20
87
10
2.9
20
89
10
1.5
20
89
10
1.5
20
95
10
-9.18454765367e-016
20
95
10
-1.5
20
95
10
-1.5
20
89
10
-2.9
20
89
10
-2.9
20
87
10
-1.5
20
87
10
-1.5
20
80
0
LWPOLYLINE
5
18E
100
AcDbEntity
8
IZREZ
6
ByLayer
62
256
370
-1
100
AcDbPolyline
90
13
70
0
43
0
10
1.5
20
120
10
1.5
20
113
10
2.9
20
113
10
2.9
20
111
10
1.5
20
111
10
1.5
20
105
10
-9.18454765367e-016
20
105
10
-1.5
20
105
10
-1.5
20
111
10
-2.9
20
111
10
-2.9
20
113
10
-1.5
20
113
10
-1.5
20
120
0
LWPOLYLINE
5
18F
100
AcDbEntity
8
IZREZ
6
ByLayer
62
256
370
-1
100
AcDbPolyline
90
13
70
0
43
0
10
20
20
101.5
10
13
20
101.5
10
13
20
102.9
10
11
20
102.9
10
11
20
101.5
10
5
20
101.5
10
5
20
100
10
5
20
98.5
10
11
20
98.5
10
11
20
97.1
10
13
20
97.1
10
13
20
98.5
10
20
20
98.5
0
LWPOLYLINE
5
190
100
AcDbEntity
8
IZREZ
6
ByLayer
62
256
370
-1
100
AcDbPolyline
90
13
70
0
43
0
10
-20
20
101.5
10
-13
20
101.5
10
-13
20
102.9
10
-11
20
102.9
10
-11
20
101.5
10
-5
20
101.5
10
-5
20
100
10
-5
20
98.5
10
-11
20
98.5
10
-11
20
97.1
10
-13
20
97.1
10
-13
20
98.5
10
-20
20
98.5
0
LINE
5
191
100
AcDbEntity
8
IZREZ
6
ByLayer
62
256
370
-1
100
AcDbLine
10
-70
20
70
11
-51.5
21
70
0
DIMENSION
5
192
100
AcDbEntity
8
GRAVIRANJE
6
ByLayer
62
256
370
-1
100
AcDbDimension
2
*D10
10
-48.4
20
66
30
0
11
-50
21
67.875
31
0
70
32
71
5
3
Standard
53
0
210
0
220
0
230
1
100
AcDbAlignedDimension
13
-51.51
23
70
33
0
14
-48.49
24
70
34
0
100
AcDbRotatedDimension
0
LINE
5
193
100
AcDbEntity
8
IZREZ
6
ByLayer
62
256
370
-1
100
AcDbLine
10
-48.5
20
70
11
-30
21
70
0
LINE
5
194
100
AcDbEntity
8
IZREZ
6
ByLayer
62
256
370
-1
100
AcDbLine
10
-50
20
71.5
11
-50
21
90
0
LINE
5
195
100
AcDbEntity
8
IZREZ
6
ByLayer
62
256
370
-1
100
AcDbLine
10
-50
20
50
11
-50
21
68.5
0
CIRCLE
5
196
100
AcDbEntity
8
HOLES
6
ByLayer
62
256
370
-1
100
AcDbCircle
10
25
20
0
40
1.5
0
POINT
5
197
100
AcDbEntity
8
0
6
ByLayer
62
256
370
-1
100
AcDbPoint
10
62.7
20
0
0
POINT
5
198
100
AcDbEntity
8
0
6
ByLayer
62
256
370
-1
100
AcDbPoint
10
37.3
20
0
0
POINT
5
199
100
AcDbEntity
8
0
6
ByLayer
62
256
370
-1
100
AcDbPoint
10
50
20
12.7
0
POINT
5
19A
100
AcDbEntity
8
0
6
ByLayer
62
256
370
-1
100
AcDbPoint
10
50
20
-12.7
0
CIRCLE
5
19B
100
AcDbEntity
8
HOLES
6
ByLayer
62
256
370
-1
100
AcDbCircle
10
37.3
20
0
40
1.5
0
CIRCLE
5
19C
100
AcDbEntity
8
HOLES
6
ByLayer
62
256
370
-1
100
AcDbCircle
10
62.7
20
0
40
1.5
0
CIRCLE
5
19D
100
AcDbEntity
8
HOLES
6
ByLayer
62
256
370
-1
100
AcDbCircle
10
50
20
12.7
40
1.5
0
CIRCLE
5
19E
100
AcDbEntity
8
HOLES
6
ByLayer
62
256
370
-1
100
AcDbCircle
10
50
20
-12.7
40
1.5
0
CIRCLE
5
19F
100
AcDbEntity
8
HOLES
6
ByLayer
62
256
370
-1
100
AcDbCircle
10
-34.5
20
-15.5
40
1.5
0
CIRCLE
5
1A0
100
AcDbEntity
8
HOLES
6
ByLayer
62
256
370
-1
100
AcDbCircle
10
-34.5
20
15.5
40
1.5
0
CIRCLE
5
1A1
100
AcDbEntity
8
HOLES
6
ByLayer
62
256
370
-1
100
AcDbCircle
10
-65.5
20
15.5
40
1.5
0
CIRCLE
5
1A2
100
AcDbEntity
8
HOLES
6
ByLayer
62
256
370
-1
100
AcDbCircle
10
-65.5
20
-15.5
40
1.5
0
CIRCLE
5
1A3
100
AcDbEntity
8
HOLES
6
ByLayer
62
256
370
-1
100
AcDbCircle
10
-50
20
70
40
1.5
0
CIRCLE
5
1A4
100
AcDbEntity
8
HOLES
6
ByLayer
62
256
370
-1
100
AcDbCircle
10
-84.5
20
-15.5
40
1.5
0
CIRCLE
5
1A5
100
AcDbEntity
8
HOLES
6
ByLayer
62
256
370
-1
100
AcDbCircle
10
-87.3
20
0
40
1.5
0
CIRCLE
5
1A6
100
AcDbEntity
8
HOLES
6
ByLayer
62
256
370
-1
100
AcDbCircle
10
-112.7
20
0
40
1.5
0
CIRCLE
5
1A7
100
AcDbEntity
8
HOLES
6
ByLayer
62
256
370
-1
100
AcDbCircle
10
-115.5
20
-15.5
40
1.5
0
CIRCLE
5
1A8
100
AcDbEntity
8
HOLES
6
ByLayer
62
256
370
-1
100
AcDbCircle
10
-115.5
20
15.5
40
1.5
0
CIRCLE
5
1A9
100
AcDbEntity
8
HOLES
6
ByLayer
62
256
370
-1
100
AcDbCircle
10
-84.5
20
15.5
40
1.5
0
CIRCLE
5
1AA
100
AcDbEntity
8
HOLES
6
ByLayer
62
256
370
-1
100
AcDbCircle
10
300
20
42
40
1.5
0
CIRCLE
5
1AB
100
AcDbEntity
8
HOLES
6
ByLayer
62
256
370
-1
100
AcDbCircle
10
300
20
100
40
1.5
0
CIRCLE
5
1AC
100
AcDbEntity
8
GRAVIRANJE
6
ByLayer
62
256
370
-1
100
AcDbCircle
10
300
20
100
40
2.5
0
CIRCLE
5
1AD
100
AcDbEntity
8
HOLES
6
ByLayer
62
256
370
-1
100
AcDbCircle
10
349
20
42
40
1.5
0
CIRCLE
5
1AE
100
AcDbEntity
8
GRAVIRANJE
6
ByLayer
62
256
370
-1
100
AcDbCircle
10
349
20
42
40
2.5
0
CIRCLE
5
1AF
100
AcDbEntity
8
HOLES
6
ByLayer
62
256
370
-1
100
AcDbCircle
10
349
20
100
40
1.5
0
CIRCLE
5
1B0
100
AcDbEntity
8
GRAVIRANJE
6
ByLayer
62
256
370
-1
100
AcDbCircle
10
349
20
100
40
2.5
0
CIRCLE
5
1B1
100
AcDbEntity
8
GRAVIRANJE
6
ByLayer
62
256
370
-1
100
AcDbCircle
10
300
20
42
40
2.5
0
LINE
5
1B2
100
AcDbEntity
8
GRAVIRANJE
6
ByLayer
62
256
370
-1
100
AcDbLine
10
300
20
39
11
349
21
39
0
LINE
5
1B3
100
AcDbEntity
8
GRAVIRANJE
6
ByLayer
62
256
370
-1
100
AcDbLine
10
300
20
124
11
349
21
124
0
LINE
5
1B4
100
AcDbEntity
8
GRAVIRANJE
6
ByLayer
62
256
370
-1
100
AcDbLine
10
352
20
42
11
352
21
121
0
LINE
5
1B5
100
AcDbEntity
8
GRAVIRANJE
6
ByLayer
62
256
370
-1
100
AcDbLine
10
297
20
121
11
297
21
42
0
ARC
5
1B6
100
AcDbEntity
8
GRAVIRANJE
6
ByLayer
62
256
370
-1
100
AcDbCircle
10
300
20
42
40
3
100
AcDbArc
50
180
51
270
0
ARC
5
1B7
100
AcDbEntity
8
GRAVIRANJE
6
ByLayer
62
256
370
-1
100
AcDbCircle
10
349
20
42
40
3
100
AcDbArc
50
270
51
0
0
ARC
5
1B8
100
AcDbEntity
8
GRAVIRANJE
6
ByLayer
62
256
370
-1
100
AcDbCircle
10
349
20
121
40
3
100
AcDbArc
50
6.09211348426e-005
51
90
0
ARC
5
1B9
100
AcDbEntity
8
GRAVIRANJE
6
ByLayer
62
256
370
-1
100
AcDbCircle
10
300
20
121
40
3
100
AcDbArc
50
90
51
180
0
MTEXT
5
1BA
100
AcDbEntity
8
GRAVIRANJE
6
ByLayer
62
256
370
-1
100
AcDbMText
10
307
20
56
30
0
40
4
41
37.2222242794
71
1
72
1
1
Raspberry PI+
7
standard
210
0
220
0
230
1
50
0
73
2
44
1
0
DIMENSION
5
1BB
100
AcDbEntity
8
0
6
ByLayer
62
256
370
-1
100
AcDbDimension
2
*D11
10
-26
20
93
30
0
11
-19.5
21
94.875
31
0
70
33
71
5
3
Standard
53
0
210
0
220
0
230
1
100
AcDbAlignedDimension
13
-13
23
97
33
0
14
-26
24
97
34
0
0
DIMENSION
5
1BC
100
AcDbEntity
8
0
6
ByLayer
62
256
370
-1
100
AcDbDimension
2
*D12
10
-5
20
108
30
0
11
-15.5
21
109.875
31
0
70
33
71
5
3
Standard
53
0
210
0
220
0
230
1
100
AcDbAlignedDimension
13
-26
23
103
33
0
14
-5
24
103
34
0
0
DIMENSION
5
1BD
100
AcDbEntity
8
0
6
ByLayer
62
256
370
-1
100
AcDbDimension
2
*D13
10
-26
20
104
30
0
11
-23
21
105.875
31
0
70
33
71
5
3
Standard
53
0
210
0
220
0
230
1
100
AcDbAlignedDimension
13
-20
23
100
33
0
14
-26
24
100
34
0
0
DIMENSION
5
1BE
100
AcDbEntity
8
0
6
ByLayer
62
256
370
-1
100
AcDbDimension
2
*D14
10
25
20
102.5
30
0
11
23.125
21
100
31
0
70
32
71
5
72
0
3
Standard
53
0
210
0
220
0
230
1
100
AcDbAlignedDimension
13
13
23
97.1
33
0
14
13
24
102.9
34
0
50
90
100
AcDbRotatedDimension
0
CIRCLE
5
1BF
100
AcDbEntity
8
HOLES
6
ByLayer
62
256
370
-1
100
AcDbCircle
10
0
20
100
40
1.5
0
CIRCLE
5
1C0
100
AcDbEntity
8
HOLES
6
ByLayer
62
256
370
-1
100
AcDbCircle
10
50
20
0
40
8
0
CIRCLE
5
1C1
100
AcDbEntity
8
HOLES
6
ByLayer
62
256
370
-1
100
AcDbCircle
10
-100
20
0
40
5.5
0
POINT
5
1C2
100
AcDbEntity
8
0
6
ByLayer
62
256
370
-1
100
AcDbPoint
10
300
20
200
0
POINT
5
1C3
100
AcDbEntity
8
0
6
ByLayer
62
256
370
-1
100
AcDbPoint
10
344
20
232.5
0
POINT
5
1C4
100
AcDbEntity
8
0
6
ByLayer
62
256
370
-1
100
AcDbPoint
10
256
20
232.5
0
POINT
5
1C5
100
AcDbEntity
8
0
6
ByLayer
62
256
370
-1
100
AcDbPoint
10
256
20
167.5
0
POINT
5
1C6
100
AcDbEntity
8
0
6
ByLayer
62
256
370
-1
100
AcDbPoint
10
344
20
167.5
0
CIRCLE
5
1C7
100
AcDbEntity
8
HOLES
6
ByLayer
62
256
370
-1
100
AcDbCircle
10
344
20
232.5
40
1.3
0
CIRCLE
5
1C8
100
AcDbEntity
8
HOLES
6
ByLayer
62
256
370
-1
100
AcDbCircle
10
256
20
232.5
40
1.3
0
CIRCLE
5
1C9
100
AcDbEntity
8
HOLES
6
ByLayer
62
256
370
-1
100
AcDbCircle
10
256
20
167.5
40
1.3
0
CIRCLE
5
1CA
100
AcDbEntity
8
HOLES
6
ByLayer
62
256
370
-1
100
AcDbCircle
10
344
20
167.5
40
1.3
0
CIRCLE
5
1CB
100
AcDbEntity
8
HOLES
6
ByLayer
62
256
370
-1
100
AcDbCircle
10
318.7
20
158.5
40
1
0
CIRCLE
5
1CC
100
AcDbEntity
8
HOLES
6
ByLayer
62
256
370
-1
100
AcDbCircle
10
320.7
20
156.5
40
1
0
CIRCLE
5
1CD
100
AcDbEntity
8
HOLES
6
ByLayer
62
256
370
-1
100
AcDbCircle
10
318.7
20
154.5
40
1
0
CIRCLE
5
1CE
100
AcDbEntity
8
HOLES
6
ByLayer
62
256
370
-1
100
AcDbCircle
10
316.7
20
156.5
40
1
0
CIRCLE
5
1CF
100
AcDbEntity
8
HOLES
6
ByLayer
62
256
370
-1
100
AcDbCircle
10
336.5
20
156.5
40
3
0
CIRCLE
5
1D0
100
AcDbEntity
8
HOLES
6
ByLayer
62
256
370
-1
100
AcDbCircle
10
303.5
20
156.5
40
3
0
POINT
5
1D1
100
AcDbEntity
8
0
6
ByLayer
62
256
370
-1
100
AcDbPoint
10
420
20
220
0
POINT
5
1D2
100
AcDbEntity
8
0
6
ByLayer
62
256
370
-1
100
AcDbPoint
10
380
20
220
0
POINT
5
1D3
100
AcDbEntity
8
0
6
ByLayer
62
256
370
-1
100
AcDbPoint
10
380
20
180
0
POINT
5
1D4
100
AcDbEntity
8
0
6
ByLayer
62
256
370
-1
100
AcDbPoint
10
420
20
180
0
CIRCLE
5
1D5
100
AcDbEntity
8
HOLES
6
ByLayer
62
256
370
-1
100
AcDbCircle
10
420
20
220
40
1.5
0
CIRCLE
5
1D6
100
AcDbEntity
8
HOLES
6
ByLayer
62
256
370
-1
100
AcDbCircle
10
380
20
220
40
1.5
0
CIRCLE
5
1D7
100
AcDbEntity
8
HOLES
6
ByLayer
62
256
370
-1
100
AcDbCircle
10
380
20
180
40
1.5
0
CIRCLE
5
1D8
100
AcDbEntity
8
HOLES
6
ByLayer
62
256
370
-1
100
AcDbCircle
10
420
20
180
40
1.5
0
ARC
5
1D9
100
AcDbEntity
8
GRAVIRANJE
6
ByLayer
62
256
370
-1
100
AcDbCircle
10
420
20
220
40
5
100
AcDbArc
50
0
51
90
0
LINE
5
1DA
100
AcDbEntity
8
GRAVIRANJE
6
ByLayer
62
256
370
-1
100
AcDbLine
10
380
20
225
11
420
21
225
0
ARC
5
1DB
100
AcDbEntity
8
GRAVIRANJE
6
ByLayer
62
256
370
-1
100
AcDbCircle
10
380
20
220
40
5
100
AcDbArc
50
90
51
180
0
LINE
5
1DC
100
AcDbEntity
8
GRAVIRANJE
6
ByLayer
62
256
370
-1
100
AcDbLine
10
375
20
180
11
375
21
220
0
ARC
5
1DD
100
AcDbEntity
8
GRAVIRANJE
6
ByLayer
62
256
370
-1
100
AcDbCircle
10
380
20
180
40
5
100
AcDbArc
50
180
51
270
0
LINE
5
1DE
100
AcDbEntity
8
GRAVIRANJE
6
ByLayer
62
256
370
-1
100
AcDbLine
10
420
20
175
11
380
21
175
0
LINE
5
1DF
100
AcDbEntity
8
GRAVIRANJE
6
ByLayer
62
256
370
-1
100
AcDbLine
10
425
20
220
11
425
21
180
0
ARC
5
1E0
100
AcDbEntity
8
GRAVIRANJE
6
ByLayer
62
256
370
-1
100
AcDbCircle
10
420
20
180
40
5
100
AcDbArc
50
270
51
0
0
MTEXT
5
1E1
100
AcDbEntity
8
GRAVIRANJE
6
ByLayer
62
256
370
-1
100
AcDbMText
10
387
20
190
30
0
40
4
41
29.2222213742
71
1
72
1
1
Switch PCB
7
standard
210
0
220
0
230
1
50
0
73
2
44
1
0
POINT
5
1E2
100
AcDbEntity
8
0
6
ByLayer
62
256
370
-1
100
AcDbPoint
10
170
20
100
0
LWPOLYLINE
5
1E3
100
AcDbEntity
8
HOLES
6
ByLayer
62
256
370
-1
100
AcDbPolyline
90
14
70
1
43
0
10
170.75
20
101.299038106
10
171.299038106
20
100.75
10
171.5
20
100
10
171.5
20
70
10
171.299038106
20
69.25
10
170.75
20
68.700961894
10
170
20
68.5
10
169.25
20
68.700961894
10
168.700961894
20
69.25
10
168.5
20
70
10
168.5
20
100
10
168.700961894
20
100.75
10
169.25
20
101.299038106
10
170
20
101.5
0
LWPOLYLINE
5
1E4
100
AcDbEntity
8
HOLES
6
ByLayer
62
256
370
-1
100
AcDbPolyline
90
14
70
1
43
0
10
180.35
20
101.299038106
10
180.899038106
20
100.75
10
181.1
20
100
10
181.1
20
70
10
180.899038106
20
69.25
10
180.35
20
68.700961894
10
179.6
20
68.5
10
178.85
20
68.700961894
10
178.300961894
20
69.25
10
178.1
20
70
10
178.1
20
100
10
178.300961894
20
100.75
10
178.85
20
101.299038106
10
179.6
20
101.5
0
LWPOLYLINE
5
1E5
100
AcDbEntity
8
HOLES
6
ByLayer
62
256
370
-1
100
AcDbPolyline
90
14
70
1
43
0
10
189.75
20
101.299038106
10
190.299038106
20
100.75
10
190.5
20
100
10
190.5
20
70
10
190.299038106
20
69.25
10
189.75
20
68.700961894
10
189
20
68.5
10
188.25
20
68.700961894
10
187.700961894
20
69.25
10
187.5
20
70
10
187.5
20
100
10
187.700961894
20
100.75
10
188.25
20
101.299038106
10
189
20
101.5
0
POINT
5
1E6
100
AcDbEntity
8
0
6
ByLayer
62
256
370
-1
100
AcDbPoint
10
170
20
119
0
POINT
5
1E7
100
AcDbEntity
8
0
6
ByLayer
62
256
370
-1
100
AcDbPoint
10
189
20
100
0
LWPOLYLINE
5
1E8
100
AcDbEntity
8
IZREZ
6
ByLayer
62
256
370
-1
100
AcDbPolyline
90
4
70
1
43
0
10
2.5
20
102.5
10
2.5
20
97.5
10
-2.5
20
97.5
10
-2.5
20
102.5
0
CIRCLE
5
1E9
100
AcDbEntity
8
HOLES
6
ByLayer
62
256
370
-1
100
AcDbCircle
10
10
20
50
40
1.5
0
CIRCLE
5
1EA
100
AcDbEntity
8
HOLES
6
ByLayer
62
256
370
-1
100
AcDbCircle
10
40
20
50
40
1.5
0
CIRCLE
5
1EB
100
AcDbEntity
8
HOLES
6
ByLayer
62
256
370
-1
100
AcDbCircle
10
25
20
50
40
5.05
0
LWPOLYLINE
5
1EC
100
AcDbEntity
8
IZREZ
6
ByLayer
62
256
370
-1
100
AcDbPolyline
90
4
70
1
43
0
10
40
20
40
42
1
10
40
20
60
10
10
20
60
42
1
10
10
20
40
0
DIMENSION
5
1ED
100
AcDbEntity
8
0
6
ByLayer
62
256
370
-1
100
AcDbDimension
2
*D15
10
62.7
20
-20
30
0
11
50
21
-18.125
31
0
70
33
71
5
72
0
3
Standard
53
0
210
0
220
0
230
1
100
AcDbAlignedDimension
13
37.3
23
0
33
0
14
62.7
24
0
34
0
0
CIRCLE
5
1EE
100
AcDbEntity
8
HOLES
6
ByLayer
62
256
370
-1
100
AcDbCircle
10
0
20
209
40
7.5
0
DIMENSION
5
1EF
100
AcDbEntity
8
GRAVIRANJE
6
ByLayer
62
256
370
-1
100
AcDbDimension
2
*D16
10
-46.9
20
85
30
0
11
-50
21
86.875
31
0
70
32
71
5
3
Standard
53
0
210
0
220
0
230
1
100
AcDbAlignedDimension
13
-53
23
89.9
33
0
14
-47
24
89.9
34
0
100
AcDbRotatedDimension
0
DIMENSION
5
1F0
100
AcDbEntity
8
GRAVIRANJE
6
ByLayer
62
256
370
-1
100
AcDbDimension
2
*D17
10
-69.9
20
77.125
30
0
11
-75
21
79
31
0
70
32
71
5
3
Standard
53
0
210
0
220
0
230
1
100
AcDbAlignedDimension
13
-80
23
74.3
33
0
14
-70
24
74.2
34
0
100
AcDbRotatedDimension
0
LWPOLYLINE
5
1F1
100
AcDbEntity
8
HOLES
6
ByLayer
62
256
370
-1
100
AcDbPolyline
90
5
70
1
43
0
10
-3
20
195
10
-3
20
185
10
3
20
185
10
3
20
195
10
3
20
195
0
CIRCLE
5
1F2
100
AcDbEntity
8
HOLES
6
ByLayer
62
256
370
-1
100
AcDbCircle
10
0
20
161
40
7.5
0
MTEXT
5
1F3
100
AcDbEntity
8
GRAVIRANJE
6
ByLayer
62
256
370
-1
100
AcDbMText
10
10
20
170
30
0
40
5
41
6.11111111111
71
1
72
1
1
2x
7
standard
210
0
220
0
230
1
50
0
73
2
44
1
0
MTEXT
5
1F4
100
AcDbEntity
8
GRAVIRANJE
6
ByLayer
62
256
370
-1
100
AcDbMText
10
10
20
200
30
0
40
5
41
6.66666666667
71
1
72
1
1
4x
7
standard
210
0
220
0
230
1
50
0
73
2
44
1
0
MTEXT
5
1F5
100
AcDbEntity
8
GRAVIRANJE
6
ByLayer
62
256
370
-1
100
AcDbMText
10
96
20
201
30
0
40
5
41
6.66666666667
71
1
72
1
1
4x
7
standard
210
0
220
0
230
1
50
0
73
2
44
1
0
CIRCLE
5
1F6
100
AcDbEntity
8
HOLES
6
ByLayer
62
256
370
-1
100
AcDbCircle
10
14
20
276.25
40
1.5
0
CIRCLE
5
1F7
100
AcDbEntity
8
HOLES
6
ByLayer
62
256
370
-1
100
AcDbCircle
10
-14
20
276.25
40
1.5
0
LWPOLYLINE
5
1F8
100
AcDbEntity
8
HOLES
6
ByLayer
62
256
370
-1
100
AcDbPolyline
90
5
70
1
43
0
10
5
20
279.25
10
-5
20
279.25
10
-5
20
273.25
10
5
20
273.25
10
5
20
273.25
0
LWPOLYLINE
5
1F9
100
AcDbEntity
8
HOLES
6
ByLayer
62
256
370
-1
100
AcDbPolyline
90
5
70
1
43
0
10
20.75
20
305
10
20.75
20
295
10
26.75
20
295
10
26.75
20
305
10
26.75
20
305
0
CIRCLE
5
1FA
100
AcDbEntity
8
HOLES
6
ByLayer
62
256
370
-1
100
AcDbCircle
10
23.75
20
314
40
1.5
0
CIRCLE
5
1FB
100
AcDbEntity
8
HOLES
6
ByLayer
62
256
370
-1
100
AcDbCircle
10
23.75
20
286
40
1.5
0
LWPOLYLINE
5
1FC
100
AcDbEntity
8
HOLES
6
ByLayer
62
256
370
-1
100
AcDbPolyline
90
5
70
1
43
0
10
-20.75
20
305
10
-20.75
20
295
10
-26.75
20
295
10
-26.75
20
305
10
-26.75
20
305
0
CIRCLE
5
1FD
100
AcDbEntity
8
HOLES
6
ByLayer
62
256
370
-1
100
AcDbCircle
10
-23.75
20
314
40
1.5
0
CIRCLE
5
1FE
100
AcDbEntity
8
HOLES
6
ByLayer
62
256
370
-1
100
AcDbCircle
10
-23.75
20
286
40
1.5
0
CIRCLE
5
1FF
100
AcDbEntity
8
HOLES
6
ByLayer
62
256
370
-1
100
AcDbCircle
10
14
20
323.75
40
1.5
0
CIRCLE
5
200
100
AcDbEntity
8
HOLES
6
ByLayer
62
256
370
-1
100
AcDbCircle
10
-14
20
323.75
40
1.5
0
LWPOLYLINE
5
201
100
AcDbEntity
8
HOLES
6
ByLayer
62
256
370
-1
100
AcDbPolyline
90
5
70
1
43
0
10
5
20
320.75
10
-5
20
320.75
10
-5
20
326.75
10
5
20
326.75
10
5
20
326.75
0
LWPOLYLINE
5
202
100
AcDbEntity
8
IZREZ
6
ByLayer
62
256
370
-1
100
AcDbPolyline
90
4
70
0
43
0
10
-5
20
180
10
-5
20
174
10
5
20
174
10
5
20
180
0
CIRCLE
5
203
100
AcDbEntity
8
HOLES
6
ByLayer
62
256
370
-1
100
AcDbCircle
10
15
20
285
40
3
0
CIRCLE
5
204
100
AcDbEntity
8
HOLES
6
ByLayer
62
256
370
-1
100
AcDbCircle
10
-15
20
285
40
3
0
CIRCLE
5
205
100
AcDbEntity
8
HOLES
6
ByLayer
62
256
370
-1
100
AcDbCircle
10
-15
20
315
40
3
0
CIRCLE
5
206
100
AcDbEntity
8
HOLES
6
ByLayer
62
256
370
-1
100
AcDbCircle
10
15
20
315
40
3
0
LINE
5
207
100
AcDbEntity
8
IZREZ
6
ByLayer
62
256
370
-1
100
AcDbLine
10
0
20
226
11
5
21
226
0
LINE
5
208
100
AcDbEntity
8
IZREZ
6
ByLayer
62
256
370
-1
100
AcDbLine
10
5
20
226
11
5
21
220
0
LINE
5
209
100
AcDbEntity
8
IZREZ
6
ByLayer
62
256
370
-1
100
AcDbLine
10
5
20
220
11
12.5
21
220
0
LINE
5
20A
100
AcDbEntity
8
IZREZ
6
ByLayer
62
256
370
-1
100
AcDbLine
10
12.5
20
220
11
12.5
21
213
0
LINE
5
20B
100
AcDbEntity
8
IZREZ
6
ByLayer
62
256
370
-1
100
AcDbLine
10
12.5
20
213
11
11.1
21
213
0
LINE
5
20C
100
AcDbEntity
8
IZREZ
6
ByLayer
62
256
370
-1
100
AcDbLine
10
11.1
20
213
11
11.1
21
211
0
LINE
5
20D
100
AcDbEntity
8
IZREZ
6
ByLayer
62
256
370
-1
100
AcDbLine
10
11.1
20
211
11
12.5
21
211
0
LINE
5
20E
100
AcDbEntity
8
IZREZ
6
ByLayer
62
256
370
-1
100
AcDbLine
10
12.5
20
211
11
12.5
21
207
0
LINE
5
20F
100
AcDbEntity
8
IZREZ
6
ByLayer
62
256
370
-1
100
AcDbLine
10
12.5
20
207
11
14
21
207
0
LINE
5
210
100
AcDbEntity
8
IZREZ
6
ByLayer
62
256
370
-1
100
AcDbLine
10
14
20
207
11
15.5
21
207
0
LINE
5
211
100
AcDbEntity
8
IZREZ
6
ByLayer
62
256
370
-1
100
AcDbLine
10
15.5
20
207
11
15.5
21
211
0
LINE
5
212
100
AcDbEntity
8
IZREZ
6
ByLayer
62
256
370
-1
100
AcDbLine
10
15.5
20
211
11
16.9
21
211
0
LINE
5
213
100
AcDbEntity
8
IZREZ
6
ByLayer
62
256
370
-1
100
AcDbLine
10
16.9
20
211
11
16.9
21
213
0
LINE
5
214
100
AcDbEntity
8
IZREZ
6
ByLayer
62
256
370
-1
100
AcDbLine
10
16.9
20
213
11
15.5
21
213
0
LINE
5
215
100
AcDbEntity
8
IZREZ
6
ByLayer
62
256
370
-1
100
AcDbLine
10
15.5
20
213
11
15.5
21
220
0
LINE
5
216
100
AcDbEntity
8
IZREZ
6
ByLayer
62
256
370
-1
100
AcDbLine
10
-15.5
20
220
11
-15.5
21
213
0
LINE
5
217
100
AcDbEntity
8
IZREZ
6
ByLayer
62
256
370
-1
100
AcDbLine
10
-15.5
20
213
11
-16.9
21
213
0
LINE
5
218
100
AcDbEntity
8
IZREZ
6
ByLayer
62
256
370
-1
100
AcDbLine
10
-16.9
20
213
11
-16.9
21
211
0
LINE
5
219
100
AcDbEntity
8
IZREZ
6
ByLayer
62
256
370
-1
100
AcDbLine
10
-16.9
20
211
11
-15.5
21
211
0
LINE
5
21A
100
AcDbEntity
8
IZREZ
6
ByLayer
62
256
370
-1
100
AcDbLine
10
-15.5
20
211
11
-15.5
21
207
0
LINE
5
21B
100
AcDbEntity
8
IZREZ
6
ByLayer
62
256
370
-1
100
AcDbLine
10
-15.5
20
207
11
-14
21
207
0
LINE
5
21C
100
AcDbEntity
8
IZREZ
6
ByLayer
62
256
370
-1
100
AcDbLine
10
-14
20
207
11
-12.5
21
207
0
LINE
5
21D
100
AcDbEntity
8
IZREZ
6
ByLayer
62
256
370
-1
100
AcDbLine
10
-12.5
20
207
11
-12.5
21
211
0
LINE
5
21E
100
AcDbEntity
8
IZREZ
6
ByLayer
62
256
370
-1
100
AcDbLine
10
-12.5
20
211
11
-11.1
21
211
0
LINE
5
21F
100
AcDbEntity
8
IZREZ
6
ByLayer
62
256
370
-1
100
AcDbLine
10
-11.1
20
211
11
-11.1
21
213
0
LINE
5
220
100
AcDbEntity
8
IZREZ
6
ByLayer
62
256
370
-1
100
AcDbLine
10
-11.1
20
213
11
-12.5
21
213
0
LINE
5
221
100
AcDbEntity
8
IZREZ
6
ByLayer
62
256
370
-1
100
AcDbLine
10
-12.5
20
213
11
-12.5
21
220
0
LINE
5
222
100
AcDbEntity
8
IZREZ
6
ByLayer
62
256
370
-1
100
AcDbLine
10
-12.5
20
220
11
-5
21
220
0
LINE
5
223
100
AcDbEntity
8
IZREZ
6
ByLayer
62
256
370
-1
100
AcDbLine
10
-5
20
220
11
-5
21
226
0
LINE
5
224
100
AcDbEntity
8
IZREZ
6
ByLayer
62
256
370
-1
100
AcDbLine
10
-5
20
226
11
0
21
226
0
LINE
5
225
100
AcDbEntity
8
IZREZ
6
ByLayer
62
256
370
-1
100
AcDbLine
10
-15.5
20
180
11
-15.5
21
187
0
LINE
5
226
100
AcDbEntity
8
IZREZ
6
ByLayer
62
256
370
-1
100
AcDbLine
10
-15.5
20
187
11
-16.9
21
187
0
LINE
5
227
100
AcDbEntity
8
IZREZ
6
ByLayer
62
256
370
-1
100
AcDbLine
10
-16.9
20
187
11
-16.9
21
189
0
LINE
5
228
100
AcDbEntity
8
IZREZ
6
ByLayer
62
256
370
-1
100
AcDbLine
10
-16.9
20
189
11
-15.5
21
189
0
LINE
5
229
100
AcDbEntity
8
IZREZ
6
ByLayer
62
256
370
-1
100
AcDbLine
10
-15.5
20
189
11
-15.5
21
193
0
LINE
5
22A
100
AcDbEntity
8
IZREZ
6
ByLayer
62
256
370
-1
100
AcDbLine
10
-15.5
20
193
11
-14
21
193
0
LINE
5
22B
100
AcDbEntity
8
IZREZ
6
ByLayer
62
256
370
-1
100
AcDbLine
10
-14
20
193
11
-12.5
21
193
0
LINE
5
22C
100
AcDbEntity
8
IZREZ
6
ByLayer
62
256
370
-1
100
AcDbLine
10
-12.5
20
193
11
-12.5
21
189
0
LINE
5
22D
100
AcDbEntity
8
IZREZ
6
ByLayer
62
256
370
-1
100
AcDbLine
10
-12.5
20
189
11
-11.1
21
189
0
LINE
5
22E
100
AcDbEntity
8
IZREZ
6
ByLayer
62
256
370
-1
100
AcDbLine
10
-11.1
20
189
11
-11.1
21
187
0
LINE
5
22F
100
AcDbEntity
8
IZREZ
6
ByLayer
62
256
370
-1
100
AcDbLine
10
-11.1
20
187
11
-12.5
21
187
0
LINE
5
230
100
AcDbEntity
8
IZREZ
6
ByLayer
62
256
370
-1
100
AcDbLine
10
-12.5
20
187
11
-12.5
21
180
0
LINE
5
231
100
AcDbEntity
8
IZREZ
6
ByLayer
62
256
370
-1
100
AcDbLine
10
-12.5
20
180
11
-5
21
180
0
LINE
5
232
100
AcDbEntity
8
IZREZ
6
ByLayer
62
256
370
-1
100
AcDbLine
10
-5
20
180
11
-5
21
174
0
LINE
5
233
100
AcDbEntity
8
IZREZ
6
ByLayer
62
256
370
-1
100
AcDbLine
10
-5
20
174
11
0
21
174
0
LINE
5
234
100
AcDbEntity
8
IZREZ
6
ByLayer
62
256
370
-1
100
AcDbLine
10
26.75
20
210
11
26.75
21
190
0
LINE
5
235
100
AcDbEntity
8
IZREZ
6
ByLayer
62
256
370
-1
100
AcDbLine
10
26.75
20
190
11
20.75
21
190
0
LINE
5
236
100
AcDbEntity
8
IZREZ
6
ByLayer
62
256
370
-1
100
AcDbLine
10
20.75
20
190
11
20.75
21
180
0
LINE
5
237
100
AcDbEntity
8
IZREZ
6
ByLayer
62
256
370
-1
100
AcDbLine
10
5
20
180
11
12.5
21
180
0
LINE
5
238
100
AcDbEntity
8
IZREZ
6
ByLayer
62
256
370
-1
100
AcDbLine
10
12.5
20
180
11
12.5
21
187
0
LINE
5
239
100
AcDbEntity
8
IZREZ
6
ByLayer
62
256
370
-1
100
AcDbLine
10
12.5
20
187
11
11.1
21
187
0
LINE
5
23A
100
AcDbEntity
8
IZREZ
6
ByLayer
62
256
370
-1
100
AcDbLine
10
11.1
20
187
11
11.1
21
189
0
LINE
5
23B
100
AcDbEntity
8
IZREZ
6
ByLayer
62
256
370
-1
100
AcDbLine
10
11.1
20
189
11
12.5
21
189
0
LINE
5
23C
100
AcDbEntity
8
IZREZ
6
ByLayer
62
256
370
-1
100
AcDbLine
10
12.5
20
189
11
12.5
21
193
0
LINE
5
23D
100
AcDbEntity
8
IZREZ
6
ByLayer
62
256
370
-1
100
AcDbLine
10
12.5
20
193
11
14
21
193
0
LINE
5
23E
100
AcDbEntity
8
IZREZ
6
ByLayer
62
256
370
-1
100
AcDbLine
10
14
20
193
11
15.5
21
193
0
LINE
5
23F
100
AcDbEntity
8
IZREZ
6
ByLayer
62
256
370
-1
100
AcDbLine
10
15.5
20
193
11
15.5
21
189
0
LINE
5
240
100
AcDbEntity
8
IZREZ
6
ByLayer
62
256
370
-1
100
AcDbLine
10
15.5
20
189
11
16.9
21
189
0
LINE
5
241
100
AcDbEntity
8
IZREZ
6
ByLayer
62
256
370
-1
100
AcDbLine
10
16.9
20
189
11
16.9
21
187
0
LINE
5
242
100
AcDbEntity
8
IZREZ
6
ByLayer
62
256
370
-1
100
AcDbLine
10
16.9
20
187
11
15.5
21
187
0
LINE
5
243
100
AcDbEntity
8
IZREZ
6
ByLayer
62
256
370
-1
100
AcDbLine
10
15.5
20
187
11
15.5
21
180
0
LINE
5
244
100
AcDbEntity
8
IZREZ
6
ByLayer
62
256
370
-1
100
AcDbLine
10
15.5
20
180
11
20.75
21
180
0
CIRCLE
5
245
100
AcDbEntity
8
HOLES
6
ByLayer
62
256
370
-1
100
AcDbCircle
10
24
20
200
40
1.5
0
LINE
5
246
100
AcDbEntity
8
IZREZ
6
ByLayer
62
256
370
-1
100
AcDbLine
10
26.75
20
210
11
20.75
21
210
0
LINE
5
247
100
AcDbEntity
8
IZREZ
6
ByLayer
62
256
370
-1
100
AcDbLine
10
20.75
20
210
11
20.75
21
220
0
LINE
5
248
100
AcDbEntity
8
IZREZ
6
ByLayer
62
256
370
-1
100
AcDbLine
10
15.5
20
220
11
20.75
21
220
0
CIRCLE
5
249
100
AcDbEntity
8
HOLES
6
ByLayer
62
256
370
-1
100
AcDbCircle
10
-86
20
276.25
40
1.5
0
CIRCLE
5
24A
100
AcDbEntity
8
HOLES
6
ByLayer
62
256
370
-1
100
AcDbCircle
10
-114
20
276.25
40
1.5
0
LWPOLYLINE
5
24B
100
AcDbEntity
8
HOLES
6
ByLayer
62
256
370
-1
100
AcDbPolyline
90
5
70
1
43
0
10
-95
20
279.25
10
-105
20
279.25
10
-105
20
273.25
10
-95
20
273.25
10
-95
20
273.25
0
LWPOLYLINE
5
24C
100
AcDbEntity
8
HOLES
6
ByLayer
62
256
370
-1
100
AcDbPolyline
90
5
70
1
43
0
10
-79.25
20
305
10
-79.25
20
295
10
-73.25
20
295
10
-73.25
20
305
10
-73.25
20
305
0
CIRCLE
5
24D
100
AcDbEntity
8
HOLES
6
ByLayer
62
256
370
-1
100
AcDbCircle
10
-76.25
20
314
40
1.5
0
CIRCLE
5
24E
100
AcDbEntity
8
HOLES
6
ByLayer
62
256
370
-1
100
AcDbCircle
10
-76.25
20
286
40
1.5
0
LWPOLYLINE
5
24F
100
AcDbEntity
8
HOLES
6
ByLayer
62
256
370
-1
100
AcDbPolyline
90
5
70
1
43
0
10
-120.75
20
305
10
-120.75
20
295
10
-126.75
20
295
10
-126.75
20
305
10
-126.75
20
305
0
CIRCLE
5
250
100
AcDbEntity
8
HOLES
6
ByLayer
62
256
370
-1
100
AcDbCircle
10
-123.75
20
314
40
1.5
0
CIRCLE
5
251
100
AcDbEntity
8
HOLES
6
ByLayer
62
256
370
-1
100
AcDbCircle
10
-123.75
20
286
40
1.5
0
CIRCLE
5
252
100
AcDbEntity
8
HOLES
6
ByLayer
62
256
370
-1
100
AcDbCircle
10
-86
20
323.75
40
1.5
0
CIRCLE
5
253
100
AcDbEntity
8
HOLES
6
ByLayer
62
256
370
-1
100
AcDbCircle
10
-114
20
323.75
40
1.5
0
LWPOLYLINE
5
254
100
AcDbEntity
8
HOLES
6
ByLayer
62
256
370
-1
100
AcDbPolyline
90
5
70
1
43
0
10
-95
20
320.75
10
-105
20
320.75
10
-105
20
326.75
10
-95
20
326.75
10
-95
20
326.75
0
CIRCLE
5
255
100
AcDbEntity
8
GRAVIRANJE
6
ByLayer
62
256
370
-1
100
AcDbCircle
10
-85
20
285
40
6.5
0
CIRCLE
5
256
100
AcDbEntity
8
GRAVIRANJE
6
ByLayer
62
256
370
-1
100
AcDbCircle
10
-115
20
285
40
6.5
0
CIRCLE
5
257
100
AcDbEntity
8
GRAVIRANJE
6
ByLayer
62
256
370
-1
100
AcDbCircle
10
-85
20
315
40
6.5
0
CIRCLE
5
258
100
AcDbEntity
8
GRAVIRANJE
6
ByLayer
62
256
370
-1
100
AcDbCircle
10
-115
20
315
40
6.5
0
CIRCLE
5
259
100
AcDbEntity
8
HOLES
6
ByLayer
62
256
370
-1
100
AcDbCircle
10
-115
20
285
40
5
0
CIRCLE
5
25A
100
AcDbEntity
8
HOLES
6
ByLayer
62
256
370
-1
100
AcDbCircle
10
-85
20
285
40
5
0
CIRCLE
5
25B
100
AcDbEntity
8
HOLES
6
ByLayer
62
256
370
-1
100
AcDbCircle
10
-115
20
315
40
5
0
CIRCLE
5
25C
100
AcDbEntity
8
HOLES
6
ByLayer
62
256
370
-1
100
AcDbCircle
10
-85
20
315
40
5
0
CIRCLE
5
25D
100
AcDbEntity
8
HOLES
6
ByLayer
62
256
370
-1
100
AcDbCircle
10
0
20
300
40
12.5
0
CIRCLE
5
25E
100
AcDbEntity
8
HOLES
6
ByLayer
62
256
370
-1
100
AcDbCircle
10
-100
20
300
40
12.5
0
LINE
5
25F
100
AcDbEntity
8
0
6
ByLayer
62
256
370
-1
100
AcDbLine
10
-155
20
95
11
-105
21
95
0
LINE
5
260
100
AcDbEntity
8
0
6
ByLayer
62
256
370
-1
100
AcDbLine
10
-105
20
95
11
-105
21
45
0
LINE
5
261
100
AcDbEntity
8
0
6
ByLayer
62
256
370
-1
100
AcDbLine
10
-105
20
45
11
-155
21
45
0
LINE
5
262
100
AcDbEntity
8
0
6
ByLayer
62
256
370
-1
100
AcDbLine
10
-155
20
45
11
-155
21
95
0
CIRCLE
5
263
100
AcDbEntity
8
HOLES
6
ByLayer
62
256
370
-1
100
AcDbCircle
10
-150
20
50
40
1.6
0
CIRCLE
5
264
100
AcDbEntity
8
HOLES
6
ByLayer
62
256
370
-1
100
AcDbCircle
10
-110
20
50
40
1.6
0
CIRCLE
5
265
100
AcDbEntity
8
HOLES
6
ByLayer
62
256
370
-1
100
AcDbCircle
10
-110
20
90
40
1.6
0
CIRCLE
5
266
100
AcDbEntity
8
HOLES
6
ByLayer
62
256
370
-1
100
AcDbCircle
10
-150
20
90
40
1.6
0
POINT
5
267
100
AcDbEntity
8
0
6
ByLayer
62
256
370
-1
100
AcDbPoint
10
-130
20
70
0
CIRCLE
5
268
100
AcDbEntity
8
HOLES
6
ByLayer
62
256
370
-1
100
AcDbCircle
10
-100
20
209
40
7.5
0
LWPOLYLINE
5
269
100
AcDbEntity
8
HOLES
6
ByLayer
62
256
370
-1
100
AcDbPolyline
90
5
70
1
43
0
10
-97
20
195
10
-97
20
185
10
-103
20
185
10
-103
20
195
10
-103
20
195
0
LWPOLYLINE
5
26A
100
AcDbEntity
8
IZREZ
6
ByLayer
62
256
370
-1
100
AcDbPolyline
90
4
70
0
43
0
10
-95
20
180
10
-95
20
174
10
-105
20
174
10
-105
20
180
0
LWPOLYLINE
5
26B
100
AcDbEntity
8
IZREZ
6
ByLayer
62
256
370
-1
100
AcDbPolyline
90
13
70
0
43
0
10
-79.25
20
201.5
10
-86.25
20
201.5
10
-86.25
20
202.9
10
-88.25
20
202.9
10
-88.25
20
201.5
10
-94.25
20
201.5
10
-94.25
20
200
10
-94.25
20
198.5
10
-88.25
20
198.5
10
-88.25
20
197.1
10
-86.25
20
197.1
10
-86.25
20
198.5
10
-79.25
20
198.5
0
LINE
5
26C
100
AcDbEntity
8
IZREZ
6
ByLayer
62
256
370
-1
100
AcDbLine
10
-100
20
226
11
-105
21
226
0
LINE
5
26D
100
AcDbEntity
8
IZREZ
6
ByLayer
62
256
370
-1
100
AcDbLine
10
-105
20
226
11
-105
21
220
0
LINE
5
26E
100
AcDbEntity
8
IZREZ
6
ByLayer
62
256
370
-1
100
AcDbLine
10
-73.25
20
220
11
-84.5
21
220
0
LINE
5
26F
100
AcDbEntity
8
IZREZ
6
ByLayer
62
256
370
-1
100
AcDbLine
10
-84.5
20
220
11
-84.5
21
213
0
LINE
5
270
100
AcDbEntity
8
IZREZ
6
ByLayer
62
256
370
-1
100
AcDbLine
10
-84.5
20
213
11
-83.1
21
213
0
LINE
5
271
100
AcDbEntity
8
IZREZ
6
ByLayer
62
256
370
-1
100
AcDbLine
10
-83.1
20
213
11
-83.1
21
211
0
LINE
5
272
100
AcDbEntity
8
IZREZ
6
ByLayer
62
256
370
-1
100
AcDbLine
10
-83.1
20
211
11
-84.5
21
211
0
LINE
5
273
100
AcDbEntity
8
IZREZ
6
ByLayer
62
256
370
-1
100
AcDbLine
10
-84.5
20
211
11
-84.5
21
207
0
LINE
5
274
100
AcDbEntity
8
IZREZ
6
ByLayer
62
256
370
-1
100
AcDbLine
10
-84.5
20
207
11
-86
21
207
0
LINE
5
275
100
AcDbEntity
8
IZREZ
6
ByLayer
62
256
370
-1
100
AcDbLine
10
-86
20
207
11
-87.5
21
207
0
LINE
5
276
100
AcDbEntity
8
IZREZ
6
ByLayer
62
256
370
-1
100
AcDbLine
10
-87.5
20
207
11
-87.5
21
211
0
LINE
5
277
100
AcDbEntity
8
IZREZ
6
ByLayer
62
256
370
-1
100
AcDbLine
10
-87.5
20
211
11
-88.9
21
211
0
LINE
5
278
100
AcDbEntity
8
IZREZ
6
ByLayer
62
256
370
-1
100
AcDbLine
10
-88.9
20
211
11
-88.9
21
213
0
LINE
5
279
100
AcDbEntity
8
IZREZ
6
ByLayer
62
256
370
-1
100
AcDbLine
10
-88.9
20
213
11
-87.5
21
213
0
LINE
5
27A
100
AcDbEntity
8
IZREZ
6
ByLayer
62
256
370
-1
100
AcDbLine
10
-87.5
20
213
11
-87.5
21
220
0
LINE
5
27B
100
AcDbEntity
8
IZREZ
6
ByLayer
62
256
370
-1
100
AcDbLine
10
-87.5
20
220
11
-95
21
220
0
LINE
5
27C
100
AcDbEntity
8
IZREZ
6
ByLayer
62
256
370
-1
100
AcDbLine
10
-95
20
220
11
-95
21
226
0
LINE
5
27D
100
AcDbEntity
8
IZREZ
6
ByLayer
62
256
370
-1
100
AcDbLine
10
-95
20
226
11
-100
21
226
0
LINE
5
27E
100
AcDbEntity
8
IZREZ
6
ByLayer
62
256
370
-1
100
AcDbLine
10
-73.25
20
210
11
-79.25
21
210
0
LINE
5
27F
100
AcDbEntity
8
IZREZ
6
ByLayer
62
256
370
-1
100
AcDbLine
10
-73.25
20
210
11
-73.25
21
220
0
LINE
5
280
100
AcDbEntity
8
IZREZ
6
ByLayer
62
256
370
-1
100
AcDbLine
10
-79.25
20
210
11
-79.25
21
201.5
0
LINE
5
281
100
AcDbEntity
8
IZREZ
6
ByLayer
62
256
370
-1
100
AcDbLine
10
-73.25
20
180
11
-84.5
21
180
0
LINE
5
282
100
AcDbEntity
8
IZREZ
6
ByLayer
62
256
370
-1
100
AcDbLine
10
-84.5
20
180
11
-84.5
21
187
0
LINE
5
283
100
AcDbEntity
8
IZREZ
6
ByLayer
62
256
370
-1
100
AcDbLine
10
-84.5
20
187
11
-83.1
21
187
0
LINE
5
284
100
AcDbEntity
8
IZREZ
6
ByLayer
62
256
370
-1
100
AcDbLine
10
-83.1
20
187
11
-83.1
21
189
0
LINE
5
285
100
AcDbEntity
8
IZREZ
6
ByLayer
62
256
370
-1
100
AcDbLine
10
-83.1
20
189
11
-84.5
21
189
0
LINE
5
286
100
AcDbEntity
8
IZREZ
6
ByLayer
62
256
370
-1
100
AcDbLine
10
-84.5
20
189
11
-84.5
21
193
0
LINE
5
287
100
AcDbEntity
8
IZREZ
6
ByLayer
62
256
370
-1
100
AcDbLine
10
-84.5
20
193
11
-86
21
193
0
LINE
5
288
100
AcDbEntity
8
IZREZ
6
ByLayer
62
256
370
-1
100
AcDbLine
10
-86
20
193
11
-87.5
21
193
0
LINE
5
289
100
AcDbEntity
8
IZREZ
6
ByLayer
62
256
370
-1
100
AcDbLine
10
-87.5
20
193
11
-87.5
21
189
0
LINE
5
28A
100
AcDbEntity
8
IZREZ
6
ByLayer
62
256
370
-1
100
AcDbLine
10
-87.5
20
189
11
-88.9
21
189
0
LINE
5
28B
100
AcDbEntity
8
IZREZ
6
ByLayer
62
256
370
-1
100
AcDbLine
10
-88.9
20
189
11
-88.9
21
187
0
LINE
5
28C
100
AcDbEntity
8
IZREZ
6
ByLayer
62
256
370
-1
100
AcDbLine
10
-88.9
20
187
11
-87.5
21
187
0
LINE
5
28D
100
AcDbEntity
8
IZREZ
6
ByLayer
62
256
370
-1
100
AcDbLine
10
-87.5
20
187
11
-87.5
21
180
0
LINE
5
28E
100
AcDbEntity
8
IZREZ
6
ByLayer
62
256
370
-1
100
AcDbLine
10
-87.5
20
180
11
-95
21
180
0
LINE
5
28F
100
AcDbEntity
8
IZREZ
6
ByLayer
62
256
370
-1
100
AcDbLine
10
-95
20
180
11
-95
21
174
0
LINE
5
290
100
AcDbEntity
8
IZREZ
6
ByLayer
62
256
370
-1
100
AcDbLine
10
-95
20
174
11
-100
21
174
0
LINE
5
291
100
AcDbEntity
8
IZREZ
6
ByLayer
62
256
370
-1
100
AcDbLine
10
-73.25
20
190
11
-79.25
21
190
0
LINE
5
292
100
AcDbEntity
8
IZREZ
6
ByLayer
62
256
370
-1
100
AcDbLine
10
-73.25
20
190
11
-73.25
21
180
0
LINE
5
293
100
AcDbEntity
8
IZREZ
6
ByLayer
62
256
370
-1
100
AcDbLine
10
-79.25
20
190
11
-79.25
21
198.5
0
LWPOLYLINE
5
294
100
AcDbEntity
8
IZREZ
6
ByLayer
62
256
370
-1
100
AcDbPolyline
90
13
70
0
43
0
10
-120.75
20
201.5
10
-113.75
20
201.5
10
-113.75
20
202.9
10
-111.75
20
202.9
10
-111.75
20
201.5
10
-105.75
20
201.5
10
-105.75
20
200
10
-105.75
20
198.5
10
-111.75
20
198.5
10
-111.75
20
197.1
10
-113.75
20
197.1
10
-113.75
20
198.5
10
-120.75
20
198.5
0
LINE
5
295
100
AcDbEntity
8
IZREZ
6
ByLayer
62
256
370
-1
100
AcDbLine
10
-126.75
20
220
11
-115.5
21
220
0
LINE
5
296
100
AcDbEntity
8
IZREZ
6
ByLayer
62
256
370
-1
100
AcDbLine
10
-115.5
20
220
11
-115.5
21
213
0
LINE
5
297
100
AcDbEntity
8
IZREZ
6
ByLayer
62
256
370
-1
100
AcDbLine
10
-115.5
20
213
11
-116.9
21
213
0
LINE
5
298
100
AcDbEntity
8
IZREZ
6
ByLayer
62
256
370
-1
100
AcDbLine
10
-116.9
20
213
11
-116.9
21
211
0
LINE
5
299
100
AcDbEntity
8
IZREZ
6
ByLayer
62
256
370
-1
100
AcDbLine
10
-116.9
20
211
11
-115.5
21
211
0
LINE
5
29A
100
AcDbEntity
8
IZREZ
6
ByLayer
62
256
370
-1
100
AcDbLine
10
-115.5
20
211
11
-115.5
21
207
0
LINE
5
29B
100
AcDbEntity
8
IZREZ
6
ByLayer
62
256
370
-1
100
AcDbLine
10
-115.5
20
207
11
-114
21
207
0
LINE
5
29C
100
AcDbEntity
8
IZREZ
6
ByLayer
62
256
370
-1
100
AcDbLine
10
-114
20
207
11
-112.5
21
207
0
LINE
5
29D
100
AcDbEntity
8
IZREZ
6
ByLayer
62
256
370
-1
100
AcDbLine
10
-112.5
20
207
11
-112.5
21
211
0
LINE
5
29E
100
AcDbEntity
8
IZREZ
6
ByLayer
62
256
370
-1
100
AcDbLine
10
-112.5
20
211
11
-111.1
21
211
0
LINE
5
29F
100
AcDbEntity
8
IZREZ
6
ByLayer
62
256
370
-1
100
AcDbLine
10
-111.1
20
211
11
-111.1
21
213
0
LINE
5
2A0
100
AcDbEntity
8
IZREZ
6
ByLayer
62
256
370
-1
100
AcDbLine
10
-111.1
20
213
11
-112.5
21
213
0
LINE
5
2A1
100
AcDbEntity
8
IZREZ
6
ByLayer
62
256
370
-1
100
AcDbLine
10
-112.5
20
213
11
-112.5
21
220
0
LINE
5
2A2
100
AcDbEntity
8
IZREZ
6
ByLayer
62
256
370
-1
100
AcDbLine
10
-112.5
20
220
11
-105
21
220
0
LINE
5
2A3
100
AcDbEntity
8
IZREZ
6
ByLayer
62
256
370
-1
100
AcDbLine
10
-126.75
20
210
11
-120.75
21
210
0
LINE
5
2A4
100
AcDbEntity
8
IZREZ
6
ByLayer
62
256
370
-1
100
AcDbLine
10
-126.75
20
210
11
-126.75
21
220
0
LINE
5
2A5
100
AcDbEntity
8
IZREZ
6
ByLayer
62
256
370
-1
100
AcDbLine
10
-120.75
20
210
11
-120.75
21
201.5
0
LINE
5
2A6
100
AcDbEntity
8
IZREZ
6
ByLayer
62
256
370
-1
100
AcDbLine
10
-126.75
20
180
11
-115.5
21
180
0
LINE
5
2A7
100
AcDbEntity
8
IZREZ
6
ByLayer
62
256
370
-1
100
AcDbLine
10
-115.5
20
180
11
-115.5
21
187
0
LINE
5
2A8
100
AcDbEntity
8
IZREZ
6
ByLayer
62
256
370
-1
100
AcDbLine
10
-115.5
20
187
11
-116.9
21
187
0
LINE
5
2A9
100
AcDbEntity
8
IZREZ
6
ByLayer
62
256
370
-1
100
AcDbLine
10
-116.9
20
187
11
-116.9
21
189
0
LINE
5
2AA
100
AcDbEntity
8
IZREZ
6
ByLayer
62
256
370
-1
100
AcDbLine
10
-116.9
20
189
11
-115.5
21
189
0
LINE
5
2AB
100
AcDbEntity
8
IZREZ
6
ByLayer
62
256
370
-1
100
AcDbLine
10
-115.5
20
189
11
-115.5
21
193
0
LINE
5
2AC
100
AcDbEntity
8
IZREZ
6
ByLayer
62
256
370
-1
100
AcDbLine
10
-115.5
20
193
11
-114
21
193
0
LINE
5
2AD
100
AcDbEntity
8
IZREZ
6
ByLayer
62
256
370
-1
100
AcDbLine
10
-114
20
193
11
-112.5
21
193
0
LINE
5
2AE
100
AcDbEntity
8
IZREZ
6
ByLayer
62
256
370
-1
100
AcDbLine
10
-112.5
20
193
11
-112.5
21
189
0
LINE
5
2AF
100
AcDbEntity
8
IZREZ
6
ByLayer
62
256
370
-1
100
AcDbLine
10
-112.5
20
189
11
-111.1
21
189
0
LINE
5
2B0
100
AcDbEntity
8
IZREZ
6
ByLayer
62
256
370
-1
100
AcDbLine
10
-111.1
20
189
11
-111.1
21
187
0
LINE
5
2B1
100
AcDbEntity
8
IZREZ
6
ByLayer
62
256
370
-1
100
AcDbLine
10
-111.1
20
187
11
-112.5
21
187
0
LINE
5
2B2
100
AcDbEntity
8
IZREZ
6
ByLayer
62
256
370
-1
100
AcDbLine
10
-112.5
20
187
11
-112.5
21
180
0
LINE
5
2B3
100
AcDbEntity
8
IZREZ
6
ByLayer
62
256
370
-1
100
AcDbLine
10
-112.5
20
180
11
-105
21
180
0
LINE
5
2B4
100
AcDbEntity
8
IZREZ
6
ByLayer
62
256
370
-1
100
AcDbLine
10
-126.75
20
190
11
-120.75
21
190
0
LINE
5
2B5
100
AcDbEntity
8
IZREZ
6
ByLayer
62
256
370
-1
100
AcDbLine
10
-126.75
20
190
11
-126.75
21
180
0
LINE
5
2B6
100
AcDbEntity
8
IZREZ
6
ByLayer
62
256
370
-1
100
AcDbLine
10
-120.75
20
190
11
-120.75
21
198.5
0
LINE
5
2B7
100
AcDbEntity
8
IZREZ
6
ByLayer
62
256
370
-1
100
AcDbLine
10
-26.75
20
210
11
-26.75
21
190
0
LINE
5
2B8
100
AcDbEntity
8
IZREZ
6
ByLayer
62
256
370
-1
100
AcDbLine
10
-26.75
20
190
11
-20.75
21
190
0
CIRCLE
5
2B9
100
AcDbEntity
8
HOLES
6
ByLayer
62
256
370
-1
100
AcDbCircle
10
-24
20
200
40
1.5
0
LINE
5
2BA
100
AcDbEntity
8
IZREZ
6
ByLayer
62
256
370
-1
100
AcDbLine
10
-26.75
20
210
11
-20.75
21
210
0
LINE
5
2BB
100
AcDbEntity
8
IZREZ
6
ByLayer
62
256
370
-1
100
AcDbLine
10
-20.75
20
190
11
-20.75
21
180
0
LINE
5
2BC
100
AcDbEntity
8
IZREZ
6
ByLayer
62
256
370
-1
100
AcDbLine
10
-15.5
20
180
11
-20.75
21
180
0
LINE
5
2BD
100
AcDbEntity
8
IZREZ
6
ByLayer
62
256
370
-1
100
AcDbLine
10
-20.75
20
210
11
-20.75
21
220
0
LINE
5
2BE
100
AcDbEntity
8
IZREZ
6
ByLayer
62
256
370
-1
100
AcDbLine
10
-15.5
20
220
11
-20.75
21
220
0
LWPOLYLINE
5
2BF
100
AcDbEntity
8
IZREZ
6
ByLayer
62
256
370
-1
100
AcDbPolyline
90
8
70
1
43
0
10
25
20
330
10
-25
20
330
42
0.414213562373
10
-30
20
325
10
-30
20
275
42
0.414213562373
10
-25
20
270
10
25
20
270
42
0.414213562373
10
30
20
275
10
30
20
325
42
0.414213562373
0
LWPOLYLINE
5
2C0
100
AcDbEntity
8
IZREZ
6
ByLayer
62
256
370
-1
100
AcDbPolyline
90
8
70
1
43
0
10
-75
20
330
10
-125
20
330
42
0.414213562373
10
-130
20
325
10
-130
20
275
42
0.414213562373
10
-125
20
270
10
-75
20
270
42
0.414213562373
10
-70
20
275
10
-70
20
325
42
0.414213562373
0
LWPOLYLINE
5
2C1
100
AcDbEntity
8
IZREZ
6
ByLayer
62
256
370
-1
100
AcDbPolyline
90
8
70
1
43
0
10
125
20
330
10
75
20
330
42
0.414213562373
10
70
20
325
10
70
20
275
42
0.414213562373
10
75
20
270
10
125
20
270
42
0.414213562373
10
130
20
275
10
130
20
325
42
0.414213562373
0
CIRCLE
5
2C2
100
AcDbEntity
8
HOLES
6
ByLayer
62
256
370
-1
100
AcDbCircle
10
100
20
300
40
5
0
LWPOLYLINE
5
2C3
100
AcDbEntity
8
HOLES
6
ByLayer
62
256
370
-1
100
AcDbPolyline
90
5
70
1
43
0
10
260.5
20
174
10
300
20
174
10
339.5
20
174
10
339.5
20
226
10
260.5
20
226
0
CIRCLE
5
2C4
100
AcDbEntity
8
HOLES
6
ByLayer
62
256
370
-1
100
AcDbCircle
10
0
20
0
40
1.5
0
CIRCLE
5
2C5
100
AcDbEntity
8
HOLES
6
ByLayer
62
256
370
-1
100
AcDbCircle
10
300
20
300
40
1.5
0
CIRCLE
5
2C6
100
AcDbEntity
8
HOLES
6
ByLayer
62
256
370
-1
100
AcDbCircle
10
444.78
20
300
40
1.5
0
CIRCLE
5
2C7
100
AcDbEntity
8
HOLES
6
ByLayer
62
256
370
-1
100
AcDbCircle
10
300
20
349.784
40
1.5
0
CIRCLE
5
2C8
100
AcDbEntity
8
HOLES
6
ByLayer
62
256
370
-1
100
AcDbCircle
10
444.78
20
349.784
40
1.5
0
CIRCLE
5
2C9
100
AcDbEntity
8
HOLES
6
ByLayer
62
256
370
-1
100
AcDbCircle
10
434.32
20
322.624
40
3.5
0
CIRCLE
5
2CA
100
AcDbEntity
8
HOLES
6
ByLayer
62
256
370
-1
100
AcDbCircle
10
434.02
20
305.524
40
3.5
0
POINT
5
2CB
100
AcDbEntity
8
0
6
ByLayer
62
256
370
-1
100
AcDbPoint
10
433.714
20
341.883
0
CIRCLE
5
2CC
100
AcDbEntity
8
HOLES
6
ByLayer
62
256
370
-1
100
AcDbCircle
10
433.714
20
341.883
40
0.75
0
CIRCLE
5
2CD
100
AcDbEntity
8
HOLES
6
ByLayer
62
256
370
-1
100
AcDbCircle
10
435.714
20
341.883
40
0.75
0
CIRCLE
5
2CE
100
AcDbEntity
8
HOLES
6
ByLayer
62
256
370
-1
100
AcDbCircle
10
433.714
20
343.883
40
0.75
0
CIRCLE
5
2CF
100
AcDbEntity
8
HOLES
6
ByLayer
62
256
370
-1
100
AcDbCircle
10
435.714
20
343.883
40
0.75
0
CIRCLE
5
2D0
100
AcDbEntity
8
HOLES
6
ByLayer
62
256
370
-1
100
AcDbCircle
10
431.714
20
343.883
40
0.75
0
CIRCLE
5
2D1
100
AcDbEntity
8
HOLES
6
ByLayer
62
256
370
-1
100
AcDbCircle
10
431.714
20
341.883
40
0.75
0
CIRCLE
5
2D2
100
AcDbEntity
8
HOLES
6
ByLayer
62
256
370
-1
100
AcDbCircle
10
431.714
20
339.883
40
0.75
0
CIRCLE
5
2D3
100
AcDbEntity
8
HOLES
6
ByLayer
62
256
370
-1
100
AcDbCircle
10
433.714
20
339.883
40
0.75
0
CIRCLE
5
2D4
100
AcDbEntity
8
HOLES
6
ByLayer
62
256
370
-1
100
AcDbCircle
10
435.714
20
339.883
40
0.75
0
POINT
5
2D5
100
AcDbEntity
8
0
6
ByLayer
62
256
370
-1
100
AcDbPoint
10
320.816
20
346.735
0
POINT
5
2D6
100
AcDbEntity
8
0
6
ByLayer
62
256
370
-1
100
AcDbPoint
10
358.916
20
346.735
0
LWPOLYLINE
5
2D7
100
AcDbEntity
8
HOLES
6
ByLayer
62
256
370
-1
100
AcDbPolyline
90
6
70
1
43
0
10
408.816
20
319.735
10
408.816
20
299.735
10
310.816
20
299.735
10
310.816
20
319.735
10
310.816
20
339.735
10
408.816
20
339.735
0
LWPOLYLINE
5
2D8
100
AcDbEntity
8
GRAVIRANJE2
6
ByLayer
62
256
370
-1
100
AcDbPolyline
90
4
70
1
43
0
10
358.916003963
20
345.235
42
0.999997358278
10
358.916
20
348.235
10
320.816
20
348.235
42
1
10
320.816
20
345.235
0
CIRCLE
5
2D9
100
AcDbEntity
8
HOLES
6
ByLayer
62
256
370
-1
100
AcDbCircle
10
-70
20
400
40
6
0
LINE
5
2DA
100
AcDbEntity
8
HOLES
6
ByLayer
62
256
370
-1
100
AcDbLine
10
-100
20
391.5
11
-92.638784068
21
395.75
0
LINE
5
2DB
100
AcDbEntity
8
HOLES
6
ByLayer
62
256
370
-1
100
AcDbLine
10
-92.638784068
20
395.75
11
-92.638784068
21
404.25
0
LINE
5
2DC
100
AcDbEntity
8
HOLES
6
ByLayer
62
256
370
-1
100
AcDbLine
10
-92.638784068
20
404.25
11
-100
21
408.5
0
LINE
5
2DD
100
AcDbEntity
8
HOLES
6
ByLayer
62
256
370
-1
100
AcDbLine
10
-100
20
408.5
11
-107.361215932
21
404.25
0
LINE
5
2DE
100
AcDbEntity
8
HOLES
6
ByLayer
62
256
370
-1
100
AcDbLine
10
-107.361215932
20
404.25
11
-107.361215932
21
395.75
0
LINE
5
2DF
100
AcDbEntity
8
HOLES
6
ByLayer
62
256
370
-1
100
AcDbLine
10
-107.361215932
20
395.75
11
-100
21
391.5
0
LWPOLYLINE
5
2E0
100
AcDbEntity
8
IZREZ
6
ByLayer
62
256
370
-1
100
AcDbPolyline
90
14
70
1
43
0
10
-91.3
20
415
10
-100
20
415
10
-108.7
20
415
10
-108.7
20
409.15
10
-110.2
20
409.15
10
-110.2
20
390.85
10
-108.7
20
390.85
10
-108.7
20
385
10
-100
20
385
10
-91.3
20
385
10
-91.3
20
390.85
10
-89.8
20
390.85
10
-89.8
20
409.15
10
-91.3
20
409.15
0
LWPOLYLINE
5
2E1
100
AcDbEntity
8
IZREZ
6
ByLayer
62
256
370
-1
100
AcDbPolyline
90
14
70
1
43
0
10
-61.3
20
415
10
-70
20
415
10
-78.7
20
415
10
-78.7
20
409.15
10
-80.2
20
409.15
10
-80.2
20
390.85
10
-78.7
20
390.85
10
-78.7
20
385
10
-70
20
385
10
-61.3
20
385
10
-61.3
20
390.85
10
-59.8
20
390.85
10
-59.8
20
409.15
10
-61.3
20
409.15
0
POINT
5
2E2
100
AcDbEntity
8
0
6
ByLayer
62
256
370
-1
100
AcDbPoint
10
313.316
20
292.235
0
POINT
5
2E3
100
AcDbEntity
8
0
6
ByLayer
62
256
370
-1
100
AcDbPoint
10
406.316
20
292.235
0
POINT
5
2E4
100
AcDbEntity
8
0
6
ByLayer
62
256
370
-1
100
AcDbPoint
10
406.316
20
347.235
0
POINT
5
2E5
100
AcDbEntity
8
0
6
ByLayer
62
256
370
-1
100
AcDbPoint
10
313.316
20
347.235
0
POINT
5
2E6
100
AcDbEntity
8
0
6
ByLayer
62
256
370
-1
100
AcDbPoint
10
359.816
20
319.735
0
CIRCLE
5
2E7
100
AcDbEntity
8
HOLES
6
ByLayer
62
256
370
-1
100
AcDbCircle
10
450
20
0
40
1.6
0
CIRCLE
5
2E8
100
AcDbEntity
8
HOLES
6
ByLayer
62
256
370
-1
100
AcDbCircle
10
535
20
0
40
1.6
0
CIRCLE
5
2E9
100
AcDbEntity
8
HOLES
6
ByLayer
62
256
370
-1
100
AcDbCircle
10
450
20
126
40
1.6
0
CIRCLE
5
2EA
100
AcDbEntity
8
HOLES
6
ByLayer
62
256
370
-1
100
AcDbCircle
10
535
20
126
40
1.6
0
LINE
5
2EB
100
AcDbEntity
8
GRAVIRANJE
6
ByLayer
62
256
370
-1
100
AcDbLine
10
440
20
-10
11
545
21
-10
0
LINE
5
2EC
100
AcDbEntity
8
GRAVIRANJE
6
ByLayer
62
256
370
-1
100
AcDbLine
10
545
20
-10
11
545
21
196
0
LINE
5
2ED
100
AcDbEntity
8
GRAVIRANJE
6
ByLayer
62
256
370
-1
100
AcDbLine
10
545
20
196
11
440
21
196
0
LINE
5
2EE
100
AcDbEntity
8
GRAVIRANJE
6
ByLayer
62
256
370
-1
100
AcDbLine
10
440
20
196
11
440
21
-10
0
CIRCLE
5
2EF
100
AcDbEntity
8
HOLES
6
ByLayer
62
256
370
-1
100
AcDbCircle
10
415.7
20
106.1
40
1.6
0
LINE
5
2F0
100
AcDbEntity
8
GRAVIRANJE
6
ByLayer
62
256
370
-1
100
AcDbLine
10
381.8
20
138.1
11
373.8
21
138.1
0
LINE
5
2F1
100
AcDbEntity
8
GRAVIRANJE
6
ByLayer
62
256
370
-1
100
AcDbLine
10
373.8
20
138.1
11
369.8
21
134.1
0
LINE
5
2F2
100
AcDbEntity
8
GRAVIRANJE
6
ByLayer
62
256
370
-1
100
AcDbLine
10
385.3
20
141.6
11
381.8
21
138.1
0
LINE
5
2F3
100
AcDbEntity
8
GRAVIRANJE
6
ByLayer
62
256
370
-1
100
AcDbLine
10
423.3
20
139.1
11
422.8
21
139.1
0
LINE
5
2F4
100
AcDbEntity
8
GRAVIRANJE
6
ByLayer
62
256
370
-1
100
AcDbLine
10
420.3
20
141.6
11
385.3
21
141.6
0
LINE
5
2F5
100
AcDbEntity
8
GRAVIRANJE
6
ByLayer
62
256
370
-1
100
AcDbLine
10
422.8
20
139.1
11
420.3
21
141.6
0
CIRCLE
5
2F6
100
AcDbEntity
8
HOLES
6
ByLayer
62
256
370
-1
100
AcDbCircle
10
420.8
20
136.55
40
1.6
0
LINE
5
2F7
100
AcDbEntity
8
GRAVIRANJE
6
ByLayer
62
256
370
-1
100
AcDbLine
10
370
20
40
11
423.34
21
40
0
CIRCLE
5
2F8
100
AcDbEntity
8
HOLES
6
ByLayer
62
256
370
-1
100
AcDbCircle
10
420.8
20
53.97
40
1.6
0
CIRCLE
5
2F9
100
AcDbEntity
8
HOLES
6
ByLayer
62
256
370
-1
100
AcDbCircle
10
372.54
20
55.24
40
1.6
0
CIRCLE
5
2FA
100
AcDbEntity
8
HOLES
6
ByLayer
62
256
370
-1
100
AcDbCircle
10
420.8
20
136.52
40
1.6
0
LINE
5
2FB
100
AcDbEntity
8
GRAVIRANJE
6
ByLayer
62
256
370
-1
100
AcDbLine
10
423.3
20
139.1
11
423.34
21
139.1
0
LINE
5
2FC
100
AcDbEntity
8
GRAVIRANJE
6
ByLayer
62
256
370
-1
100
AcDbLine
10
423.34
20
139.1
11
423.34
21
40
0
LINE
5
2FD
100
AcDbEntity
8
GRAVIRANJE
6
ByLayer
62
256
370
-1
100
AcDbLine
10
370
20
40
11
369.8
21
134.1
0
CIRCLE
5
2FE
100
AcDbEntity
8
HOLES
6
ByLayer
62
256
370
-1
100
AcDbCircle
10
372.54
20
130.17
40
1.6
0
MTEXT
5
2FF
100
AcDbEntity
8
GRAVIRANJE
6
ByLayer
62
256
370
-1
100
AcDbMText
10
387.8
20
66.1
30
0
40
4
41
24.4444444444
71
1
72
1
1
Arduino\PMega2560
7
standard
210
0
220
0
230
1
50
0
73
2
44
1
0
MTEXT
5
300
100
AcDbEntity
8
GRAVIRANJE
6
ByLayer
62
256
370
-1
100
AcDbMText
10
460
20
10
30
0
40
5
41
28.74999894
71
1
72
1
1
24V PSU
7
standard
210
0
220
0
230
1
50
0
73
2
44
1
0
CIRCLE
5
301
100
AcDbEntity
8
HOLES
6
ByLayer
62
256
370
-1
100
AcDbCircle
10
300
20
0
40
1
0
CIRCLE
5
302
100
AcDbEntity
8
HOLES
6
ByLayer
62
256
370
-1
100
AcDbCircle
10
316.25
20
2.60208521397e-017
40
1
0
CIRCLE
5
303
100
AcDbEntity
8
HOLES
6
ByLayer
62
256
370
-1
100
AcDbCircle
10
300
20
-35.7
40
1
0
CIRCLE
5
304
100
AcDbEntity
8
HOLES
6
ByLayer
62
256
370
-1
100
AcDbCircle
10
316.25
20
-35.7
40
1
0
LINE
5
305
100
AcDbEntity
8
GRAVIRANJE
6
ByLayer
62
256
370
-1
100
AcDbLine
10
298
20
2
11
319
21
2
0
LINE
5
306
100
AcDbEntity
8
GRAVIRANJE
6
ByLayer
62
256
370
-1
100
AcDbLine
10
319
20
2
11
319
21
-58
0
LINE
5
307
100
AcDbEntity
8
GRAVIRANJE
6
ByLayer
62
256
370
-1
100
AcDbLine
10
319
20
-58
11
298
21
-58
0
LINE
5
308
100
AcDbEntity
8
GRAVIRANJE
6
ByLayer
62
256
370
-1
100
AcDbLine
10
298
20
-58
11
298
21
2
0
MTEXT
5
309
100
AcDbEntity
8
GRAVIRANJE
6
ByLayer
62
256
370
-1
100
AcDbMText
10
310
20
-10
30
0
40
4
41
37.5555547075
71
1
72
1
1
+5V USB PWR
7
standard
210
0
220
0
230
1
50
270
73
2
44
1
0
CIRCLE
5
30A
100
AcDbEntity
8
HOLES
6
ByLayer
62
256
370
-1
100
AcDbCircle
10
0
20
-40
40
1.5
0
CIRCLE
5
30B
100
AcDbEntity
8
HOLES
6
ByLayer
62
256
370
-1
100
AcDbCircle
10
29.5
20
-40
40
1.5
0
POINT
5
30C
100
AcDbEntity
8
0
6
ByLayer
62
256
370
-1
100
AcDbPoint
10
14.75
20
-40
0
LWPOLYLINE
5
30D
100
AcDbEntity
8
HOLES
6
ByLayer
62
256
370
-1
100
AcDbPolyline
90
4
70
1
43
0
10
22.25
20
-36
10
22.25
20
-44
10
7.25
20
-44
10
7.25
20
-36
0
POINT
5
30E
100
AcDbEntity
8
0
6
ByLayer
62
256
370
-1
100
AcDbPoint
10
0
20
-40
0
POINT
5
30F
100
AcDbEntity
8
0
6
ByLayer
62
256
370
-1
100
AcDbPoint
10
29.5
20
-40
0
LWPOLYLINE
5
310
100
AcDbEntity
8
HOLES
6
ByLayer
62
256
370
-1
100
AcDbPolyline
90
4
70
1
43
0
10
7.25
20
-37
42
-0.414213562373
10
8.25
20
-36
42
-1
10
8.2499996499
20
-36.2
42
0.414213434196
10
7.45
20
-37
42
-1
0
LWPOLYLINE
5
311
100
AcDbEntity
8
HOLES
6
ByLayer
62
256
370
-1
100
AcDbPolyline
90
4
70
1
43
0
10
7.25
20
-43
42
0.414213562373
10
8.25
20
-44
42
1
10
8.2499996499
20
-43.8
42
-0.414213434196
10
7.45
20
-43
42
1
0
LWPOLYLINE
5
312
100
AcDbEntity
8
HOLES
6
ByLayer
62
256
370
-1
100
AcDbPolyline
90
4
70
1
43
0
10
22.25
20
-37
42
0.414213562373
10
21.25
20
-36
42
1
10
21.2500003501
20
-36.2
42
-0.414213434196
10
22.05
20
-37
42
1
0
LWPOLYLINE
5
313
100
AcDbEntity
8
HOLES
6
ByLayer
62
256
370
-1
100
AcDbPolyline
90
4
70
1
43
0
10
22.25
20
-43
42
-0.414213562373
10
21.25
20
-44
42
-1
10
21.2500003501
20
-43.8
42
0.414213434196
10
22.05
20
-43
42
-1
0
LWPOLYLINE
5
314
100
AcDbEntity
8
HOLES
6
ByLayer
62
256
370
-1
100
AcDbPolyline
90
4
70
1
43
0
10
7.25
20
-39.5
10
7.25
20
-40.5
42
1
10
7.45
20
-40.5
10
7.45
20
-39.5
42
1
0
LWPOLYLINE
5
315
100
AcDbEntity
8
HOLES
6
ByLayer
62
256
370
-1
100
AcDbPolyline
90
4
70
1
43
0
10
7.25
20
-37.7
10
7.25
20
-38.7
42
1
10
7.45
20
-38.7
10
7.45
20
-37.7
42
1
0
LWPOLYLINE
5
316
100
AcDbEntity
8
HOLES
6
ByLayer
62
256
370
-1
100
AcDbPolyline
90
4
70
1
43
0
10
7.25
20
-42.3
10
7.25
20
-41.3
42
-1
10
7.45
20
-41.3
10
7.45
20
-42.3
42
-1
0
LWPOLYLINE
5
317
100
AcDbEntity
8
HOLES
6
ByLayer
62
256
370
-1
100
AcDbPolyline
90
4
70
1
43
0
10
22.25
20
-39.5
10
22.25
20
-40.5
42
-1
10
22.05
20
-40.5
10
22.05
20
-39.5
42
-1
0
LWPOLYLINE
5
318
100
AcDbEntity
8
HOLES
6
ByLayer
62
256
370
-1
100
AcDbPolyline
90
4
70
1
43
0
10
22.25
20
-37.7
10
22.25
20
-38.7
42
-1
10
22.05
20
-38.7
10
22.05
20
-37.7
42
-1
0
LWPOLYLINE
5
319
100
AcDbEntity
8
HOLES
6
ByLayer
62
256
370
-1
100
AcDbPolyline
90
4
70
1
43
0
10
22.25
20
-42.3
10
22.25
20
-41.3
42
1
10
22.05
20
-41.3
10
22.05
20
-42.3
42
1
0
LWPOLYLINE
5
31A
100
AcDbEntity
8
HOLES
6
ByLayer
62
256
370
-1
100
AcDbPolyline
90
4
70
1
43
0
10
14.25
20
-36.2
10
15.25
20
-36.2
42
1
10
15.25
20
-36
10
14.25
20
-36
42
1
0
LWPOLYLINE
5
31B
100
AcDbEntity
8
HOLES
6
ByLayer
62
256
370
-1
100
AcDbPolyline
90
4
70
1
43
0
10
10.75
20
-36.2
10
11.75
20
-36.2
42
1
10
11.75
20
-36
10
10.75
20
-36
42
1
0
LWPOLYLINE
5
31C
100
AcDbEntity
8
HOLES
6
ByLayer
62
256
370
-1
100
AcDbPolyline
90
4
70
1
43
0
10
12.45
20
-36.2
10
13.45
20
-36.2
42
1
10
13.45
20
-36
10
12.45
20
-36
42
1
0
LWPOLYLINE
5
31D
100
AcDbEntity
8
HOLES
6
ByLayer
62
256
370
-1
100
AcDbPolyline
90
4
70
1
43
0
10
8.95
20
-36.2
10
9.95
20
-36.2
42
1
10
9.95
20
-36
10
8.95
20
-36
42
1
0
LWPOLYLINE
5
31E
100
AcDbEntity
8
HOLES
6
ByLayer
62
256
370
-1
100
AcDbPolyline
90
4
70
1
43
0
10
18.75
20
-36.2
10
17.75
20
-36.2
42
-1
10
17.75
20
-36
10
18.75
20
-36
42
-1
0
LWPOLYLINE
5
31F
100
AcDbEntity
8
HOLES
6
ByLayer
62
256
370
-1
100
AcDbPolyline
90
4
70
1
43
0
10
17.05
20
-36.2
10
16.05
20
-36.2
42
-1
10
16.05
20
-36
10
17.05
20
-36
42
-1
0
LWPOLYLINE
5
320
100
AcDbEntity
8
HOLES
6
ByLayer
62
256
370
-1
100
AcDbPolyline
90
4
70
1
43
0
10
20.55
20
-36.2
10
19.55
20
-36.2
42
-1
10
19.55
20
-36
10
20.55
20
-36
42
-1
0
LWPOLYLINE
5
321
100
AcDbEntity
8
HOLES
6
ByLayer
62
256
370
-1
100
AcDbPolyline
90
4
70
1
43
0
10
14.25
20
-43.8
10
15.25
20
-43.8
42
-1
10
15.25
20
-44
10
14.25
20
-44
42
-1
0
LWPOLYLINE
5
322
100
AcDbEntity
8
HOLES
6
ByLayer
62
256
370
-1
100
AcDbPolyline
90
4
70
1
43
0
10
10.75
20
-43.8
10
11.75
20
-43.8
42
-1
10
11.75
20
-44
10
10.75
20
-44
42
-1
0
LWPOLYLINE
5
323
100
AcDbEntity
8
HOLES
6
ByLayer
62
256
370
-1
100
AcDbPolyline
90
4
70
1
43
0
10
12.45
20
-43.8
10
13.45
20
-43.8
42
-1
10
13.45
20
-44
10
12.45
20
-44
42
-1
0
LWPOLYLINE
5
324
100
AcDbEntity
8
HOLES
6
ByLayer
62
256
370
-1
100
AcDbPolyline
90
4
70
1
43
0
10
8.95
20
-43.8
10
9.95
20
-43.8
42
-1
10
9.95
20
-44
10
8.95
20
-44
42
-1
0
LWPOLYLINE
5
325
100
AcDbEntity
8
HOLES
6
ByLayer
62
256
370
-1
100
AcDbPolyline
90
4
70
1
43
0
10
18.75
20
-43.8
10
17.75
20
-43.8
42
1
10
17.75
20
-44
10
18.75
20
-44
42
1
0
LWPOLYLINE
5
326
100
AcDbEntity
8
HOLES
6
ByLayer
62
256
370
-1
100
AcDbPolyline
90
4
70
1
43
0
10
17.05
20
-43.8
10
16.05
20
-43.8
42
1
10
16.05
20
-44
10
17.05
20
-44
42
1
0
LWPOLYLINE
5
327
100
AcDbEntity
8
HOLES
6
ByLayer
62
256
370
-1
100
AcDbPolyline
90
4
70
1
43
0
10
20.55
20
-43.8
10
19.55
20
-43.8
42
1
10
19.55
20
-44
10
20.55
20
-44
42
1
0
CIRCLE
5
328
100
AcDbEntity
8
HOLES
6
ByLayer
62
256
370
-1
100
AcDbCircle
10
40
20
-40
40
1.25
0
CIRCLE
5
329
100
AcDbEntity
8
HOLES
6
ByLayer
62
256
370
-1
100
AcDbCircle
10
67.5
20
-40
40
1.25
0
POINT
5
32A
100
AcDbEntity
8
0
6
ByLayer
62
256
370
-1
100
AcDbPoint
10
53.75
20
-40
0
LWPOLYLINE
5
32B
100
AcDbEntity
8
HOLES
6
ByLayer
62
256
370
-1
100
AcDbPolyline
90
12
70
1
43
0
10
58.75
20
-43
10
48.75
20
-43
10
46.55
20
-41.02
42
0.124313654801
10
46.2643570688
20
-40.8741572761
42
-0.272375344145
10
45.75
20
-40
10
45.75
20
-38
42
-0.414213562373
10
46.75
20
-37
10
60.75
20
-37
42
-0.414213562373
10
61.75
20
-38
10
61.75
20
-40
42
-0.272375344145
10
61.2356429312
20
-40.8741572761
42
0.124313654801
10
60.95
20
-41.02
0
MTEXT
5
32C
100
AcDbEntity
8
GRAVIRANJE
6
ByLayer
62
256
370
-1
100
AcDbMText
10
48.5
20
-45
30
0
40
4
41
11.1111111111
71
1
72
1
1
HDMI
7
standard
210
0
220
0
230
1
50
0
73
2
44
1
0
MTEXT
5
32D
100
AcDbEntity
8
GRAVIRANJE
6
ByLayer
62
256
370
-1
100
AcDbMText
10
10.5
20
-46
30
0
40
4
41
9.33333248532
71
1
72
1
1
USB
7
standard
210
0
220
0
230
1
50
0
73
2
44
1
0
POINT
5
32E
100
AcDbEntity
8
0
6
ByLayer
62
256
370
-1
100
AcDbPoint
10
80
20
-40
0
MTEXT
5
32F
100
AcDbEntity
8
GRAVIRANJE
6
ByLayer
62
256
370
-1
100
AcDbMText
10
74
20
-25
30
0
40
4
41
11.5555555556
71
1
72
1
1
RJ45
7
standard
210
0
220
0
230
1
50
0
73
2
44
1
0
LWPOLYLINE
5
330
100
AcDbEntity
8
HOLES
6
ByLayer
62
256
370
-1
100
AcDbPolyline
90
8
70
1
43
0
10
90
20
-32
42
0.414213562373
10
88
20
-30
10
72
20
-30
42
0.414213562373
10
70
20
-32
10
70
20
-48
42
0.414213562373
10
72
20
-50
10
88
20
-50
42
0.414213562373
10
90
20
-48
0
LWPOLYLINE
5
331
100
AcDbEntity
8
HOLES
6
ByLayer
62
256
370
-1
100
AcDbPolyline
90
8
70
1
43
0
10
89
20
-32.5000010662
10
89
20
-47.5
42
-0.414213562373
10
86.9999985596
20
-49.5
10
73
20
-49.5
42
-0.414213562373
10
71
20
-47.5
10
71
20
-32.5
42
-0.414213562373
10
73.0000005058
20
-30.5
10
87
20
-30.5
42
-0.414213562373
0
LWPOLYLINE
5
332
100
AcDbEntity
8
HOLES
6
ByLayer
62
256
370
-1
100
AcDbPolyline
90
5
70
1
43
0
10
95
20
291
10
85
20
291
10
85
20
285
10
95
20
285
10
95
20
285
0
LWPOLYLINE
5
333
100
AcDbEntity
8
HOLES
6
ByLayer
62
256
370
-1
100
AcDbPolyline
90
5
70
1
43
0
10
115
20
291
10
105
20
291
10
105
20
285
10
115
20
285
10
115
20
285
0
LWPOLYLINE
5
334
100
AcDbEntity
8
HOLES
6
ByLayer
62
256
370
-1
100
AcDbPolyline
90
5
70
1
43
0
10
95
20
309
10
85
20
309
10
85
20
315
10
95
20
315
10
95
20
315
0
LWPOLYLINE
5
335
100
AcDbEntity
8
HOLES
6
ByLayer
62
256
370
-1
100
AcDbPolyline
90
5
70
1
43
0
10
115
20
309
10
105
20
309
10
105
20
315
10
115
20
315
10
115
20
315
0
LWPOLYLINE
5
336
100
AcDbEntity
8
HOLES
6
ByLayer
62
256
370
-1
100
AcDbPolyline
90
5
70
1
43
0
10
91
20
305
10
91
20
295
10
85
20
295
10
85
20
305
10
85
20
305
0
LWPOLYLINE
5
337
100
AcDbEntity
8
HOLES
6
ByLayer
62
256
370
-1
100
AcDbPolyline
90
5
70
1
43
0
10
109
20
305
10
109
20
295
10
115
20
295
10
115
20
305
10
115
20
305
0
CIRCLE
5
338
100
AcDbEntity
8
HOLES
6
ByLayer
62
256
370
-1
100
AcDbCircle
10
100
20
288
40
1.5
0
CIRCLE
5
339
100
AcDbEntity
8
HOLES
6
ByLayer
62
256
370
-1
100
AcDbCircle
10
100
20
312
40
1.5
0
CIRCLE
5
33A
100
AcDbEntity
8
HOLES
6
ByLayer
62
256
370
-1
100
AcDbCircle
10
100
20
280
40
1.5
0
CIRCLE
5
33B
100
AcDbEntity
8
HOLES
6
ByLayer
62
256
370
-1
100
AcDbCircle
10
120
20
300
40
1.5
0
CIRCLE
5
33C
100
AcDbEntity
8
HOLES
6
ByLayer
62
256
370
-1
100
AcDbCircle
10
80
20
300
40
1.5
0
CIRCLE
5
33D
100
AcDbEntity
8
HOLES
6
ByLayer
62
256
370
-1
100
AcDbCircle
10
100
20
320
40
1.5
0
LWPOLYLINE
5
33E
100
AcDbEntity
8
IZREZ
6
ByLayer
62
256
370
-1
100
AcDbPolyline
90
45
70
1
43
0
10
105
20
220
10
105
20
226
10
95
20
226
10
95
20
220
10
91
20
220
10
91
20
214
10
85
20
214
10
85
20
206
10
91
20
206
10
91
20
200
10
85
20
200
10
85
20
194
10
91
20
194
10
91
20
186
10
85
20
186
10
85
20
174
10
95
20
174
10
95
20
180
10
98.5
20
180
10
98.5
20
187
10
97.1
20
187
10
97.1
20
189
10
98.5
20
189
10
98.5
20
195
10
100
20
195
10
101.5
20
195
10
101.5
20
189
10
102.9
20
189
10
102.9
20
187
10
101.5
20
187
10
101.5
20
180
10
105
20
180
10
105
20
174
10
115
20
174
10
115
20
186
10
109
20
186
10
109
20
194
10
115
20
194
10
115
20
200
10
109
20
200
10
109
20
206
10
115
20
206
10
115
20
214
10
109
20
214
10
109
20
220
0
CIRCLE
5
33F
100
AcDbEntity
8
HOLES
6
ByLayer
62
256
370
-1
100
AcDbCircle
10
122
20
278
40
2.95
0
CIRCLE
5
340
100
AcDbEntity
8
HOLES
6
ByLayer
62
256
370
-1
100
AcDbCircle
10
78
20
278
40
2.95
0
CIRCLE
5
341
100
AcDbEntity
8
HOLES
6
ByLayer
62
256
370
-1
100
AcDbCircle
10
122
20
322
40
2.95
0
CIRCLE
5
342
100
AcDbEntity
8
HOLES
6
ByLayer
62
256
370
-1
100
AcDbCircle
10
78
20
322
40
2.95
0
CIRCLE
5
343
100
AcDbEntity
8
HOLES
6
ByLayer
62
256
370
-1
100
AcDbCircle
10
100
20
208
40
7.5
0
CIRCLE
5
344
100
AcDbEntity
8
HOLES
6
ByLayer
62
256
370
-1
100
AcDbCircle
10
200
20
208
40
6
0
LWPOLYLINE
5
345
100
AcDbEntity
8
IZREZ
6
ByLayer
62
256
370
-1
100
AcDbPolyline
90
8
70
1
43
0
10
125
20
430
10
75
20
430
42
0.414213562373
10
70
20
425
10
70
20
375
42
0.414213562373
10
75
20
370
10
125
20
370
42
0.414213562373
10
130
20
375
10
130
20
425
42
0.414213562373
0
CIRCLE
5
346
100
AcDbEntity
8
HOLES
6
ByLayer
62
256
370
-1
100
AcDbCircle
10
100
20
400
40
5
0
LWPOLYLINE
5
347
100
AcDbEntity
8
HOLES
6
ByLayer
62
256
370
-1
100
AcDbPolyline
90
5
70
1
43
0
10
95
20
391
10
85
20
391
10
85
20
385
10
95
20
385
10
95
20
385
0
LWPOLYLINE
5
348
100
AcDbEntity
8
HOLES
6
ByLayer
62
256
370
-1
100
AcDbPolyline
90
5
70
1
43
0
10
115
20
391
10
105
20
391
10
105
20
385
10
115
20
385
10
115
20
385
0
LWPOLYLINE
5
349
100
AcDbEntity
8
HOLES
6
ByLayer
62
256
370
-1
100
AcDbPolyline
90
5
70
1
43
0
10
95
20
409
10
85
20
409
10
85
20
415
10
95
20
415
10
95
20
415
0
LWPOLYLINE
5
34A
100
AcDbEntity
8
HOLES
6
ByLayer
62
256
370
-1
100
AcDbPolyline
90
5
70
1
43
0
10
115
20
409
10
105
20
409
10
105
20
415
10
115
20
415
10
115
20
415
0
LWPOLYLINE
5
34B
100
AcDbEntity
8
HOLES
6
ByLayer
62
256
370
-1
100
AcDbPolyline
90
5
70
1
43
0
10
91
20
405
10
91
20
395
10
85
20
395
10
85
20
405
10
85
20
405
0
LWPOLYLINE
5
34C
100
AcDbEntity
8
HOLES
6
ByLayer
62
256
370
-1
100
AcDbPolyline
90
5
70
1
43
0
10
109
20
405
10
109
20
395
10
115
20
395
10
115
20
405
10
115
20
405
0
CIRCLE
5
34D
100
AcDbEntity
8
HOLES
6
ByLayer
62
256
370
-1
100
AcDbCircle
10
100
20
388
40
1.5
0
CIRCLE
5
34E
100
AcDbEntity
8
HOLES
6
ByLayer
62
256
370
-1
100
AcDbCircle
10
100
20
412
40
1.5
0
CIRCLE
5
34F
100
AcDbEntity
8
HOLES
6
ByLayer
62
256
370
-1
100
AcDbCircle
10
100
20
380
40
1.5
0
CIRCLE
5
350
100
AcDbEntity
8
HOLES
6
ByLayer
62
256
370
-1
100
AcDbCircle
10
120
20
400
40
1.5
0
CIRCLE
5
351
100
AcDbEntity
8
HOLES
6
ByLayer
62
256
370
-1
100
AcDbCircle
10
80
20
400
40
1.5
0
CIRCLE
5
352
100
AcDbEntity
8
HOLES
6
ByLayer
62
256
370
-1
100
AcDbCircle
10
100
20
420
40
1.5
0
CIRCLE
5
353
100
AcDbEntity
8
GRAVIRANJE
6
ByLayer
62
256
370
-1
100
AcDbCircle
10
122
20
378
40
6.5
0
CIRCLE
5
354
100
AcDbEntity
8
HOLES
6
ByLayer
62
256
370
-1
100
AcDbCircle
10
122
20
378
40
5
0
CIRCLE
5
355
100
AcDbEntity
8
GRAVIRANJE
6
ByLayer
62
256
370
-1
100
AcDbCircle
10
78
20
378
40
6.5
0
CIRCLE
5
356
100
AcDbEntity
8
HOLES
6
ByLayer
62
256
370
-1
100
AcDbCircle
10
78
20
378
40
5
0
CIRCLE
5
357
100
AcDbEntity
8
GRAVIRANJE
6
ByLayer
62
256
370
-1
100
AcDbCircle
10
122
20
422
40
6.5
0
CIRCLE
5
358
100
AcDbEntity
8
HOLES
6
ByLayer
62
256
370
-1
100
AcDbCircle
10
122
20
422
40
5
0
CIRCLE
5
359
100
AcDbEntity
8
GRAVIRANJE
6
ByLayer
62
256
370
-1
100
AcDbCircle
10
78
20
422
40
6.5
0
CIRCLE
5
35A
100
AcDbEntity
8
HOLES
6
ByLayer
62
256
370
-1
100
AcDbCircle
10
78
20
422
40
5
0
LWPOLYLINE
5
35B
100
AcDbEntity
8
IZREZ
6
ByLayer
62
256
370
-1
100
AcDbPolyline
90
8
70
1
43
0
10
225
20
330
10
175
20
330
42
0.414213562373
10
170
20
325
10
170
20
275
42
0.414213562373
10
175
20
270
10
225
20
270
42
0.414213562373
10
230
20
275
10
230
20
325
42
0.414213562373
0
CIRCLE
5
35C
100
AcDbEntity
8
HOLES
6
ByLayer
62
256
370
-1
100
AcDbCircle
10
200
20
300
40
5
0
CIRCLE
5
35D
100
AcDbEntity
8
HOLES
6
ByLayer
62
256
370
-1
100
AcDbCircle
10
200
20
280
40
1.5
0
CIRCLE
5
35E
100
AcDbEntity
8
HOLES
6
ByLayer
62
256
370
-1
100
AcDbCircle
10
220
20
300
40
1.5
0
CIRCLE
5
35F
100
AcDbEntity
8
HOLES
6
ByLayer
62
256
370
-1
100
AcDbCircle
10
180
20
300
40
1.5
0
CIRCLE
5
360
100
AcDbEntity
8
HOLES
6
ByLayer
62
256
370
-1
100
AcDbCircle
10
200
20
320
40
1.5
0
LWPOLYLINE
5
361
100
AcDbEntity
8
IZREZ
6
ByLayer
62
256
370
-1
100
AcDbPolyline
90
8
70
1
43
0
10
225
20
430
10
175
20
430
42
0.414213562373
10
170
20
425
10
170
20
375
42
0.414213562373
10
175
20
370
10
225
20
370
42
0.414213562373
10
230
20
375
10
230
20
425
42
0.414213562373
0
CIRCLE
5
362
100
AcDbEntity
8
HOLES
6
ByLayer
62
256
370
-1
100
AcDbCircle
10
200
20
380
40
1.5
0
CIRCLE
5
363
100
AcDbEntity
8
HOLES
6
ByLayer
62
256
370
-1
100
AcDbCircle
10
220
20
400
40
1.5
0
CIRCLE
5
364
100
AcDbEntity
8
HOLES
6
ByLayer
62
256
370
-1
100
AcDbCircle
10
180
20
400
40
1.5
0
CIRCLE
5
365
100
AcDbEntity
8
HOLES
6
ByLayer
62
256
370
-1
100
AcDbCircle
10
200
20
420
40
1.5
0
DIMENSION
5
366
100
AcDbEntity
8
0
6
ByLayer
62
256
370
-1
100
AcDbDimension
2
*D18
10
109
20
340
30
0
11
100
21
341.875
31
0
70
33
71
5
72
0
3
Standard
53
0
210
0
220
0
230
1
100
AcDbAlignedDimension
13
91
23
220
33
0
14
109
24
220
34
0
0
DIMENSION
5
367
100
AcDbEntity
8
0
6
ByLayer
62
256
370
-1
100
AcDbDimension
2
*D19
10
207
20
340
30
0
11
200
21
341.875
31
0
70
33
71
5
72
0
3
Standard
53
0
210
0
220
0
230
1
100
AcDbAlignedDimension
13
193
23
220
33
0
14
207
24
220
34
0
0
CIRCLE
5
368
100
AcDbEntity
8
HOLES
6
ByLayer
62
256
370
-1
100
AcDbCircle
10
200
20
290
40
1.5
0
CIRCLE
5
369
100
AcDbEntity
8
HOLES
6
ByLayer
62
256
370
-1
100
AcDbCircle
10
200
20
310
40
1.5
0
DIMENSION
5
36A
100
AcDbEntity
8
0
6
ByLayer
62
256
370
-1
100
AcDbDimension
2
*D20
10
105
20
335
30
0
11
100
21
336.875
31
0
70
33
71
5
72
0
3
Standard
53
0
210
0
220
0
230
1
100
AcDbAlignedDimension
13
95
23
180
33
0
14
105
24
180
34
0
0
DIMENSION
5
36B
100
AcDbEntity
8
0
6
ByLayer
62
256
370
-1
100
AcDbDimension
2
*D21
10
204
20
335
30
0
11
200
21
336.875
31
0
70
33
71
5
72
0
3
Standard
53
0
210
0
220
0
230
1
100
AcDbAlignedDimension
13
196
23
222
33
0
14
204
24
222
34
0
0
LWPOLYLINE
5
36C
100
AcDbEntity
8
HOLES
6
ByLayer
62
256
370
-1
100
AcDbPolyline
90
5
70
1
43
0
10
196
20
313
10
187
20
313
10
187
20
307
10
196
20
307
10
196
20
307
0
LWPOLYLINE
5
36D
100
AcDbEntity
8
HOLES
6
ByLayer
62
256
370
-1
100
AcDbPolyline
90
5
70
1
43
0
10
204
20
313
10
213
20
313
10
213
20
307
10
204
20
307
10
204
20
307
0
LWPOLYLINE
5
36E
100
AcDbEntity
8
HOLES
6
ByLayer
62
256
370
-1
100
AcDbPolyline
90
5
70
1
43
0
10
196
20
287
10
187
20
287
10
187
20
293
10
196
20
293
10
196
20
293
0
LWPOLYLINE
5
36F
100
AcDbEntity
8
HOLES
6
ByLayer
62
256
370
-1
100
AcDbPolyline
90
5
70
1
43
0
10
204
20
287
10
213
20
287
10
213
20
293
10
204
20
293
10
204
20
293
0
LWPOLYLINE
5
370
100
AcDbEntity
8
HOLES
6
ByLayer
62
256
370
-1
100
AcDbPolyline
90
5
70
1
43
0
10
193
20
304
10
193
20
296
10
187
20
296
10
187
20
304
10
187
20
304
0
LWPOLYLINE
5
371
100
AcDbEntity
8
HOLES
6
ByLayer
62
256
370
-1
100
AcDbPolyline
90
5
70
1
43
0
10
207
20
304
10
207
20
296
10
213
20
296
10
213
20
304
10
213
20
304
0
CIRCLE
5
372
100
AcDbEntity
8
HOLES
6
ByLayer
62
256
370
-1
100
AcDbCircle
10
200
20
400
40
5
0
CIRCLE
5
373
100
AcDbEntity
8
HOLES
6
ByLayer
62
256
370
-1
100
AcDbCircle
10
200
20
390
40
1.5
0
CIRCLE
5
374
100
AcDbEntity
8
HOLES
6
ByLayer
62
256
370
-1
100
AcDbCircle
10
200
20
410
40
1.5
0
LWPOLYLINE
5
375
100
AcDbEntity
8
HOLES
6
ByLayer
62
256
370
-1
100
AcDbPolyline
90
5
70
1
43
0
10
196
20
413
10
187
20
413
10
187
20
407
10
196
20
407
10
196
20
407
0
LWPOLYLINE
5
376
100
AcDbEntity
8
HOLES
6
ByLayer
62
256
370
-1
100
AcDbPolyline
90
5
70
1
43
0
10
204
20
413
10
213
20
413
10
213
20
407
10
204
20
407
10
204
20
407
0
LWPOLYLINE
5
377
100
AcDbEntity
8
HOLES
6
ByLayer
62
256
370
-1
100
AcDbPolyline
90
5
70
1
43
0
10
196
20
387
10
187
20
387
10
187
20
393
10
196
20
393
10
196
20
393
0
LWPOLYLINE
5
378
100
AcDbEntity
8
HOLES
6
ByLayer
62
256
370
-1
100
AcDbPolyline
90
5
70
1
43
0
10
204
20
387
10
213
20
387
10
213
20
393
10
204
20
393
10
204
20
393
0
LWPOLYLINE
5
379
100
AcDbEntity
8
HOLES
6
ByLayer
62
256
370
-1
100
AcDbPolyline
90
5
70
1
43
0
10
193
20
404
10
193
20
396
10
187
20
396
10
187
20
404
10
187
20
404
0
LWPOLYLINE
5
37A
100
AcDbEntity
8
HOLES
6
ByLayer
62
256
370
-1
100
AcDbPolyline
90
5
70
1
43
0
10
207
20
404
10
207
20
396
10
213
20
396
10
213
20
404
10
213
20
404
0
LWPOLYLINE
5
37B
100
AcDbEntity
8
IZREZ
6
ByLayer
62
256
370
-1
100
AcDbPolyline
90
45
70
1
43
0
10
196
20
222
10
204
20
222
10
204
20
216
10
207
20
216
10
207
20
214
10
213
20
214
10
213
20
206
10
207
20
206
10
207
20
200
10
213
20
200
10
213
20
194
10
207
20
194
10
207
20
186
10
213
20
186
10
213
20
178
10
204
20
178
10
204
20
184
10
201.5
20
184
10
201.5
20
191
10
202.9
20
191
10
202.9
20
193
10
201.5
20
193
10
201.5
20
198
10
200
20
198
10
198.5
20
198
10
198.5
20
193
10
197.1
20
193
10
197.1
20
191
10
198.5
20
191
10
198.5
20
184
10
196
20
184
10
196
20
178
10
187
20
178
10
187
20
186
10
193
20
186
10
193
20
194
10
187
20
194
10
187
20
200
10
193
20
200
10
193
20
206
10
187
20
206
10
187
20
214
10
193
20
214
10
193
20
216
10
196
20
216
0
CIRCLE
5
37C
100
AcDbEntity
8
HOLES
6
ByLayer
62
256
370
-1
100
AcDbCircle
10
220
20
280
40
2.95
0
CIRCLE
5
37D
100
AcDbEntity
8
GRAVIRANJE
6
ByLayer
62
256
370
-1
100
AcDbCircle
10
220
20
380
40
6.5
0
CIRCLE
5
37E
100
AcDbEntity
8
HOLES
6
ByLayer
62
256
370
-1
100
AcDbCircle
10
220
20
380
40
5
0
CIRCLE
5
37F
100
AcDbEntity
8
HOLES
6
ByLayer
62
256
370
-1
100
AcDbCircle
10
180
20
280
40
2.95
0
CIRCLE
5
380
100
AcDbEntity
8
GRAVIRANJE
6
ByLayer
62
256
370
-1
100
AcDbCircle
10
180
20
380
40
6.5
0
CIRCLE
5
381
100
AcDbEntity
8
HOLES
6
ByLayer
62
256
370
-1
100
AcDbCircle
10
180
20
380
40
5
0
CIRCLE
5
382
100
AcDbEntity
8
HOLES
6
ByLayer
62
256
370
-1
100
AcDbCircle
10
220
20
320
40
2.95
0
CIRCLE
5
383
100
AcDbEntity
8
HOLES
6
ByLayer
62
256
370
-1
100
AcDbCircle
10
180
20
320
40
2.95
0
CIRCLE
5
384
100
AcDbEntity
8
GRAVIRANJE
6
ByLayer
62
256
370
-1
100
AcDbCircle
10
220
20
420
40
6.5
0
CIRCLE
5
385
100
AcDbEntity
8
HOLES
6
ByLayer
62
256
370
-1
100
AcDbCircle
10
220
20
420
40
5
0
CIRCLE
5
386
100
AcDbEntity
8
GRAVIRANJE
6
ByLayer
62
256
370
-1
100
AcDbCircle
10
180
20
420
40
6.5
0
CIRCLE
5
387
100
AcDbEntity
8
HOLES
6
ByLayer
62
256
370
-1
100
AcDbCircle
10
180
20
420
40
5
0
LWPOLYLINE
5
388
100
AcDbEntity
8
IZREZ
6
ByLayer
62
256
370
-1
100
AcDbPolyline
90
22
70
1
43
0
10
-26.75
20
155
10
-20.75
20
155
10
-20.75
20
150
10
0
20
150
10
20.75
20
150
10
20.75
20
155
10
26.75
20
155
10
26.75
20
165
10
20.75
20
165
10
20.75
20
168.25
42
-0.414213562373
10
18
20
171
10
3.5
20
171
10
3
20
170.5
10
3
20
170
10
0
20
170
10
-3
20
170
10
-3
20
170.5
10
-3.5
20
171
10
-18
20
171
42
-0.414213562373
10
-20.75
20
168.25
10
-20.75
20
165
10
-26.75
20
165
0
ENDSEC
0
SECTION
2
OBJECTS
0
DICTIONARY
5
C
330
0
100
AcDbDictionary
281
1
3
ACAD_GROUP
350
D
0
DICTIONARY
5
D
330
C
100
AcDbDictionary
281
1
0
ENDSEC
0
EOF
