999
dxfrw 0.5.13
0
SECTION
2
HEADER
9
$ACADVER
1
AC1021
9
$HANDSEED
5
20000
9
$DWGCODEPAGE
3
ANSI_1252
9
$INSBASE
10
0
20
0
30
0
9
$EXTMIN
10
-121
20
-100
30
0
9
$EXTMAX
10
121.25
20
120
30
0
9
$LIMMIN
10
0
20
0
9
$LIMMAX
10
420
20
297
9
$ORTHOMODE
70
0
9
$LTSCALE
40
1
9
$TEXTSTYLE
7
STANDARD
9
$CLAYER
8
IZREZ
9
$DIMASZ
40
2.5
9
$DIMLFAC
40
1
9
$DIMSCALE
40
1
9
$DIMEXO
40
0.625
9
$DIMEXE
40
1.25
9
$DIMTXT
40
2.5
9
$DIMTSZ
40
0
9
$DIMAUNIT
70
0
9
$DIMADEC
70
0
9
$DIMLUNIT
70
2
9
$DIMSTYLE
2
STANDARD
9
$DIMGAP
40
0.625
9
$DIMTIH
70
0
9
$LUNITS
70
2
9
$LUPREC
70
4
9
$AUNITS
70
0
9
$AUPREC
70
2
9
$SPLINESEGS
70
8
9
$GRIDMODE
70
1
9
$SNAPSTYLE
70
0
9
$PINSBASE
10
0
20
0
30
0
9
$PLIMMIN
10
0
20
0
9
$PLIMMAX
10
210
20
297
9
$INSUNITS
70
4
9
$PSVPSCALE
40
1
0
ENDSEC
0
SECTION
2
CLASSES
0
ENDSEC
0
SECTION
2
TABLES
0
TABLE
2
VPORT
5
8
330
0
100
AcDbSymbolTable
70
1
0
VPORT
5
31
330
2
100
AcDbSymbolTableRecord
100
AcDbViewportTableRecord
2
*ACTIVE
70
0
10
0
20
0
11
1
21
1
12
46.6956740284
22
25.2818115088
13
0
23
0
14
10
24
10
15
10
25
10
16
0
26
0
36
1
17
0
27
0
37
0
40
74.3318892697
41
2.36953242836
42
50
43
0
44
0
50
0
51
0
71
0
72
100
73
1
74
3
75
0
76
1
77
0
78
0
281
0
65
1
110
0
120
0
130
0
111
1
121
0
131
0
112
0
122
1
132
0
79
0
146
0
348
10020
60
7
61
5
292
1
282
1
141
0
142
0
63
250
421
3358443
0
ENDTAB
0
TABLE
2
LTYPE
5
5
330
0
100
AcDbSymbolTable
70
4
0
LTYPE
5
14
330
5
100
AcDbSymbolTableRecord
100
AcDbLinetypeTableRecord
2
ByBlock
70
0
3

72
65
73
0
40
0
0
LTYPE
5
15
330
5
100
AcDbSymbolTableRecord
100
AcDbLinetypeTableRecord
2
ByLayer
70
0
3

72
65
73
0
40
0
0
LTYPE
5
16
330
5
100
AcDbSymbolTableRecord
100
AcDbLinetypeTableRecord
2
Continuous
70
0
3
Solid line
72
65
73
0
40
0
0
LTYPE
5
32
330
5
100
AcDbSymbolTableRecord
100
AcDbLinetypeTableRecord
2
DOT
70
0
3
Dot . . . . . . . . . . . . . . . . . . . . . .
72
65
73
2
40
6.35
49
0
74
0
49
-6.35
74
0
0
LTYPE
5
33
330
5
100
AcDbSymbolTableRecord
100
AcDbLinetypeTableRecord
2
DOT2
70
0
3
Dot (.5x) .....................................
72
65
73
2
40
3.175
49
0
74
0
49
-3.175
74
0
0
LTYPE
5
34
330
5
100
AcDbSymbolTableRecord
100
AcDbLinetypeTableRecord
2
DOTX2
70
0
3
Dot (2x) .  .  .  .  .  .  .  .  .  .  .  .  .
72
65
73
2
40
12.7
49
0
74
0
49
-12.7
74
0
0
LTYPE
5
35
330
5
100
AcDbSymbolTableRecord
100
AcDbLinetypeTableRecord
2
DASHED
70
0
3
Dot . . . . . . . . . . . . . . . . . . . . . .
72
65
73
2
40
19.05
49
12.7
74
0
49
-6.35
74
0
0
LTYPE
5
36
330
5
100
AcDbSymbolTableRecord
100
AcDbLinetypeTableRecord
2
DASHED2
70
0
3
Dashed (.5x) _ _ _ _ _ _ _ _ _ _ _ _ _ _ _ _ _
72
65
73
2
40
9.525
49
6.35
74
0
49
-3.175
74
0
0
LTYPE
5
37
330
5
100
AcDbSymbolTableRecord
100
AcDbLinetypeTableRecord
2
DASHEDX2
70
0
3
Dashed (2x) ____  ____  ____  ____  ____  ___
72
65
73
2
40
38.1
49
25.4
74
0
49
-12.7
74
0
0
LTYPE
5
38
330
5
100
AcDbSymbolTableRecord
100
AcDbLinetypeTableRecord
2
DASHDOT
70
0
3
Dash dot __ . __ . __ . __ . __ . __ . __ . __
72
65
73
4
40
25.4
49
12.7
74
0
49
-6.35
74
0
49
0
74
0
49
-6.35
74
0
0
LTYPE
5
39
330
5
100
AcDbSymbolTableRecord
100
AcDbLinetypeTableRecord
2
DASHDOT2
70
0
3
Dash dot (.5x) _._._._._._._._._._._._._._._.
72
65
73
4
40
12.7
49
6.35
74
0
49
-3.175
74
0
49
0
74
0
49
-3.175
74
0
0
LTYPE
5
3A
330
5
100
AcDbSymbolTableRecord
100
AcDbLinetypeTableRecord
2
DASHDOTX2
70
0
3
Dash dot (2x) ____  .  ____  .  ____  .  ___
72
65
73
4
40
50.8
49
25.4
74
0
49
-12.7
74
0
49
0
74
0
49
-12.7
74
0
0
LTYPE
5
3B
330
5
100
AcDbSymbolTableRecord
100
AcDbLinetypeTableRecord
2
DIVIDE
70
0
3
Divide ____ . . ____ . . ____ . . ____ . . ____
72
65
73
6
40
31.75
49
12.7
74
0
49
-6.35
74
0
49
0
74
0
49
-6.35
74
0
49
0
74
0
49
-6.35
74
0
0
LTYPE
5
3C
330
5
100
AcDbSymbolTableRecord
100
AcDbLinetypeTableRecord
2
DIVIDE2
70
0
3
Divide (.5x) __..__..__..__..__..__..__..__.._
72
65
73
6
40
15.875
49
6.35
74
0
49
-3.175
74
0
49
0
74
0
49
-3.175
74
0
49
0
74
0
49
-3.175
74
0
0
LTYPE
5
3D
330
5
100
AcDbSymbolTableRecord
100
AcDbLinetypeTableRecord
2
DIVIDEX2
70
0
3
Divide (2x) ________  .  .  ________  .  .  _
72
65
73
6
40
63.5
49
25.4
74
0
49
-12.7
74
0
49
0
74
0
49
-12.7
74
0
49
0
74
0
49
-12.7
74
0
0
LTYPE
5
3E
330
5
100
AcDbSymbolTableRecord
100
AcDbLinetypeTableRecord
2
BORDER
70
0
3
Border __ __ . __ __ . __ __ . __ __ . __ __ .
72
65
73
6
40
44.45
49
12.7
74
0
49
-6.35
74
0
49
12.7
74
0
49
-6.35
74
0
49
0
74
0
49
-6.35
74
0
0
LTYPE
5
3F
330
5
100
AcDbSymbolTableRecord
100
AcDbLinetypeTableRecord
2
BORDER2
70
0
3
Border (.5x) __.__.__.__.__.__.__.__.__.__.__.
72
65
73
6
40
22.225
49
6.35
74
0
49
-3.175
74
0
49
6.35
74
0
49
-3.175
74
0
49
0
74
0
49
-3.175
74
0
0
LTYPE
5
40
330
5
100
AcDbSymbolTableRecord
100
AcDbLinetypeTableRecord
2
BORDERX2
70
0
3
Border (2x) ____  ____  .  ____  ____  .  ___
72
65
73
6
40
88.9
49
25.4
74
0
49
-12.7
74
0
49
25.4
74
0
49
-12.7
74
0
49
0
74
0
49
-12.7
74
0
0
LTYPE
5
41
330
5
100
AcDbSymbolTableRecord
100
AcDbLinetypeTableRecord
2
CENTER
70
0
3
Center ____ _ ____ _ ____ _ ____ _ ____ _ ____
72
65
73
4
40
50.8
49
31.75
74
0
49
-6.35
74
0
49
6.35
74
0
49
-6.35
74
0
0
LTYPE
5
42
330
5
100
AcDbSymbolTableRecord
100
AcDbLinetypeTableRecord
2
CENTER2
70
0
3
Center (.5x) ___ _ ___ _ ___ _ ___ _ ___ _ ___
72
65
73
4
40
28.575
49
19.05
74
0
49
-3.175
74
0
49
3.175
74
0
49
-3.175
74
0
0
LTYPE
5
43
330
5
100
AcDbSymbolTableRecord
100
AcDbLinetypeTableRecord
2
CENTERX2
70
0
3
Center (2x) ________  __  ________  __  _____
72
65
73
4
40
101.6
49
63.5
74
0
49
-12.7
74
0
49
12.7
74
0
49
-12.7
74
0
0
ENDTAB
0
TABLE
2
LAYER
5
2
330
0
100
AcDbSymbolTable
70
1
0
LAYER
5
10
330
2
100
AcDbSymbolTableRecord
100
AcDbLayerTableRecord
2
0
70
0
62
2
6
CONTINUOUS
370
0
390
F
0
LAYER
5
44
330
2
100
AcDbSymbolTableRecord
100
AcDbLayerTableRecord
2
GRAVIRANJE
70
0
62
3
6
CONTINUOUS
370
0
390
F
0
LAYER
5
45
330
2
100
AcDbSymbolTableRecord
100
AcDbLayerTableRecord
2
HOLES
70
0
62
5
6
CONTINUOUS
370
0
390
F
0
LAYER
5
46
330
2
100
AcDbSymbolTableRecord
100
AcDbLayerTableRecord
2
IZREZ
70
0
62
7
6
CONTINUOUS
370
0
390
F
0
ENDTAB
0
TABLE
2
STYLE
5
3
330
0
100
AcDbSymbolTable
70
3
0
STYLE
5
47
330
2
100
AcDbSymbolTableRecord
100
AcDbTextStyleTableRecord
2
STANDARD
70
0
40
0
41
1
50
0
71
0
42
1
3
STANDARD
4

0
ENDTAB
0
TABLE
2
VIEW
5
6
330
0
100
AcDbSymbolTable
70
0
0
ENDTAB
0
TABLE
2
UCS
5
7
330
0
100
AcDbSymbolTable
70
0
0
ENDTAB
0
TABLE
2
APPID
5
9
330
0
100
AcDbSymbolTable
70
1
0
APPID
5
12
330
9
100
AcDbSymbolTableRecord
100
AcDbRegAppTableRecord
2
ACAD
70
0
0
APPID
5
48
330
9
100
AcDbSymbolTableRecord
100
AcDbRegAppTableRecord
2
LibreCad
70
0
0
ENDTAB
0
TABLE
2
DIMSTYLE
5
A
330
0
100
AcDbSymbolTable
70
1
100
AcDbDimStyleTable
71
1
0
DIMSTYLE
105
49
330
A
100
AcDbSymbolTableRecord
100
AcDbDimStyleTableRecord
2
Standard
70
0
40
1
41
2.5
42
0.625
43
0.38
44
1.25
45
0
46
0
47
0
48
0
140
2.5
141
0.09
142
0
143
25.4
144
1
145
0
146
1
147
0.625
148
0
71
0
72
0
73
0
74
1
75
0
76
0
77
0
78
0
79
0
170
0
171
2
172
0
173
0
174
0
175
0
176
0
177
0
178
0
179
0
271
4
272
4
273
2
274
2
275
0
276
0
277
2
278
46
279
0
280
0
281
0
282
0
283
1
284
0
285
0
286
0
288
0
289
3
340
Standard
341

371
-2
372
-2
0
ENDTAB
0
TABLE
2
BLOCK_RECORD
5
1
330
0
100
AcDbSymbolTable
70
2
0
BLOCK_RECORD
5
1F
330
1
100
AcDbSymbolTableRecord
100
AcDbBlockTableRecord
2
*Model_Space
70
0
280
1
281
0
0
BLOCK_RECORD
5
1E
330
1
100
AcDbSymbolTableRecord
100
AcDbBlockTableRecord
2
*Paper_Space
70
0
280
1
281
0
0
BLOCK_RECORD
5
4A
330
1
100
AcDbSymbolTableRecord
100
AcDbBlockTableRecord
2
*D5
70
0
280
1
281
0
0
BLOCK_RECORD
5
4D
330
1
100
AcDbSymbolTableRecord
100
AcDbBlockTableRecord
2
*D11
70
0
280
1
281
0
0
BLOCK_RECORD
5
50
330
1
100
AcDbSymbolTableRecord
100
AcDbBlockTableRecord
2
*D1
70
0
280
1
281
0
0
BLOCK_RECORD
5
53
330
1
100
AcDbSymbolTableRecord
100
AcDbBlockTableRecord
2
*D12
70
0
280
1
281
0
0
BLOCK_RECORD
5
56
330
1
100
AcDbSymbolTableRecord
100
AcDbBlockTableRecord
2
*D2
70
0
280
1
281
0
0
BLOCK_RECORD
5
59
330
1
100
AcDbSymbolTableRecord
100
AcDbBlockTableRecord
2
*D6
70
0
280
1
281
0
0
BLOCK_RECORD
5
5C
330
1
100
AcDbSymbolTableRecord
100
AcDbBlockTableRecord
2
*D3
70
0
280
1
281
0
0
BLOCK_RECORD
5
5F
330
1
100
AcDbSymbolTableRecord
100
AcDbBlockTableRecord
2
*D7
70
0
280
1
281
0
0
BLOCK_RECORD
5
62
330
1
100
AcDbSymbolTableRecord
100
AcDbBlockTableRecord
2
*D13
70
0
280
1
281
0
0
BLOCK_RECORD
5
65
330
1
100
AcDbSymbolTableRecord
100
AcDbBlockTableRecord
2
*D14
70
0
280
1
281
0
0
BLOCK_RECORD
5
68
330
1
100
AcDbSymbolTableRecord
100
AcDbBlockTableRecord
2
*D8
70
0
280
1
281
0
0
BLOCK_RECORD
5
6B
330
1
100
AcDbSymbolTableRecord
100
AcDbBlockTableRecord
2
*D9
70
0
280
1
281
0
0
BLOCK_RECORD
5
6E
330
1
100
AcDbSymbolTableRecord
100
AcDbBlockTableRecord
2
*D10
70
0
280
1
281
0
0
BLOCK_RECORD
5
71
330
1
100
AcDbSymbolTableRecord
100
AcDbBlockTableRecord
2
*D4
70
0
280
1
281
0
0
ENDTAB
0
ENDSEC
0
SECTION
2
BLOCKS
0
BLOCK
5
20
330
1F
100
AcDbEntity
8
0
100
AcDbBlockBegin
2
*Model_Space
70
0
10
0
20
0
30
0
3
*Model_Space
1

0
ENDBLK
5
21
330
1F
100
AcDbEntity
8
0
100
AcDbBlockEnd
0
BLOCK
5
1C
330
1B
100
AcDbEntity
8
0
100
AcDbBlockBegin
2
*Paper_Space
70
0
10
0
20
0
30
0
3
*Paper_Space
1

0
ENDBLK
5
1D
330
1F
100
AcDbEntity
8
0
100
AcDbBlockEnd
0
BLOCK
5
4B
330
4A
100
AcDbEntity
8
0
100
AcDbBlockBegin
2
*D5
70
1
10
0
20
0
3
*D5
1

0
LINE
5
74
100
AcDbEntity
8
GRAVIRANJE
6
CONTINUOUS
62
7
370
0
100
AcDbLine
10
-65
20
0.625
11
-65
21
1.25
0
LINE
5
75
100
AcDbEntity
8
GRAVIRANJE
6
CONTINUOUS
62
7
370
0
100
AcDbLine
10
-35
20
0.625
11
-35
21
1.25
0
LINE
5
76
100
AcDbEntity
8
GRAVIRANJE
6
CONTINUOUS
62
7
370
0
100
AcDbLine
10
-65
20
2.84217094304e-016
11
-35
21
2.84217094304e-016
0
SOLID
5
77
100
AcDbEntity
8
GRAVIRANJE
6
CONTINUOUS
62
7
370
0
100
AcDbTrace
10
-65
20
2.84217094304e-016
30
0
11
-62.5
21
0.416284657773
31
0
12
-62.5
22
-0.416284657773
32
0
13
-62.5
23
-0.416284657773
33
0
0
SOLID
5
78
100
AcDbEntity
8
GRAVIRANJE
6
CONTINUOUS
62
7
370
0
100
AcDbTrace
10
-35
20
2.84217094304e-016
30
0
11
-37.5
21
-0.416284657773
31
0
12
-37.5
22
0.416284657773
32
0
13
-37.5
23
0.416284657773
33
0
0
MTEXT
5
79
100
AcDbEntity
8
GRAVIRANJE
6
CONTINUOUS
62
7
370
0
100
AcDbMText
10
-50
20
1.875
30
0
40
2.5
41
11.6666666667
71
5
72
1
1
30.0000
7
standard
210
0
220
0
230
1
50
0
73
2
44
1
0
ENDBLK
5
4C
330
4A
100
AcDbEntity
8
0
100
AcDbBlockEnd
0
BLOCK
5
4E
330
4D
100
AcDbEntity
8
0
100
AcDbBlockBegin
2
*D11
70
1
10
0
20
0
3
*D11
1

0
LINE
5
7A
100
AcDbEntity
8
IZREZ
6
CONTINUOUS
62
7
370
0
100
AcDbLine
10
95.5
20
80
11
104.5
21
80
0
SOLID
5
7B
100
AcDbEntity
8
IZREZ
6
CONTINUOUS
62
7
370
0
100
AcDbTrace
10
95.5
20
80
30
0
11
98
21
80.4162846578
31
0
12
98
22
79.5837153422
32
0
13
98
23
79.5837153422
33
0
0
SOLID
5
7C
100
AcDbEntity
8
IZREZ
6
CONTINUOUS
62
7
370
0
100
AcDbTrace
10
104.5
20
80
30
0
11
102
21
79.5837153422
31
0
12
102
22
80.4162846578
32
0
13
102
23
80.4162846578
33
0
0
MTEXT
5
7D
100
AcDbEntity
8
IZREZ
6
CONTINUOUS
62
7
370
0
100
AcDbMText
10
109.986111111
20
81.875
30
0
40
2.5
41
9.72222222222
71
5
72
1
1
9.0000
7
standard
210
0
220
0
230
1
50
0
73
2
44
1
0
LINE
5
7E
100
AcDbEntity
8
IZREZ
6
CONTINUOUS
62
7
370
0
100
AcDbLine
10
95.5
20
93.375
11
95.5
21
78.75
0
LINE
5
7F
100
AcDbEntity
8
IZREZ
6
CONTINUOUS
62
7
370
0
100
AcDbLine
10
104.5
20
93.375
11
104.5
21
78.75
0
ENDBLK
5
4F
330
4D
100
AcDbEntity
8
0
100
AcDbBlockEnd
0
BLOCK
5
51
330
50
100
AcDbEntity
8
0
100
AcDbBlockBegin
2
*D1
70
1
10
0
20
0
3
*D1
1

0
LINE
5
80
100
AcDbEntity
8
0
6
CONTINUOUS
62
7
370
0
100
AcDbLine
10
-71
20
30
11
-29
21
30
0
SOLID
5
81
100
AcDbEntity
8
0
6
CONTINUOUS
62
7
370
0
100
AcDbTrace
10
-71
20
30
30
0
11
-68.5
21
30.4162846578
31
0
12
-68.5
22
29.5837153422
32
0
13
-68.5
23
29.5837153422
33
0
0
SOLID
5
82
100
AcDbEntity
8
0
6
CONTINUOUS
62
7
370
0
100
AcDbTrace
10
-29
20
30
30
0
11
-31.5
21
29.5837153422
31
0
12
-31.5
22
30.4162846578
32
0
13
-31.5
23
30.4162846578
33
0
0
MTEXT
5
83
100
AcDbEntity
8
0
6
CONTINUOUS
62
7
370
0
100
AcDbMText
10
-50
20
31.875
30
0
40
2.5
41
11.9444444444
71
5
72
1
1
42.0000
7
standard
210
0
220
0
230
1
50
0
73
2
44
1
0
LINE
5
84
100
AcDbEntity
8
0
6
CONTINUOUS
62
7
370
0
100
AcDbLine
10
-71
20
19.625
11
-71
21
31.25
0
LINE
5
85
100
AcDbEntity
8
0
6
CONTINUOUS
62
7
370
0
100
AcDbLine
10
-29
20
19.625
11
-29
21
31.25
0
ENDBLK
5
52
330
50
100
AcDbEntity
8
0
100
AcDbBlockEnd
0
BLOCK
5
54
330
53
100
AcDbEntity
8
0
100
AcDbBlockBegin
2
*D12
70
1
10
0
20
0
3
*D12
1

0
LINE
5
86
100
AcDbEntity
8
IZREZ
6
CONTINUOUS
62
7
370
0
100
AcDbLine
10
120
20
106.873863542
11
120
21
93.1261364576
0
SOLID
5
87
100
AcDbEntity
8
IZREZ
6
CONTINUOUS
62
7
370
0
100
AcDbTrace
10
120
20
106.873863542
30
0
11
120.416284658
21
104.373863542
31
0
12
119.583715342
22
104.373863542
32
0
13
119.583715342
23
104.373863542
33
0
0
SOLID
5
88
100
AcDbEntity
8
IZREZ
6
CONTINUOUS
62
7
370
0
100
AcDbTrace
10
120
20
93.1261364576
30
0
11
119.583715342
21
95.6261364576
31
0
12
120.416284658
22
95.6261364576
32
0
13
120.416284658
23
95.6261364576
33
0
0
MTEXT
5
89
100
AcDbEntity
8
IZREZ
6
CONTINUOUS
62
7
370
0
100
AcDbMText
10
118.125
20
100
30
0
40
2.5
41
11.3888888889
71
5
72
1
1
13.7477
7
standard
210
0
220
0
230
1
50
90
73
2
44
1
0
LINE
5
8A
100
AcDbEntity
8
IZREZ
6
CONTINUOUS
62
7
370
0
100
AcDbLine
10
103.625
20
106.873863542
11
121.25
21
106.873863542
0
LINE
5
8B
100
AcDbEntity
8
IZREZ
6
CONTINUOUS
62
7
370
0
100
AcDbLine
10
103.625
20
93.1261364576
11
121.25
21
93.1261364576
0
ENDBLK
5
55
330
53
100
AcDbEntity
8
0
100
AcDbBlockEnd
0
BLOCK
5
57
330
56
100
AcDbEntity
8
0
100
AcDbBlockBegin
2
*D2
70
1
10
0
20
0
3
*D2
1

0
LINE
5
8C
100
AcDbEntity
8
GRAVIRANJE
6
CONTINUOUS
62
7
370
0
100
AcDbLine
10
41.85
20
11
11
58.1499999998
21
11
0
SOLID
5
8D
100
AcDbEntity
8
GRAVIRANJE
6
CONTINUOUS
62
7
370
0
100
AcDbTrace
10
41.85
20
11
30
0
11
44.35
21
11.4162846578
31
0
12
44.35
22
10.5837153422
32
0
13
44.35
23
10.5837153422
33
0
0
SOLID
5
8E
100
AcDbEntity
8
GRAVIRANJE
6
CONTINUOUS
62
7
370
0
100
AcDbTrace
10
58.1499999998
20
11
30
0
11
55.6499999998
21
10.5837153422
31
0
12
55.6499999998
22
11.4162846578
32
0
13
55.6499999998
23
11.4162846578
33
0
0
MTEXT
5
8F
100
AcDbEntity
8
GRAVIRANJE
6
CONTINUOUS
62
7
370
0
100
AcDbMText
10
49.9999999999
20
12.875
30
0
40
2.5
41
11.1111111111
71
5
72
1
1
16.3000
7
standard
210
0
220
0
230
1
50
0
73
2
44
1
0
LINE
5
90
100
AcDbEntity
8
GRAVIRANJE
6
CONTINUOUS
62
7
370
0
100
AcDbLine
10
41.85
20
24.3749966654
11
41.85
21
9.75
0
LINE
5
91
100
AcDbEntity
8
GRAVIRANJE
6
CONTINUOUS
62
7
370
0
100
AcDbLine
10
58.1499999998
20
24.3749499549
11
58.1499999998
21
9.75
0
ENDBLK
5
58
330
56
100
AcDbEntity
8
0
100
AcDbBlockEnd
0
BLOCK
5
5A
330
59
100
AcDbEntity
8
0
100
AcDbBlockBegin
2
*D6
70
1
10
0
20
0
3
*D6
1

0
LINE
5
92
100
AcDbEntity
8
GRAVIRANJE
6
CONTINUOUS
62
7
370
0
100
AcDbLine
10
-56.6
20
66
11
-43.4
21
66
0
SOLID
5
93
100
AcDbEntity
8
GRAVIRANJE
6
CONTINUOUS
62
7
370
0
100
AcDbTrace
10
-51.6
20
66
30
0
11
-54.1
21
65.5837153422
31
0
12
-54.1
22
66.4162846578
32
0
13
-54.1
23
66.4162846578
33
0
0
SOLID
5
94
100
AcDbEntity
8
GRAVIRANJE
6
CONTINUOUS
62
7
370
0
100
AcDbTrace
10
-48.4
20
66
30
0
11
-45.9
21
66.4162846578
31
0
12
-45.9
22
65.5837153422
32
0
13
-45.9
23
65.5837153422
33
0
0
MTEXT
5
95
100
AcDbEntity
8
GRAVIRANJE
6
CONTINUOUS
62
7
370
0
100
AcDbMText
10
-42.9138888889
20
67.875
30
0
40
2.5
41
9.72222222222
71
5
72
1
1
3.2000
7
standard
210
0
220
0
230
1
50
0
73
2
44
1
0
LINE
5
96
100
AcDbEntity
8
GRAVIRANJE
6
CONTINUOUS
62
7
370
0
100
AcDbLine
10
-51.6
20
69.375
11
-51.6
21
64.75
0
LINE
5
97
100
AcDbEntity
8
GRAVIRANJE
6
CONTINUOUS
62
7
370
0
100
AcDbLine
10
-48.4
20
69.375
11
-48.4
21
64.75
0
ENDBLK
5
5B
330
59
100
AcDbEntity
8
0
100
AcDbBlockEnd
0
BLOCK
5
5D
330
5C
100
AcDbEntity
8
0
100
AcDbBlockBegin
2
*D3
70
1
10
0
20
0
3
*D3
1

0
LINE
5
98
100
AcDbEntity
8
GRAVIRANJE
6
CONTINUOUS
62
7
370
0
100
AcDbLine
10
16.9000032805
20
11
11
33.0999999472
21
11
0
SOLID
5
99
100
AcDbEntity
8
GRAVIRANJE
6
CONTINUOUS
62
7
370
0
100
AcDbTrace
10
16.9000032805
20
11
30
0
11
19.4000032805
21
11.4162846578
31
0
12
19.4000032805
22
10.5837153422
32
0
13
19.4000032805
23
10.5837153422
33
0
0
SOLID
5
9A
100
AcDbEntity
8
GRAVIRANJE
6
CONTINUOUS
62
7
370
0
100
AcDbTrace
10
33.0999999472
20
11
30
0
11
30.5999999472
21
10.5837153422
31
0
12
30.5999999472
22
11.4162846578
32
0
13
30.5999999472
23
11.4162846578
33
0
0
MTEXT
5
9B
100
AcDbEntity
8
GRAVIRANJE
6
CONTINUOUS
62
7
370
0
100
AcDbMText
10
25.0000016139
20
12.875
30
0
40
2.5
41
11.1111111111
71
5
72
1
1
16.2000
7
standard
210
0
220
0
230
1
50
0
73
2
44
1
0
LINE
5
9C
100
AcDbEntity
8
GRAVIRANJE
6
CONTINUOUS
62
7
370
0
100
AcDbLine
10
16.9000032805
20
24.3822900244
11
16.9000032805
21
9.75
0
LINE
5
9D
100
AcDbEntity
8
GRAVIRANJE
6
CONTINUOUS
62
7
370
0
100
AcDbLine
10
33.0999999472
20
24.3740750093
11
33.0999999472
21
9.75
0
ENDBLK
5
5E
330
5C
100
AcDbEntity
8
0
100
AcDbBlockEnd
0
BLOCK
5
60
330
5F
100
AcDbEntity
8
0
100
AcDbBlockBegin
2
*D7
70
1
10
0
20
0
3
*D7
1

0
LINE
5
9E
100
AcDbEntity
8
GRAVIRANJE
6
CONTINUOUS
62
7
370
0
100
AcDbLine
10
-80.1
20
76
11
-69.9
21
76
0
SOLID
5
9F
100
AcDbEntity
8
GRAVIRANJE
6
CONTINUOUS
62
7
370
0
100
AcDbTrace
10
-80.1
20
76
30
0
11
-77.6
21
76.4162846578
31
0
12
-77.6
22
75.5837153422
32
0
13
-77.6
23
75.5837153422
33
0
0
SOLID
5
A0
100
AcDbEntity
8
GRAVIRANJE
6
CONTINUOUS
62
7
370
0
100
AcDbTrace
10
-69.9
20
76
30
0
11
-72.4
21
75.5837153422
31
0
12
-72.4
22
76.4162846578
32
0
13
-72.4
23
76.4162846578
33
0
0
MTEXT
5
A1
100
AcDbEntity
8
GRAVIRANJE
6
CONTINUOUS
62
7
370
0
100
AcDbMText
10
-63.7194444444
20
77.875
30
0
40
2.5
41
11.1111111111
71
5
72
1
1
10.2000
7
standard
210
0
220
0
230
1
50
0
73
2
44
1
0
LINE
5
A2
100
AcDbEntity
8
GRAVIRANJE
6
CONTINUOUS
62
7
370
0
100
AcDbLine
10
-80.1
20
73.725
11
-80.1
21
77.25
0
LINE
5
A3
100
AcDbEntity
8
GRAVIRANJE
6
CONTINUOUS
62
7
370
0
100
AcDbLine
10
-69.9
20
73.725
11
-69.9
21
77.25
0
ENDBLK
5
61
330
5F
100
AcDbEntity
8
0
100
AcDbBlockEnd
0
BLOCK
5
63
330
62
100
AcDbEntity
8
0
100
AcDbBlockBegin
2
*D13
70
1
10
0
20
0
3
*D13
1

0
LINE
5
A4
100
AcDbEntity
8
IZREZ
6
CONTINUOUS
62
7
370
0
100
AcDbLine
10
85
20
92.3074175964
11
85
21
107.692582404
0
SOLID
5
A5
100
AcDbEntity
8
IZREZ
6
CONTINUOUS
62
7
370
0
100
AcDbTrace
10
85
20
97.3074175964
30
0
11
85.4162846578
21
94.8074175964
31
0
12
84.5837153422
22
94.8074175964
32
0
13
84.5837153422
23
94.8074175964
33
0
0
SOLID
5
A6
100
AcDbEntity
8
IZREZ
6
CONTINUOUS
62
7
370
0
100
AcDbTrace
10
85
20
102.692582404
30
0
11
84.5837153422
21
105.192582404
31
0
12
85.4162846578
22
105.192582404
32
0
13
85.4162846578
23
105.192582404
33
0
0
MTEXT
5
A7
100
AcDbEntity
8
IZREZ
6
CONTINUOUS
62
7
370
0
100
AcDbMText
10
83.125
20
108.178693515
30
0
40
2.5
41
9.72222222222
71
5
72
1
1
5.3852
7
standard
210
0
220
0
230
1
50
90
73
2
44
1
0
LINE
5
A8
100
AcDbEntity
8
IZREZ
6
CONTINUOUS
62
7
370
0
100
AcDbLine
10
92.375
20
97.3074175964
11
83.75
21
97.3074175964
0
LINE
5
A9
100
AcDbEntity
8
IZREZ
6
CONTINUOUS
62
7
370
0
100
AcDbLine
10
92.375
20
102.692582404
11
83.75
21
102.692582404
0
ENDBLK
5
64
330
62
100
AcDbEntity
8
0
100
AcDbBlockEnd
0
BLOCK
5
66
330
65
100
AcDbEntity
8
0
100
AcDbBlockBegin
2
*D14
70
1
10
0
20
0
3
*D14
1

0
LINE
5
AA
100
AcDbEntity
8
IZREZ
6
CONTINUOUS
62
7
370
0
100
AcDbLine
10
25
20
92.1
11
25
21
107.9
0
SOLID
5
AB
100
AcDbEntity
8
IZREZ
6
CONTINUOUS
62
7
370
0
100
AcDbTrace
10
25
20
97.1
30
0
11
25.4162846578
21
94.6
31
0
12
24.5837153422
22
94.6
32
0
13
24.5837153422
23
94.6
33
0
0
SOLID
5
AC
100
AcDbEntity
8
IZREZ
6
CONTINUOUS
62
7
370
0
100
AcDbTrace
10
25
20
102.9
30
0
11
24.5837153422
21
105.4
31
0
12
25.4162846578
22
105.4
32
0
13
25.4162846578
23
105.4
33
0
0
MTEXT
5
AD
100
AcDbEntity
8
IZREZ
6
CONTINUOUS
62
7
370
0
100
AcDbMText
10
23.125
20
108.386111111
30
0
40
2.5
41
9.72222222222
71
5
72
1
1
5.8000
7
standard
210
0
220
0
230
1
50
90
73
2
44
1
0
LINE
5
AE
100
AcDbEntity
8
IZREZ
6
CONTINUOUS
62
7
370
0
100
AcDbLine
10
13.625
20
97.1
11
26.25
21
97.1
0
LINE
5
AF
100
AcDbEntity
8
IZREZ
6
CONTINUOUS
62
7
370
0
100
AcDbLine
10
13.625
20
102.9
11
26.25
21
102.9
0
ENDBLK
5
67
330
65
100
AcDbEntity
8
0
100
AcDbBlockEnd
0
BLOCK
5
69
330
68
100
AcDbEntity
8
0
100
AcDbBlockBegin
2
*D8
70
1
10
0
20
0
3
*D8
1

0
LINE
5
B0
100
AcDbEntity
8
GRAVIRANJE
6
CONTINUOUS
62
7
370
0
100
AcDbLine
10
-58.1
20
85
11
-41.9
21
85
0
SOLID
5
B1
100
AcDbEntity
8
GRAVIRANJE
6
CONTINUOUS
62
7
370
0
100
AcDbTrace
10
-53.1
20
85
30
0
11
-55.6
21
84.5837153422
31
0
12
-55.6
22
85.4162846578
32
0
13
-55.6
23
85.4162846578
33
0
0
SOLID
5
B2
100
AcDbEntity
8
GRAVIRANJE
6
CONTINUOUS
62
7
370
0
100
AcDbTrace
10
-46.9
20
85
30
0
11
-44.4
21
85.4162846578
31
0
12
-44.4
22
84.5837153422
32
0
13
-44.4
23
84.5837153422
33
0
0
MTEXT
5
B3
100
AcDbEntity
8
GRAVIRANJE
6
CONTINUOUS
62
7
370
0
100
AcDbMText
10
-41.4138888889
20
86.875
30
0
40
2.5
41
9.72222222222
71
5
72
1
1
6.2000
7
standard
210
0
220
0
230
1
50
0
73
2
44
1
0
LINE
5
B4
100
AcDbEntity
8
GRAVIRANJE
6
CONTINUOUS
62
7
370
0
100
AcDbLine
10
-53.1
20
89.275
11
-53.1
21
83.75
0
LINE
5
B5
100
AcDbEntity
8
GRAVIRANJE
6
CONTINUOUS
62
7
370
0
100
AcDbLine
10
-46.9
20
89.275
11
-46.9
21
83.75
0
ENDBLK
5
6A
330
68
100
AcDbEntity
8
0
100
AcDbBlockEnd
0
BLOCK
5
6C
330
6B
100
AcDbEntity
8
0
100
AcDbBlockBegin
2
*D9
70
1
10
0
20
0
3
*D9
1

0
LINE
5
B6
100
AcDbEntity
8
GRAVIRANJE
6
CONTINUOUS
62
7
370
0
100
AcDbLine
10
-80.1
20
54
11
-19.9
21
54
0
SOLID
5
B7
100
AcDbEntity
8
GRAVIRANJE
6
CONTINUOUS
62
7
370
0
100
AcDbTrace
10
-80.1
20
54
30
0
11
-77.6
21
54.4162846578
31
0
12
-77.6
22
53.5837153422
32
0
13
-77.6
23
53.5837153422
33
0
0
SOLID
5
B8
100
AcDbEntity
8
GRAVIRANJE
6
CONTINUOUS
62
7
370
0
100
AcDbTrace
10
-19.9
20
54
30
0
11
-22.4
21
53.5837153422
31
0
12
-22.4
22
54.4162846578
32
0
13
-22.4
23
54.4162846578
33
0
0
MTEXT
5
B9
100
AcDbEntity
8
GRAVIRANJE
6
CONTINUOUS
62
7
370
0
100
AcDbMText
10
-50
20
55.875
30
0
40
2.5
41
11.6666666667
71
5
72
1
1
60.2000
7
standard
210
0
220
0
230
1
50
0
73
2
44
1
0
LINE
5
BA
100
AcDbEntity
8
GRAVIRANJE
6
CONTINUOUS
62
7
370
0
100
AcDbLine
10
-80.1
20
66.275
11
-80.1
21
52.75
0
LINE
5
BB
100
AcDbEntity
8
GRAVIRANJE
6
CONTINUOUS
62
7
370
0
100
AcDbLine
10
-19.9
20
66.275
11
-19.9
21
52.75
0
ENDBLK
5
6D
330
6B
100
AcDbEntity
8
0
100
AcDbBlockEnd
0
BLOCK
5
6F
330
6E
100
AcDbEntity
8
0
100
AcDbBlockBegin
2
*D10
70
1
10
0
20
0
3
*D10
1

0
LINE
5
BC
100
AcDbEntity
8
GRAVIRANJE
6
CONTINUOUS
62
7
370
0
100
AcDbLine
10
-69.9
20
58
11
-30.1
21
58
0
SOLID
5
BD
100
AcDbEntity
8
GRAVIRANJE
6
CONTINUOUS
62
7
370
0
100
AcDbTrace
10
-69.9
20
58
30
0
11
-67.4
21
58.4162846578
31
0
12
-67.4
22
57.5837153422
32
0
13
-67.4
23
57.5837153422
33
0
0
SOLID
5
BE
100
AcDbEntity
8
GRAVIRANJE
6
CONTINUOUS
62
7
370
0
100
AcDbTrace
10
-30.1
20
58
30
0
11
-32.6
21
57.5837153422
31
0
12
-32.6
22
58.4162846578
32
0
13
-32.6
23
58.4162846578
33
0
0
MTEXT
5
BF
100
AcDbEntity
8
GRAVIRANJE
6
CONTINUOUS
62
7
370
0
100
AcDbMText
10
-50
20
59.875
30
0
40
2.5
41
11.6666666667
71
5
72
1
1
39.8000
7
standard
210
0
220
0
230
1
50
0
73
2
44
1
0
LINE
5
C0
100
AcDbEntity
8
GRAVIRANJE
6
CONTINUOUS
62
7
370
0
100
AcDbLine
10
-69.9
20
66.275
11
-69.9
21
56.75
0
LINE
5
C1
100
AcDbEntity
8
GRAVIRANJE
6
CONTINUOUS
62
7
370
0
100
AcDbLine
10
-30.1
20
66.275
11
-30.1
21
56.75
0
ENDBLK
5
70
330
6E
100
AcDbEntity
8
0
100
AcDbBlockEnd
0
BLOCK
5
72
330
71
100
AcDbEntity
8
0
100
AcDbBlockBegin
2
*D4
70
1
10
0
20
0
3
*D4
1

0
LINE
5
C2
100
AcDbEntity
8
GRAVIRANJE
6
CONTINUOUS
62
7
370
0
100
AcDbLine
10
-8.04999932591
20
11
11
8.04999933164
21
11
0
SOLID
5
C3
100
AcDbEntity
8
GRAVIRANJE
6
CONTINUOUS
62
7
370
0
100
AcDbTrace
10
-8.04999932591
20
11
30
0
11
-5.54999932591
21
11.4162846578
31
0
12
-5.54999932591
22
10.5837153422
32
0
13
-5.54999932591
23
10.5837153422
33
0
0
SOLID
5
C4
100
AcDbEntity
8
GRAVIRANJE
6
CONTINUOUS
62
7
370
0
100
AcDbTrace
10
8.04999933164
20
11
30
0
11
5.54999933164
21
10.5837153422
31
0
12
5.54999933164
22
11.4162846578
32
0
13
5.54999933164
23
11.4162846578
33
0
0
MTEXT
5
C5
100
AcDbEntity
8
GRAVIRANJE
6
CONTINUOUS
62
7
370
0
100
AcDbMText
10
2.86234691883e-009
20
12.875
30
0
40
2.5
41
10.5555555556
71
5
72
1
1
16.1000
7
standard
210
0
220
0
230
1
50
0
73
2
44
1
0
LINE
5
C6
100
AcDbEntity
8
GRAVIRANJE
6
CONTINUOUS
62
7
370
0
100
AcDbLine
10
-8.04999932591
20
24.3717056438
11
-8.04999932591
21
9.75
0
LINE
5
C7
100
AcDbEntity
8
GRAVIRANJE
6
CONTINUOUS
62
7
370
0
100
AcDbLine
10
8.04999933164
20
24.3717196623
11
8.04999933164
21
9.75
0
ENDBLK
5
73
330
71
100
AcDbEntity
8
0
100
AcDbBlockEnd
0
ENDSEC
0
SECTION
2
ENTITIES
0
POINT
5
C8
100
AcDbEntity
8
0
6
ByLayer
62
256
370
-1
100
AcDbPoint
10
50
20
50
0
POINT
5
C9
100
AcDbEntity
8
0
6
ByLayer
62
256
370
-1
100
AcDbPoint
10
0
20
50
0
POINT
5
CA
100
AcDbEntity
8
0
6
ByLayer
62
256
370
-1
100
AcDbPoint
10
50
20
0
0
POINT
5
CB
100
AcDbEntity
8
0
6
ByLayer
62
256
370
-1
100
AcDbPoint
10
25
20
25
0
POINT
5
CC
100
AcDbEntity
8
0
6
ByLayer
62
256
370
-1
100
AcDbPoint
10
25
20
0
0
POINT
5
CD
100
AcDbEntity
8
0
6
ByLayer
62
256
370
-1
100
AcDbPoint
10
0
20
25
0
POINT
5
CE
100
AcDbEntity
8
0
6
ByLayer
62
256
370
-1
100
AcDbPoint
10
50
20
25
0
POINT
5
CF
100
AcDbEntity
8
0
6
ByLayer
62
256
370
-1
100
AcDbPoint
10
25
20
50
0
CIRCLE
5
D0
100
AcDbEntity
8
HOLES
6
ByLayer
62
256
370
-1
100
AcDbCircle
10
37.3
20
0
40
1.6
0
CIRCLE
5
D1
100
AcDbEntity
8
HOLES
6
ByLayer
62
256
370
-1
100
AcDbCircle
10
62.7
20
0
40
1.6
0
POINT
5
D2
100
AcDbEntity
8
0
6
ByLayer
62
256
370
-1
100
AcDbPoint
10
-50
20
0
0
POINT
5
D3
100
AcDbEntity
8
0
6
ByLayer
62
256
370
-1
100
AcDbPoint
10
-29
20
21
0
POINT
5
D4
100
AcDbEntity
8
0
6
ByLayer
62
256
370
-1
100
AcDbPoint
10
-71
20
21
0
POINT
5
D5
100
AcDbEntity
8
0
6
ByLayer
62
256
370
-1
100
AcDbPoint
10
-29
20
-21
0
POINT
5
D6
100
AcDbEntity
8
0
6
ByLayer
62
256
370
-1
100
AcDbPoint
10
-71
20
-21
0
POINT
5
D7
100
AcDbEntity
8
0
6
ByLayer
62
256
370
-1
100
AcDbPoint
10
-34.5
20
15.5
0
POINT
5
D8
100
AcDbEntity
8
0
6
ByLayer
62
256
370
-1
100
AcDbPoint
10
-65.5
20
15.5
0
POINT
5
D9
100
AcDbEntity
8
0
6
ByLayer
62
256
370
-1
100
AcDbPoint
10
-34.5
20
-15.5
0
POINT
5
DA
100
AcDbEntity
8
0
6
ByLayer
62
256
370
-1
100
AcDbPoint
10
-65.5
20
-15.5
0
POINT
5
DB
100
AcDbEntity
8
0
6
ByLayer
62
256
370
-1
100
AcDbPoint
10
-31
20
19
0
POINT
5
DC
100
AcDbEntity
8
0
6
ByLayer
62
256
370
-1
100
AcDbPoint
10
-69
20
19
0
POINT
5
DD
100
AcDbEntity
8
0
6
ByLayer
62
256
370
-1
100
AcDbPoint
10
-69
20
-19
0
POINT
5
DE
100
AcDbEntity
8
0
6
ByLayer
62
256
370
-1
100
AcDbPoint
10
-31
20
-19
0
POINT
5
DF
100
AcDbEntity
8
0
6
ByLayer
62
256
370
-1
100
AcDbPoint
10
-31
20
19
0
POINT
5
E0
100
AcDbEntity
8
0
6
ByLayer
62
256
370
-1
100
AcDbPoint
10
-69
20
19
0
POINT
5
E1
100
AcDbEntity
8
0
6
ByLayer
62
256
370
-1
100
AcDbPoint
10
-69
20
-19
0
POINT
5
E2
100
AcDbEntity
8
0
6
ByLayer
62
256
370
-1
100
AcDbPoint
10
-31
20
-19
0
CIRCLE
5
E3
100
AcDbEntity
8
HOLES
6
ByLayer
62
256
370
-1
100
AcDbCircle
10
-34.5
20
15.5
40
1.6
0
CIRCLE
5
E4
100
AcDbEntity
8
HOLES
6
ByLayer
62
256
370
-1
100
AcDbCircle
10
-65.5
20
15.5
40
1.6
0
CIRCLE
5
E5
100
AcDbEntity
8
HOLES
6
ByLayer
62
256
370
-1
100
AcDbCircle
10
-65.5
20
-15.5
40
1.6
0
CIRCLE
5
E6
100
AcDbEntity
8
HOLES
6
ByLayer
62
256
370
-1
100
AcDbCircle
10
-34.5
20
-15.5
40
1.6
0
LWPOLYLINE
5
E7
100
AcDbEntity
8
IZREZ
6
ByLayer
62
256
370
-1
100
AcDbPolyline
90
43
70
1
43
0
10
-50
20
15
10
-46.1177143235
20
14.4888873943
10
-42.5
20
12.9903810568
10
-39.3933982822
20
10.6066017178
10
-37.0096189432
20
7.5
10
-35.5111126057
20
3.88228567654
10
-35
20
-1.69547535733e-015
10
-35.5111126057
20
-3.88228567654
10
-37.0096189432
20
-7.5
10
-38.75
20
-9.76810875159
10
-38.75
20
-19
10
-38.4820508076
20
-20
10
-37.75
20
-20.7320508076
10
-36.75
20
-21
10
-31
20
-21
10
-30
20
-20.7320508076
10
-29.2679491924
20
-20
10
-29
20
-19
10
-29
20
19
10
-29.2679491924
20
20
10
-30
20
20.7320508076
10
-31
20
21
10
-69
20
21
10
-70
20
20.7320508076
10
-70.7320508076
20
20
10
-71
20
19
10
-71
20
-19
10
-70.7320508076
20
-20
10
-70
20
-20.7320508076
10
-69
20
-21
10
-63.25
20
-21
10
-62.25
20
-20.7320508076
10
-61.5179491924
20
-20
10
-61.25
20
-19
10
-61.25
20
-9.76810875159
10
-62.9903810568
20
-7.5
10
-64.4888873943
20
-3.88228567654
10
-65
20
3.41111687507e-015
10
-64.4888873943
20
3.88228567654
10
-62.9903810568
20
7.5
10
-60.6066017178
20
10.6066017178
10
-57.5
20
12.9903810568
10
-53.8822856765
20
14.4888873943
0
POINT
5
E8
100
AcDbEntity
8
0
6
ByLayer
62
256
370
-1
100
AcDbPoint
10
0
20
100
0
POINT
5
E9
100
AcDbEntity
8
0
6
ByLayer
62
256
370
-1
100
AcDbPoint
10
100
20
0
0
POINT
5
EA
100
AcDbEntity
8
0
6
ByLayer
62
256
370
-1
100
AcDbPoint
10
0
20
-100
0
POINT
5
EB
100
AcDbEntity
8
0
6
ByLayer
62
256
370
-1
100
AcDbPoint
10
-100
20
0
0
CIRCLE
5
EC
100
AcDbEntity
8
HOLES
6
ByLayer
62
256
370
-1
100
AcDbCircle
10
0
20
25
40
8.05
0
CIRCLE
5
ED
100
AcDbEntity
8
HOLES
6
ByLayer
62
256
370
-1
100
AcDbCircle
10
25
20
0
40
1.6
0
CIRCLE
5
EE
100
AcDbEntity
8
HOLES
6
ByLayer
62
256
370
-1
100
AcDbCircle
10
25
20
25
40
8.1
0
CIRCLE
5
EF
100
AcDbEntity
8
HOLES
6
ByLayer
62
256
370
-1
100
AcDbCircle
10
50
20
25
40
8.15
0
POINT
5
F0
100
AcDbEntity
8
0
6
ByLayer
62
256
370
-1
100
AcDbPoint
10
-25
20
50
0
POINT
5
F1
100
AcDbEntity
8
0
6
ByLayer
62
256
370
-1
100
AcDbPoint
10
100
20
100
0
POINT
5
F2
100
AcDbEntity
8
0
6
ByLayer
62
256
370
-1
100
AcDbPoint
10
-100
20
100
0
POINT
5
F3
100
AcDbEntity
8
0
6
ByLayer
62
256
370
-1
100
AcDbPoint
10
-100
20
-100
0
POINT
5
F4
100
AcDbEntity
8
0
6
ByLayer
62
256
370
-1
100
AcDbPoint
10
100
20
-100
0
DIMENSION
5
F5
100
AcDbEntity
8
0
6
ByLayer
62
256
370
-1
100
AcDbDimension
2
*D1
10
-29
20
30
30
0
11
-50
21
31.875
31
0
70
32
71
5
3
Standard
53
0
210
0
220
0
230
1
100
AcDbAlignedDimension
13
-71
23
19
33
0
14
-29
24
19
34
0
100
AcDbRotatedDimension
0
DIMENSION
5
F6
100
AcDbEntity
8
GRAVIRANJE
6
ByLayer
62
256
370
-1
100
AcDbDimension
2
*D2
10
58.1499999998
20
11
30
0
11
49.9999999999
21
12.875
31
0
70
32
71
5
3
Standard
53
0
210
0
220
0
230
1
100
AcDbAlignedDimension
13
41.85
23
24.9999966654
33
0
14
58.1499999998
24
24.9999499549
34
0
100
AcDbRotatedDimension
0
DIMENSION
5
F7
100
AcDbEntity
8
GRAVIRANJE
6
ByLayer
62
256
370
-1
100
AcDbDimension
2
*D3
10
33
20
11
30
0
11
25.0000016139
21
12.875
31
0
70
32
71
5
3
Standard
53
0
210
0
220
0
230
1
100
AcDbAlignedDimension
13
16.9000032805
23
25.0072900244
33
0
14
33.0999999472
24
24.9990750093
34
0
100
AcDbRotatedDimension
0
DIMENSION
5
F8
100
AcDbEntity
8
GRAVIRANJE
6
ByLayer
62
256
370
-1
100
AcDbDimension
2
*D4
10
8
20
11
30
0
11
2.86234691883e-009
21
12.875
31
0
70
32
71
5
3
Standard
53
0
210
0
220
0
230
1
100
AcDbAlignedDimension
13
-8.04999932591
23
24.9967056438
33
0
14
8.04999933164
24
24.9967196623
34
0
100
AcDbRotatedDimension
0
DIMENSION
5
F9
100
AcDbEntity
8
GRAVIRANJE
6
ByLayer
62
256
370
-1
100
AcDbDimension
2
*D5
10
-35
20
2.84217094304e-016
30
0
11
-50
21
1.875
31
0
70
33
71
5
3
Standard
53
0
210
0
220
0
230
1
100
AcDbAlignedDimension
13
-65
23
0
33
0
14
-35
24
0
34
0
0
POINT
5
FA
100
AcDbEntity
8
0
6
ByLayer
62
256
370
-1
100
AcDbPoint
10
-20
20
100
0
POINT
5
FB
100
AcDbEntity
8
0
6
ByLayer
62
256
370
-1
100
AcDbPoint
10
20
20
100
0
POINT
5
FC
100
AcDbEntity
8
0
6
ByLayer
62
256
370
-1
100
AcDbPoint
10
0
20
120
0
POINT
5
FD
100
AcDbEntity
8
0
6
ByLayer
62
256
370
-1
100
AcDbPoint
10
0
20
80
0
POINT
5
FE
100
AcDbEntity
8
0
6
ByLayer
62
256
370
-1
100
AcDbPoint
10
20
20
80
0
POINT
5
FF
100
AcDbEntity
8
0
6
ByLayer
62
256
370
-1
100
AcDbPoint
10
-20
20
80
0
POINT
5
100
100
AcDbEntity
8
0
6
ByLayer
62
256
370
-1
100
AcDbPoint
10
-20
20
120
0
POINT
5
101
100
AcDbEntity
8
0
6
ByLayer
62
256
370
-1
100
AcDbPoint
10
20
20
120
0
LINE
5
102
100
AcDbEntity
8
0
6
ByLayer
62
256
370
-1
100
AcDbLine
10
-20
20
120
11
20
21
80
0
LINE
5
103
100
AcDbEntity
8
0
6
ByLayer
62
256
370
-1
100
AcDbLine
10
20
20
120
11
-20
21
80
0
LINE
5
104
100
AcDbEntity
8
0
6
ByLayer
62
256
370
-1
100
AcDbLine
10
20
20
110
11
10
21
120
0
LINE
5
105
100
AcDbEntity
8
0
6
ByLayer
62
256
370
-1
100
AcDbLine
10
-10
20
120
11
-20
21
110
0
LINE
5
106
100
AcDbEntity
8
0
6
ByLayer
62
256
370
-1
100
AcDbLine
10
-20
20
90
11
-10
21
80
0
LINE
5
107
100
AcDbEntity
8
0
6
ByLayer
62
256
370
-1
100
AcDbLine
10
10
20
80
11
20
21
90
0
POINT
5
108
100
AcDbEntity
8
0
6
ByLayer
62
256
370
-1
100
AcDbPoint
10
-50
20
70
0
LWPOLYLINE
5
109
100
AcDbEntity
8
HOLES
6
ByLayer
62
256
370
-1
100
AcDbPolyline
90
5
70
1
43
0
10
-19.9
20
73.1
10
-30.1
20
73.1
10
-30.1
20
66.9
10
-19.9
20
66.9
10
-19.9
20
66.9
0
CIRCLE
5
10A
100
AcDbEntity
8
HOLES
6
ByLayer
62
256
370
-1
100
AcDbCircle
10
-50
20
70
40
1.6
0
DIMENSION
5
10B
100
AcDbEntity
8
GRAVIRANJE
6
ByLayer
62
256
370
-1
100
AcDbDimension
2
*D6
10
-48.4
20
66
30
0
11
-50
21
67.875
31
0
70
32
71
5
3
Standard
53
0
210
0
220
0
230
1
100
AcDbAlignedDimension
13
-51.6
23
70
33
0
14
-48.4
24
70
34
0
100
AcDbRotatedDimension
0
LWPOLYLINE
5
10C
100
AcDbEntity
8
HOLES
6
ByLayer
62
256
370
-1
100
AcDbPolyline
90
5
70
1
43
0
10
-53.1
20
39.9
10
-53.1
20
50.1
10
-46.9
20
50.1
10
-46.9
20
39.9
10
-46.9
20
39.9
0
LWPOLYLINE
5
10D
100
AcDbEntity
8
HOLES
6
ByLayer
62
256
370
-1
100
AcDbPolyline
90
5
70
1
43
0
10
-80.1
20
73.1
10
-69.9
20
73.1
10
-69.9
20
66.9
10
-80.1
20
66.9
10
-80.1
20
66.9
0
LWPOLYLINE
5
10E
100
AcDbEntity
8
HOLES
6
ByLayer
62
256
370
-1
100
AcDbPolyline
90
5
70
1
43
0
10
-53.1
20
100.1
10
-53.1
20
89.9
10
-46.9
20
89.9
10
-46.9
20
100.1
10
-46.9
20
100.1
0
DIMENSION
5
10F
100
AcDbEntity
8
GRAVIRANJE
6
ByLayer
62
256
370
-1
100
AcDbDimension
2
*D7
10
-69.9
20
76
30
0
11
-75
21
77.875
31
0
70
32
71
5
3
Standard
53
0
210
0
220
0
230
1
100
AcDbAlignedDimension
13
-80.1
23
73.1
33
0
14
-69.9
24
73.1
34
0
100
AcDbRotatedDimension
0
DIMENSION
5
110
100
AcDbEntity
8
GRAVIRANJE
6
ByLayer
62
256
370
-1
100
AcDbDimension
2
*D8
10
-46.9
20
85
30
0
11
-50
21
86.875
31
0
70
32
71
5
3
Standard
53
0
210
0
220
0
230
1
100
AcDbAlignedDimension
13
-53.1
23
89.9
33
0
14
-46.9
24
89.9
34
0
100
AcDbRotatedDimension
0
DIMENSION
5
111
100
AcDbEntity
8
GRAVIRANJE
6
ByLayer
62
256
370
-1
100
AcDbDimension
2
*D9
10
-19.9
20
54
30
0
11
-50
21
55.875
31
0
70
32
71
5
3
Standard
53
0
210
0
220
0
230
1
100
AcDbAlignedDimension
13
-80.1
23
66.9
33
0
14
-19.9
24
66.9
34
0
100
AcDbRotatedDimension
0
DIMENSION
5
112
100
AcDbEntity
8
GRAVIRANJE
6
ByLayer
62
256
370
-1
100
AcDbDimension
2
*D10
10
-30.1
20
58
30
0
11
-50
21
59.875
31
0
70
32
71
5
3
Standard
53
0
210
0
220
0
230
1
100
AcDbAlignedDimension
13
-69.9
23
66.9
33
0
14
-30.1
24
66.9
34
0
100
AcDbRotatedDimension
0
POINT
5
113
100
AcDbEntity
8
0
6
ByLayer
62
256
370
-1
100
AcDbPoint
10
-25
20
70
0
POINT
5
114
100
AcDbEntity
8
0
6
ByLayer
62
256
370
-1
100
AcDbPoint
10
-75
20
70
0
POINT
5
115
100
AcDbEntity
8
0
6
ByLayer
62
256
370
-1
100
AcDbPoint
10
-50
20
95
0
POINT
5
116
100
AcDbEntity
8
0
6
ByLayer
62
256
370
-1
100
AcDbPoint
10
-50
20
45
0
LWPOLYLINE
5
117
100
AcDbEntity
8
IZREZ
6
ByLayer
62
256
370
-1
100
AcDbPolyline
90
4
70
0
43
0
10
-30
20
70
10
-30
20
76
10
-20
20
76
10
-20
20
70
0
LWPOLYLINE
5
118
100
AcDbEntity
8
IZREZ
6
ByLayer
62
256
370
-1
100
AcDbPolyline
90
4
70
0
43
0
10
-50
20
50
10
-44
20
50
10
-44
20
40
10
-50
20
40
0
CIRCLE
5
119
100
AcDbEntity
8
HOLES
6
ByLayer
62
256
370
-1
100
AcDbCircle
10
-84.5
20
15.5
40
1.6
0
CIRCLE
5
11A
100
AcDbEntity
8
HOLES
6
ByLayer
62
256
370
-1
100
AcDbCircle
10
-115.5
20
15.5
40
1.6
0
CIRCLE
5
11B
100
AcDbEntity
8
HOLES
6
ByLayer
62
256
370
-1
100
AcDbCircle
10
-115.5
20
-15.5
40
1.6
0
CIRCLE
5
11C
100
AcDbEntity
8
HOLES
6
ByLayer
62
256
370
-1
100
AcDbCircle
10
-84.5
20
-15.5
40
1.6
0
LWPOLYLINE
5
11D
100
AcDbEntity
8
IZREZ
6
ByLayer
62
256
370
-1
100
AcDbPolyline
90
17
70
1
43
0
10
-120.732050808
20
-20
10
-120
20
-20.7320508076
10
-119
20
-21
10
-113.25
20
-21
10
-81
20
-21
10
-80
20
-20.7320508076
10
-79.2679491924
20
-20
10
-79
20
-19
10
-79
20
19
10
-79.2679491924
20
20
10
-80
20
20.7320508076
10
-81
20
21
10
-119
20
21
10
-120
20
20.7320508076
10
-120.732050808
20
20
10
-121
20
19
10
-121
20
-19
0
TEXT
5
11E
100
AcDbEntity
8
GRAVIRANJE
6
ByLayer
62
256
370
-1
100
AcDbText
10
-110
20
18
30
0
40
2
1
2x
50
0
41
1
51
0
7
STANDARD
71
0
210
0
220
0
230
1
100
AcDbText
0
TEXT
5
11F
100
AcDbEntity
8
GRAVIRANJE
6
ByLayer
62
256
370
-1
100
AcDbText
10
-60
20
18
30
0
40
2
1
14x
50
0
41
1
51
0
7
STANDARD
71
0
210
0
220
0
230
1
100
AcDbText
0
LWPOLYLINE
5
120
100
AcDbEntity
8
IZREZ
6
ByLayer
62
256
370
-1
100
AcDbPolyline
90
4
70
0
43
0
10
-80
20
70
10
-80
20
76
10
-70
20
76
10
-70
20
70
0
LWPOLYLINE
5
121
100
AcDbEntity
8
IZREZ
6
ByLayer
62
256
370
-1
100
AcDbPolyline
90
4
70
0
43
0
10
-50
20
100
10
-44
20
100
10
-44
20
90
10
-50
20
90
0
LWPOLYLINE
5
122
100
AcDbEntity
8
IZREZ
6
ByLayer
62
256
370
-1
100
AcDbPolyline
90
4
70
0
43
0
10
-30
20
70
10
-30
20
64
10
-20
20
64
10
-20
20
70
0
LWPOLYLINE
5
123
100
AcDbEntity
8
IZREZ
6
ByLayer
62
256
370
-1
100
AcDbPolyline
90
4
70
0
43
0
10
-80
20
70
10
-80
20
64
10
-70
20
64
10
-70
20
70
0
LWPOLYLINE
5
124
100
AcDbEntity
8
IZREZ
6
ByLayer
62
256
370
-1
100
AcDbPolyline
90
4
70
0
43
0
10
-50
20
50
10
-56
20
50
10
-56
20
40
10
-50
20
40
0
LWPOLYLINE
5
125
100
AcDbEntity
8
IZREZ
6
ByLayer
62
256
370
-1
100
AcDbPolyline
90
4
70
0
43
0
10
-50
20
100
10
-56
20
100
10
-56
20
90
10
-50
20
90
0
LINE
5
126
100
AcDbEntity
8
IZREZ
6
ByLayer
62
256
370
-1
100
AcDbLine
10
-70
20
70
11
-51.6
21
70
0
LINE
5
127
100
AcDbEntity
8
IZREZ
6
ByLayer
62
256
370
-1
100
AcDbLine
10
-50
20
71.6
11
-50
21
90
0
LINE
5
128
100
AcDbEntity
8
IZREZ
6
ByLayer
62
256
370
-1
100
AcDbLine
10
-50
20
50
11
-50
21
68.4
0
LINE
5
129
100
AcDbEntity
8
IZREZ
6
ByLayer
62
256
370
-1
100
AcDbLine
10
-48.4
20
70
11
-30
21
70
0
CIRCLE
5
12A
100
AcDbEntity
8
IZREZ
6
ByLayer
62
256
370
-1
100
AcDbCircle
10
100
20
100
40
7.5
0
LINE
5
12B
100
AcDbEntity
8
IZREZ
6
ByLayer
62
256
370
-1
100
AcDbLine
10
90
20
100
11
110
21
100
0
LINE
5
12C
100
AcDbEntity
8
IZREZ
6
ByLayer
62
256
370
-1
100
AcDbLine
10
110
20
106
11
90
21
106
0
LINE
5
12D
100
AcDbEntity
8
IZREZ
6
ByLayer
62
256
370
-1
100
AcDbLine
10
110
20
94
11
90
21
94
0
DIMENSION
5
12E
100
AcDbEntity
8
IZREZ
6
ByLayer
62
256
370
-1
100
AcDbDimension
2
*D11
10
105
20
80
30
0
11
100
21
81.875
31
0
70
32
71
5
72
0
3
Standard
53
0
210
0
220
0
230
1
100
AcDbAlignedDimension
13
95.5
23
94
33
0
14
104.5
24
94
34
0
100
AcDbRotatedDimension
0
LINE
5
12F
100
AcDbEntity
8
IZREZ
6
ByLayer
62
256
370
-1
100
AcDbLine
10
110
20
88
11
90
21
88
0
LINE
5
130
100
AcDbEntity
8
IZREZ
6
ByLayer
62
256
370
-1
100
AcDbLine
10
110
20
112
11
90
21
112
0
LINE
5
131
100
AcDbEntity
8
IZREZ
6
ByLayer
62
256
370
-1
100
AcDbLine
10
103
20
110
11
103
21
90
0
LINE
5
132
100
AcDbEntity
8
IZREZ
6
ByLayer
62
256
370
-1
100
AcDbLine
10
97
20
110
11
97
21
90
0
LINE
5
133
100
AcDbEntity
8
IZREZ
6
ByLayer
62
256
370
-1
100
AcDbLine
10
109
20
110
11
109
21
90
0
DIMENSION
5
134
100
AcDbEntity
8
IZREZ
6
ByLayer
62
256
370
-1
100
AcDbDimension
2
*D12
10
120
20
93.1261364576
30
0
11
118.125
21
100
31
0
70
32
71
5
72
0
3
Standard
53
0
210
0
220
0
230
1
100
AcDbAlignedDimension
13
103
23
106.873863542
33
0
14
103
24
93.1261364576
34
0
50
90
100
AcDbRotatedDimension
0
LINE
5
135
100
AcDbEntity
8
IZREZ
6
ByLayer
62
256
370
-1
100
AcDbLine
10
93
20
110
11
93
21
90
0
DIMENSION
5
136
100
AcDbEntity
8
IZREZ
6
ByLayer
62
256
370
-1
100
AcDbDimension
2
*D13
10
85
20
102.692582404
30
0
11
83.125
21
100
31
0
70
32
71
5
72
0
3
Standard
53
0
210
0
220
0
230
1
100
AcDbAlignedDimension
13
93
23
97.3074175964
33
0
14
93
24
102.692582404
34
0
50
90
100
AcDbRotatedDimension
0
DIMENSION
5
137
100
AcDbEntity
8
IZREZ
6
ByLayer
62
256
370
-1
100
AcDbDimension
2
*D14
10
25
20
102.5
30
0
11
23.125
21
100
31
0
70
32
71
5
72
0
3
Standard
53
0
210
0
220
0
230
1
100
AcDbAlignedDimension
13
13
23
97.1
33
0
14
13
24
102.9
34
0
50
90
100
AcDbRotatedDimension
0
LWPOLYLINE
5
138
100
AcDbEntity
8
IZREZ
6
ByLayer
62
256
370
-1
100
AcDbPolyline
90
13
70
0
43
0
10
20
20
101.6
10
13
20
101.6
10
13
20
102.9
10
11
20
102.9
10
11
20
101.6
10
5
20
101.6
10
5
20
100
10
5
20
98.4
10
11
20
98.4
10
11
20
97.1
10
13
20
97.1
10
13
20
98.4
10
20
20
98.4
0
LWPOLYLINE
5
139
100
AcDbEntity
8
IZREZ
6
ByLayer
62
256
370
-1
100
AcDbPolyline
90
13
70
0
43
0
10
1.6
20
80
10
1.6
20
87
10
2.9
20
87
10
2.9
20
89
10
1.6
20
89
10
1.6
20
95
10
-9.18454765367e-016
20
95
10
-1.6
20
95
10
-1.6
20
89
10
-2.9
20
89
10
-2.9
20
87
10
-1.6
20
87
10
-1.6
20
80
0
LWPOLYLINE
5
13A
100
AcDbEntity
8
IZREZ
6
ByLayer
62
256
370
-1
100
AcDbPolyline
90
13
70
0
43
0
10
-20
20
98.4
10
-13
20
98.4
10
-13
20
97.1
10
-11
20
97.1
10
-11
20
98.4
10
-5
20
98.4
10
-5
20
100
10
-5
20
101.6
10
-11
20
101.6
10
-11
20
102.9
10
-13
20
102.9
10
-13
20
101.6
10
-20
20
101.6
0
LWPOLYLINE
5
13B
100
AcDbEntity
8
IZREZ
6
ByLayer
62
256
370
-1
100
AcDbPolyline
90
13
70
0
43
0
10
-1.6
20
120
10
-1.6
20
113
10
-2.9
20
113
10
-2.9
20
111
10
-1.6
20
111
10
-1.6
20
105
10
-9.18454765367e-016
20
105
10
1.6
20
105
10
1.6
20
111
10
2.9
20
111
10
2.9
20
113
10
1.6
20
113
10
1.6
20
120
0
CIRCLE
5
13C
100
AcDbEntity
8
HOLES
6
ByLayer
62
256
370
-1
100
AcDbCircle
10
-112.7
20
0
40
1.6
0
CIRCLE
5
13D
100
AcDbEntity
8
HOLES
6
ByLayer
62
256
370
-1
100
AcDbCircle
10
-87.3
20
0
40
1.6
0
CIRCLE
5
13E
100
AcDbEntity
8
HOLES
6
ByLayer
62
256
370
-1
100
AcDbCircle
10
50
20
0
40
5
0
CIRCLE
5
13F
100
AcDbEntity
8
HOLES
6
ByLayer
62
256
370
-1
100
AcDbCircle
10
-100
20
0
40
6
0
LINE
5
140
100
AcDbEntity
8
IZREZ
6
ByLayer
62
256
370
-1
100
AcDbLine
10
47.411809549
20
-9.65925826289
11
47.411809549
21
-9.65925826289
0
LWPOLYLINE
5
141
100
AcDbEntity
8
IZREZ
6
ByLayer
62
256
370
-1
100
AcDbPolyline
90
20
70
1
43
0
10
55
20
-8.66025403784
10
64.85
20
-3.72390923627
10
66.4239092363
20
-2.15
10
67
20
7.13437555561e-015
10
66.4239092363
20
2.15
10
64.85
20
3.72390923627
10
55
20
8.66025403784
10
52.588190451
20
9.65925826289
10
50
20
10
10
47.411809549
20
9.65925826289
10
45
20
8.66025403784
10
35.15
20
3.72390923627
10
33.5760907637
20
2.15
10
33
20
0
10
33.5760907637
20
-2.15
10
35.15
20
-3.72390923627
10
45
20
-8.66025403784
10
47.411809549
20
-9.65925826289
10
50
20
-10
10
52.588190451
20
-9.65925826289
0
ENDSEC
0
SECTION
2
OBJECTS
0
DICTIONARY
5
C
330
0
100
AcDbDictionary
281
1
3
ACAD_GROUP
350
D
0
DICTIONARY
5
D
330
C
100
AcDbDictionary
281
1
0
ENDSEC
0
EOF
