  0
SECTION
  2
HEADER
  9
$ACADVER
  1
AC1014
  9
$ACADMAINTVER
 70
     9
  9
$DWGCODEPAGE
  3
ANSI_1250
  9
$INSBASE
 10
0.0
 20
0.0
 30
0.0
  9
$EXTMIN
 10
389.847601
 20
289.149147
 30
0.0
  9
$EXTMAX
 10
665.86087
 20
535.124387
 30
0.0
  9
$LIMMIN
 10
0.0
 20
0.0
  9
$LIMMAX
 10
420.0
 20
297.0
  9
$ORTHOMODE
 70
     0
  9
$REGENMODE
 70
     1
  9
$FILLMODE
 70
     1
  9
$QTEXTMODE
 70
     0
  9
$MIRRTEXT
 70
     1
  9
$DRAGMODE
 70
     2
  9
$LTSCALE
 40
1.0
  9
$OSMODE
 70
   511
  9
$ATTMODE
 70
     1
  9
$TEXTSIZE
 40
2.5
  9
$TRACEWID
 40
1.0
  9
$TEXTSTYLE
  7
STANDARD
  9
$CLAYER
  8
0
  9
$CELTYPE
  6
BYLAYER
  9
$CECOLOR
 62
   256
  9
$CELTSCALE
 40
1.0
  9
$DELOBJ
 70
     1
  9
$DISPSILH
 70
     0
  9
$DIMSCALE
 40
1.0
  9
$DIMASZ
 40
2.5
  9
$DIMEXO
 40
0.625
  9
$DIMDLI
 40
3.75
  9
$DIMRND
 40
0.0
  9
$DIMDLE
 40
0.0
  9
$DIMEXE
 40
1.25
  9
$DIMTP
 40
0.0
  9
$DIMTM
 40
0.0
  9
$DIMTXT
 40
2.5
  9
$DIMCEN
 40
2.5
  9
$DIMTSZ
 40
0.0
  9
$DIMTOL
 70
     0
  9
$DIMLIM
 70
     0
  9
$DIMTIH
 70
     0
  9
$DIMTOH
 70
     0
  9
$DIMSE1
 70
     0
  9
$DIMSE2
 70
     0
  9
$DIMTAD
 70
     1
  9
$DIMZIN
 70
     8
  9
$DIMBLK
  1

  9
$DIMASO
 70
     1
  9
$DIMSHO
 70
     1
  9
$DIMPOST
  1

  9
$DIMAPOST
  1

  9
$DIMALT
 70
     0
  9
$DIMALTD
 70
     3
  9
$DIMALTF
 40
0.03937007874016
  9
$DIMLFAC
 40
1.0
  9
$DIMTOFL
 70
     1
  9
$DIMTVP
 40
0.0
  9
$DIMTIX
 70
     0
  9
$DIMSOXD
 70
     0
  9
$DIMSAH
 70
     0
  9
$DIMBLK1
  1

  9
$DIMBLK2
  1

  9
$DIMSTYLE
  2
ISO-25
  9
$DIMCLRD
 70
     0
  9
$DIMCLRE
 70
     0
  9
$DIMCLRT
 70
     0
  9
$DIMTFAC
 40
1.0
  9
$DIMGAP
 40
0.625
  9
$DIMJUST
 70
     0
  9
$DIMSD1
 70
     0
  9
$DIMSD2
 70
     0
  9
$DIMTOLJ
 70
     0
  9
$DIMTZIN
 70
     8
  9
$DIMALTZ
 70
     0
  9
$DIMALTTZ
 70
     0
  9
$DIMFIT
 70
     5
  9
$DIMUPT
 70
     0
  9
$DIMUNIT
 70
     2
  9
$DIMDEC
 70
     2
  9
$DIMTDEC
 70
     2
  9
$DIMALTU
 70
     2
  9
$DIMALTTD
 70
     3
  9
$DIMTXSTY
  7
STANDARD
  9
$DIMAUNIT
 70
     0
  9
$LUNITS
 70
     2
  9
$LUPREC
 70
     4
  9
$SKETCHINC
 40
1.0
  9
$FILLETRAD
 40
2.0
  9
$AUNITS
 70
     0
  9
$AUPREC
 70
     0
  9
$MENU
  1
.
  9
$ELEVATION
 40
0.0
  9
$PELEVATION
 40
0.0
  9
$THICKNESS
 40
0.0
  9
$LIMCHECK
 70
     0
  9
$CHAMFERA
 40
10.0
  9
$CHAMFERB
 40
10.0
  9
$CHAMFERC
 40
20.0
  9
$CHAMFERD
 40
0.0
  9
$SKPOLY
 70
     0
  9
$TDCREATE
 40
2453935.933843241
  9
$TDUPDATE
 40
2456676.596816655
  9
$TDINDWG
 40
0.0038839583
  9
$TDUSRTIMER
 40
2456676.553026493
  9
$USRTIMER
 70
     1
  9
$ANGBASE
 50
0.0
  9
$ANGDIR
 70
     0
  9
$PDMODE
 70
     0
  9
$PDSIZE
 40
0.0
  9
$PLINEWID
 40
0.0
  9
$COORDS
 70
     1
  9
$SPLFRAME
 70
     0
  9
$SPLINETYPE
 70
     6
  9
$SPLINESEGS
 70
     8
  9
$ATTDIA
 70
     0
  9
$ATTREQ
 70
     1
  9
$HANDLING
 70
     1
  9
$HANDSEED
  5
7B1
  9
$SURFTAB1
 70
     6
  9
$SURFTAB2
 70
     6
  9
$SURFTYPE
 70
     6
  9
$SURFU
 70
     6
  9
$SURFV
 70
     6
  9
$UCSNAME
  2

  9
$UCSORG
 10
0.0
 20
0.0
 30
0.0
  9
$UCSXDIR
 10
1.0
 20
0.0
 30
0.0
  9
$UCSYDIR
 10
0.0
 20
1.0
 30
0.0
  9
$PUCSNAME
  2

  9
$PUCSORG
 10
0.0
 20
0.0
 30
0.0
  9
$PUCSXDIR
 10
1.0
 20
0.0
 30
0.0
  9
$PUCSYDIR
 10
0.0
 20
1.0
 30
0.0
  9
$USERI1
 70
     0
  9
$USERI2
 70
     0
  9
$USERI3
 70
     0
  9
$USERI4
 70
     0
  9
$USERI5
 70
     0
  9
$USERR1
 40
0.0
  9
$USERR2
 40
0.0
  9
$USERR3
 40
0.0
  9
$USERR4
 40
0.0
  9
$USERR5
 40
0.0
  9
$WORLDVIEW
 70
     1
  9
$SHADEDGE
 70
     3
  9
$SHADEDIF
 70
    70
  9
$TILEMODE
 70
     1
  9
$MAXACTVP
 70
    64
  9
$PINSBASE
 10
0.0
 20
0.0
 30
0.0
  9
$PLIMCHECK
 70
     0
  9
$PEXTMIN
 10
1.000000000000000E+20
 20
1.000000000000000E+20
 30
1.000000000000000E+20
  9
$PEXTMAX
 10
-1.000000000000000E+20
 20
-1.000000000000000E+20
 30
-1.000000000000000E+20
  9
$PLIMMIN
 10
0.0
 20
0.0
  9
$PLIMMAX
 10
0.0
 20
0.0
  9
$UNITMODE
 70
     0
  9
$VISRETAIN
 70
     1
  9
$PLINEGEN
 70
     0
  9
$PSLTSCALE
 70
     1
  9
$TREEDEPTH
 70
  3020
  9
$PICKSTYLE
 70
     0
  9
$CMLSTYLE
  2
STANDARD
  9
$CMLJUST
 70
     0
  9
$CMLSCALE
 40
20.0
  9
$PROXYGRAPHICS
 70
     1
  9
$MEASUREMENT
 70
     0
  0
ENDSEC
  0
SECTION
  2
CLASSES
  0
CLASS
  1
ACDBDICTIONARYWDFLT
  2
AcDbDictionaryWithDefault
  3
ObjectDBX Classes
 90
        0
280
     0
281
     0
  0
CLASS
  1
ACDBPLACEHOLDER
  2
AcDbPlaceHolder
  3
ObjectDBX Classes
 90
        0
280
     0
281
     0
  0
CLASS
  1
LAYOUT
  2
AcDbLayout
  3
ObjectDBX Classes
 90
        0
280
     0
281
     0
  0
CLASS
  1
DICTIONARYVAR
  2
AcDbDictionaryVar
  3
ObjectDBX Classes
 90
        0
280
     0
281
     0
  0
CLASS
  1
LONG_TRANSACTION
  2
AcDbLongTransaction
  3
ObjectDBX Classes
 90
        0
280
     0
281
     0
  0
CLASS
  1
LWPOLYLINE
  2
AcDbPolyline
  3
ObjectDBX Classes
 90
        0
280
     0
281
     1
  0
CLASS
  1
HATCH
  2
AcDbHatch
  3
ObjectDBX Classes
 90
        0
280
     0
281
     1
  0
CLASS
  1
XRECORD
  2
AcDbXrecord
  3
ObjectDBX Classes
 90
        0
280
     0
281
     0
  0
CLASS
  1
SCALE
  2
AcDbScale
  3
ObjectDBX Classes
 90
     1153
280
     0
281
     0
  0
CLASS
  1
VISUALSTYLE
  2
AcDbVisualStyle
  3
ObjectDBX Classes
 90
     4095
280
     0
281
     0
  0
CLASS
  1
MATERIAL
  2
AcDbMaterial
  3
ObjectDBX Classes
 90
     1153
280
     0
281
     0
  0
CLASS
  1
TABLESTYLE
  2
AcDbTableStyle
  3
ObjectDBX Classes
 90
     4095
280
     0
281
     0
  0
CLASS
  1
SUN
  2
AcDbSun
  3
SCENEOE
 90
     1153
280
     0
281
     0
  0
CLASS
  1
RASTERVARIABLES
  2
AcDbRasterVariables
  3
ISM
 90
        0
280
     0
281
     0
  0
ENDSEC
  0
SECTION
  2
TABLES
  0
TABLE
  2
VPORT
  5
8
330
0
100
AcDbSymbolTable
 70
     1
  0
VPORT
  5
43
330
8
100
AcDbSymbolTableRecord
100
AcDbViewportTableRecord
  2
*ACTIVE
 70
     0
 10
0.0
 20
0.0
 11
1.0
 21
1.0
 12
583.4804397879757
 22
428.0095287086846
 13
0.0
 23
0.0
 14
10.0
 24
10.0
 15
10.0
 25
10.0
 16
0.0
 26
0.0
 36
1.0
 17
0.0
 27
0.0
 37
0.0
 40
329.6640580398986
 41
2.314950980392157
 42
50.0
 43
0.0
 44
0.0
 50
0.0
 51
0.0
 71
    16
 72
   100
 73
     1
 74
     3
 75
     0
 76
     0
 77
     0
 78
     0
  0
ENDTAB
  0
TABLE
  2
LTYPE
  5
5
330
0
100
AcDbSymbolTable
 70
     1
  0
LTYPE
  5
14
330
5
100
AcDbSymbolTableRecord
100
AcDbLinetypeTableRecord
  2
BYBLOCK
 70
     0
  3

 72
    65
 73
     0
 40
0.0
  0
LTYPE
  5
15
330
5
100
AcDbSymbolTableRecord
100
AcDbLinetypeTableRecord
  2
BYLAYER
 70
     0
  3

 72
    65
 73
     0
 40
0.0
  0
LTYPE
  5
16
330
5
100
AcDbSymbolTableRecord
100
AcDbLinetypeTableRecord
  2
CONTINUOUS
 70
     0
  3
Solid line
 72
    65
 73
     0
 40
0.0
  0
ENDTAB
  0
TABLE
  2
LAYER
  5
2
330
0
100
AcDbSymbolTable
 70
     1
  0
LAYER
  5
10
330
2
100
AcDbSymbolTableRecord
100
AcDbLayerTableRecord
  2
0
 70
     0
 62
     7
  6
CONTINUOUS
  0
ENDTAB
  0
TABLE
  2
STYLE
  5
3
330
0
100
AcDbSymbolTable
 70
     1
  0
STYLE
  5
11
330
3
100
AcDbSymbolTableRecord
100
AcDbTextStyleTableRecord
  2
STANDARD
 70
     0
 40
0.0
 41
1.0
 50
0.0
 71
     0
 42
2.5
  3
txt
  4

  0
ENDTAB
  0
TABLE
  2
VIEW
  5
6
330
0
100
AcDbSymbolTable
 70
     0
  0
ENDTAB
  0
TABLE
  2
UCS
  5
7
330
0
100
AcDbSymbolTable
 70
     0
  0
ENDTAB
  0
TABLE
  2
APPID
  5
9
330
0
100
AcDbSymbolTable
 70
     1
  0
APPID
  5
12
330
9
100
AcDbSymbolTableRecord
100
AcDbRegAppTableRecord
  2
ACAD
 70
     0
  0
ENDTAB
  0
TABLE
  2
DIMSTYLE
  5
A
330
0
100
AcDbSymbolTable
 70
     1
  0
DIMSTYLE
105
27
330
A
100
AcDbSymbolTableRecord
100
AcDbDimStyleTableRecord
  2
ISO-25
 70
     0
  3

  4

  5

  6

  7

 40
1.0
 41
2.5
 42
0.625
 43
3.75
 44
1.25
 45
0.0
 46
0.0
 47
0.0
 48
0.0
140
2.5
141
2.5
142
0.0
143
0.03937007874016
144
1.0
145
0.0
146
1.0
147
0.625
 71
     0
 72
     0
 73
     0
 74
     0
 75
     0
 76
     0
 77
     1
 78
     8
170
     0
171
     3
172
     1
173
     0
174
     0
175
     0
176
     0
177
     0
178
     0
270
     2
271
     2
272
     2
273
     2
274
     3
340
11
275
     0
280
     0
281
     0
282
     0
283
     0
284
     8
285
     0
286
     0
287
     3
288
     0
  0
ENDTAB
  0
TABLE
  2
BLOCK_RECORD
  5
1
330
0
100
AcDbSymbolTable
 70
     0
  0
BLOCK_RECORD
  5
1F
330
1
100
AcDbSymbolTableRecord
100
AcDbBlockTableRecord
  2
*MODEL_SPACE
  0
BLOCK_RECORD
  5
1B
330
1
100
AcDbSymbolTableRecord
100
AcDbBlockTableRecord
  2
*PAPER_SPACE
  0
ENDTAB
  0
ENDSEC
  0
SECTION
  2
BLOCKS
  0
BLOCK
  5
20
330
1F
100
AcDbEntity
  8
0
100
AcDbBlockBegin
  2
*MODEL_SPACE
 70
     0
 10
0.0
 20
0.0
 30
0.0
  3
*MODEL_SPACE
  1

  0
ENDBLK
  5
21
330
1F
100
AcDbEntity
  8
0
100
AcDbBlockEnd
  0
BLOCK
  5
1C
330
1B
100
AcDbEntity
 67
     1
  8
0
100
AcDbBlockBegin
  2
*PAPER_SPACE
 70
     0
 10
0.0
 20
0.0
 30
0.0
  3
*PAPER_SPACE
  1

  0
ENDBLK
  5
1D
330
1B
100
AcDbEntity
 67
     1
  8
0
100
AcDbBlockEnd
  0
ENDSEC
  0
SECTION
  2
ENTITIES
  0
LINE
  5
100
330
1F
100
AcDbEntity
  8
0
 62
     3
100
AcDbLine
 10
580.652426
 20
477.218476
 30
0.0
 11
580.950314
 21
477.218476
 31
0.0
  0
LINE
  5
101
330
1F
100
AcDbEntity
  8
0
 62
     3
100
AcDbLine
 10
580.950314
 20
477.218476
 30
0.0
 11
580.950314
 21
475.325565
 31
0.0
  0
LINE
  5
102
330
1F
100
AcDbEntity
  8
0
 62
     3
100
AcDbLine
 10
580.950314
 20
475.325565
 30
0.0
 11
580.994175
 21
475.366289
 31
0.0
  0
LINE
  5
103
330
1F
100
AcDbEntity
  8
0
 62
     3
100
AcDbLine
 10
580.994175
 20
475.366289
 30
0.0
 11
581.04419
 21
475.407013
 31
0.0
  0
LINE
  5
104
330
1F
100
AcDbEntity
  8
0
 62
     3
100
AcDbLine
 10
581.04419
 20
475.407013
 30
0.0
 11
581.100178
 21
475.447737
 31
0.0
  0
LINE
  5
105
330
1F
100
AcDbEntity
  8
0
 62
     3
100
AcDbLine
 10
581.100178
 20
475.447737
 30
0.0
 11
581.161958
 21
475.488461
 31
0.0
  0
LINE
  5
106
330
1F
100
AcDbEntity
  8
0
 62
     3
100
AcDbLine
 10
581.161958
 20
475.488461
 30
0.0
 11
581.229349
 21
475.529185
 31
0.0
  0
LINE
  5
107
330
1F
100
AcDbEntity
  8
0
 62
     3
100
AcDbLine
 10
581.229349
 20
475.529185
 30
0.0
 11
581.296287
 21
475.568068
 31
0.0
  0
LINE
  5
108
330
1F
100
AcDbEntity
  8
0
 62
     3
100
AcDbLine
 10
581.296287
 20
475.568068
 30
0.0
 11
581.361234
 21
475.603151
 31
0.0
  0
LINE
  5
109
330
1F
100
AcDbEntity
  8
0
 62
     3
100
AcDbLine
 10
581.361234
 20
475.603151
 30
0.0
 11
581.424009
 21
475.634252
 31
0.0
  0
LINE
  5
110
330
1F
100
AcDbEntity
  8
0
 62
     3
100
AcDbLine
 10
581.424009
 20
475.634252
 30
0.0
 11
581.484432
 21
475.661191
 31
0.0
  0
LINE
  5
111
330
1F
100
AcDbEntity
  8
0
 62
     3
100
AcDbLine
 10
581.484432
 20
475.661191
 30
0.0
 11
581.54232
 21
475.683785
 31
0.0
  0
LINE
  5
112
330
1F
100
AcDbEntity
  8
0
 62
     3
100
AcDbLine
 10
581.54232
 20
475.683785
 30
0.0
 11
581.54232
 21
475.397209
 31
0.0
  0
LINE
  5
113
330
1F
100
AcDbEntity
  8
0
 62
     3
100
AcDbLine
 10
581.54232
 20
475.397209
 30
0.0
 11
581.445457
 21
475.349697
 31
0.0
  0
LINE
  5
114
330
1F
100
AcDbEntity
  8
0
 62
     3
100
AcDbLine
 10
581.445457
 20
475.349697
 30
0.0
 11
581.353843
 21
475.297661
 31
0.0
  0
LINE
  5
115
330
1F
100
AcDbEntity
  8
0
 62
     3
100
AcDbLine
 10
581.353843
 20
475.297661
 30
0.0
 11
581.267297
 21
475.2411
 31
0.0
  0
LINE
  5
116
330
1F
100
AcDbEntity
  8
0
 62
     3
100
AcDbLine
 10
581.267297
 20
475.2411
 30
0.0
 11
581.185638
 21
475.180014
 31
0.0
  0
LINE
  5
117
330
1F
100
AcDbEntity
  8
0
 62
     3
100
AcDbLine
 10
581.185638
 20
475.180014
 30
0.0
 11
581.108685
 21
475.114403
 31
0.0
  0
LINE
  5
118
330
1F
100
AcDbEntity
  8
0
 62
     3
100
AcDbLine
 10
581.108685
 20
475.114403
 30
0.0
 11
581.038519
 21
475.048823
 31
0.0
  0
LINE
  5
119
330
1F
100
AcDbEntity
  8
0
 62
     3
100
AcDbLine
 10
581.038519
 20
475.048823
 30
0.0
 11
580.977222
 21
474.983423
 31
0.0
  0
LINE
  5
120
330
1F
100
AcDbEntity
  8
0
 62
     3
100
AcDbLine
 10
580.977222
 20
474.983423
 30
0.0
 11
580.924613
 21
474.918385
 31
0.0
  0
LINE
  5
121
330
1F
100
AcDbEntity
  8
0
 62
     3
100
AcDbLine
 10
580.924613
 20
474.918385
 30
0.0
 11
580.88051
 21
474.85389
 31
0.0
  0
LINE
  5
122
330
1F
100
AcDbEntity
  8
0
 62
     3
100
AcDbLine
 10
580.88051
 20
474.85389
 30
0.0
 11
580.844733
 21
474.79012
 31
0.0
  0
LINE
  5
123
330
1F
100
AcDbEntity
  8
0
 62
     3
100
AcDbLine
 10
580.844733
 20
474.79012
 30
0.0
 11
580.652426
 21
474.79012
 31
0.0
  0
LINE
  5
124
330
1F
100
AcDbEntity
  8
0
 62
     3
100
AcDbLine
 10
580.652426
 20
474.79012
 30
0.0
 11
580.652426
 21
477.218476
 31
0.0
  0
LINE
  5
125
330
1F
100
AcDbEntity
  8
0
 62
     3
100
AcDbLine
 10
578.47011
 20
475.393438
 30
0.0
 11
578.764228
 21
475.416062
 31
0.0
  0
LINE
  5
126
330
1F
100
AcDbEntity
  8
0
 62
     3
100
AcDbLine
 10
578.764228
 20
475.416062
 30
0.0
 11
578.781423
 21
475.351417
 31
0.0
  0
LINE
  5
127
330
1F
100
AcDbEntity
  8
0
 62
     3
100
AcDbLine
 10
578.781423
 20
475.351417
 30
0.0
 11
578.801332
 21
475.293468
 31
0.0
  0
LINE
  5
128
330
1F
100
AcDbEntity
  8
0
 62
     3
100
AcDbLine
 10
578.801332
 20
475.293468
 30
0.0
 11
578.823957
 21
475.242578
 31
0.0
  0
LINE
  5
129
330
1F
100
AcDbEntity
  8
0
 62
     3
100
AcDbLine
 10
578.823957
 20
475.242578
 30
0.0
 11
578.849296
 21
475.199109
 31
0.0
  0
LINE
  5
130
330
1F
100
AcDbEntity
  8
0
 62
     3
100
AcDbLine
 10
578.849296
 20
475.199109
 30
0.0
 11
578.87735
 21
475.163423
 31
0.0
  0
LINE
  5
131
330
1F
100
AcDbEntity
  8
0
 62
     3
100
AcDbLine
 10
578.87735
 20
475.163423
 30
0.0
 11
578.927154
 21
475.118234
 31
0.0
  0
LINE
  5
132
330
1F
100
AcDbEntity
  8
0
 62
     3
100
AcDbLine
 10
578.927154
 20
475.118234
 30
0.0
 11
578.981664
 21
475.082458
 31
0.0
  0
LINE
  5
133
330
1F
100
AcDbEntity
  8
0
 62
     3
100
AcDbLine
 10
578.981664
 20
475.082458
 30
0.0
 11
579.041061
 21
475.056455
 31
0.0
  0
LINE
  5
134
330
1F
100
AcDbEntity
  8
0
 62
     3
100
AcDbLine
 10
579.041061
 20
475.056455
 30
0.0
 11
579.105525
 21
475.040587
 31
0.0
  0
LINE
  5
135
330
1F
100
AcDbEntity
  8
0
 62
     3
100
AcDbLine
 10
579.105525
 20
475.040587
 30
0.0
 11
579.175239
 21
475.035218
 31
0.0
  0
LINE
  5
136
330
1F
100
AcDbEntity
  8
0
 62
     3
100
AcDbLine
 10
579.175239
 20
475.035218
 30
0.0
 11
579.230472
 21
475.038385
 31
0.0
  0
LINE
  5
137
330
1F
100
AcDbEntity
  8
0
 62
     3
100
AcDbLine
 10
579.230472
 20
475.038385
 30
0.0
 11
579.283172
 21
475.047887
 31
0.0
  0
LINE
  5
138
330
1F
100
AcDbEntity
  8
0
 62
     3
100
AcDbLine
 10
579.283172
 20
475.047887
 30
0.0
 11
579.333519
 21
475.063725
 31
0.0
  0
LINE
  5
139
330
1F
100
AcDbEntity
  8
0
 62
     3
100
AcDbLine
 10
579.333519
 20
475.063725
 30
0.0
 11
579.381694
 21
475.085897
 31
0.0
  0
LINE
  5
140
330
1F
100
AcDbEntity
  8
0
 62
     3
100
AcDbLine
 10
579.381694
 20
475.085897
 30
0.0
 11
579.427878
 21
475.114403
 31
0.0
  0
LINE
  5
141
330
1F
100
AcDbEntity
  8
0
 62
     3
100
AcDbLine
 10
579.427878
 20
475.114403
 30
0.0
 11
579.480337
 21
475.158777
 31
0.0
  0
LINE
  5
142
330
1F
100
AcDbEntity
  8
0
 62
     3
100
AcDbLine
 10
579.480337
 20
475.158777
 30
0.0
 11
579.528994
 21
475.210572
 31
0.0
  0
LINE
  5
143
330
1F
100
AcDbEntity
  8
0
 62
     3
100
AcDbLine
 10
579.528994
 20
475.210572
 30
0.0
 11
579.57367
 21
475.269969
 31
0.0
  0
LINE
  5
144
330
1F
100
AcDbEntity
  8
0
 62
     3
100
AcDbLine
 10
579.57367
 20
475.269969
 30
0.0
 11
579.614183
 21
475.337148
 31
0.0
  0
LINE
  5
145
330
1F
100
AcDbEntity
  8
0
 62
     3
100
AcDbLine
 10
579.614183
 20
475.337148
 30
0.0
 11
579.650352
 21
475.412292
 31
0.0
  0
LINE
  5
146
330
1F
100
AcDbEntity
  8
0
 62
     3
100
AcDbLine
 10
579.650352
 20
475.412292
 30
0.0
 11
579.678889
 21
475.496394
 31
0.0
  0
LINE
  5
147
330
1F
100
AcDbEntity
  8
0
 62
     3
100
AcDbLine
 10
579.678889
 20
475.496394
 30
0.0
 11
579.701272
 21
475.594614
 31
0.0
  0
LINE
  5
148
330
1F
100
AcDbEntity
  8
0
 62
     3
100
AcDbLine
 10
579.701272
 20
475.594614
 30
0.0
 11
579.717682
 21
475.70659
 31
0.0
  0
LINE
  5
149
330
1F
100
AcDbEntity
  8
0
 62
     3
100
AcDbLine
 10
579.717682
 20
475.70659
 30
0.0
 11
579.7283
 21
475.83196
 31
0.0
  0
LINE
  5
150
330
1F
100
AcDbEntity
  8
0
 62
     3
100
AcDbLine
 10
579.7283
 20
475.83196
 30
0.0
 11
579.733308
 21
475.970361
 31
0.0
  0
LINE
  5
151
330
1F
100
AcDbEntity
  8
0
 62
     3
100
AcDbLine
 10
579.733308
 20
475.970361
 30
0.0
 11
579.689929
 21
475.909788
 31
0.0
  0
LINE
  5
152
330
1F
100
AcDbEntity
  8
0
 62
     3
100
AcDbLine
 10
579.689929
 20
475.909788
 30
0.0
 11
579.641483
 21
475.855007
 31
0.0
  0
LINE
  5
153
330
1F
100
AcDbEntity
  8
0
 62
     3
100
AcDbLine
 10
579.641483
 20
475.855007
 30
0.0
 11
579.588331
 21
475.806379
 31
0.0
  0
LINE
  5
154
330
1F
100
AcDbEntity
  8
0
 62
     3
100
AcDbLine
 10
579.588331
 20
475.806379
 30
0.0
 11
579.530834
 21
475.764268
 31
0.0
  0
LINE
  5
155
330
1F
100
AcDbEntity
  8
0
 62
     3
100
AcDbLine
 10
579.530834
 20
475.764268
 30
0.0
 11
579.469356
 21
475.729034
 31
0.0
  0
LINE
  5
156
330
1F
100
AcDbEntity
  8
0
 62
     3
100
AcDbLine
 10
579.469356
 20
475.729034
 30
0.0
 11
579.407396
 21
475.700527
 31
0.0
  0
LINE
  5
157
330
1F
100
AcDbEntity
  8
0
 62
     3
100
AcDbLine
 10
579.407396
 20
475.700527
 30
0.0
 11
579.343806
 21
475.678355
 31
0.0
  0
LINE
  5
158
330
1F
100
AcDbEntity
  8
0
 62
     3
100
AcDbLine
 10
579.343806
 20
475.678355
 30
0.0
 11
579.278768
 21
475.662518
 31
0.0
  0
LINE
  5
159
330
1F
100
AcDbEntity
  8
0
 62
     3
100
AcDbLine
 10
579.278768
 20
475.662518
 30
0.0
 11
579.212463
 21
475.653016
 31
0.0
  0
LINE
  5
160
330
1F
100
AcDbEntity
  8
0
 62
     3
100
AcDbLine
 10
579.212463
 20
475.653016
 30
0.0
 11
579.145073
 21
475.649848
 31
0.0
  0
LINE
  5
161
330
1F
100
AcDbEntity
  8
0
 62
     3
100
AcDbLine
 10
579.145073
 20
475.649848
 30
0.0
 11
579.030985
 21
475.658476
 31
0.0
  0
LINE
  5
162
330
1F
100
AcDbEntity
  8
0
 62
     3
100
AcDbLine
 10
579.030985
 20
475.658476
 30
0.0
 11
578.923776
 21
475.684479
 31
0.0
  0
LINE
  5
163
330
1F
100
AcDbEntity
  8
0
 62
     3
100
AcDbLine
 10
578.923776
 20
475.684479
 30
0.0
 11
578.823082
 21
475.728038
 31
0.0
  0
LINE
  5
164
330
1F
100
AcDbEntity
  8
0
 62
     3
100
AcDbLine
 10
578.823082
 20
475.728038
 30
0.0
 11
578.728542
 21
475.789335
 31
0.0
  0
LINE
  5
165
330
1F
100
AcDbEntity
  8
0
 62
     3
100
AcDbLine
 10
578.728542
 20
475.789335
 30
0.0
 11
578.639794
 21
475.868551
 31
0.0
  0
LINE
  5
166
330
1F
100
AcDbEntity
  8
0
 62
     3
100
AcDbLine
 10
578.639794
 20
475.868551
 30
0.0
 11
578.566098
 21
475.959954
 31
0.0
  0
LINE
  5
167
330
1F
100
AcDbEntity
  8
0
 62
     3
100
AcDbLine
 10
578.566098
 20
475.959954
 30
0.0
 11
578.50815
 21
476.062216
 31
0.0
  0
LINE
  5
168
330
1F
100
AcDbEntity
  8
0
 62
     3
100
AcDbLine
 10
578.50815
 20
476.062216
 30
0.0
 11
578.46631
 21
476.175338
 31
0.0
  0
LINE
  5
169
330
1F
100
AcDbEntity
  8
0
 62
     3
100
AcDbLine
 10
578.46631
 20
476.175338
 30
0.0
 11
578.44094
 21
476.29932
 31
0.0
  0
LINE
  5
170
330
1F
100
AcDbEntity
  8
0
 62
     3
100
AcDbLine
 10
578.44094
 20
476.29932
 30
0.0
 11
578.432403
 21
476.434162
 31
0.0
  0
LINE
  5
171
330
1F
100
AcDbEntity
  8
0
 62
     3
100
AcDbLine
 10
578.432403
 20
476.434162
 30
0.0
 11
578.436083
 21
476.523332
 31
0.0
  0
LINE
  5
172
330
1F
100
AcDbEntity
  8
0
 62
     3
100
AcDbLine
 10
578.436083
 20
476.523332
 30
0.0
 11
578.447365
 21
476.609969
 31
0.0
  0
LINE
  5
173
330
1F
100
AcDbEntity
  8
0
 62
     3
100
AcDbLine
 10
578.447365
 20
476.609969
 30
0.0
 11
578.466611
 21
476.694252
 31
0.0
  0
LINE
  5
174
330
1F
100
AcDbEntity
  8
0
 62
     3
100
AcDbLine
 10
578.466611
 20
476.694252
 30
0.0
 11
578.494183
 21
476.776364
 31
0.0
  0
LINE
  5
175
330
1F
100
AcDbEntity
  8
0
 62
     3
100
AcDbLine
 10
578.494183
 20
476.776364
 30
0.0
 11
578.530442
 21
476.856485
 31
0.0
  0
LINE
  5
176
330
1F
100
AcDbEntity
  8
0
 62
     3
100
AcDbLine
 10
578.530442
 20
476.856485
 30
0.0
 11
578.572041
 21
476.93018
 31
0.0
  0
LINE
  5
177
330
1F
100
AcDbEntity
  8
0
 62
     3
100
AcDbLine
 10
578.572041
 20
476.93018
 30
0.0
 11
578.619794
 21
476.997179
 31
0.0
  0
LINE
  5
178
330
1F
100
AcDbEntity
  8
0
 62
     3
100
AcDbLine
 10
578.619794
 20
476.997179
 30
0.0
 11
578.673519
 21
477.057118
 31
0.0
  0
LINE
  5
179
330
1F
100
AcDbEntity
  8
0
 62
     3
100
AcDbLine
 10
578.673519
 20
477.057118
 30
0.0
 11
578.733037
 21
477.109637
 31
0.0
  0
LINE
  5
180
330
1F
100
AcDbEntity
  8
0
 62
     3
100
AcDbLine
 10
578.733037
 20
477.109637
 30
0.0
 11
578.798165
 21
477.154373
 31
0.0
  0
LINE
  5
181
330
1F
100
AcDbEntity
  8
0
 62
     3
100
AcDbLine
 10
578.798165
 20
477.154373
 30
0.0
 11
578.86827
 21
477.191417
 31
0.0
  0
LINE
  5
182
330
1F
100
AcDbEntity
  8
0
 62
     3
100
AcDbLine
 10
578.86827
 20
477.191417
 30
0.0
 11
578.94272
 21
477.220859
 31
0.0
  0
LINE
  5
183
330
1F
100
AcDbEntity
  8
0
 62
     3
100
AcDbLine
 10
578.94272
 20
477.220859
 30
0.0
 11
579.021332
 21
477.242337
 31
0.0
  0
LINE
  5
184
330
1F
100
AcDbEntity
  8
0
 62
     3
100
AcDbLine
 10
579.021332
 20
477.242337
 30
0.0
 11
579.103926
 21
477.255489
 31
0.0
  0
LINE
  5
185
330
1F
100
AcDbEntity
  8
0
 62
     3
100
AcDbLine
 10
579.103926
 20
477.255489
 30
0.0
 11
579.190322
 21
477.259954
 31
0.0
  0
LINE
  5
186
330
1F
100
AcDbEntity
  8
0
 62
     3
100
AcDbLine
 10
579.190322
 20
477.259954
 30
0.0
 11
579.331981
 21
477.249094
 31
0.0
  0
LINE
  5
187
330
1F
100
AcDbEntity
  8
0
 62
     3
100
AcDbLine
 10
579.331981
 20
477.249094
 30
0.0
 11
579.462961
 21
477.216515
 31
0.0
  0
LINE
  5
188
330
1F
100
AcDbEntity
  8
0
 62
     3
100
AcDbLine
 10
579.462961
 20
477.216515
 30
0.0
 11
579.583444
 21
477.162216
 31
0.0
  0
LINE
  5
189
330
1F
100
AcDbEntity
  8
0
 62
     3
100
AcDbLine
 10
579.583444
 20
477.162216
 30
0.0
 11
579.69361
 21
477.086198
 31
0.0
  0
LINE
  5
190
330
1F
100
AcDbEntity
  8
0
 62
     3
100
AcDbLine
 10
579.69361
 20
477.086198
 30
0.0
 11
579.79364
 21
476.988461
 31
0.0
  0
LINE
  5
191
330
1F
100
AcDbEntity
  8
0
 62
     3
100
AcDbLine
 10
579.79364
 20
476.988461
 30
0.0
 11
579.87732
 21
476.865414
 31
0.0
  0
LINE
  5
192
330
1F
100
AcDbEntity
  8
0
 62
     3
100
AcDbLine
 10
579.87732
 20
476.865414
 30
0.0
 11
579.94272
 21
476.713589
 31
0.0
  0
LINE
  5
193
330
1F
100
AcDbEntity
  8
0
 62
     3
100
AcDbLine
 10
579.94272
 20
476.713589
 30
0.0
 11
579.989658
 21
476.533167
 31
0.0
  0
LINE
  5
194
330
1F
100
AcDbEntity
  8
0
 62
     3
100
AcDbLine
 10
579.989658
 20
476.533167
 30
0.0
 11
580.017954
 21
476.324328
 31
0.0
  0
LINE
  5
195
330
1F
100
AcDbEntity
  8
0
 62
     3
100
AcDbLine
 10
580.017954
 20
476.324328
 30
0.0
 11
580.027426
 21
476.087254
 31
0.0
  0
LINE
  5
196
330
1F
100
AcDbEntity
  8
0
 62
     3
100
AcDbLine
 10
580.027426
 20
476.087254
 30
0.0
 11
580.017018
 21
475.822065
 31
0.0
  0
LINE
  5
197
330
1F
100
AcDbEntity
  8
0
 62
     3
100
AcDbLine
 10
580.017018
 20
475.822065
 30
0.0
 11
579.985797
 21
475.587465
 31
0.0
  0
LINE
  5
198
330
1F
100
AcDbEntity
  8
0
 62
     3
100
AcDbLine
 10
579.985797
 20
475.587465
 30
0.0
 11
579.933761
 21
475.383272
 31
0.0
  0
LINE
  5
199
330
1F
100
AcDbEntity
  8
0
 62
     3
100
AcDbLine
 10
579.933761
 20
475.383272
 30
0.0
 11
579.86091
 21
475.209305
 31
0.0
  0
LINE
  5
200
330
1F
100
AcDbEntity
  8
0
 62
     3
100
AcDbLine
 10
579.86091
 20
475.209305
 30
0.0
 11
579.767245
 21
475.065384
 31
0.0
  0
LINE
  5
201
330
1F
100
AcDbEntity
  8
0
 62
     3
100
AcDbLine
 10
579.767245
 20
475.065384
 30
0.0
 11
579.670412
 21
474.967254
 31
0.0
  0
LINE
  5
202
330
1F
100
AcDbEntity
  8
0
 62
     3
100
AcDbLine
 10
579.670412
 20
474.967254
 30
0.0
 11
579.56091
 21
474.890301
 31
0.0
  0
LINE
  5
203
330
1F
100
AcDbEntity
  8
0
 62
     3
100
AcDbLine
 10
579.56091
 20
474.890301
 30
0.0
 11
579.438738
 21
474.834886
 31
0.0
  0
LINE
  5
204
330
1F
100
AcDbEntity
  8
0
 62
     3
100
AcDbLine
 10
579.438738
 20
474.834886
 30
0.0
 11
579.303896
 21
474.801372
 31
0.0
  0
LINE
  5
205
330
1F
100
AcDbEntity
  8
0
 62
     3
100
AcDbLine
 10
579.303896
 20
474.801372
 30
0.0
 11
579.156385
 21
474.79012
 31
0.0
  0
LINE
  5
206
330
1F
100
AcDbEntity
  8
0
 62
     3
100
AcDbLine
 10
579.156385
 20
474.79012
 30
0.0
 11
579.047305
 21
474.796485
 31
0.0
  0
LINE
  5
207
330
1F
100
AcDbEntity
  8
0
 62
     3
100
AcDbLine
 10
579.047305
 20
474.796485
 30
0.0
 11
578.946189
 21
474.8157
 31
0.0
  0
LINE
  5
208
330
1F
100
AcDbEntity
  8
0
 62
     3
100
AcDbLine
 10
578.946189
 20
474.8157
 30
0.0
 11
578.852856
 21
474.847948
 31
0.0
  0
LINE
  5
209
330
1F
100
AcDbEntity
  8
0
 62
     3
100
AcDbLine
 10
578.852856
 20
474.847948
 30
0.0
 11
578.767124
 21
474.893408
 31
0.0
  0
LINE
  5
210
330
1F
100
AcDbEntity
  8
0
 62
     3
100
AcDbLine
 10
578.767124
 20
474.893408
 30
0.0
 11
578.688813
 21
474.952262
 31
0.0
  0
LINE
  5
211
330
1F
100
AcDbEntity
  8
0
 62
     3
100
AcDbLine
 10
578.688813
 20
474.952262
 30
0.0
 11
578.622267
 21
475.020587
 31
0.0
  0
LINE
  5
212
330
1F
100
AcDbEntity
  8
0
 62
     3
100
AcDbLine
 10
578.622267
 20
475.020587
 30
0.0
 11
578.567305
 21
475.098868
 31
0.0
  0
LINE
  5
213
330
1F
100
AcDbEntity
  8
0
 62
     3
100
AcDbLine
 10
578.567305
 20
475.098868
 30
0.0
 11
578.523745
 21
475.187103
 31
0.0
  0
LINE
  5
214
330
1F
100
AcDbEntity
  8
0
 62
     3
100
AcDbLine
 10
578.523745
 20
475.187103
 30
0.0
 11
578.491408
 21
475.285293
 31
0.0
  0
LINE
  5
215
330
1F
100
AcDbEntity
  8
0
 62
     3
100
AcDbLine
 10
578.491408
 20
475.285293
 30
0.0
 11
578.47011
 21
475.393438
 31
0.0
  0
LINE
  5
216
330
1F
100
AcDbEntity
  8
0
 62
     3
100
AcDbLine
 10
579.688059
 20
476.434162
 30
0.0
 11
579.685736
 21
476.494795
 31
0.0
  0
LINE
  5
217
330
1F
100
AcDbEntity
  8
0
 62
     3
100
AcDbLine
 10
579.685736
 20
476.494795
 30
0.0
 11
579.678527
 21
476.554524
 31
0.0
  0
LINE
  5
218
330
1F
100
AcDbEntity
  8
0
 62
     3
100
AcDbLine
 10
579.678527
 20
476.554524
 30
0.0
 11
579.666068
 21
476.613348
 31
0.0
  0
LINE
  5
219
330
1F
100
AcDbEntity
  8
0
 62
     3
100
AcDbLine
 10
579.666068
 20
476.613348
 30
0.0
 11
579.647999
 21
476.671266
 31
0.0
  0
LINE
  5
220
330
1F
100
AcDbEntity
  8
0
 62
     3
100
AcDbLine
 10
579.647999
 20
476.671266
 30
0.0
 11
579.623957
 21
476.72828
 31
0.0
  0
LINE
  5
221
330
1F
100
AcDbEntity
  8
0
 62
     3
100
AcDbLine
 10
579.623957
 20
476.72828
 30
0.0
 11
579.594997
 21
476.780316
 31
0.0
  0
LINE
  5
222
330
1F
100
AcDbEntity
  8
0
 62
     3
100
AcDbLine
 10
579.594997
 20
476.780316
 30
0.0
 11
579.562418
 21
476.827827
 31
0.0
  0
LINE
  5
223
330
1F
100
AcDbEntity
  8
0
 62
     3
100
AcDbLine
 10
579.562418
 20
476.827827
 30
0.0
 11
579.526219
 21
476.870814
 31
0.0
  0
LINE
  5
224
330
1F
100
AcDbEntity
  8
0
 62
     3
100
AcDbLine
 10
579.526219
 20
476.870814
 30
0.0
 11
579.4864
 21
476.909275
 31
0.0
  0
LINE
  5
225
330
1F
100
AcDbEntity
  8
0
 62
     3
100
AcDbLine
 10
579.4864
 20
476.909275
 30
0.0
 11
579.442961
 21
476.943212
 31
0.0
  0
LINE
  5
226
330
1F
100
AcDbEntity
  8
0
 62
     3
100
AcDbLine
 10
579.442961
 20
476.943212
 30
0.0
 11
579.396807
 21
476.968038
 31
0.0
  0
LINE
  5
227
330
1F
100
AcDbEntity
  8
0
 62
     3
100
AcDbLine
 10
579.396807
 20
476.968038
 30
0.0
 11
579.348843
 21
476.987978
 31
0.0
  0
LINE
  5
228
330
1F
100
AcDbEntity
  8
0
 62
     3
100
AcDbLine
 10
579.348843
 20
476.987978
 30
0.0
 11
579.29907
 21
477.002669
 31
0.0
  0
LINE
  5
229
330
1F
100
AcDbEntity
  8
0
 62
     3
100
AcDbLine
 10
579.29907
 20
477.002669
 30
0.0
 11
579.247486
 21
477.011749
 31
0.0
  0
LINE
  5
230
330
1F
100
AcDbEntity
  8
0
 62
     3
100
AcDbLine
 10
579.247486
 20
477.011749
 30
0.0
 11
579.194092
 21
477.014856
 31
0.0
  0
LINE
  5
231
330
1F
100
AcDbEntity
  8
0
 62
     3
100
AcDbLine
 10
579.194092
 20
477.014856
 30
0.0
 11
579.121664
 21
477.008943
 31
0.0
  0
LINE
  5
232
330
1F
100
AcDbEntity
  8
0
 62
     3
100
AcDbLine
 10
579.121664
 20
477.008943
 30
0.0
 11
579.05358
 21
476.991085
 31
0.0
  0
LINE
  5
233
330
1F
100
AcDbEntity
  8
0
 62
     3
100
AcDbLine
 10
579.05358
 20
476.991085
 30
0.0
 11
578.989658
 21
476.9611
 31
0.0
  0
LINE
  5
234
330
1F
100
AcDbEntity
  8
0
 62
     3
100
AcDbLine
 10
578.989658
 20
476.9611
 30
0.0
 11
578.929718
 21
476.918808
 31
0.0
  0
LINE
  5
235
330
1F
100
AcDbEntity
  8
0
 62
     3
100
AcDbLine
 10
578.929718
 20
476.918808
 30
0.0
 11
578.87358
 21
476.864026
 31
0.0
  0
LINE
  5
236
330
1F
100
AcDbEntity
  8
0
 62
     3
100
AcDbLine
 10
578.87358
 20
476.864026
 30
0.0
 11
578.824711
 21
476.798446
 31
0.0
  0
LINE
  5
237
330
1F
100
AcDbEntity
  8
0
 62
     3
100
AcDbLine
 10
578.824711
 20
476.798446
 30
0.0
 11
578.786702
 21
476.723996
 31
0.0
  0
LINE
  5
238
330
1F
100
AcDbEntity
  8
0
 62
     3
100
AcDbLine
 10
578.786702
 20
476.723996
 30
0.0
 11
578.759552
 21
476.640859
 31
0.0
  0
LINE
  5
239
330
1F
100
AcDbEntity
  8
0
 62
     3
100
AcDbLine
 10
578.759552
 20
476.640859
 30
0.0
 11
578.743263
 21
476.549215
 31
0.0
  0
LINE
  5
240
330
1F
100
AcDbEntity
  8
0
 62
     3
100
AcDbLine
 10
578.743263
 20
476.549215
 30
0.0
 11
578.737833
 21
476.449245
 31
0.0
  0
LINE
  5
241
330
1F
100
AcDbEntity
  8
0
 62
     3
100
AcDbLine
 10
578.737833
 20
476.449245
 30
0.0
 11
578.742871
 21
476.35377
 31
0.0
  0
LINE
  5
242
330
1F
100
AcDbEntity
  8
0
 62
     3
100
AcDbLine
 10
578.742871
 20
476.35377
 30
0.0
 11
578.758225
 21
476.26644
 31
0.0
  0
LINE
  5
243
330
1F
100
AcDbEntity
  8
0
 62
     3
100
AcDbLine
 10
578.758225
 20
476.26644
 30
0.0
 11
578.784258
 21
476.187254
 31
0.0
  0
LINE
  5
244
330
1F
100
AcDbEntity
  8
0
 62
     3
100
AcDbLine
 10
578.784258
 20
476.187254
 30
0.0
 11
578.821332
 21
476.116213
 31
0.0
  0
LINE
  5
245
330
1F
100
AcDbEntity
  8
0
 62
     3
100
AcDbLine
 10
578.821332
 20
476.116213
 30
0.0
 11
578.869809
 21
476.053317
 31
0.0
  0
LINE
  5
246
330
1F
100
AcDbEntity
  8
0
 62
     3
100
AcDbLine
 10
578.869809
 20
476.053317
 30
0.0
 11
578.924982
 21
476.002216
 31
0.0
  0
LINE
  5
247
330
1F
100
AcDbEntity
  8
0
 62
     3
100
AcDbLine
 10
578.924982
 20
476.002216
 30
0.0
 11
578.98631
 21
475.962156
 31
0.0
  0
LINE
  5
248
330
1F
100
AcDbEntity
  8
0
 62
     3
100
AcDbLine
 10
578.98631
 20
475.962156
 30
0.0
 11
579.05361
 21
475.933317
 31
0.0
  0
LINE
  5
249
330
1F
100
AcDbEntity
  8
0
 62
     3
100
AcDbLine
 10
579.05361
 20
475.933317
 30
0.0
 11
579.126702
 21
475.915881
 31
0.0
  0
LINE
  5
250
330
1F
100
AcDbEntity
  8
0
 62
     3
100
AcDbLine
 10
579.126702
 20
475.915881
 30
0.0
 11
579.205405
 21
475.910029
 31
0.0
  0
LINE
  5
251
330
1F
100
AcDbEntity
  8
0
 62
     3
100
AcDbLine
 10
579.205405
 20
475.910029
 30
0.0
 11
579.284168
 21
475.915519
 31
0.0
  0
LINE
  5
252
330
1F
100
AcDbEntity
  8
0
 62
     3
100
AcDbLine
 10
579.284168
 20
475.915519
 30
0.0
 11
579.357682
 21
475.932231
 31
0.0
  0
LINE
  5
253
330
1F
100
AcDbEntity
  8
0
 62
     3
100
AcDbLine
 10
579.357682
 20
475.932231
 30
0.0
 11
579.426129
 21
475.960527
 31
0.0
  0
LINE
  5
254
330
1F
100
AcDbEntity
  8
0
 62
     3
100
AcDbLine
 10
579.426129
 20
475.960527
 30
0.0
 11
579.489688
 21
476.000768
 31
0.0
  0
LINE
  5
255
330
1F
100
AcDbEntity
  8
0
 62
     3
100
AcDbLine
 10
579.489688
 20
476.000768
 30
0.0
 11
579.548542
 21
476.053317
 31
0.0
  0
LINE
  5
256
330
1F
100
AcDbEntity
  8
0
 62
     3
100
AcDbLine
 10
579.548542
 20
476.053317
 30
0.0
 11
579.597803
 21
476.115369
 31
0.0
  0
LINE
  5
257
330
1F
100
AcDbEntity
  8
0
 62
     3
100
AcDbLine
 10
579.597803
 20
476.115369
 30
0.0
 11
579.636747
 21
476.184117
 31
0.0
  0
LINE
  5
258
330
1F
100
AcDbEntity
  8
0
 62
     3
100
AcDbLine
 10
579.636747
 20
476.184117
 30
0.0
 11
579.665012
 21
476.259924
 31
0.0
  0
LINE
  5
259
330
1F
100
AcDbEntity
  8
0
 62
     3
100
AcDbLine
 10
579.665012
 20
476.259924
 30
0.0
 11
579.682237
 21
476.343151
 31
0.0
  0
LINE
  5
260
330
1F
100
AcDbEntity
  8
0
 62
     3
100
AcDbLine
 10
579.682237
 20
476.343151
 30
0.0
 11
579.688059
 21
476.434162
 31
0.0
  0
LINE
  5
261
330
1F
100
AcDbEntity
  8
0
 62
     3
100
AcDbLine
 10
577.807403
 20
476.494494
 30
0.0
 11
577.807403
 21
476.196605
 31
0.0
  0
LINE
  5
262
330
1F
100
AcDbEntity
  8
0
 62
     3
100
AcDbLine
 10
577.807403
 20
476.196605
 30
0.0
 11
576.894884
 21
476.196605
 31
0.0
  0
LINE
  5
263
330
1F
100
AcDbEntity
  8
0
 62
     3
100
AcDbLine
 10
576.894884
 20
476.196605
 30
0.0
 11
576.894884
 21
476.494494
 31
0.0
  0
LINE
  5
264
330
1F
100
AcDbEntity
  8
0
 62
     3
100
AcDbLine
 10
576.894884
 20
476.494494
 30
0.0
 11
577.807403
 21
476.494494
 31
0.0
  0
LINE
  5
265
330
1F
100
AcDbEntity
  8
0
 62
     3
100
AcDbLine
 10
576.269884
 20
475.242608
 30
0.0
 11
576.194469
 21
475.008823
 31
0.0
  0
LINE
  5
266
330
1F
100
AcDbEntity
  8
0
 62
     3
100
AcDbLine
 10
576.194469
 20
475.008823
 30
0.0
 11
576.096219
 21
475.044117
 31
0.0
  0
LINE
  5
267
330
1F
100
AcDbEntity
  8
0
 62
     3
100
AcDbLine
 10
576.096219
 20
475.044117
 30
0.0
 11
576.009371
 21
475.077601
 31
0.0
  0
LINE
  5
268
330
1F
100
AcDbEntity
  8
0
 62
     3
100
AcDbLine
 10
576.009371
 20
475.077601
 30
0.0
 11
575.933564
 21
475.109275
 31
0.0
  0
LINE
  5
269
330
1F
100
AcDbEntity
  8
0
 62
     3
100
AcDbLine
 10
575.933564
 20
475.109275
 30
0.0
 11
575.868436
 21
475.139139
 31
0.0
  0
LINE
  5
270
330
1F
100
AcDbEntity
  8
0
 62
     3
100
AcDbLine
 10
575.868436
 20
475.139139
 30
0.0
 11
575.813625
 21
475.167194
 31
0.0
  0
LINE
  5
271
330
1F
100
AcDbEntity
  8
0
 62
     3
100
AcDbLine
 10
575.813625
 20
475.167194
 30
0.0
 11
575.825842
 21
475.056786
 31
0.0
  0
LINE
  5
272
330
1F
100
AcDbEntity
  8
0
 62
     3
100
AcDbLine
 10
575.825842
 20
475.056786
 30
0.0
 11
575.835344
 21
474.960859
 31
0.0
  0
LINE
  5
273
330
1F
100
AcDbEntity
  8
0
 62
     3
100
AcDbLine
 10
575.835344
 20
474.960859
 30
0.0
 11
575.842132
 21
474.879411
 31
0.0
  0
LINE
  5
274
330
1F
100
AcDbEntity
  8
0
 62
     3
100
AcDbLine
 10
575.842132
 20
474.879411
 30
0.0
 11
575.846204
 21
474.812443
 31
0.0
  0
LINE
  5
275
330
1F
100
AcDbEntity
  8
0
 62
     3
100
AcDbLine
 10
575.846204
 20
474.812443
 30
0.0
 11
575.847561
 21
474.759954
 31
0.0
  0
LINE
  5
276
330
1F
100
AcDbEntity
  8
0
 62
     3
100
AcDbLine
 10
575.847561
 20
474.759954
 30
0.0
 11
575.610005
 21
474.759954
 31
0.0
  0
LINE
  5
277
330
1F
100
AcDbEntity
  8
0
 62
     3
100
AcDbLine
 10
575.610005
 20
474.759954
 30
0.0
 11
575.611754
 21
474.826922
 31
0.0
  0
LINE
  5
278
330
1F
100
AcDbEntity
  8
0
 62
     3
100
AcDbLine
 10
575.611754
 20
474.826922
 30
0.0
 11
575.616762
 21
474.90113
 31
0.0
  0
LINE
  5
279
330
1F
100
AcDbEntity
  8
0
 62
     3
100
AcDbLine
 10
575.616762
 20
474.90113
 30
0.0
 11
575.624665
 21
474.982578
 31
0.0
  0
LINE
  5
280
330
1F
100
AcDbEntity
  8
0
 62
     3
100
AcDbLine
 10
575.624665
 20
474.982578
 30
0.0
 11
575.635103
 21
475.071266
 31
0.0
  0
LINE
  5
281
330
1F
100
AcDbEntity
  8
0
 62
     3
100
AcDbLine
 10
575.635103
 20
475.071266
 30
0.0
 11
575.647712
 21
475.167194
 31
0.0
  0
LINE
  5
282
330
1F
100
AcDbEntity
  8
0
 62
     3
100
AcDbLine
 10
575.647712
 20
475.167194
 30
0.0
 11
575.577999
 21
475.133709
 31
0.0
  0
LINE
  5
283
330
1F
100
AcDbEntity
  8
0
 62
     3
100
AcDbLine
 10
575.577999
 20
475.133709
 30
0.0
 11
575.504485
 21
475.10113
 31
0.0
  0
LINE
  5
284
330
1F
100
AcDbEntity
  8
0
 62
     3
100
AcDbLine
 10
575.504485
 20
475.10113
 30
0.0
 11
575.426988
 21
475.069456
 31
0.0
  0
LINE
  5
285
330
1F
100
AcDbEntity
  8
0
 62
     3
100
AcDbLine
 10
575.426988
 20
475.069456
 30
0.0
 11
575.345329
 21
475.038687
 31
0.0
  0
LINE
  5
286
330
1F
100
AcDbEntity
  8
0
 62
     3
100
AcDbLine
 10
575.345329
 20
475.038687
 30
0.0
 11
575.259326
 21
475.008823
 31
0.0
  0
LINE
  5
287
330
1F
100
AcDbEntity
  8
0
 62
     3
100
AcDbLine
 10
575.259326
 20
475.008823
 30
0.0
 11
575.183911
 21
475.242608
 31
0.0
  0
LINE
  5
288
330
1F
100
AcDbEntity
  8
0
 62
     3
100
AcDbLine
 10
575.183911
 20
475.242608
 30
0.0
 11
575.265751
 21
475.267948
 31
0.0
  0
LINE
  5
289
330
1F
100
AcDbEntity
  8
0
 62
     3
100
AcDbLine
 10
575.265751
 20
475.267948
 30
0.0
 11
575.348135
 21
475.289667
 31
0.0
  0
LINE
  5
290
330
1F
100
AcDbEntity
  8
0
 62
     3
100
AcDbLine
 10
575.348135
 20
475.289667
 30
0.0
 11
575.430699
 21
475.307767
 31
0.0
  0
LINE
  5
291
330
1F
100
AcDbEntity
  8
0
 62
     3
100
AcDbLine
 10
575.430699
 20
475.307767
 30
0.0
 11
575.513082
 21
475.322246
 31
0.0
  0
LINE
  5
292
330
1F
100
AcDbEntity
  8
0
 62
     3
100
AcDbLine
 10
575.513082
 20
475.322246
 30
0.0
 11
575.594922
 21
475.333106
 31
0.0
  0
LINE
  5
293
330
1F
100
AcDbEntity
  8
0
 62
     3
100
AcDbLine
 10
575.594922
 20
475.333106
 30
0.0
 11
575.551031
 21
475.374343
 31
0.0
  0
LINE
  5
294
330
1F
100
AcDbEntity
  8
0
 62
     3
100
AcDbLine
 10
575.551031
 20
475.374343
 30
0.0
 11
575.500804
 21
475.425897
 31
0.0
  0
LINE
  5
295
330
1F
100
AcDbEntity
  8
0
 62
     3
100
AcDbLine
 10
575.500804
 20
475.425897
 30
0.0
 11
575.444243
 21
475.488129
 31
0.0
  0
LINE
  5
296
330
1F
100
AcDbEntity
  8
0
 62
     3
100
AcDbLine
 10
575.444243
 20
475.488129
 30
0.0
 11
575.381347
 21
475.561402
 31
0.0
  0
LINE
  5
297
330
1F
100
AcDbEntity
  8
0
 62
     3
100
AcDbLine
 10
575.381347
 20
475.561402
 30
0.0
 11
575.312116
 21
475.646078
 31
0.0
  0
LINE
  5
298
330
1F
100
AcDbEntity
  8
0
 62
     3
100
AcDbLine
 10
575.312116
 20
475.646078
 30
0.0
 11
575.508195
 21
475.785595
 31
0.0
  0
LINE
  5
299
330
1F
100
AcDbEntity
  8
0
 62
     3
100
AcDbLine
 10
575.508195
 20
475.785595
 30
0.0
 11
575.546204
 21
475.731357
 31
0.0
  0
LINE
  5
300
330
1F
100
AcDbEntity
  8
0
 62
     3
100
AcDbLine
 10
575.546204
 20
475.731357
 30
0.0
 11
575.587833
 21
475.66843
 31
0.0
  0
LINE
  5
301
330
1F
100
AcDbEntity
  8
0
 62
     3
100
AcDbLine
 10
575.587833
 20
475.66843
 30
0.0
 11
575.633082
 21
475.597179
 31
0.0
  0
LINE
  5
302
330
1F
100
AcDbEntity
  8
0
 62
     3
100
AcDbLine
 10
575.633082
 20
475.597179
 30
0.0
 11
575.681951
 21
475.517963
 31
0.0
  0
LINE
  5
303
330
1F
100
AcDbEntity
  8
0
 62
     3
100
AcDbLine
 10
575.681951
 20
475.517963
 30
0.0
 11
575.734439
 21
475.431145
 31
0.0
  0
LINE
  5
304
330
1F
100
AcDbEntity
  8
0
 62
     3
100
AcDbLine
 10
575.734439
 20
475.431145
 30
0.0
 11
575.781015
 21
475.519411
 31
0.0
  0
LINE
  5
305
330
1F
100
AcDbEntity
  8
0
 62
     3
100
AcDbLine
 10
575.781015
 20
475.519411
 30
0.0
 11
575.825601
 21
475.598808
 31
0.0
  0
LINE
  5
306
330
1F
100
AcDbEntity
  8
0
 62
     3
100
AcDbLine
 10
575.825601
 20
475.598808
 30
0.0
 11
575.868014
 21
475.669516
 31
0.0
  0
LINE
  5
307
330
1F
100
AcDbEntity
  8
0
 62
     3
100
AcDbLine
 10
575.868014
 20
475.669516
 30
0.0
 11
575.908074
 21
475.731719
 31
0.0
  0
LINE
  5
308
330
1F
100
AcDbEntity
  8
0
 62
     3
100
AcDbLine
 10
575.908074
 20
475.731719
 30
0.0
 11
575.945601
 21
475.785595
 31
0.0
  0
LINE
  5
309
330
1F
100
AcDbEntity
  8
0
 62
     3
100
AcDbLine
 10
575.945601
 20
475.785595
 30
0.0
 11
576.141679
 21
475.646078
 31
0.0
  0
LINE
  5
310
330
1F
100
AcDbEntity
  8
0
 62
     3
100
AcDbLine
 10
576.141679
 20
475.646078
 30
0.0
 11
576.069251
 21
475.55923
 31
0.0
  0
LINE
  5
311
330
1F
100
AcDbEntity
  8
0
 62
     3
100
AcDbLine
 10
576.069251
 20
475.55923
 30
0.0
 11
576.005691
 21
475.484328
 31
0.0
  0
LINE
  5
312
330
1F
100
AcDbEntity
  8
0
 62
     3
100
AcDbLine
 10
576.005691
 20
475.484328
 30
0.0
 11
575.950819
 21
475.421553
 31
0.0
  0
LINE
  5
313
330
1F
100
AcDbEntity
  8
0
 62
     3
100
AcDbLine
 10
575.950819
 20
475.421553
 30
0.0
 11
575.904454
 21
475.371085
 31
0.0
  0
LINE
  5
314
330
1F
100
AcDbEntity
  8
0
 62
     3
100
AcDbLine
 10
575.904454
 20
475.371085
 30
0.0
 11
575.866415
 21
475.333106
 31
0.0
  0
LINE
  5
315
330
1F
100
AcDbEntity
  8
0
 62
     3
100
AcDbLine
 10
575.866415
 20
475.333106
 30
0.0
 11
575.949643
 21
475.318627
 31
0.0
  0
LINE
  5
316
330
1F
100
AcDbEntity
  8
0
 62
     3
100
AcDbLine
 10
575.949643
 20
475.318627
 30
0.0
 11
576.031785
 21
475.302337
 31
0.0
  0
LINE
  5
317
330
1F
100
AcDbEntity
  8
0
 62
     3
100
AcDbLine
 10
576.031785
 20
475.302337
 30
0.0
 11
576.112659
 21
475.284237
 31
0.0
  0
LINE
  5
318
330
1F
100
AcDbEntity
  8
0
 62
     3
100
AcDbLine
 10
576.112659
 20
475.284237
 30
0.0
 11
576.192086
 21
475.264328
 31
0.0
  0
LINE
  5
319
330
1F
100
AcDbEntity
  8
0
 62
     3
100
AcDbLine
 10
576.192086
 20
475.264328
 30
0.0
 11
576.269884
 21
475.242608
 31
0.0
  0
LINE
  5
320
330
1F
100
AcDbEntity
  8
0
 62
     3
100
AcDbLine
 10
574.558911
 20
476.494494
 30
0.0
 11
574.558911
 21
476.196605
 31
0.0
  0
LINE
  5
321
330
1F
100
AcDbEntity
  8
0
 62
     3
100
AcDbLine
 10
574.558911
 20
476.196605
 30
0.0
 11
573.646392
 21
476.196605
 31
0.0
  0
LINE
  5
322
330
1F
100
AcDbEntity
  8
0
 62
     3
100
AcDbLine
 10
573.646392
 20
476.196605
 30
0.0
 11
573.646392
 21
476.494494
 31
0.0
  0
LINE
  5
323
330
1F
100
AcDbEntity
  8
0
 62
     3
100
AcDbLine
 10
573.646392
 20
476.494494
 30
0.0
 11
574.558911
 21
476.494494
 31
0.0
  0
LINE
  5
324
330
1F
100
AcDbEntity
  8
0
 62
     3
100
AcDbLine
 10
571.464077
 20
475.393438
 30
0.0
 11
571.758195
 21
475.416062
 31
0.0
  0
LINE
  5
325
330
1F
100
AcDbEntity
  8
0
 62
     3
100
AcDbLine
 10
571.758195
 20
475.416062
 30
0.0
 11
571.775389
 21
475.351417
 31
0.0
  0
LINE
  5
326
330
1F
100
AcDbEntity
  8
0
 62
     3
100
AcDbLine
 10
571.775389
 20
475.351417
 30
0.0
 11
571.795299
 21
475.293468
 31
0.0
  0
LINE
  5
327
330
1F
100
AcDbEntity
  8
0
 62
     3
100
AcDbLine
 10
571.795299
 20
475.293468
 30
0.0
 11
571.817923
 21
475.242578
 31
0.0
  0
LINE
  5
328
330
1F
100
AcDbEntity
  8
0
 62
     3
100
AcDbLine
 10
571.817923
 20
475.242578
 30
0.0
 11
571.843263
 21
475.199109
 31
0.0
  0
LINE
  5
329
330
1F
100
AcDbEntity
  8
0
 62
     3
100
AcDbLine
 10
571.843263
 20
475.199109
 30
0.0
 11
571.871317
 21
475.163423
 31
0.0
  0
LINE
  5
330
330
1F
100
AcDbEntity
  8
0
 62
     3
100
AcDbLine
 10
571.871317
 20
475.163423
 30
0.0
 11
571.921121
 21
475.118234
 31
0.0
  0
LINE
  5
331
330
1F
100
AcDbEntity
  8
0
 62
     3
100
AcDbLine
 10
571.921121
 20
475.118234
 30
0.0
 11
571.975631
 21
475.082458
 31
0.0
  0
LINE
  5
332
330
1F
100
AcDbEntity
  8
0
 62
     3
100
AcDbLine
 10
571.975631
 20
475.082458
 30
0.0
 11
572.035027
 21
475.056455
 31
0.0
  0
LINE
  5
333
330
1F
100
AcDbEntity
  8
0
 62
     3
100
AcDbLine
 10
572.035027
 20
475.056455
 30
0.0
 11
572.099492
 21
475.040587
 31
0.0
  0
LINE
  5
334
330
1F
100
AcDbEntity
  8
0
 62
     3
100
AcDbLine
 10
572.099492
 20
475.040587
 30
0.0
 11
572.169205
 21
475.035218
 31
0.0
  0
LINE
  5
335
330
1F
100
AcDbEntity
  8
0
 62
     3
100
AcDbLine
 10
572.169205
 20
475.035218
 30
0.0
 11
572.224439
 21
475.038385
 31
0.0
  0
LINE
  5
336
330
1F
100
AcDbEntity
  8
0
 62
     3
100
AcDbLine
 10
572.224439
 20
475.038385
 30
0.0
 11
572.277139
 21
475.047887
 31
0.0
  0
LINE
  5
337
330
1F
100
AcDbEntity
  8
0
 62
     3
100
AcDbLine
 10
572.277139
 20
475.047887
 30
0.0
 11
572.327486
 21
475.063725
 31
0.0
  0
LINE
  5
338
330
1F
100
AcDbEntity
  8
0
 62
     3
100
AcDbLine
 10
572.327486
 20
475.063725
 30
0.0
 11
572.375661
 21
475.085897
 31
0.0
  0
LINE
  5
339
330
1F
100
AcDbEntity
  8
0
 62
     3
100
AcDbLine
 10
572.375661
 20
475.085897
 30
0.0
 11
572.421845
 21
475.114403
 31
0.0
  0
LINE
  5
340
330
1F
100
AcDbEntity
  8
0
 62
     3
100
AcDbLine
 10
572.421845
 20
475.114403
 30
0.0
 11
572.474304
 21
475.158777
 31
0.0
  0
LINE
  5
341
330
1F
100
AcDbEntity
  8
0
 62
     3
100
AcDbLine
 10
572.474304
 20
475.158777
 30
0.0
 11
572.522961
 21
475.210572
 31
0.0
  0
LINE
  5
342
330
1F
100
AcDbEntity
  8
0
 62
     3
100
AcDbLine
 10
572.522961
 20
475.210572
 30
0.0
 11
572.567637
 21
475.269969
 31
0.0
  0
LINE
  5
343
330
1F
100
AcDbEntity
  8
0
 62
     3
100
AcDbLine
 10
572.567637
 20
475.269969
 30
0.0
 11
572.60815
 21
475.337148
 31
0.0
  0
LINE
  5
344
330
1F
100
AcDbEntity
  8
0
 62
     3
100
AcDbLine
 10
572.60815
 20
475.337148
 30
0.0
 11
572.644319
 21
475.412292
 31
0.0
  0
LINE
  5
345
330
1F
100
AcDbEntity
  8
0
 62
     3
100
AcDbLine
 10
572.644319
 20
475.412292
 30
0.0
 11
572.672856
 21
475.496394
 31
0.0
  0
LINE
  5
346
330
1F
100
AcDbEntity
  8
0
 62
     3
100
AcDbLine
 10
572.672856
 20
475.496394
 30
0.0
 11
572.695239
 21
475.594614
 31
0.0
  0
LINE
  5
347
330
1F
100
AcDbEntity
  8
0
 62
     3
100
AcDbLine
 10
572.695239
 20
475.594614
 30
0.0
 11
572.711649
 21
475.70659
 31
0.0
  0
LINE
  5
348
330
1F
100
AcDbEntity
  8
0
 62
     3
100
AcDbLine
 10
572.711649
 20
475.70659
 30
0.0
 11
572.722267
 21
475.83196
 31
0.0
  0
LINE
  5
349
330
1F
100
AcDbEntity
  8
0
 62
     3
100
AcDbLine
 10
572.722267
 20
475.83196
 30
0.0
 11
572.727275
 21
475.970361
 31
0.0
  0
LINE
  5
350
330
1F
100
AcDbEntity
  8
0
 62
     3
100
AcDbLine
 10
572.727275
 20
475.970361
 30
0.0
 11
572.683896
 21
475.909788
 31
0.0
  0
LINE
  5
351
330
1F
100
AcDbEntity
  8
0
 62
     3
100
AcDbLine
 10
572.683896
 20
475.909788
 30
0.0
 11
572.63545
 21
475.855007
 31
0.0
  0
LINE
  5
352
330
1F
100
AcDbEntity
  8
0
 62
     3
100
AcDbLine
 10
572.63545
 20
475.855007
 30
0.0
 11
572.582297
 21
475.806379
 31
0.0
  0
LINE
  5
353
330
1F
100
AcDbEntity
  8
0
 62
     3
100
AcDbLine
 10
572.582297
 20
475.806379
 30
0.0
 11
572.524801
 21
475.764268
 31
0.0
  0
LINE
  5
354
330
1F
100
AcDbEntity
  8
0
 62
     3
100
AcDbLine
 10
572.524801
 20
475.764268
 30
0.0
 11
572.463323
 21
475.729034
 31
0.0
  0
LINE
  5
355
330
1F
100
AcDbEntity
  8
0
 62
     3
100
AcDbLine
 10
572.463323
 20
475.729034
 30
0.0
 11
572.401362
 21
475.700527
 31
0.0
  0
LINE
  5
356
330
1F
100
AcDbEntity
  8
0
 62
     3
100
AcDbLine
 10
572.401362
 20
475.700527
 30
0.0
 11
572.337773
 21
475.678355
 31
0.0
  0
LINE
  5
357
330
1F
100
AcDbEntity
  8
0
 62
     3
100
AcDbLine
 10
572.337773
 20
475.678355
 30
0.0
 11
572.272735
 21
475.662518
 31
0.0
  0
LINE
  5
358
330
1F
100
AcDbEntity
  8
0
 62
     3
100
AcDbLine
 10
572.272735
 20
475.662518
 30
0.0
 11
572.20643
 21
475.653016
 31
0.0
  0
LINE
  5
359
330
1F
100
AcDbEntity
  8
0
 62
     3
100
AcDbLine
 10
572.20643
 20
475.653016
 30
0.0
 11
572.13904
 21
475.649848
 31
0.0
  0
LINE
  5
360
330
1F
100
AcDbEntity
  8
0
 62
     3
100
AcDbLine
 10
572.13904
 20
475.649848
 30
0.0
 11
572.024952
 21
475.658476
 31
0.0
  0
LINE
  5
361
330
1F
100
AcDbEntity
  8
0
 62
     3
100
AcDbLine
 10
572.024952
 20
475.658476
 30
0.0
 11
571.917742
 21
475.684479
 31
0.0
  0
LINE
  5
362
330
1F
100
AcDbEntity
  8
0
 62
     3
100
AcDbLine
 10
571.917742
 20
475.684479
 30
0.0
 11
571.817049
 21
475.728038
 31
0.0
  0
LINE
  5
363
330
1F
100
AcDbEntity
  8
0
 62
     3
100
AcDbLine
 10
571.817049
 20
475.728038
 30
0.0
 11
571.722509
 21
475.789335
 31
0.0
  0
LINE
  5
364
330
1F
100
AcDbEntity
  8
0
 62
     3
100
AcDbLine
 10
571.722509
 20
475.789335
 30
0.0
 11
571.633761
 21
475.868551
 31
0.0
  0
LINE
  5
365
330
1F
100
AcDbEntity
  8
0
 62
     3
100
AcDbLine
 10
571.633761
 20
475.868551
 30
0.0
 11
571.560065
 21
475.959954
 31
0.0
  0
LINE
  5
366
330
1F
100
AcDbEntity
  8
0
 62
     3
100
AcDbLine
 10
571.560065
 20
475.959954
 30
0.0
 11
571.502116
 21
476.062216
 31
0.0
  0
LINE
  5
367
330
1F
100
AcDbEntity
  8
0
 62
     3
100
AcDbLine
 10
571.502116
 20
476.062216
 30
0.0
 11
571.460276
 21
476.175338
 31
0.0
  0
LINE
  5
368
330
1F
100
AcDbEntity
  8
0
 62
     3
100
AcDbLine
 10
571.460276
 20
476.175338
 30
0.0
 11
571.434907
 21
476.29932
 31
0.0
  0
LINE
  5
369
330
1F
100
AcDbEntity
  8
0
 62
     3
100
AcDbLine
 10
571.434907
 20
476.29932
 30
0.0
 11
571.42637
 21
476.434162
 31
0.0
  0
LINE
  5
370
330
1F
100
AcDbEntity
  8
0
 62
     3
100
AcDbLine
 10
571.42637
 20
476.434162
 30
0.0
 11
571.43005
 21
476.523332
 31
0.0
  0
LINE
  5
371
330
1F
100
AcDbEntity
  8
0
 62
     3
100
AcDbLine
 10
571.43005
 20
476.523332
 30
0.0
 11
571.441332
 21
476.609969
 31
0.0
  0
LINE
  5
372
330
1F
100
AcDbEntity
  8
0
 62
     3
100
AcDbLine
 10
571.441332
 20
476.609969
 30
0.0
 11
571.460578
 21
476.694252
 31
0.0
  0
LINE
  5
373
330
1F
100
AcDbEntity
  8
0
 62
     3
100
AcDbLine
 10
571.460578
 20
476.694252
 30
0.0
 11
571.48815
 21
476.776364
 31
0.0
  0
LINE
  5
374
330
1F
100
AcDbEntity
  8
0
 62
     3
100
AcDbLine
 10
571.48815
 20
476.776364
 30
0.0
 11
571.524409
 21
476.856485
 31
0.0
  0
LINE
  5
375
330
1F
100
AcDbEntity
  8
0
 62
     3
100
AcDbLine
 10
571.524409
 20
476.856485
 30
0.0
 11
571.566008
 21
476.93018
 31
0.0
  0
LINE
  5
376
330
1F
100
AcDbEntity
  8
0
 62
     3
100
AcDbLine
 10
571.566008
 20
476.93018
 30
0.0
 11
571.613761
 21
476.997179
 31
0.0
  0
LINE
  5
377
330
1F
100
AcDbEntity
  8
0
 62
     3
100
AcDbLine
 10
571.613761
 20
476.997179
 30
0.0
 11
571.667486
 21
477.057118
 31
0.0
  0
LINE
  5
378
330
1F
100
AcDbEntity
  8
0
 62
     3
100
AcDbLine
 10
571.667486
 20
477.057118
 30
0.0
 11
571.727003
 21
477.109637
 31
0.0
  0
LINE
  5
379
330
1F
100
AcDbEntity
  8
0
 62
     3
100
AcDbLine
 10
571.727003
 20
477.109637
 30
0.0
 11
571.792132
 21
477.154373
 31
0.0
  0
LINE
  5
380
330
1F
100
AcDbEntity
  8
0
 62
     3
100
AcDbLine
 10
571.792132
 20
477.154373
 30
0.0
 11
571.862237
 21
477.191417
 31
0.0
  0
LINE
  5
381
330
1F
100
AcDbEntity
  8
0
 62
     3
100
AcDbLine
 10
571.862237
 20
477.191417
 30
0.0
 11
571.936687
 21
477.220859
 31
0.0
  0
LINE
  5
382
330
1F
100
AcDbEntity
  8
0
 62
     3
100
AcDbLine
 10
571.936687
 20
477.220859
 30
0.0
 11
572.015299
 21
477.242337
 31
0.0
  0
LINE
  5
383
330
1F
100
AcDbEntity
  8
0
 62
     3
100
AcDbLine
 10
572.015299
 20
477.242337
 30
0.0
 11
572.097893
 21
477.255489
 31
0.0
  0
LINE
  5
384
330
1F
100
AcDbEntity
  8
0
 62
     3
100
AcDbLine
 10
572.097893
 20
477.255489
 30
0.0
 11
572.184288
 21
477.259954
 31
0.0
  0
LINE
  5
385
330
1F
100
AcDbEntity
  8
0
 62
     3
100
AcDbLine
 10
572.184288
 20
477.259954
 30
0.0
 11
572.325948
 21
477.249094
 31
0.0
  0
LINE
  5
386
330
1F
100
AcDbEntity
  8
0
 62
     3
100
AcDbLine
 10
572.325948
 20
477.249094
 30
0.0
 11
572.456928
 21
477.216515
 31
0.0
  0
LINE
  5
387
330
1F
100
AcDbEntity
  8
0
 62
     3
100
AcDbLine
 10
572.456928
 20
477.216515
 30
0.0
 11
572.577411
 21
477.162216
 31
0.0
  0
LINE
  5
388
330
1F
100
AcDbEntity
  8
0
 62
     3
100
AcDbLine
 10
572.577411
 20
477.162216
 30
0.0
 11
572.687577
 21
477.086198
 31
0.0
  0
LINE
  5
389
330
1F
100
AcDbEntity
  8
0
 62
     3
100
AcDbLine
 10
572.687577
 20
477.086198
 30
0.0
 11
572.787607
 21
476.988461
 31
0.0
  0
LINE
  5
390
330
1F
100
AcDbEntity
  8
0
 62
     3
100
AcDbLine
 10
572.787607
 20
476.988461
 30
0.0
 11
572.871287
 21
476.865414
 31
0.0
  0
LINE
  5
391
330
1F
100
AcDbEntity
  8
0
 62
     3
100
AcDbLine
 10
572.871287
 20
476.865414
 30
0.0
 11
572.936687
 21
476.713589
 31
0.0
  0
LINE
  5
392
330
1F
100
AcDbEntity
  8
0
 62
     3
100
AcDbLine
 10
572.936687
 20
476.713589
 30
0.0
 11
572.983625
 21
476.533167
 31
0.0
  0
LINE
  5
393
330
1F
100
AcDbEntity
  8
0
 62
     3
100
AcDbLine
 10
572.983625
 20
476.533167
 30
0.0
 11
573.01192
 21
476.324328
 31
0.0
  0
LINE
  5
394
330
1F
100
AcDbEntity
  8
0
 62
     3
100
AcDbLine
 10
573.01192
 20
476.324328
 30
0.0
 11
573.021392
 21
476.087254
 31
0.0
  0
LINE
  5
395
330
1F
100
AcDbEntity
  8
0
 62
     3
100
AcDbLine
 10
573.021392
 20
476.087254
 30
0.0
 11
573.010985
 21
475.822065
 31
0.0
  0
LINE
  5
396
330
1F
100
AcDbEntity
  8
0
 62
     3
100
AcDbLine
 10
573.010985
 20
475.822065
 30
0.0
 11
572.979764
 21
475.587465
 31
0.0
  0
LINE
  5
397
330
1F
100
AcDbEntity
  8
0
 62
     3
100
AcDbLine
 10
572.979764
 20
475.587465
 30
0.0
 11
572.927727
 21
475.383272
 31
0.0
  0
LINE
  5
398
330
1F
100
AcDbEntity
  8
0
 62
     3
100
AcDbLine
 10
572.927727
 20
475.383272
 30
0.0
 11
572.854877
 21
475.209305
 31
0.0
  0
LINE
  5
399
330
1F
100
AcDbEntity
  8
0
 62
     3
100
AcDbLine
 10
572.854877
 20
475.209305
 30
0.0
 11
572.761212
 21
475.065384
 31
0.0
  0
LINE
  5
400
330
1F
100
AcDbEntity
  8
0
 62
     3
100
AcDbLine
 10
572.761212
 20
475.065384
 30
0.0
 11
572.664379
 21
474.967254
 31
0.0
  0
LINE
  5
401
330
1F
100
AcDbEntity
  8
0
 62
     3
100
AcDbLine
 10
572.664379
 20
474.967254
 30
0.0
 11
572.554877
 21
474.890301
 31
0.0
  0
LINE
  5
402
330
1F
100
AcDbEntity
  8
0
 62
     3
100
AcDbLine
 10
572.554877
 20
474.890301
 30
0.0
 11
572.432705
 21
474.834886
 31
0.0
  0
LINE
  5
403
330
1F
100
AcDbEntity
  8
0
 62
     3
100
AcDbLine
 10
572.432705
 20
474.834886
 30
0.0
 11
572.297863
 21
474.801372
 31
0.0
  0
LINE
  5
404
330
1F
100
AcDbEntity
  8
0
 62
     3
100
AcDbLine
 10
572.297863
 20
474.801372
 30
0.0
 11
572.150352
 21
474.79012
 31
0.0
  0
LINE
  5
405
330
1F
100
AcDbEntity
  8
0
 62
     3
100
AcDbLine
 10
572.150352
 20
474.79012
 30
0.0
 11
572.041272
 21
474.796485
 31
0.0
  0
LINE
  5
406
330
1F
100
AcDbEntity
  8
0
 62
     3
100
AcDbLine
 10
572.041272
 20
474.796485
 30
0.0
 11
571.940156
 21
474.8157
 31
0.0
  0
LINE
  5
407
330
1F
100
AcDbEntity
  8
0
 62
     3
100
AcDbLine
 10
571.940156
 20
474.8157
 30
0.0
 11
571.846822
 21
474.847948
 31
0.0
  0
LINE
  5
408
330
1F
100
AcDbEntity
  8
0
 62
     3
100
AcDbLine
 10
571.846822
 20
474.847948
 30
0.0
 11
571.761091
 21
474.893408
 31
0.0
  0
LINE
  5
409
330
1F
100
AcDbEntity
  8
0
 62
     3
100
AcDbLine
 10
571.761091
 20
474.893408
 30
0.0
 11
571.68278
 21
474.952262
 31
0.0
  0
LINE
  5
410
330
1F
100
AcDbEntity
  8
0
 62
     3
100
AcDbLine
 10
571.68278
 20
474.952262
 30
0.0
 11
571.616234
 21
475.020587
 31
0.0
  0
LINE
  5
411
330
1F
100
AcDbEntity
  8
0
 62
     3
100
AcDbLine
 10
571.616234
 20
475.020587
 30
0.0
 11
571.561272
 21
475.098868
 31
0.0
  0
LINE
  5
412
330
1F
100
AcDbEntity
  8
0
 62
     3
100
AcDbLine
 10
571.561272
 20
475.098868
 30
0.0
 11
571.517712
 21
475.187103
 31
0.0
  0
LINE
  5
413
330
1F
100
AcDbEntity
  8
0
 62
     3
100
AcDbLine
 10
571.517712
 20
475.187103
 30
0.0
 11
571.485374
 21
475.285293
 31
0.0
  0
LINE
  5
414
330
1F
100
AcDbEntity
  8
0
 62
     3
100
AcDbLine
 10
571.485374
 20
475.285293
 30
0.0
 11
571.464077
 21
475.393438
 31
0.0
  0
LINE
  5
415
330
1F
100
AcDbEntity
  8
0
 62
     3
100
AcDbLine
 10
572.682026
 20
476.434162
 30
0.0
 11
572.679703
 21
476.494795
 31
0.0
  0
LINE
  5
416
330
1F
100
AcDbEntity
  8
0
 62
     3
100
AcDbLine
 10
572.679703
 20
476.494795
 30
0.0
 11
572.672494
 21
476.554524
 31
0.0
  0
LINE
  5
417
330
1F
100
AcDbEntity
  8
0
 62
     3
100
AcDbLine
 10
572.672494
 20
476.554524
 30
0.0
 11
572.660035
 21
476.613348
 31
0.0
  0
LINE
  5
418
330
1F
100
AcDbEntity
  8
0
 62
     3
100
AcDbLine
 10
572.660035
 20
476.613348
 30
0.0
 11
572.641966
 21
476.671266
 31
0.0
  0
LINE
  5
419
330
1F
100
AcDbEntity
  8
0
 62
     3
100
AcDbLine
 10
572.641966
 20
476.671266
 30
0.0
 11
572.617923
 21
476.72828
 31
0.0
  0
LINE
  5
420
330
1F
100
AcDbEntity
  8
0
 62
     3
100
AcDbLine
 10
572.617923
 20
476.72828
 30
0.0
 11
572.588964
 21
476.780316
 31
0.0
  0
LINE
  5
421
330
1F
100
AcDbEntity
  8
0
 62
     3
100
AcDbLine
 10
572.588964
 20
476.780316
 30
0.0
 11
572.556385
 21
476.827827
 31
0.0
  0
LINE
  5
422
330
1F
100
AcDbEntity
  8
0
 62
     3
100
AcDbLine
 10
572.556385
 20
476.827827
 30
0.0
 11
572.520186
 21
476.870814
 31
0.0
  0
LINE
  5
423
330
1F
100
AcDbEntity
  8
0
 62
     3
100
AcDbLine
 10
572.520186
 20
476.870814
 30
0.0
 11
572.480367
 21
476.909275
 31
0.0
  0
LINE
  5
424
330
1F
100
AcDbEntity
  8
0
 62
     3
100
AcDbLine
 10
572.480367
 20
476.909275
 30
0.0
 11
572.436928
 21
476.943212
 31
0.0
  0
LINE
  5
425
330
1F
100
AcDbEntity
  8
0
 62
     3
100
AcDbLine
 10
572.436928
 20
476.943212
 30
0.0
 11
572.390774
 21
476.968038
 31
0.0
  0
LINE
  5
426
330
1F
100
AcDbEntity
  8
0
 62
     3
100
AcDbLine
 10
572.390774
 20
476.968038
 30
0.0
 11
572.34281
 21
476.987978
 31
0.0
  0
LINE
  5
427
330
1F
100
AcDbEntity
  8
0
 62
     3
100
AcDbLine
 10
572.34281
 20
476.987978
 30
0.0
 11
572.293037
 21
477.002669
 31
0.0
  0
LINE
  5
428
330
1F
100
AcDbEntity
  8
0
 62
     3
100
AcDbLine
 10
572.293037
 20
477.002669
 30
0.0
 11
572.241453
 21
477.011749
 31
0.0
  0
LINE
  5
429
330
1F
100
AcDbEntity
  8
0
 62
     3
100
AcDbLine
 10
572.241453
 20
477.011749
 30
0.0
 11
572.188059
 21
477.014856
 31
0.0
  0
LINE
  5
430
330
1F
100
AcDbEntity
  8
0
 62
     3
100
AcDbLine
 10
572.188059
 20
477.014856
 30
0.0
 11
572.115631
 21
477.008943
 31
0.0
  0
LINE
  5
431
330
1F
100
AcDbEntity
  8
0
 62
     3
100
AcDbLine
 10
572.115631
 20
477.008943
 30
0.0
 11
572.047546
 21
476.991085
 31
0.0
  0
LINE
  5
432
330
1F
100
AcDbEntity
  8
0
 62
     3
100
AcDbLine
 10
572.047546
 20
476.991085
 30
0.0
 11
571.983625
 21
476.9611
 31
0.0
  0
LINE
  5
433
330
1F
100
AcDbEntity
  8
0
 62
     3
100
AcDbLine
 10
571.983625
 20
476.9611
 30
0.0
 11
571.923685
 21
476.918808
 31
0.0
  0
LINE
  5
434
330
1F
100
AcDbEntity
  8
0
 62
     3
100
AcDbLine
 10
571.923685
 20
476.918808
 30
0.0
 11
571.867546
 21
476.864026
 31
0.0
  0
LINE
  5
435
330
1F
100
AcDbEntity
  8
0
 62
     3
100
AcDbLine
 10
571.867546
 20
476.864026
 30
0.0
 11
571.818678
 21
476.798446
 31
0.0
  0
LINE
  5
436
330
1F
100
AcDbEntity
  8
0
 62
     3
100
AcDbLine
 10
571.818678
 20
476.798446
 30
0.0
 11
571.780669
 21
476.723996
 31
0.0
  0
LINE
  5
437
330
1F
100
AcDbEntity
  8
0
 62
     3
100
AcDbLine
 10
571.780669
 20
476.723996
 30
0.0
 11
571.753519
 21
476.640859
 31
0.0
  0
LINE
  5
438
330
1F
100
AcDbEntity
  8
0
 62
     3
100
AcDbLine
 10
571.753519
 20
476.640859
 30
0.0
 11
571.73723
 21
476.549215
 31
0.0
  0
LINE
  5
439
330
1F
100
AcDbEntity
  8
0
 62
     3
100
AcDbLine
 10
571.73723
 20
476.549215
 30
0.0
 11
571.7318
 21
476.449245
 31
0.0
  0
LINE
  5
440
330
1F
100
AcDbEntity
  8
0
 62
     3
100
AcDbLine
 10
571.7318
 20
476.449245
 30
0.0
 11
571.736837
 21
476.35377
 31
0.0
  0
LINE
  5
441
330
1F
100
AcDbEntity
  8
0
 62
     3
100
AcDbLine
 10
571.736837
 20
476.35377
 30
0.0
 11
571.752192
 21
476.26644
 31
0.0
  0
LINE
  5
442
330
1F
100
AcDbEntity
  8
0
 62
     3
100
AcDbLine
 10
571.752192
 20
476.26644
 30
0.0
 11
571.778225
 21
476.187254
 31
0.0
  0
LINE
  5
443
330
1F
100
AcDbEntity
  8
0
 62
     3
100
AcDbLine
 10
571.778225
 20
476.187254
 30
0.0
 11
571.815299
 21
476.116213
 31
0.0
  0
LINE
  5
444
330
1F
100
AcDbEntity
  8
0
 62
     3
100
AcDbLine
 10
571.815299
 20
476.116213
 30
0.0
 11
571.863776
 21
476.053317
 31
0.0
  0
LINE
  5
445
330
1F
100
AcDbEntity
  8
0
 62
     3
100
AcDbLine
 10
571.863776
 20
476.053317
 30
0.0
 11
571.918949
 21
476.002216
 31
0.0
  0
LINE
  5
446
330
1F
100
AcDbEntity
  8
0
 62
     3
100
AcDbLine
 10
571.918949
 20
476.002216
 30
0.0
 11
571.980276
 21
475.962156
 31
0.0
  0
LINE
  5
447
330
1F
100
AcDbEntity
  8
0
 62
     3
100
AcDbLine
 10
571.980276
 20
475.962156
 30
0.0
 11
572.047577
 21
475.933317
 31
0.0
  0
LINE
  5
448
330
1F
100
AcDbEntity
  8
0
 62
     3
100
AcDbLine
 10
572.047577
 20
475.933317
 30
0.0
 11
572.120669
 21
475.915881
 31
0.0
  0
LINE
  5
449
330
1F
100
AcDbEntity
  8
0
 62
     3
100
AcDbLine
 10
572.120669
 20
475.915881
 30
0.0
 11
572.199371
 21
475.910029
 31
0.0
  0
LINE
  5
450
330
1F
100
AcDbEntity
  8
0
 62
     3
100
AcDbLine
 10
572.199371
 20
475.910029
 30
0.0
 11
572.278135
 21
475.915519
 31
0.0
  0
LINE
  5
451
330
1F
100
AcDbEntity
  8
0
 62
     3
100
AcDbLine
 10
572.278135
 20
475.915519
 30
0.0
 11
572.351649
 21
475.932231
 31
0.0
  0
LINE
  5
452
330
1F
100
AcDbEntity
  8
0
 62
     3
100
AcDbLine
 10
572.351649
 20
475.932231
 30
0.0
 11
572.420095
 21
475.960527
 31
0.0
  0
LINE
  5
453
330
1F
100
AcDbEntity
  8
0
 62
     3
100
AcDbLine
 10
572.420095
 20
475.960527
 30
0.0
 11
572.483655
 21
476.000768
 31
0.0
  0
LINE
  5
454
330
1F
100
AcDbEntity
  8
0
 62
     3
100
AcDbLine
 10
572.483655
 20
476.000768
 30
0.0
 11
572.542509
 21
476.053317
 31
0.0
  0
LINE
  5
455
330
1F
100
AcDbEntity
  8
0
 62
     3
100
AcDbLine
 10
572.542509
 20
476.053317
 30
0.0
 11
572.59177
 21
476.115369
 31
0.0
  0
LINE
  5
456
330
1F
100
AcDbEntity
  8
0
 62
     3
100
AcDbLine
 10
572.59177
 20
476.115369
 30
0.0
 11
572.630714
 21
476.184117
 31
0.0
  0
LINE
  5
457
330
1F
100
AcDbEntity
  8
0
 62
     3
100
AcDbLine
 10
572.630714
 20
476.184117
 30
0.0
 11
572.658979
 21
476.259924
 31
0.0
  0
LINE
  5
458
330
1F
100
AcDbEntity
  8
0
 62
     3
100
AcDbLine
 10
572.658979
 20
476.259924
 30
0.0
 11
572.676204
 21
476.343151
 31
0.0
  0
LINE
  5
459
330
1F
100
AcDbEntity
  8
0
 62
     3
100
AcDbLine
 10
572.676204
 20
476.343151
 30
0.0
 11
572.682026
 21
476.434162
 31
0.0
  0
SPLINE
  5
460
330
1F
100
AcDbEntity
  8
0
 62
     0
100
AcDbSpline
210
0.0
220
0.0
230
1.0
 70
     8
 71
     3
 72
     8
 73
     4
 74
     0
 42
0.000000001
 43
0.0000000001
 40
0.0
 40
0.0
 40
0.0
 40
0.0
 40
1.0
 40
1.0
 40
1.0
 40
1.0
 10
654.36087
 20
402.136767
 30
0.0
 10
654.360583
 20
401.874907
 30
0.0
 10
654.430654
 20
401.613402
 30
0.0
 10
654.561831
 20
401.386767
 30
0.0
  0
SPLINE
  5
461
330
1F
100
AcDbEntity
  8
0
 62
     0
100
AcDbSpline
210
0.0
220
0.0
230
1.0
 70
     8
 71
     3
 72
     8
 73
     4
 74
     0
 42
0.000000001
 43
0.0000000001
 40
0.0
 40
0.0
 40
0.0
 40
0.0
 40
1.0
 40
1.0
 40
1.0
 40
1.0
 10
654.561831
 20
401.386767
 30
0.0
 10
654.692514
 20
401.159846
 30
0.0
 10
654.883949
 20
400.968411
 30
0.0
 10
655.11087
 20
400.837729
 30
0.0
  0
SPLINE
  5
462
330
1F
100
AcDbEntity
  8
0
 62
     0
100
AcDbSpline
210
0.0
220
0.0
230
1.0
 70
     8
 71
     3
 72
     8
 73
     4
 74
     0
 42
0.000000001
 43
0.0000000001
 40
0.0
 40
0.0
 40
0.0
 40
0.0
 40
1.0
 40
1.0
 40
1.0
 40
1.0
 10
655.11087
 20
400.837729
 30
0.0
 10
655.337504
 20
400.706551
 30
0.0
 10
655.599009
 20
400.636481
 30
0.0
 10
655.86087
 20
400.636767
 30
0.0
  0
SPLINE
  5
463
330
1F
100
AcDbEntity
  8
0
 62
     0
100
AcDbSpline
210
0.0
220
0.0
230
1.0
 70
     8
 71
     3
 72
     8
 73
     4
 74
     0
 42
0.000000001
 43
0.0000000001
 40
0.0
 40
0.0
 40
0.0
 40
0.0
 40
1.0
 40
1.0
 40
1.0
 40
1.0
 10
655.86087
 20
400.636767
 30
0.0
 10
656.12273
 20
400.636481
 30
0.0
 10
656.384235
 20
400.706551
 30
0.0
 10
656.61087
 20
400.837729
 30
0.0
  0
SPLINE
  5
464
330
1F
100
AcDbEntity
  8
0
 62
     0
100
AcDbSpline
210
0.0
220
0.0
230
1.0
 70
     8
 71
     3
 72
     8
 73
     4
 74
     0
 42
0.000000001
 43
0.0000000001
 40
0.0
 40
0.0
 40
0.0
 40
0.0
 40
1.0
 40
1.0
 40
1.0
 40
1.0
 10
656.61087
 20
400.837729
 30
0.0
 10
656.83779
 20
400.968411
 30
0.0
 10
657.029225
 20
401.159846
 30
0.0
 10
657.159908
 20
401.386767
 30
0.0
  0
SPLINE
  5
465
330
1F
100
AcDbEntity
  8
0
 62
     0
100
AcDbSpline
210
0.0
220
0.0
230
1.0
 70
     8
 71
     3
 72
     8
 73
     4
 74
     0
 42
0.000000001
 43
0.0000000001
 40
0.0
 40
0.0
 40
0.0
 40
0.0
 40
1.0
 40
1.0
 40
1.0
 40
1.0
 10
657.159908
 20
401.386767
 30
0.0
 10
657.291086
 20
401.613402
 30
0.0
 10
657.361156
 20
401.874907
 30
0.0
 10
657.36087
 20
402.136767
 30
0.0
  0
SPLINE
  5
466
330
1F
100
AcDbEntity
  8
0
 62
     0
100
AcDbSpline
210
0.0
220
0.0
230
1.0
 70
     8
 71
     3
 72
     8
 73
     4
 74
     0
 42
0.000000001
 43
0.0000000001
 40
0.0
 40
0.0
 40
0.0
 40
0.0
 40
1.0
 40
1.0
 40
1.0
 40
1.0
 10
657.36087
 20
402.136767
 30
0.0
 10
657.361156
 20
402.398627
 30
0.0
 10
657.291086
 20
402.660133
 30
0.0
 10
657.159908
 20
402.886767
 30
0.0
  0
SPLINE
  5
467
330
1F
100
AcDbEntity
  8
0
 62
     0
100
AcDbSpline
210
0.0
220
0.0
230
1.0
 70
     8
 71
     3
 72
     8
 73
     4
 74
     0
 42
0.000000001
 43
0.0000000001
 40
0.0
 40
0.0
 40
0.0
 40
0.0
 40
1.0
 40
1.0
 40
1.0
 40
1.0
 10
657.159908
 20
402.886767
 30
0.0
 10
657.029225
 20
403.113688
 30
0.0
 10
656.83779
 20
403.305123
 30
0.0
 10
656.61087
 20
403.435805
 30
0.0
  0
SPLINE
  5
468
330
1F
100
AcDbEntity
  8
0
 62
     0
100
AcDbSpline
210
0.0
220
0.0
230
1.0
 70
     8
 71
     3
 72
     8
 73
     4
 74
     0
 42
0.000000001
 43
0.0000000001
 40
0.0
 40
0.0
 40
0.0
 40
0.0
 40
1.0
 40
1.0
 40
1.0
 40
1.0
 10
656.61087
 20
403.435805
 30
0.0
 10
656.384235
 20
403.566983
 30
0.0
 10
656.12273
 20
403.637053
 30
0.0
 10
655.86087
 20
403.636767
 30
0.0
  0
SPLINE
  5
469
330
1F
100
AcDbEntity
  8
0
 62
     0
100
AcDbSpline
210
0.0
220
0.0
230
1.0
 70
     8
 71
     3
 72
     8
 73
     4
 74
     0
 42
0.000000001
 43
0.0000000001
 40
0.0
 40
0.0
 40
0.0
 40
0.0
 40
1.0
 40
1.0
 40
1.0
 40
1.0
 10
655.86087
 20
403.636767
 30
0.0
 10
655.599009
 20
403.637053
 30
0.0
 10
655.337504
 20
403.566983
 30
0.0
 10
655.11087
 20
403.435805
 30
0.0
  0
SPLINE
  5
470
330
1F
100
AcDbEntity
  8
0
 62
     0
100
AcDbSpline
210
0.0
220
0.0
230
1.0
 70
     8
 71
     3
 72
     8
 73
     4
 74
     0
 42
0.000000001
 43
0.0000000001
 40
0.0
 40
0.0
 40
0.0
 40
0.0
 40
1.0
 40
1.0
 40
1.0
 40
1.0
 10
655.11087
 20
403.435805
 30
0.0
 10
654.883949
 20
403.305123
 30
0.0
 10
654.692514
 20
403.113688
 30
0.0
 10
654.561831
 20
402.886767
 30
0.0
  0
SPLINE
  5
471
330
1F
100
AcDbEntity
  8
0
 62
     0
100
AcDbSpline
210
0.0
220
0.0
230
1.0
 70
     8
 71
     3
 72
     8
 73
     4
 74
     0
 42
0.000000001
 43
0.0000000001
 40
0.0
 40
0.0
 40
0.0
 40
0.0
 40
1.0
 40
1.0
 40
1.0
 40
1.0
 10
654.561831
 20
402.886767
 30
0.0
 10
654.430654
 20
402.660133
 30
0.0
 10
654.360583
 20
402.398627
 30
0.0
 10
654.36087
 20
402.136767
 30
0.0
  0
SPLINE
  5
484
330
1F
100
AcDbEntity
  8
0
 62
     0
100
AcDbSpline
210
0.0
220
0.0
230
1.0
 70
     8
 71
     3
 72
     8
 73
     4
 74
     0
 42
0.000000001
 43
0.0000000001
 40
0.0
 40
0.0
 40
0.0
 40
0.0
 40
1.0
 40
1.0
 40
1.0
 40
1.0
 10
654.36087
 20
422.136767
 30
0.0
 10
654.360583
 20
421.874907
 30
0.0
 10
654.430654
 20
421.613402
 30
0.0
 10
654.561831
 20
421.386767
 30
0.0
  0
SPLINE
  5
485
330
1F
100
AcDbEntity
  8
0
 62
     0
100
AcDbSpline
210
0.0
220
0.0
230
1.0
 70
     8
 71
     3
 72
     8
 73
     4
 74
     0
 42
0.000000001
 43
0.0000000001
 40
0.0
 40
0.0
 40
0.0
 40
0.0
 40
1.0
 40
1.0
 40
1.0
 40
1.0
 10
654.561831
 20
421.386767
 30
0.0
 10
654.692514
 20
421.159846
 30
0.0
 10
654.883949
 20
420.968411
 30
0.0
 10
655.11087
 20
420.837729
 30
0.0
  0
SPLINE
  5
486
330
1F
100
AcDbEntity
  8
0
 62
     0
100
AcDbSpline
210
0.0
220
0.0
230
1.0
 70
     8
 71
     3
 72
     8
 73
     4
 74
     0
 42
0.000000001
 43
0.0000000001
 40
0.0
 40
0.0
 40
0.0
 40
0.0
 40
1.0
 40
1.0
 40
1.0
 40
1.0
 10
655.11087
 20
420.837729
 30
0.0
 10
655.337504
 20
420.706551
 30
0.0
 10
655.599009
 20
420.636481
 30
0.0
 10
655.86087
 20
420.636767
 30
0.0
  0
SPLINE
  5
487
330
1F
100
AcDbEntity
  8
0
 62
     0
100
AcDbSpline
210
0.0
220
0.0
230
1.0
 70
     8
 71
     3
 72
     8
 73
     4
 74
     0
 42
0.000000001
 43
0.0000000001
 40
0.0
 40
0.0
 40
0.0
 40
0.0
 40
1.0
 40
1.0
 40
1.0
 40
1.0
 10
655.86087
 20
420.636767
 30
0.0
 10
656.12273
 20
420.636481
 30
0.0
 10
656.384235
 20
420.706551
 30
0.0
 10
656.61087
 20
420.837729
 30
0.0
  0
SPLINE
  5
488
330
1F
100
AcDbEntity
  8
0
 62
     0
100
AcDbSpline
210
0.0
220
0.0
230
1.0
 70
     8
 71
     3
 72
     8
 73
     4
 74
     0
 42
0.000000001
 43
0.0000000001
 40
0.0
 40
0.0
 40
0.0
 40
0.0
 40
1.0
 40
1.0
 40
1.0
 40
1.0
 10
656.61087
 20
420.837729
 30
0.0
 10
656.83779
 20
420.968411
 30
0.0
 10
657.029225
 20
421.159846
 30
0.0
 10
657.159908
 20
421.386767
 30
0.0
  0
SPLINE
  5
489
330
1F
100
AcDbEntity
  8
0
 62
     0
100
AcDbSpline
210
0.0
220
0.0
230
1.0
 70
     8
 71
     3
 72
     8
 73
     4
 74
     0
 42
0.000000001
 43
0.0000000001
 40
0.0
 40
0.0
 40
0.0
 40
0.0
 40
1.0
 40
1.0
 40
1.0
 40
1.0
 10
657.159908
 20
421.386767
 30
0.0
 10
657.291086
 20
421.613402
 30
0.0
 10
657.361156
 20
421.874907
 30
0.0
 10
657.36087
 20
422.136767
 30
0.0
  0
SPLINE
  5
490
330
1F
100
AcDbEntity
  8
0
 62
     0
100
AcDbSpline
210
0.0
220
0.0
230
1.0
 70
     8
 71
     3
 72
     8
 73
     4
 74
     0
 42
0.000000001
 43
0.0000000001
 40
0.0
 40
0.0
 40
0.0
 40
0.0
 40
1.0
 40
1.0
 40
1.0
 40
1.0
 10
657.36087
 20
422.136767
 30
0.0
 10
657.361156
 20
422.398627
 30
0.0
 10
657.291086
 20
422.660133
 30
0.0
 10
657.159908
 20
422.886767
 30
0.0
  0
SPLINE
  5
491
330
1F
100
AcDbEntity
  8
0
 62
     0
100
AcDbSpline
210
0.0
220
0.0
230
1.0
 70
     8
 71
     3
 72
     8
 73
     4
 74
     0
 42
0.000000001
 43
0.0000000001
 40
0.0
 40
0.0
 40
0.0
 40
0.0
 40
1.0
 40
1.0
 40
1.0
 40
1.0
 10
657.159908
 20
422.886767
 30
0.0
 10
657.029225
 20
423.113688
 30
0.0
 10
656.83779
 20
423.305123
 30
0.0
 10
656.61087
 20
423.435805
 30
0.0
  0
SPLINE
  5
492
330
1F
100
AcDbEntity
  8
0
 62
     0
100
AcDbSpline
210
0.0
220
0.0
230
1.0
 70
     8
 71
     3
 72
     8
 73
     4
 74
     0
 42
0.000000001
 43
0.0000000001
 40
0.0
 40
0.0
 40
0.0
 40
0.0
 40
1.0
 40
1.0
 40
1.0
 40
1.0
 10
656.61087
 20
423.435805
 30
0.0
 10
656.384235
 20
423.566983
 30
0.0
 10
656.12273
 20
423.637053
 30
0.0
 10
655.86087
 20
423.636767
 30
0.0
  0
SPLINE
  5
493
330
1F
100
AcDbEntity
  8
0
 62
     0
100
AcDbSpline
210
0.0
220
0.0
230
1.0
 70
     8
 71
     3
 72
     8
 73
     4
 74
     0
 42
0.000000001
 43
0.0000000001
 40
0.0
 40
0.0
 40
0.0
 40
0.0
 40
1.0
 40
1.0
 40
1.0
 40
1.0
 10
655.86087
 20
423.636767
 30
0.0
 10
655.599009
 20
423.637053
 30
0.0
 10
655.337504
 20
423.566983
 30
0.0
 10
655.11087
 20
423.435805
 30
0.0
  0
SPLINE
  5
494
330
1F
100
AcDbEntity
  8
0
 62
     0
100
AcDbSpline
210
0.0
220
0.0
230
1.0
 70
     8
 71
     3
 72
     8
 73
     4
 74
     0
 42
0.000000001
 43
0.0000000001
 40
0.0
 40
0.0
 40
0.0
 40
0.0
 40
1.0
 40
1.0
 40
1.0
 40
1.0
 10
655.11087
 20
423.435805
 30
0.0
 10
654.883949
 20
423.305123
 30
0.0
 10
654.692514
 20
423.113688
 30
0.0
 10
654.561831
 20
422.886767
 30
0.0
  0
SPLINE
  5
495
330
1F
100
AcDbEntity
  8
0
 62
     0
100
AcDbSpline
210
0.0
220
0.0
230
1.0
 70
     8
 71
     3
 72
     8
 73
     4
 74
     0
 42
0.000000001
 43
0.0000000001
 40
0.0
 40
0.0
 40
0.0
 40
0.0
 40
1.0
 40
1.0
 40
1.0
 40
1.0
 10
654.561831
 20
422.886767
 30
0.0
 10
654.430654
 20
422.660133
 30
0.0
 10
654.360583
 20
422.398627
 30
0.0
 10
654.36087
 20
422.136767
 30
0.0
  0
SPLINE
  5
496
330
1F
100
AcDbEntity
  8
0
 62
     0
100
AcDbSpline
210
0.0
220
0.0
230
1.0
 70
     8
 71
     3
 72
     8
 73
     4
 74
     0
 42
0.000000001
 43
0.0000000001
 40
0.0
 40
0.0
 40
0.0
 40
0.0
 40
1.0
 40
1.0
 40
1.0
 40
1.0
 10
418.357083
 20
402.135681
 30
0.0
 10
418.356797
 20
401.87382
 30
0.0
 10
418.426867
 20
401.612315
 30
0.0
 10
418.558045
 20
401.385681
 30
0.0
  0
SPLINE
  5
497
330
1F
100
AcDbEntity
  8
0
 62
     0
100
AcDbSpline
210
0.0
220
0.0
230
1.0
 70
     8
 71
     3
 72
     8
 73
     4
 74
     0
 42
0.000000001
 43
0.0000000001
 40
0.0
 40
0.0
 40
0.0
 40
0.0
 40
1.0
 40
1.0
 40
1.0
 40
1.0
 10
418.558045
 20
401.385681
 30
0.0
 10
418.688727
 20
401.15876
 30
0.0
 10
418.880162
 20
400.967325
 30
0.0
 10
419.107083
 20
400.836643
 30
0.0
  0
SPLINE
  5
498
330
1F
100
AcDbEntity
  8
0
 62
     0
100
AcDbSpline
210
0.0
220
0.0
230
1.0
 70
     8
 71
     3
 72
     8
 73
     4
 74
     0
 42
0.000000001
 43
0.0000000001
 40
0.0
 40
0.0
 40
0.0
 40
0.0
 40
1.0
 40
1.0
 40
1.0
 40
1.0
 10
419.107083
 20
400.836643
 30
0.0
 10
419.333718
 20
400.705465
 30
0.0
 10
419.595223
 20
400.635395
 30
0.0
 10
419.857083
 20
400.635681
 30
0.0
  0
SPLINE
  5
499
330
1F
100
AcDbEntity
  8
0
 62
     0
100
AcDbSpline
210
0.0
220
0.0
230
1.0
 70
     8
 71
     3
 72
     8
 73
     4
 74
     0
 42
0.000000001
 43
0.0000000001
 40
0.0
 40
0.0
 40
0.0
 40
0.0
 40
1.0
 40
1.0
 40
1.0
 40
1.0
 10
419.857083
 20
400.635681
 30
0.0
 10
420.118943
 20
400.635395
 30
0.0
 10
420.380449
 20
400.705465
 30
0.0
 10
420.607083
 20
400.836643
 30
0.0
  0
SPLINE
  5
500
330
1F
100
AcDbEntity
  8
0
 62
     0
100
AcDbSpline
210
0.0
220
0.0
230
1.0
 70
     8
 71
     3
 72
     8
 73
     4
 74
     0
 42
0.000000001
 43
0.0000000001
 40
0.0
 40
0.0
 40
0.0
 40
0.0
 40
1.0
 40
1.0
 40
1.0
 40
1.0
 10
420.607083
 20
400.836643
 30
0.0
 10
420.834004
 20
400.967325
 30
0.0
 10
421.025439
 20
401.15876
 30
0.0
 10
421.156121
 20
401.385681
 30
0.0
  0
SPLINE
  5
501
330
1F
100
AcDbEntity
  8
0
 62
     0
100
AcDbSpline
210
0.0
220
0.0
230
1.0
 70
     8
 71
     3
 72
     8
 73
     4
 74
     0
 42
0.000000001
 43
0.0000000001
 40
0.0
 40
0.0
 40
0.0
 40
0.0
 40
1.0
 40
1.0
 40
1.0
 40
1.0
 10
421.156121
 20
401.385681
 30
0.0
 10
421.287299
 20
401.612315
 30
0.0
 10
421.357369
 20
401.87382
 30
0.0
 10
421.357083
 20
402.135681
 30
0.0
  0
SPLINE
  5
502
330
1F
100
AcDbEntity
  8
0
 62
     0
100
AcDbSpline
210
0.0
220
0.0
230
1.0
 70
     8
 71
     3
 72
     8
 73
     4
 74
     0
 42
0.000000001
 43
0.0000000001
 40
0.0
 40
0.0
 40
0.0
 40
0.0
 40
1.0
 40
1.0
 40
1.0
 40
1.0
 10
421.357083
 20
402.135681
 30
0.0
 10
421.357369
 20
402.397541
 30
0.0
 10
421.287299
 20
402.659046
 30
0.0
 10
421.156121
 20
402.885681
 30
0.0
  0
SPLINE
  5
503
330
1F
100
AcDbEntity
  8
0
 62
     0
100
AcDbSpline
210
0.0
220
0.0
230
1.0
 70
     8
 71
     3
 72
     8
 73
     4
 74
     0
 42
0.000000001
 43
0.0000000001
 40
0.0
 40
0.0
 40
0.0
 40
0.0
 40
1.0
 40
1.0
 40
1.0
 40
1.0
 10
421.156121
 20
402.885681
 30
0.0
 10
421.025439
 20
403.112601
 30
0.0
 10
420.834004
 20
403.304036
 30
0.0
 10
420.607083
 20
403.434719
 30
0.0
  0
SPLINE
  5
504
330
1F
100
AcDbEntity
  8
0
 62
     0
100
AcDbSpline
210
0.0
220
0.0
230
1.0
 70
     8
 71
     3
 72
     8
 73
     4
 74
     0
 42
0.000000001
 43
0.0000000001
 40
0.0
 40
0.0
 40
0.0
 40
0.0
 40
1.0
 40
1.0
 40
1.0
 40
1.0
 10
420.607083
 20
403.434719
 30
0.0
 10
420.380449
 20
403.565897
 30
0.0
 10
420.118943
 20
403.635967
 30
0.0
 10
419.857083
 20
403.635681
 30
0.0
  0
SPLINE
  5
505
330
1F
100
AcDbEntity
  8
0
 62
     0
100
AcDbSpline
210
0.0
220
0.0
230
1.0
 70
     8
 71
     3
 72
     8
 73
     4
 74
     0
 42
0.000000001
 43
0.0000000001
 40
0.0
 40
0.0
 40
0.0
 40
0.0
 40
1.0
 40
1.0
 40
1.0
 40
1.0
 10
419.857083
 20
403.635681
 30
0.0
 10
419.595223
 20
403.635967
 30
0.0
 10
419.333718
 20
403.565897
 30
0.0
 10
419.107083
 20
403.434719
 30
0.0
  0
SPLINE
  5
506
330
1F
100
AcDbEntity
  8
0
 62
     0
100
AcDbSpline
210
0.0
220
0.0
230
1.0
 70
     8
 71
     3
 72
     8
 73
     4
 74
     0
 42
0.000000001
 43
0.0000000001
 40
0.0
 40
0.0
 40
0.0
 40
0.0
 40
1.0
 40
1.0
 40
1.0
 40
1.0
 10
419.107083
 20
403.434719
 30
0.0
 10
418.880162
 20
403.304036
 30
0.0
 10
418.688727
 20
403.112601
 30
0.0
 10
418.558045
 20
402.885681
 30
0.0
  0
SPLINE
  5
507
330
1F
100
AcDbEntity
  8
0
 62
     0
100
AcDbSpline
210
0.0
220
0.0
230
1.0
 70
     8
 71
     3
 72
     8
 73
     4
 74
     0
 42
0.000000001
 43
0.0000000001
 40
0.0
 40
0.0
 40
0.0
 40
0.0
 40
1.0
 40
1.0
 40
1.0
 40
1.0
 10
418.558045
 20
402.885681
 30
0.0
 10
418.426867
 20
402.659046
 30
0.0
 10
418.356797
 20
402.397541
 30
0.0
 10
418.357083
 20
402.135681
 30
0.0
  0
SPLINE
  5
520
330
1F
100
AcDbEntity
  8
0
 62
     0
100
AcDbSpline
210
0.0
220
0.0
230
1.0
 70
     8
 71
     3
 72
     8
 73
     4
 74
     0
 42
0.000000001
 43
0.0000000001
 40
0.0
 40
0.0
 40
0.0
 40
0.0
 40
1.0
 40
1.0
 40
1.0
 40
1.0
 10
418.357083
 20
422.135681
 30
0.0
 10
418.356797
 20
421.87382
 30
0.0
 10
418.426867
 20
421.612315
 30
0.0
 10
418.558045
 20
421.385681
 30
0.0
  0
SPLINE
  5
521
330
1F
100
AcDbEntity
  8
0
 62
     0
100
AcDbSpline
210
0.0
220
0.0
230
1.0
 70
     8
 71
     3
 72
     8
 73
     4
 74
     0
 42
0.000000001
 43
0.0000000001
 40
0.0
 40
0.0
 40
0.0
 40
0.0
 40
1.0
 40
1.0
 40
1.0
 40
1.0
 10
418.558045
 20
421.385681
 30
0.0
 10
418.688727
 20
421.15876
 30
0.0
 10
418.880162
 20
420.967325
 30
0.0
 10
419.107083
 20
420.836643
 30
0.0
  0
SPLINE
  5
522
330
1F
100
AcDbEntity
  8
0
 62
     0
100
AcDbSpline
210
0.0
220
0.0
230
1.0
 70
     8
 71
     3
 72
     8
 73
     4
 74
     0
 42
0.000000001
 43
0.0000000001
 40
0.0
 40
0.0
 40
0.0
 40
0.0
 40
1.0
 40
1.0
 40
1.0
 40
1.0
 10
419.107083
 20
420.836643
 30
0.0
 10
419.333718
 20
420.705465
 30
0.0
 10
419.595223
 20
420.635395
 30
0.0
 10
419.857083
 20
420.635681
 30
0.0
  0
SPLINE
  5
523
330
1F
100
AcDbEntity
  8
0
 62
     0
100
AcDbSpline
210
0.0
220
0.0
230
1.0
 70
     8
 71
     3
 72
     8
 73
     4
 74
     0
 42
0.000000001
 43
0.0000000001
 40
0.0
 40
0.0
 40
0.0
 40
0.0
 40
1.0
 40
1.0
 40
1.0
 40
1.0
 10
419.857083
 20
420.635681
 30
0.0
 10
420.118943
 20
420.635395
 30
0.0
 10
420.380449
 20
420.705465
 30
0.0
 10
420.607083
 20
420.836643
 30
0.0
  0
SPLINE
  5
524
330
1F
100
AcDbEntity
  8
0
 62
     0
100
AcDbSpline
210
0.0
220
0.0
230
1.0
 70
     8
 71
     3
 72
     8
 73
     4
 74
     0
 42
0.000000001
 43
0.0000000001
 40
0.0
 40
0.0
 40
0.0
 40
0.0
 40
1.0
 40
1.0
 40
1.0
 40
1.0
 10
420.607083
 20
420.836643
 30
0.0
 10
420.834004
 20
420.967325
 30
0.0
 10
421.025439
 20
421.15876
 30
0.0
 10
421.156121
 20
421.385681
 30
0.0
  0
SPLINE
  5
525
330
1F
100
AcDbEntity
  8
0
 62
     0
100
AcDbSpline
210
0.0
220
0.0
230
1.0
 70
     8
 71
     3
 72
     8
 73
     4
 74
     0
 42
0.000000001
 43
0.0000000001
 40
0.0
 40
0.0
 40
0.0
 40
0.0
 40
1.0
 40
1.0
 40
1.0
 40
1.0
 10
421.156121
 20
421.385681
 30
0.0
 10
421.287299
 20
421.612315
 30
0.0
 10
421.357369
 20
421.87382
 30
0.0
 10
421.357083
 20
422.135681
 30
0.0
  0
SPLINE
  5
526
330
1F
100
AcDbEntity
  8
0
 62
     0
100
AcDbSpline
210
0.0
220
0.0
230
1.0
 70
     8
 71
     3
 72
     8
 73
     4
 74
     0
 42
0.000000001
 43
0.0000000001
 40
0.0
 40
0.0
 40
0.0
 40
0.0
 40
1.0
 40
1.0
 40
1.0
 40
1.0
 10
421.357083
 20
422.135681
 30
0.0
 10
421.357369
 20
422.397541
 30
0.0
 10
421.287299
 20
422.659046
 30
0.0
 10
421.156121
 20
422.885681
 30
0.0
  0
SPLINE
  5
527
330
1F
100
AcDbEntity
  8
0
 62
     0
100
AcDbSpline
210
0.0
220
0.0
230
1.0
 70
     8
 71
     3
 72
     8
 73
     4
 74
     0
 42
0.000000001
 43
0.0000000001
 40
0.0
 40
0.0
 40
0.0
 40
0.0
 40
1.0
 40
1.0
 40
1.0
 40
1.0
 10
421.156121
 20
422.885681
 30
0.0
 10
421.025439
 20
423.112601
 30
0.0
 10
420.834004
 20
423.304036
 30
0.0
 10
420.607083
 20
423.434719
 30
0.0
  0
SPLINE
  5
528
330
1F
100
AcDbEntity
  8
0
 62
     0
100
AcDbSpline
210
0.0
220
0.0
230
1.0
 70
     8
 71
     3
 72
     8
 73
     4
 74
     0
 42
0.000000001
 43
0.0000000001
 40
0.0
 40
0.0
 40
0.0
 40
0.0
 40
1.0
 40
1.0
 40
1.0
 40
1.0
 10
420.607083
 20
423.434719
 30
0.0
 10
420.380449
 20
423.565897
 30
0.0
 10
420.118943
 20
423.635967
 30
0.0
 10
419.857083
 20
423.635681
 30
0.0
  0
SPLINE
  5
529
330
1F
100
AcDbEntity
  8
0
 62
     0
100
AcDbSpline
210
0.0
220
0.0
230
1.0
 70
     8
 71
     3
 72
     8
 73
     4
 74
     0
 42
0.000000001
 43
0.0000000001
 40
0.0
 40
0.0
 40
0.0
 40
0.0
 40
1.0
 40
1.0
 40
1.0
 40
1.0
 10
419.857083
 20
423.635681
 30
0.0
 10
419.595223
 20
423.635967
 30
0.0
 10
419.333718
 20
423.565897
 30
0.0
 10
419.107083
 20
423.434719
 30
0.0
  0
SPLINE
  5
530
330
1F
100
AcDbEntity
  8
0
 62
     0
100
AcDbSpline
210
0.0
220
0.0
230
1.0
 70
     8
 71
     3
 72
     8
 73
     4
 74
     0
 42
0.000000001
 43
0.0000000001
 40
0.0
 40
0.0
 40
0.0
 40
0.0
 40
1.0
 40
1.0
 40
1.0
 40
1.0
 10
419.107083
 20
423.434719
 30
0.0
 10
418.880162
 20
423.304036
 30
0.0
 10
418.688727
 20
423.112601
 30
0.0
 10
418.558045
 20
422.885681
 30
0.0
  0
SPLINE
  5
531
330
1F
100
AcDbEntity
  8
0
 62
     0
100
AcDbSpline
210
0.0
220
0.0
230
1.0
 70
     8
 71
     3
 72
     8
 73
     4
 74
     0
 42
0.000000001
 43
0.0000000001
 40
0.0
 40
0.0
 40
0.0
 40
0.0
 40
1.0
 40
1.0
 40
1.0
 40
1.0
 10
418.558045
 20
422.885681
 30
0.0
 10
418.426867
 20
422.659046
 30
0.0
 10
418.356797
 20
422.397541
 30
0.0
 10
418.357083
 20
422.135681
 30
0.0
  0
SPLINE
  5
532
330
1F
100
AcDbEntity
  8
0
 62
     0
100
AcDbSpline
210
0.0
220
0.0
230
1.0
 70
     8
 71
     3
 72
     8
 73
     4
 74
     0
 42
0.000000001
 43
0.0000000001
 40
0.0
 40
0.0
 40
0.0
 40
0.0
 40
1.0
 40
1.0
 40
1.0
 40
1.0
 10
654.36087
 20
294.149147
 30
0.0
 10
654.360583
 20
293.887287
 30
0.0
 10
654.430654
 20
293.625782
 30
0.0
 10
654.561831
 20
293.399147
 30
0.0
  0
SPLINE
  5
533
330
1F
100
AcDbEntity
  8
0
 62
     0
100
AcDbSpline
210
0.0
220
0.0
230
1.0
 70
     8
 71
     3
 72
     8
 73
     4
 74
     0
 42
0.000000001
 43
0.0000000001
 40
0.0
 40
0.0
 40
0.0
 40
0.0
 40
1.0
 40
1.0
 40
1.0
 40
1.0
 10
654.561831
 20
293.399147
 30
0.0
 10
654.692514
 20
293.172226
 30
0.0
 10
654.883949
 20
292.980791
 30
0.0
 10
655.11087
 20
292.850109
 30
0.0
  0
SPLINE
  5
534
330
1F
100
AcDbEntity
  8
0
 62
     0
100
AcDbSpline
210
0.0
220
0.0
230
1.0
 70
     8
 71
     3
 72
     8
 73
     4
 74
     0
 42
0.000000001
 43
0.0000000001
 40
0.0
 40
0.0
 40
0.0
 40
0.0
 40
1.0
 40
1.0
 40
1.0
 40
1.0
 10
655.11087
 20
292.850109
 30
0.0
 10
655.337504
 20
292.718931
 30
0.0
 10
655.599009
 20
292.648861
 30
0.0
 10
655.86087
 20
292.649147
 30
0.0
  0
SPLINE
  5
535
330
1F
100
AcDbEntity
  8
0
 62
     0
100
AcDbSpline
210
0.0
220
0.0
230
1.0
 70
     8
 71
     3
 72
     8
 73
     4
 74
     0
 42
0.000000001
 43
0.0000000001
 40
0.0
 40
0.0
 40
0.0
 40
0.0
 40
1.0
 40
1.0
 40
1.0
 40
1.0
 10
655.86087
 20
292.649147
 30
0.0
 10
656.12273
 20
292.648861
 30
0.0
 10
656.384235
 20
292.718931
 30
0.0
 10
656.61087
 20
292.850109
 30
0.0
  0
SPLINE
  5
536
330
1F
100
AcDbEntity
  8
0
 62
     0
100
AcDbSpline
210
0.0
220
0.0
230
1.0
 70
     8
 71
     3
 72
     8
 73
     4
 74
     0
 42
0.000000001
 43
0.0000000001
 40
0.0
 40
0.0
 40
0.0
 40
0.0
 40
1.0
 40
1.0
 40
1.0
 40
1.0
 10
656.61087
 20
292.850109
 30
0.0
 10
656.83779
 20
292.980791
 30
0.0
 10
657.029225
 20
293.172226
 30
0.0
 10
657.159908
 20
293.399147
 30
0.0
  0
SPLINE
  5
537
330
1F
100
AcDbEntity
  8
0
 62
     0
100
AcDbSpline
210
0.0
220
0.0
230
1.0
 70
     8
 71
     3
 72
     8
 73
     4
 74
     0
 42
0.000000001
 43
0.0000000001
 40
0.0
 40
0.0
 40
0.0
 40
0.0
 40
1.0
 40
1.0
 40
1.0
 40
1.0
 10
657.159908
 20
293.399147
 30
0.0
 10
657.291086
 20
293.625782
 30
0.0
 10
657.361156
 20
293.887287
 30
0.0
 10
657.36087
 20
294.149147
 30
0.0
  0
SPLINE
  5
538
330
1F
100
AcDbEntity
  8
0
 62
     0
100
AcDbSpline
210
0.0
220
0.0
230
1.0
 70
     8
 71
     3
 72
     8
 73
     4
 74
     0
 42
0.000000001
 43
0.0000000001
 40
0.0
 40
0.0
 40
0.0
 40
0.0
 40
1.0
 40
1.0
 40
1.0
 40
1.0
 10
657.36087
 20
294.149147
 30
0.0
 10
657.361156
 20
294.411007
 30
0.0
 10
657.291086
 20
294.672513
 30
0.0
 10
657.159908
 20
294.899147
 30
0.0
  0
SPLINE
  5
539
330
1F
100
AcDbEntity
  8
0
 62
     0
100
AcDbSpline
210
0.0
220
0.0
230
1.0
 70
     8
 71
     3
 72
     8
 73
     4
 74
     0
 42
0.000000001
 43
0.0000000001
 40
0.0
 40
0.0
 40
0.0
 40
0.0
 40
1.0
 40
1.0
 40
1.0
 40
1.0
 10
657.159908
 20
294.899147
 30
0.0
 10
657.029225
 20
295.126068
 30
0.0
 10
656.83779
 20
295.317503
 30
0.0
 10
656.61087
 20
295.448185
 30
0.0
  0
SPLINE
  5
540
330
1F
100
AcDbEntity
  8
0
 62
     0
100
AcDbSpline
210
0.0
220
0.0
230
1.0
 70
     8
 71
     3
 72
     8
 73
     4
 74
     0
 42
0.000000001
 43
0.0000000001
 40
0.0
 40
0.0
 40
0.0
 40
0.0
 40
1.0
 40
1.0
 40
1.0
 40
1.0
 10
656.61087
 20
295.448185
 30
0.0
 10
656.384235
 20
295.579363
 30
0.0
 10
656.12273
 20
295.649433
 30
0.0
 10
655.86087
 20
295.649147
 30
0.0
  0
SPLINE
  5
541
330
1F
100
AcDbEntity
  8
0
 62
     0
100
AcDbSpline
210
0.0
220
0.0
230
1.0
 70
     8
 71
     3
 72
     8
 73
     4
 74
     0
 42
0.000000001
 43
0.0000000001
 40
0.0
 40
0.0
 40
0.0
 40
0.0
 40
1.0
 40
1.0
 40
1.0
 40
1.0
 10
655.86087
 20
295.649147
 30
0.0
 10
655.599009
 20
295.649433
 30
0.0
 10
655.337504
 20
295.579363
 30
0.0
 10
655.11087
 20
295.448185
 30
0.0
  0
SPLINE
  5
542
330
1F
100
AcDbEntity
  8
0
 62
     0
100
AcDbSpline
210
0.0
220
0.0
230
1.0
 70
     8
 71
     3
 72
     8
 73
     4
 74
     0
 42
0.000000001
 43
0.0000000001
 40
0.0
 40
0.0
 40
0.0
 40
0.0
 40
1.0
 40
1.0
 40
1.0
 40
1.0
 10
655.11087
 20
295.448185
 30
0.0
 10
654.883949
 20
295.317503
 30
0.0
 10
654.692514
 20
295.126068
 30
0.0
 10
654.561831
 20
294.899147
 30
0.0
  0
SPLINE
  5
543
330
1F
100
AcDbEntity
  8
0
 62
     0
100
AcDbSpline
210
0.0
220
0.0
230
1.0
 70
     8
 71
     3
 72
     8
 73
     4
 74
     0
 42
0.000000001
 43
0.0000000001
 40
0.0
 40
0.0
 40
0.0
 40
0.0
 40
1.0
 40
1.0
 40
1.0
 40
1.0
 10
654.561831
 20
294.899147
 30
0.0
 10
654.430654
 20
294.672513
 30
0.0
 10
654.360583
 20
294.411007
 30
0.0
 10
654.36087
 20
294.149147
 30
0.0
  0
SPLINE
  5
556
330
1F
100
AcDbEntity
  8
0
 62
     0
100
AcDbSpline
210
0.0
220
0.0
230
1.0
 70
     8
 71
     3
 72
     8
 73
     4
 74
     0
 42
0.000000001
 43
0.0000000001
 40
0.0
 40
0.0
 40
0.0
 40
0.0
 40
1.0
 40
1.0
 40
1.0
 40
1.0
 10
654.36087
 20
314.149147
 30
0.0
 10
654.360583
 20
313.887287
 30
0.0
 10
654.430654
 20
313.625782
 30
0.0
 10
654.561831
 20
313.399147
 30
0.0
  0
SPLINE
  5
557
330
1F
100
AcDbEntity
  8
0
 62
     0
100
AcDbSpline
210
0.0
220
0.0
230
1.0
 70
     8
 71
     3
 72
     8
 73
     4
 74
     0
 42
0.000000001
 43
0.0000000001
 40
0.0
 40
0.0
 40
0.0
 40
0.0
 40
1.0
 40
1.0
 40
1.0
 40
1.0
 10
654.561831
 20
313.399147
 30
0.0
 10
654.692514
 20
313.172226
 30
0.0
 10
654.883949
 20
312.980791
 30
0.0
 10
655.11087
 20
312.850109
 30
0.0
  0
SPLINE
  5
558
330
1F
100
AcDbEntity
  8
0
 62
     0
100
AcDbSpline
210
0.0
220
0.0
230
1.0
 70
     8
 71
     3
 72
     8
 73
     4
 74
     0
 42
0.000000001
 43
0.0000000001
 40
0.0
 40
0.0
 40
0.0
 40
0.0
 40
1.0
 40
1.0
 40
1.0
 40
1.0
 10
655.11087
 20
312.850109
 30
0.0
 10
655.337504
 20
312.718931
 30
0.0
 10
655.599009
 20
312.648861
 30
0.0
 10
655.86087
 20
312.649147
 30
0.0
  0
SPLINE
  5
559
330
1F
100
AcDbEntity
  8
0
 62
     0
100
AcDbSpline
210
0.0
220
0.0
230
1.0
 70
     8
 71
     3
 72
     8
 73
     4
 74
     0
 42
0.000000001
 43
0.0000000001
 40
0.0
 40
0.0
 40
0.0
 40
0.0
 40
1.0
 40
1.0
 40
1.0
 40
1.0
 10
655.86087
 20
312.649147
 30
0.0
 10
656.12273
 20
312.648861
 30
0.0
 10
656.384235
 20
312.718931
 30
0.0
 10
656.61087
 20
312.850109
 30
0.0
  0
SPLINE
  5
560
330
1F
100
AcDbEntity
  8
0
 62
     0
100
AcDbSpline
210
0.0
220
0.0
230
1.0
 70
     8
 71
     3
 72
     8
 73
     4
 74
     0
 42
0.000000001
 43
0.0000000001
 40
0.0
 40
0.0
 40
0.0
 40
0.0
 40
1.0
 40
1.0
 40
1.0
 40
1.0
 10
656.61087
 20
312.850109
 30
0.0
 10
656.83779
 20
312.980791
 30
0.0
 10
657.029225
 20
313.172226
 30
0.0
 10
657.159908
 20
313.399147
 30
0.0
  0
SPLINE
  5
561
330
1F
100
AcDbEntity
  8
0
 62
     0
100
AcDbSpline
210
0.0
220
0.0
230
1.0
 70
     8
 71
     3
 72
     8
 73
     4
 74
     0
 42
0.000000001
 43
0.0000000001
 40
0.0
 40
0.0
 40
0.0
 40
0.0
 40
1.0
 40
1.0
 40
1.0
 40
1.0
 10
657.159908
 20
313.399147
 30
0.0
 10
657.291086
 20
313.625782
 30
0.0
 10
657.361156
 20
313.887287
 30
0.0
 10
657.36087
 20
314.149147
 30
0.0
  0
SPLINE
  5
562
330
1F
100
AcDbEntity
  8
0
 62
     0
100
AcDbSpline
210
0.0
220
0.0
230
1.0
 70
     8
 71
     3
 72
     8
 73
     4
 74
     0
 42
0.000000001
 43
0.0000000001
 40
0.0
 40
0.0
 40
0.0
 40
0.0
 40
1.0
 40
1.0
 40
1.0
 40
1.0
 10
657.36087
 20
314.149147
 30
0.0
 10
657.361156
 20
314.411007
 30
0.0
 10
657.291086
 20
314.672513
 30
0.0
 10
657.159908
 20
314.899147
 30
0.0
  0
SPLINE
  5
563
330
1F
100
AcDbEntity
  8
0
 62
     0
100
AcDbSpline
210
0.0
220
0.0
230
1.0
 70
     8
 71
     3
 72
     8
 73
     4
 74
     0
 42
0.000000001
 43
0.0000000001
 40
0.0
 40
0.0
 40
0.0
 40
0.0
 40
1.0
 40
1.0
 40
1.0
 40
1.0
 10
657.159908
 20
314.899147
 30
0.0
 10
657.029225
 20
315.126068
 30
0.0
 10
656.83779
 20
315.317503
 30
0.0
 10
656.61087
 20
315.448185
 30
0.0
  0
SPLINE
  5
564
330
1F
100
AcDbEntity
  8
0
 62
     0
100
AcDbSpline
210
0.0
220
0.0
230
1.0
 70
     8
 71
     3
 72
     8
 73
     4
 74
     0
 42
0.000000001
 43
0.0000000001
 40
0.0
 40
0.0
 40
0.0
 40
0.0
 40
1.0
 40
1.0
 40
1.0
 40
1.0
 10
656.61087
 20
315.448185
 30
0.0
 10
656.384235
 20
315.579363
 30
0.0
 10
656.12273
 20
315.649433
 30
0.0
 10
655.86087
 20
315.649147
 30
0.0
  0
SPLINE
  5
565
330
1F
100
AcDbEntity
  8
0
 62
     0
100
AcDbSpline
210
0.0
220
0.0
230
1.0
 70
     8
 71
     3
 72
     8
 73
     4
 74
     0
 42
0.000000001
 43
0.0000000001
 40
0.0
 40
0.0
 40
0.0
 40
0.0
 40
1.0
 40
1.0
 40
1.0
 40
1.0
 10
655.86087
 20
315.649147
 30
0.0
 10
655.599009
 20
315.649433
 30
0.0
 10
655.337504
 20
315.579363
 30
0.0
 10
655.11087
 20
315.448185
 30
0.0
  0
SPLINE
  5
566
330
1F
100
AcDbEntity
  8
0
 62
     0
100
AcDbSpline
210
0.0
220
0.0
230
1.0
 70
     8
 71
     3
 72
     8
 73
     4
 74
     0
 42
0.000000001
 43
0.0000000001
 40
0.0
 40
0.0
 40
0.0
 40
0.0
 40
1.0
 40
1.0
 40
1.0
 40
1.0
 10
655.11087
 20
315.448185
 30
0.0
 10
654.883949
 20
315.317503
 30
0.0
 10
654.692514
 20
315.126068
 30
0.0
 10
654.561831
 20
314.899147
 30
0.0
  0
SPLINE
  5
567
330
1F
100
AcDbEntity
  8
0
 62
     0
100
AcDbSpline
210
0.0
220
0.0
230
1.0
 70
     8
 71
     3
 72
     8
 73
     4
 74
     0
 42
0.000000001
 43
0.0000000001
 40
0.0
 40
0.0
 40
0.0
 40
0.0
 40
1.0
 40
1.0
 40
1.0
 40
1.0
 10
654.561831
 20
314.899147
 30
0.0
 10
654.430654
 20
314.672513
 30
0.0
 10
654.360583
 20
314.411007
 30
0.0
 10
654.36087
 20
314.149147
 30
0.0
  0
SPLINE
  5
568
330
1F
100
AcDbEntity
  8
0
 62
     0
100
AcDbSpline
210
0.0
220
0.0
230
1.0
 70
     8
 71
     3
 72
     8
 73
     4
 74
     0
 42
0.000000001
 43
0.0000000001
 40
0.0
 40
0.0
 40
0.0
 40
0.0
 40
1.0
 40
1.0
 40
1.0
 40
1.0
 10
654.36087
 20
510.124387
 30
0.0
 10
654.360583
 20
509.862527
 30
0.0
 10
654.430654
 20
509.601022
 30
0.0
 10
654.561831
 20
509.374387
 30
0.0
  0
SPLINE
  5
569
330
1F
100
AcDbEntity
  8
0
 62
     0
100
AcDbSpline
210
0.0
220
0.0
230
1.0
 70
     8
 71
     3
 72
     8
 73
     4
 74
     0
 42
0.000000001
 43
0.0000000001
 40
0.0
 40
0.0
 40
0.0
 40
0.0
 40
1.0
 40
1.0
 40
1.0
 40
1.0
 10
654.561831
 20
509.374387
 30
0.0
 10
654.692514
 20
509.147466
 30
0.0
 10
654.883949
 20
508.956031
 30
0.0
 10
655.11087
 20
508.825349
 30
0.0
  0
SPLINE
  5
570
330
1F
100
AcDbEntity
  8
0
 62
     0
100
AcDbSpline
210
0.0
220
0.0
230
1.0
 70
     8
 71
     3
 72
     8
 73
     4
 74
     0
 42
0.000000001
 43
0.0000000001
 40
0.0
 40
0.0
 40
0.0
 40
0.0
 40
1.0
 40
1.0
 40
1.0
 40
1.0
 10
655.11087
 20
508.825349
 30
0.0
 10
655.337504
 20
508.694171
 30
0.0
 10
655.599009
 20
508.624101
 30
0.0
 10
655.86087
 20
508.624387
 30
0.0
  0
SPLINE
  5
571
330
1F
100
AcDbEntity
  8
0
 62
     0
100
AcDbSpline
210
0.0
220
0.0
230
1.0
 70
     8
 71
     3
 72
     8
 73
     4
 74
     0
 42
0.000000001
 43
0.0000000001
 40
0.0
 40
0.0
 40
0.0
 40
0.0
 40
1.0
 40
1.0
 40
1.0
 40
1.0
 10
655.86087
 20
508.624387
 30
0.0
 10
656.12273
 20
508.624101
 30
0.0
 10
656.384235
 20
508.694171
 30
0.0
 10
656.61087
 20
508.825349
 30
0.0
  0
SPLINE
  5
572
330
1F
100
AcDbEntity
  8
0
 62
     0
100
AcDbSpline
210
0.0
220
0.0
230
1.0
 70
     8
 71
     3
 72
     8
 73
     4
 74
     0
 42
0.000000001
 43
0.0000000001
 40
0.0
 40
0.0
 40
0.0
 40
0.0
 40
1.0
 40
1.0
 40
1.0
 40
1.0
 10
656.61087
 20
508.825349
 30
0.0
 10
656.83779
 20
508.956031
 30
0.0
 10
657.029225
 20
509.147466
 30
0.0
 10
657.159908
 20
509.374387
 30
0.0
  0
SPLINE
  5
573
330
1F
100
AcDbEntity
  8
0
 62
     0
100
AcDbSpline
210
0.0
220
0.0
230
1.0
 70
     8
 71
     3
 72
     8
 73
     4
 74
     0
 42
0.000000001
 43
0.0000000001
 40
0.0
 40
0.0
 40
0.0
 40
0.0
 40
1.0
 40
1.0
 40
1.0
 40
1.0
 10
657.159908
 20
509.374387
 30
0.0
 10
657.291086
 20
509.601022
 30
0.0
 10
657.361156
 20
509.862527
 30
0.0
 10
657.36087
 20
510.124387
 30
0.0
  0
SPLINE
  5
574
330
1F
100
AcDbEntity
  8
0
 62
     0
100
AcDbSpline
210
0.0
220
0.0
230
1.0
 70
     8
 71
     3
 72
     8
 73
     4
 74
     0
 42
0.000000001
 43
0.0000000001
 40
0.0
 40
0.0
 40
0.0
 40
0.0
 40
1.0
 40
1.0
 40
1.0
 40
1.0
 10
657.36087
 20
510.124387
 30
0.0
 10
657.361156
 20
510.386247
 30
0.0
 10
657.291086
 20
510.647753
 30
0.0
 10
657.159908
 20
510.874387
 30
0.0
  0
SPLINE
  5
575
330
1F
100
AcDbEntity
  8
0
 62
     0
100
AcDbSpline
210
0.0
220
0.0
230
1.0
 70
     8
 71
     3
 72
     8
 73
     4
 74
     0
 42
0.000000001
 43
0.0000000001
 40
0.0
 40
0.0
 40
0.0
 40
0.0
 40
1.0
 40
1.0
 40
1.0
 40
1.0
 10
657.159908
 20
510.874387
 30
0.0
 10
657.029225
 20
511.101308
 30
0.0
 10
656.83779
 20
511.292743
 30
0.0
 10
656.61087
 20
511.423425
 30
0.0
  0
SPLINE
  5
576
330
1F
100
AcDbEntity
  8
0
 62
     0
100
AcDbSpline
210
0.0
220
0.0
230
1.0
 70
     8
 71
     3
 72
     8
 73
     4
 74
     0
 42
0.000000001
 43
0.0000000001
 40
0.0
 40
0.0
 40
0.0
 40
0.0
 40
1.0
 40
1.0
 40
1.0
 40
1.0
 10
656.61087
 20
511.423425
 30
0.0
 10
656.384235
 20
511.554603
 30
0.0
 10
656.12273
 20
511.624673
 30
0.0
 10
655.86087
 20
511.624387
 30
0.0
  0
SPLINE
  5
577
330
1F
100
AcDbEntity
  8
0
 62
     0
100
AcDbSpline
210
0.0
220
0.0
230
1.0
 70
     8
 71
     3
 72
     8
 73
     4
 74
     0
 42
0.000000001
 43
0.0000000001
 40
0.0
 40
0.0
 40
0.0
 40
0.0
 40
1.0
 40
1.0
 40
1.0
 40
1.0
 10
655.86087
 20
511.624387
 30
0.0
 10
655.599009
 20
511.624673
 30
0.0
 10
655.337504
 20
511.554603
 30
0.0
 10
655.11087
 20
511.423425
 30
0.0
  0
SPLINE
  5
578
330
1F
100
AcDbEntity
  8
0
 62
     0
100
AcDbSpline
210
0.0
220
0.0
230
1.0
 70
     8
 71
     3
 72
     8
 73
     4
 74
     0
 42
0.000000001
 43
0.0000000001
 40
0.0
 40
0.0
 40
0.0
 40
0.0
 40
1.0
 40
1.0
 40
1.0
 40
1.0
 10
655.11087
 20
511.423425
 30
0.0
 10
654.883949
 20
511.292743
 30
0.0
 10
654.692514
 20
511.101308
 30
0.0
 10
654.561831
 20
510.874387
 30
0.0
  0
SPLINE
  5
579
330
1F
100
AcDbEntity
  8
0
 62
     0
100
AcDbSpline
210
0.0
220
0.0
230
1.0
 70
     8
 71
     3
 72
     8
 73
     4
 74
     0
 42
0.000000001
 43
0.0000000001
 40
0.0
 40
0.0
 40
0.0
 40
0.0
 40
1.0
 40
1.0
 40
1.0
 40
1.0
 10
654.561831
 20
510.874387
 30
0.0
 10
654.430654
 20
510.647753
 30
0.0
 10
654.360583
 20
510.386247
 30
0.0
 10
654.36087
 20
510.124387
 30
0.0
  0
SPLINE
  5
592
330
1F
100
AcDbEntity
  8
0
 62
     0
100
AcDbSpline
210
0.0
220
0.0
230
1.0
 70
     8
 71
     3
 72
     8
 73
     4
 74
     0
 42
0.000000001
 43
0.0000000001
 40
0.0
 40
0.0
 40
0.0
 40
0.0
 40
1.0
 40
1.0
 40
1.0
 40
1.0
 10
654.36087
 20
530.124387
 30
0.0
 10
654.360583
 20
529.862527
 30
0.0
 10
654.430654
 20
529.601022
 30
0.0
 10
654.561831
 20
529.374387
 30
0.0
  0
SPLINE
  5
593
330
1F
100
AcDbEntity
  8
0
 62
     0
100
AcDbSpline
210
0.0
220
0.0
230
1.0
 70
     8
 71
     3
 72
     8
 73
     4
 74
     0
 42
0.000000001
 43
0.0000000001
 40
0.0
 40
0.0
 40
0.0
 40
0.0
 40
1.0
 40
1.0
 40
1.0
 40
1.0
 10
654.561831
 20
529.374387
 30
0.0
 10
654.692514
 20
529.147466
 30
0.0
 10
654.883949
 20
528.956031
 30
0.0
 10
655.11087
 20
528.825349
 30
0.0
  0
SPLINE
  5
594
330
1F
100
AcDbEntity
  8
0
 62
     0
100
AcDbSpline
210
0.0
220
0.0
230
1.0
 70
     8
 71
     3
 72
     8
 73
     4
 74
     0
 42
0.000000001
 43
0.0000000001
 40
0.0
 40
0.0
 40
0.0
 40
0.0
 40
1.0
 40
1.0
 40
1.0
 40
1.0
 10
655.11087
 20
528.825349
 30
0.0
 10
655.337504
 20
528.694171
 30
0.0
 10
655.599009
 20
528.624101
 30
0.0
 10
655.86087
 20
528.624387
 30
0.0
  0
SPLINE
  5
595
330
1F
100
AcDbEntity
  8
0
 62
     0
100
AcDbSpline
210
0.0
220
0.0
230
1.0
 70
     8
 71
     3
 72
     8
 73
     4
 74
     0
 42
0.000000001
 43
0.0000000001
 40
0.0
 40
0.0
 40
0.0
 40
0.0
 40
1.0
 40
1.0
 40
1.0
 40
1.0
 10
655.86087
 20
528.624387
 30
0.0
 10
656.12273
 20
528.624101
 30
0.0
 10
656.384235
 20
528.694171
 30
0.0
 10
656.61087
 20
528.825349
 30
0.0
  0
SPLINE
  5
596
330
1F
100
AcDbEntity
  8
0
 62
     0
100
AcDbSpline
210
0.0
220
0.0
230
1.0
 70
     8
 71
     3
 72
     8
 73
     4
 74
     0
 42
0.000000001
 43
0.0000000001
 40
0.0
 40
0.0
 40
0.0
 40
0.0
 40
1.0
 40
1.0
 40
1.0
 40
1.0
 10
656.61087
 20
528.825349
 30
0.0
 10
656.83779
 20
528.956031
 30
0.0
 10
657.029225
 20
529.147466
 30
0.0
 10
657.159908
 20
529.374387
 30
0.0
  0
SPLINE
  5
597
330
1F
100
AcDbEntity
  8
0
 62
     0
100
AcDbSpline
210
0.0
220
0.0
230
1.0
 70
     8
 71
     3
 72
     8
 73
     4
 74
     0
 42
0.000000001
 43
0.0000000001
 40
0.0
 40
0.0
 40
0.0
 40
0.0
 40
1.0
 40
1.0
 40
1.0
 40
1.0
 10
657.159908
 20
529.374387
 30
0.0
 10
657.291086
 20
529.601022
 30
0.0
 10
657.361156
 20
529.862527
 30
0.0
 10
657.36087
 20
530.124387
 30
0.0
  0
SPLINE
  5
598
330
1F
100
AcDbEntity
  8
0
 62
     0
100
AcDbSpline
210
0.0
220
0.0
230
1.0
 70
     8
 71
     3
 72
     8
 73
     4
 74
     0
 42
0.000000001
 43
0.0000000001
 40
0.0
 40
0.0
 40
0.0
 40
0.0
 40
1.0
 40
1.0
 40
1.0
 40
1.0
 10
657.36087
 20
530.124387
 30
0.0
 10
657.361156
 20
530.386247
 30
0.0
 10
657.291086
 20
530.647753
 30
0.0
 10
657.159908
 20
530.874387
 30
0.0
  0
SPLINE
  5
599
330
1F
100
AcDbEntity
  8
0
 62
     0
100
AcDbSpline
210
0.0
220
0.0
230
1.0
 70
     8
 71
     3
 72
     8
 73
     4
 74
     0
 42
0.000000001
 43
0.0000000001
 40
0.0
 40
0.0
 40
0.0
 40
0.0
 40
1.0
 40
1.0
 40
1.0
 40
1.0
 10
657.159908
 20
530.874387
 30
0.0
 10
657.029225
 20
531.101308
 30
0.0
 10
656.83779
 20
531.292743
 30
0.0
 10
656.61087
 20
531.423425
 30
0.0
  0
SPLINE
  5
600
330
1F
100
AcDbEntity
  8
0
 62
     0
100
AcDbSpline
210
0.0
220
0.0
230
1.0
 70
     8
 71
     3
 72
     8
 73
     4
 74
     0
 42
0.000000001
 43
0.0000000001
 40
0.0
 40
0.0
 40
0.0
 40
0.0
 40
1.0
 40
1.0
 40
1.0
 40
1.0
 10
656.61087
 20
531.423425
 30
0.0
 10
656.384235
 20
531.554603
 30
0.0
 10
656.12273
 20
531.624673
 30
0.0
 10
655.86087
 20
531.624387
 30
0.0
  0
SPLINE
  5
601
330
1F
100
AcDbEntity
  8
0
 62
     0
100
AcDbSpline
210
0.0
220
0.0
230
1.0
 70
     8
 71
     3
 72
     8
 73
     4
 74
     0
 42
0.000000001
 43
0.0000000001
 40
0.0
 40
0.0
 40
0.0
 40
0.0
 40
1.0
 40
1.0
 40
1.0
 40
1.0
 10
655.86087
 20
531.624387
 30
0.0
 10
655.599009
 20
531.624673
 30
0.0
 10
655.337504
 20
531.554603
 30
0.0
 10
655.11087
 20
531.423425
 30
0.0
  0
SPLINE
  5
602
330
1F
100
AcDbEntity
  8
0
 62
     0
100
AcDbSpline
210
0.0
220
0.0
230
1.0
 70
     8
 71
     3
 72
     8
 73
     4
 74
     0
 42
0.000000001
 43
0.0000000001
 40
0.0
 40
0.0
 40
0.0
 40
0.0
 40
1.0
 40
1.0
 40
1.0
 40
1.0
 10
655.11087
 20
531.423425
 30
0.0
 10
654.883949
 20
531.292743
 30
0.0
 10
654.692514
 20
531.101308
 30
0.0
 10
654.561831
 20
530.874387
 30
0.0
  0
SPLINE
  5
603
330
1F
100
AcDbEntity
  8
0
 62
     0
100
AcDbSpline
210
0.0
220
0.0
230
1.0
 70
     8
 71
     3
 72
     8
 73
     4
 74
     0
 42
0.000000001
 43
0.0000000001
 40
0.0
 40
0.0
 40
0.0
 40
0.0
 40
1.0
 40
1.0
 40
1.0
 40
1.0
 10
654.561831
 20
530.874387
 30
0.0
 10
654.430654
 20
530.647753
 30
0.0
 10
654.360583
 20
530.386247
 30
0.0
 10
654.36087
 20
530.124387
 30
0.0
  0
LINE
  5
604
330
1F
100
AcDbEntity
  8
0
 62
     7
100
AcDbLine
 10
619.86087
 20
530.124387
 30
0.0
 11
619.86087
 21
490.124387
 31
0.0
  0
SPLINE
  5
605
330
1F
100
AcDbEntity
  8
0
 62
     7
100
AcDbSpline
210
0.0
220
0.0
230
1.0
 70
     8
 71
     3
 72
     8
 73
     4
 74
     0
 42
0.000000001
 43
0.0000000001
 40
0.0
 40
0.0
 40
0.0
 40
0.0
 40
1.0
 40
1.0
 40
1.0
 40
1.0
 10
619.86087
 20
490.124387
 30
0.0
 10
619.861823
 20
489.25152
 30
0.0
 10
619.628256
 20
488.379836
 30
0.0
 10
619.190997
 20
487.624387
 30
0.0
  0
SPLINE
  5
606
330
1F
100
AcDbEntity
  8
0
 62
     7
100
AcDbSpline
210
0.0
220
0.0
230
1.0
 70
     8
 71
     3
 72
     8
 73
     4
 74
     0
 42
0.000000001
 43
0.0000000001
 40
0.0
 40
0.0
 40
0.0
 40
0.0
 40
1.0
 40
1.0
 40
1.0
 40
1.0
 10
619.190997
 20
487.624387
 30
0.0
 10
618.755389
 20
486.867985
 30
0.0
 10
618.117272
 20
486.229868
 30
0.0
 10
617.36087
 20
485.79426
 30
0.0
  0
SPLINE
  5
607
330
1F
100
AcDbEntity
  8
0
 62
     7
100
AcDbSpline
210
0.0
220
0.0
230
1.0
 70
     8
 71
     3
 72
     8
 73
     4
 74
     0
 42
0.000000001
 43
0.0000000001
 40
0.0
 40
0.0
 40
0.0
 40
0.0
 40
1.0
 40
1.0
 40
1.0
 40
1.0
 10
617.36087
 20
485.79426
 30
0.0
 10
616.605421
 20
485.357001
 30
0.0
 10
615.733737
 20
485.123433
 30
0.0
 10
614.86087
 20
485.124387
 30
0.0
  0
LINE
  5
608
330
1F
100
AcDbEntity
  8
0
 62
     7
100
AcDbLine
 10
614.86087
 20
485.124387
 30
0.0
 11
607.277781
 21
485.124387
 31
0.0
  0
LINE
  5
609
330
1F
100
AcDbEntity
  8
0
 62
     7
100
AcDbLine
 10
607.277781
 20
485.124387
 30
0.0
 11
607.277781
 21
478.159142
 31
0.0
  0
LINE
  5
610
330
1F
100
AcDbEntity
  8
0
 62
     7
100
AcDbLine
 10
607.277781
 20
478.159142
 30
0.0
 11
608.67797
 21
478.159142
 31
0.0
  0
LINE
  5
611
330
1F
100
AcDbEntity
  8
0
 62
     7
100
AcDbLine
 10
608.67797
 20
478.159142
 30
0.0
 11
608.67797
 21
475.958515
 31
0.0
  0
LINE
  5
612
330
1F
100
AcDbEntity
  8
0
 62
     7
100
AcDbLine
 10
608.67797
 20
475.958515
 30
0.0
 11
607.277781
 21
475.958515
 31
0.0
  0
LINE
  5
613
330
1F
100
AcDbEntity
  8
0
 62
     7
100
AcDbLine
 10
607.277781
 20
475.958515
 30
0.0
 11
607.277781
 21
473.216387
 31
0.0
  0
LINE
  5
614
330
1F
100
AcDbEntity
  8
0
 62
     7
100
AcDbLine
 10
607.277781
 20
473.216387
 30
0.0
 11
604.477093
 21
473.216387
 31
0.0
  0
LINE
  5
615
330
1F
100
AcDbEntity
  8
0
 62
     7
100
AcDbLine
 10
604.477093
 20
473.216387
 30
0.0
 11
604.477093
 21
475.958515
 31
0.0
  0
LINE
  5
616
330
1F
100
AcDbEntity
  8
0
 62
     7
100
AcDbLine
 10
604.477093
 20
475.958515
 30
0.0
 11
603.077609
 21
475.958515
 31
0.0
  0
LINE
  5
617
330
1F
100
AcDbEntity
  8
0
 62
     7
100
AcDbLine
 10
603.077609
 20
475.958515
 30
0.0
 11
603.077609
 21
478.159142
 31
0.0
  0
LINE
  5
618
330
1F
100
AcDbEntity
  8
0
 62
     7
100
AcDbLine
 10
603.077609
 20
478.159142
 30
0.0
 11
604.477093
 21
478.159142
 31
0.0
  0
LINE
  5
619
330
1F
100
AcDbEntity
  8
0
 62
     7
100
AcDbLine
 10
604.477093
 20
478.159142
 30
0.0
 11
604.477093
 21
485.124387
 31
0.0
  0
LINE
  5
620
330
1F
100
AcDbEntity
  8
0
 62
     7
100
AcDbLine
 10
604.477093
 20
485.124387
 30
0.0
 11
598.860504
 21
485.124387
 31
0.0
  0
LINE
  5
621
330
1F
100
AcDbEntity
  8
0
 62
     7
100
AcDbLine
 10
598.860504
 20
485.124387
 30
0.0
 11
598.860504
 21
479.522276
 31
0.0
  0
LINE
  5
622
330
1F
100
AcDbEntity
  8
0
 62
     7
100
AcDbLine
 10
598.860504
 20
479.522276
 30
0.0
 11
551.347348
 21
479.522276
 31
0.0
  0
LINE
  5
623
330
1F
100
AcDbEntity
  8
0
 62
     7
100
AcDbLine
 10
551.347348
 20
479.522276
 30
0.0
 11
551.347348
 21
485.124387
 31
0.0
  0
LINE
  5
624
330
1F
100
AcDbEntity
  8
0
 62
     7
100
AcDbLine
 10
551.347348
 20
485.124387
 30
0.0
 11
542.74767
 21
485.124387
 31
0.0
  0
LINE
  5
625
330
1F
100
AcDbEntity
  8
0
 62
     7
100
AcDbLine
 10
542.74767
 20
485.124387
 30
0.0
 11
542.74767
 21
478.159142
 31
0.0
  0
LINE
  5
626
330
1F
100
AcDbEntity
  8
0
 62
     7
100
AcDbLine
 10
542.74767
 20
478.159142
 30
0.0
 11
544.147126
 21
478.159142
 31
0.0
  0
LINE
  5
627
330
1F
100
AcDbEntity
  8
0
 62
     7
100
AcDbLine
 10
544.147126
 20
478.159142
 30
0.0
 11
544.147126
 21
475.958515
 31
0.0
  0
LINE
  5
628
330
1F
100
AcDbEntity
  8
0
 62
     7
100
AcDbLine
 10
544.147126
 20
475.958515
 30
0.0
 11
542.74767
 21
475.958515
 31
0.0
  0
LINE
  5
629
330
1F
100
AcDbEntity
  8
0
 62
     7
100
AcDbLine
 10
542.74767
 20
475.958515
 30
0.0
 11
542.74767
 21
473.216387
 31
0.0
  0
LINE
  5
630
330
1F
100
AcDbEntity
  8
0
 62
     7
100
AcDbLine
 10
542.74767
 20
473.216387
 30
0.0
 11
539.946982
 21
473.216387
 31
0.0
  0
LINE
  5
631
330
1F
100
AcDbEntity
  8
0
 62
     7
100
AcDbLine
 10
539.946982
 20
473.216387
 30
0.0
 11
539.946982
 21
475.958515
 31
0.0
  0
LINE
  5
632
330
1F
100
AcDbEntity
  8
0
 62
     7
100
AcDbLine
 10
539.946982
 20
475.958515
 30
0.0
 11
538.547498
 21
475.958515
 31
0.0
  0
LINE
  5
633
330
1F
100
AcDbEntity
  8
0
 62
     7
100
AcDbLine
 10
538.547498
 20
475.958515
 30
0.0
 11
538.547498
 21
478.159142
 31
0.0
  0
LINE
  5
634
330
1F
100
AcDbEntity
  8
0
 62
     7
100
AcDbLine
 10
538.547498
 20
478.159142
 30
0.0
 11
539.946982
 21
478.159142
 31
0.0
  0
LINE
  5
635
330
1F
100
AcDbEntity
  8
0
 62
     7
100
AcDbLine
 10
539.946982
 20
478.159142
 30
0.0
 11
539.946982
 21
485.124387
 31
0.0
  0
LINE
  5
636
330
1F
100
AcDbEntity
  8
0
 62
     7
100
AcDbLine
 10
539.946982
 20
485.124387
 30
0.0
 11
531.348009
 21
485.124387
 31
0.0
  0
LINE
  5
637
330
1F
100
AcDbEntity
  8
0
 62
     7
100
AcDbLine
 10
531.348009
 20
485.124387
 30
0.0
 11
531.348009
 21
479.522276
 31
0.0
  0
LINE
  5
638
330
1F
100
AcDbEntity
  8
0
 62
     7
100
AcDbLine
 10
531.348009
 20
479.522276
 30
0.0
 11
483.834487
 21
479.522276
 31
0.0
  0
LINE
  5
639
330
1F
100
AcDbEntity
  8
0
 62
     7
100
AcDbLine
 10
483.834487
 20
479.522276
 30
0.0
 11
483.834487
 21
485.124387
 31
0.0
  0
LINE
  5
640
330
1F
100
AcDbEntity
  8
0
 62
     7
100
AcDbLine
 10
483.834487
 20
485.124387
 30
0.0
 11
475.217531
 21
485.124387
 31
0.0
  0
LINE
  5
641
330
1F
100
AcDbEntity
  8
0
 62
     7
100
AcDbLine
 10
475.217531
 20
485.124387
 30
0.0
 11
475.217531
 21
478.159142
 31
0.0
  0
LINE
  5
642
330
1F
100
AcDbEntity
  8
0
 62
     7
100
AcDbLine
 10
475.217531
 20
478.159142
 30
0.0
 11
476.617015
 21
478.159142
 31
0.0
  0
LINE
  5
643
330
1F
100
AcDbEntity
  8
0
 62
     7
100
AcDbLine
 10
476.617015
 20
478.159142
 30
0.0
 11
476.617015
 21
475.958515
 31
0.0
  0
LINE
  5
644
330
1F
100
AcDbEntity
  8
0
 62
     7
100
AcDbLine
 10
476.617015
 20
475.958515
 30
0.0
 11
475.217531
 21
475.958515
 31
0.0
  0
LINE
  5
645
330
1F
100
AcDbEntity
  8
0
 62
     7
100
AcDbLine
 10
475.217531
 20
475.958515
 30
0.0
 11
475.217531
 21
473.216387
 31
0.0
  0
LINE
  5
646
330
1F
100
AcDbEntity
  8
0
 62
     7
100
AcDbLine
 10
475.217531
 20
473.216387
 30
0.0
 11
472.416814
 21
473.216387
 31
0.0
  0
LINE
  5
647
330
1F
100
AcDbEntity
  8
0
 62
     7
100
AcDbLine
 10
472.416814
 20
473.216387
 30
0.0
 11
472.416814
 21
475.958515
 31
0.0
  0
LINE
  5
648
330
1F
100
AcDbEntity
  8
0
 62
     7
100
AcDbLine
 10
472.416814
 20
475.958515
 30
0.0
 11
471.016653
 21
475.958515
 31
0.0
  0
LINE
  5
649
330
1F
100
AcDbEntity
  8
0
 62
     7
100
AcDbLine
 10
471.016653
 20
475.958515
 30
0.0
 11
471.016653
 21
478.159142
 31
0.0
  0
LINE
  5
650
330
1F
100
AcDbEntity
  8
0
 62
     7
100
AcDbLine
 10
471.016653
 20
478.159142
 30
0.0
 11
472.416814
 21
478.159142
 31
0.0
  0
LINE
  5
651
330
1F
100
AcDbEntity
  8
0
 62
     7
100
AcDbLine
 10
472.416814
 20
478.159142
 30
0.0
 11
472.416814
 21
485.124754
 31
0.0
  0
LINE
  5
652
330
1F
100
AcDbEntity
  8
0
 62
     7
100
AcDbLine
 10
472.416814
 20
485.124754
 30
0.0
 11
463.834465
 21
485.124754
 31
0.0
  0
LINE
  5
653
330
1F
100
AcDbEntity
  8
0
 62
     7
100
AcDbLine
 10
463.834465
 20
485.124754
 30
0.0
 11
463.834465
 21
479.522276
 31
0.0
  0
LINE
  5
654
330
1F
100
AcDbEntity
  8
0
 62
     7
100
AcDbLine
 10
463.834465
 20
479.522276
 30
0.0
 11
429.916298
 21
479.522276
 31
0.0
  0
LINE
  5
655
330
1F
100
AcDbEntity
  8
0
 62
     7
100
AcDbLine
 10
429.916298
 20
479.522276
 30
0.0
 11
429.916298
 21
485.122637
 31
0.0
  0
LINE
  5
656
330
1F
100
AcDbEntity
  8
0
 62
     7
100
AcDbLine
 10
429.916298
 20
485.122637
 30
0.0
 11
421.333914
 21
485.122355
 31
0.0
  0
LINE
  5
657
330
1F
100
AcDbEntity
  8
0
 62
     7
100
AcDbLine
 10
421.333914
 20
485.122355
 30
0.0
 11
421.333914
 21
478.157449
 31
0.0
  0
LINE
  5
658
330
1F
100
AcDbEntity
  8
0
 62
     7
100
AcDbLine
 10
421.333914
 20
478.157449
 30
0.0
 11
422.734103
 21
478.157449
 31
0.0
  0
LINE
  5
659
330
1F
100
AcDbEntity
  8
0
 62
     7
100
AcDbLine
 10
422.734103
 20
478.157449
 30
0.0
 11
422.734103
 21
475.957527
 31
0.0
  0
LINE
  5
660
330
1F
100
AcDbEntity
  8
0
 62
     7
100
AcDbLine
 10
422.734103
 20
475.957527
 30
0.0
 11
421.333914
 21
475.957527
 31
0.0
  0
LINE
  5
661
330
1F
100
AcDbEntity
  8
0
 62
     7
100
AcDbLine
 10
421.333914
 20
475.957527
 30
0.0
 11
421.333914
 21
473.214694
 31
0.0
  0
LINE
  5
662
330
1F
100
AcDbEntity
  8
0
 62
     7
100
AcDbLine
 10
421.333914
 20
473.214694
 30
0.0
 11
418.532859
 21
473.214694
 31
0.0
  0
LINE
  5
663
330
1F
100
AcDbEntity
  8
0
 62
     7
100
AcDbLine
 10
418.532859
 20
473.214694
 30
0.0
 11
418.532859
 21
475.958232
 31
0.0
  0
LINE
  5
664
330
1F
100
AcDbEntity
  8
0
 62
     7
100
AcDbLine
 10
418.532859
 20
475.958232
 30
0.0
 11
417.133742
 21
475.958232
 31
0.0
  0
LINE
  5
665
330
1F
100
AcDbEntity
  8
0
 62
     7
100
AcDbLine
 10
417.133742
 20
475.958232
 30
0.0
 11
417.133742
 21
478.158155
 31
0.0
  0
LINE
  5
666
330
1F
100
AcDbEntity
  8
0
 62
     7
100
AcDbLine
 10
417.133742
 20
478.158155
 30
0.0
 11
418.532859
 21
478.158155
 31
0.0
  0
LINE
  5
667
330
1F
100
AcDbEntity
  8
0
 62
     7
100
AcDbLine
 10
418.532859
 20
478.158155
 30
0.0
 11
418.532859
 21
485.12306
 31
0.0
  0
LINE
  5
668
330
1F
100
AcDbEntity
  8
0
 62
     7
100
AcDbLine
 10
418.532859
 20
485.12306
 30
0.0
 11
409.916276
 21
485.12306
 31
0.0
  0
LINE
  5
669
330
1F
100
AcDbEntity
  8
0
 62
     7
100
AcDbLine
 10
409.916276
 20
485.12306
 30
0.0
 11
409.916276
 21
479.522276
 31
0.0
  0
LINE
  5
670
330
1F
100
AcDbEntity
  8
0
 62
     7
100
AcDbLine
 10
409.916276
 20
479.522276
 30
0.0
 11
389.866565
 21
479.522276
 31
0.0
  0
LINE
  5
671
330
1F
100
AcDbEntity
  8
0
 62
     7
100
AcDbLine
 10
389.866565
 20
479.522276
 30
0.0
 11
389.847601
 21
344.748803
 31
0.0
  0
LINE
  5
672
330
1F
100
AcDbEntity
  8
0
 62
     7
100
AcDbLine
 10
389.847601
 20
344.748803
 30
0.0
 11
409.916276
 21
344.748803
 31
0.0
  0
LINE
  5
673
330
1F
100
AcDbEntity
  8
0
 62
     7
100
AcDbLine
 10
409.916276
 20
344.748803
 30
0.0
 11
409.916276
 21
339.148019
 31
0.0
  0
LINE
  5
674
330
1F
100
AcDbEntity
  8
0
 62
     7
100
AcDbLine
 10
409.916276
 20
339.148019
 30
0.0
 11
418.532859
 21
339.148019
 31
0.0
  0
LINE
  5
675
330
1F
100
AcDbEntity
  8
0
 62
     7
100
AcDbLine
 10
418.532859
 20
339.148019
 30
0.0
 11
418.532859
 21
346.112924
 31
0.0
  0
LINE
  5
676
330
1F
100
AcDbEntity
  8
0
 62
     7
100
AcDbLine
 10
418.532859
 20
346.112924
 30
0.0
 11
417.133742
 21
346.112924
 31
0.0
  0
LINE
  5
677
330
1F
100
AcDbEntity
  8
0
 62
     7
100
AcDbLine
 10
417.133742
 20
346.112924
 30
0.0
 11
417.133742
 21
348.312847
 31
0.0
  0
LINE
  5
678
330
1F
100
AcDbEntity
  8
0
 62
     7
100
AcDbLine
 10
417.133742
 20
348.312847
 30
0.0
 11
418.532859
 21
348.312847
 31
0.0
  0
LINE
  5
679
330
1F
100
AcDbEntity
  8
0
 62
     7
100
AcDbLine
 10
418.532859
 20
348.312847
 30
0.0
 11
418.532859
 21
351.056385
 31
0.0
  0
LINE
  5
680
330
1F
100
AcDbEntity
  8
0
 62
     7
100
AcDbLine
 10
418.532859
 20
351.056385
 30
0.0
 11
421.333914
 21
351.056385
 31
0.0
  0
LINE
  5
681
330
1F
100
AcDbEntity
  8
0
 62
     7
100
AcDbLine
 10
421.333914
 20
351.056385
 30
0.0
 11
421.333914
 21
348.313552
 31
0.0
  0
LINE
  5
682
330
1F
100
AcDbEntity
  8
0
 62
     7
100
AcDbLine
 10
421.333914
 20
348.313552
 30
0.0
 11
422.734103
 21
348.313552
 31
0.0
  0
LINE
  5
683
330
1F
100
AcDbEntity
  8
0
 62
     7
100
AcDbLine
 10
422.734103
 20
348.313552
 30
0.0
 11
422.734103
 21
346.11363
 31
0.0
  0
LINE
  5
684
330
1F
100
AcDbEntity
  8
0
 62
     7
100
AcDbLine
 10
422.734103
 20
346.11363
 30
0.0
 11
421.333914
 21
346.11363
 31
0.0
  0
LINE
  5
685
330
1F
100
AcDbEntity
  8
0
 62
     7
100
AcDbLine
 10
421.333914
 20
346.11363
 30
0.0
 11
421.333914
 21
339.148724
 31
0.0
  0
LINE
  5
686
330
1F
100
AcDbEntity
  8
0
 62
     7
100
AcDbLine
 10
421.333914
 20
339.148724
 30
0.0
 11
429.916298
 21
339.148442
 31
0.0
  0
LINE
  5
687
330
1F
100
AcDbEntity
  8
0
 62
     7
100
AcDbLine
 10
429.916298
 20
339.148442
 30
0.0
 11
429.916298
 21
344.748803
 31
0.0
  0
LINE
  5
688
330
1F
100
AcDbEntity
  8
0
 62
     7
100
AcDbLine
 10
429.916298
 20
344.748803
 30
0.0
 11
463.834832
 21
344.748803
 31
0.0
  0
LINE
  5
689
330
1F
100
AcDbEntity
  8
0
 62
     7
100
AcDbLine
 10
463.834832
 20
344.748803
 30
0.0
 11
463.834832
 21
339.148019
 31
0.0
  0
LINE
  5
690
330
1F
100
AcDbEntity
  8
0
 62
     7
100
AcDbLine
 10
463.834832
 20
339.148019
 30
0.0
 11
472.451415
 21
339.148019
 31
0.0
  0
LINE
  5
691
330
1F
100
AcDbEntity
  8
0
 62
     7
100
AcDbLine
 10
472.451415
 20
339.148019
 30
0.0
 11
472.451415
 21
346.112924
 31
0.0
  0
LINE
  5
692
330
1F
100
AcDbEntity
  8
0
 62
     7
100
AcDbLine
 10
472.451415
 20
346.112924
 30
0.0
 11
471.052298
 21
346.112924
 31
0.0
  0
LINE
  5
693
330
1F
100
AcDbEntity
  8
0
 62
     7
100
AcDbLine
 10
471.052298
 20
346.112924
 30
0.0
 11
471.052298
 21
348.312847
 31
0.0
  0
LINE
  5
694
330
1F
100
AcDbEntity
  8
0
 62
     7
100
AcDbLine
 10
471.052298
 20
348.312847
 30
0.0
 11
472.451415
 21
348.312847
 31
0.0
  0
LINE
  5
695
330
1F
100
AcDbEntity
  8
0
 62
     7
100
AcDbLine
 10
472.451415
 20
348.312847
 30
0.0
 11
472.451415
 21
351.056385
 31
0.0
  0
LINE
  5
696
330
1F
100
AcDbEntity
  8
0
 62
     7
100
AcDbLine
 10
472.451415
 20
351.056385
 30
0.0
 11
475.25247
 21
351.056385
 31
0.0
  0
LINE
  5
697
330
1F
100
AcDbEntity
  8
0
 62
     7
100
AcDbLine
 10
475.25247
 20
351.056385
 30
0.0
 11
475.25247
 21
348.313552
 31
0.0
  0
LINE
  5
698
330
1F
100
AcDbEntity
  8
0
 62
     7
100
AcDbLine
 10
475.25247
 20
348.313552
 30
0.0
 11
476.652659
 21
348.313552
 31
0.0
  0
LINE
  5
699
330
1F
100
AcDbEntity
  8
0
 62
     7
100
AcDbLine
 10
476.652659
 20
348.313552
 30
0.0
 11
476.652659
 21
346.11363
 31
0.0
  0
LINE
  5
700
330
1F
100
AcDbEntity
  8
0
 62
     7
100
AcDbLine
 10
476.652659
 20
346.11363
 30
0.0
 11
475.25247
 21
346.11363
 31
0.0
  0
LINE
  5
701
330
1F
100
AcDbEntity
  8
0
 62
     7
100
AcDbLine
 10
475.25247
 20
346.11363
 30
0.0
 11
475.25247
 21
339.148724
 31
0.0
  0
LINE
  5
702
330
1F
100
AcDbEntity
  8
0
 62
     7
100
AcDbLine
 10
475.25247
 20
339.148724
 30
0.0
 11
483.834854
 21
339.148442
 31
0.0
  0
LINE
  5
703
330
1F
100
AcDbEntity
  8
0
 62
     7
100
AcDbLine
 10
483.834854
 20
339.148442
 30
0.0
 11
483.834854
 21
344.748803
 31
0.0
  0
LINE
  5
704
330
1F
100
AcDbEntity
  8
0
 62
     7
100
AcDbLine
 10
483.834854
 20
344.748803
 30
0.0
 11
531.348009
 21
344.748803
 31
0.0
  0
LINE
  5
705
330
1F
100
AcDbEntity
  8
0
 62
     7
100
AcDbLine
 10
531.348009
 20
344.748803
 30
0.0
 11
531.348009
 21
339.149147
 31
0.0
  0
LINE
  5
706
330
1F
100
AcDbEntity
  8
0
 62
     7
100
AcDbLine
 10
531.348009
 20
339.149147
 30
0.0
 11
539.946982
 21
339.149147
 31
0.0
  0
LINE
  5
707
330
1F
100
AcDbEntity
  8
0
 62
     7
100
AcDbLine
 10
539.946982
 20
339.149147
 30
0.0
 11
539.946982
 21
346.113686
 31
0.0
  0
LINE
  5
708
330
1F
100
AcDbEntity
  8
0
 62
     7
100
AcDbLine
 10
539.946982
 20
346.113686
 30
0.0
 11
538.547526
 21
346.113686
 31
0.0
  0
LINE
  5
709
330
1F
100
AcDbEntity
  8
0
 62
     7
100
AcDbLine
 10
538.547526
 20
346.113686
 30
0.0
 11
538.547526
 21
348.314314
 31
0.0
  0
LINE
  5
710
330
1F
100
AcDbEntity
  8
0
 62
     7
100
AcDbLine
 10
538.547526
 20
348.314314
 30
0.0
 11
539.946982
 21
348.314314
 31
0.0
  0
LINE
  5
711
330
1F
100
AcDbEntity
  8
0
 62
     7
100
AcDbLine
 10
539.946982
 20
348.314314
 30
0.0
 11
539.946982
 21
351.05647
 31
0.0
  0
LINE
  5
712
330
1F
100
AcDbEntity
  8
0
 62
     7
100
AcDbLine
 10
539.946982
 20
351.05647
 30
0.0
 11
542.747698
 21
351.05647
 31
0.0
  0
LINE
  5
713
330
1F
100
AcDbEntity
  8
0
 62
     7
100
AcDbLine
 10
542.747698
 20
351.05647
 30
0.0
 11
542.747698
 21
348.314314
 31
0.0
  0
LINE
  5
714
330
1F
100
AcDbEntity
  8
0
 62
     7
100
AcDbLine
 10
542.747698
 20
348.314314
 30
0.0
 11
544.147154
 21
348.314314
 31
0.0
  0
LINE
  5
715
330
1F
100
AcDbEntity
  8
0
 62
     7
100
AcDbLine
 10
544.147154
 20
348.314314
 30
0.0
 11
544.147154
 21
346.113686
 31
0.0
  0
LINE
  5
716
330
1F
100
AcDbEntity
  8
0
 62
     7
100
AcDbLine
 10
544.147154
 20
346.113686
 30
0.0
 11
542.747698
 21
346.113686
 31
0.0
  0
LINE
  5
717
330
1F
100
AcDbEntity
  8
0
 62
     7
100
AcDbLine
 10
542.747698
 20
346.113686
 30
0.0
 11
542.747698
 21
339.149147
 31
0.0
  0
LINE
  5
718
330
1F
100
AcDbEntity
  8
0
 62
     7
100
AcDbLine
 10
542.747698
 20
339.149147
 30
0.0
 11
551.347348
 21
339.149147
 31
0.0
  0
LINE
  5
719
330
1F
100
AcDbEntity
  8
0
 62
     7
100
AcDbLine
 10
551.347348
 20
339.149147
 30
0.0
 11
551.347348
 21
344.748803
 31
0.0
  0
LINE
  5
720
330
1F
100
AcDbEntity
  8
0
 62
     7
100
AcDbLine
 10
551.347348
 20
344.748803
 30
0.0
 11
598.86087
 21
344.748803
 31
0.0
  0
LINE
  5
721
330
1F
100
AcDbEntity
  8
0
 62
     7
100
AcDbLine
 10
598.86087
 20
344.748803
 30
0.0
 11
598.86087
 21
339.149147
 31
0.0
  0
LINE
  5
722
330
1F
100
AcDbEntity
  8
0
 62
     7
100
AcDbLine
 10
598.86087
 20
339.149147
 30
0.0
 11
604.477798
 21
339.149147
 31
0.0
  0
LINE
  5
723
330
1F
100
AcDbEntity
  8
0
 62
     7
100
AcDbLine
 10
604.477798
 20
339.149147
 30
0.0
 11
604.477798
 21
346.113686
 31
0.0
  0
LINE
  5
724
330
1F
100
AcDbEntity
  8
0
 62
     7
100
AcDbLine
 10
604.477798
 20
346.113686
 30
0.0
 11
603.078343
 21
346.113686
 31
0.0
  0
LINE
  5
725
330
1F
100
AcDbEntity
  8
0
 62
     7
100
AcDbLine
 10
603.078343
 20
346.113686
 30
0.0
 11
603.078343
 21
348.314314
 31
0.0
  0
LINE
  5
726
330
1F
100
AcDbEntity
  8
0
 62
     7
100
AcDbLine
 10
603.078343
 20
348.314314
 30
0.0
 11
604.477798
 21
348.314314
 31
0.0
  0
LINE
  5
727
330
1F
100
AcDbEntity
  8
0
 62
     7
100
AcDbLine
 10
604.477798
 20
348.314314
 30
0.0
 11
604.477798
 21
351.05647
 31
0.0
  0
LINE
  5
728
330
1F
100
AcDbEntity
  8
0
 62
     7
100
AcDbLine
 10
604.477798
 20
351.05647
 30
0.0
 11
607.278487
 21
351.05647
 31
0.0
  0
LINE
  5
729
330
1F
100
AcDbEntity
  8
0
 62
     7
100
AcDbLine
 10
607.278487
 20
351.05647
 30
0.0
 11
607.278487
 21
348.314314
 31
0.0
  0
LINE
  5
730
330
1F
100
AcDbEntity
  8
0
 62
     7
100
AcDbLine
 10
607.278487
 20
348.314314
 30
0.0
 11
608.678676
 21
348.314314
 31
0.0
  0
LINE
  5
731
330
1F
100
AcDbEntity
  8
0
 62
     7
100
AcDbLine
 10
608.678676
 20
348.314314
 30
0.0
 11
608.678676
 21
346.113686
 31
0.0
  0
LINE
  5
732
330
1F
100
AcDbEntity
  8
0
 62
     7
100
AcDbLine
 10
608.678676
 20
346.113686
 30
0.0
 11
607.278487
 21
346.113686
 31
0.0
  0
LINE
  5
733
330
1F
100
AcDbEntity
  8
0
 62
     7
100
AcDbLine
 10
607.278487
 20
346.113686
 30
0.0
 11
607.278487
 21
339.149147
 31
0.0
  0
LINE
  5
734
330
1F
100
AcDbEntity
  8
0
 62
     7
100
AcDbLine
 10
607.278487
 20
339.149147
 30
0.0
 11
614.86087
 21
339.149147
 31
0.0
  0
SPLINE
  5
735
330
1F
100
AcDbEntity
  8
0
 62
     7
100
AcDbSpline
210
0.0
220
0.0
230
1.0
 70
     8
 71
     3
 72
     8
 73
     4
 74
     0
 42
0.000000001
 43
0.0000000001
 40
0.0
 40
0.0
 40
0.0
 40
0.0
 40
1.0
 40
1.0
 40
1.0
 40
1.0
 10
614.86087
 20
339.149147
 30
0.0
 10
615.733737
 20
339.150101
 30
0.0
 10
616.605421
 20
338.916534
 30
0.0
 10
617.36087
 20
338.479274
 30
0.0
  0
SPLINE
  5
736
330
1F
100
AcDbEntity
  8
0
 62
     7
100
AcDbSpline
210
0.0
220
0.0
230
1.0
 70
     8
 71
     3
 72
     8
 73
     4
 74
     0
 42
0.000000001
 43
0.0000000001
 40
0.0
 40
0.0
 40
0.0
 40
0.0
 40
1.0
 40
1.0
 40
1.0
 40
1.0
 10
617.36087
 20
338.479274
 30
0.0
 10
618.117272
 20
338.043666
 30
0.0
 10
618.755389
 20
337.405549
 30
0.0
 10
619.190997
 20
336.649147
 30
0.0
  0
SPLINE
  5
737
330
1F
100
AcDbEntity
  8
0
 62
     7
100
AcDbSpline
210
0.0
220
0.0
230
1.0
 70
     8
 71
     3
 72
     8
 73
     4
 74
     0
 42
0.000000001
 43
0.0000000001
 40
0.0
 40
0.0
 40
0.0
 40
0.0
 40
1.0
 40
1.0
 40
1.0
 40
1.0
 10
619.190997
 20
336.649147
 30
0.0
 10
619.628256
 20
335.893699
 30
0.0
 10
619.861823
 20
335.022014
 30
0.0
 10
619.86087
 20
334.149147
 30
0.0
  0
LINE
  5
738
330
1F
100
AcDbEntity
  8
0
 62
     7
100
AcDbLine
 10
619.86087
 20
334.149147
 30
0.0
 11
619.86087
 21
294.149147
 31
0.0
  0
SPLINE
  5
739
330
1F
100
AcDbEntity
  8
0
 62
     7
100
AcDbSpline
210
0.0
220
0.0
230
1.0
 70
     8
 71
     3
 72
     8
 73
     4
 74
     0
 42
0.000000001
 43
0.0000000001
 40
0.0
 40
0.0
 40
0.0
 40
0.0
 40
1.0
 40
1.0
 40
1.0
 40
1.0
 10
619.86087
 20
294.149147
 30
0.0
 10
619.859916
 20
293.27628
 30
0.0
 10
620.093483
 20
292.404596
 30
0.0
 10
620.530743
 20
291.649147
 30
0.0
  0
SPLINE
  5
740
330
1F
100
AcDbEntity
  8
0
 62
     7
100
AcDbSpline
210
0.0
220
0.0
230
1.0
 70
     8
 71
     3
 72
     8
 73
     4
 74
     0
 42
0.000000001
 43
0.0000000001
 40
0.0
 40
0.0
 40
0.0
 40
0.0
 40
1.0
 40
1.0
 40
1.0
 40
1.0
 10
620.530743
 20
291.649147
 30
0.0
 10
620.96635
 20
290.892745
 30
0.0
 10
621.604467
 20
290.254628
 30
0.0
 10
622.36087
 20
289.81902
 30
0.0
  0
SPLINE
  5
741
330
1F
100
AcDbEntity
  8
0
 62
     7
100
AcDbSpline
210
0.0
220
0.0
230
1.0
 70
     8
 71
     3
 72
     8
 73
     4
 74
     0
 42
0.000000001
 43
0.0000000001
 40
0.0
 40
0.0
 40
0.0
 40
0.0
 40
1.0
 40
1.0
 40
1.0
 40
1.0
 10
622.36087
 20
289.81902
 30
0.0
 10
623.116318
 20
289.381761
 30
0.0
 10
623.988002
 20
289.148193
 30
0.0
 10
624.86087
 20
289.149147
 30
0.0
  0
LINE
  5
742
330
1F
100
AcDbEntity
  8
0
 62
     7
100
AcDbLine
 10
624.86087
 20
289.149147
 30
0.0
 11
662.86087
 21
289.149147
 31
0.0
  0
SPLINE
  5
743
330
1F
100
AcDbEntity
  8
0
 62
     7
100
AcDbSpline
210
0.0
220
0.0
230
1.0
 70
     8
 71
     3
 72
     8
 73
     4
 74
     0
 42
0.000000001
 43
0.0000000001
 40
0.0
 40
0.0
 40
0.0
 40
0.0
 40
1.0
 40
1.0
 40
1.0
 40
1.0
 10
662.86087
 20
289.149147
 30
0.0
 10
663.38459
 20
289.148575
 30
0.0
 10
663.907601
 20
289.288715
 30
0.0
 10
664.36087
 20
289.551071
 30
0.0
  0
SPLINE
  5
744
330
1F
100
AcDbEntity
  8
0
 62
     7
100
AcDbSpline
210
0.0
220
0.0
230
1.0
 70
     8
 71
     3
 72
     8
 73
     4
 74
     0
 42
0.000000001
 43
0.0000000001
 40
0.0
 40
0.0
 40
0.0
 40
0.0
 40
1.0
 40
1.0
 40
1.0
 40
1.0
 10
664.36087
 20
289.551071
 30
0.0
 10
664.814711
 20
289.812436
 30
0.0
 10
665.197581
 20
290.195306
 30
0.0
 10
665.458946
 20
290.649147
 30
0.0
  0
SPLINE
  5
745
330
1F
100
AcDbEntity
  8
0
 62
     7
100
AcDbSpline
210
0.0
220
0.0
230
1.0
 70
     8
 71
     3
 72
     8
 73
     4
 74
     0
 42
0.000000001
 43
0.0000000001
 40
0.0
 40
0.0
 40
0.0
 40
0.0
 40
1.0
 40
1.0
 40
1.0
 40
1.0
 10
665.458946
 20
290.649147
 30
0.0
 10
665.721302
 20
291.102416
 30
0.0
 10
665.861442
 20
291.625427
 30
0.0
 10
665.86087
 20
292.149147
 30
0.0
  0
LINE
  5
746
330
1F
100
AcDbEntity
  8
0
 62
     7
100
AcDbLine
 10
665.86087
 20
292.149147
 30
0.0
 11
665.86087
 21
352.149147
 31
0.0
  0
SPLINE
  5
747
330
1F
100
AcDbEntity
  8
0
 62
     7
100
AcDbSpline
210
0.0
220
0.0
230
1.0
 70
     8
 71
     3
 72
     8
 73
     4
 74
     0
 42
0.000000001
 43
0.0000000001
 40
0.0
 40
0.0
 40
0.0
 40
0.0
 40
1.0
 40
1.0
 40
1.0
 40
1.0
 10
665.86087
 20
532.124387
 30
0.0
 10
665.861442
 20
532.648108
 30
0.0
 10
665.721302
 20
533.171118
 30
0.0
 10
665.458946
 20
533.624387
 30
0.0
  0
SPLINE
  5
748
330
1F
100
AcDbEntity
  8
0
 62
     7
100
AcDbSpline
210
0.0
220
0.0
230
1.0
 70
     8
 71
     3
 72
     8
 73
     4
 74
     0
 42
0.000000001
 43
0.0000000001
 40
0.0
 40
0.0
 40
0.0
 40
0.0
 40
1.0
 40
1.0
 40
1.0
 40
1.0
 10
665.458946
 20
533.624387
 30
0.0
 10
665.197581
 20
534.078228
 30
0.0
 10
664.814711
 20
534.461099
 30
0.0
 10
664.36087
 20
534.722463
 30
0.0
  0
SPLINE
  5
749
330
1F
100
AcDbEntity
  8
0
 62
     7
100
AcDbSpline
210
0.0
220
0.0
230
1.0
 70
     8
 71
     3
 72
     8
 73
     4
 74
     0
 42
0.000000001
 43
0.0000000001
 40
0.0
 40
0.0
 40
0.0
 40
0.0
 40
1.0
 40
1.0
 40
1.0
 40
1.0
 10
664.36087
 20
534.722463
 30
0.0
 10
663.907601
 20
534.984819
 30
0.0
 10
663.38459
 20
535.124959
 30
0.0
 10
662.86087
 20
535.124387
 30
0.0
  0
LINE
  5
750
330
1F
100
AcDbEntity
  8
0
 62
     7
100
AcDbLine
 10
662.86087
 20
535.124387
 30
0.0
 11
624.86087
 21
535.124387
 31
0.0
  0
SPLINE
  5
751
330
1F
100
AcDbEntity
  8
0
 62
     7
100
AcDbSpline
210
0.0
220
0.0
230
1.0
 70
     8
 71
     3
 72
     8
 73
     4
 74
     0
 42
0.000000001
 43
0.0000000001
 40
0.0
 40
0.0
 40
0.0
 40
0.0
 40
1.0
 40
1.0
 40
1.0
 40
1.0
 10
624.86087
 20
535.124387
 30
0.0
 10
623.988002
 20
535.125341
 30
0.0
 10
623.116318
 20
534.891774
 30
0.0
 10
622.36087
 20
534.454514
 30
0.0
  0
SPLINE
  5
752
330
1F
100
AcDbEntity
  8
0
 62
     7
100
AcDbSpline
210
0.0
220
0.0
230
1.0
 70
     8
 71
     3
 72
     8
 73
     4
 74
     0
 42
0.000000001
 43
0.0000000001
 40
0.0
 40
0.0
 40
0.0
 40
0.0
 40
1.0
 40
1.0
 40
1.0
 40
1.0
 10
622.36087
 20
534.454514
 30
0.0
 10
621.604467
 20
534.018906
 30
0.0
 10
620.96635
 20
533.380789
 30
0.0
 10
620.530743
 20
532.624387
 30
0.0
  0
SPLINE
  5
753
330
1F
100
AcDbEntity
  8
0
 62
     7
100
AcDbSpline
210
0.0
220
0.0
230
1.0
 70
     8
 71
     3
 72
     8
 73
     4
 74
     0
 42
0.000000001
 43
0.0000000001
 40
0.0
 40
0.0
 40
0.0
 40
0.0
 40
1.0
 40
1.0
 40
1.0
 40
1.0
 10
620.530743
 20
532.624387
 30
0.0
 10
620.093483
 20
531.868939
 30
0.0
 10
619.859916
 20
530.997254
 30
0.0
 10
619.86087
 20
530.124387
 30
0.0
  0
LINE
  5
79C
330
1F
100
AcDbEntity
  8
0
 62
     7
100
AcDbLine
 10
662.86087
 20
354.149147
 30
0.0
 11
663.86087
 21
354.149147
 31
0.0
  0
LINE
  5
79D
330
1F
100
AcDbEntity
  8
0
 62
     7
100
AcDbLine
 10
660.86087
 20
356.149147
 30
0.0
 11
660.86087
 21
498.124387
 31
0.0
  0
LINE
  5
79E
330
1F
100
AcDbEntity
  8
0
 62
     7
100
AcDbLine
 10
663.86087
 20
500.124387
 30
0.0
 11
662.86087
 21
500.124387
 31
0.0
  0
LINE
  5
79F
330
1F
100
AcDbEntity
  8
0
 62
     7
100
AcDbLine
 10
665.86087
 20
502.124387
 30
0.0
 11
665.86087
 21
532.124387
 31
0.0
  0
ARC
  5
7A0
330
1F
100
AcDbEntity
  8
0
 62
     7
100
AcDbCircle
 10
663.86087
 20
352.149147
 30
0.0
 40
2.000000000000001
100
AcDbArc
 50
0.0
 51
90.0
  0
ARC
  5
7A1
330
1F
100
AcDbEntity
  8
0
 62
     7
100
AcDbCircle
 10
662.86087
 20
356.149147
 30
0.0
 40
2.000000000000001
100
AcDbArc
 50
180.0
 51
270.0
  0
ARC
  5
7A2
330
1F
100
AcDbEntity
  8
0
 62
     7
100
AcDbCircle
 10
663.86087
 20
502.124387
 30
0.0
 40
2.000000000000001
100
AcDbArc
 50
270.0
 51
0.0
  0
ARC
  5
7A3
330
1F
100
AcDbEntity
  8
0
 62
     7
100
AcDbCircle
 10
662.86087
 20
498.124387
 30
0.0
 40
2.000000000000001
100
AcDbArc
 50
90.00000000000001
 51
180.0
  0
CIRCLE
  5
7AC
330
1F
100
AcDbEntity
  8
0
100
AcDbCircle
 10
655.8608699443436
 20
520.1264678585146
 30
0.0
 40
2.25
  0
CIRCLE
  5
7AD
330
1F
100
AcDbEntity
  8
0
100
AcDbCircle
 10
655.8608699443436
 20
412.109904546664
 30
0.0
 40
2.25
  0
CIRCLE
  5
7AE
330
1F
100
AcDbEntity
  8
0
100
AcDbCircle
 10
655.8608699443436
 20
304.1051105854521
 30
0.0
 40
2.25
  0
CIRCLE
  5
7AF
330
1F
100
AcDbEntity
  8
0
100
AcDbCircle
 10
419.8308013220647
 20
412.1205148710059
 30
0.0
 40
2.25
  0
ENDSEC
  0
SECTION
  2
OBJECTS
  0
DICTIONARY
  5
C
330
0
100
AcDbDictionary
  3
ACAD_DETAILVIEWSTYLE
350
7A9
  3
ACAD_GROUP
350
D
  3
ACAD_IMAGE_VARS
350
79B
  3
ACAD_MLINESTYLE
350
17
  3
ACAD_SCALELIST
350
756
  3
ACAD_SECTIONVIEWSTYLE
350
7AA
  3
ACDBVARIABLEDICTIONARY
350
7A4
  3
APPDATA
350
799
  3
DWGPROPS
350
7B0
  0
DICTIONARY
  5
7A9
102
{ACAD_REACTORS
330
C
102
}
330
C
100
AcDbDictionary
  0
DICTIONARY
  5
D
102
{ACAD_REACTORS
330
C
102
}
330
C
100
AcDbDictionary
  0
RASTERVARIABLES
  5
79B
102
{ACAD_REACTORS
330
C
102
}
330
C
100
AcDbRasterVariables
 90
        0
 70
     1
 71
     1
 72
     0
  0
DICTIONARY
  5
17
102
{ACAD_REACTORS
330
C
102
}
330
C
100
AcDbDictionary
  3
STANDARD
350
18
  0
DICTIONARY
  5
756
102
{ACAD_REACTORS
330
C
102
}
330
C
100
AcDbDictionary
  0
DICTIONARY
  5
7AA
102
{ACAD_REACTORS
330
C
102
}
330
C
100
AcDbDictionary
  0
DICTIONARY
  5
7A4
102
{ACAD_REACTORS
330
C
102
}
330
C
100
AcDbDictionary
  0
DICTIONARY
  5
799
102
{ACAD_REACTORS
330
C
102
}
330
C
100
AcDbDictionary
  0
XRECORD
  5
7B0
102
{ACAD_REACTORS
330
C
102
}
330
C
100
AcDbXrecord
  1
DWGPROPS COOKIE
  2

  3

  4

  6

  7

  8
Besoft
  9

300
=
301
=
302
=
303
=
304
=
305
=
306
=
307
=
308
=
309
=
 40
0.0
 41
2453935.892176574
 42
2456676.555149988
  1

 90
        0
  0
MLINESTYLE
  5
18
102
{ACAD_REACTORS
330
17
102
}
330
17
100
AcDbMlineStyle
  2
STANDARD
 70
     0
  3

 62
   256
 51
90.0
 52
90.0
 71
     2
 49
0.5
 62
   256
  6
BYLAYER
 49
-0.5
 62
   256
  6
BYLAYER
  0
ENDSEC
  0
EOF
