999
dxfrw 0.5.13
0
SECTION
2
HEADER
9
$ACADVER
1
AC1021
9
$HANDSEED
5
20000
9
$DWGCODEPAGE
3
ANSI_1250
9
$INSBASE
10
0
20
0
30
0
9
$EXTMIN
10
389.847601
20
289.149147
30
0
9
$EXTMAX
10
705.86087
20
535.124387
30
0
9
$LIMMIN
10
0
20
0
9
$LIMMAX
10
420
20
297
9
$ORTHOMODE
70
0
9
$LTSCALE
40
1
9
$TEXTSTYLE
7
STANDARD
9
$CLAYER
8
0
9
$DIMASZ
40
2.5
9
$DIMLFAC
40
1
9
$DIMSCALE
40
1
9
$DIMEXO
40
0.625
9
$DIMEXE
40
1.25
9
$DIMTXT
40
2.5
9
$DIMTSZ
40
0
9
$DIMAUNIT
70
0
9
$DIMADEC
70
0
9
$DIMLUNIT
70
2
9
$DIMSTYLE
2
ISO-25
9
$DIMGAP
40
0.625
9
$DIMTIH
70
0
9
$LUNITS
70
2
9
$LUPREC
70
4
9
$AUNITS
70
0
9
$AUPREC
70
0
9
$SPLINESEGS
70
8
9
$GRIDMODE
70
0
9
$SNAPSTYLE
70
0
9
$PINSBASE
10
0
20
0
30
0
9
$PLIMMIN
10
0
20
0
9
$PLIMMAX
10
0
20
0
9
$INSUNITS
70
4
9
$PSVPSCALE
40
1
0
ENDSEC
0
SECTION
2
CLASSES
0
ENDSEC
0
SECTION
2
TABLES
0
TABLE
2
VPORT
5
8
330
0
100
AcDbSymbolTable
70
1
0
VPORT
5
31
330
2
100
AcDbSymbolTableRecord
100
AcDbViewportTableRecord
2
*ACTIVE
70
0
10
0
20
0
11
1
21
1
12
421.651766543
22
272.283617168
13
0
23
0
14
10
24
10
15
10
25
10
16
0
26
0
36
1
17
0
27
0
37
0
40
263.731246432
41
2.36953242836
42
50
43
0
44
0
50
0
51
0
71
0
72
100
73
1
74
3
75
0
76
0
77
0
78
0
281
0
65
1
110
0
120
0
130
0
111
1
121
0
131
0
112
0
122
1
132
0
79
0
146
0
348
10020
60
7
61
5
292
1
282
1
141
0
142
0
63
250
421
3358443
0
ENDTAB
0
TABLE
2
LTYPE
5
5
330
0
100
AcDbSymbolTable
70
4
0
LTYPE
5
14
330
5
100
AcDbSymbolTableRecord
100
AcDbLinetypeTableRecord
2
ByBlock
70
0
3

72
65
73
0
40
0
0
LTYPE
5
15
330
5
100
AcDbSymbolTableRecord
100
AcDbLinetypeTableRecord
2
ByLayer
70
0
3

72
65
73
0
40
0
0
LTYPE
5
16
330
5
100
AcDbSymbolTableRecord
100
AcDbLinetypeTableRecord
2
Continuous
70
0
3
Solid line
72
65
73
0
40
0
0
LTYPE
5
32
330
5
100
AcDbSymbolTableRecord
100
AcDbLinetypeTableRecord
2
DOT
70
0
3
Dot . . . . . . . . . . . . . . . . . . . . . .
72
65
73
2
40
6.35
49
0
74
0
49
-6.35
74
0
0
LTYPE
5
33
330
5
100
AcDbSymbolTableRecord
100
AcDbLinetypeTableRecord
2
DOT2
70
0
3
Dot (.5x) .....................................
72
65
73
2
40
3.175
49
0
74
0
49
-3.175
74
0
0
LTYPE
5
34
330
5
100
AcDbSymbolTableRecord
100
AcDbLinetypeTableRecord
2
DOTX2
70
0
3
Dot (2x) .  .  .  .  .  .  .  .  .  .  .  .  .
72
65
73
2
40
12.7
49
0
74
0
49
-12.7
74
0
0
LTYPE
5
35
330
5
100
AcDbSymbolTableRecord
100
AcDbLinetypeTableRecord
2
DASHED
70
0
3
Dot . . . . . . . . . . . . . . . . . . . . . .
72
65
73
2
40
19.05
49
12.7
74
0
49
-6.35
74
0
0
LTYPE
5
36
330
5
100
AcDbSymbolTableRecord
100
AcDbLinetypeTableRecord
2
DASHED2
70
0
3
Dashed (.5x) _ _ _ _ _ _ _ _ _ _ _ _ _ _ _ _ _
72
65
73
2
40
9.525
49
6.35
74
0
49
-3.175
74
0
0
LTYPE
5
37
330
5
100
AcDbSymbolTableRecord
100
AcDbLinetypeTableRecord
2
DASHEDX2
70
0
3
Dashed (2x) ____  ____  ____  ____  ____  ___
72
65
73
2
40
38.1
49
25.4
74
0
49
-12.7
74
0
0
LTYPE
5
38
330
5
100
AcDbSymbolTableRecord
100
AcDbLinetypeTableRecord
2
DASHDOT
70
0
3
Dash dot __ . __ . __ . __ . __ . __ . __ . __
72
65
73
4
40
25.4
49
12.7
74
0
49
-6.35
74
0
49
0
74
0
49
-6.35
74
0
0
LTYPE
5
39
330
5
100
AcDbSymbolTableRecord
100
AcDbLinetypeTableRecord
2
DASHDOT2
70
0
3
Dash dot (.5x) _._._._._._._._._._._._._._._.
72
65
73
4
40
12.7
49
6.35
74
0
49
-3.175
74
0
49
0
74
0
49
-3.175
74
0
0
LTYPE
5
3A
330
5
100
AcDbSymbolTableRecord
100
AcDbLinetypeTableRecord
2
DASHDOTX2
70
0
3
Dash dot (2x) ____  .  ____  .  ____  .  ___
72
65
73
4
40
50.8
49
25.4
74
0
49
-12.7
74
0
49
0
74
0
49
-12.7
74
0
0
LTYPE
5
3B
330
5
100
AcDbSymbolTableRecord
100
AcDbLinetypeTableRecord
2
DIVIDE
70
0
3
Divide ____ . . ____ . . ____ . . ____ . . ____
72
65
73
6
40
31.75
49
12.7
74
0
49
-6.35
74
0
49
0
74
0
49
-6.35
74
0
49
0
74
0
49
-6.35
74
0
0
LTYPE
5
3C
330
5
100
AcDbSymbolTableRecord
100
AcDbLinetypeTableRecord
2
DIVIDE2
70
0
3
Divide (.5x) __..__..__..__..__..__..__..__.._
72
65
73
6
40
15.875
49
6.35
74
0
49
-3.175
74
0
49
0
74
0
49
-3.175
74
0
49
0
74
0
49
-3.175
74
0
0
LTYPE
5
3D
330
5
100
AcDbSymbolTableRecord
100
AcDbLinetypeTableRecord
2
DIVIDEX2
70
0
3
Divide (2x) ________  .  .  ________  .  .  _
72
65
73
6
40
63.5
49
25.4
74
0
49
-12.7
74
0
49
0
74
0
49
-12.7
74
0
49
0
74
0
49
-12.7
74
0
0
LTYPE
5
3E
330
5
100
AcDbSymbolTableRecord
100
AcDbLinetypeTableRecord
2
BORDER
70
0
3
Border __ __ . __ __ . __ __ . __ __ . __ __ .
72
65
73
6
40
44.45
49
12.7
74
0
49
-6.35
74
0
49
12.7
74
0
49
-6.35
74
0
49
0
74
0
49
-6.35
74
0
0
LTYPE
5
3F
330
5
100
AcDbSymbolTableRecord
100
AcDbLinetypeTableRecord
2
BORDER2
70
0
3
Border (.5x) __.__.__.__.__.__.__.__.__.__.__.
72
65
73
6
40
22.225
49
6.35
74
0
49
-3.175
74
0
49
6.35
74
0
49
-3.175
74
0
49
0
74
0
49
-3.175
74
0
0
LTYPE
5
40
330
5
100
AcDbSymbolTableRecord
100
AcDbLinetypeTableRecord
2
BORDERX2
70
0
3
Border (2x) ____  ____  .  ____  ____  .  ___
72
65
73
6
40
88.9
49
25.4
74
0
49
-12.7
74
0
49
25.4
74
0
49
-12.7
74
0
49
0
74
0
49
-12.7
74
0
0
LTYPE
5
41
330
5
100
AcDbSymbolTableRecord
100
AcDbLinetypeTableRecord
2
CENTER
70
0
3
Center ____ _ ____ _ ____ _ ____ _ ____ _ ____
72
65
73
4
40
50.8
49
31.75
74
0
49
-6.35
74
0
49
6.35
74
0
49
-6.35
74
0
0
LTYPE
5
42
330
5
100
AcDbSymbolTableRecord
100
AcDbLinetypeTableRecord
2
CENTER2
70
0
3
Center (.5x) ___ _ ___ _ ___ _ ___ _ ___ _ ___
72
65
73
4
40
28.575
49
19.05
74
0
49
-3.175
74
0
49
3.175
74
0
49
-3.175
74
0
0
LTYPE
5
43
330
5
100
AcDbSymbolTableRecord
100
AcDbLinetypeTableRecord
2
CENTERX2
70
0
3
Center (2x) ________  __  ________  __  _____
72
65
73
4
40
101.6
49
63.5
74
0
49
-12.7
74
0
49
12.7
74
0
49
-12.7
74
0
0
ENDTAB
0
TABLE
2
LAYER
5
2
330
0
100
AcDbSymbolTable
70
1
0
LAYER
5
10
330
2
100
AcDbSymbolTableRecord
100
AcDbLayerTableRecord
2
0
70
0
62
7
6
CONTINUOUS
370
-3
390
F
0
ENDTAB
0
TABLE
2
STYLE
5
3
330
0
100
AcDbSymbolTable
70
3
0
STYLE
5
44
330
2
100
AcDbSymbolTableRecord
100
AcDbTextStyleTableRecord
2
Standard
70
0
40
0
41
1
50
0
71
0
42
1
3
txt
4

0
ENDTAB
0
TABLE
2
VIEW
5
6
330
0
100
AcDbSymbolTable
70
0
0
ENDTAB
0
TABLE
2
UCS
5
7
330
0
100
AcDbSymbolTable
70
0
0
ENDTAB
0
TABLE
2
APPID
5
9
330
0
100
AcDbSymbolTable
70
1
0
APPID
5
12
330
9
100
AcDbSymbolTableRecord
100
AcDbRegAppTableRecord
2
ACAD
70
0
0
APPID
5
45
330
9
100
AcDbSymbolTableRecord
100
AcDbRegAppTableRecord
2
LibreCad
70
0
0
ENDTAB
0
TABLE
2
DIMSTYLE
5
A
330
0
100
AcDbSymbolTable
70
1
100
AcDbDimStyleTable
71
1
0
DIMSTYLE
105
46
330
A
100
AcDbSymbolTableRecord
100
AcDbDimStyleTableRecord
2
Standard
70
0
40
1
41
2.5
42
0.625
43
0.38
44
1.25
45
0
46
0
47
0
48
0
140
2.5
141
0.09
142
0
143
25.4
144
1
145
0
146
1
147
0.625
148
0
71
0
72
0
73
0
74
1
75
0
76
0
77
0
78
0
79
0
170
0
171
2
172
0
173
0
174
0
175
0
176
0
177
0
178
0
179
0
271
4
272
4
273
2
274
2
275
0
276
0
277
2
278
46
279
0
280
0
281
0
282
0
283
1
284
0
285
0
286
0
288
0
289
3
340
Standard
341

371
-2
372
-2
0
ENDTAB
0
TABLE
2
BLOCK_RECORD
5
1
330
0
100
AcDbSymbolTable
70
2
0
BLOCK_RECORD
5
1F
330
1
100
AcDbSymbolTableRecord
100
AcDbBlockTableRecord
2
*Model_Space
70
0
280
1
281
0
0
BLOCK_RECORD
5
1E
330
1
100
AcDbSymbolTableRecord
100
AcDbBlockTableRecord
2
*Paper_Space
70
0
280
1
281
0
0
ENDTAB
0
ENDSEC
0
SECTION
2
BLOCKS
0
BLOCK
5
20
330
1F
100
AcDbEntity
8
0
100
AcDbBlockBegin
2
*Model_Space
70
0
10
0
20
0
30
0
3
*Model_Space
1

0
ENDBLK
5
21
330
1F
100
AcDbEntity
8
0
100
AcDbBlockEnd
0
BLOCK
5
1C
330
1B
100
AcDbEntity
8
0
100
AcDbBlockBegin
2
*Paper_Space
70
0
10
0
20
0
30
0
3
*Paper_Space
1

0
ENDBLK
5
1D
330
1F
100
AcDbEntity
8
0
100
AcDbBlockEnd
0
ENDSEC
0
SECTION
2
ENTITIES
0
LINE
5
47
100
AcDbEntity
8
0
6
ByLayer
62
3
370
-1
100
AcDbLine
10
580.652426
20
477.218476
11
580.950314
21
477.218476
0
LINE
5
48
100
AcDbEntity
8
0
6
ByLayer
62
3
370
-1
100
AcDbLine
10
580.950314
20
477.218476
11
580.950314
21
475.325565
0
LINE
5
49
100
AcDbEntity
8
0
6
ByLayer
62
3
370
-1
100
AcDbLine
10
580.950314
20
475.325565
11
580.994175
21
475.366289
0
LINE
5
4A
100
AcDbEntity
8
0
6
ByLayer
62
3
370
-1
100
AcDbLine
10
580.994175
20
475.366289
11
581.04419
21
475.407013
0
LINE
5
4B
100
AcDbEntity
8
0
6
ByLayer
62
3
370
-1
100
AcDbLine
10
581.04419
20
475.407013
11
581.100178
21
475.447737
0
LINE
5
4C
100
AcDbEntity
8
0
6
ByLayer
62
3
370
-1
100
AcDbLine
10
581.100178
20
475.447737
11
581.161958
21
475.488461
0
LINE
5
4D
100
AcDbEntity
8
0
6
ByLayer
62
3
370
-1
100
AcDbLine
10
581.161958
20
475.488461
11
581.229349
21
475.529185
0
LINE
5
4E
100
AcDbEntity
8
0
6
ByLayer
62
3
370
-1
100
AcDbLine
10
581.229349
20
475.529185
11
581.296287
21
475.568068
0
LINE
5
4F
100
AcDbEntity
8
0
6
ByLayer
62
3
370
-1
100
AcDbLine
10
581.296287
20
475.568068
11
581.361234
21
475.603151
0
LINE
5
50
100
AcDbEntity
8
0
6
ByLayer
62
3
370
-1
100
AcDbLine
10
581.361234
20
475.603151
11
581.424009
21
475.634252
0
LINE
5
51
100
AcDbEntity
8
0
6
ByLayer
62
3
370
-1
100
AcDbLine
10
581.424009
20
475.634252
11
581.484432
21
475.661191
0
LINE
5
52
100
AcDbEntity
8
0
6
ByLayer
62
3
370
-1
100
AcDbLine
10
581.484432
20
475.661191
11
581.54232
21
475.683785
0
LINE
5
53
100
AcDbEntity
8
0
6
ByLayer
62
3
370
-1
100
AcDbLine
10
581.54232
20
475.683785
11
581.54232
21
475.397209
0
LINE
5
54
100
AcDbEntity
8
0
6
ByLayer
62
3
370
-1
100
AcDbLine
10
581.54232
20
475.397209
11
581.445457
21
475.349697
0
LINE
5
55
100
AcDbEntity
8
0
6
ByLayer
62
3
370
-1
100
AcDbLine
10
581.445457
20
475.349697
11
581.353843
21
475.297661
0
LINE
5
56
100
AcDbEntity
8
0
6
ByLayer
62
3
370
-1
100
AcDbLine
10
581.353843
20
475.297661
11
581.267297
21
475.2411
0
LINE
5
57
100
AcDbEntity
8
0
6
ByLayer
62
3
370
-1
100
AcDbLine
10
581.267297
20
475.2411
11
581.185638
21
475.180014
0
LINE
5
58
100
AcDbEntity
8
0
6
ByLayer
62
3
370
-1
100
AcDbLine
10
581.185638
20
475.180014
11
581.108685
21
475.114403
0
LINE
5
59
100
AcDbEntity
8
0
6
ByLayer
62
3
370
-1
100
AcDbLine
10
581.108685
20
475.114403
11
581.038519
21
475.048823
0
LINE
5
5A
100
AcDbEntity
8
0
6
ByLayer
62
3
370
-1
100
AcDbLine
10
581.038519
20
475.048823
11
580.977222
21
474.983423
0
LINE
5
5B
100
AcDbEntity
8
0
6
ByLayer
62
3
370
-1
100
AcDbLine
10
580.977222
20
474.983423
11
580.924613
21
474.918385
0
LINE
5
5C
100
AcDbEntity
8
0
6
ByLayer
62
3
370
-1
100
AcDbLine
10
580.924613
20
474.918385
11
580.88051
21
474.85389
0
LINE
5
5D
100
AcDbEntity
8
0
6
ByLayer
62
3
370
-1
100
AcDbLine
10
580.88051
20
474.85389
11
580.844733
21
474.79012
0
LINE
5
5E
100
AcDbEntity
8
0
6
ByLayer
62
3
370
-1
100
AcDbLine
10
580.844733
20
474.79012
11
580.652426
21
474.79012
0
LINE
5
5F
100
AcDbEntity
8
0
6
ByLayer
62
3
370
-1
100
AcDbLine
10
580.652426
20
474.79012
11
580.652426
21
477.218476
0
LINE
5
60
100
AcDbEntity
8
0
6
ByLayer
62
3
370
-1
100
AcDbLine
10
578.47011
20
475.393438
11
578.764228
21
475.416062
0
LINE
5
61
100
AcDbEntity
8
0
6
ByLayer
62
3
370
-1
100
AcDbLine
10
578.764228
20
475.416062
11
578.781423
21
475.351417
0
LINE
5
62
100
AcDbEntity
8
0
6
ByLayer
62
3
370
-1
100
AcDbLine
10
578.781423
20
475.351417
11
578.801332
21
475.293468
0
LINE
5
63
100
AcDbEntity
8
0
6
ByLayer
62
3
370
-1
100
AcDbLine
10
578.801332
20
475.293468
11
578.823957
21
475.242578
0
LINE
5
64
100
AcDbEntity
8
0
6
ByLayer
62
3
370
-1
100
AcDbLine
10
578.823957
20
475.242578
11
578.849296
21
475.199109
0
LINE
5
65
100
AcDbEntity
8
0
6
ByLayer
62
3
370
-1
100
AcDbLine
10
578.849296
20
475.199109
11
578.87735
21
475.163423
0
LINE
5
66
100
AcDbEntity
8
0
6
ByLayer
62
3
370
-1
100
AcDbLine
10
578.87735
20
475.163423
11
578.927154
21
475.118234
0
LINE
5
67
100
AcDbEntity
8
0
6
ByLayer
62
3
370
-1
100
AcDbLine
10
578.927154
20
475.118234
11
578.981664
21
475.082458
0
LINE
5
68
100
AcDbEntity
8
0
6
ByLayer
62
3
370
-1
100
AcDbLine
10
578.981664
20
475.082458
11
579.041061
21
475.056455
0
LINE
5
69
100
AcDbEntity
8
0
6
ByLayer
62
3
370
-1
100
AcDbLine
10
579.041061
20
475.056455
11
579.105525
21
475.040587
0
LINE
5
6A
100
AcDbEntity
8
0
6
ByLayer
62
3
370
-1
100
AcDbLine
10
579.105525
20
475.040587
11
579.175239
21
475.035218
0
LINE
5
6B
100
AcDbEntity
8
0
6
ByLayer
62
3
370
-1
100
AcDbLine
10
579.175239
20
475.035218
11
579.230472
21
475.038385
0
LINE
5
6C
100
AcDbEntity
8
0
6
ByLayer
62
3
370
-1
100
AcDbLine
10
579.230472
20
475.038385
11
579.283172
21
475.047887
0
LINE
5
6D
100
AcDbEntity
8
0
6
ByLayer
62
3
370
-1
100
AcDbLine
10
579.283172
20
475.047887
11
579.333519
21
475.063725
0
LINE
5
6E
100
AcDbEntity
8
0
6
ByLayer
62
3
370
-1
100
AcDbLine
10
579.333519
20
475.063725
11
579.381694
21
475.085897
0
LINE
5
6F
100
AcDbEntity
8
0
6
ByLayer
62
3
370
-1
100
AcDbLine
10
579.381694
20
475.085897
11
579.427878
21
475.114403
0
LINE
5
70
100
AcDbEntity
8
0
6
ByLayer
62
3
370
-1
100
AcDbLine
10
579.427878
20
475.114403
11
579.480337
21
475.158777
0
LINE
5
71
100
AcDbEntity
8
0
6
ByLayer
62
3
370
-1
100
AcDbLine
10
579.480337
20
475.158777
11
579.528994
21
475.210572
0
LINE
5
72
100
AcDbEntity
8
0
6
ByLayer
62
3
370
-1
100
AcDbLine
10
579.528994
20
475.210572
11
579.57367
21
475.269969
0
LINE
5
73
100
AcDbEntity
8
0
6
ByLayer
62
3
370
-1
100
AcDbLine
10
579.57367
20
475.269969
11
579.614183
21
475.337148
0
LINE
5
74
100
AcDbEntity
8
0
6
ByLayer
62
3
370
-1
100
AcDbLine
10
579.614183
20
475.337148
11
579.650352
21
475.412292
0
LINE
5
75
100
AcDbEntity
8
0
6
ByLayer
62
3
370
-1
100
AcDbLine
10
579.650352
20
475.412292
11
579.678889
21
475.496394
0
LINE
5
76
100
AcDbEntity
8
0
6
ByLayer
62
3
370
-1
100
AcDbLine
10
579.678889
20
475.496394
11
579.701272
21
475.594614
0
LINE
5
77
100
AcDbEntity
8
0
6
ByLayer
62
3
370
-1
100
AcDbLine
10
579.701272
20
475.594614
11
579.717682
21
475.70659
0
LINE
5
78
100
AcDbEntity
8
0
6
ByLayer
62
3
370
-1
100
AcDbLine
10
579.717682
20
475.70659
11
579.7283
21
475.83196
0
LINE
5
79
100
AcDbEntity
8
0
6
ByLayer
62
3
370
-1
100
AcDbLine
10
579.7283
20
475.83196
11
579.733308
21
475.970361
0
LINE
5
7A
100
AcDbEntity
8
0
6
ByLayer
62
3
370
-1
100
AcDbLine
10
579.733308
20
475.970361
11
579.689929
21
475.909788
0
LINE
5
7B
100
AcDbEntity
8
0
6
ByLayer
62
3
370
-1
100
AcDbLine
10
579.689929
20
475.909788
11
579.641483
21
475.855007
0
LINE
5
7C
100
AcDbEntity
8
0
6
ByLayer
62
3
370
-1
100
AcDbLine
10
579.641483
20
475.855007
11
579.588331
21
475.806379
0
LINE
5
7D
100
AcDbEntity
8
0
6
ByLayer
62
3
370
-1
100
AcDbLine
10
579.588331
20
475.806379
11
579.530834
21
475.764268
0
LINE
5
7E
100
AcDbEntity
8
0
6
ByLayer
62
3
370
-1
100
AcDbLine
10
579.530834
20
475.764268
11
579.469356
21
475.729034
0
LINE
5
7F
100
AcDbEntity
8
0
6
ByLayer
62
3
370
-1
100
AcDbLine
10
579.469356
20
475.729034
11
579.407396
21
475.700527
0
LINE
5
80
100
AcDbEntity
8
0
6
ByLayer
62
3
370
-1
100
AcDbLine
10
579.407396
20
475.700527
11
579.343806
21
475.678355
0
LINE
5
81
100
AcDbEntity
8
0
6
ByLayer
62
3
370
-1
100
AcDbLine
10
579.343806
20
475.678355
11
579.278768
21
475.662518
0
LINE
5
82
100
AcDbEntity
8
0
6
ByLayer
62
3
370
-1
100
AcDbLine
10
579.278768
20
475.662518
11
579.212463
21
475.653016
0
LINE
5
83
100
AcDbEntity
8
0
6
ByLayer
62
3
370
-1
100
AcDbLine
10
579.212463
20
475.653016
11
579.145073
21
475.649848
0
LINE
5
84
100
AcDbEntity
8
0
6
ByLayer
62
3
370
-1
100
AcDbLine
10
579.145073
20
475.649848
11
579.030985
21
475.658476
0
LINE
5
85
100
AcDbEntity
8
0
6
ByLayer
62
3
370
-1
100
AcDbLine
10
579.030985
20
475.658476
11
578.923776
21
475.684479
0
LINE
5
86
100
AcDbEntity
8
0
6
ByLayer
62
3
370
-1
100
AcDbLine
10
578.923776
20
475.684479
11
578.823082
21
475.728038
0
LINE
5
87
100
AcDbEntity
8
0
6
ByLayer
62
3
370
-1
100
AcDbLine
10
578.823082
20
475.728038
11
578.728542
21
475.789335
0
LINE
5
88
100
AcDbEntity
8
0
6
ByLayer
62
3
370
-1
100
AcDbLine
10
578.728542
20
475.789335
11
578.639794
21
475.868551
0
LINE
5
89
100
AcDbEntity
8
0
6
ByLayer
62
3
370
-1
100
AcDbLine
10
578.639794
20
475.868551
11
578.566098
21
475.959954
0
LINE
5
8A
100
AcDbEntity
8
0
6
ByLayer
62
3
370
-1
100
AcDbLine
10
578.566098
20
475.959954
11
578.50815
21
476.062216
0
LINE
5
8B
100
AcDbEntity
8
0
6
ByLayer
62
3
370
-1
100
AcDbLine
10
578.50815
20
476.062216
11
578.46631
21
476.175338
0
LINE
5
8C
100
AcDbEntity
8
0
6
ByLayer
62
3
370
-1
100
AcDbLine
10
578.46631
20
476.175338
11
578.44094
21
476.29932
0
LINE
5
8D
100
AcDbEntity
8
0
6
ByLayer
62
3
370
-1
100
AcDbLine
10
578.44094
20
476.29932
11
578.432403
21
476.434162
0
LINE
5
8E
100
AcDbEntity
8
0
6
ByLayer
62
3
370
-1
100
AcDbLine
10
578.432403
20
476.434162
11
578.436083
21
476.523332
0
LINE
5
8F
100
AcDbEntity
8
0
6
ByLayer
62
3
370
-1
100
AcDbLine
10
578.436083
20
476.523332
11
578.447365
21
476.609969
0
LINE
5
90
100
AcDbEntity
8
0
6
ByLayer
62
3
370
-1
100
AcDbLine
10
578.447365
20
476.609969
11
578.466611
21
476.694252
0
LINE
5
91
100
AcDbEntity
8
0
6
ByLayer
62
3
370
-1
100
AcDbLine
10
578.466611
20
476.694252
11
578.494183
21
476.776364
0
LINE
5
92
100
AcDbEntity
8
0
6
ByLayer
62
3
370
-1
100
AcDbLine
10
578.494183
20
476.776364
11
578.530442
21
476.856485
0
LINE
5
93
100
AcDbEntity
8
0
6
ByLayer
62
3
370
-1
100
AcDbLine
10
578.530442
20
476.856485
11
578.572041
21
476.93018
0
LINE
5
94
100
AcDbEntity
8
0
6
ByLayer
62
3
370
-1
100
AcDbLine
10
578.572041
20
476.93018
11
578.619794
21
476.997179
0
LINE
5
95
100
AcDbEntity
8
0
6
ByLayer
62
3
370
-1
100
AcDbLine
10
578.619794
20
476.997179
11
578.673519
21
477.057118
0
LINE
5
96
100
AcDbEntity
8
0
6
ByLayer
62
3
370
-1
100
AcDbLine
10
578.673519
20
477.057118
11
578.733037
21
477.109637
0
LINE
5
97
100
AcDbEntity
8
0
6
ByLayer
62
3
370
-1
100
AcDbLine
10
578.733037
20
477.109637
11
578.798165
21
477.154373
0
LINE
5
98
100
AcDbEntity
8
0
6
ByLayer
62
3
370
-1
100
AcDbLine
10
578.798165
20
477.154373
11
578.86827
21
477.191417
0
LINE
5
99
100
AcDbEntity
8
0
6
ByLayer
62
3
370
-1
100
AcDbLine
10
578.86827
20
477.191417
11
578.94272
21
477.220859
0
LINE
5
9A
100
AcDbEntity
8
0
6
ByLayer
62
3
370
-1
100
AcDbLine
10
578.94272
20
477.220859
11
579.021332
21
477.242337
0
LINE
5
9B
100
AcDbEntity
8
0
6
ByLayer
62
3
370
-1
100
AcDbLine
10
579.021332
20
477.242337
11
579.103926
21
477.255489
0
LINE
5
9C
100
AcDbEntity
8
0
6
ByLayer
62
3
370
-1
100
AcDbLine
10
579.103926
20
477.255489
11
579.190322
21
477.259954
0
LINE
5
9D
100
AcDbEntity
8
0
6
ByLayer
62
3
370
-1
100
AcDbLine
10
579.190322
20
477.259954
11
579.331981
21
477.249094
0
LINE
5
9E
100
AcDbEntity
8
0
6
ByLayer
62
3
370
-1
100
AcDbLine
10
579.331981
20
477.249094
11
579.462961
21
477.216515
0
LINE
5
9F
100
AcDbEntity
8
0
6
ByLayer
62
3
370
-1
100
AcDbLine
10
579.462961
20
477.216515
11
579.583444
21
477.162216
0
LINE
5
A0
100
AcDbEntity
8
0
6
ByLayer
62
3
370
-1
100
AcDbLine
10
579.583444
20
477.162216
11
579.69361
21
477.086198
0
LINE
5
A1
100
AcDbEntity
8
0
6
ByLayer
62
3
370
-1
100
AcDbLine
10
579.69361
20
477.086198
11
579.79364
21
476.988461
0
LINE
5
A2
100
AcDbEntity
8
0
6
ByLayer
62
3
370
-1
100
AcDbLine
10
579.79364
20
476.988461
11
579.87732
21
476.865414
0
LINE
5
A3
100
AcDbEntity
8
0
6
ByLayer
62
3
370
-1
100
AcDbLine
10
579.87732
20
476.865414
11
579.94272
21
476.713589
0
LINE
5
A4
100
AcDbEntity
8
0
6
ByLayer
62
3
370
-1
100
AcDbLine
10
579.94272
20
476.713589
11
579.989658
21
476.533167
0
LINE
5
A5
100
AcDbEntity
8
0
6
ByLayer
62
3
370
-1
100
AcDbLine
10
579.989658
20
476.533167
11
580.017954
21
476.324328
0
LINE
5
A6
100
AcDbEntity
8
0
6
ByLayer
62
3
370
-1
100
AcDbLine
10
580.017954
20
476.324328
11
580.027426
21
476.087254
0
LINE
5
A7
100
AcDbEntity
8
0
6
ByLayer
62
3
370
-1
100
AcDbLine
10
580.027426
20
476.087254
11
580.017018
21
475.822065
0
LINE
5
A8
100
AcDbEntity
8
0
6
ByLayer
62
3
370
-1
100
AcDbLine
10
580.017018
20
475.822065
11
579.985797
21
475.587465
0
LINE
5
A9
100
AcDbEntity
8
0
6
ByLayer
62
3
370
-1
100
AcDbLine
10
579.985797
20
475.587465
11
579.933761
21
475.383272
0
LINE
5
AA
100
AcDbEntity
8
0
6
ByLayer
62
3
370
-1
100
AcDbLine
10
579.933761
20
475.383272
11
579.86091
21
475.209305
0
LINE
5
AB
100
AcDbEntity
8
0
6
ByLayer
62
3
370
-1
100
AcDbLine
10
579.86091
20
475.209305
11
579.767245
21
475.065384
0
LINE
5
AC
100
AcDbEntity
8
0
6
ByLayer
62
3
370
-1
100
AcDbLine
10
579.767245
20
475.065384
11
579.670412
21
474.967254
0
LINE
5
AD
100
AcDbEntity
8
0
6
ByLayer
62
3
370
-1
100
AcDbLine
10
579.670412
20
474.967254
11
579.56091
21
474.890301
0
LINE
5
AE
100
AcDbEntity
8
0
6
ByLayer
62
3
370
-1
100
AcDbLine
10
579.56091
20
474.890301
11
579.438738
21
474.834886
0
LINE
5
AF
100
AcDbEntity
8
0
6
ByLayer
62
3
370
-1
100
AcDbLine
10
579.438738
20
474.834886
11
579.303896
21
474.801372
0
LINE
5
B0
100
AcDbEntity
8
0
6
ByLayer
62
3
370
-1
100
AcDbLine
10
579.303896
20
474.801372
11
579.156385
21
474.79012
0
LINE
5
B1
100
AcDbEntity
8
0
6
ByLayer
62
3
370
-1
100
AcDbLine
10
579.156385
20
474.79012
11
579.047305
21
474.796485
0
LINE
5
B2
100
AcDbEntity
8
0
6
ByLayer
62
3
370
-1
100
AcDbLine
10
579.047305
20
474.796485
11
578.946189
21
474.8157
0
LINE
5
B3
100
AcDbEntity
8
0
6
ByLayer
62
3
370
-1
100
AcDbLine
10
578.946189
20
474.8157
11
578.852856
21
474.847948
0
LINE
5
B4
100
AcDbEntity
8
0
6
ByLayer
62
3
370
-1
100
AcDbLine
10
578.852856
20
474.847948
11
578.767124
21
474.893408
0
LINE
5
B5
100
AcDbEntity
8
0
6
ByLayer
62
3
370
-1
100
AcDbLine
10
578.767124
20
474.893408
11
578.688813
21
474.952262
0
LINE
5
B6
100
AcDbEntity
8
0
6
ByLayer
62
3
370
-1
100
AcDbLine
10
578.688813
20
474.952262
11
578.622267
21
475.020587
0
LINE
5
B7
100
AcDbEntity
8
0
6
ByLayer
62
3
370
-1
100
AcDbLine
10
578.622267
20
475.020587
11
578.567305
21
475.098868
0
LINE
5
B8
100
AcDbEntity
8
0
6
ByLayer
62
3
370
-1
100
AcDbLine
10
578.567305
20
475.098868
11
578.523745
21
475.187103
0
LINE
5
B9
100
AcDbEntity
8
0
6
ByLayer
62
3
370
-1
100
AcDbLine
10
578.523745
20
475.187103
11
578.491408
21
475.285293
0
LINE
5
BA
100
AcDbEntity
8
0
6
ByLayer
62
3
370
-1
100
AcDbLine
10
578.491408
20
475.285293
11
578.47011
21
475.393438
0
LINE
5
BB
100
AcDbEntity
8
0
6
ByLayer
62
3
370
-1
100
AcDbLine
10
579.688059
20
476.434162
11
579.685736
21
476.494795
0
LINE
5
BC
100
AcDbEntity
8
0
6
ByLayer
62
3
370
-1
100
AcDbLine
10
579.685736
20
476.494795
11
579.678527
21
476.554524
0
LINE
5
BD
100
AcDbEntity
8
0
6
ByLayer
62
3
370
-1
100
AcDbLine
10
579.678527
20
476.554524
11
579.666068
21
476.613348
0
LINE
5
BE
100
AcDbEntity
8
0
6
ByLayer
62
3
370
-1
100
AcDbLine
10
579.666068
20
476.613348
11
579.647999
21
476.671266
0
LINE
5
BF
100
AcDbEntity
8
0
6
ByLayer
62
3
370
-1
100
AcDbLine
10
579.647999
20
476.671266
11
579.623957
21
476.72828
0
LINE
5
C0
100
AcDbEntity
8
0
6
ByLayer
62
3
370
-1
100
AcDbLine
10
579.623957
20
476.72828
11
579.594997
21
476.780316
0
LINE
5
C1
100
AcDbEntity
8
0
6
ByLayer
62
3
370
-1
100
AcDbLine
10
579.594997
20
476.780316
11
579.562418
21
476.827827
0
LINE
5
C2
100
AcDbEntity
8
0
6
ByLayer
62
3
370
-1
100
AcDbLine
10
579.562418
20
476.827827
11
579.526219
21
476.870814
0
LINE
5
C3
100
AcDbEntity
8
0
6
ByLayer
62
3
370
-1
100
AcDbLine
10
579.526219
20
476.870814
11
579.4864
21
476.909275
0
LINE
5
C4
100
AcDbEntity
8
0
6
ByLayer
62
3
370
-1
100
AcDbLine
10
579.4864
20
476.909275
11
579.442961
21
476.943212
0
LINE
5
C5
100
AcDbEntity
8
0
6
ByLayer
62
3
370
-1
100
AcDbLine
10
579.442961
20
476.943212
11
579.396807
21
476.968038
0
LINE
5
C6
100
AcDbEntity
8
0
6
ByLayer
62
3
370
-1
100
AcDbLine
10
579.396807
20
476.968038
11
579.348843
21
476.987978
0
LINE
5
C7
100
AcDbEntity
8
0
6
ByLayer
62
3
370
-1
100
AcDbLine
10
579.348843
20
476.987978
11
579.29907
21
477.002669
0
LINE
5
C8
100
AcDbEntity
8
0
6
ByLayer
62
3
370
-1
100
AcDbLine
10
579.29907
20
477.002669
11
579.247486
21
477.011749
0
LINE
5
C9
100
AcDbEntity
8
0
6
ByLayer
62
3
370
-1
100
AcDbLine
10
579.247486
20
477.011749
11
579.194092
21
477.014856
0
LINE
5
CA
100
AcDbEntity
8
0
6
ByLayer
62
3
370
-1
100
AcDbLine
10
579.194092
20
477.014856
11
579.121664
21
477.008943
0
LINE
5
CB
100
AcDbEntity
8
0
6
ByLayer
62
3
370
-1
100
AcDbLine
10
579.121664
20
477.008943
11
579.05358
21
476.991085
0
LINE
5
CC
100
AcDbEntity
8
0
6
ByLayer
62
3
370
-1
100
AcDbLine
10
579.05358
20
476.991085
11
578.989658
21
476.9611
0
LINE
5
CD
100
AcDbEntity
8
0
6
ByLayer
62
3
370
-1
100
AcDbLine
10
578.989658
20
476.9611
11
578.929718
21
476.918808
0
LINE
5
CE
100
AcDbEntity
8
0
6
ByLayer
62
3
370
-1
100
AcDbLine
10
578.929718
20
476.918808
11
578.87358
21
476.864026
0
LINE
5
CF
100
AcDbEntity
8
0
6
ByLayer
62
3
370
-1
100
AcDbLine
10
578.87358
20
476.864026
11
578.824711
21
476.798446
0
LINE
5
D0
100
AcDbEntity
8
0
6
ByLayer
62
3
370
-1
100
AcDbLine
10
578.824711
20
476.798446
11
578.786702
21
476.723996
0
LINE
5
D1
100
AcDbEntity
8
0
6
ByLayer
62
3
370
-1
100
AcDbLine
10
578.786702
20
476.723996
11
578.759552
21
476.640859
0
LINE
5
D2
100
AcDbEntity
8
0
6
ByLayer
62
3
370
-1
100
AcDbLine
10
578.759552
20
476.640859
11
578.743263
21
476.549215
0
LINE
5
D3
100
AcDbEntity
8
0
6
ByLayer
62
3
370
-1
100
AcDbLine
10
578.743263
20
476.549215
11
578.737833
21
476.449245
0
LINE
5
D4
100
AcDbEntity
8
0
6
ByLayer
62
3
370
-1
100
AcDbLine
10
578.737833
20
476.449245
11
578.742871
21
476.35377
0
LINE
5
D5
100
AcDbEntity
8
0
6
ByLayer
62
3
370
-1
100
AcDbLine
10
578.742871
20
476.35377
11
578.758225
21
476.26644
0
LINE
5
D6
100
AcDbEntity
8
0
6
ByLayer
62
3
370
-1
100
AcDbLine
10
578.758225
20
476.26644
11
578.784258
21
476.187254
0
LINE
5
D7
100
AcDbEntity
8
0
6
ByLayer
62
3
370
-1
100
AcDbLine
10
578.784258
20
476.187254
11
578.821332
21
476.116213
0
LINE
5
D8
100
AcDbEntity
8
0
6
ByLayer
62
3
370
-1
100
AcDbLine
10
578.821332
20
476.116213
11
578.869809
21
476.053317
0
LINE
5
D9
100
AcDbEntity
8
0
6
ByLayer
62
3
370
-1
100
AcDbLine
10
578.869809
20
476.053317
11
578.924982
21
476.002216
0
LINE
5
DA
100
AcDbEntity
8
0
6
ByLayer
62
3
370
-1
100
AcDbLine
10
578.924982
20
476.002216
11
578.98631
21
475.962156
0
LINE
5
DB
100
AcDbEntity
8
0
6
ByLayer
62
3
370
-1
100
AcDbLine
10
578.98631
20
475.962156
11
579.05361
21
475.933317
0
LINE
5
DC
100
AcDbEntity
8
0
6
ByLayer
62
3
370
-1
100
AcDbLine
10
579.05361
20
475.933317
11
579.126702
21
475.915881
0
LINE
5
DD
100
AcDbEntity
8
0
6
ByLayer
62
3
370
-1
100
AcDbLine
10
579.126702
20
475.915881
11
579.205405
21
475.910029
0
LINE
5
DE
100
AcDbEntity
8
0
6
ByLayer
62
3
370
-1
100
AcDbLine
10
579.205405
20
475.910029
11
579.284168
21
475.915519
0
LINE
5
DF
100
AcDbEntity
8
0
6
ByLayer
62
3
370
-1
100
AcDbLine
10
579.284168
20
475.915519
11
579.357682
21
475.932231
0
LINE
5
E0
100
AcDbEntity
8
0
6
ByLayer
62
3
370
-1
100
AcDbLine
10
579.357682
20
475.932231
11
579.426129
21
475.960527
0
LINE
5
E1
100
AcDbEntity
8
0
6
ByLayer
62
3
370
-1
100
AcDbLine
10
579.426129
20
475.960527
11
579.489688
21
476.000768
0
LINE
5
E2
100
AcDbEntity
8
0
6
ByLayer
62
3
370
-1
100
AcDbLine
10
579.489688
20
476.000768
11
579.548542
21
476.053317
0
LINE
5
E3
100
AcDbEntity
8
0
6
ByLayer
62
3
370
-1
100
AcDbLine
10
579.548542
20
476.053317
11
579.597803
21
476.115369
0
LINE
5
E4
100
AcDbEntity
8
0
6
ByLayer
62
3
370
-1
100
AcDbLine
10
579.597803
20
476.115369
11
579.636747
21
476.184117
0
LINE
5
E5
100
AcDbEntity
8
0
6
ByLayer
62
3
370
-1
100
AcDbLine
10
579.636747
20
476.184117
11
579.665012
21
476.259924
0
LINE
5
E6
100
AcDbEntity
8
0
6
ByLayer
62
3
370
-1
100
AcDbLine
10
579.665012
20
476.259924
11
579.682237
21
476.343151
0
LINE
5
E7
100
AcDbEntity
8
0
6
ByLayer
62
3
370
-1
100
AcDbLine
10
579.682237
20
476.343151
11
579.688059
21
476.434162
0
LINE
5
E8
100
AcDbEntity
8
0
6
ByLayer
62
3
370
-1
100
AcDbLine
10
577.807403
20
476.494494
11
577.807403
21
476.196605
0
LINE
5
E9
100
AcDbEntity
8
0
6
ByLayer
62
3
370
-1
100
AcDbLine
10
577.807403
20
476.196605
11
576.894884
21
476.196605
0
LINE
5
EA
100
AcDbEntity
8
0
6
ByLayer
62
3
370
-1
100
AcDbLine
10
576.894884
20
476.196605
11
576.894884
21
476.494494
0
LINE
5
EB
100
AcDbEntity
8
0
6
ByLayer
62
3
370
-1
100
AcDbLine
10
576.894884
20
476.494494
11
577.807403
21
476.494494
0
LINE
5
EC
100
AcDbEntity
8
0
6
ByLayer
62
3
370
-1
100
AcDbLine
10
576.269884
20
475.242608
11
576.194469
21
475.008823
0
LINE
5
ED
100
AcDbEntity
8
0
6
ByLayer
62
3
370
-1
100
AcDbLine
10
576.194469
20
475.008823
11
576.096219
21
475.044117
0
LINE
5
EE
100
AcDbEntity
8
0
6
ByLayer
62
3
370
-1
100
AcDbLine
10
576.096219
20
475.044117
11
576.009371
21
475.077601
0
LINE
5
EF
100
AcDbEntity
8
0
6
ByLayer
62
3
370
-1
100
AcDbLine
10
576.009371
20
475.077601
11
575.933564
21
475.109275
0
LINE
5
F0
100
AcDbEntity
8
0
6
ByLayer
62
3
370
-1
100
AcDbLine
10
575.933564
20
475.109275
11
575.868436
21
475.139139
0
LINE
5
F1
100
AcDbEntity
8
0
6
ByLayer
62
3
370
-1
100
AcDbLine
10
575.868436
20
475.139139
11
575.813625
21
475.167194
0
LINE
5
F2
100
AcDbEntity
8
0
6
ByLayer
62
3
370
-1
100
AcDbLine
10
575.813625
20
475.167194
11
575.825842
21
475.056786
0
LINE
5
F3
100
AcDbEntity
8
0
6
ByLayer
62
3
370
-1
100
AcDbLine
10
575.825842
20
475.056786
11
575.835344
21
474.960859
0
LINE
5
F4
100
AcDbEntity
8
0
6
ByLayer
62
3
370
-1
100
AcDbLine
10
575.835344
20
474.960859
11
575.842132
21
474.879411
0
LINE
5
F5
100
AcDbEntity
8
0
6
ByLayer
62
3
370
-1
100
AcDbLine
10
575.842132
20
474.879411
11
575.846204
21
474.812443
0
LINE
5
F6
100
AcDbEntity
8
0
6
ByLayer
62
3
370
-1
100
AcDbLine
10
575.846204
20
474.812443
11
575.847561
21
474.759954
0
LINE
5
F7
100
AcDbEntity
8
0
6
ByLayer
62
3
370
-1
100
AcDbLine
10
575.847561
20
474.759954
11
575.610005
21
474.759954
0
LINE
5
F8
100
AcDbEntity
8
0
6
ByLayer
62
3
370
-1
100
AcDbLine
10
575.610005
20
474.759954
11
575.611754
21
474.826922
0
LINE
5
F9
100
AcDbEntity
8
0
6
ByLayer
62
3
370
-1
100
AcDbLine
10
575.611754
20
474.826922
11
575.616762
21
474.90113
0
LINE
5
FA
100
AcDbEntity
8
0
6
ByLayer
62
3
370
-1
100
AcDbLine
10
575.616762
20
474.90113
11
575.624665
21
474.982578
0
LINE
5
FB
100
AcDbEntity
8
0
6
ByLayer
62
3
370
-1
100
AcDbLine
10
575.624665
20
474.982578
11
575.635103
21
475.071266
0
LINE
5
FC
100
AcDbEntity
8
0
6
ByLayer
62
3
370
-1
100
AcDbLine
10
575.635103
20
475.071266
11
575.647712
21
475.167194
0
LINE
5
FD
100
AcDbEntity
8
0
6
ByLayer
62
3
370
-1
100
AcDbLine
10
575.647712
20
475.167194
11
575.577999
21
475.133709
0
LINE
5
FE
100
AcDbEntity
8
0
6
ByLayer
62
3
370
-1
100
AcDbLine
10
575.577999
20
475.133709
11
575.504485
21
475.10113
0
LINE
5
FF
100
AcDbEntity
8
0
6
ByLayer
62
3
370
-1
100
AcDbLine
10
575.504485
20
475.10113
11
575.426988
21
475.069456
0
LINE
5
100
100
AcDbEntity
8
0
6
ByLayer
62
3
370
-1
100
AcDbLine
10
575.426988
20
475.069456
11
575.345329
21
475.038687
0
LINE
5
101
100
AcDbEntity
8
0
6
ByLayer
62
3
370
-1
100
AcDbLine
10
575.345329
20
475.038687
11
575.259326
21
475.008823
0
LINE
5
102
100
AcDbEntity
8
0
6
ByLayer
62
3
370
-1
100
AcDbLine
10
575.259326
20
475.008823
11
575.183911
21
475.242608
0
LINE
5
103
100
AcDbEntity
8
0
6
ByLayer
62
3
370
-1
100
AcDbLine
10
575.183911
20
475.242608
11
575.265751
21
475.267948
0
LINE
5
104
100
AcDbEntity
8
0
6
ByLayer
62
3
370
-1
100
AcDbLine
10
575.265751
20
475.267948
11
575.348135
21
475.289667
0
LINE
5
105
100
AcDbEntity
8
0
6
ByLayer
62
3
370
-1
100
AcDbLine
10
575.348135
20
475.289667
11
575.430699
21
475.307767
0
LINE
5
106
100
AcDbEntity
8
0
6
ByLayer
62
3
370
-1
100
AcDbLine
10
575.430699
20
475.307767
11
575.513082
21
475.322246
0
LINE
5
107
100
AcDbEntity
8
0
6
ByLayer
62
3
370
-1
100
AcDbLine
10
575.513082
20
475.322246
11
575.594922
21
475.333106
0
LINE
5
108
100
AcDbEntity
8
0
6
ByLayer
62
3
370
-1
100
AcDbLine
10
575.594922
20
475.333106
11
575.551031
21
475.374343
0
LINE
5
109
100
AcDbEntity
8
0
6
ByLayer
62
3
370
-1
100
AcDbLine
10
575.551031
20
475.374343
11
575.500804
21
475.425897
0
LINE
5
10A
100
AcDbEntity
8
0
6
ByLayer
62
3
370
-1
100
AcDbLine
10
575.500804
20
475.425897
11
575.444243
21
475.488129
0
LINE
5
10B
100
AcDbEntity
8
0
6
ByLayer
62
3
370
-1
100
AcDbLine
10
575.444243
20
475.488129
11
575.381347
21
475.561402
0
LINE
5
10C
100
AcDbEntity
8
0
6
ByLayer
62
3
370
-1
100
AcDbLine
10
575.381347
20
475.561402
11
575.312116
21
475.646078
0
LINE
5
10D
100
AcDbEntity
8
0
6
ByLayer
62
3
370
-1
100
AcDbLine
10
575.312116
20
475.646078
11
575.508195
21
475.785595
0
LINE
5
10E
100
AcDbEntity
8
0
6
ByLayer
62
3
370
-1
100
AcDbLine
10
575.508195
20
475.785595
11
575.546204
21
475.731357
0
LINE
5
10F
100
AcDbEntity
8
0
6
ByLayer
62
3
370
-1
100
AcDbLine
10
575.546204
20
475.731357
11
575.587833
21
475.66843
0
LINE
5
110
100
AcDbEntity
8
0
6
ByLayer
62
3
370
-1
100
AcDbLine
10
575.587833
20
475.66843
11
575.633082
21
475.597179
0
LINE
5
111
100
AcDbEntity
8
0
6
ByLayer
62
3
370
-1
100
AcDbLine
10
575.633082
20
475.597179
11
575.681951
21
475.517963
0
LINE
5
112
100
AcDbEntity
8
0
6
ByLayer
62
3
370
-1
100
AcDbLine
10
575.681951
20
475.517963
11
575.734439
21
475.431145
0
LINE
5
113
100
AcDbEntity
8
0
6
ByLayer
62
3
370
-1
100
AcDbLine
10
575.734439
20
475.431145
11
575.781015
21
475.519411
0
LINE
5
114
100
AcDbEntity
8
0
6
ByLayer
62
3
370
-1
100
AcDbLine
10
575.781015
20
475.519411
11
575.825601
21
475.598808
0
LINE
5
115
100
AcDbEntity
8
0
6
ByLayer
62
3
370
-1
100
AcDbLine
10
575.825601
20
475.598808
11
575.868014
21
475.669516
0
LINE
5
116
100
AcDbEntity
8
0
6
ByLayer
62
3
370
-1
100
AcDbLine
10
575.868014
20
475.669516
11
575.908074
21
475.731719
0
LINE
5
117
100
AcDbEntity
8
0
6
ByLayer
62
3
370
-1
100
AcDbLine
10
575.908074
20
475.731719
11
575.945601
21
475.785595
0
LINE
5
118
100
AcDbEntity
8
0
6
ByLayer
62
3
370
-1
100
AcDbLine
10
575.945601
20
475.785595
11
576.141679
21
475.646078
0
LINE
5
119
100
AcDbEntity
8
0
6
ByLayer
62
3
370
-1
100
AcDbLine
10
576.141679
20
475.646078
11
576.069251
21
475.55923
0
LINE
5
11A
100
AcDbEntity
8
0
6
ByLayer
62
3
370
-1
100
AcDbLine
10
576.069251
20
475.55923
11
576.005691
21
475.484328
0
LINE
5
11B
100
AcDbEntity
8
0
6
ByLayer
62
3
370
-1
100
AcDbLine
10
576.005691
20
475.484328
11
575.950819
21
475.421553
0
LINE
5
11C
100
AcDbEntity
8
0
6
ByLayer
62
3
370
-1
100
AcDbLine
10
575.950819
20
475.421553
11
575.904454
21
475.371085
0
LINE
5
11D
100
AcDbEntity
8
0
6
ByLayer
62
3
370
-1
100
AcDbLine
10
575.904454
20
475.371085
11
575.866415
21
475.333106
0
LINE
5
11E
100
AcDbEntity
8
0
6
ByLayer
62
3
370
-1
100
AcDbLine
10
575.866415
20
475.333106
11
575.949643
21
475.318627
0
LINE
5
11F
100
AcDbEntity
8
0
6
ByLayer
62
3
370
-1
100
AcDbLine
10
575.949643
20
475.318627
11
576.031785
21
475.302337
0
LINE
5
120
100
AcDbEntity
8
0
6
ByLayer
62
3
370
-1
100
AcDbLine
10
576.031785
20
475.302337
11
576.112659
21
475.284237
0
LINE
5
121
100
AcDbEntity
8
0
6
ByLayer
62
3
370
-1
100
AcDbLine
10
576.112659
20
475.284237
11
576.192086
21
475.264328
0
LINE
5
122
100
AcDbEntity
8
0
6
ByLayer
62
3
370
-1
100
AcDbLine
10
576.192086
20
475.264328
11
576.269884
21
475.242608
0
LINE
5
123
100
AcDbEntity
8
0
6
ByLayer
62
3
370
-1
100
AcDbLine
10
574.558911
20
476.494494
11
574.558911
21
476.196605
0
LINE
5
124
100
AcDbEntity
8
0
6
ByLayer
62
3
370
-1
100
AcDbLine
10
574.558911
20
476.196605
11
573.646392
21
476.196605
0
LINE
5
125
100
AcDbEntity
8
0
6
ByLayer
62
3
370
-1
100
AcDbLine
10
573.646392
20
476.196605
11
573.646392
21
476.494494
0
LINE
5
126
100
AcDbEntity
8
0
6
ByLayer
62
3
370
-1
100
AcDbLine
10
573.646392
20
476.494494
11
574.558911
21
476.494494
0
LINE
5
127
100
AcDbEntity
8
0
6
ByLayer
62
3
370
-1
100
AcDbLine
10
571.464077
20
475.393438
11
571.758195
21
475.416062
0
LINE
5
128
100
AcDbEntity
8
0
6
ByLayer
62
3
370
-1
100
AcDbLine
10
571.758195
20
475.416062
11
571.775389
21
475.351417
0
LINE
5
129
100
AcDbEntity
8
0
6
ByLayer
62
3
370
-1
100
AcDbLine
10
571.775389
20
475.351417
11
571.795299
21
475.293468
0
LINE
5
12A
100
AcDbEntity
8
0
6
ByLayer
62
3
370
-1
100
AcDbLine
10
571.795299
20
475.293468
11
571.817923
21
475.242578
0
LINE
5
12B
100
AcDbEntity
8
0
6
ByLayer
62
3
370
-1
100
AcDbLine
10
571.817923
20
475.242578
11
571.843263
21
475.199109
0
LINE
5
12C
100
AcDbEntity
8
0
6
ByLayer
62
3
370
-1
100
AcDbLine
10
571.843263
20
475.199109
11
571.871317
21
475.163423
0
LINE
5
12D
100
AcDbEntity
8
0
6
ByLayer
62
3
370
-1
100
AcDbLine
10
571.871317
20
475.163423
11
571.921121
21
475.118234
0
LINE
5
12E
100
AcDbEntity
8
0
6
ByLayer
62
3
370
-1
100
AcDbLine
10
571.921121
20
475.118234
11
571.975631
21
475.082458
0
LINE
5
12F
100
AcDbEntity
8
0
6
ByLayer
62
3
370
-1
100
AcDbLine
10
571.975631
20
475.082458
11
572.035027
21
475.056455
0
LINE
5
130
100
AcDbEntity
8
0
6
ByLayer
62
3
370
-1
100
AcDbLine
10
572.035027
20
475.056455
11
572.099492
21
475.040587
0
LINE
5
131
100
AcDbEntity
8
0
6
ByLayer
62
3
370
-1
100
AcDbLine
10
572.099492
20
475.040587
11
572.169205
21
475.035218
0
LINE
5
132
100
AcDbEntity
8
0
6
ByLayer
62
3
370
-1
100
AcDbLine
10
572.169205
20
475.035218
11
572.224439
21
475.038385
0
LINE
5
133
100
AcDbEntity
8
0
6
ByLayer
62
3
370
-1
100
AcDbLine
10
572.224439
20
475.038385
11
572.277139
21
475.047887
0
LINE
5
134
100
AcDbEntity
8
0
6
ByLayer
62
3
370
-1
100
AcDbLine
10
572.277139
20
475.047887
11
572.327486
21
475.063725
0
LINE
5
135
100
AcDbEntity
8
0
6
ByLayer
62
3
370
-1
100
AcDbLine
10
572.327486
20
475.063725
11
572.375661
21
475.085897
0
LINE
5
136
100
AcDbEntity
8
0
6
ByLayer
62
3
370
-1
100
AcDbLine
10
572.375661
20
475.085897
11
572.421845
21
475.114403
0
LINE
5
137
100
AcDbEntity
8
0
6
ByLayer
62
3
370
-1
100
AcDbLine
10
572.421845
20
475.114403
11
572.474304
21
475.158777
0
LINE
5
138
100
AcDbEntity
8
0
6
ByLayer
62
3
370
-1
100
AcDbLine
10
572.474304
20
475.158777
11
572.522961
21
475.210572
0
LINE
5
139
100
AcDbEntity
8
0
6
ByLayer
62
3
370
-1
100
AcDbLine
10
572.522961
20
475.210572
11
572.567637
21
475.269969
0
LINE
5
13A
100
AcDbEntity
8
0
6
ByLayer
62
3
370
-1
100
AcDbLine
10
572.567637
20
475.269969
11
572.60815
21
475.337148
0
LINE
5
13B
100
AcDbEntity
8
0
6
ByLayer
62
3
370
-1
100
AcDbLine
10
572.60815
20
475.337148
11
572.644319
21
475.412292
0
LINE
5
13C
100
AcDbEntity
8
0
6
ByLayer
62
3
370
-1
100
AcDbLine
10
572.644319
20
475.412292
11
572.672856
21
475.496394
0
LINE
5
13D
100
AcDbEntity
8
0
6
ByLayer
62
3
370
-1
100
AcDbLine
10
572.672856
20
475.496394
11
572.695239
21
475.594614
0
LINE
5
13E
100
AcDbEntity
8
0
6
ByLayer
62
3
370
-1
100
AcDbLine
10
572.695239
20
475.594614
11
572.711649
21
475.70659
0
LINE
5
13F
100
AcDbEntity
8
0
6
ByLayer
62
3
370
-1
100
AcDbLine
10
572.711649
20
475.70659
11
572.722267
21
475.83196
0
LINE
5
140
100
AcDbEntity
8
0
6
ByLayer
62
3
370
-1
100
AcDbLine
10
572.722267
20
475.83196
11
572.727275
21
475.970361
0
LINE
5
141
100
AcDbEntity
8
0
6
ByLayer
62
3
370
-1
100
AcDbLine
10
572.727275
20
475.970361
11
572.683896
21
475.909788
0
LINE
5
142
100
AcDbEntity
8
0
6
ByLayer
62
3
370
-1
100
AcDbLine
10
572.683896
20
475.909788
11
572.63545
21
475.855007
0
LINE
5
143
100
AcDbEntity
8
0
6
ByLayer
62
3
370
-1
100
AcDbLine
10
572.63545
20
475.855007
11
572.582297
21
475.806379
0
LINE
5
144
100
AcDbEntity
8
0
6
ByLayer
62
3
370
-1
100
AcDbLine
10
572.582297
20
475.806379
11
572.524801
21
475.764268
0
LINE
5
145
100
AcDbEntity
8
0
6
ByLayer
62
3
370
-1
100
AcDbLine
10
572.524801
20
475.764268
11
572.463323
21
475.729034
0
LINE
5
146
100
AcDbEntity
8
0
6
ByLayer
62
3
370
-1
100
AcDbLine
10
572.463323
20
475.729034
11
572.401362
21
475.700527
0
LINE
5
147
100
AcDbEntity
8
0
6
ByLayer
62
3
370
-1
100
AcDbLine
10
572.401362
20
475.700527
11
572.337773
21
475.678355
0
LINE
5
148
100
AcDbEntity
8
0
6
ByLayer
62
3
370
-1
100
AcDbLine
10
572.337773
20
475.678355
11
572.272735
21
475.662518
0
LINE
5
149
100
AcDbEntity
8
0
6
ByLayer
62
3
370
-1
100
AcDbLine
10
572.272735
20
475.662518
11
572.20643
21
475.653016
0
LINE
5
14A
100
AcDbEntity
8
0
6
ByLayer
62
3
370
-1
100
AcDbLine
10
572.20643
20
475.653016
11
572.13904
21
475.649848
0
LINE
5
14B
100
AcDbEntity
8
0
6
ByLayer
62
3
370
-1
100
AcDbLine
10
572.13904
20
475.649848
11
572.024952
21
475.658476
0
LINE
5
14C
100
AcDbEntity
8
0
6
ByLayer
62
3
370
-1
100
AcDbLine
10
572.024952
20
475.658476
11
571.917742
21
475.684479
0
LINE
5
14D
100
AcDbEntity
8
0
6
ByLayer
62
3
370
-1
100
AcDbLine
10
571.917742
20
475.684479
11
571.817049
21
475.728038
0
LINE
5
14E
100
AcDbEntity
8
0
6
ByLayer
62
3
370
-1
100
AcDbLine
10
571.817049
20
475.728038
11
571.722509
21
475.789335
0
LINE
5
14F
100
AcDbEntity
8
0
6
ByLayer
62
3
370
-1
100
AcDbLine
10
571.722509
20
475.789335
11
571.633761
21
475.868551
0
LINE
5
150
100
AcDbEntity
8
0
6
ByLayer
62
3
370
-1
100
AcDbLine
10
571.633761
20
475.868551
11
571.560065
21
475.959954
0
LINE
5
151
100
AcDbEntity
8
0
6
ByLayer
62
3
370
-1
100
AcDbLine
10
571.560065
20
475.959954
11
571.502116
21
476.062216
0
LINE
5
152
100
AcDbEntity
8
0
6
ByLayer
62
3
370
-1
100
AcDbLine
10
571.502116
20
476.062216
11
571.460276
21
476.175338
0
LINE
5
153
100
AcDbEntity
8
0
6
ByLayer
62
3
370
-1
100
AcDbLine
10
571.460276
20
476.175338
11
571.434907
21
476.29932
0
LINE
5
154
100
AcDbEntity
8
0
6
ByLayer
62
3
370
-1
100
AcDbLine
10
571.434907
20
476.29932
11
571.42637
21
476.434162
0
LINE
5
155
100
AcDbEntity
8
0
6
ByLayer
62
3
370
-1
100
AcDbLine
10
571.42637
20
476.434162
11
571.43005
21
476.523332
0
LINE
5
156
100
AcDbEntity
8
0
6
ByLayer
62
3
370
-1
100
AcDbLine
10
571.43005
20
476.523332
11
571.441332
21
476.609969
0
LINE
5
157
100
AcDbEntity
8
0
6
ByLayer
62
3
370
-1
100
AcDbLine
10
571.441332
20
476.609969
11
571.460578
21
476.694252
0
LINE
5
158
100
AcDbEntity
8
0
6
ByLayer
62
3
370
-1
100
AcDbLine
10
571.460578
20
476.694252
11
571.48815
21
476.776364
0
LINE
5
159
100
AcDbEntity
8
0
6
ByLayer
62
3
370
-1
100
AcDbLine
10
571.48815
20
476.776364
11
571.524409
21
476.856485
0
LINE
5
15A
100
AcDbEntity
8
0
6
ByLayer
62
3
370
-1
100
AcDbLine
10
571.524409
20
476.856485
11
571.566008
21
476.93018
0
LINE
5
15B
100
AcDbEntity
8
0
6
ByLayer
62
3
370
-1
100
AcDbLine
10
571.566008
20
476.93018
11
571.613761
21
476.997179
0
LINE
5
15C
100
AcDbEntity
8
0
6
ByLayer
62
3
370
-1
100
AcDbLine
10
571.613761
20
476.997179
11
571.667486
21
477.057118
0
LINE
5
15D
100
AcDbEntity
8
0
6
ByLayer
62
3
370
-1
100
AcDbLine
10
571.667486
20
477.057118
11
571.727003
21
477.109637
0
LINE
5
15E
100
AcDbEntity
8
0
6
ByLayer
62
3
370
-1
100
AcDbLine
10
571.727003
20
477.109637
11
571.792132
21
477.154373
0
LINE
5
15F
100
AcDbEntity
8
0
6
ByLayer
62
3
370
-1
100
AcDbLine
10
571.792132
20
477.154373
11
571.862237
21
477.191417
0
LINE
5
160
100
AcDbEntity
8
0
6
ByLayer
62
3
370
-1
100
AcDbLine
10
571.862237
20
477.191417
11
571.936687
21
477.220859
0
LINE
5
161
100
AcDbEntity
8
0
6
ByLayer
62
3
370
-1
100
AcDbLine
10
571.936687
20
477.220859
11
572.015299
21
477.242337
0
LINE
5
162
100
AcDbEntity
8
0
6
ByLayer
62
3
370
-1
100
AcDbLine
10
572.015299
20
477.242337
11
572.097893
21
477.255489
0
LINE
5
163
100
AcDbEntity
8
0
6
ByLayer
62
3
370
-1
100
AcDbLine
10
572.097893
20
477.255489
11
572.184288
21
477.259954
0
LINE
5
164
100
AcDbEntity
8
0
6
ByLayer
62
3
370
-1
100
AcDbLine
10
572.184288
20
477.259954
11
572.325948
21
477.249094
0
LINE
5
165
100
AcDbEntity
8
0
6
ByLayer
62
3
370
-1
100
AcDbLine
10
572.325948
20
477.249094
11
572.456928
21
477.216515
0
LINE
5
166
100
AcDbEntity
8
0
6
ByLayer
62
3
370
-1
100
AcDbLine
10
572.456928
20
477.216515
11
572.577411
21
477.162216
0
LINE
5
167
100
AcDbEntity
8
0
6
ByLayer
62
3
370
-1
100
AcDbLine
10
572.577411
20
477.162216
11
572.687577
21
477.086198
0
LINE
5
168
100
AcDbEntity
8
0
6
ByLayer
62
3
370
-1
100
AcDbLine
10
572.687577
20
477.086198
11
572.787607
21
476.988461
0
LINE
5
169
100
AcDbEntity
8
0
6
ByLayer
62
3
370
-1
100
AcDbLine
10
572.787607
20
476.988461
11
572.871287
21
476.865414
0
LINE
5
16A
100
AcDbEntity
8
0
6
ByLayer
62
3
370
-1
100
AcDbLine
10
572.871287
20
476.865414
11
572.936687
21
476.713589
0
LINE
5
16B
100
AcDbEntity
8
0
6
ByLayer
62
3
370
-1
100
AcDbLine
10
572.936687
20
476.713589
11
572.983625
21
476.533167
0
LINE
5
16C
100
AcDbEntity
8
0
6
ByLayer
62
3
370
-1
100
AcDbLine
10
572.983625
20
476.533167
11
573.01192
21
476.324328
0
LINE
5
16D
100
AcDbEntity
8
0
6
ByLayer
62
3
370
-1
100
AcDbLine
10
573.01192
20
476.324328
11
573.021392
21
476.087254
0
LINE
5
16E
100
AcDbEntity
8
0
6
ByLayer
62
3
370
-1
100
AcDbLine
10
573.021392
20
476.087254
11
573.010985
21
475.822065
0
LINE
5
16F
100
AcDbEntity
8
0
6
ByLayer
62
3
370
-1
100
AcDbLine
10
573.010985
20
475.822065
11
572.979764
21
475.587465
0
LINE
5
170
100
AcDbEntity
8
0
6
ByLayer
62
3
370
-1
100
AcDbLine
10
572.979764
20
475.587465
11
572.927727
21
475.383272
0
LINE
5
171
100
AcDbEntity
8
0
6
ByLayer
62
3
370
-1
100
AcDbLine
10
572.927727
20
475.383272
11
572.854877
21
475.209305
0
LINE
5
172
100
AcDbEntity
8
0
6
ByLayer
62
3
370
-1
100
AcDbLine
10
572.854877
20
475.209305
11
572.761212
21
475.065384
0
LINE
5
173
100
AcDbEntity
8
0
6
ByLayer
62
3
370
-1
100
AcDbLine
10
572.761212
20
475.065384
11
572.664379
21
474.967254
0
LINE
5
174
100
AcDbEntity
8
0
6
ByLayer
62
3
370
-1
100
AcDbLine
10
572.664379
20
474.967254
11
572.554877
21
474.890301
0
LINE
5
175
100
AcDbEntity
8
0
6
ByLayer
62
3
370
-1
100
AcDbLine
10
572.554877
20
474.890301
11
572.432705
21
474.834886
0
LINE
5
176
100
AcDbEntity
8
0
6
ByLayer
62
3
370
-1
100
AcDbLine
10
572.432705
20
474.834886
11
572.297863
21
474.801372
0
LINE
5
177
100
AcDbEntity
8
0
6
ByLayer
62
3
370
-1
100
AcDbLine
10
572.297863
20
474.801372
11
572.150352
21
474.79012
0
LINE
5
178
100
AcDbEntity
8
0
6
ByLayer
62
3
370
-1
100
AcDbLine
10
572.150352
20
474.79012
11
572.041272
21
474.796485
0
LINE
5
179
100
AcDbEntity
8
0
6
ByLayer
62
3
370
-1
100
AcDbLine
10
572.041272
20
474.796485
11
571.940156
21
474.8157
0
LINE
5
17A
100
AcDbEntity
8
0
6
ByLayer
62
3
370
-1
100
AcDbLine
10
571.940156
20
474.8157
11
571.846822
21
474.847948
0
LINE
5
17B
100
AcDbEntity
8
0
6
ByLayer
62
3
370
-1
100
AcDbLine
10
571.846822
20
474.847948
11
571.761091
21
474.893408
0
LINE
5
17C
100
AcDbEntity
8
0
6
ByLayer
62
3
370
-1
100
AcDbLine
10
571.761091
20
474.893408
11
571.68278
21
474.952262
0
LINE
5
17D
100
AcDbEntity
8
0
6
ByLayer
62
3
370
-1
100
AcDbLine
10
571.68278
20
474.952262
11
571.616234
21
475.020587
0
LINE
5
17E
100
AcDbEntity
8
0
6
ByLayer
62
3
370
-1
100
AcDbLine
10
571.616234
20
475.020587
11
571.561272
21
475.098868
0
LINE
5
17F
100
AcDbEntity
8
0
6
ByLayer
62
3
370
-1
100
AcDbLine
10
571.561272
20
475.098868
11
571.517712
21
475.187103
0
LINE
5
180
100
AcDbEntity
8
0
6
ByLayer
62
3
370
-1
100
AcDbLine
10
571.517712
20
475.187103
11
571.485374
21
475.285293
0
LINE
5
181
100
AcDbEntity
8
0
6
ByLayer
62
3
370
-1
100
AcDbLine
10
571.485374
20
475.285293
11
571.464077
21
475.393438
0
LINE
5
182
100
AcDbEntity
8
0
6
ByLayer
62
3
370
-1
100
AcDbLine
10
572.682026
20
476.434162
11
572.679703
21
476.494795
0
LINE
5
183
100
AcDbEntity
8
0
6
ByLayer
62
3
370
-1
100
AcDbLine
10
572.679703
20
476.494795
11
572.672494
21
476.554524
0
LINE
5
184
100
AcDbEntity
8
0
6
ByLayer
62
3
370
-1
100
AcDbLine
10
572.672494
20
476.554524
11
572.660035
21
476.613348
0
LINE
5
185
100
AcDbEntity
8
0
6
ByLayer
62
3
370
-1
100
AcDbLine
10
572.660035
20
476.613348
11
572.641966
21
476.671266
0
LINE
5
186
100
AcDbEntity
8
0
6
ByLayer
62
3
370
-1
100
AcDbLine
10
572.641966
20
476.671266
11
572.617923
21
476.72828
0
LINE
5
187
100
AcDbEntity
8
0
6
ByLayer
62
3
370
-1
100
AcDbLine
10
572.617923
20
476.72828
11
572.588964
21
476.780316
0
LINE
5
188
100
AcDbEntity
8
0
6
ByLayer
62
3
370
-1
100
AcDbLine
10
572.588964
20
476.780316
11
572.556385
21
476.827827
0
LINE
5
189
100
AcDbEntity
8
0
6
ByLayer
62
3
370
-1
100
AcDbLine
10
572.556385
20
476.827827
11
572.520186
21
476.870814
0
LINE
5
18A
100
AcDbEntity
8
0
6
ByLayer
62
3
370
-1
100
AcDbLine
10
572.520186
20
476.870814
11
572.480367
21
476.909275
0
LINE
5
18B
100
AcDbEntity
8
0
6
ByLayer
62
3
370
-1
100
AcDbLine
10
572.480367
20
476.909275
11
572.436928
21
476.943212
0
LINE
5
18C
100
AcDbEntity
8
0
6
ByLayer
62
3
370
-1
100
AcDbLine
10
572.436928
20
476.943212
11
572.390774
21
476.968038
0
LINE
5
18D
100
AcDbEntity
8
0
6
ByLayer
62
3
370
-1
100
AcDbLine
10
572.390774
20
476.968038
11
572.34281
21
476.987978
0
LINE
5
18E
100
AcDbEntity
8
0
6
ByLayer
62
3
370
-1
100
AcDbLine
10
572.34281
20
476.987978
11
572.293037
21
477.002669
0
LINE
5
18F
100
AcDbEntity
8
0
6
ByLayer
62
3
370
-1
100
AcDbLine
10
572.293037
20
477.002669
11
572.241453
21
477.011749
0
LINE
5
190
100
AcDbEntity
8
0
6
ByLayer
62
3
370
-1
100
AcDbLine
10
572.241453
20
477.011749
11
572.188059
21
477.014856
0
LINE
5
191
100
AcDbEntity
8
0
6
ByLayer
62
3
370
-1
100
AcDbLine
10
572.188059
20
477.014856
11
572.115631
21
477.008943
0
LINE
5
192
100
AcDbEntity
8
0
6
ByLayer
62
3
370
-1
100
AcDbLine
10
572.115631
20
477.008943
11
572.047546
21
476.991085
0
LINE
5
193
100
AcDbEntity
8
0
6
ByLayer
62
3
370
-1
100
AcDbLine
10
572.047546
20
476.991085
11
571.983625
21
476.9611
0
LINE
5
194
100
AcDbEntity
8
0
6
ByLayer
62
3
370
-1
100
AcDbLine
10
571.983625
20
476.9611
11
571.923685
21
476.918808
0
LINE
5
195
100
AcDbEntity
8
0
6
ByLayer
62
3
370
-1
100
AcDbLine
10
571.923685
20
476.918808
11
571.867546
21
476.864026
0
LINE
5
196
100
AcDbEntity
8
0
6
ByLayer
62
3
370
-1
100
AcDbLine
10
571.867546
20
476.864026
11
571.818678
21
476.798446
0
LINE
5
197
100
AcDbEntity
8
0
6
ByLayer
62
3
370
-1
100
AcDbLine
10
571.818678
20
476.798446
11
571.780669
21
476.723996
0
LINE
5
198
100
AcDbEntity
8
0
6
ByLayer
62
3
370
-1
100
AcDbLine
10
571.780669
20
476.723996
11
571.753519
21
476.640859
0
LINE
5
199
100
AcDbEntity
8
0
6
ByLayer
62
3
370
-1
100
AcDbLine
10
571.753519
20
476.640859
11
571.73723
21
476.549215
0
LINE
5
19A
100
AcDbEntity
8
0
6
ByLayer
62
3
370
-1
100
AcDbLine
10
571.73723
20
476.549215
11
571.7318
21
476.449245
0
LINE
5
19B
100
AcDbEntity
8
0
6
ByLayer
62
3
370
-1
100
AcDbLine
10
571.7318
20
476.449245
11
571.736837
21
476.35377
0
LINE
5
19C
100
AcDbEntity
8
0
6
ByLayer
62
3
370
-1
100
AcDbLine
10
571.736837
20
476.35377
11
571.752192
21
476.26644
0
LINE
5
19D
100
AcDbEntity
8
0
6
ByLayer
62
3
370
-1
100
AcDbLine
10
571.752192
20
476.26644
11
571.778225
21
476.187254
0
LINE
5
19E
100
AcDbEntity
8
0
6
ByLayer
62
3
370
-1
100
AcDbLine
10
571.778225
20
476.187254
11
571.815299
21
476.116213
0
LINE
5
19F
100
AcDbEntity
8
0
6
ByLayer
62
3
370
-1
100
AcDbLine
10
571.815299
20
476.116213
11
571.863776
21
476.053317
0
LINE
5
1A0
100
AcDbEntity
8
0
6
ByLayer
62
3
370
-1
100
AcDbLine
10
571.863776
20
476.053317
11
571.918949
21
476.002216
0
LINE
5
1A1
100
AcDbEntity
8
0
6
ByLayer
62
3
370
-1
100
AcDbLine
10
571.918949
20
476.002216
11
571.980276
21
475.962156
0
LINE
5
1A2
100
AcDbEntity
8
0
6
ByLayer
62
3
370
-1
100
AcDbLine
10
571.980276
20
475.962156
11
572.047577
21
475.933317
0
LINE
5
1A3
100
AcDbEntity
8
0
6
ByLayer
62
3
370
-1
100
AcDbLine
10
572.047577
20
475.933317
11
572.120669
21
475.915881
0
LINE
5
1A4
100
AcDbEntity
8
0
6
ByLayer
62
3
370
-1
100
AcDbLine
10
572.120669
20
475.915881
11
572.199371
21
475.910029
0
LINE
5
1A5
100
AcDbEntity
8
0
6
ByLayer
62
3
370
-1
100
AcDbLine
10
572.199371
20
475.910029
11
572.278135
21
475.915519
0
LINE
5
1A6
100
AcDbEntity
8
0
6
ByLayer
62
3
370
-1
100
AcDbLine
10
572.278135
20
475.915519
11
572.351649
21
475.932231
0
LINE
5
1A7
100
AcDbEntity
8
0
6
ByLayer
62
3
370
-1
100
AcDbLine
10
572.351649
20
475.932231
11
572.420095
21
475.960527
0
LINE
5
1A8
100
AcDbEntity
8
0
6
ByLayer
62
3
370
-1
100
AcDbLine
10
572.420095
20
475.960527
11
572.483655
21
476.000768
0
LINE
5
1A9
100
AcDbEntity
8
0
6
ByLayer
62
3
370
-1
100
AcDbLine
10
572.483655
20
476.000768
11
572.542509
21
476.053317
0
LINE
5
1AA
100
AcDbEntity
8
0
6
ByLayer
62
3
370
-1
100
AcDbLine
10
572.542509
20
476.053317
11
572.59177
21
476.115369
0
LINE
5
1AB
100
AcDbEntity
8
0
6
ByLayer
62
3
370
-1
100
AcDbLine
10
572.59177
20
476.115369
11
572.630714
21
476.184117
0
LINE
5
1AC
100
AcDbEntity
8
0
6
ByLayer
62
3
370
-1
100
AcDbLine
10
572.630714
20
476.184117
11
572.658979
21
476.259924
0
LINE
5
1AD
100
AcDbEntity
8
0
6
ByLayer
62
3
370
-1
100
AcDbLine
10
572.658979
20
476.259924
11
572.676204
21
476.343151
0
LINE
5
1AE
100
AcDbEntity
8
0
6
ByLayer
62
3
370
-1
100
AcDbLine
10
572.676204
20
476.343151
11
572.682026
21
476.434162
0
LINE
5
1AF
100
AcDbEntity
8
0
6
ByLayer
62
7
370
-1
100
AcDbLine
10
607.277781
20
485.124387
11
607.277781
21
478.159142
0
LINE
5
1B0
100
AcDbEntity
8
0
6
ByLayer
62
7
370
-1
100
AcDbLine
10
607.277781
20
478.159142
11
608.67797
21
478.159142
0
LINE
5
1B1
100
AcDbEntity
8
0
6
ByLayer
62
7
370
-1
100
AcDbLine
10
608.67797
20
478.159142
11
608.67797
21
475.958515
0
LINE
5
1B2
100
AcDbEntity
8
0
6
ByLayer
62
7
370
-1
100
AcDbLine
10
608.67797
20
475.958515
11
607.277781
21
475.958515
0
LINE
5
1B3
100
AcDbEntity
8
0
6
ByLayer
62
7
370
-1
100
AcDbLine
10
607.277781
20
475.958515
11
607.277781
21
473.216387
0
LINE
5
1B4
100
AcDbEntity
8
0
6
ByLayer
62
7
370
-1
100
AcDbLine
10
607.277781
20
473.216387
11
604.477093
21
473.216387
0
LINE
5
1B5
100
AcDbEntity
8
0
6
ByLayer
62
7
370
-1
100
AcDbLine
10
604.477093
20
473.216387
11
604.477093
21
475.958515
0
LINE
5
1B6
100
AcDbEntity
8
0
6
ByLayer
62
7
370
-1
100
AcDbLine
10
604.477093
20
475.958515
11
603.077609
21
475.958515
0
LINE
5
1B7
100
AcDbEntity
8
0
6
ByLayer
62
7
370
-1
100
AcDbLine
10
603.077609
20
475.958515
11
603.077609
21
478.159142
0
LINE
5
1B8
100
AcDbEntity
8
0
6
ByLayer
62
7
370
-1
100
AcDbLine
10
603.077609
20
478.159142
11
604.477093
21
478.159142
0
LINE
5
1B9
100
AcDbEntity
8
0
6
ByLayer
62
7
370
-1
100
AcDbLine
10
604.477093
20
478.159142
11
604.477093
21
485.124387
0
LINE
5
1BA
100
AcDbEntity
8
0
6
ByLayer
62
7
370
-1
100
AcDbLine
10
604.477093
20
485.124387
11
598.860504
21
485.124387
0
LINE
5
1BB
100
AcDbEntity
8
0
6
ByLayer
62
7
370
-1
100
AcDbLine
10
598.860504
20
485.124387
11
598.860504
21
479.522276
0
LINE
5
1BC
100
AcDbEntity
8
0
6
ByLayer
62
7
370
-1
100
AcDbLine
10
598.860504
20
479.522276
11
551.347348
21
479.522276
0
LINE
5
1BD
100
AcDbEntity
8
0
6
ByLayer
62
7
370
-1
100
AcDbLine
10
551.347348
20
479.522276
11
551.347348
21
485.124387
0
LINE
5
1BE
100
AcDbEntity
8
0
6
ByLayer
62
7
370
-1
100
AcDbLine
10
551.347348
20
485.124387
11
542.74767
21
485.124387
0
LINE
5
1BF
100
AcDbEntity
8
0
6
ByLayer
62
7
370
-1
100
AcDbLine
10
542.74767
20
485.124387
11
542.74767
21
478.159142
0
LINE
5
1C0
100
AcDbEntity
8
0
6
ByLayer
62
7
370
-1
100
AcDbLine
10
542.74767
20
478.159142
11
544.147126
21
478.159142
0
LINE
5
1C1
100
AcDbEntity
8
0
6
ByLayer
62
7
370
-1
100
AcDbLine
10
544.147126
20
478.159142
11
544.147126
21
475.958515
0
LINE
5
1C2
100
AcDbEntity
8
0
6
ByLayer
62
7
370
-1
100
AcDbLine
10
544.147126
20
475.958515
11
542.74767
21
475.958515
0
LINE
5
1C3
100
AcDbEntity
8
0
6
ByLayer
62
7
370
-1
100
AcDbLine
10
542.74767
20
475.958515
11
542.74767
21
473.216387
0
LINE
5
1C4
100
AcDbEntity
8
0
6
ByLayer
62
7
370
-1
100
AcDbLine
10
542.74767
20
473.216387
11
539.946982
21
473.216387
0
LINE
5
1C5
100
AcDbEntity
8
0
6
ByLayer
62
7
370
-1
100
AcDbLine
10
539.946982
20
473.216387
11
539.946982
21
475.958515
0
LINE
5
1C6
100
AcDbEntity
8
0
6
ByLayer
62
7
370
-1
100
AcDbLine
10
539.946982
20
475.958515
11
538.547498
21
475.958515
0
LINE
5
1C7
100
AcDbEntity
8
0
6
ByLayer
62
7
370
-1
100
AcDbLine
10
538.547498
20
475.958515
11
538.547498
21
478.159142
0
LINE
5
1C8
100
AcDbEntity
8
0
6
ByLayer
62
7
370
-1
100
AcDbLine
10
538.547498
20
478.159142
11
539.946982
21
478.159142
0
LINE
5
1C9
100
AcDbEntity
8
0
6
ByLayer
62
7
370
-1
100
AcDbLine
10
539.946982
20
478.159142
11
539.946982
21
485.124387
0
LINE
5
1CA
100
AcDbEntity
8
0
6
ByLayer
62
7
370
-1
100
AcDbLine
10
539.946982
20
485.124387
11
531.348009
21
485.124387
0
LINE
5
1CB
100
AcDbEntity
8
0
6
ByLayer
62
7
370
-1
100
AcDbLine
10
531.348009
20
485.124387
11
531.348009
21
479.522276
0
LINE
5
1CC
100
AcDbEntity
8
0
6
ByLayer
62
7
370
-1
100
AcDbLine
10
531.348009
20
479.522276
11
483.834487
21
479.522276
0
LINE
5
1CD
100
AcDbEntity
8
0
6
ByLayer
62
7
370
-1
100
AcDbLine
10
483.834487
20
479.522276
11
483.834487
21
485.124387
0
LINE
5
1CE
100
AcDbEntity
8
0
6
ByLayer
62
7
370
-1
100
AcDbLine
10
483.834487
20
485.124387
11
475.217531
21
485.124387
0
LINE
5
1CF
100
AcDbEntity
8
0
6
ByLayer
62
7
370
-1
100
AcDbLine
10
475.217531
20
485.124387
11
475.217531
21
478.159142
0
LINE
5
1D0
100
AcDbEntity
8
0
6
ByLayer
62
7
370
-1
100
AcDbLine
10
475.217531
20
478.159142
11
476.617015
21
478.159142
0
LINE
5
1D1
100
AcDbEntity
8
0
6
ByLayer
62
7
370
-1
100
AcDbLine
10
476.617015
20
478.159142
11
476.617015
21
475.958515
0
LINE
5
1D2
100
AcDbEntity
8
0
6
ByLayer
62
7
370
-1
100
AcDbLine
10
476.617015
20
475.958515
11
475.217531
21
475.958515
0
LINE
5
1D3
100
AcDbEntity
8
0
6
ByLayer
62
7
370
-1
100
AcDbLine
10
475.217531
20
475.958515
11
475.217531
21
473.216387
0
LINE
5
1D4
100
AcDbEntity
8
0
6
ByLayer
62
7
370
-1
100
AcDbLine
10
475.217531
20
473.216387
11
472.416814
21
473.216387
0
LINE
5
1D5
100
AcDbEntity
8
0
6
ByLayer
62
7
370
-1
100
AcDbLine
10
472.416814
20
473.216387
11
472.416814
21
475.958515
0
LINE
5
1D6
100
AcDbEntity
8
0
6
ByLayer
62
7
370
-1
100
AcDbLine
10
472.416814
20
475.958515
11
471.016653
21
475.958515
0
LINE
5
1D7
100
AcDbEntity
8
0
6
ByLayer
62
7
370
-1
100
AcDbLine
10
471.016653
20
475.958515
11
471.016653
21
478.159142
0
LINE
5
1D8
100
AcDbEntity
8
0
6
ByLayer
62
7
370
-1
100
AcDbLine
10
471.016653
20
478.159142
11
472.416814
21
478.159142
0
LINE
5
1D9
100
AcDbEntity
8
0
6
ByLayer
62
7
370
-1
100
AcDbLine
10
472.416814
20
478.159142
11
472.416814
21
485.124754
0
LINE
5
1DA
100
AcDbEntity
8
0
6
ByLayer
62
7
370
-1
100
AcDbLine
10
472.416814
20
485.124754
11
463.834465
21
485.124754
0
LINE
5
1DB
100
AcDbEntity
8
0
6
ByLayer
62
7
370
-1
100
AcDbLine
10
463.834465
20
485.124754
11
463.834465
21
479.522276
0
LINE
5
1DC
100
AcDbEntity
8
0
6
ByLayer
62
7
370
-1
100
AcDbLine
10
463.834465
20
479.522276
11
429.916298
21
479.522276
0
LINE
5
1DD
100
AcDbEntity
8
0
6
ByLayer
62
7
370
-1
100
AcDbLine
10
429.916298
20
479.522276
11
429.916298
21
485.122637
0
LINE
5
1DE
100
AcDbEntity
8
0
6
ByLayer
62
7
370
-1
100
AcDbLine
10
429.916298
20
485.122637
11
421.333914
21
485.122355
0
LINE
5
1DF
100
AcDbEntity
8
0
6
ByLayer
62
7
370
-1
100
AcDbLine
10
421.333914
20
485.122355
11
421.333914
21
478.157449
0
LINE
5
1E0
100
AcDbEntity
8
0
6
ByLayer
62
7
370
-1
100
AcDbLine
10
421.333914
20
478.157449
11
422.734103
21
478.157449
0
LINE
5
1E1
100
AcDbEntity
8
0
6
ByLayer
62
7
370
-1
100
AcDbLine
10
422.734103
20
478.157449
11
422.734103
21
475.957527
0
LINE
5
1E2
100
AcDbEntity
8
0
6
ByLayer
62
7
370
-1
100
AcDbLine
10
422.734103
20
475.957527
11
421.333914
21
475.957527
0
LINE
5
1E3
100
AcDbEntity
8
0
6
ByLayer
62
7
370
-1
100
AcDbLine
10
421.333914
20
475.957527
11
421.333914
21
473.214694
0
LINE
5
1E4
100
AcDbEntity
8
0
6
ByLayer
62
7
370
-1
100
AcDbLine
10
421.333914
20
473.214694
11
418.532859
21
473.214694
0
LINE
5
1E5
100
AcDbEntity
8
0
6
ByLayer
62
7
370
-1
100
AcDbLine
10
418.532859
20
473.214694
11
418.532859
21
475.958232
0
LINE
5
1E6
100
AcDbEntity
8
0
6
ByLayer
62
7
370
-1
100
AcDbLine
10
418.532859
20
475.958232
11
417.133742
21
475.958232
0
LINE
5
1E7
100
AcDbEntity
8
0
6
ByLayer
62
7
370
-1
100
AcDbLine
10
417.133742
20
475.958232
11
417.133742
21
478.158155
0
LINE
5
1E8
100
AcDbEntity
8
0
6
ByLayer
62
7
370
-1
100
AcDbLine
10
417.133742
20
478.158155
11
418.532859
21
478.158155
0
LINE
5
1E9
100
AcDbEntity
8
0
6
ByLayer
62
7
370
-1
100
AcDbLine
10
418.532859
20
478.158155
11
418.532859
21
485.12306
0
LINE
5
1EA
100
AcDbEntity
8
0
6
ByLayer
62
7
370
-1
100
AcDbLine
10
418.532859
20
485.12306
11
409.916276
21
485.12306
0
LINE
5
1EB
100
AcDbEntity
8
0
6
ByLayer
62
7
370
-1
100
AcDbLine
10
409.916276
20
485.12306
11
409.916276
21
479.522276
0
LINE
5
1EC
100
AcDbEntity
8
0
6
ByLayer
62
7
370
-1
100
AcDbLine
10
409.916276
20
479.522276
11
389.866565
21
479.522276
0
LINE
5
1ED
100
AcDbEntity
8
0
6
ByLayer
62
7
370
-1
100
AcDbLine
10
389.866565
20
479.522276
11
389.847601
21
344.748803
0
LINE
5
1EE
100
AcDbEntity
8
0
6
ByLayer
62
7
370
-1
100
AcDbLine
10
389.847601
20
344.748803
11
409.916276
21
344.748803
0
LINE
5
1EF
100
AcDbEntity
8
0
6
ByLayer
62
7
370
-1
100
AcDbLine
10
409.916276
20
344.748803
11
409.916276
21
339.148019
0
LINE
5
1F0
100
AcDbEntity
8
0
6
ByLayer
62
7
370
-1
100
AcDbLine
10
409.916276
20
339.148019
11
418.532859
21
339.148019
0
LINE
5
1F1
100
AcDbEntity
8
0
6
ByLayer
62
7
370
-1
100
AcDbLine
10
418.532859
20
339.148019
11
418.532859
21
346.112924
0
LINE
5
1F2
100
AcDbEntity
8
0
6
ByLayer
62
7
370
-1
100
AcDbLine
10
418.532859
20
346.112924
11
417.133742
21
346.112924
0
LINE
5
1F3
100
AcDbEntity
8
0
6
ByLayer
62
7
370
-1
100
AcDbLine
10
417.133742
20
346.112924
11
417.133742
21
348.312847
0
LINE
5
1F4
100
AcDbEntity
8
0
6
ByLayer
62
7
370
-1
100
AcDbLine
10
417.133742
20
348.312847
11
418.532859
21
348.312847
0
LINE
5
1F5
100
AcDbEntity
8
0
6
ByLayer
62
7
370
-1
100
AcDbLine
10
418.532859
20
348.312847
11
418.532859
21
351.056385
0
LINE
5
1F6
100
AcDbEntity
8
0
6
ByLayer
62
7
370
-1
100
AcDbLine
10
418.532859
20
351.056385
11
421.333914
21
351.056385
0
LINE
5
1F7
100
AcDbEntity
8
0
6
ByLayer
62
7
370
-1
100
AcDbLine
10
421.333914
20
351.056385
11
421.333914
21
348.313552
0
LINE
5
1F8
100
AcDbEntity
8
0
6
ByLayer
62
7
370
-1
100
AcDbLine
10
421.333914
20
348.313552
11
422.734103
21
348.313552
0
LINE
5
1F9
100
AcDbEntity
8
0
6
ByLayer
62
7
370
-1
100
AcDbLine
10
422.734103
20
348.313552
11
422.734103
21
346.11363
0
LINE
5
1FA
100
AcDbEntity
8
0
6
ByLayer
62
7
370
-1
100
AcDbLine
10
422.734103
20
346.11363
11
421.333914
21
346.11363
0
LINE
5
1FB
100
AcDbEntity
8
0
6
ByLayer
62
7
370
-1
100
AcDbLine
10
421.333914
20
346.11363
11
421.333914
21
339.148724
0
LINE
5
1FC
100
AcDbEntity
8
0
6
ByLayer
62
7
370
-1
100
AcDbLine
10
421.333914
20
339.148724
11
429.916298
21
339.148442
0
LINE
5
1FD
100
AcDbEntity
8
0
6
ByLayer
62
7
370
-1
100
AcDbLine
10
429.916298
20
339.148442
11
429.916298
21
344.748803
0
LINE
5
1FE
100
AcDbEntity
8
0
6
ByLayer
62
7
370
-1
100
AcDbLine
10
429.916298
20
344.748803
11
463.834832
21
344.748803
0
LINE
5
1FF
100
AcDbEntity
8
0
6
ByLayer
62
7
370
-1
100
AcDbLine
10
463.834832
20
344.748803
11
463.834832
21
339.148019
0
LINE
5
200
100
AcDbEntity
8
0
6
ByLayer
62
7
370
-1
100
AcDbLine
10
463.834832
20
339.148019
11
472.451415
21
339.148019
0
LINE
5
201
100
AcDbEntity
8
0
6
ByLayer
62
7
370
-1
100
AcDbLine
10
472.451415
20
339.148019
11
472.451415
21
346.112924
0
LINE
5
202
100
AcDbEntity
8
0
6
ByLayer
62
7
370
-1
100
AcDbLine
10
472.451415
20
346.112924
11
471.052298
21
346.112924
0
LINE
5
203
100
AcDbEntity
8
0
6
ByLayer
62
7
370
-1
100
AcDbLine
10
471.052298
20
346.112924
11
471.052298
21
348.312847
0
LINE
5
204
100
AcDbEntity
8
0
6
ByLayer
62
7
370
-1
100
AcDbLine
10
471.052298
20
348.312847
11
472.451415
21
348.312847
0
LINE
5
205
100
AcDbEntity
8
0
6
ByLayer
62
7
370
-1
100
AcDbLine
10
472.451415
20
348.312847
11
472.451415
21
351.056385
0
LINE
5
206
100
AcDbEntity
8
0
6
ByLayer
62
7
370
-1
100
AcDbLine
10
472.451415
20
351.056385
11
475.25247
21
351.056385
0
LINE
5
207
100
AcDbEntity
8
0
6
ByLayer
62
7
370
-1
100
AcDbLine
10
475.25247
20
351.056385
11
475.25247
21
348.313552
0
LINE
5
208
100
AcDbEntity
8
0
6
ByLayer
62
7
370
-1
100
AcDbLine
10
475.25247
20
348.313552
11
476.652659
21
348.313552
0
LINE
5
209
100
AcDbEntity
8
0
6
ByLayer
62
7
370
-1
100
AcDbLine
10
476.652659
20
348.313552
11
476.652659
21
346.11363
0
LINE
5
20A
100
AcDbEntity
8
0
6
ByLayer
62
7
370
-1
100
AcDbLine
10
476.652659
20
346.11363
11
475.25247
21
346.11363
0
LINE
5
20B
100
AcDbEntity
8
0
6
ByLayer
62
7
370
-1
100
AcDbLine
10
475.25247
20
346.11363
11
475.25247
21
339.148724
0
LINE
5
20C
100
AcDbEntity
8
0
6
ByLayer
62
7
370
-1
100
AcDbLine
10
475.25247
20
339.148724
11
483.834854
21
339.148442
0
LINE
5
20D
100
AcDbEntity
8
0
6
ByLayer
62
7
370
-1
100
AcDbLine
10
483.834854
20
339.148442
11
483.834854
21
344.748803
0
LINE
5
20E
100
AcDbEntity
8
0
6
ByLayer
62
7
370
-1
100
AcDbLine
10
483.834854
20
344.748803
11
531.348009
21
344.748803
0
LINE
5
20F
100
AcDbEntity
8
0
6
ByLayer
62
7
370
-1
100
AcDbLine
10
531.348009
20
344.748803
11
531.348009
21
339.149147
0
LINE
5
210
100
AcDbEntity
8
0
6
ByLayer
62
7
370
-1
100
AcDbLine
10
531.348009
20
339.149147
11
539.946982
21
339.149147
0
LINE
5
211
100
AcDbEntity
8
0
6
ByLayer
62
7
370
-1
100
AcDbLine
10
539.946982
20
339.149147
11
539.946982
21
346.113686
0
LINE
5
212
100
AcDbEntity
8
0
6
ByLayer
62
7
370
-1
100
AcDbLine
10
539.946982
20
346.113686
11
538.547526
21
346.113686
0
LINE
5
213
100
AcDbEntity
8
0
6
ByLayer
62
7
370
-1
100
AcDbLine
10
538.547526
20
346.113686
11
538.547526
21
348.314314
0
LINE
5
214
100
AcDbEntity
8
0
6
ByLayer
62
7
370
-1
100
AcDbLine
10
538.547526
20
348.314314
11
539.946982
21
348.314314
0
LINE
5
215
100
AcDbEntity
8
0
6
ByLayer
62
7
370
-1
100
AcDbLine
10
539.946982
20
348.314314
11
539.946982
21
351.05647
0
LINE
5
216
100
AcDbEntity
8
0
6
ByLayer
62
7
370
-1
100
AcDbLine
10
539.946982
20
351.05647
11
542.747698
21
351.05647
0
LINE
5
217
100
AcDbEntity
8
0
6
ByLayer
62
7
370
-1
100
AcDbLine
10
542.747698
20
351.05647
11
542.747698
21
348.314314
0
LINE
5
218
100
AcDbEntity
8
0
6
ByLayer
62
7
370
-1
100
AcDbLine
10
542.747698
20
348.314314
11
544.147154
21
348.314314
0
LINE
5
219
100
AcDbEntity
8
0
6
ByLayer
62
7
370
-1
100
AcDbLine
10
544.147154
20
348.314314
11
544.147154
21
346.113686
0
LINE
5
21A
100
AcDbEntity
8
0
6
ByLayer
62
7
370
-1
100
AcDbLine
10
544.147154
20
346.113686
11
542.747698
21
346.113686
0
LINE
5
21B
100
AcDbEntity
8
0
6
ByLayer
62
7
370
-1
100
AcDbLine
10
542.747698
20
346.113686
11
542.747698
21
339.149147
0
LINE
5
21C
100
AcDbEntity
8
0
6
ByLayer
62
7
370
-1
100
AcDbLine
10
542.747698
20
339.149147
11
551.347348
21
339.149147
0
LINE
5
21D
100
AcDbEntity
8
0
6
ByLayer
62
7
370
-1
100
AcDbLine
10
551.347348
20
339.149147
11
551.347348
21
344.748803
0
LINE
5
21E
100
AcDbEntity
8
0
6
ByLayer
62
7
370
-1
100
AcDbLine
10
551.347348
20
344.748803
11
598.86087
21
344.748803
0
LINE
5
21F
100
AcDbEntity
8
0
6
ByLayer
62
7
370
-1
100
AcDbLine
10
598.86087
20
344.748803
11
598.86087
21
339.149147
0
LINE
5
220
100
AcDbEntity
8
0
6
ByLayer
62
7
370
-1
100
AcDbLine
10
598.86087
20
339.149147
11
604.477798
21
339.149147
0
LINE
5
221
100
AcDbEntity
8
0
6
ByLayer
62
7
370
-1
100
AcDbLine
10
604.477798
20
339.149147
11
604.477798
21
346.113686
0
LINE
5
222
100
AcDbEntity
8
0
6
ByLayer
62
7
370
-1
100
AcDbLine
10
604.477798
20
346.113686
11
603.078343
21
346.113686
0
LINE
5
223
100
AcDbEntity
8
0
6
ByLayer
62
7
370
-1
100
AcDbLine
10
603.078343
20
346.113686
11
603.078343
21
348.314314
0
LINE
5
224
100
AcDbEntity
8
0
6
ByLayer
62
7
370
-1
100
AcDbLine
10
603.078343
20
348.314314
11
604.477798
21
348.314314
0
LINE
5
225
100
AcDbEntity
8
0
6
ByLayer
62
7
370
-1
100
AcDbLine
10
604.477798
20
348.314314
11
604.477798
21
351.05647
0
LINE
5
226
100
AcDbEntity
8
0
6
ByLayer
62
7
370
-1
100
AcDbLine
10
604.477798
20
351.05647
11
607.278487
21
351.05647
0
LINE
5
227
100
AcDbEntity
8
0
6
ByLayer
62
7
370
-1
100
AcDbLine
10
607.278487
20
351.05647
11
607.278487
21
348.314314
0
LINE
5
228
100
AcDbEntity
8
0
6
ByLayer
62
7
370
-1
100
AcDbLine
10
607.278487
20
348.314314
11
608.678676
21
348.314314
0
LINE
5
229
100
AcDbEntity
8
0
6
ByLayer
62
7
370
-1
100
AcDbLine
10
608.678676
20
348.314314
11
608.678676
21
346.113686
0
LINE
5
22A
100
AcDbEntity
8
0
6
ByLayer
62
7
370
-1
100
AcDbLine
10
608.678676
20
346.113686
11
607.278487
21
346.113686
0
LINE
5
22B
100
AcDbEntity
8
0
6
ByLayer
62
7
370
-1
100
AcDbLine
10
607.278487
20
346.113686
11
607.278487
21
339.149147
0
SPLINE
5
22C
100
AcDbEntity
8
0
6
ByLayer
62
7
370
-1
100
AcDbSpline
210
0
220
0
230
1
70
8
71
3
72
8
73
4
74
0
42
1e-007
43
1e-007
40
0
40
0
40
0
40
0
40
1
40
1
40
1
40
1
10
619.86087
20
294.149147
30
0
10
619.859916
20
293.27628
30
0
10
620.093483
20
292.404596
30
0
10
620.530743
20
291.649147
30
0
0
SPLINE
5
22D
100
AcDbEntity
8
0
6
ByLayer
62
7
370
-1
100
AcDbSpline
210
0
220
0
230
1
70
8
71
3
72
8
73
4
74
0
42
1e-007
43
1e-007
40
0
40
0
40
0
40
0
40
1
40
1
40
1
40
1
10
620.530743
20
291.649147
30
0
10
620.96635
20
290.892745
30
0
10
621.604467
20
290.254628
30
0
10
622.36087
20
289.81902
30
0
0
SPLINE
5
22E
100
AcDbEntity
8
0
6
ByLayer
62
7
370
-1
100
AcDbSpline
210
0
220
0
230
1
70
8
71
3
72
8
73
4
74
0
42
1e-007
43
1e-007
40
0
40
0
40
0
40
0
40
1
40
1
40
1
40
1
10
622.36087
20
289.81902
30
0
10
623.116318
20
289.381761
30
0
10
623.988002
20
289.148193
30
0
10
624.86087
20
289.149147
30
0
0
SPLINE
5
22F
100
AcDbEntity
8
0
6
ByLayer
62
7
370
-1
100
AcDbSpline
210
0
220
0
230
1
70
8
71
3
72
8
73
4
74
0
42
1e-007
43
1e-007
40
0
40
0
40
0
40
0
40
1
40
1
40
1
40
1
10
624.86087
20
535.124387
30
0
10
623.988002
20
535.125341
30
0
10
623.116318
20
534.891774
30
0
10
622.36087
20
534.454514
30
0
0
SPLINE
5
230
100
AcDbEntity
8
0
6
ByLayer
62
7
370
-1
100
AcDbSpline
210
0
220
0
230
1
70
8
71
3
72
8
73
4
74
0
42
1e-007
43
1e-007
40
0
40
0
40
0
40
0
40
1
40
1
40
1
40
1
10
622.36087
20
534.454514
30
0
10
621.604467
20
534.018906
30
0
10
620.96635
20
533.380789
30
0
10
620.530743
20
532.624387
30
0
0
SPLINE
5
231
100
AcDbEntity
8
0
6
ByLayer
62
7
370
-1
100
AcDbSpline
210
0
220
0
230
1
70
8
71
3
72
8
73
4
74
0
42
1e-007
43
1e-007
40
0
40
0
40
0
40
0
40
1
40
1
40
1
40
1
10
620.530743
20
532.624387
30
0
10
620.093483
20
531.868939
30
0
10
619.859916
20
530.997254
30
0
10
619.86087
20
530.124387
30
0
0
SPLINE
5
232
100
AcDbEntity
8
0
6
ByLayer
62
256
370
-1
100
AcDbSpline
210
0
220
0
230
1
70
8
71
3
72
8
73
4
74
0
42
1e-007
43
1e-007
40
0
40
0
40
0
40
0
40
1
40
1
40
1
40
1
10
694.36087
20
402.136767
30
0
10
694.360583
20
401.874907
30
0
10
694.430654
20
401.613402
30
0
10
694.561831
20
401.386767
30
0
0
SPLINE
5
233
100
AcDbEntity
8
0
6
ByLayer
62
256
370
-1
100
AcDbSpline
210
0
220
0
230
1
70
8
71
3
72
8
73
4
74
0
42
1e-007
43
1e-007
40
0
40
0
40
0
40
0
40
1
40
1
40
1
40
1
10
694.561831
20
401.386767
30
0
10
694.692514
20
401.159846
30
0
10
694.883949
20
400.968411
30
0
10
695.11087
20
400.837729
30
0
0
SPLINE
5
234
100
AcDbEntity
8
0
6
ByLayer
62
256
370
-1
100
AcDbSpline
210
0
220
0
230
1
70
8
71
3
72
8
73
4
74
0
42
1e-007
43
1e-007
40
0
40
0
40
0
40
0
40
1
40
1
40
1
40
1
10
695.11087
20
400.837729
30
0
10
695.337504
20
400.706551
30
0
10
695.599009
20
400.636481
30
0
10
695.86087
20
400.636767
30
0
0
SPLINE
5
235
100
AcDbEntity
8
0
6
ByLayer
62
256
370
-1
100
AcDbSpline
210
0
220
0
230
1
70
8
71
3
72
8
73
4
74
0
42
1e-007
43
1e-007
40
0
40
0
40
0
40
0
40
1
40
1
40
1
40
1
10
695.86087
20
400.636767
30
0
10
696.12273
20
400.636481
30
0
10
696.384235
20
400.706551
30
0
10
696.61087
20
400.837729
30
0
0
SPLINE
5
236
100
AcDbEntity
8
0
6
ByLayer
62
256
370
-1
100
AcDbSpline
210
0
220
0
230
1
70
8
71
3
72
8
73
4
74
0
42
1e-007
43
1e-007
40
0
40
0
40
0
40
0
40
1
40
1
40
1
40
1
10
696.61087
20
400.837729
30
0
10
696.83779
20
400.968411
30
0
10
697.029225
20
401.159846
30
0
10
697.159908
20
401.386767
30
0
0
SPLINE
5
237
100
AcDbEntity
8
0
6
ByLayer
62
256
370
-1
100
AcDbSpline
210
0
220
0
230
1
70
8
71
3
72
8
73
4
74
0
42
1e-007
43
1e-007
40
0
40
0
40
0
40
0
40
1
40
1
40
1
40
1
10
697.159908
20
401.386767
30
0
10
697.291086
20
401.613402
30
0
10
697.361156
20
401.874907
30
0
10
697.36087
20
402.136767
30
0
0
SPLINE
5
238
100
AcDbEntity
8
0
6
ByLayer
62
256
370
-1
100
AcDbSpline
210
0
220
0
230
1
70
8
71
3
72
8
73
4
74
0
42
1e-007
43
1e-007
40
0
40
0
40
0
40
0
40
1
40
1
40
1
40
1
10
697.36087
20
402.136767
30
0
10
697.361156
20
402.398627
30
0
10
697.291086
20
402.660133
30
0
10
697.159908
20
402.886767
30
0
0
SPLINE
5
239
100
AcDbEntity
8
0
6
ByLayer
62
256
370
-1
100
AcDbSpline
210
0
220
0
230
1
70
8
71
3
72
8
73
4
74
0
42
1e-007
43
1e-007
40
0
40
0
40
0
40
0
40
1
40
1
40
1
40
1
10
697.159908
20
402.886767
30
0
10
697.029225
20
403.113688
30
0
10
696.83779
20
403.305123
30
0
10
696.61087
20
403.435805
30
0
0
SPLINE
5
23A
100
AcDbEntity
8
0
6
ByLayer
62
256
370
-1
100
AcDbSpline
210
0
220
0
230
1
70
8
71
3
72
8
73
4
74
0
42
1e-007
43
1e-007
40
0
40
0
40
0
40
0
40
1
40
1
40
1
40
1
10
696.61087
20
403.435805
30
0
10
696.384235
20
403.566983
30
0
10
696.12273
20
403.637053
30
0
10
695.86087
20
403.636767
30
0
0
SPLINE
5
23B
100
AcDbEntity
8
0
6
ByLayer
62
256
370
-1
100
AcDbSpline
210
0
220
0
230
1
70
8
71
3
72
8
73
4
74
0
42
1e-007
43
1e-007
40
0
40
0
40
0
40
0
40
1
40
1
40
1
40
1
10
695.86087
20
403.636767
30
0
10
695.599009
20
403.637053
30
0
10
695.337504
20
403.566983
30
0
10
695.11087
20
403.435805
30
0
0
SPLINE
5
23C
100
AcDbEntity
8
0
6
ByLayer
62
256
370
-1
100
AcDbSpline
210
0
220
0
230
1
70
8
71
3
72
8
73
4
74
0
42
1e-007
43
1e-007
40
0
40
0
40
0
40
0
40
1
40
1
40
1
40
1
10
695.11087
20
403.435805
30
0
10
694.883949
20
403.305123
30
0
10
694.692514
20
403.113688
30
0
10
694.561831
20
402.886767
30
0
0
SPLINE
5
23D
100
AcDbEntity
8
0
6
ByLayer
62
256
370
-1
100
AcDbSpline
210
0
220
0
230
1
70
8
71
3
72
8
73
4
74
0
42
1e-007
43
1e-007
40
0
40
0
40
0
40
0
40
1
40
1
40
1
40
1
10
694.561831
20
402.886767
30
0
10
694.430654
20
402.660133
30
0
10
694.360583
20
402.398627
30
0
10
694.36087
20
402.136767
30
0
0
SPLINE
5
23E
100
AcDbEntity
8
0
6
ByLayer
62
256
370
-1
100
AcDbSpline
210
0
220
0
230
1
70
8
71
3
72
8
73
4
74
0
42
1e-007
43
1e-007
40
0
40
0
40
0
40
0
40
1
40
1
40
1
40
1
10
694.36087
20
422.136767
30
0
10
694.360583
20
421.874907
30
0
10
694.430654
20
421.613402
30
0
10
694.561831
20
421.386767
30
0
0
SPLINE
5
23F
100
AcDbEntity
8
0
6
ByLayer
62
256
370
-1
100
AcDbSpline
210
0
220
0
230
1
70
8
71
3
72
8
73
4
74
0
42
1e-007
43
1e-007
40
0
40
0
40
0
40
0
40
1
40
1
40
1
40
1
10
694.561831
20
421.386767
30
0
10
694.692514
20
421.159846
30
0
10
694.883949
20
420.968411
30
0
10
695.11087
20
420.837729
30
0
0
SPLINE
5
240
100
AcDbEntity
8
0
6
ByLayer
62
256
370
-1
100
AcDbSpline
210
0
220
0
230
1
70
8
71
3
72
8
73
4
74
0
42
1e-007
43
1e-007
40
0
40
0
40
0
40
0
40
1
40
1
40
1
40
1
10
695.11087
20
420.837729
30
0
10
695.337504
20
420.706551
30
0
10
695.599009
20
420.636481
30
0
10
695.86087
20
420.636767
30
0
0
SPLINE
5
241
100
AcDbEntity
8
0
6
ByLayer
62
256
370
-1
100
AcDbSpline
210
0
220
0
230
1
70
8
71
3
72
8
73
4
74
0
42
1e-007
43
1e-007
40
0
40
0
40
0
40
0
40
1
40
1
40
1
40
1
10
695.86087
20
420.636767
30
0
10
696.12273
20
420.636481
30
0
10
696.384235
20
420.706551
30
0
10
696.61087
20
420.837729
30
0
0
SPLINE
5
242
100
AcDbEntity
8
0
6
ByLayer
62
256
370
-1
100
AcDbSpline
210
0
220
0
230
1
70
8
71
3
72
8
73
4
74
0
42
1e-007
43
1e-007
40
0
40
0
40
0
40
0
40
1
40
1
40
1
40
1
10
696.61087
20
420.837729
30
0
10
696.83779
20
420.968411
30
0
10
697.029225
20
421.159846
30
0
10
697.159908
20
421.386767
30
0
0
SPLINE
5
243
100
AcDbEntity
8
0
6
ByLayer
62
256
370
-1
100
AcDbSpline
210
0
220
0
230
1
70
8
71
3
72
8
73
4
74
0
42
1e-007
43
1e-007
40
0
40
0
40
0
40
0
40
1
40
1
40
1
40
1
10
697.159908
20
421.386767
30
0
10
697.291086
20
421.613402
30
0
10
697.361156
20
421.874907
30
0
10
697.36087
20
422.136767
30
0
0
SPLINE
5
244
100
AcDbEntity
8
0
6
ByLayer
62
256
370
-1
100
AcDbSpline
210
0
220
0
230
1
70
8
71
3
72
8
73
4
74
0
42
1e-007
43
1e-007
40
0
40
0
40
0
40
0
40
1
40
1
40
1
40
1
10
697.36087
20
422.136767
30
0
10
697.361156
20
422.398627
30
0
10
697.291086
20
422.660133
30
0
10
697.159908
20
422.886767
30
0
0
SPLINE
5
245
100
AcDbEntity
8
0
6
ByLayer
62
256
370
-1
100
AcDbSpline
210
0
220
0
230
1
70
8
71
3
72
8
73
4
74
0
42
1e-007
43
1e-007
40
0
40
0
40
0
40
0
40
1
40
1
40
1
40
1
10
697.159908
20
422.886767
30
0
10
697.029225
20
423.113688
30
0
10
696.83779
20
423.305123
30
0
10
696.61087
20
423.435805
30
0
0
SPLINE
5
246
100
AcDbEntity
8
0
6
ByLayer
62
256
370
-1
100
AcDbSpline
210
0
220
0
230
1
70
8
71
3
72
8
73
4
74
0
42
1e-007
43
1e-007
40
0
40
0
40
0
40
0
40
1
40
1
40
1
40
1
10
696.61087
20
423.435805
30
0
10
696.384235
20
423.566983
30
0
10
696.12273
20
423.637053
30
0
10
695.86087
20
423.636767
30
0
0
SPLINE
5
247
100
AcDbEntity
8
0
6
ByLayer
62
256
370
-1
100
AcDbSpline
210
0
220
0
230
1
70
8
71
3
72
8
73
4
74
0
42
1e-007
43
1e-007
40
0
40
0
40
0
40
0
40
1
40
1
40
1
40
1
10
695.86087
20
423.636767
30
0
10
695.599009
20
423.637053
30
0
10
695.337504
20
423.566983
30
0
10
695.11087
20
423.435805
30
0
0
SPLINE
5
248
100
AcDbEntity
8
0
6
ByLayer
62
256
370
-1
100
AcDbSpline
210
0
220
0
230
1
70
8
71
3
72
8
73
4
74
0
42
1e-007
43
1e-007
40
0
40
0
40
0
40
0
40
1
40
1
40
1
40
1
10
695.11087
20
423.435805
30
0
10
694.883949
20
423.305123
30
0
10
694.692514
20
423.113688
30
0
10
694.561831
20
422.886767
30
0
0
SPLINE
5
249
100
AcDbEntity
8
0
6
ByLayer
62
256
370
-1
100
AcDbSpline
210
0
220
0
230
1
70
8
71
3
72
8
73
4
74
0
42
1e-007
43
1e-007
40
0
40
0
40
0
40
0
40
1
40
1
40
1
40
1
10
694.561831
20
422.886767
30
0
10
694.430654
20
422.660133
30
0
10
694.360583
20
422.398627
30
0
10
694.36087
20
422.136767
30
0
0
SPLINE
5
24A
100
AcDbEntity
8
0
6
ByLayer
62
256
370
-1
100
AcDbSpline
210
0
220
0
230
1
70
8
71
3
72
8
73
4
74
0
42
1e-007
43
1e-007
40
0
40
0
40
0
40
0
40
1
40
1
40
1
40
1
10
458.357083
20
402.135681
30
0
10
458.356797
20
401.87382
30
0
10
458.426867
20
401.612315
30
0
10
458.558045
20
401.385681
30
0
0
SPLINE
5
24B
100
AcDbEntity
8
0
6
ByLayer
62
256
370
-1
100
AcDbSpline
210
0
220
0
230
1
70
8
71
3
72
8
73
4
74
0
42
1e-007
43
1e-007
40
0
40
0
40
0
40
0
40
1
40
1
40
1
40
1
10
458.558045
20
401.385681
30
0
10
458.688727
20
401.15876
30
0
10
458.880162
20
400.967325
30
0
10
459.107083
20
400.836643
30
0
0
SPLINE
5
24C
100
AcDbEntity
8
0
6
ByLayer
62
256
370
-1
100
AcDbSpline
210
0
220
0
230
1
70
8
71
3
72
8
73
4
74
0
42
1e-007
43
1e-007
40
0
40
0
40
0
40
0
40
1
40
1
40
1
40
1
10
459.107083
20
400.836643
30
0
10
459.333718
20
400.705465
30
0
10
459.595223
20
400.635395
30
0
10
459.857083
20
400.635681
30
0
0
SPLINE
5
24D
100
AcDbEntity
8
0
6
ByLayer
62
256
370
-1
100
AcDbSpline
210
0
220
0
230
1
70
8
71
3
72
8
73
4
74
0
42
1e-007
43
1e-007
40
0
40
0
40
0
40
0
40
1
40
1
40
1
40
1
10
459.857083
20
400.635681
30
0
10
460.118943
20
400.635395
30
0
10
460.380449
20
400.705465
30
0
10
460.607083
20
400.836643
30
0
0
SPLINE
5
24E
100
AcDbEntity
8
0
6
ByLayer
62
256
370
-1
100
AcDbSpline
210
0
220
0
230
1
70
8
71
3
72
8
73
4
74
0
42
1e-007
43
1e-007
40
0
40
0
40
0
40
0
40
1
40
1
40
1
40
1
10
460.607083
20
400.836643
30
0
10
460.834004
20
400.967325
30
0
10
461.025439
20
401.15876
30
0
10
461.156121
20
401.385681
30
0
0
SPLINE
5
24F
100
AcDbEntity
8
0
6
ByLayer
62
256
370
-1
100
AcDbSpline
210
0
220
0
230
1
70
8
71
3
72
8
73
4
74
0
42
1e-007
43
1e-007
40
0
40
0
40
0
40
0
40
1
40
1
40
1
40
1
10
461.156121
20
401.385681
30
0
10
461.287299
20
401.612315
30
0
10
461.357369
20
401.87382
30
0
10
461.357083
20
402.135681
30
0
0
SPLINE
5
250
100
AcDbEntity
8
0
6
ByLayer
62
256
370
-1
100
AcDbSpline
210
0
220
0
230
1
70
8
71
3
72
8
73
4
74
0
42
1e-007
43
1e-007
40
0
40
0
40
0
40
0
40
1
40
1
40
1
40
1
10
461.357083
20
402.135681
30
0
10
461.357369
20
402.397541
30
0
10
461.287299
20
402.659046
30
0
10
461.156121
20
402.885681
30
0
0
SPLINE
5
251
100
AcDbEntity
8
0
6
ByLayer
62
256
370
-1
100
AcDbSpline
210
0
220
0
230
1
70
8
71
3
72
8
73
4
74
0
42
1e-007
43
1e-007
40
0
40
0
40
0
40
0
40
1
40
1
40
1
40
1
10
461.156121
20
402.885681
30
0
10
461.025439
20
403.112601
30
0
10
460.834004
20
403.304036
30
0
10
460.607083
20
403.434719
30
0
0
SPLINE
5
252
100
AcDbEntity
8
0
6
ByLayer
62
256
370
-1
100
AcDbSpline
210
0
220
0
230
1
70
8
71
3
72
8
73
4
74
0
42
1e-007
43
1e-007
40
0
40
0
40
0
40
0
40
1
40
1
40
1
40
1
10
460.607083
20
403.434719
30
0
10
460.380449
20
403.565897
30
0
10
460.118943
20
403.635967
30
0
10
459.857083
20
403.635681
30
0
0
SPLINE
5
253
100
AcDbEntity
8
0
6
ByLayer
62
256
370
-1
100
AcDbSpline
210
0
220
0
230
1
70
8
71
3
72
8
73
4
74
0
42
1e-007
43
1e-007
40
0
40
0
40
0
40
0
40
1
40
1
40
1
40
1
10
459.857083
20
403.635681
30
0
10
459.595223
20
403.635967
30
0
10
459.333718
20
403.565897
30
0
10
459.107083
20
403.434719
30
0
0
SPLINE
5
254
100
AcDbEntity
8
0
6
ByLayer
62
256
370
-1
100
AcDbSpline
210
0
220
0
230
1
70
8
71
3
72
8
73
4
74
0
42
1e-007
43
1e-007
40
0
40
0
40
0
40
0
40
1
40
1
40
1
40
1
10
459.107083
20
403.434719
30
0
10
458.880162
20
403.304036
30
0
10
458.688727
20
403.112601
30
0
10
458.558045
20
402.885681
30
0
0
SPLINE
5
255
100
AcDbEntity
8
0
6
ByLayer
62
256
370
-1
100
AcDbSpline
210
0
220
0
230
1
70
8
71
3
72
8
73
4
74
0
42
1e-007
43
1e-007
40
0
40
0
40
0
40
0
40
1
40
1
40
1
40
1
10
458.558045
20
402.885681
30
0
10
458.426867
20
402.659046
30
0
10
458.356797
20
402.397541
30
0
10
458.357083
20
402.135681
30
0
0
SPLINE
5
256
100
AcDbEntity
8
0
6
ByLayer
62
256
370
-1
100
AcDbSpline
210
0
220
0
230
1
70
8
71
3
72
8
73
4
74
0
42
1e-007
43
1e-007
40
0
40
0
40
0
40
0
40
1
40
1
40
1
40
1
10
458.357083
20
422.135681
30
0
10
458.356797
20
421.87382
30
0
10
458.426867
20
421.612315
30
0
10
458.558045
20
421.385681
30
0
0
SPLINE
5
257
100
AcDbEntity
8
0
6
ByLayer
62
256
370
-1
100
AcDbSpline
210
0
220
0
230
1
70
8
71
3
72
8
73
4
74
0
42
1e-007
43
1e-007
40
0
40
0
40
0
40
0
40
1
40
1
40
1
40
1
10
458.558045
20
421.385681
30
0
10
458.688727
20
421.15876
30
0
10
458.880162
20
420.967325
30
0
10
459.107083
20
420.836643
30
0
0
SPLINE
5
258
100
AcDbEntity
8
0
6
ByLayer
62
256
370
-1
100
AcDbSpline
210
0
220
0
230
1
70
8
71
3
72
8
73
4
74
0
42
1e-007
43
1e-007
40
0
40
0
40
0
40
0
40
1
40
1
40
1
40
1
10
459.107083
20
420.836643
30
0
10
459.333718
20
420.705465
30
0
10
459.595223
20
420.635395
30
0
10
459.857083
20
420.635681
30
0
0
SPLINE
5
259
100
AcDbEntity
8
0
6
ByLayer
62
256
370
-1
100
AcDbSpline
210
0
220
0
230
1
70
8
71
3
72
8
73
4
74
0
42
1e-007
43
1e-007
40
0
40
0
40
0
40
0
40
1
40
1
40
1
40
1
10
459.857083
20
420.635681
30
0
10
460.118943
20
420.635395
30
0
10
460.380449
20
420.705465
30
0
10
460.607083
20
420.836643
30
0
0
SPLINE
5
25A
100
AcDbEntity
8
0
6
ByLayer
62
256
370
-1
100
AcDbSpline
210
0
220
0
230
1
70
8
71
3
72
8
73
4
74
0
42
1e-007
43
1e-007
40
0
40
0
40
0
40
0
40
1
40
1
40
1
40
1
10
460.607083
20
420.836643
30
0
10
460.834004
20
420.967325
30
0
10
461.025439
20
421.15876
30
0
10
461.156121
20
421.385681
30
0
0
SPLINE
5
25B
100
AcDbEntity
8
0
6
ByLayer
62
256
370
-1
100
AcDbSpline
210
0
220
0
230
1
70
8
71
3
72
8
73
4
74
0
42
1e-007
43
1e-007
40
0
40
0
40
0
40
0
40
1
40
1
40
1
40
1
10
461.156121
20
421.385681
30
0
10
461.287299
20
421.612315
30
0
10
461.357369
20
421.87382
30
0
10
461.357083
20
422.135681
30
0
0
SPLINE
5
25C
100
AcDbEntity
8
0
6
ByLayer
62
256
370
-1
100
AcDbSpline
210
0
220
0
230
1
70
8
71
3
72
8
73
4
74
0
42
1e-007
43
1e-007
40
0
40
0
40
0
40
0
40
1
40
1
40
1
40
1
10
461.357083
20
422.135681
30
0
10
461.357369
20
422.397541
30
0
10
461.287299
20
422.659046
30
0
10
461.156121
20
422.885681
30
0
0
SPLINE
5
25D
100
AcDbEntity
8
0
6
ByLayer
62
256
370
-1
100
AcDbSpline
210
0
220
0
230
1
70
8
71
3
72
8
73
4
74
0
42
1e-007
43
1e-007
40
0
40
0
40
0
40
0
40
1
40
1
40
1
40
1
10
461.156121
20
422.885681
30
0
10
461.025439
20
423.112601
30
0
10
460.834004
20
423.304036
30
0
10
460.607083
20
423.434719
30
0
0
SPLINE
5
25E
100
AcDbEntity
8
0
6
ByLayer
62
256
370
-1
100
AcDbSpline
210
0
220
0
230
1
70
8
71
3
72
8
73
4
74
0
42
1e-007
43
1e-007
40
0
40
0
40
0
40
0
40
1
40
1
40
1
40
1
10
460.607083
20
423.434719
30
0
10
460.380449
20
423.565897
30
0
10
460.118943
20
423.635967
30
0
10
459.857083
20
423.635681
30
0
0
SPLINE
5
25F
100
AcDbEntity
8
0
6
ByLayer
62
256
370
-1
100
AcDbSpline
210
0
220
0
230
1
70
8
71
3
72
8
73
4
74
0
42
1e-007
43
1e-007
40
0
40
0
40
0
40
0
40
1
40
1
40
1
40
1
10
459.857083
20
423.635681
30
0
10
459.595223
20
423.635967
30
0
10
459.333718
20
423.565897
30
0
10
459.107083
20
423.434719
30
0
0
SPLINE
5
260
100
AcDbEntity
8
0
6
ByLayer
62
256
370
-1
100
AcDbSpline
210
0
220
0
230
1
70
8
71
3
72
8
73
4
74
0
42
1e-007
43
1e-007
40
0
40
0
40
0
40
0
40
1
40
1
40
1
40
1
10
459.107083
20
423.434719
30
0
10
458.880162
20
423.304036
30
0
10
458.688727
20
423.112601
30
0
10
458.558045
20
422.885681
30
0
0
SPLINE
5
261
100
AcDbEntity
8
0
6
ByLayer
62
256
370
-1
100
AcDbSpline
210
0
220
0
230
1
70
8
71
3
72
8
73
4
74
0
42
1e-007
43
1e-007
40
0
40
0
40
0
40
0
40
1
40
1
40
1
40
1
10
458.558045
20
422.885681
30
0
10
458.426867
20
422.659046
30
0
10
458.356797
20
422.397541
30
0
10
458.357083
20
422.135681
30
0
0
SPLINE
5
262
100
AcDbEntity
8
0
6
ByLayer
62
256
370
-1
100
AcDbSpline
210
0
220
0
230
1
70
8
71
3
72
8
73
4
74
0
42
1e-007
43
1e-007
40
0
40
0
40
0
40
0
40
1
40
1
40
1
40
1
10
694.36087
20
294.149147
30
0
10
694.360583
20
293.887287
30
0
10
694.430654
20
293.625782
30
0
10
694.561831
20
293.399147
30
0
0
SPLINE
5
263
100
AcDbEntity
8
0
6
ByLayer
62
256
370
-1
100
AcDbSpline
210
0
220
0
230
1
70
8
71
3
72
8
73
4
74
0
42
1e-007
43
1e-007
40
0
40
0
40
0
40
0
40
1
40
1
40
1
40
1
10
694.561831
20
293.399147
30
0
10
694.692514
20
293.172226
30
0
10
694.883949
20
292.980791
30
0
10
695.11087
20
292.850109
30
0
0
SPLINE
5
264
100
AcDbEntity
8
0
6
ByLayer
62
256
370
-1
100
AcDbSpline
210
0
220
0
230
1
70
8
71
3
72
8
73
4
74
0
42
1e-007
43
1e-007
40
0
40
0
40
0
40
0
40
1
40
1
40
1
40
1
10
695.11087
20
292.850109
30
0
10
695.337504
20
292.718931
30
0
10
695.599009
20
292.648861
30
0
10
695.86087
20
292.649147
30
0
0
SPLINE
5
265
100
AcDbEntity
8
0
6
ByLayer
62
256
370
-1
100
AcDbSpline
210
0
220
0
230
1
70
8
71
3
72
8
73
4
74
0
42
1e-007
43
1e-007
40
0
40
0
40
0
40
0
40
1
40
1
40
1
40
1
10
695.86087
20
292.649147
30
0
10
696.12273
20
292.648861
30
0
10
696.384235
20
292.718931
30
0
10
696.61087
20
292.850109
30
0
0
SPLINE
5
266
100
AcDbEntity
8
0
6
ByLayer
62
256
370
-1
100
AcDbSpline
210
0
220
0
230
1
70
8
71
3
72
8
73
4
74
0
42
1e-007
43
1e-007
40
0
40
0
40
0
40
0
40
1
40
1
40
1
40
1
10
696.61087
20
292.850109
30
0
10
696.83779
20
292.980791
30
0
10
697.029225
20
293.172226
30
0
10
697.159908
20
293.399147
30
0
0
SPLINE
5
267
100
AcDbEntity
8
0
6
ByLayer
62
256
370
-1
100
AcDbSpline
210
0
220
0
230
1
70
8
71
3
72
8
73
4
74
0
42
1e-007
43
1e-007
40
0
40
0
40
0
40
0
40
1
40
1
40
1
40
1
10
697.159908
20
293.399147
30
0
10
697.291086
20
293.625782
30
0
10
697.361156
20
293.887287
30
0
10
697.36087
20
294.149147
30
0
0
SPLINE
5
268
100
AcDbEntity
8
0
6
ByLayer
62
256
370
-1
100
AcDbSpline
210
0
220
0
230
1
70
8
71
3
72
8
73
4
74
0
42
1e-007
43
1e-007
40
0
40
0
40
0
40
0
40
1
40
1
40
1
40
1
10
697.36087
20
294.149147
30
0
10
697.361156
20
294.411007
30
0
10
697.291086
20
294.672513
30
0
10
697.159908
20
294.899147
30
0
0
SPLINE
5
269
100
AcDbEntity
8
0
6
ByLayer
62
256
370
-1
100
AcDbSpline
210
0
220
0
230
1
70
8
71
3
72
8
73
4
74
0
42
1e-007
43
1e-007
40
0
40
0
40
0
40
0
40
1
40
1
40
1
40
1
10
697.159908
20
294.899147
30
0
10
697.029225
20
295.126068
30
0
10
696.83779
20
295.317503
30
0
10
696.61087
20
295.448185
30
0
0
SPLINE
5
26A
100
AcDbEntity
8
0
6
ByLayer
62
256
370
-1
100
AcDbSpline
210
0
220
0
230
1
70
8
71
3
72
8
73
4
74
0
42
1e-007
43
1e-007
40
0
40
0
40
0
40
0
40
1
40
1
40
1
40
1
10
696.61087
20
295.448185
30
0
10
696.384235
20
295.579363
30
0
10
696.12273
20
295.649433
30
0
10
695.86087
20
295.649147
30
0
0
SPLINE
5
26B
100
AcDbEntity
8
0
6
ByLayer
62
256
370
-1
100
AcDbSpline
210
0
220
0
230
1
70
8
71
3
72
8
73
4
74
0
42
1e-007
43
1e-007
40
0
40
0
40
0
40
0
40
1
40
1
40
1
40
1
10
695.86087
20
295.649147
30
0
10
695.599009
20
295.649433
30
0
10
695.337504
20
295.579363
30
0
10
695.11087
20
295.448185
30
0
0
SPLINE
5
26C
100
AcDbEntity
8
0
6
ByLayer
62
256
370
-1
100
AcDbSpline
210
0
220
0
230
1
70
8
71
3
72
8
73
4
74
0
42
1e-007
43
1e-007
40
0
40
0
40
0
40
0
40
1
40
1
40
1
40
1
10
695.11087
20
295.448185
30
0
10
694.883949
20
295.317503
30
0
10
694.692514
20
295.126068
30
0
10
694.561831
20
294.899147
30
0
0
SPLINE
5
26D
100
AcDbEntity
8
0
6
ByLayer
62
256
370
-1
100
AcDbSpline
210
0
220
0
230
1
70
8
71
3
72
8
73
4
74
0
42
1e-007
43
1e-007
40
0
40
0
40
0
40
0
40
1
40
1
40
1
40
1
10
694.561831
20
294.899147
30
0
10
694.430654
20
294.672513
30
0
10
694.360583
20
294.411007
30
0
10
694.36087
20
294.149147
30
0
0
SPLINE
5
26E
100
AcDbEntity
8
0
6
ByLayer
62
256
370
-1
100
AcDbSpline
210
0
220
0
230
1
70
8
71
3
72
8
73
4
74
0
42
1e-007
43
1e-007
40
0
40
0
40
0
40
0
40
1
40
1
40
1
40
1
10
694.36087
20
314.149147
30
0
10
694.360583
20
313.887287
30
0
10
694.430654
20
313.625782
30
0
10
694.561831
20
313.399147
30
0
0
SPLINE
5
26F
100
AcDbEntity
8
0
6
ByLayer
62
256
370
-1
100
AcDbSpline
210
0
220
0
230
1
70
8
71
3
72
8
73
4
74
0
42
1e-007
43
1e-007
40
0
40
0
40
0
40
0
40
1
40
1
40
1
40
1
10
694.561831
20
313.399147
30
0
10
694.692514
20
313.172226
30
0
10
694.883949
20
312.980791
30
0
10
695.11087
20
312.850109
30
0
0
SPLINE
5
270
100
AcDbEntity
8
0
6
ByLayer
62
256
370
-1
100
AcDbSpline
210
0
220
0
230
1
70
8
71
3
72
8
73
4
74
0
42
1e-007
43
1e-007
40
0
40
0
40
0
40
0
40
1
40
1
40
1
40
1
10
695.11087
20
312.850109
30
0
10
695.337504
20
312.718931
30
0
10
695.599009
20
312.648861
30
0
10
695.86087
20
312.649147
30
0
0
SPLINE
5
271
100
AcDbEntity
8
0
6
ByLayer
62
256
370
-1
100
AcDbSpline
210
0
220
0
230
1
70
8
71
3
72
8
73
4
74
0
42
1e-007
43
1e-007
40
0
40
0
40
0
40
0
40
1
40
1
40
1
40
1
10
695.86087
20
312.649147
30
0
10
696.12273
20
312.648861
30
0
10
696.384235
20
312.718931
30
0
10
696.61087
20
312.850109
30
0
0
SPLINE
5
272
100
AcDbEntity
8
0
6
ByLayer
62
256
370
-1
100
AcDbSpline
210
0
220
0
230
1
70
8
71
3
72
8
73
4
74
0
42
1e-007
43
1e-007
40
0
40
0
40
0
40
0
40
1
40
1
40
1
40
1
10
696.61087
20
312.850109
30
0
10
696.83779
20
312.980791
30
0
10
697.029225
20
313.172226
30
0
10
697.159908
20
313.399147
30
0
0
SPLINE
5
273
100
AcDbEntity
8
0
6
ByLayer
62
256
370
-1
100
AcDbSpline
210
0
220
0
230
1
70
8
71
3
72
8
73
4
74
0
42
1e-007
43
1e-007
40
0
40
0
40
0
40
0
40
1
40
1
40
1
40
1
10
697.159908
20
313.399147
30
0
10
697.291086
20
313.625782
30
0
10
697.361156
20
313.887287
30
0
10
697.36087
20
314.149147
30
0
0
SPLINE
5
274
100
AcDbEntity
8
0
6
ByLayer
62
256
370
-1
100
AcDbSpline
210
0
220
0
230
1
70
8
71
3
72
8
73
4
74
0
42
1e-007
43
1e-007
40
0
40
0
40
0
40
0
40
1
40
1
40
1
40
1
10
697.36087
20
314.149147
30
0
10
697.361156
20
314.411007
30
0
10
697.291086
20
314.672513
30
0
10
697.159908
20
314.899147
30
0
0
SPLINE
5
275
100
AcDbEntity
8
0
6
ByLayer
62
256
370
-1
100
AcDbSpline
210
0
220
0
230
1
70
8
71
3
72
8
73
4
74
0
42
1e-007
43
1e-007
40
0
40
0
40
0
40
0
40
1
40
1
40
1
40
1
10
697.159908
20
314.899147
30
0
10
697.029225
20
315.126068
30
0
10
696.83779
20
315.317503
30
0
10
696.61087
20
315.448185
30
0
0
SPLINE
5
276
100
AcDbEntity
8
0
6
ByLayer
62
256
370
-1
100
AcDbSpline
210
0
220
0
230
1
70
8
71
3
72
8
73
4
74
0
42
1e-007
43
1e-007
40
0
40
0
40
0
40
0
40
1
40
1
40
1
40
1
10
696.61087
20
315.448185
30
0
10
696.384235
20
315.579363
30
0
10
696.12273
20
315.649433
30
0
10
695.86087
20
315.649147
30
0
0
SPLINE
5
277
100
AcDbEntity
8
0
6
ByLayer
62
256
370
-1
100
AcDbSpline
210
0
220
0
230
1
70
8
71
3
72
8
73
4
74
0
42
1e-007
43
1e-007
40
0
40
0
40
0
40
0
40
1
40
1
40
1
40
1
10
695.86087
20
315.649147
30
0
10
695.599009
20
315.649433
30
0
10
695.337504
20
315.579363
30
0
10
695.11087
20
315.448185
30
0
0
SPLINE
5
278
100
AcDbEntity
8
0
6
ByLayer
62
256
370
-1
100
AcDbSpline
210
0
220
0
230
1
70
8
71
3
72
8
73
4
74
0
42
1e-007
43
1e-007
40
0
40
0
40
0
40
0
40
1
40
1
40
1
40
1
10
695.11087
20
315.448185
30
0
10
694.883949
20
315.317503
30
0
10
694.692514
20
315.126068
30
0
10
694.561831
20
314.899147
30
0
0
SPLINE
5
279
100
AcDbEntity
8
0
6
ByLayer
62
256
370
-1
100
AcDbSpline
210
0
220
0
230
1
70
8
71
3
72
8
73
4
74
0
42
1e-007
43
1e-007
40
0
40
0
40
0
40
0
40
1
40
1
40
1
40
1
10
694.561831
20
314.899147
30
0
10
694.430654
20
314.672513
30
0
10
694.360583
20
314.411007
30
0
10
694.36087
20
314.149147
30
0
0
SPLINE
5
27A
100
AcDbEntity
8
0
6
ByLayer
62
256
370
-1
100
AcDbSpline
210
0
220
0
230
1
70
8
71
3
72
8
73
4
74
0
42
1e-007
43
1e-007
40
0
40
0
40
0
40
0
40
1
40
1
40
1
40
1
10
694.36087
20
510.124387
30
0
10
694.360583
20
509.862527
30
0
10
694.430654
20
509.601022
30
0
10
694.561831
20
509.374387
30
0
0
SPLINE
5
27B
100
AcDbEntity
8
0
6
ByLayer
62
256
370
-1
100
AcDbSpline
210
0
220
0
230
1
70
8
71
3
72
8
73
4
74
0
42
1e-007
43
1e-007
40
0
40
0
40
0
40
0
40
1
40
1
40
1
40
1
10
694.561831
20
509.374387
30
0
10
694.692514
20
509.147466
30
0
10
694.883949
20
508.956031
30
0
10
695.11087
20
508.825349
30
0
0
SPLINE
5
27C
100
AcDbEntity
8
0
6
ByLayer
62
256
370
-1
100
AcDbSpline
210
0
220
0
230
1
70
8
71
3
72
8
73
4
74
0
42
1e-007
43
1e-007
40
0
40
0
40
0
40
0
40
1
40
1
40
1
40
1
10
695.11087
20
508.825349
30
0
10
695.337504
20
508.694171
30
0
10
695.599009
20
508.624101
30
0
10
695.86087
20
508.624387
30
0
0
SPLINE
5
27D
100
AcDbEntity
8
0
6
ByLayer
62
256
370
-1
100
AcDbSpline
210
0
220
0
230
1
70
8
71
3
72
8
73
4
74
0
42
1e-007
43
1e-007
40
0
40
0
40
0
40
0
40
1
40
1
40
1
40
1
10
695.86087
20
508.624387
30
0
10
696.12273
20
508.624101
30
0
10
696.384235
20
508.694171
30
0
10
696.61087
20
508.825349
30
0
0
SPLINE
5
27E
100
AcDbEntity
8
0
6
ByLayer
62
256
370
-1
100
AcDbSpline
210
0
220
0
230
1
70
8
71
3
72
8
73
4
74
0
42
1e-007
43
1e-007
40
0
40
0
40
0
40
0
40
1
40
1
40
1
40
1
10
696.61087
20
508.825349
30
0
10
696.83779
20
508.956031
30
0
10
697.029225
20
509.147466
30
0
10
697.159908
20
509.374387
30
0
0
SPLINE
5
27F
100
AcDbEntity
8
0
6
ByLayer
62
256
370
-1
100
AcDbSpline
210
0
220
0
230
1
70
8
71
3
72
8
73
4
74
0
42
1e-007
43
1e-007
40
0
40
0
40
0
40
0
40
1
40
1
40
1
40
1
10
697.159908
20
509.374387
30
0
10
697.291086
20
509.601022
30
0
10
697.361156
20
509.862527
30
0
10
697.36087
20
510.124387
30
0
0
SPLINE
5
280
100
AcDbEntity
8
0
6
ByLayer
62
256
370
-1
100
AcDbSpline
210
0
220
0
230
1
70
8
71
3
72
8
73
4
74
0
42
1e-007
43
1e-007
40
0
40
0
40
0
40
0
40
1
40
1
40
1
40
1
10
697.36087
20
510.124387
30
0
10
697.361156
20
510.386247
30
0
10
697.291086
20
510.647753
30
0
10
697.159908
20
510.874387
30
0
0
SPLINE
5
281
100
AcDbEntity
8
0
6
ByLayer
62
256
370
-1
100
AcDbSpline
210
0
220
0
230
1
70
8
71
3
72
8
73
4
74
0
42
1e-007
43
1e-007
40
0
40
0
40
0
40
0
40
1
40
1
40
1
40
1
10
697.159908
20
510.874387
30
0
10
697.029225
20
511.101308
30
0
10
696.83779
20
511.292743
30
0
10
696.61087
20
511.423425
30
0
0
SPLINE
5
282
100
AcDbEntity
8
0
6
ByLayer
62
256
370
-1
100
AcDbSpline
210
0
220
0
230
1
70
8
71
3
72
8
73
4
74
0
42
1e-007
43
1e-007
40
0
40
0
40
0
40
0
40
1
40
1
40
1
40
1
10
696.61087
20
511.423425
30
0
10
696.384235
20
511.554603
30
0
10
696.12273
20
511.624673
30
0
10
695.86087
20
511.624387
30
0
0
SPLINE
5
283
100
AcDbEntity
8
0
6
ByLayer
62
256
370
-1
100
AcDbSpline
210
0
220
0
230
1
70
8
71
3
72
8
73
4
74
0
42
1e-007
43
1e-007
40
0
40
0
40
0
40
0
40
1
40
1
40
1
40
1
10
695.86087
20
511.624387
30
0
10
695.599009
20
511.624673
30
0
10
695.337504
20
511.554603
30
0
10
695.11087
20
511.423425
30
0
0
SPLINE
5
284
100
AcDbEntity
8
0
6
ByLayer
62
256
370
-1
100
AcDbSpline
210
0
220
0
230
1
70
8
71
3
72
8
73
4
74
0
42
1e-007
43
1e-007
40
0
40
0
40
0
40
0
40
1
40
1
40
1
40
1
10
695.11087
20
511.423425
30
0
10
694.883949
20
511.292743
30
0
10
694.692514
20
511.101308
30
0
10
694.561831
20
510.874387
30
0
0
SPLINE
5
285
100
AcDbEntity
8
0
6
ByLayer
62
256
370
-1
100
AcDbSpline
210
0
220
0
230
1
70
8
71
3
72
8
73
4
74
0
42
1e-007
43
1e-007
40
0
40
0
40
0
40
0
40
1
40
1
40
1
40
1
10
694.561831
20
510.874387
30
0
10
694.430654
20
510.647753
30
0
10
694.360583
20
510.386247
30
0
10
694.36087
20
510.124387
30
0
0
SPLINE
5
286
100
AcDbEntity
8
0
6
ByLayer
62
256
370
-1
100
AcDbSpline
210
0
220
0
230
1
70
8
71
3
72
8
73
4
74
0
42
1e-007
43
1e-007
40
0
40
0
40
0
40
0
40
1
40
1
40
1
40
1
10
694.36087
20
530.124387
30
0
10
694.360583
20
529.862527
30
0
10
694.430654
20
529.601022
30
0
10
694.561831
20
529.374387
30
0
0
SPLINE
5
287
100
AcDbEntity
8
0
6
ByLayer
62
256
370
-1
100
AcDbSpline
210
0
220
0
230
1
70
8
71
3
72
8
73
4
74
0
42
1e-007
43
1e-007
40
0
40
0
40
0
40
0
40
1
40
1
40
1
40
1
10
694.561831
20
529.374387
30
0
10
694.692514
20
529.147466
30
0
10
694.883949
20
528.956031
30
0
10
695.11087
20
528.825349
30
0
0
SPLINE
5
288
100
AcDbEntity
8
0
6
ByLayer
62
256
370
-1
100
AcDbSpline
210
0
220
0
230
1
70
8
71
3
72
8
73
4
74
0
42
1e-007
43
1e-007
40
0
40
0
40
0
40
0
40
1
40
1
40
1
40
1
10
695.11087
20
528.825349
30
0
10
695.337504
20
528.694171
30
0
10
695.599009
20
528.624101
30
0
10
695.86087
20
528.624387
30
0
0
SPLINE
5
289
100
AcDbEntity
8
0
6
ByLayer
62
256
370
-1
100
AcDbSpline
210
0
220
0
230
1
70
8
71
3
72
8
73
4
74
0
42
1e-007
43
1e-007
40
0
40
0
40
0
40
0
40
1
40
1
40
1
40
1
10
695.86087
20
528.624387
30
0
10
696.12273
20
528.624101
30
0
10
696.384235
20
528.694171
30
0
10
696.61087
20
528.825349
30
0
0
SPLINE
5
28A
100
AcDbEntity
8
0
6
ByLayer
62
256
370
-1
100
AcDbSpline
210
0
220
0
230
1
70
8
71
3
72
8
73
4
74
0
42
1e-007
43
1e-007
40
0
40
0
40
0
40
0
40
1
40
1
40
1
40
1
10
696.61087
20
528.825349
30
0
10
696.83779
20
528.956031
30
0
10
697.029225
20
529.147466
30
0
10
697.159908
20
529.374387
30
0
0
SPLINE
5
28B
100
AcDbEntity
8
0
6
ByLayer
62
256
370
-1
100
AcDbSpline
210
0
220
0
230
1
70
8
71
3
72
8
73
4
74
0
42
1e-007
43
1e-007
40
0
40
0
40
0
40
0
40
1
40
1
40
1
40
1
10
697.159908
20
529.374387
30
0
10
697.291086
20
529.601022
30
0
10
697.361156
20
529.862527
30
0
10
697.36087
20
530.124387
30
0
0
SPLINE
5
28C
100
AcDbEntity
8
0
6
ByLayer
62
256
370
-1
100
AcDbSpline
210
0
220
0
230
1
70
8
71
3
72
8
73
4
74
0
42
1e-007
43
1e-007
40
0
40
0
40
0
40
0
40
1
40
1
40
1
40
1
10
697.36087
20
530.124387
30
0
10
697.361156
20
530.386247
30
0
10
697.291086
20
530.647753
30
0
10
697.159908
20
530.874387
30
0
0
SPLINE
5
28D
100
AcDbEntity
8
0
6
ByLayer
62
256
370
-1
100
AcDbSpline
210
0
220
0
230
1
70
8
71
3
72
8
73
4
74
0
42
1e-007
43
1e-007
40
0
40
0
40
0
40
0
40
1
40
1
40
1
40
1
10
697.159908
20
530.874387
30
0
10
697.029225
20
531.101308
30
0
10
696.83779
20
531.292743
30
0
10
696.61087
20
531.423425
30
0
0
SPLINE
5
28E
100
AcDbEntity
8
0
6
ByLayer
62
256
370
-1
100
AcDbSpline
210
0
220
0
230
1
70
8
71
3
72
8
73
4
74
0
42
1e-007
43
1e-007
40
0
40
0
40
0
40
0
40
1
40
1
40
1
40
1
10
696.61087
20
531.423425
30
0
10
696.384235
20
531.554603
30
0
10
696.12273
20
531.624673
30
0
10
695.86087
20
531.624387
30
0
0
SPLINE
5
28F
100
AcDbEntity
8
0
6
ByLayer
62
256
370
-1
100
AcDbSpline
210
0
220
0
230
1
70
8
71
3
72
8
73
4
74
0
42
1e-007
43
1e-007
40
0
40
0
40
0
40
0
40
1
40
1
40
1
40
1
10
695.86087
20
531.624387
30
0
10
695.599009
20
531.624673
30
0
10
695.337504
20
531.554603
30
0
10
695.11087
20
531.423425
30
0
0
SPLINE
5
290
100
AcDbEntity
8
0
6
ByLayer
62
256
370
-1
100
AcDbSpline
210
0
220
0
230
1
70
8
71
3
72
8
73
4
74
0
42
1e-007
43
1e-007
40
0
40
0
40
0
40
0
40
1
40
1
40
1
40
1
10
695.11087
20
531.423425
30
0
10
694.883949
20
531.292743
30
0
10
694.692514
20
531.101308
30
0
10
694.561831
20
530.874387
30
0
0
SPLINE
5
291
100
AcDbEntity
8
0
6
ByLayer
62
256
370
-1
100
AcDbSpline
210
0
220
0
230
1
70
8
71
3
72
8
73
4
74
0
42
1e-007
43
1e-007
40
0
40
0
40
0
40
0
40
1
40
1
40
1
40
1
10
694.561831
20
530.874387
30
0
10
694.430654
20
530.647753
30
0
10
694.360583
20
530.386247
30
0
10
694.36087
20
530.124387
30
0
0
SPLINE
5
292
100
AcDbEntity
8
0
6
ByLayer
62
256
370
-1
100
AcDbSpline
210
0
220
0
230
1
70
8
71
3
72
8
73
4
74
0
42
1e-007
43
1e-007
40
0
40
0
40
0
40
0
40
1
40
1
40
1
40
1
10
702.86087
20
289.149147
30
0
10
703.38459
20
289.148575
30
0
10
703.907601
20
289.288715
30
0
10
704.36087
20
289.551071
30
0
0
SPLINE
5
293
100
AcDbEntity
8
0
6
ByLayer
62
256
370
-1
100
AcDbSpline
210
0
220
0
230
1
70
8
71
3
72
8
73
4
74
0
42
1e-007
43
1e-007
40
0
40
0
40
0
40
0
40
1
40
1
40
1
40
1
10
704.36087
20
289.551071
30
0
10
704.814711
20
289.812436
30
0
10
705.197581
20
290.195306
30
0
10
705.458946
20
290.649147
30
0
0
SPLINE
5
294
100
AcDbEntity
8
0
6
ByLayer
62
256
370
-1
100
AcDbSpline
210
0
220
0
230
1
70
8
71
3
72
8
73
4
74
0
42
1e-007
43
1e-007
40
0
40
0
40
0
40
0
40
1
40
1
40
1
40
1
10
705.458946
20
290.649147
30
0
10
705.721302
20
291.102416
30
0
10
705.861442
20
291.625427
30
0
10
705.86087
20
292.149147
30
0
0
LINE
5
295
100
AcDbEntity
8
0
6
ByLayer
62
256
370
-1
100
AcDbLine
10
705.86087
20
292.149147
11
705.86087
21
352.149147
0
SPLINE
5
296
100
AcDbEntity
8
0
6
ByLayer
62
256
370
-1
100
AcDbSpline
210
0
220
0
230
1
70
8
71
3
72
8
73
4
74
0
42
1e-007
43
1e-007
40
0
40
0
40
0
40
0
40
1
40
1
40
1
40
1
10
705.86087
20
532.124387
30
0
10
705.861442
20
532.648108
30
0
10
705.721302
20
533.171118
30
0
10
705.458946
20
533.624387
30
0
0
SPLINE
5
297
100
AcDbEntity
8
0
6
ByLayer
62
256
370
-1
100
AcDbSpline
210
0
220
0
230
1
70
8
71
3
72
8
73
4
74
0
42
1e-007
43
1e-007
40
0
40
0
40
0
40
0
40
1
40
1
40
1
40
1
10
705.458946
20
533.624387
30
0
10
705.197581
20
534.078228
30
0
10
704.814711
20
534.461099
30
0
10
704.36087
20
534.722463
30
0
0
SPLINE
5
298
100
AcDbEntity
8
0
6
ByLayer
62
256
370
-1
100
AcDbSpline
210
0
220
0
230
1
70
8
71
3
72
8
73
4
74
0
42
1e-007
43
1e-007
40
0
40
0
40
0
40
0
40
1
40
1
40
1
40
1
10
704.36087
20
534.722463
30
0
10
703.907601
20
534.984819
30
0
10
703.38459
20
535.124959
30
0
10
702.86087
20
535.124387
30
0
0
LINE
5
299
100
AcDbEntity
8
0
6
ByLayer
62
256
370
-1
100
AcDbLine
10
702.86087
20
354.149147
11
703.86087
21
354.149147
0
LINE
5
29A
100
AcDbEntity
8
0
6
ByLayer
62
256
370
-1
100
AcDbLine
10
700.86087
20
356.149147
11
700.86087
21
498.124387
0
LINE
5
29B
100
AcDbEntity
8
0
6
ByLayer
62
256
370
-1
100
AcDbLine
10
703.86087
20
500.124387
11
702.86087
21
500.124387
0
LINE
5
29C
100
AcDbEntity
8
0
6
ByLayer
62
256
370
-1
100
AcDbLine
10
705.86087
20
502.124387
11
705.86087
21
532.124387
0
ARC
5
29D
100
AcDbEntity
8
0
6
ByLayer
62
256
370
-1
100
AcDbCircle
10
703.86087
20
352.149147
40
2
100
AcDbArc
50
0
51
90
0
ARC
5
29E
100
AcDbEntity
8
0
6
ByLayer
62
256
370
-1
100
AcDbCircle
10
702.86087
20
356.149147
40
2
100
AcDbArc
50
180
51
270
0
ARC
5
29F
100
AcDbEntity
8
0
6
ByLayer
62
256
370
-1
100
AcDbCircle
10
703.86087
20
502.124387
40
2
100
AcDbArc
50
270
51
0
0
ARC
5
2A0
100
AcDbEntity
8
0
6
ByLayer
62
256
370
-1
100
AcDbCircle
10
702.86087
20
498.124387
40
2
100
AcDbArc
50
90
51
180
0
CIRCLE
5
2A1
100
AcDbEntity
8
0
6
ByLayer
62
256
370
-1
100
AcDbCircle
10
695.860869944
20
520.126467859
40
2.25
0
CIRCLE
5
2A2
100
AcDbEntity
8
0
6
ByLayer
62
256
370
-1
100
AcDbCircle
10
695.860869944
20
412.109904547
40
2.25
0
CIRCLE
5
2A3
100
AcDbEntity
8
0
6
ByLayer
62
256
370
-1
100
AcDbCircle
10
695.860869944
20
304.105110585
40
2.25
0
CIRCLE
5
2A4
100
AcDbEntity
8
0
6
ByLayer
62
256
370
-1
100
AcDbCircle
10
459.830801322
20
412.120514871
40
2.25
0
LINE
5
2A5
100
AcDbEntity
8
0
6
ByLayer
62
7
370
-1
100
AcDbLine
10
702.86087
20
535.124387
11
624.86087
21
535.124387
0
LINE
5
2A6
100
AcDbEntity
8
0
6
ByLayer
62
7
370
-1
100
AcDbLine
10
624.86087
20
289.149147
11
702.86087
21
289.149147
0
LINE
5
2A7
100
AcDbEntity
8
0
6
ByLayer
62
7
370
-1
100
AcDbLine
10
619.86087
20
530.124387
11
619.86087
21
485.124387
0
LINE
5
2A8
100
AcDbEntity
8
0
6
ByLayer
62
7
370
-1
100
AcDbLine
10
619.86087
20
485.124387
11
607.277781
21
485.124387
0
LINE
5
2A9
100
AcDbEntity
8
0
6
ByLayer
62
7
370
-1
100
AcDbLine
10
619.86087
20
339.149147
11
619.86087
21
294.149147
0
LINE
5
2AA
100
AcDbEntity
8
0
6
ByLayer
62
7
370
-1
100
AcDbLine
10
607.278487
20
339.149147
11
619.86087
21
339.149147
0
ENDSEC
0
SECTION
2
OBJECTS
0
DICTIONARY
5
C
330
0
100
AcDbDictionary
281
1
3
ACAD_GROUP
350
D
0
DICTIONARY
5
D
330
C
100
AcDbDictionary
281
1
0
ENDSEC
0
EOF
